<svg width="1171" height="213" viewBox="0 0 1171 213" fill="none" xmlns="http://www.w3.org/2000/svg">
<g filter="url(#filter0_i_2090_92)">
<g filter="url(#filter1_i_2090_92)">
<path d="M361.202 213H197.153C193.254 213 190.081 210.119 190.081 206.547V173.676C190.081 171.765 191.015 169.942 192.626 168.722L265.534 113.432C270.624 109.58 267.628 102.024 261.023 102.024H197.153C193.254 102.024 190.081 99.1426 190.081 95.5703V63.7872C190.081 60.2296 193.238 57.3335 197.153 57.3335H361.202C365.101 57.3335 368.274 60.2149 368.274 63.7872V206.547C368.274 210.104 365.117 213 361.202 213ZM285.718 172.911H315.696C320.77 172.911 324.877 169.163 324.877 164.532V141.452C324.877 134.322 315.744 130.455 309.784 135.042L279.806 158.122C273.266 163.165 277.164 172.911 285.734 172.911H285.718Z" fill="white"/>
<path d="M897.681 211.53H719.907C716.009 211.53 712.836 208.649 712.836 205.077V151.83C712.836 149.184 714.592 146.817 717.282 145.832L807.602 112.991C814.835 110.359 812.773 100.554 804.993 100.554H719.07C715.171 100.554 711.998 97.6724 711.998 94.1001V62.3169C711.998 58.7593 715.155 55.8633 719.07 55.8633H894.492C898.39 55.8633 901.563 58.7446 901.563 62.3169V119.312C901.563 121.958 899.775 124.354 897.069 125.31L815.866 154.373C808.601 156.976 810.631 166.825 818.443 166.825H897.697C901.596 166.825 904.769 169.706 904.769 173.279V205.062C904.769 208.619 901.612 211.516 897.697 211.516L897.681 211.53Z" fill="white"/>
<path d="M422.06 212.559H387.233C383.335 212.559 380.162 209.678 380.162 206.106V63.7872C380.162 60.2296 383.319 57.3335 387.233 57.3335H497.061C500.96 57.3335 504.133 60.2149 504.133 63.7872V95.5703C504.133 99.1279 500.976 102.024 497.061 102.024H436.187C432.289 102.024 429.115 104.905 429.115 108.478V206.12C429.115 209.678 425.958 212.574 422.044 212.574L422.06 212.559Z" fill="white"/>
<path d="M693.248 211.53H522.545C518.647 211.53 515.474 208.649 515.474 205.077V62.3169C515.474 58.7593 518.631 55.8633 522.545 55.8633H693.248C697.146 55.8633 700.319 58.7446 700.319 62.3169V97.3343C700.319 99.363 699.272 101.259 697.516 102.48L620.969 155.241C615.556 158.975 618.456 166.84 625.221 166.84H693.248C697.146 166.84 700.319 169.721 700.319 173.293V205.077C700.319 208.634 697.162 211.53 693.248 211.53ZM558.934 103.215V126.207C558.934 132.249 566.361 135.806 571.805 132.381L608.372 109.389C615.008 105.214 611.771 95.7319 603.716 95.7319H567.15C562.623 95.7319 558.934 99.0837 558.934 103.229V103.215Z" fill="white"/>
<path d="M1095.66 55.878H923.648C919.75 55.878 916.577 58.7593 916.577 62.3316V204.591C916.577 208.149 919.734 211.045 923.648 211.045H958.475C962.373 211.045 965.547 208.164 965.547 204.591V107.007C965.547 103.45 968.704 100.554 972.618 100.554H999.503C1003.4 100.554 1006.58 103.435 1006.58 107.007V204.15C1006.58 207.708 1009.73 210.604 1013.65 210.604H1048.47C1052.37 210.604 1055.55 207.723 1055.55 204.15V107.007C1055.55 103.45 1058.7 100.554 1062.62 100.554C1065.48 100.554 1068.08 102.141 1069.16 104.567L1114.87 207.017C1115.95 209.443 1118.55 211.03 1121.41 211.03H1163.92C1169.01 211.03 1172.44 206.253 1170.4 201.989L1102.15 59.7296C1101.02 57.3775 1098.47 55.8633 1095.67 55.8633L1095.66 55.878Z" fill="white"/>
<path d="M169.639 56.9363H61.583C54.608 56.9363 48.97 51.7763 48.97 45.4255V6.45366C48.97 2.89606 45.8127 0 41.8984 0H7.07168C3.17341 0 0 2.88136 0 6.45366V204.253C0 207.811 3.1573 210.707 7.07168 210.707H41.8984C45.7966 210.707 48.97 207.825 48.97 204.253V113.137C48.97 106.772 54.6241 101.627 61.583 101.627H118.333C125.308 101.627 129.464 106.787 129.464 113.137V205.723C129.464 209.281 132.622 212.177 136.536 212.177H171.363C175.261 212.177 178.434 209.296 178.434 205.723V64.9629C178.434 60.538 174.504 56.9363 169.639 56.9363Z" fill="white"/>
</g>
</g>
<defs>
<filter id="filter0_i_2090_92" x="0" y="0" width="1171" height="217" filterUnits="userSpaceOnUse" color-interpolation-filters="sRGB">
<feFlood flood-opacity="0" result="BackgroundImageFix"/>
<feBlend mode="normal" in="SourceGraphic" in2="BackgroundImageFix" result="shape"/>
<feColorMatrix in="SourceAlpha" type="matrix" values="0 0 0 0 0 0 0 0 0 0 0 0 0 0 0 0 0 0 127 0" result="hardAlpha"/>
<feOffset dy="4"/>
<feGaussianBlur stdDeviation="2"/>
<feComposite in2="hardAlpha" operator="arithmetic" k2="-1" k3="1"/>
<feColorMatrix type="matrix" values="0 0 0 0 0 0 0 0 0 0 0 0 0 0 0 0 0 0 0.5 0"/>
<feBlend mode="normal" in2="shape" result="effect1_innerShadow_2090_92"/>
</filter>
<filter id="filter1_i_2090_92" x="0" y="0" width="1171" height="217" filterUnits="userSpaceOnUse" color-interpolation-filters="sRGB">
<feFlood flood-opacity="0" result="BackgroundImageFix"/>
<feBlend mode="normal" in="SourceGraphic" in2="BackgroundImageFix" result="shape"/>
<feColorMatrix in="SourceAlpha" type="matrix" values="0 0 0 0 0 0 0 0 0 0 0 0 0 0 0 0 0 0 127 0" result="hardAlpha"/>
<feOffset dy="4"/>
<feGaussianBlur stdDeviation="2"/>
<feComposite in2="hardAlpha" operator="arithmetic" k2="-1" k3="1"/>
<feColorMatrix type="matrix" values="0 0 0 0 0 0 0 0 0 0 0 0 0 0 0 0 0 0 0.25 0"/>
<feBlend mode="normal" in2="shape" result="effect1_innerShadow_2090_92"/>
</filter>
</defs>
</svg>
