<svg xmlns="http://www.w3.org/2000/svg" viewBox="0 0 1024 1024"><path fill="#0c0b08" stroke="#0c0b08" d="M522.5 386h103l1.5 1.5q3.1 7.4 2 19l-3.5 7.5-3.5-1.5 2-20-1.5-1.5h-88l-132 5h-37l-25-1-2.5-1.5 1.5-2.5h69z"/><path fill="#0c0b08" stroke="#0c0b08" d="m331.5 393 1.5.5 1.5 23.5 168-8h117l1.5 3.5-4.5 2.5h-49l-43-1-189 7-5.5-2.5 1-3-1-21zm339 16q13 5.5 20.5 16.5l1 4-2 1 1 2q-36.4 46.1-79.5 85.5-15.7 15.3-38 24-13.5 5-34 3l-20-4-47-14-17-2q-40.2 29.3-76 63l-1.5-3.5q31.6-33.4 69.5-60.5l31-19q7.7-4.3 21-3l35 12h16l13.5-4.5-15.5-4.5-46-20-21-2q-20.4 3.6-33 15L363 570.5q10.1 5.9 14 18l-3.5 1.5-12.5-13.5-3-8 1.5-.5 2 1 23-25 19.5-16.5-.5-1.5-13 2-50 2-7.5-2.5-1-26 11.5-2.5 96-4 34-16 23-1q31.6 8.4 57 23l13 4h7l18-12 36.5-36.5zm1.5 6-45 51-40 38q-15 12-38 16l-18-1-36-12-11 2-17 9-2 3 15 2 47 14 18 3q18 1 31-5l33-22q41-40 79-83zm-249 85-17 2-69 3 2 21 13-2 60-3 25-20zm158.5 100h48l1.5 1.5 1 6-1 8 1 9-2.5 5.5-293 8-1.5-2.5 6.5-2.5 39-2 95-3 101-1 49.5-2.5v-18l-1.5-1.5-2 1-2-1-241 6-41.5 2.5q-1.9 11.9 2 18l-2.5 1.5q-5.4-5.1-3.5-17.5l3.5-6.5 64-4z"/><path fill="#fefefd" stroke="#fefefd" d="M.5 0 1024 .5l-.5 1023.5L0 1023.5zM557 385l-169 6-25-1-24 1-2 3 2 1 13 1h68l88-4 115 1-1 16 2 6 3-1 2-4v-18l-3-7-15 1zm-225 7-3 5q-1 12 2 20l-1 3 3 1h34l132-6 122-1v-4l-52-2-84 1-150 7v-1l-1-20zm338 17-54 60q-18 22-43 36l-20-5-37-17-22-6q-16-1-25 3l-24 14-112 6-2 3 1 24 7 3q32 1 59-3l5 1-22 19-17 18-7 4 8 13-1 2 2-1 9 8 2-1 3 1-1-1q36-35 77-64l14 1 55 16q13 4 32 4l-20 1v1q17 1 29-2l-6-1q19-3 32-12l35-29q36-34 66-74l-1-5-17-16zm26 24-7 14 1 1 6-10zM471 533v1l6 1h3zm43 11v1l13 3h8zm93 55-219 6-50 3-4 6v15l3 4-2 3 3 3 136-5 133-2 23-2 2-2v-26l-3-3z"/><path fill="#fefefd" stroke="#fefefd" d="m671.5 416 15.5 13.5-62.5 67.5q-18 20-42 34-14.6 9.4-40 8l-25-5-51.5-14.5 19.5-10.5 11-1 31 11 18 2q21.2-2.3 35-12 23.8-15.7 41.5-37.5z"/><path fill="#fefefd" stroke="#fefefd" d="M478.5 484q17.9-1.9 29 3l35 16 19.5 6.5q-4.6 3.9-13.5 3.5l-23-4-2 1v-2l-3 1-15-7-19-2v1l1.5.5q-17.8 5.2-30.5 15.5l-2-1-2 4q-42.8 28.2-77 65L364 570.5l74.5-64.5q16.1-14.9 40-22Zm-8.5 15v1h10l3 1 2-1zm-38.5 1 4.5.5-26.5 20.5-71 4-1.5-19.5zm153 106 41.5.5-1 10 1 5-1.5 2.5q-81.9 4.6-169 4l-116 5 .5-1.5-1-18z"/><path fill="#999675" stroke="#999675" d="m556.5 385 12.5.5-12.5.5zm55 0h14l1.5 1.5-1.5-.5h-14zm-110 1 20.5.5-20.5.5zm-26 1 13.5.5-13.5.5zm-24 1 12.5.5-12.5.5zm-27 1 14.5.5-14.5.5zm-80 1 18.5.5-18.5.5zm44 0 20.5.5-20.5.5zm146 1h88l1.5 1.5-.5 1.5-1-2h-88zm-45 1 17.5.5-17.5.5zm-28 1 14.5.5-14.5.5zm-27 1 11.5.5-11.5.5zm-83 1 13.5.5-13.5.5zm52 0 16.5.5-16.5.5zm-74 1 .5 12.5h-1zm5 6 .5 12.5h-1zm189 6 45.5.5-45.5.5zm-39 1 17.5.5-17.5.5zm-26 1 12.5.5-12.5.5zm-45 2 10.5.5-10.5.5zm-41 2 10.5.5-10.5.5zm152 0 42.5.5-42.5.5zm-173 1 10.5.5-10.5.5zm129 0 17.5.5-17.5.5zm-25 1 11.5.5-11.5.5zm-25 1 12.5.5-12.5.5zm244 0 9 10zm9 0 3 1 3.5 1.5q-5 3 2 6l1 5-4.5 6.5 1.5-2.5 1-3-.5-1.5 1.5-.5-1-4zm-276 1 10.5.5-10.5.5zm-28 1 14.5.5-14.5.5zm-26 1 13.5.5-13.5.5z"/><path fill="#999675" stroke="#999675" d="M691.5 420q5.1 3.9 5.5 12.5l-8 17-41.5 42.5-1.5.5-.5 1.5-12 10v-1l1.5-.5.5-1.5 1.5-.5.5-1.5 11.5-9.5.5-1.5 7.5-6.5.5-1.5 1.5-.5.5-1.5 5.5-4.5.5-1.5 11.5-10.5.5-1.5 3.5-2.5 4.5-6.5 1.5-.5q7.7-6.8 9-20zm-19 1-7.5 8.5-.5 1.5-1.5.5-4.5 6.5-1.5.5-9.5 11.5-1.5.5-24.5 26.5-16 14 5-6 15.5-13.5.5-1.5 1.5-.5zm15 8-8 9zm-32 5-5 6zm22 6-6.5 7.5-8.5 9.5 7.5-8.5zm-39 4-6 7zm44 0-6 7zm-7 8-7 8zm-38 2-10 11zm-10 2-11 12zm33 3-9 10 6.5-7.5-.5-1.5z"/><path fill="#999675" stroke="#999675" d="m667.5 461-9.5 10.5-31.5 33.5-25 22 3-4 52.5-50.5zm-46 10-26 27-17 12 1-2q24.7-14.8 42-37Zm28 0-23 24zm-169 6 13.5.5-13.5.5zm1 6 11.5.5-11.5.5zm-53 11 11.5.5-11.5.5zm-37 2 10.5.5-10.5.5zm232 1-15 16zm-154 2 15.5.5-2.5 1.5-3-1q-28.4-.4-44 12l2-3q12.9-8.1 32-10Zm17 1 12.5 1.5-16.5 2.5-1-2 2 1 4.5-1.5zm-100 2 10.5.5-10.5.5zm114 0q6.5-1 8.5 2.5l-1.5.5zm-163 2 19.5.5-19.5.5zm294 1-8 9-6 4v-1zm-110 3 2.5.5-.5 1.5 7-1 20.5 4.5-16.5.5v-1l5.5-.5-6.5-.5-3 1v-1l1.5-.5-2.5-.5-3 1-5.5-2.5zm85 5-4 5-1-2 1 1zm-151 3 2 1 1.5-.5-4.5 3.5-1-2 2.5-.5zm0 9 7.5.5q-10.5-1-13.5 5.5l2-3zm-42 1-5 6-7 6 6-7zm193 0-2 3-17 10 1-2zm-7 1-2 3-8 5 1-2zm-152 4-3 4-3 2 2-3zm10 2 3.5.5-9.5 3.5 1-2zm13 0 12.5 2.5-2.5.5-10-2zm-31 4-3 4-4 3 3-4zm-49 1-5 6zm9 0-6 7zm145 1 11.5.5-11.5.5zm-119 1-4 5v-3q2 3 4-2Zm152 2 1.5.5q-16.3 8.2-42.5 6.5v-1l20.5-1.5-17-1 19.5-.5 6 1v-1l-4.5-.5 4.5-.5 4 1v-1l-2.5-.5 2.5-.5 4 1zm-136 1-4 5-42 35 3-4zm72 1 21.5 3.5-8.5.5-13-3zm-122 1-7 8zm-11 2-16 17zm34 2-5 6v-3l2.5-.5-.5-1.5zm-32 4-11 12-6 5 6-7zm37 0-5 6zm-13 3-7 8zm6 3-5 6zm-16 6L378 584.5l1.5 3.5 4-3-2 3-1.5.5-.5 2.5-3-1-2 1v-1l2.5-1.5-6-9 2-1-1 1 4 4 .5 1.5 5.5-5.5-.5-1.5 2.5-.5-.5-1.5 2.5-.5-.5-1.5 2.5-.5-.5-1.5 2.5-.5-.5-1.5 1 1zm9 0-9 10zm-42 5 7 8zm31 5-9 10zm-32 3 10.5 11.5-3.5-.5-4.5-3.5-2-4zm244 21 22.5.5-22.5.5zm-50 1 24.5.5-24.5.5zm-41 1 18.5.5-18.5.5zm-32 1 14.5.5-14.5.5zm-33 1 15.5.5-15.5.5zm-33 1 15.5.5-15.5.5zm-30 1 13.5.5-13.5.5zm171 1 25.5.5-25.5.5zm-43 1 20.5.5-20.5.5zm-32 1 15.5.5-15.5.5zm-35 1 16.5.5-16.5.5zm-34 1 17.5.5-17.5.5zm-35 1 16.5.5-16.5.5zm-28 1 14.5.5-14.5.5zm-13 1 .5 13.5h-1zm256 12 15.5.5-15.5.5zm-41 1 23.5.5-23.5.5zm-53 1 27.5.5-27.5.5zm-45 1 19.5.5-19.5.5zm-31 1 15.5.5-15.5.5zm-31 1 15.5.5-15.5.5zm-25 1 11.5.5-11.5.5zm221 0 17.5.5-17.5.5zm-38 1 22.5.5-22.5.5zm-54 1 28.5.5-28.5.5zm-43 1 18.5.5-18.5.5zm-35 1 17.5.5-17.5.5zm-30 1 14.5.5-14.5.5zm-32 1 15.5.5-15.5.5z"/></svg>