<svg viewBox="0 0 1024 1024" version="1.1" xmlns="http://www.w3.org/2000/svg" desc="Created with imagetracer.js version 1.2.6" ><path fill="currentColor" stroke="rgb(0,0,0)" stroke-width="1" opacity="1" d="M 403.5 106 L 621.5 106 L 630 112.5 L 632 116.5 L 632 335.5 L 624.5 345 L 568 346 Q 567.1 360.2 575.5 366 L 608.5 377 L 625.5 385 L 647 403.5 Q 661 421 666 447.5 L 685 615.5 L 685 633.5 Q 681.1 650.1 669.5 659 Q 658.2 669.7 634.5 668 Q 622 665.3 614 659 L 620 878.5 Q 616.5 902 600.5 913 Q 588.7 923.7 563.5 921 Q 545.6 917.4 536 905.5 Q 527.6 896.4 525 881.5 L 512.5 779 L 511 780.5 L 499 883.5 Q 494.8 902.3 481.5 912 Q 469.4 923.9 442.5 921 Q 423.7 916.8 414 903.5 Q 404.3 892.2 404 871.5 L 410 659.5 L 408.5 660 Q 398 670.5 374.5 668 Q 358 664.5 349 653.5 Q 336.9 642.1 339 616.5 L 359 443.5 Q 366.1 410.1 388.5 392 L 410.5 379 L 443.5 369 L 454 360.5 L 457 347.5 L 455.5 346 L 402.5 346 L 394 339.5 L 392 335.5 L 392 116.5 L 398.5 108 L 403.5 106 Z M 424 136 L 422 138 L 422 252 L 425 251 L 429 251 L 440 258 L 447 254 L 447 245 L 440 229 Q 439 221 442 219 L 448 215 L 456 216 L 460 222 L 460 247 L 463 254 L 470 259 L 470 260 L 468 259 L 466 257 L 464 258 L 459 248 L 459 222 L 457 219 L 453 216 L 446 217 L 441 223 L 441 228 L 445 238 L 447 237 L 448 248 L 449 251 L 447 256 L 442 259 L 438 259 L 430 253 L 423 253 L 423 315 L 511 315 L 509 313 L 506 305 L 509 298 L 509 296 L 511 295 L 508 291 Q 503 292 504 289 L 501 288 L 495 280 Q 496 269 503 265 L 504 263 L 509 261 L 512 258 L 512 256 L 513 254 L 513 252 L 515 253 L 514 258 L 506 264 L 497 275 L 497 283 L 512 294 L 507 304 L 509 310 L 517 316 L 602 316 L 602 230 L 598 225 L 595 211 L 588 205 Q 578 207 574 214 L 569 213 L 564 206 L 559 202 L 555 203 Q 546 209 543 222 Q 541 227 534 228 L 524 225 L 521 219 L 523 211 L 535 202 L 542 192 L 540 186 L 534 182 L 521 185 L 499 198 L 490 196 Q 487 193 488 186 L 495 180 L 518 179 L 525 177 L 533 171 Q 534 160 528 157 L 528 151 L 537 145 L 541 138 L 540 136 L 424 136 Z M 544 137 L 541 140 Q 542 144 540 143 L 537 147 L 535 147 L 529 152 L 529 157 L 534 164 L 533 173 L 523 179 Q 511 182 496 181 L 494 183 L 489 185 L 490 194 L 495 197 L 503 195 L 504 193 L 530 181 L 537 181 L 539 183 L 543 191 L 541 198 L 530 206 Q 524 208 527 211 L 523 214 L 524 223 L 530 226 Q 538 227 541 223 L 543 220 L 549 207 Q 551 200 561 201 L 571 213 L 574 213 L 586 204 L 592 205 Q 598 208 598 218 Q 597 221 600 220 L 599 218 L 601 214 L 601 139 L 599 138 L 552 138 L 548 138 L 544 137 Z M 488 346 L 486 348 L 484 366 L 476 382 L 459 395 L 422 407 L 408 415 Q 393 428 388 451 L 369 617 Q 367 628 371 634 L 381 639 L 390 637 L 396 630 L 413 496 L 415 482 L 418 475 L 426 469 Q 436 467 440 472 L 445 483 L 434 860 Q 431 877 438 886 L 450 892 Q 460 893 464 888 L 470 877 L 495 676 L 499 655 Q 502 648 511 647 Q 519 647 523 651 L 527 660 L 551 852 L 555 880 L 557 884 Q 561 890 570 892 Q 578 893 583 889 L 590 879 L 580 521 L 580 480 L 583 473 L 591 469 Q 599 468 603 471 L 609 480 L 628 629 L 630 633 L 640 639 L 651 636 L 656 628 L 637 456 Q 634 435 623 422 L 606 408 L 571 397 L 556 389 Q 539 376 538 348 L 537 346 L 488 346 Z " /><path fill="currentColor" stroke="rgb(0,0,0)" stroke-width="1" opacity="1" d="M 498.5 238 Q 510.7 236.3 514 243.5 L 516 251.5 L 515 251.5 Q 516.5 247.1 513.5 248 L 514 249.5 L 513.5 251 L 512 248.5 L 513 245.5 L 510.5 241 L 507.5 242 L 506.5 239 Q 493.6 237.1 491 245.5 L 489 252 L 487 253.5 Q 482.8 260.8 471.5 261 L 471.5 260 Q 482.3 259.8 486 252.5 L 495.5 239 L 498.5 238 Z " /><path fill="currentColor" stroke="rgb(0,0,0)" stroke-width="1" opacity="1" d="M 526.5 283 L 529 283.5 L 521 287 L 522.5 290 L 524 290.5 L 522.5 291 L 521 290.5 L 522.5 292 L 531.5 293 L 535 290.5 L 536 285.5 L 534.5 283 L 537 284.5 Q 538.5 291.5 534.5 293 L 522.5 294 L 518 290.5 L 520.5 286 L 526.5 283 Z " /><path fill="rgb(255,250,255)" stroke="rgb(255,250,255)" stroke-width="1" opacity="0.01568627450980392" d="M 0 0 L 1024 0 L 1024 1024 L 0 1024 L 0 0 Z M 404 106 L 399 108 L 392 117 L 392 336 L 394 340 L 403 346 L 456 346 L 457 348 L 454 361 L 444 369 L 411 379 L 389 392 Q 366 410 359 444 L 339 617 Q 337 642 349 654 Q 358 665 375 668 Q 398 670 409 660 L 410 660 L 404 872 Q 404 892 414 904 Q 424 917 443 921 Q 469 924 482 912 Q 495 902 499 884 L 511 781 L 513 779 L 525 882 Q 528 896 536 906 Q 546 917 564 921 Q 589 924 601 913 Q 616 902 620 879 L 614 659 Q 622 665 635 668 Q 658 670 670 659 Q 681 650 685 634 L 685 616 L 666 448 Q 661 421 647 404 L 626 385 L 609 377 L 576 366 Q 567 360 568 346 L 625 345 L 632 336 L 632 117 L 630 113 L 622 106 L 404 106 Z " /><path fill="rgb(255,250,255)" stroke="rgb(255,250,255)" stroke-width="1" opacity="0.01568627450980392" d="M 423.5 136 L 539.5 136 L 541 137.5 L 541.5 139 L 544.5 138 L 548.5 137 L 551.5 138 L 598.5 138 L 601 139 L 601 213.5 L 599 217.5 L 600 220 Q 597 221.3 598 217.5 L 597 217.5 Q 596.8 226.2 602 229.5 L 602 316 L 516.5 316 L 509.5 310 L 509 313 L 511 315 L 423 315 L 423 253 L 431.5 254 L 430.5 252 L 424.5 251 L 422 252 L 422 137.5 L 423.5 136 Z M 532 147 L 528 151 L 529 157 L 529 152 L 534 148 L 532 147 Z M 505 179 L 493 181 L 492 183 L 496 181 L 518 180 L 505 179 Z M 543 190 Q 541 198 535 202 L 537 202 L 543 195 L 543 190 Z M 555 201 L 549 207 L 550 208 L 557 202 L 560 203 L 562 203 L 555 201 Z M 528 206 L 521 216 L 522 222 L 524 223 L 523 214 L 527 211 L 529 207 L 528 206 Z M 444 217 L 440 222 L 440 229 L 447 245 L 448 254 L 448 252 L 449 249 L 447 238 L 446 238 L 441 228 Q 440 219 445 218 L 444 217 Z M 460 221 L 459 248 L 461 253 L 463 254 L 460 247 L 460 221 Z M 524 223 L 524 225 L 532 228 L 538 227 L 539 225 L 536 226 Q 527 227 524 223 Z M 496 239 L 489 247 L 490 248 L 491 246 L 498 240 L 496 239 Z M 489 248 L 486 253 L 483 257 L 487 254 L 489 252 L 489 248 Z M 499 270 L 495 277 L 497 283 Q 495 275 499 272 L 499 270 Z M 527 283 L 521 286 L 519 289 L 521 287 L 529 284 L 527 283 Z M 535 283 L 536 286 L 535 291 L 532 293 L 523 292 L 521 291 L 519 292 L 523 294 L 535 293 Q 539 292 537 285 L 535 283 Z M 504 289 L 504 291 Q 510 290 511 295 L 510 295 L 509 298 L 510 299 L 512 294 L 504 289 Z " /><path fill="rgb(255,250,255)" stroke="rgb(255,250,255)" stroke-width="1" opacity="0.01568627450980392" d="M 487.5 346 L 536.5 346 L 538 347.5 Q 538.7 376.3 555.5 389 L 570.5 397 L 605.5 408 L 623 421.5 Q 633.8 434.7 637 455.5 L 656 627.5 L 650.5 636 L 639.5 639 L 630 632.5 L 628 628.5 L 609 479.5 L 602.5 471 Q 598.8 467.7 590.5 469 L 583 473 L 580 479.5 L 580 520.5 L 590 878.5 L 582.5 889 Q 578.4 892.9 569.5 892 Q 560.6 890.4 557 883.5 L 555 879.5 L 551 851.5 L 527 659.5 L 523 651 Q 519 647.2 510.5 647 Q 502.4 648.4 499 654.5 L 495 675.5 L 470 876.5 L 463.5 888 Q 459.5 893 449.5 892 L 438 885.5 Q 431.4 877.1 434 859.5 L 445 482.5 L 439.5 472 Q 435.7 467.3 425.5 469 L 418 474.5 L 415 481.5 L 413 495.5 L 396 629.5 L 389.5 637 L 380.5 639 L 371 633.5 Q 366.8 628.2 369 616.5 L 388 450.5 Q 392.9 427.9 407.5 415 L 421.5 407 L 458.5 395 L 476 381.5 L 484 365.5 L 486 347.5 L 487.5 346 Z " /></svg>