<svg xmlns="http://www.w3.org/2000/svg" viewBox="0 0 1024 1024"><path fill="#1a1914" stroke="#1a1914" d="m792.5 155 2 1 1.5-.5.5 1.5 4-1h2l7.5 1.5 7.5 11.5 2.5 1.5 2.5 3.5 10.5 7.5 2.5 3.5 1.5.5 6.5 10.5 1.5.5 1.5 5.5 2.5.5 2 3-2 1 3 1-3.5 10.5-2-1-1 2-2-1-10 12-51.5 35.5-1.5 2.5-25.5 19.5-.5 1.5-7.5 5.5-.5 1.5-1.5.5-5.5 7.5-14.5 12.5-46 59-10 17-14 39-11.5 17.5-6.5 4.5-.5 1.5-39.5 23.5-4.5 10.5-5.5 4.5-6 16 8 21 6.5 7.5 10 5 19.5 18.5 10.5 20.5 1.5.5 3 10 10.5 17.5 1.5.5.5 1.5 4.5 3.5 3.5 5.5 2.5.5 10.5 15.5 1.5.5-.5 1.5 12.5 10.5 3.5 5.5 1.5.5 1.5 3.5 3.5 2.5 9.5 14.5 18.5 13.5.5 1.5 4 1 39 33 .5-1.5-6-5-.5-1.5-29.5-27.5-24.5-28.5-1.5-.5-.5-1.5-3.5-2.5-1.5-2.5-6.5-5.5-20-23-3-7-22-28-15-23q-2.3-15.2-9-26l-6.5-6.5-4-2-.5 1.5 3.5 4.5-17.5-9.5-4-11 1-3-4-10v-5l4.5-9.5 23-17-.5 1.5.5 1.5 13-7 2 1 2-4 1.5.5-.5 2.5-1.5-.5-1.5 3.5-17.5 12.5-2.5 4.5-1.5.5 1 4-3.5 7.5-1.5.5 1 2-1 2v2l.5 1.5 1.5.5-2 5 20 15 9 13 2 7-1 2 15 36 6.5 9.5 2.5 1.5 4.5 5.5 3.5 2.5.5 1.5 11.5 9.5 2.5 3.5 2.5 1.5.5 1.5 1.5.5.5 1.5 2.5 1.5 2.5 3.5 8.5 7.5 1.5 2.5 10.5 8.5.5 1.5 7.5 5.5.5 1.5 5.5 3.5 4.5 5.5 1.5.5 6.5 9.5 1.5.5 22.5 23.5 2.5 1.5 11.5 13.5 4.5 2.5 1.5 2.5 12.5 8.5 1.5 2.5 33.5 30.5 2.5 4.5 1.5.5 13.5 16.5 1.5.5 5.5 9.5 3.5 1.5-1.5 3.5-6.5 4.5-.5 1.5-2.5 1.5q-3.5 17.5-15.5 26.5-8.7 10.8-25 14l-1-3-1.5.5 1 5-2 1-1.5 3.5-4-1-2 1-1-2-3 1-2-4-2 1-6.5-5.5-2.5-4.5-2.5-1.5-7.5-10.5-2.5-1.5-12.5-13.5q-18.3-12.2-32.5-28.5L704.5 759l-1.5-.5-.5-1.5-1.5-.5-.5-1.5-9.5-8.5-2.5-3.5-3.5-2.5 1-2-2-1-.5 1.5-5.5-4.5-3.5-4.5-1.5-.5-.5-1.5-8.5-6.5-10.5-11.5-11.5-9.5-1.5-2.5-22.5-19.5-6.5-8.5-10.5-8.5-1.5-3.5-12.5-7.5-.5-1.5-37.5-33.5-14.5-21.5-14-11-3 1-6-2-4.5 3.5 1 2-3.5 5.5-17.5 13.5-2.5 3.5-6 3-2-1-3.5 2.5-.5 2.5-10 4-33 20-14.5 14.5-13 21-9.5 9.5-15.5 13.5-36.5 46.5-1.5.5-.5 1.5-1.5.5-4.5 6.5-1.5.5-19.5 20.5-1.5.5-21.5 30.5-2.5 1.5-12.5 13.5-11.5 9.5-21.5 27.5q-4.5 5.5-15 5l-.5-2.5 1-4-14-7-7.5-9.5-10.5-7.5-2.5-3.5-4.5-2.5-.5-1.5-2.5-1.5-1-3v-2l-1.5-3.5-1.5.5-1-7q4.2-11.3 12.5-18.5l2.5-.5 12.5-13.5 4.5-2.5.5-1.5 1.5-.5.5-1.5 3.5-.5.5-1.5 1.5-.5.5-1.5 3.5-2.5.5-1.5 6.5-4.5.5-1.5 7.5-5.5 4.5-5.5 10.5-9.5 25.5-29.5 3.5-2.5 1.5-2.5 2.5-1.5.5-1.5 2.5-1.5.5-1.5 2.5-1.5 11.5-14.5 2.5-1.5 5.5-8.5 1.5-.5 8.5-11.5 1.5-.5 18-30 6-14 16.5-25.5 1.5-.5 17.5-20.5 6.5-2.5.5-1.5 2.5-1.5.5-1.5 4-2h2l6.5-5.5 1.5-2.5 8-5 14-3 5.5-4.5v-3l4-4q3.6-13.4 11.5-22.5l2 1-.5-1.5-9.5-10.5-6.5-4.5-4.5-5.5h-4l-7-4 .5 1.5 3.5 8.5q7.5-1 8.5 4.5l5 20-1.5 3.5-2.5.5q3 2-2 4l-3.5 8.5-14 4-3 1-35 23-10 9-.5-1.5 11.5-13.5 23.5-15.5-2.5-.5-1.5.5.5-2.5 14.5-6.5 3-9 7-8v-6l-12-16q-5.3-7.7-5-21l-3.5-3.5-18.5-15.5-10.5-12.5-28.5-22.5-2.5-3.5-9.5-6.5-10.5-14.5-6.5-5.5-25.5-31.5-8.5-6.5-7.5-10.5-10.5-9.5-.5-1.5-23.5-18.5-.5-1.5-9.5-7.5-1.5-2.5-7-4-17.5-16.5-.5-1.5-7.5-6.5-.5-1.5-24.5-20.5-1-3 1-2-1.5-2.5-3 2-2.5-1.5 2-8-3-1 1.5-3.5 2 1 6-13 13.5-10.5 5.5-8.5 1.5-.5.5-1.5 4.5-2.5 3.5-5.5 2.5-1.5 4.5-5.5 4.5-1.5.5-2.5 2.5.5.5 2.5 3-2 8.5 6.5 2.5 3.5 2 1 4-1 11 15 1.5.5 1.5 2.5 8.5 2.5 3.5 6.5 1.5.5 3.5 5.5 20.5 19.5 15.5 20.5 5.5 3.5 11.5 13.5 28.5 26.5 2.5 3.5 8.5 6.5.5 1.5 16.5 12.5 8.5 11.5 1.5.5 4.5 6.5 1.5.5 25.5 29.5 30.5 17.5 8.5 11.5 30 6 11.5 10.5 2.5 3.5 2.5 1.5.5 1.5 2-1 4 1 2-3 4-1 9-8 7-2 14.5-11.5.5-1.5 6-3-2.5 5.5-19.5 23.5-9.5 4.5 8 3-1.5 3.5-1.5.5 1.5 2.5 8.5-5.5 23.5-28.5 9.5-8.5 5-8 1-3 14-28 19.5-28.5 2 1 .5-2.5 4-9 19.5-24.5 2.5-1.5 5.5-7.5 2.5-1.5.5-1.5 2.5-1.5 13.5-15.5 3.5-2.5.5-1.5 8.5-7.5.5-1.5 2.5-1.5 2.5-3.5 14.5-11.5.5-1.5 2.5-.5.5-2.5 14.5-11.5.5-1.5 10.5-7.5.5-1.5 27.5-22.5 1.5-2.5q17.4-18.6 41-31Zm12.5 22-4 7 3 1 7-2v-1zm-588 14-2 1-10 11 6 3 1-4 5-3 10 4h1l-7-9zm613 11-4 4 1 1 6-1v-1zm-637 23-2 3 9 10h1l-7-12zm524 4-39 36-25 27-3 2-5 7h-1l-1 2h-1q-14 12-20 33h-1l-25 43v2l-7 12v6l-18 33h-1l-3 5-8 6-2 4q-2 4-8 3l-1-2-9 2-2-1-6 7-13 11-1-3-3 1-1 2h3l1 2 25-6 22-12 4-6 3-2 6-7 4-3v-1l3-2 6-7 6-16 10-18 30-41 2-1 5-9 3-2 5-10 30-38 28-25 2-3-1-2 3-7 2-3-6 4-8 9-5 3-1 2-25 24-1 2-10 8q-22 20-36 48l-5 4 19-37 18-21 3-2 9-10 8-7 23-25 4-3v-1l2-1 14-15zm0 39-19 18-5 6h-1l-18 22h3l2-4 21-20 19-21zm-15 43-6 5-10 12-5 4q-20 19-35 42l-5 11-1 11-6 16-16 26-16 14-26 14q-22 17-26 51v9l13 22 9 4 1 4 14 5 1 3h6l7 6 6 8h2l5 7 3 1v2l8 6 9 9-11-21-3-3-1-1-11-6-15-12-8-2-10-7-13-23-3-12v-2q8-20 21-34 12-13 30-21 12-11 18-28l3-2v-1h1l-2 6 1 3 14-41 14-27 16-25 28-32zm-343 24-1 2 7 5 3 7 18 16 4 6 4 2 5 7 4 1 6 8 4 1 1 1-11-14-8-8-1-1-14-13-8-9zm-38 9-1 2 20 17h1l-10-11-3-3-2-2zm-11 12 1 5 4 2 8 11 6 4 3 5h2l39 43 12 9v3l2-1 3 2 1 3 28 23 7 7-10-14-1-1-6-7-6-5-2-2-1-1-14-20-11-8-1-1-14-9-23-23-6-4-16-16zm52 8v5h2v2l5 2 5 8 17 15v2h2v2l8 6 9 11h2l2 4 5 2v-1l-1-1-1-2-4-4-22-22-1-4q-9-11-22-18zm277 0-27 36-15 31 1 1 12-18 2-1 27-47zm-192 55 4 4 5 9 5 2 5 8 6 5q8 0 13 5l2-1 16 11 20-17-7-4-21 4-15-6-26-18zm-12 2-1 2 5 2v2l3 1v-1zm-24 11-1 2 22 18v2l3 1 7 11h2q14 16 20 40l-1 9 2 11q0 10-5 15l-1 2 5-2 6-10 2-16-1-15-8-24-7-7-5-5zm185 0-1 2h-1l-4 6-8 7h5l10-14zm-119 35 2 2 12 15 18 13 9-14 2-1v-1l1-2-15 2-5-5 1-2-4-3q-14 1-21-4Zm80 1-25 14h3l5 2h2l7-4 9-11zm-80 19v11l4-7zm65 3-20 21 5 2v2l7 4 1-12 7-15zm60 5-3 3 1 12 2-10zm-111 4v2l-1 6 2 8 1-2 2-1v-1l2-1 3-5zm55 4-3 7 1 6 2-9zm32 0-6 7q-1 8 4 12l1-3-1-2 2-5-1-2 1-4zm-63 15-6 4-2 3-8 7-5-1-2 3-2 1-24 29 1 1 21-17v-1l4-3 3-4 2-1v-1q9-10 25-12l-1-2-1-1-1-1zm-38 5-6 12h2l5-6zm-23 5-5 12h-1l-1 3-2 5-3 1-1 2-3 2h-2q-6 4-16 4h-2l-8 4-1 2-25 19-27 38-22 40-24 33h-1l-1 2h2l2-3 6-3 2-3 12-11 18-24 2-1 1-2v-3l-6 7h-3l11-18 25-30 9-22 5-3h1l-5 7v7l-3 6h2l5-9 18-17 19-11h4l11-12 8-6v-2l-2 1h-2l4-14zm122 5 3 12 14 9h1l-1-2-1-1zm-49 4-15 5-1 2 2-1h14l9 4 8 11 5 2-9-17-7-6-4 1zm-22 14-2 1-7 9-1 2 18-9v-1zm16 3-3 7h8l9 4v-1l-1-1-1-1q-4-7-12-8Zm-67 12-15 12 1 1 15-8 1-3zm25 0-8 6h-2l-9 5-1 2q-20 5-33 18l-2-1-1 2h-1l-23 23q-9 19-22 35l1 1 4-3 17-22 6-5 1-2 12-11v-1l19-15 33-19 10-12zm73 1-1 5 4 7 11 7h1zm14 3-1 2 12 9 1 3h2l6 9h2v2l16 10v2l5 3v2l4 2 2 4h2l19 29 5 3 2 4 5 3 3 3-4-7-1-1-5-6-1-1q-15-17-24-40l-2-2-3-1 6 13h-1l-20-26-20-15zm-146 11-20 15-14 15-10 16-2-1-9 11-2-1-1 5h-2l-6 11h2l-1 4 1 1 10-11 2 1 7-10 2-1v-1l2-1-1 2 1 1 25-37 9-10 9-8zm165 37v4l18 18h1l-9-10-1-1-3-5-2-2-3-3zm-211 27-37 42-2 1-30 39h-1l-7 9 1 1 2-1 3-4 2-1 1-3 4-3 18-21h1l-4 7-3 4 29-27v-2l-15 11-2 3h-2l20-27 4-3 3-6 4-2 11-15zm284 2v4l11 12 4 2 4 4-5-8zm-18 14 11 10 6 9 9 3 20 17 3 5h2v3h2l11 13 5 3v2h2v2l4 2h1l-12-16-4-3-1-1-1-1-4-4-7-7-11-13-13-11-1 3zm-331 34-28 31 1 1 7-6 7-9 3-2 10-13zm497 135-1 2h-1l-2 3 2 4 7-5 2-3-2 1zm-585 2-4 3 5 3 1-2z"/><path fill="#1a1914" stroke="#1a1914" d="m765.5 308 .5 1.5-3.5 4.5-21.5 17.5-36.5 44.5-3.5 2.5-13.5 20.5-1.5-.5 5-15 19.5-26.5 2.5-1.5 14.5-16.5 14.5-10.5 1.5-2.5 1.5-.5.5-1.5 15.5-11.5 1.5-2.5zm-478 70 4.5 3.5.5 1.5 1.5.5 1.5 2.5 1.5.5 14 17-1.5.5-1-2-5.5-4.5-.5-1.5-6.5-5.5-.5-1.5-1.5-.5zm389 44 1.5 6.5q-4.7 13.3-14.5 21.5l-.5-5.5zm-104 56 2.5.5 1 2-7 6-.5 1.5-1.5.5-3.5 5.5-2.5-.5q1.4-10.6 9.5-14.5zm-226 100 1.5.5-11 20-21.5 28.5-3.5 1.5-.5 1.5-.5-1.5 20-33 11.5-14.5zm25 146 1.5.5 1 3-6 5-.5-2.5-8 7-.5-1.5 5.5-6.5q5.8.8 6.5-3.5z"/><path fill="#fefefe" stroke="#fefefe" d="M.5 0 1024 .5l-.5 1023.5L0 1023.5zM796 154l-15 7-1 2-14 9-1 2-6 5-5 6h-1l-3 4-23 18-1 2-22 17-8 9-19 15-23 25-3 2-13 15-5 4-13 18h-1l-1 3h-1l-1 2h-1l-6 11 1 1-2-1-3 5h-1l-20 31-14 30-6 7-3 2-11 13-6 5q-2 5-4 2l-8 2-1-1 2-1v-1l2-1 5-8 3-2 6-7 1-5 2-1v-3l-9 6-1 2-11 9-8 2q-5 8-15 10l-8-10-5-4-1-2-11-8-6-1-34-18-1-1-22-16-2-2-3-3-1-1-1-1-2-2-2-1-9-12-1-1-1-1-1-1-2-3-1-1-10-11-2-2-2-3-1-1-1-1-1-1-2-2-20-17-2-2-2-2-1-2-1-1q-2-5-4-2l-3-5-1-1-4-4-3-3-1 2h-2l1-4-7-7-18-20-4-4-6-7-10-10-1-1-23-20-1-1-1-1-11-14-14-9-4 2 1 3-1-1-3 2-3-4-6-6-5 1v-1l-3-2-1 2-8 6-5 7h-1l-1 3-7 4-5 8-8 7-2 3h-2l-7 12h-1l-3 6h3l-3 5v2l1 2 6-1v6l25 21 1 3h2l6 8 7 4v2l3 1 1 3 12 8v2l18 14v2l18 13 4 6 6 4 2 4h2l5 9h2l2 4 3 1h2l41 51 45 36 2 5h2l6 9 17 12q3 2 2 9v2q2 12 10 20l3 1 4 9v5q-8 3-9 15l-12 7h-2l-2 1-1 2 3 2-19 12-14 16 1 1 46-32h2l13-4 4-9 6-5q0-14-4-23-1-6-8-5l-4-7v-2l13 6 1 4 7 3v2h2v2l5 4-1 7-7 9-8 17-2 1-1 2-20 6-8 9-8 3-15 11-12 15-4 3-35 61-18 24h-1l-17 22-9 7-1 2-5 4-15 16-2 5h-1l-2 3h-1l-2 3-13 12-2 3-11 9-5 6-17 12-1 2h-1l-3 4-10 8-1 2h-1l-11 18 2 4-1 2h3l2 9 8 5 1 3 13 8 1 4 3 1 3 6 12 5h-1l-1 2 2 1-1 3 5 1 8-3 1 4q2 4 5 0l3 2 11-7v-1l2-1 3-6 4-3 19-25 2-1v-1l2-1v-2l2-1 11-11 1-4 2 1v-2l3-1v-1l-2-1 4-1 4-5 2-1v-1h-2l1-2 2 1 6-8-1-3h2v-1h2l1-4 3-1-2-1 2-4 2-1 2 2-1-3 2-1-1-1 3-1 1-2 4-3v-2h2v-1l8-5 1-2 16-15q6-1 5-10l4-2-1-3 4-1 6-9 2-1 8-13 2-1 3-5 2-1v-3l5-2 21-25 3-1v-1l2-1 1-2 9-5 2-3 2 1 50-31v-1l4-3 11-14 4-11 4-3 2 4 11 7 11 19 17 15v2l5 3v2h2v2l7 4v2l14 11 8 4 2 5h2v2l8 5 6 8 5 3v2l7 4v2l3 1 2 4 22 18 1 3h2l4 6 13 10 3 6 9 6 22 24h2v2h2v2l3 1 10 15h2v2h2v2l7 5v2l23 17v2l8 6v2h2l11 16h2l3 6 7 4v2l9 3 6-1 1-2 1-3 1-2v2h2v-1l3-1h2l14-9 2-3 6-4 1-2 2-1 7-12 1-7 6-7 3 2 3-1 3-5v-4l-2-4 1-4-2-6-18-22-7-6-8-9-5-4-1-1-14-12-2-2-36-25-1-1-4-4-3-3-9-8-14-15-1-1-1-1-10-10-2-2-9-7-1-2-1-1-2-2-5-4-5-8-2-2-5-8-3-3-4-6-2-2-3-5-5-3 1-2-5-5-1-2-6-2 3-1-9-7 1-2-1-1-1-1-4-1 1-2-2-2-1-1-2-1-1-1-5-3-5-7-4-18-7-10q-6-9-16-13l-1-1-4-3 1-4-1-3v-6l7-16 19-14v-1l2-1v-2l3-6-2-1 13-19 3-2 23-45 13-18 5-4q-9 9-13 24l1 2h-1l-1 4v2l-2 1 3 1v-4l21-30 2-1 19-25 3-2 8-10 2-1v-1l19-16 8-9-2-1-6 7-15 10-2 3-13 10-1-1 3-2 18-25 3-2 5-7 10-8 3-4 21-15h3l16-10v-1l8-5 1-2 17-14v-1l1-3 3-1 3-1 4-8 2-1v-2h-2l1-2-1-1h-2l-2-2h2l6-3-1-3 2-3-3-9-1-1-10-14-11-10-1-1-1-1-5-5-1-1-2-3-1-1-1-1-1-1-2-3q-4-6-13-6l-1 2zM287 377l11 17 3 1 2 4 3 1v2l11 8h1l-26-29zm390 44-13 20-2 9h3l11-15 3-10zM347 577l-13 14-20 30-5 11h2v-1l4-3 2-3 2-1 18-24 5-12 2-1 4-6zm-54 78-5 6h2l4-5zm360 76v5h2v2l2-1z"/><path fill="#fefefe" stroke="#fefefe" d="m805.5 177 3.5 2.5.5 1.5 1.5.5-8.5 2.5q-3.2-1.7.5-3.5zm-589 14 6.5 5.5.5 1.5 1.5.5 3 4-1.5-.5-11-3-3.5 1.5-2 3 .5 1.5-4.5-2.5zm-24 35 1.5.5 7 10-1.5.5-7.5-7.5zm517 10-1.5 2.5-35.5 37.5-2.5 1.5-22.5 24.5-2.5 1.5-11 15-20 37 1.5.5 3-4 1.5-.5 28.5-40.5 4.5-3.5 2.5-4.5 28.5-25.5 5.5-6.5 4.5-3.5 3.5-4.5 4.5-3.5.5-1.5 2.5-1.5.5-1.5 8-7 .5 1.5q-5 2.5-4 11l-8.5 8.5-11.5 8.5-2.5 3.5-1.5.5-8.5 10.5-1.5.5-67.5 93.5-2.5 1.5-10 18-6 16-5.5 7.5-18.5 17.5-4.5 5.5-16 9-27 7 3-4 15-14 6-1 2 1 3-1 5 1 5.5-4.5.5-1.5 9.5-8.5 7.5-12.5 1.5-.5 13-28v-2l14-29 19-29 5-13 37.5-44.5 7.5-6.5.5-1.5 8.5-6.5.5-1.5zm8 32 .5 1.5-4.5 5.5-5.5 4.5-.5 1.5-1.5.5-9.5 10.5-12.5 11.5-.5 1.5-1.5.5-6.5 8.5-.5-1.5 12.5-15.5 1.5-.5 14.5-15.5 7.5-6.5.5-1.5zm-18 46-1.5 2.5-2.5 4.5-1.5.5-6.5 8.5-1.5.5-22 29-15 26-6 16-7.5 8.5-.5-1.5 7-21v-2l5-13 21.5-27.5 2.5-1.5.5-1.5 2.5-1.5 23.5-25.5zm-378 31 4.5 2.5.5 1.5 3.5 1.5 2.5 4.5 1.5.5 2 3-7.5-6.5-1.5-.5-1.5-2.5-3.5-1.5zm-11 12 15 16 11.5 8.5 4.5 5.5 11.5 10.5 4.5 5.5q12.6 4.4 20.5 13.5l.5 1.5 7.5 4.5q6.9 14.6 18.5 24.5l4.5 3.5 4.5 6.5 1.5.5 8 10-1.5.5-49.5-44.5-29.5-31.5-2.5-1.5-2.5-3.5-1.5-.5-26-28zm328 8-1.5 2.5-23 42-10.5 11.5.5-1.5q12.4-32.1 34.5-54.5Zm-271 6 17.5 12.5 6 10 18.5 19.5 7.5 6.5-1.5 1.5-5.5-5.5-.5-1.5-2.5-1.5-4.5-5.5-11.5-10.5-.5-2.5-1 1-10-10-3.5-2.5zm90 60 7.5 4.5.5 1.5 1.5.5 1.5 2.5 19.5 10.5-4.5.5-14.5-6.5-7.5-10.5zm-47 1 51.5 42.5 2 6v2q8.2 12.8 7 35l-2 14-3.5 7.5-6 3 2.5-3.5 3-6v-2l-1-19 1-3q-4.6-21.4-15.5-36.5l-1.5-.5-3.5-5.5-1.5-.5-13.5-15.5zm186 0-1.5 2.5-8.5 12.5-2-1-1.5.5.5-1.5 1.5-.5.5-1.5 7.5-6.5zm17 10-.5 1.5-2.5 4.5-5.5 4.5-.5 1.5-3 2-2-1-22.5 13.5-7.5 11.5-3.5 2.5-10 20-2 19q1 9 7.5 12.5l5.5 2.5 4 11 5.5 5.5 23 12 17 13 1.5-.5 2.5 5.5q1.8-2.8 3.5 1.5l9 16-2.5-1.5-23.5-22.5-1.5-2.5-10-9-21.5-10.5-1.5-2.5q-7.4-1.1-10.5-6.5l-1.5-3.5-1.5-.5-7-12-2-8 1-2-1-2 6-24q5.1-13.4 14.5-22.5l1.5-.5.5-1.5q11-10 27-15zm-124 9q4 5 13 5l7-3 2 1 1.5-.5-8.5 7.5h-3l-12.5-8.5zm-11 17q6.1 4.4 18 3l4.5 2.5 3.5 7.5 4 1 12-3-4.5 5.5-7.5 11.5-3.5-1.5-.5-1.5-2.5-.5-1.5-2.5-9.5-7.5-3.5-4.5-1.5-.5-5.5-7.5zm78 1-2.5 3.5-4.5 6.5-8 4-3 1-5.5-2.5zm-79 19 3.5 2.5-4.5 6.5-.5-4.5zm63 4-.5 1.5q-6.7 9.3-6.5 25.5l-11.5-8.5 11-10z"/><path fill="#fefefe" stroke="#fefefe" d="m601.5 495 .5 2.5-2.5 9.5-.5-4.5zm-110 4 8.5 6.5-9 8zm23 19 1.5.5 5 7-19.5 7.5-19.5 18.5-.5 1.5-13 10-.5-1.5 10.5-13.5 4.5-3.5 11.5-13.5 5 1 4.5-3.5 6.5-7.5zm-38 6 1.5 4.5-6 5zm-22 4-.5 1.5-4 14 2.5.5 2.5-1.5-19.5 18.5q-20.3 6.7-33.5 20.5l-.5 1.5-3.5 2.5-8.5 12.5-.5-1.5 3-8-1-2 6-9-1.5-.5-6.5 5.5-8 20-27 33-8 12-1 5 1.5.5 4.5-3.5 2.5-3.5-.5 1.5-12.5 17.5-2.5 1.5-1.5 3.5-2.5 1.5-4.5 5.5-1.5.5-10.5 11.5-3 2q-3.8-2.3 1.5-4.5 24.2-30.8 42-68l18-27 9.5-10.5 28-22 24-5 10.5-9.5-1-3 2-1zm162 6 7.5 5.5 5 9-4.5-3.5-7.5-5.5 2-1zm-86 3 9.5 6.5 8 14-2.5-1.5-2.5-.5-6.5-8.5-8-4-17.5-.5 7.5-3.5 2 1zm-27 15 8.5.5-.5 1.5-16 8 1.5-2.5zm17 3q9 1 12.5 7.5l-.5 1.5-8-4h-5l-1.5.5zm-67 11 2.5 1.5-2.5 3.5-14 8 1.5-2.5.5-1.5zm26 0-1.5 2.5-4.5 6.5-51 33-26.5 26.5-18.5 22.5.5-1.5q13-15 21-35l5.5-5.5 7.5-6.5 6.5-7.5 27-17 25-11zm72 2 2 3 5.5 4.5 7 10-3.5-2.5-7.5-5.5zm14 2 8 5h2l20.5 14.5 17 23-1.5.5-24.5-20.5-4.5-6.5-4.5-3.5-.5-1.5-6.5-4.5-1.5-2.5z"/><path fill="#fefefe" stroke="#fefefe" d="m420.5 581-3 4-1.5.5-.5 1.5-2.5 1.5-9 10-23.5 35.5-1.5-.5-.5-1.5-3-1-2.5 1.5.5 1.5 2.5.5-8.5 11.5-3.5.5-.5 1.5-5.5 4.5-2.5 3.5.5-1.5 1-4-1-3 3.5-6.5 2 1 1.5-2.5-.5-1.5 1.5.5.5-1.5 1.5-.5 3.5-5.5 1.5-.5.5-1.5 1.5-.5.5-1.5 5.5-2.5 6-12 19.5-20.5zm191 21 4.5 3.5q12.5 32 35 54l-15-14-18.5-27.5-3.5-2.5.5-1.5q1.8 3.8 3.5.5zm-27 16 8.5 10.5-5-4zm-213 29 .5 1.5-10.5 13.5-.5-2.5zm286 1 14.5 13.5 4 5-2.5-1.5-10.5-9.5zm-16 14 17 14 4 1 3-1 3 4 10.5 8.5 8.5 10.5 1.5.5 5.5 7.5 10.5 8.5 4.5 7.5 1.5.5.5 1.5 1.5.5 2 3-1.5.5-19-20-3.5-2.5-9.5-10.5-2.5-1.5-1.5-2.5-20.5-13.5-3.5-5.5zm-284 1 1.5.5-26 33-1 4 3.5-2.5 11.5-8.5.5-1.5 1.5-.5.5-1.5 1.5.5-23.5 24.5-6 4v-1l2.5-1.5 6-10-6 5-.5 1.5-3.5 2.5-1.5 3.5-4.5 3.5-15.5 17.5.5-1.5 12.5-17.5 5.5-4.5q17.5-27.5 40.5-49.5Zm-54 37 1.5.5-3 2q-5.5 13-16.5 20.5l-1.5-.5 13.5-15.5 1.5-.5zm501 132 6.5.5-6.5 5.5-1.5-4.5z"/><path fill="#e2c54e" stroke="#e2c54e" d="m795.5 154 2.5 1.5.5-1.5 8.5 2.5-1.5-.5-4 1-2-1-3 1-1-2-2 1v-1zm-19 10-3 4-4 3 3-4zm-542 17 15.5 8.5 10.5 14.5 1.5.5.5 1.5 23.5 19.5.5 1.5 10.5 9.5 5.5 7.5 4.5 3.5 17.5 20.5 7.5 6.5-1 4 1.5.5 1-2 3.5 2.5 3.5 4.5 1.5.5 2.5 5.5q2-3 4 2l1.5.5.5 2.5 2.5 1.5 1.5 2.5 20.5 16.5 1.5 2.5 1.5.5.5 1.5 1.5.5 1.5 3.5 2.5 1.5 9.5 11.5 1.5.5 1.5 3.5 1.5.5.5 1.5 1.5.5 8.5 12.5 2.5.5 1.5 2.5 1.5.5.5 1.5 3.5 2.5 1.5 2.5 22.5 15.5.5 1.5 34 18 6 1 11.5 7.5.5 2.5 5.5 3.5 7.5 10.5 2-1-.5 1.5-.5 1.5-4-1-2 1-2-3-3.5-2.5-9.5-10.5-18-5h-10l-7.5-5.5-5.5-8.5-25-13-15.5-14.5-15.5-19.5-3.5-2.5-2.5-4.5-3.5-2.5-6.5-9.5-16.5-12.5-3.5-4.5-7.5-5.5-6.5-7.5-30.5-28.5-4.5-6.5-4.5-2.5q-14.6-22.4-34.5-39.5l-1.5-.5-3.5-5.5-1.5-.5-4.5-7.5-8.5-2.5-.5-1.5-1.5-.5-10.5-14.5-4 1q-3-1.5 0-3l1.5-.5.5-2.5zm511 10-2 3-4 3 3-4zm-531 1-8.5 9.5-.5 1.5-.5-1.5zm521 7-7 8zm115 15 .5 2.5-7 4 .5 1.5h2l1.5.5-1 2h2l-.5 2.5-1.5.5-4.5 8.5-3 1-2.5.5-1 3-.5 1.5-16.5 13.5-1.5 2.5-7.5 4.5-.5 1.5-16 10h-3L770 288.5l-3.5 4.5-9.5 7.5-5.5 7.5-2.5 1.5-18 25q3.3 2.3-2.5 4.5L717 349.5l-5.5 7.5-1.5.5-9.5 12.5-1.5.5v2l-2.5 3.5q-1.7-2.8-3.5 1.5l-13 18-23.5 45.5-2.5 1.5-13 19 2 1-2.5 1.5-2-1-3.5 5.5 1.5.5 4.5.5-2.5 1.5-1-2-1 2-2-1-13 7-.5-1.5.5-1.5-23.5 17.5q-5 4-4 14l3 8h-2l1.5 4.5 1-3 .5 2.5v2q-1 8 3.5 10.5l15.5 8.5.5 1.5 10 8 1.5-.5-.5 1.5 1.5.5 5 18 17 26 20 25 3 7 25.5 28.5 2.5 1.5 2.5 3.5 1.5.5.5 1.5 1.5.5 37.5 41.5 12.5 11.5.5 1.5 1.5.5.5 1.5 1.5-.5.5 1.5 5.5 4.5-.5 1.5q-19.2-19.8-43.5-34.5l-.5-1.5-19.5-14.5-10.5-15.5-1.5-.5-1.5-3.5-1.5-.5-12.5-14.5-3.5-1.5.5-1.5-1.5-.5-11.5-16.5q-1.7 2.8-3.5-1.5l-4.5-6.5-1.5-.5-.5-1.5-1.5-.5-10-17-3.5-10.5-1.5-.5q-6-19.5-20.5-30.5L594 536.5l-6-8-7-21 6-14 4.5-4.5 1.5-.5 4.5-10.5 39.5-23.5 2.5-3.5 4.5-2.5 11-17q8.2-31.8 24-56 25.5-36.5 55.5-68.5l6.5-4.5 4.5-6.5 1.5-.5 3.5-4.5 4.5-2.5 4.5-5.5 22.5-16.5.5-1.5 33-24 10-5 13.5-11.5 4.5-6.5 2 1 1-2 2 1zm-147 12-6 7zm15 2-10 11 1.5-2.5 1.5-2.5 1.5-.5.5-1.5 2.5-1.5.5-1.5zm-526 2 8.5 7.5-1.5.5zm505 20-16 17zm-7 3-7 8zm-18 2-7 8zm-13 13-5 6zm13 2-6 7zm38 4-6 7zm-27 3-11 12zm-22 4-5 6zm5 1-9 10zm29 10-11 12zm-41 2-6 7zm-296 41 13.5 10.5 7.5 9.5 14.5 12.5.5 1.5 8.5 7.5 11 14-1.5-.5-3.5-1.5-6.5-7.5-3.5-1.5-5.5-6.5-3.5-2.5-4.5-5.5-17.5-16.5-3.5-6.5-6.5-5.5zm378 3-7 8zm-117 9-1.5 2.5-.5 3.5-1.5.5-.5 2.5-1.5-.5zm-291 5 4.5 2.5.5 2.5 1-1 7.5 7.5-1.5-.5-4.5-3.5-1.5-2.5-1 1zm-10 15 7.5 5.5zm-32 10 5.5 3.5-2.5-1.5-1.5.5.5 1.5zm99 7 5.5 7.5-2-1zm-6 1 10 10 2-2 5.5 5.5-6-4-.5 1.5zm-37 7 24 25zm77 4 6.5 5.5-1.5.5-1-2zm-112 3 6 8q2.3-3.2 4.5 2.5l-1.5-.5-6.5-4.5-.5-2.5-1.5.5zm86 0 6 7z"/><path fill="#e2c54e" stroke="#e2c54e" d="m686.5 399 1.5.5-3 4-.5 2.5-.5-2.5.5-1.5 1.5-.5-2-1zm-44 3-.5 1.5-12.5 34.5.5-1.5 2-9h-1l-.5 1.5-2.5 1.5q-6.2 17.3-18.5 28.5-17.2 7.8-29.5 20.5-13.3 14.2-21 34v2q1.4 11.6 7 19l-2.5.5-7.5-6.5-2-7 2-19 5.5-8.5 3.5-1.5 2.5-4.5 1.5-.5 3.5-4.5 3.5-2.5-1.5-2.5-3 1-.5-2.5 6.5-8.5 23-13 3-1 1.5-.5 4.5-5.5 1.5-.5 2-4q-3.2-2.3 2.5-4.5l2.5-1.5 16.5-28.5 2.5-.5zm-239 4 6 7-7.5-5.5zm-77 12 5.5 4.5-1.5.5-1-2-1.5-.5-.5-1.5-1.5.5zm120 1 7 2 26 18 15 6 21-4 7.5 3.5-10.5 10.5-1-1-2-1-7 3q-9 0-13-5l-1 2-3-5-18.5-9.5-.5-1.5-1.5.5 4 6-3-2-5-7-.5-2.5-1.5.5.5 1.5-3.5-2.5-5.5-8.5zm-11 2 2 3 2.5.5-4.5-1.5-1.5-.5zm108 2-3.5 4.5-8.5 11.5-5 2-1.5-2.5 2-1 1-3-8-3h2l.5-1.5 6-3v2l1.5-.5.5-2.5 2 1 7-2q2 3 4-2Zm-170 2 5 6zm38 7-.5 1.5 5.5 6.5-6.5-6.5zm165 4-6 7zm-157 5 5 6zm117 8-5 6zm-127 7 8 9zm104 32-2.5 3.5-1.5 3.5.5-1.5zm27 3 1.5.5-2 1 .5 1.5-4.5 1.5zm-8 9-7 8zm13 3 .5 1.5-1 3-1 2 1 2-1.5.5-.5-2.5 2-3v-2z"/><path fill="#e2c54e" stroke="#e2c54e" d="m577.5 503 .5 2.5-1 4 1 2-2 5 1 2-1.5 3.5q-4.3-3.7-3.5-12.5zm-114 11 1.5 10.5h-1zm13 16-4 5-1.5-.5 2-1-1-2h1l.5 1.5zm99 3 16 18 1.5.5-.5 1.5 1.5.5-1.5.5-13.5-9.5zm60 3 4.5 6.5-2-1zm-188 4 1.5.5-2 1 1 3-3 2 2-4zm-1 10-5.5 6.5 1 1-.5 1.5-2-1-5 4v-1zm56 2-5 6zm142 9 4 7 5.5 2.5.5 1.5 2.5.5.5 1.5 2.5 1.5-1 2 4 1 .5 1.5 1.5.5-1 2 9 7-3 1 6 2 .5 2.5 5.5 4.5-1 2 5 3 2.5 5.5 2.5 1.5 3.5 6.5 3.5 2.5 4.5 8.5 2.5 1.5 4.5 8.5 5.5 3.5 1.5 2.5 1.5.5.5 2.5 9.5 6.5 1.5 2.5 10.5 9.5.5 1.5 1.5.5 13.5 15.5 9.5 7.5 2.5 3.5 4.5 3.5.5 1.5 36.5 24.5 1.5 2.5 14.5 11.5.5 1.5 5.5 3.5 7.5 9.5 7.5 5.5 18 22 2 6-1 4 2 4v4l-3.5 5.5-3 1-2-3 5.5-3.5-.5-2.5-4.5-2.5-4.5-8.5-1.5-.5-13.5-16.5-2.5-1.5-21.5-23.5-14.5-11.5-1.5-2.5-12.5-8.5-.5-1.5-10.5-8.5-6.5-8.5-23.5-22.5-.5-1.5-5.5-4.5-2.5-5.5-5.5-4.5-1.5-2.5-4.5-2.5-1.5-2.5-6.5-4.5-3.5-4.5-8.5-6.5-7.5-8.5-3.5-2.5-1.5-2.5-1.5-.5-.5-1.5-1.5-.5-1.5-2.5-3.5-2.5-8.5-9.5-3.5-1.5-2.5-3.5-5.5-4.5-1.5-2.5-3.5-2.5zm-77 9 6.5 4.5-1.5.5zm-171 2-1 2-5 4 4-5zm-22 3-6 7zm244 2 1 2 3.5 2.5 1 2-5-2zm-107 5 7.5 2.5-5 12-11.5 14.5-3.5 2.5-.5 1.5-50 31-2-1-2 3-8.5 4.5-1.5 2.5-1.5.5-.5 1.5-2.5.5-21.5 25.5-4.5 1.5-.5 3.5-1.5.5-3.5 5.5-1.5.5-8.5 13.5-1.5.5-6.5 9.5-3.5.5 1 3-4 2-.5 2.5-1-2-1.5.5-3.5 4.5-4.5 1.5-4 6 4.5-3.5 4-3 1 3 5.5-4.5-21 20-1.5 2.5-7.5 4.5-.5 1.5-1.5-.5-.5 2.5-3.5 2.5-1.5 2.5-2.5.5.5 1.5-1.5.5 1 3-2.5-1.5-1.5.5-2 4 2 1-3 1-1.5 4.5-1.5-.5-.5 1.5-1.5-.5 1 3-7.5 10.5-1.5.5-4.5 5.5-3.5.5 2 1-.5 1.5-2.5.5-.5 2.5-2-1-.5 3.5-11.5 11.5-1.5.5-.5 2.5-1.5.5-.5 1.5-1.5.5-19.5 25.5-3.5 2.5-3.5 6.5-1.5.5-.5 1.5-11 7-3-2-4.5 1.5v-2l-1.5-3.5-1.5.5 8-6q10.8-19.7 27.5-33.5l15.5-13.5 1.5-2.5 1.5-.5 6-11 15.5-19.5 20.5-19.5.5-1.5 1.5-.5 4.5-6.5 1.5-.5.5-1.5 4.5-3.5q19-30.5 44.5-54.5l13.5-11.5q10-21.5 27.5-35.5l43.5-24.5 1.5-3.5 3-1 2 1 7.5-5.5 1.5-2.5 16.5-12.5 3-6-3 1zm-101 4-5 6zm207 1 6 7zm-205 3-8 9zm184 0 5 6zm-203 2-.5 1.5-2.5 3.5-1.5-2.5h1l.5 1.5zm18 16-6 7zm-48 17-5 6zm227 2 4.5 2.5.5 2.5 1.5.5.5 1.5 6.5 5.5-1.5.5-1-2zm-201 17-5 6zm-33 1 .5 1.5-1 3 1 3h-1l-.5-1.5-1.5.5 1-3zm306 6 9 10zm-296 2 2.5.5-8 5zm274 8 1 2 2.5.5.5 3.5zm32 1 3 5 1.5.5 1 2-5-4zm-21 7 5 8zm-350 13-5 6zm41 4-5 6zm6 1 2.5.5-9 8 1.5-2.5-9 6 1-2 11-8 2.5-.5zm295 14 11.5 10.5-1.5-.5zm51 8 9 10zm-404 6-5 6zm12 17-3 4-1.5-.5-1.5 3.5-.5-1.5 2.5-3.5q2 3 4-2Zm-50 4-9 10zm469 42 5.5 6.5-3-2zm10 12 5 6zm30 26 6 7zm49 29 1.5.5.5 2.5 1.5.5-.5 1.5-3.5 2.5-1.5 2.5.5-1.5.5-2.5 2.5-1.5-.5-1.5-1.5.5z"/></svg>