<svg xmlns="http://www.w3.org/2000/svg" viewBox="0 0 1024 1024"><path fill="#020201" stroke="#020201" d="m746.5 236 .5 2.5-1 5 2.5.5 6-1 1.5 3.5-11 7 .5 2.5 6-4 1.5 3.5-2 1-4.5 5.5q-43.8 32.2-82.5 69.5l5.5.5 10-2 2 1 8-2q3.7 6.3 14.5 5.5l4.5 8.5 1.5.5.5 1.5 7 4 3 1 2-1 7 2 28 16 28 11 16.5 9.5 4 11 2.5 16.5 3.5.5-1 3 3 2 1 24 3 17 2 48-1 5 1 7v2l-1 6v2l1 2-1 5v2l-1 20v2q-1.7 20.7 3 35l1 3 .5 3.5 22-3 3.5 2.5-4 8 5 9-1 2q3.2 8.8 2 22l11 41-3 5 2 8-3 10 1 4-2.5 3.5-3.5-.5-2.5-5.5-2.5 1.5-.5 1.5-26 8-32 14-3 1-7.5 2.5-.5 1.5h-4l-38 15-54 14-3-1-4 8q-7.6 1.1-9.5-3.5l-11-26-4-34-3-9 1-2-6.5-28.5-2 1-2-1-2 1-2.5-1.5q-1-6.5 3.5-7.5l4.5-2.5 1.5-5.5 2-1 1 2 2 1 4-8 5 2 5.5-3.5-3-27-5.5-8.5-3 1-8-9-1.5-.5-1.5-2.5-3.5-2.5-1.5-2.5-4.5-3.5-2.5-3.5-43.5-40.5-15-50-2-2-4-22-7.5-18.5-28.5 43.5-42 74-5 5-1 3-34 59-35 72-1 7v2l-3 9-21.5 27.5q-14.4 16.1-37 24h-2l-17 4-2-1h-2q-25.9-3.6-37.5-21.5-55.5-76.5-98-166l-17-49-9-46 3-2 8-16 4.5-4.5 5.5-3.5 9.5-13.5 3.5-2.5.5-1.5 25-16 20-5 16 3 3-1q15.8 3.2 27 11l21.5 18.5 13 23 18 44 10.5 18.5 1.5-.5 14.5-24.5 1.5-.5q30.9-50.6 70.5-92.5l3.5-2.5 1.5-2.5 6.5-5.5.5-1.5 1.5-.5 1.5-2.5 36-32 55.5-43.5.5-1.5q83.4-72.1 200-111ZM728 268q-25 15-44 35l-2 3-5 4 1 1 29-24v-1l21-16zm-34 7q-59 30-109 69l2 3-35 26-1 2-19 14-2 3-35 29-1 2-15 13-2 3-3 2-2 3-2 1q-38 37-69 80h-1l-27 40-29 71-7 3-5-3-3 4q-4 3-12 2l-3-2v-7l-4-10-15-29-37-90-15-24-8-6-7 2-20 12-8 11-1 17v2l-1 4q10 39 25 74l27 59 34 64q16 21 42 33 21-3 33-15l8-10 2-1 12-18q18-45 42-82 40-59 76-122l43-59 2-1 5-7-8-24 10-16 12-7h6l5 4 9 1v2l4 1 1 2-5-3-2 4 6 2 2-1h2l1 2 5-7-3 2-2-1v2l-2 1 1-3-1-4-3-2 2-7 31-37 2-1v-1l3-2 8-10 13-12 1-2 2-1 21-22 25-21zm-11 68-13 3-21 1-28 31v1q24 2 42-3l2-3 8 2 3 9 10 12 3 1 18 20 2 9 5 1-14 44 1 6-5 4-3 8-2 1-5-1-1 2-2 1-2-3q-2-4-3 0l-16-8-3 1-5-1-1-2-36-15-5-9-5-2-1-3 2-1-3-8-3-3-9-12-4-4-1-1-4-4-3-4-10-6-15 8 6 10 18 50 12 19 6 13 4-1 7 4v2l16 13q16 7 27 18l20 24 4 2v2h2v2h2v2l6 4h2l2-1 2 4 3 21 11 35 30-9h2l15-6 9-1 40-12-3-26-3-3-2-4v-2l1-2-1-39 2-11-1-4 2-18-1-2 2-39-1-49-12-9-2 3-5-1-2 1 5 16-3 2-5-1-1 2-7 2q-7-8-9-20l-10-9-1-1-23-20-1-1-29-22-5-6-2-2-1-1zm96 41-1 2 16 9v-1zm-123 6-10 2h-2l-8 1h-2l-10 1-9-2h-2l-3-1-13 16 4 7h2l9 16v5l5 12 14 6 1 1-3-22 1-5-3-6q-1-7 3-8l5-5 24-13zm-426 60-26 16-1 2h-1l-2 3q18-8 32-20zm22 1-12 5 3 1 11-4h2zm565 41-3 2v47l2 9 1-2-1-2 2-13-1-2 1-3-1-8 1-3-2-10 1-2v-2l-1-4 1-4zm-295 11-23 33-26 48 1 1 48-80zm-344 1-3 5q1 16 7 29h1l-5-23zm146 15 4 16 16 34h1zm308 21-1 2h2v2l8 5v2l3 1v-1zm-453 10q4 24 14 46l26 52 2 1-27-67zm505 39 2 9v-7zm146 32-6 4 2 4 6-2-1-5zm4 17-3 1-2 4 4 2 3-1zm4 16-17 8 1 1 17-5zm-146 18-10 4 1 1 11-4zm151 18-17 8 2 4 18-5-1-5zm-152 2-22 7 1 3 22-9zm15 41-21 7-4-1h-2l3 7 26-12zm48 8-45 14v1q25-5 46-14zm-396 8-14 7-1 2 3-1 2 1 11-8zm-46 14-1 2 14 8 7-2zm43 6-12 6v1q10-1 15-6z"/><path fill="#fefefa" stroke="#fefefa" d="M.5 0 1024 .5l-.5 1023.5L0 1023.5zM746 236l-29 9-43 19-62 35-2-2-4-4q-18 5-30 16h-3l24-18v-1l12-8v-4l-5-9-5-5-24 8v2l-2-1v2l-2-1-33 16-45 30q-9 5-10 17v2l-2 4h2l-2 3 1 6h-1l-1 3 3-2 1 3-24 27h-1l-11 13q1 11 8 16l-7 9 2 7-14 13q-48 53-85 116l-26-53-3-10-14-24-5-4-2-2-6-5-1-1-21-13-24-5h-11l-15 4-24 15q-11 7-16 19l-8 6-6 14h-1l-1 2h-1l-2 3-2 1 4 27v2l3 9v2l16 50 20 42 31 55 36 57 16 21q11 14 32 19 36-1 56-20l15-17 2-1 14-20 3-16 34-70 99-168h2l3-4-1-2h2l8-5 4 11 16 61 7 16 9 6v2l3 1 1 3h2l2 4 21 18 12 14h2l10 12q2 3 9 3l3 9 2 25-4 2-4-2-5 8h-1l-2-3q-6 1-5 8l-4 2q-4 1-3 8l9 1 4 17 7 54 7 18v2l6 10 9 2q4-2 3-8h8l55-15 74-30 29-9 6-4 2 5 4 1 2-3v-11l2-2-1-8 2-6v-6l-9-29-1-9v-2l-2-21-4-8 4-6-1-3-5-3-19 4-4-8-2-16 1-23v-2l1-3-1-56 1-2-2-39-2-10v-2l-1-2 1-2-1-17-3-3 1-2-1-3-3 1-1-9-5-17-18-12-6-1-47-23-1-1-8-4-2 1v-2l-2 1-8-4-7-9q-11-1-15-7l-20 3h-3l40-35v-1l44-35 3-7-3-1-1 2-2 1h-2l12-8-1-4-7 1h-2l1-7z"/><path fill="#fefefa" stroke="#fefefa" d="m726.5 269-3 4-40.5 32.5-.5 1.5-6 5 12-13 1.5-.5.5-1.5zm-35 8-1 2-32.5 29.5-1.5 2.5-14.5 12.5-3.5 4.5-1.5.5-8.5 10.5-3 1v-1l1.5-.5-.5-5.5-1.5.5 1-3-1.5-2.5-1.5-.5-2.5-4.5-2.5-1.5q34.2-24.8 73.5-44.5Zm-167 44 1.5.5-3 2-.5 1.5-13.5 10.5-.5 1.5-8 5 .5-1.5 1.5-3.5 2.5-1.5.5-1.5zm155 23 4.5.5.5 1.5 1.5.5 9.5 10.5 35.5 26.5 3.5 4.5 10.5 7.5 4.5 5.5 6.5 5.5 1 7 7.5 13.5 10-4h4l2.5-1.5-4-16 1.5-.5 3 1 2.5-1.5.5-1.5 11.5 6.5 1 13-1 2q3.1 4.4 2 13l-1 2 1 7-1 8v2l-1 9 1 8-1 2v2l-1 31 1 2-2 15v2l1 4-1 3v2l1 18-1 2 1 2-1 2 1 5-1 14 5 4 1 4-1 2 1 4v2l1 14-45.5 13.5h-6l-11 5-32 9-10.5-32.5-3-21-3.5-5.5h-5L667 560.5 654.5 545 610 512.5l-3.5-4.5-7-2-1.5.5-6-14-12-19-9-24 10-8 2.5-3.5 2.5-.5.5-1.5 1.5-.5.5-1.5 5.5-4.5-.5-1.5 11.5 13.5 2 6-1 5 5 2 6.5 10.5 34.5 13.5 2.5 3.5 6-1 17 9 2.5-1.5 1.5 3.5 6-3 4 1 4-8 2.5-1.5 4-7-1-3 14-44-5-2v-4l-6.5-8.5-1.5-.5-7.5-8.5-1.5-.5-17-20-2.5-7.5-8-3-4 4-25 3-.5-1.5 6-5 1-3-2.5-6.5-2 1-.5-1.5v-2l9.5-12.5 11-2 8 1zm-58 1-4 5-2.5-1.5 2.5-1.5q2 3 4-2Zm158 40 13.5 7.5-.5 1.5q-9.2-2.6-13-9Z"/><path fill="#fefefa" stroke="#fefefa" d="m653.5 391 4.5 2.5-.5 1.5-22 12-7.5 7.5-1 8 2 2 1 12v2l1 14-2.5-1.5-10.5-4.5-6-13 1-3-7-12 3-2 .5-1.5 1.5-.5.5-1.5 1.5-.5.5-1.5 1.5-.5.5-1.5 1.5-.5.5-1.5 1.5-.5.5-1.5 1.5-.5 6-9-2-1q17 1 28.5-3.5Zm-181 52 2.5 1.5-3 1 2 3-11 11-1 5 2.5 3.5 2.5 1.5 4.5 6.5 5 1 21-14 1 2 1.5.5 3.5 5.5 8 2 17-13 1.5 1.5-8 8-26 38q-34.8 61.7-74 119l-23 40-25 51-16.5 19.5-20 12-13 2q-15.8-6.7-26.5-18.5l-8.5-9.5-3.5-2.5-14-23-24-48-32-72-17-54v-12l2-14 4.5-7.5 28-16 10.5 7.5 14 23 37 90 19 39 .5 7.5 9 2 5.5-2.5 2.5-3.5 6 2 6.5-2.5 13-30 4-14 20-41q40.2-57.8 89.5-106.5l1.5-.5zm-242 7 1.5.5-30.5 19.5 4-5 21-14h2zm19 2 2.5.5-9.5 3.5-.5-1.5zm-72 53 .5 1.5v4l-1 3 4 18h-1l-4-24zm638 3 1.5 11.5v2l-1 9 1 2-1.5 6.5-1.5-24.5zm-299 3-.5 1.5-40.5 68.5.5-1.5q17.1-37.4 40.5-68.5Z"/><path fill="#fefefa" stroke="#fefefa" d="m325.5 524 19.5 42.5-1.5 2.5zm307 17 10.5 9.5-7.5-6.5zm-453 12 13.5 27.5 25 62h-1l-23-46zm649 69 2.5 1.5-.5 3.5-5 1-.5-3.5zm8 33 1.5.5-.5 2.5-15 4 1-2zm5 36 2.5.5 1 5-17.5 4.5-1.5-2.5zm-159 4-1 2-11 5-1.5-3.5zm22 39 1.5.5-24.5 10.5-2.5-5.5 1.5-.5 6 1 2-1h2zm40 10 2.5.5-32.5 9.5v-1zm-432 20 17.5 7.5-4.5 1.5q-9.2-2.6-13-9Zm44 5-2 3-9 3 1-2z"/><path fill="#a19b72" stroke="#a19b72" d="m686.5 258 1.5.5-7.5 3.5v-1zm54 0-2 3-6 4 1-2zm-145 6h3l5.5 4.5 5 9v4l-12 8-.5 1.5-23.5 17.5 2.5.5q12.4-10.6 30-16l4.5 3.5 2 3-9.5 6.5-1.5-.5-2.5 3.5-2 1-2-1-2 4-27 20-9.5 4.5-.5 2.5-9.5 7.5-1.5 2.5-34 27-1.5-.5-3.5 4.5-1.5-.5-3.5 4.5-4 3-1.5-.5-.5 1.5-2.5.5-.5 2.5-7 6-2-1q2 3-4 6L452 425.5l.5 1.5-3.5-2.5v-4l7-9q-7.2-4.8-8-16l10.5-12.5 1.5-.5 24-27-1.5-2.5-2.5 1.5.5-2.5 1.5-.5-1.5-6.5-2.5.5 1 3h-1l-1-4 5-3 1-3v-2q1.3-11.7 9.5-16.5l45-30 33-16 2 1v-2zM522 323l-16 11-1 2-2 1-2 3 1 1 7-4v-1l14-11v-1zm173.5-31-4 7q-2.2-3.5 4-7Zm-26 5-11 12zm-14 14-7 8zm22 8-6 7zm-59 1 1 3 1.5.5 2.5 4.5 1.5.5 3 11-3.5 4.5-3.5 1.5.5 1.5-2.5.5 1 1-5 5-12.5 14.5-1.5.5 1 1-5.5 5.5-1.5.5-.5 2.5-1.5.5 1 1-5 5-1.5 2.5-1.5.5 2.5 5.5 1.5.5 1.5 4.5 2 1 19-24 1.5.5-12.5 15.5-1.5.5.5 1.5-1.5.5-3.5 5.5-1.5.5q3.2 2.3-2.5 4.5l-1-2h-2l-2 1-5.5-2.5 2-5-9.5-1.5-4.5-3.5-.5-1.5q-11.2.8-17.5 6.5l-10 17 2 6-.5 1.5 1.5.5-.5 1.5 1.5.5 1 3-.5 1.5 1.5.5 2 9-5.5 7.5-1.5.5-11.5 16.5-3-1-16 13h-5l-3.5-2.5-3.5-5.5-1.5-.5-.5-1.5-19 13-5 1-4.5-3.5-3.5-5.5-1.5-.5-2-4 1-4 11-11-3-4 1.5.5 2.5-.5-3-2 5-4 1.5-2.5 1.5.5 12.5-13.5 1.5-.5.5-1.5 1 2 6-8 22-19 1 2 4-6 1.5-.5 1.5-2.5 19.5-14.5.5-1.5 8-6 1.5.5 2.5-3.5 23.5-17.5-2-3 4.5-3.5 1 2 3-5 10-7 1.5.5 1.5-2.5zm66 25 2.5 1.5 4 5-5-4-.5-1.5zm35 2 9.5 3.5-3.5.5-3-2-2 1zm-74 3-7.5 8.5 1 3-1 2 1.5-.5 1.5.5 2 7-4.5 5.5-2.5 1.5-.5 1.5-14.5-.5 14.5-17.5 1.5-.5-1-1zm-81 8-6 7-.5-1.5zm45 33 4 2v-2l10 3 10-1v1l-8.5.5 2 1-6.5 9.5-1.5.5-.5 1.5-1.5.5-.5 1.5-1.5.5-.5 1.5-1.5.5-.5 1.5-1.5.5-.5 1.5-1.5.5-.5 1.5-3 2-3-5-1.5-.5-4-7 2-1-1-1 4-4zm85 12 7 8z"/><path fill="#a19b72" stroke="#a19b72" d="m569.5 407 6.5 2.5.5 1.5 3 1 1.5.5 2.5 4.5 4.5 3.5-.5 1.5 5.5 3.5 3 4q-3.2-2.1-6.5 4.5l-1.5.5-.5 1.5-1.5.5-.5 1.5-4.5 2.5-3.5 4.5-7 4-3.5-10.5 1-2h-2l-1-2 .5-1.5-1.5-.5q-1.7-11.3-8-18l6.5-4.5 1.5.5.5-1.5zm227 3 .5 10.5h-1zm-89 8 3 7 4.5 1.5-.5 2.5-1-3-4.5-.5q.8-6.2-1.5-7.5Zm-257 10-5 6zm19 17-7 8zm-37 2-6 7zm26 10-5 6zm97 1 .5 1.5-2 1 .5 1.5 2-1v2l1.5.5 1 3h-1l-.5-1.5-8.5 5.5-3.5 5.5-.5-2.5zm-26 4-7 8zm-80 5-6 7zm369 1 .5 12.5h-1zm-22 9 .5 20.5h-1zm18 3 1 2 1.5.5-1 7 1 5-1 4 1 4h-1l-.5-3.5-.5 6.5h1l.5-1.5.5 1.5v2l-.5 7.5-1-7-1 6-.5-17.5v-2l.5-1.5 1.5-.5-2-1 .5-4.5 1.5-.5-2-1 1-3zm-134 5 .5 1.5v2l-.5 1.5-1-2-4 2v-1l4.5-2.5zm-255 9-3.5 4.5-4.5 5.5 3.5-4.5zm394 2 .5 12.5h-1zm-302 12q3 1.5 0 3l-1.5.5.5 1.5-2.5-.5 4-3zm-109 6-.5 1.5-4.5 5.5 3.5-4.5zm406 3 1 22 1.5-7.5-1-3 1-7-.5-1.5 1.5 7.5-1 3 1 2-1.5 8.5-2.5-.5zm-20 19 .5 16.5h-1zm-164 3 4.5 3.5-2 1-.5-2.5-1.5.5zm189 1 .5 11.5h-1zm-183 3 7.5 8.5h-1l-.5-1.5-1.5.5-.5-2.5-1 1-4.5-4.5zm18 2 8 9zm-67 8 5 6zm231 9 .5 16.5h-1zm-212 9 15 16zm241 36 .5 1.5q-5.1 2.7-1.5 5.5-5.2-2.7.5-5.5zm-186 40 .5 2.5-6.5 3.5v-1l5.5-2.5zm33 24 1.5.5-5.5 3.5-1-2 1.5.5.5-1.5zm-287 16 .5 1.5-5 7q2.8 1.7-1.5 3.5l.5-1.5zm-118 36 8 9zm12 12 5 6zm58 13-3 4-1.5-.5-1.5 2.5-1.5-.5-2.5 3.5 1-3-1.5-.5 3.5-1.5 1.5.5 1.5-2.5zm24 12-7 8zm294 2 1 2 4-2v1l-3.5 1.5-.5 1.5-1.5-.5zm-388 6 8 9z"/></svg>