<svg viewBox="0 0 1024 1024" version="1.1" xmlns="http://www.w3.org/2000/svg" desc="Created with imagetracer.js version 1.2.6" ><path fill="currentColor" stroke="rgb(0,0,0)" stroke-width="1" opacity="1" d="M 676.5 104 Q 690.8 102 696 108 Q 700.9 111 700 119 L 697 117.5 L 691.5 110 L 681.5 108 Q 668.5 109 663 117.5 L 659.5 125 L 654 122.5 L 649.5 116 L 641.5 115 Q 629 117 623 125.5 Q 619 131.5 620 142.5 L 621 149.5 L 618.5 153 L 612.5 154 L 597.5 150 Q 586.2 154.2 580 163.5 Q 574.3 168.8 576 181.5 L 579 187.5 L 576.5 189 L 572 185.5 Q 568.3 179.7 570 168.5 Q 574.3 154.3 585.5 147 Q 590.7 140.7 603.5 142 L 613 145 Q 611.9 123.7 625.5 116 Q 633.6 109.6 648.5 110 L 657.5 117 L 662.5 110 L 676.5 104 Z " /><path fill="currentColor" stroke="rgb(0,0,0)" stroke-width="1" opacity="1" d="M 726.5 123 L 729 127 L 732 127.5 L 729 129.5 Q 734 131.5 731 133.5 L 730 136.5 L 730.5 138 L 729 136.5 L 728 136.5 Q 728.8 139.9 724 138 L 722.5 136 L 720 131 L 718 130.5 L 721 128.5 L 719 128 L 719.5 126 L 722 127.5 L 723.5 126 L 726.5 123 Z " /><path fill="currentColor" stroke="rgb(0,0,0)" stroke-width="1" opacity="1" d="M 659 144 L 665 144 L 666.5 147 L 669.5 145 L 669 146.5 L 670.5 148 L 673.5 149 L 675 151.5 L 670 153.5 L 671 155.5 L 667.5 157 L 666 158.5 L 662.5 160 L 658.5 162 L 657.5 165 L 653 167 L 651 165 L 652 167.5 L 647 170 L 645.5 172 L 645.5 173 L 648 174.5 L 643 183 L 641 183.5 Q 642.8 187.8 644.5 185 L 653 179.5 L 657 166 L 664.5 165 L 676.5 171 L 683.5 171 Q 693.5 167.5 699 159.5 L 701.5 156 L 704 161.5 L 695.5 173 Q 689.4 179.4 675.5 178 L 663.5 172 L 659 184.5 L 651.5 192 Q 647.1 195.1 638.5 194 L 637 188.5 L 641 185.5 L 639.5 185 L 635.5 187 L 634 186.5 L 632.5 189 L 629 188 L 630 190.5 Q 627.4 193.9 620.5 193 L 618.5 193 L 616 191.5 L 615.5 189 L 614 189.5 L 610.5 185 L 609 186.5 L 604 188 Q 605.7 192.1 601.5 191 L 600 190.5 L 601 192.5 L 599.5 193 L 593 189.5 L 591.5 187 L 591.5 186 L 593 184 Q 590 185.3 591 181.5 L 593 178 L 595 177.5 L 594 175.5 L 595 172 L 597 170.5 L 600 166 L 604.5 164 L 606.5 164 L 611.5 162 L 613.5 163 L 618.5 162 L 618 163.5 L 620 165 L 621.5 163 L 627 160 L 629.5 155 L 631 153.5 L 634.5 151 L 636.5 151 L 641.5 148 L 641 149.5 L 643 151 L 643.5 149 L 644.5 151 L 645 149 L 649.5 150 L 654 148 L 654.5 146 L 657.5 147 L 659 144 Z " /><path fill="currentColor" stroke="rgb(0,0,0)" stroke-width="1" opacity="1" d="M 536.5 190 Q 540.9 188.5 540 191.5 L 542.5 190 L 633.5 199 L 670 217.5 L 671 225.5 L 669 243.5 L 666.5 247 L 664.5 248 L 662 247 L 660.5 250 Q 653.2 247.4 655 253.5 L 658 257.5 L 652 264.5 L 652 267.5 L 657 277.5 L 655 284.5 L 677 292.5 L 678 304.5 L 677 306.5 L 688 313.5 L 692.5 328 L 729.5 352 L 771 390.5 Q 819.7 445.3 848 520.5 L 866 582.5 Q 872.3 609.7 872 643.5 L 874 649.5 L 873 666.5 L 871 670.5 L 870 702.5 L 874 727.5 Q 875.9 738.1 883 743.5 L 883 748.5 L 882 750.5 Q 894.5 760 893 783.5 Q 888.8 811.3 872.5 827 L 862 833.5 L 859.5 837 Q 839 857 812.5 871 Q 783.9 885.1 751 894 L 749.5 897 L 730.5 903 L 673.5 910 L 510.5 916 L 508.5 915 L 477.5 919 L 397.5 920 L 386.5 918 L 332.5 919 L 279.5 915 L 246.5 915 L 241.5 916 L 171.5 915 Q 159.6 913.4 154 905.5 L 153 902.5 Q 153.2 891.2 160.5 887 L 186.5 874 L 231 859 L 229.5 856 L 202 832.5 Q 163.4 793.1 145 733.5 Q 136.2 706.3 132 674.5 L 131 615.5 Q 142.2 537.2 173 478.5 Q 202.1 429.6 244.5 394 Q 299.2 343.7 368.5 308 Q 400.4 292.4 437.5 282 Q 460.9 275.9 492.5 278 L 500 279 L 499 276.5 Q 498.8 268.3 503.5 265 L 525.5 263 L 527 261.5 L 526 255.5 L 529.5 249 L 538 247 Q 535 244.8 536 237.5 L 540 225 L 529 222 L 528 214.5 L 532 197.5 L 536.5 190 Z M 540 193 L 540 198 L 548 197 L 551 198 L 553 198 L 540 193 Z M 568 203 L 568 207 L 567 206 L 563 207 L 563 208 L 564 211 L 560 212 L 560 213 Q 564 212 563 215 L 566 214 L 569 216 L 568 219 L 579 220 L 582 219 L 582 221 Q 592 224 595 219 L 594 221 L 598 221 L 600 221 L 609 221 Q 608 224 616 223 L 616 225 L 623 230 L 625 231 L 626 229 L 625 226 L 627 224 L 626 223 L 628 216 L 627 214 L 628 209 L 596 207 L 594 205 L 575 205 L 575 203 L 573 204 L 573 206 L 571 206 L 570 204 L 568 203 Z M 563 232 L 562 235 L 561 238 L 560 236 L 556 237 L 555 240 L 559 242 L 561 241 L 561 244 L 559 245 L 562 245 L 563 243 L 566 245 L 569 244 L 571 245 L 572 243 L 571 232 L 570 235 L 570 238 L 569 237 L 568 237 L 565 236 L 565 238 L 563 236 L 565 235 L 563 232 Z M 550 234 L 549 236 Q 544 238 547 240 Q 547 243 554 241 L 553 239 L 555 239 L 555 237 Q 551 236 552 239 L 550 240 L 550 237 L 550 234 Z M 607 234 L 606 235 L 604 237 L 602 238 L 594 236 L 585 237 L 583 239 L 583 251 L 601 253 L 602 255 L 605 256 L 607 256 L 612 257 L 617 244 L 615 239 L 616 237 Q 612 238 613 235 L 607 234 Z M 541 253 L 535 255 Q 534 265 539 270 L 538 270 L 538 271 L 549 271 L 550 270 L 549 268 Q 552 265 551 258 L 541 253 Z M 571 254 L 559 255 L 559 270 L 557 273 L 560 274 L 563 275 L 565 276 L 572 273 L 587 276 L 589 275 L 587 274 L 590 272 L 591 270 L 590 267 L 593 260 L 594 258 L 591 259 L 589 259 L 587 257 L 571 254 Z M 638 254 L 640 262 L 645 261 L 647 256 L 638 254 Z M 607 263 L 599 269 L 598 272 L 599 277 L 613 280 L 615 279 L 613 265 L 607 263 Z M 625 269 L 627 276 L 627 278 L 629 279 L 631 279 L 638 281 L 640 272 L 639 270 L 625 269 Z M 523 271 L 521 273 L 512 273 L 509 275 L 509 289 L 518 284 L 520 285 L 521 283 L 520 280 L 523 281 L 525 275 L 527 273 Q 528 269 523 271 Z M 543 279 L 538 281 L 536 280 L 533 281 L 532 284 L 533 289 Q 544 287 550 291 L 555 301 L 558 302 L 560 308 L 562 307 L 565 308 L 566 306 L 564 302 L 565 294 L 566 291 Q 569 291 567 285 Q 564 282 556 283 L 550 279 L 543 279 Z M 588 284 L 585 286 L 588 286 L 591 287 L 594 286 L 598 289 L 612 291 L 613 288 L 612 286 L 588 284 Z M 577 293 L 573 306 L 575 305 L 581 306 L 583 306 L 589 307 Q 588 300 592 298 L 589 295 Q 580 296 577 293 Z M 520 294 L 517 298 L 511 302 L 509 303 L 509 307 L 522 310 L 524 309 L 524 311 L 534 314 L 544 310 L 545 308 L 548 306 L 547 305 L 545 301 L 541 297 Q 530 298 524 295 L 522 298 L 520 296 L 522 296 L 520 294 Z M 658 294 L 657 295 Q 654 294 655 301 L 666 306 L 668 305 L 667 298 L 665 297 Q 661 298 662 295 L 658 294 Z M 498 295 L 487 300 L 486 302 L 500 300 L 501 296 L 498 295 Z M 460 297 Q 414 305 379 323 Q 337 343 302 370 L 298 374 L 292 389 L 291 406 L 290 407 L 287 403 Q 285 389 289 382 L 290 380 L 267 398 Q 257 404 255 417 L 255 438 L 261 461 L 281 494 L 299 509 L 307 499 Q 334 468 373 450 L 412 435 Q 431 429 456 429 L 490 432 L 487 421 Q 486 372 508 347 L 512 344 L 513 344 Q 498 365 493 398 Q 491 420 497 433 L 508 435 L 507 432 Q 504 403 514 389 L 517 387 Q 512 408 512 435 L 544 444 Q 568 454 586 471 Q 593 441 611 422 Q 648 378 714 364 L 692 349 L 683 348 L 680 349 L 679 352 L 676 353 L 671 354 L 668 353 L 666 354 L 663 350 L 664 346 L 666 346 L 674 344 Q 678 342 675 340 L 660 344 L 649 344 L 647 342 L 641 344 L 634 343 L 616 336 L 619 332 Q 630 331 636 336 Q 643 337 645 333 L 643 332 L 627 322 L 625 323 L 619 331 L 612 330 L 615 339 L 614 342 L 611 345 L 600 348 Q 579 347 569 336 L 570 331 Q 574 325 583 324 L 581 322 L 582 318 L 579 315 L 571 316 L 562 315 L 560 318 L 552 323 L 538 325 L 532 325 L 504 314 Q 499 312 499 306 L 483 309 L 475 306 Q 449 331 443 377 L 443 385 L 440 385 L 439 377 L 439 364 L 444 343 Q 451 322 464 307 L 473 299 L 473 297 L 460 297 Z M 621 300 L 620 301 Q 613 299 614 303 L 609 302 L 601 305 L 596 317 L 598 317 L 600 317 L 604 319 L 611 323 L 610 325 L 614 325 L 613 324 L 616 322 L 617 321 L 624 315 L 628 315 L 627 309 L 626 304 L 624 303 L 621 302 L 621 300 Z M 650 313 L 650 315 L 638 318 L 636 320 L 640 322 L 643 323 Q 648 324 647 332 L 653 334 L 662 331 L 664 326 L 666 326 L 665 323 Q 657 325 654 321 L 656 314 L 650 313 Z M 595 323 L 593 326 L 581 332 L 579 334 L 594 339 L 605 336 L 603 330 L 595 323 Z M 717 373 Q 664 383 632 414 Q 615 428 604 448 L 596 467 L 596 481 L 606 489 Q 613 467 628 452 Q 647 430 672 414 L 709 394 L 728 389 L 743 390 L 744 390 L 728 374 L 717 373 Z M 728 394 Q 674 410 640 445 Q 619 462 609 490 L 609 494 Q 633 517 650 548 Q 665 571 668 606 Q 704 576 765 570 L 788 571 L 789 574 L 787 573 Q 710 574 670 612 Q 668 619 672 621 Q 686 609 709 605 L 716 606 L 683 621 L 672 630 L 673 650 Q 703 626 753 620 L 794 621 Q 825 628 849 642 L 854 647 Q 853 601 843 567 Q 821 552 785 551 Q 765 551 752 556 L 751 554 Q 760 549 775 547 Q 815 544 839 559 L 841 561 Q 817 473 767 413 Q 743 413 725 419 L 687 436 L 684 435 Q 708 413 748 407 L 760 407 L 760 406 L 750 395 L 728 394 Z M 250 414 Q 212 447 186 492 Q 165 535 153 589 L 154 597 Q 163 607 178 613 Q 200 620 228 623 L 255 622 L 258 598 L 248 601 Q 222 602 207 593 L 205 589 L 234 596 L 258 595 Q 267 555 286 527 L 266 516 Q 247 502 239 477 L 241 473 Q 247 488 258 500 Q 270 514 291 521 L 296 512 L 283 504 Q 257 481 249 441 L 250 417 L 250 414 Z M 443 446 Q 426 460 423 488 Q 421 513 431 527 L 436 526 Q 481 528 509 548 L 510 539 L 520 522 Q 540 495 583 492 L 557 470 Q 535 470 525 481 L 509 498 L 506 498 L 515 484 Q 525 471 542 466 Q 548 468 547 464 Q 532 456 513 452 L 475 446 L 443 446 Z M 432 447 Q 370 460 332 497 L 332 508 L 339 522 L 338 524 Q 327 518 327 502 Q 304 525 289 555 Q 280 572 275 594 L 277 601 Q 292 613 318 615 L 317 617 Q 287 619 274 605 L 271 619 Q 268 654 277 677 Q 290 709 312 732 L 325 742 L 324 739 Q 322 714 333 702 L 339 697 L 340 698 Q 330 707 328 724 Q 327 738 331 748 L 340 754 L 341 754 L 339 748 Q 337 726 343 713 Q 351 695 364 684 Q 341 667 337 633 L 324 636 L 311 636 L 310 635 L 315 632 L 336 628 L 342 597 Q 351 576 364 561 Q 380 541 406 532 Q 399 523 397 509 L 398 494 L 401 492 Q 399 518 412 530 L 424 527 Q 418 518 417 504 Q 414 465 433 449 L 432 447 Z M 576 498 Q 553 502 538 513 Q 518 525 513 552 L 521 558 Q 551 584 555 637 Q 552 676 538 706 L 549 707 Q 561 711 569 721 L 569 723 L 546 711 L 537 710 Q 524 733 507 751 Q 486 772 453 783 Q 454 829 477 855 Q 488 872 511 879 L 538 866 L 539 864 L 520 854 L 504 837 L 506 834 L 509 839 Q 522 854 543 861 L 548 860 L 556 854 L 585 823 L 586 821 L 584 822 Q 567 820 559 811 L 552 805 L 552 801 L 577 814 L 592 815 Q 626 770 645 709 L 642 704 Q 633 692 619 686 Q 595 677 565 674 Q 558 676 559 672 L 569 670 Q 595 671 616 678 Q 636 685 648 699 L 651 688 L 651 683 L 646 675 Q 632 663 610 660 L 608 657 Q 638 657 653 673 L 655 655 L 653 618 L 644 576 Q 628 539 603 512 L 590 499 L 576 498 Z M 425 541 Q 405 545 392 555 Q 361 577 352 620 Q 351 648 365 662 Q 376 676 396 681 L 416 680 L 440 668 Q 450 659 453 644 Q 454 625 446 616 Q 440 607 430 603 Q 416 601 410 607 Q 402 612 401 624 L 403 630 L 410 633 L 423 631 L 425 635 L 424 639 Q 420 645 411 646 L 397 642 Q 389 637 387 628 Q 386 609 394 601 Q 404 590 423 587 Q 441 587 451 597 L 466 617 L 467 614 Q 473 605 485 601 L 491 602 L 478 609 L 467 623 L 468 631 Q 480 619 503 615 Q 512 614 518 617 L 519 620 L 514 619 Q 485 620 471 635 L 469 637 Q 470 648 467 656 L 454 678 Q 438 693 412 698 Q 382 700 369 686 Q 349 701 344 730 Q 343 746 346 758 L 359 763 L 360 764 L 358 757 L 359 739 L 360 739 L 359 743 Q 358 756 362 765 Q 376 771 396 772 Q 455 773 488 746 L 499 734 Q 495 715 485 704 L 472 692 L 469 688 L 487 698 Q 499 710 504 729 L 513 717 L 505 701 L 498 692 L 504 695 Q 512 702 516 713 L 527 692 L 538 648 Q 540 626 535 612 Q 529 592 517 578 Q 501 559 477 549 L 447 541 L 425 541 Z M 151 604 L 149 615 L 149 667 Q 152 696 160 722 Q 176 779 212 817 L 220 824 L 219 820 Q 218 793 226 775 L 246 745 Q 259 727 280 718 L 276 711 Q 256 716 244 728 L 231 744 L 229 745 L 237 729 Q 250 712 273 706 Q 256 679 254 638 Q 244 646 229 648 Q 213 649 204 644 Q 237 646 254 632 L 255 625 L 238 628 L 214 627 L 182 621 Q 163 616 151 604 Z M 755 629 Q 710 634 681 654 L 671 666 L 667 696 Q 683 684 705 676 L 709 677 Q 687 686 669 700 L 664 705 L 655 732 L 656 734 Q 674 717 703 710 L 706 713 L 705 715 Q 676 725 656 743 Q 643 753 639 771 L 639 772 L 658 757 L 660 759 L 641 777 L 628 790 L 610 818 L 604 823 L 589 840 L 586 844 L 599 835 L 647 792 L 682 769 L 723 749 Q 738 742 760 741 Q 817 738 848 762 Q 857 770 860 785 Q 856 802 846 815 Q 827 833 801 845 L 796 843 L 797 839 L 821 819 Q 833 810 840 795 L 840 790 L 827 807 Q 783 849 712 864 L 694 864 Q 728 859 754 846 Q 787 832 815 811 Q 828 799 837 782 L 837 780 L 836 778 L 824 793 Q 807 811 783 822 Q 756 835 724 842 Q 717 843 718 841 L 785 812 L 811 794 L 828 773 L 820 770 L 816 779 Q 804 793 785 801 L 779 800 L 796 787 L 813 768 L 779 761 Q 751 761 731 768 L 680 792 L 648 814 L 605 851 L 591 860 L 605 869 Q 619 872 639 871 L 641 871 Q 656 868 676 869 L 696 865 L 701 866 Q 694 873 683 875 L 649 879 L 616 879 Q 601 878 593 872 L 586 864 L 546 887 L 527 893 L 526 895 L 568 890 Q 612 889 651 893 Q 783 888 856 822 Q 871 808 877 785 L 877 779 L 872 763 L 875 762 L 874 758 L 871 760 L 867 754 Q 853 738 832 729 Q 817 723 799 722 Q 770 720 750 725 Q 715 734 687 748 L 684 744 Q 719 719 772 712 Q 828 708 857 731 L 855 719 Q 833 694 790 690 Q 767 688 751 692 L 743 692 Q 757 685 776 683 Q 827 681 853 704 L 854 665 L 853 659 Q 846 649 835 644 L 800 632 Q 781 627 755 629 Z M 284 723 L 268 733 Q 249 748 237 769 Q 227 786 226 813 L 228 825 L 227 831 L 239 840 L 241 842 L 239 834 Q 236 801 251 786 L 253 787 Q 246 798 245 816 L 246 832 L 252 850 Q 294 881 354 894 L 357 894 Q 343 880 341 855 L 344 843 Q 346 868 357 884 L 373 896 L 400 900 Q 432 900 460 896 Q 483 892 502 883 L 486 873 Q 453 848 447 797 L 448 783 L 437 785 L 436 789 Q 435 818 445 837 L 443 838 L 436 829 L 430 805 L 431 786 L 421 788 Q 386 791 363 783 Q 334 773 314 756 L 284 723 Z M 246 869 L 190 889 L 173 898 L 171 900 L 179 901 L 233 901 L 235 901 L 248 900 L 250 901 L 283 900 L 285 900 L 304 902 L 314 902 L 290 892 L 246 869 Z " /><path fill="currentColor" stroke="rgb(0,0,0)" stroke-width="1" opacity="1" d="M 499.5 322 Q 508.9 320.6 512 325.5 Q 513 332 508.5 333 L 498.5 335 L 486 329.5 L 487.5 327 L 499.5 322 Z " /><path fill="currentColor" stroke="rgb(0,0,0)" stroke-width="1" opacity="1" d="M 548.5 335 Q 554.6 333.8 554 336.5 L 555 339.5 L 555 341.5 Q 555.5 344.5 548.5 343 L 546 337.5 L 548.5 335 Z " /><path fill="currentColor" stroke="rgb(0,0,0)" stroke-width="1" opacity="1" d="M 648.5 352 Q 658.9 350.6 661 357.5 L 662 360.5 L 657.5 363 L 646 357.5 L 648.5 352 Z " /><path fill="currentColor" stroke="rgb(0,0,0)" stroke-width="1" opacity="1" d="M 619.5 353 L 622 354 L 620 360 L 626.5 363 L 627 361.5 L 625 356.5 L 628.5 354 L 633 357.5 L 634 367.5 L 633 370 L 627.5 371 L 612 362.5 L 614.5 357 L 619.5 353 Z " /><path fill="currentColor" stroke="rgb(0,0,0)" stroke-width="1" opacity="1" d="M 781.5 517 L 805.5 517 L 812 520.5 Q 813.4 525.1 807.5 523 L 800.5 521 L 781.5 520 L 780 518.5 L 781.5 517 Z " /><path fill="currentColor" stroke="rgb(0,0,0)" stroke-width="1" opacity="1" d="M 779.5 850 Q 786.4 847.5 785 852.5 Q 771.6 861.9 753 865 L 755.5 861 L 779.5 850 Z " /><path fill="var(--primary)" stroke="rgb(255,0,255)" stroke-width="1" opacity="1" d="M 652.5 111 L 658 115.5 L 660.5 112 L 659 114.5 L 657.5 117 L 652.5 111 Z " /><path fill="var(--primary)" stroke="rgb(255,0,255)" stroke-width="1" opacity="1" d="M 624.5 116 L 617.5 124 L 624.5 116 Z " /><path fill="var(--primary)" stroke="rgb(255,0,255)" stroke-width="1" opacity="1" d="M 662.5 119 L 663 121.5 L 659.5 126 L 654 123.5 L 656.5 125 L 661 123.5 L 662.5 119 Z " /><path fill="var(--primary)" stroke="rgb(255,0,255)" stroke-width="1" opacity="1" d="M 728.5 121 L 739 124 L 738 129 Q 742.1 127.7 741 131 L 738.5 130 L 737.5 132 L 739 133.5 L 736.5 137 L 724 142 Q 725.4 138.3 719.5 140 L 715 137.5 L 713 133.5 L 716 132 L 716 127 L 718 125 L 721.5 125 L 725 123.5 L 727.5 122 L 728.5 121 Z M 727 123 L 724 126 L 722 128 L 718 131 L 720 131 L 723 136 L 724 138 Q 729 140 728 137 L 729 137 L 731 138 L 730 137 L 731 134 Q 734 132 729 130 L 732 128 L 729 127 L 727 123 Z " /><path fill="var(--primary)" stroke="rgb(255,0,255)" stroke-width="1" opacity="1" d="M 671.5 138 L 679 139 L 678 141.5 Q 679.8 145.8 681.5 143 L 683 144.5 L 682.5 146 L 685 146.5 L 681 149 Q 683.3 154.8 679.5 154 L 675 157 Q 676.3 160 672.5 159 L 662 163.5 L 664 164.5 L 657 166 L 654.5 176 L 654 171 L 649 173.5 L 647 178.5 L 650 182.5 L 643.5 186 L 641.5 183 L 643 180.5 L 648 173 L 645 172.5 L 647 172 L 648.5 170 L 648.5 168 L 650.5 169 L 651 166.5 L 653 165 L 655 167 L 653.5 164 L 648.5 166 L 650.5 163 L 654.5 162 L 655.5 165 L 658 164.5 L 658.5 162 L 662.5 160 L 666 158.5 L 667.5 157 L 671 155.5 L 670 153.5 L 675 151.5 L 673.5 149 L 672.5 152 Q 668.1 153.5 669 150.5 L 670.5 148 L 669 146.5 L 669.5 145 L 665 147 Q 666.7 141.4 659 144 L 657.5 147 L 654.5 146 L 654 148 L 649.5 150 L 645 149 L 644.5 151 L 643.5 149 L 643 151 L 639.5 149 L 635.5 152 L 633.5 152 L 631 153.5 L 629.5 155 L 627 160 L 620 163 L 618 165 L 619 162.5 L 614.5 162 L 612.5 163 L 609.5 164 L 605.5 165 L 603 164 L 600 167.5 L 597 172 Q 594 170.8 595 174.5 L 594 176.5 L 594.5 178 L 593 179.5 L 591 184 L 593 186 L 591 186.5 L 593 187 L 594.5 191 L 600.5 193 L 600 191.5 L 600.5 190 L 604 191 Q 602.3 186.5 607.5 188 L 609 185 L 614 188.5 L 614.5 190 L 616 189.5 L 617.5 193 L 619.5 192 L 625.5 193 L 630 190.5 L 629 188 L 632.5 189 L 634.5 186 L 636.5 187 L 640.5 185 L 639.5 187 L 637 188.5 L 638 193.5 L 636 192.5 Q 637.5 188.1 634.5 189 L 622.5 196 L 619.5 195 L 615 192.5 L 613 188 L 609.5 188 L 605 189 L 601.5 196 Q 592.5 197 590 191.5 L 589 185.5 L 589 183.5 L 592.5 175 L 594 172.5 L 600.5 165 L 608.5 162 L 610 162.5 L 612.5 161 L 614.5 161 Q 622.4 161.9 626 158.5 L 630 152 Q 634.8 147.4 644.5 147 L 646.5 147 L 651 148 L 651.5 146 L 653 146.5 L 655.5 143 L 671.5 138 Z " /><path fill="var(--primary)" stroke="rgb(255,0,255)" stroke-width="1" opacity="1" d="M 584.5 147 L 575 157.5 L 573.5 160 L 574 158.5 L 584.5 147 Z " /><path fill="var(--primary)" stroke="rgb(255,0,255)" stroke-width="1" opacity="1" d="M 589.5 154 L 580.5 164 L 589.5 154 Z " /><path fill="var(--primary)" stroke="rgb(255,0,255)" stroke-width="1" opacity="1" d="M 691 154 L 693 155.5 L 693 157.5 L 693.5 161 L 695.5 160 L 699 159.5 Q 693.9 168.9 681.5 171 L 679.5 171 L 676 170.5 L 677 168.5 L 676 165.5 L 676 163.5 Q 675 158 678.5 157 Q 687.3 159.2 689.5 155 L 691 155.5 L 691 154 Z " /><path fill="var(--primary)" stroke="rgb(255,0,255)" stroke-width="1" opacity="1" d="M 724.5 155 L 732 157.5 L 730 165 L 724.5 167 L 719 163.5 L 720 159.5 L 719 157 L 724.5 155 Z " /><path fill="var(--primary)" stroke="rgb(255,0,255)" stroke-width="1" opacity="1" d="M 663.5 172 L 672 176.5 L 670.5 177 L 663.5 173 L 662.5 177 L 662 173.5 L 663.5 172 Z " /><path fill="var(--primary)" stroke="rgb(255,0,255)" stroke-width="1" opacity="1" d="M 568 203 L 570 203.5 L 570.5 206 L 573 205.5 L 572.5 204 L 574.5 203 L 575 205 L 593.5 205 L 595.5 207 L 628 209 L 627 213.5 L 628 215.5 L 626 222.5 L 626.5 224 L 625 225.5 L 626 228.5 L 625 231 L 623 229.5 L 616 225 L 616 223 Q 607.9 224.4 608.5 221 L 599.5 221 L 597.5 221 L 593.5 220 L 581.5 221 L 581.5 219 L 578.5 220 L 568 219 L 569 215.5 L 565.5 214 L 566.5 217 L 563 215 Q 564.3 211.7 559.5 213 L 559.5 212 L 564 211 L 562.5 208 L 562.5 207 L 566.5 206 L 568 206.5 L 568 203 Z " /><path fill="var(--primary)" stroke="rgb(255,0,255)" stroke-width="1" opacity="1" d="M 560.5 231 L 564.5 234 L 566.5 233 L 566.5 234 L 563 235.5 L 564.5 238 L 565 236 L 567.5 237 L 569 236.5 L 569.5 238 L 570 234.5 L 570.5 232 L 572 242.5 L 571 245 L 568.5 244 L 565.5 245 L 562.5 243 L 562 245 L 557.5 243 L 555 242.5 L 556.5 241 L 556.5 240 L 554.5 239 L 554 241 Q 546.7 242.8 547 239.5 L 547.5 235 L 549 235.5 L 549.5 234 L 550 236.5 L 550.5 239 L 555 237 L 555.5 239 L 556 237 L 560 236 L 560.5 238 L 562 234.5 L 560.5 232 L 560.5 231 Z " /><path fill="var(--primary)" stroke="rgb(255,0,255)" stroke-width="1" opacity="1" d="M 606.5 234 L 613 235 Q 611.8 238 615.5 237 L 615 238.5 L 617 243.5 L 611.5 257 L 606.5 256 L 604.5 256 L 602 254.5 L 600.5 253 L 583 251 L 583 238.5 L 584.5 237 L 593.5 236 L 601.5 238 L 604 237 L 605.5 235 L 606.5 234 Z " /><path fill="var(--primary)" stroke="rgb(255,0,255)" stroke-width="1" opacity="1" d="M 540.5 253 L 551 257.5 Q 552.4 264.9 549 267.5 L 550 269.5 L 548.5 271 L 537.5 271 L 537.5 270 L 539 269.5 Q 534.3 264.5 535 255 L 540.5 253 Z " /><path fill="var(--primary)" stroke="rgb(255,0,255)" stroke-width="1" opacity="1" d="M 570.5 254 L 587 257 L 588.5 259 L 590.5 259 L 594 258 L 592.5 260 L 590 266.5 L 591 269.5 L 589.5 272 L 587 273.5 L 589 274.5 L 586.5 276 L 571.5 273 L 565 275.5 L 565.5 277 L 562.5 275 L 559.5 274 L 557 272.5 L 559 269.5 L 559 255 L 570.5 254 Z " /><path fill="var(--primary)" stroke="rgb(255,0,255)" stroke-width="1" opacity="1" d="M 638 254 L 647 256 L 645 261 L 639.5 262 L 638 254 Z " /><path fill="var(--primary)" stroke="rgb(255,0,255)" stroke-width="1" opacity="1" d="M 606.5 263 L 613 265 L 615 278.5 L 612.5 280 L 599 276.5 L 598 271.5 L 599 269 L 606.5 263 Z " /><path fill="var(--primary)" stroke="rgb(255,0,255)" stroke-width="1" opacity="1" d="M 625 269 L 638.5 270 L 640 271.5 L 638 281 L 630.5 279 L 628.5 279 L 627 277.5 L 627 275.5 L 625 269 Z " /><path fill="var(--primary)" stroke="rgb(255,0,255)" stroke-width="1" opacity="1" d="M 520.5 271 L 522.5 271 Q 528.4 269.3 527 273 L 525 274.5 L 522.5 281 L 521 280.5 L 519.5 285 L 517.5 284 L 509 289 L 509 275 L 511.5 273 L 520.5 273 L 520.5 271 Z " /><path fill="var(--primary)" stroke="rgb(255,0,255)" stroke-width="1" opacity="1" d="M 466.5 277 L 490 277.5 L 466.5 278 L 466.5 277 Z " /><path fill="var(--primary)" stroke="rgb(255,0,255)" stroke-width="1" opacity="1" d="M 534.5 279 L 537.5 281 L 549.5 279 L 555.5 283 Q 564.2 281.7 567 285 Q 568.5 291.4 565.5 291 L 565 293.5 L 564 301.5 L 566 305.5 L 565 308 L 561.5 307 L 560 307.5 L 558 302 L 555 300.5 L 549.5 291 Q 544.1 286.8 533 289 L 532 283.5 L 533 281 L 535 280.5 L 534.5 279 Z " /><path fill="var(--primary)" stroke="rgb(255,0,255)" stroke-width="1" opacity="1" d="M 587.5 284 L 611.5 286 L 613 287.5 L 611.5 291 L 597.5 289 L 593.5 286 L 590.5 287 L 587.5 286 L 585 285.5 L 587.5 284 Z " /><path fill="var(--primary)" stroke="rgb(255,0,255)" stroke-width="1" opacity="1" d="M 576.5 293 L 591.5 297 L 593 296.5 Q 588 299.5 589 307 L 582.5 306 L 580.5 306 L 574.5 305 L 573 305.5 L 576.5 293 Z " /><path fill="var(--primary)" stroke="rgb(255,0,255)" stroke-width="1" opacity="1" d="M 519.5 294 L 522.5 296 L 524.5 296 L 540.5 297 L 545 300.5 L 547 304.5 L 547.5 306 L 545 307.5 L 543.5 310 L 533.5 314 L 524 311 L 523.5 309 L 521.5 310 L 509 307 L 509 303 L 511 301.5 L 517 298 L 519.5 294 Z " /><path fill="var(--primary)" stroke="rgb(255,0,255)" stroke-width="1" opacity="1" d="M 657.5 294 L 662 295 Q 660.8 298 664.5 297 L 667 297.5 L 668 304.5 L 665.5 306 L 655.5 301 L 654 301.5 L 655 295 L 657.5 294 Z " /><path fill="var(--primary)" stroke="rgb(255,0,255)" stroke-width="1" opacity="1" d="M 459.5 297 L 472.5 297 L 473 298.5 L 471.5 298 L 459.5 298 L 459.5 297 Z " /><path fill="var(--primary)" stroke="rgb(255,0,255)" stroke-width="1" opacity="1" d="M 620.5 300 L 621 302 L 623.5 303 L 626 303.5 L 627 308.5 L 628 315 L 623.5 315 L 617 320.5 L 615.5 322 L 613 323.5 L 613.5 325 L 610 324.5 L 610.5 323 L 603.5 319 L 599.5 317 L 597.5 317 L 596 316.5 L 600.5 305 L 608.5 302 L 614 303 Q 612.6 299 619.5 301 L 620.5 300 Z " /><path fill="var(--primary)" stroke="rgb(255,0,255)" stroke-width="1" opacity="1" d="M 650 313 L 656 314 L 654 320.5 Q 657 324.7 665 323 L 666 325.5 L 664 326 L 661.5 331 L 652.5 334 L 647 331.5 Q 648 324 642.5 323 L 640 321.5 L 636 320 L 637.5 318 L 650 315 L 650 313 Z " /><path fill="var(--primary)" stroke="rgb(255,0,255)" stroke-width="1" opacity="1" d="M 591.5 327 L 592 328.5 L 591 336 L 603 336.5 L 593.5 339 L 579 334 L 580.5 332 L 591.5 327 Z " /><path fill="var(--primary)" stroke="rgb(255,0,255)" stroke-width="1" opacity="1" d="M 619.5 330 L 616 334.5 L 617 336.5 L 615 336.5 L 614.5 338 L 614 336.5 L 617 331 L 619.5 330 Z " /><path fill="var(--primary)" stroke="rgb(255,0,255)" stroke-width="1" opacity="1" d="M 549.5 334 Q 555.6 332.8 555 335.5 L 558 337 L 557 344 Q 547.4 346.3 545 340.5 L 547.5 335 L 546 337.5 L 548.5 343 Q 555.5 344.5 555 341.5 L 555 339.5 L 554 335 Q 548.6 336.3 549.5 334 Z " /><path fill="var(--primary)" stroke="rgb(255,0,255)" stroke-width="1" opacity="1" d="M 674.5 340 Q 678 342 673.5 344 L 665.5 346 L 664 345.5 L 663 349.5 L 665.5 354 L 667.5 353 L 670.5 354 L 675.5 353 L 679 351.5 L 679.5 349 L 682.5 348 L 692 349.5 L 683.5 350 L 682 349.5 L 679.5 353 Q 674.8 356.8 664.5 355 Q 659.8 353.8 661 346.5 L 675 341.5 L 674.5 340 Z " /><path fill="var(--primary)" stroke="rgb(255,0,255)" stroke-width="1" opacity="1" d="M 657.5 353 L 663 360.5 L 658.5 364 L 658.5 363 L 662 360.5 L 657.5 353 Z " /><path fill="var(--primary)" stroke="rgb(255,0,255)" stroke-width="1" opacity="1" d="M 732.5 378 L 743.5 390 L 742 388.5 L 732.5 378 Z " /><path fill="var(--primary)" stroke="rgb(255,0,255)" stroke-width="1" opacity="1" d="M 771.5 391 L 780.5 401 L 771.5 391 Z " /><path fill="var(--primary)" stroke="rgb(255,0,255)" stroke-width="1" opacity="1" d="M 749.5 395 L 760 407 L 750 406.5 L 759 405.5 L 749.5 395 Z " /><path fill="var(--primary)" stroke="rgb(255,0,255)" stroke-width="1" opacity="1" d="M 239.5 398 L 211.5 427 L 239.5 398 Z " /><path fill="var(--primary)" stroke="rgb(255,0,255)" stroke-width="1" opacity="1" d="M 266.5 398 L 259.5 406 L 266.5 398 Z " /><path fill="var(--primary)" stroke="rgb(255,0,255)" stroke-width="1" opacity="1" d="M 486.5 402 L 487 417.5 L 486 417.5 L 486.5 402 Z " /><path fill="var(--primary)" stroke="rgb(255,0,255)" stroke-width="1" opacity="1" d="M 623.5 408 L 612.5 420 L 623.5 408 Z " /><path fill="var(--primary)" stroke="rgb(255,0,255)" stroke-width="1" opacity="1" d="M 506.5 409 L 507 427.5 L 506 427.5 L 506.5 409 Z " /><path fill="var(--primary)" stroke="rgb(255,0,255)" stroke-width="1" opacity="1" d="M 249.5 414 L 250 416.5 L 248.5 416 L 237 426.5 L 249.5 414 Z " /><path fill="var(--primary)" stroke="rgb(255,0,255)" stroke-width="1" opacity="1" d="M 631.5 414 L 619.5 427 L 631.5 414 Z " /><path fill="var(--primary)" stroke="rgb(255,0,255)" stroke-width="1" opacity="1" d="M 248.5 419 L 249 437.5 L 248 437.5 L 248.5 419 Z " /><path fill="var(--primary)" stroke="rgb(255,0,255)" stroke-width="1" opacity="1" d="M 440.5 429 L 455 429.5 L 440.5 430 L 440.5 429 Z " /><path fill="var(--primary)" stroke="rgb(255,0,255)" stroke-width="1" opacity="1" d="M 208.5 430 L 201.5 438 L 208.5 430 Z " /><path fill="var(--primary)" stroke="rgb(255,0,255)" stroke-width="1" opacity="1" d="M 232.5 431 L 221.5 443 L 232.5 431 Z " /><path fill="var(--primary)" stroke="rgb(255,0,255)" stroke-width="1" opacity="1" d="M 639.5 439 L 630.5 449 L 639.5 439 Z " /><path fill="var(--primary)" stroke="rgb(255,0,255)" stroke-width="1" opacity="1" d="M 639.5 445 L 632.5 453 L 639.5 445 Z " /><path fill="var(--primary)" stroke="rgb(255,0,255)" stroke-width="1" opacity="1" d="M 442.5 446 L 453 446.5 Q 440.5 444.5 437.5 452 L 442.5 446 Z " /><path fill="var(--primary)" stroke="rgb(255,0,255)" stroke-width="1" opacity="1" d="M 605.5 446 L 605 447.5 L 600.5 457 L 600 455.5 L 605.5 446 Z " /><path fill="var(--primary)" stroke="rgb(255,0,255)" stroke-width="1" opacity="1" d="M 825.5 470 L 831 480.5 L 830 480.5 L 825.5 470 Z " /><path fill="var(--primary)" stroke="rgb(255,0,255)" stroke-width="1" opacity="1" d="M 596.5 480 L 606 488.5 L 604.5 489 L 596.5 480 Z " /><path fill="var(--primary)" stroke="rgb(255,0,255)" stroke-width="1" opacity="1" d="M 524.5 481 L 509.5 497 L 524.5 481 Z " /><path fill="var(--primary)" stroke="rgb(255,0,255)" stroke-width="1" opacity="1" d="M 170.5 483 L 170 484.5 L 165.5 494 L 165 492.5 L 170.5 483 Z " /><path fill="var(--primary)" stroke="rgb(255,0,255)" stroke-width="1" opacity="1" d="M 319.5 485 L 309.5 496 L 319.5 485 Z " /><path fill="var(--primary)" stroke="rgb(255,0,255)" stroke-width="1" opacity="1" d="M 423.5 487 L 424 502.5 L 423 502.5 L 423.5 487 Z " /><path fill="var(--primary)" stroke="rgb(255,0,255)" stroke-width="1" opacity="1" d="M 609.5 493 L 616.5 501 L 609.5 493 Z " /><path fill="var(--primary)" stroke="rgb(255,0,255)" stroke-width="1" opacity="1" d="M 591.5 500 L 602.5 512 L 591.5 500 Z " /><path fill="var(--primary)" stroke="rgb(255,0,255)" stroke-width="1" opacity="1" d="M 326.5 502 L 327 506.5 L 326 506.5 L 325.5 504 L 318 510.5 L 326.5 502 Z " /><path fill="var(--primary)" stroke="rgb(255,0,255)" stroke-width="1" opacity="1" d="M 252.5 503 L 263.5 515 L 252.5 503 Z " /><path fill="var(--primary)" stroke="rgb(255,0,255)" stroke-width="1" opacity="1" d="M 530.5 510 L 520.5 521 L 530.5 510 Z " /><path fill="var(--primary)" stroke="rgb(255,0,255)" stroke-width="1" opacity="1" d="M 786.5 516 L 804 516.5 L 786.5 517 L 786.5 516 Z " /><path fill="var(--primary)" stroke="rgb(255,0,255)" stroke-width="1" opacity="1" d="M 776.5 546 L 795 546.5 L 776.5 547 L 776.5 546 Z " /><path fill="var(--primary)" stroke="rgb(255,0,255)" stroke-width="1" opacity="1" d="M 513.5 548 Q 513.8 555.8 520 557.5 L 513 551.5 L 513.5 548 Z " /><path fill="var(--primary)" stroke="rgb(255,0,255)" stroke-width="1" opacity="1" d="M 373.5 550 L 365.5 559 L 373.5 550 Z " /><path fill="var(--primary)" stroke="rgb(255,0,255)" stroke-width="1" opacity="1" d="M 290.5 553 L 290 554.5 L 284.5 566 L 284 564.5 L 290.5 553 Z " /><path fill="var(--primary)" stroke="rgb(255,0,255)" stroke-width="1" opacity="1" d="M 385.5 561 L 374.5 573 L 385.5 561 Z " /><path fill="var(--primary)" stroke="rgb(255,0,255)" stroke-width="1" opacity="1" d="M 506.5 567 L 516.5 578 L 506.5 567 Z " /><path fill="var(--primary)" stroke="rgb(255,0,255)" stroke-width="1" opacity="1" d="M 764.5 573 L 787 573.5 L 764.5 574 L 764.5 573 Z " /><path fill="var(--primary)" stroke="rgb(255,0,255)" stroke-width="1" opacity="1" d="M 437.5 607 L 445.5 616 L 437.5 607 Z " /><path fill="var(--primary)" stroke="rgb(255,0,255)" stroke-width="1" opacity="1" d="M 756.5 619 L 783 619.5 L 756.5 620 L 756.5 619 Z " /><path fill="var(--primary)" stroke="rgb(255,0,255)" stroke-width="1" opacity="1" d="M 696.5 634 L 698 634.5 L 685.5 641 L 686.5 639 L 696.5 634 Z " /><path fill="var(--primary)" stroke="rgb(255,0,255)" stroke-width="1" opacity="1" d="M 834.5 634 L 845 639.5 L 843.5 639 L 834.5 634 Z " /><path fill="var(--primary)" stroke="rgb(255,0,255)" stroke-width="1" opacity="1" d="M 672.5 637 L 673.5 648 L 675 647.5 L 672 649.5 L 672.5 637 Z " /><path fill="var(--primary)" stroke="rgb(255,0,255)" stroke-width="1" opacity="1" d="M 654.5 639 L 655 654.5 L 654 654.5 L 654.5 639 Z " /><path fill="var(--primary)" stroke="rgb(255,0,255)" stroke-width="1" opacity="1" d="M 873.5 650 L 874 664.5 L 873 664.5 L 873.5 650 Z " /><path fill="var(--primary)" stroke="rgb(255,0,255)" stroke-width="1" opacity="1" d="M 365.5 661 L 373.5 670 L 365.5 661 Z " /><path fill="var(--primary)" stroke="rgb(255,0,255)" stroke-width="1" opacity="1" d="M 353.5 673 L 364 683.5 L 358.5 689 L 363 683.5 L 353.5 673 Z " /><path fill="var(--primary)" stroke="rgb(255,0,255)" stroke-width="1" opacity="1" d="M 852.5 678 L 853 697.5 L 852 697.5 L 852.5 678 Z " /><path fill="var(--primary)" stroke="rgb(255,0,255)" stroke-width="1" opacity="1" d="M 699.5 681 L 701 681.5 L 690.5 687 L 691.5 685 L 699.5 681 Z " /><path fill="var(--primary)" stroke="rgb(255,0,255)" stroke-width="1" opacity="1" d="M 778.5 682 L 794 682.5 L 778.5 683 L 778.5 682 Z " /><path fill="var(--primary)" stroke="rgb(255,0,255)" stroke-width="1" opacity="1" d="M 368.5 686 L 369.5 688 L 368.5 687 L 359 695.5 L 368.5 686 Z " /><path fill="var(--primary)" stroke="rgb(255,0,255)" stroke-width="1" opacity="1" d="M 637.5 689 L 646.5 698 L 648 697.5 L 646.5 699 L 637.5 689 Z " /><path fill="var(--primary)" stroke="rgb(255,0,255)" stroke-width="1" opacity="1" d="M 497.5 693 L 504.5 701 L 497.5 693 Z " /><path fill="var(--primary)" stroke="rgb(255,0,255)" stroke-width="1" opacity="1" d="M 633.5 695 L 641.5 704 L 633.5 695 Z " /><path fill="var(--primary)" stroke="rgb(255,0,255)" stroke-width="1" opacity="1" d="M 846.5 710 L 855 719.5 L 854 719.5 L 846.5 710 Z " /><path fill="var(--primary)" stroke="rgb(255,0,255)" stroke-width="1" opacity="1" d="M 774.5 711 L 795 711.5 L 774.5 712 L 774.5 711 Z " /><path fill="var(--primary)" stroke="rgb(255,0,255)" stroke-width="1" opacity="1" d="M 243.5 728 L 236.5 736 L 243.5 728 Z " /><path fill="var(--primary)" stroke="rgb(255,0,255)" stroke-width="1" opacity="1" d="M 338.5 729 L 339 744.5 L 338 744.5 L 338.5 729 Z " /><path fill="var(--primary)" stroke="rgb(255,0,255)" stroke-width="1" opacity="1" d="M 344.5 729 L 345 745.5 L 344 745.5 L 344.5 729 Z " /><path fill="var(--primary)" stroke="rgb(255,0,255)" stroke-width="1" opacity="1" d="M 267.5 733 L 249.5 752 L 267.5 733 Z " /><path fill="var(--primary)" stroke="rgb(255,0,255)" stroke-width="1" opacity="1" d="M 255.5 734 L 248.5 742 L 255.5 734 Z " /><path fill="var(--primary)" stroke="rgb(255,0,255)" stroke-width="1" opacity="1" d="M 497.5 735 L 487.5 746 L 497.5 735 Z " /><path fill="var(--primary)" stroke="rgb(255,0,255)" stroke-width="1" opacity="1" d="M 297.5 740 L 311.5 755 L 297.5 740 Z " /><path fill="var(--primary)" stroke="rgb(255,0,255)" stroke-width="1" opacity="1" d="M 763.5 740 L 783 740.5 L 763.5 741 L 763.5 740 Z " /><path fill="var(--primary)" stroke="rgb(255,0,255)" stroke-width="1" opacity="1" d="M 514.5 742 L 507.5 750 L 514.5 742 Z " /><path fill="var(--primary)" stroke="rgb(255,0,255)" stroke-width="1" opacity="1" d="M 859.5 746 L 866.5 754 L 859.5 746 Z " /><path fill="var(--primary)" stroke="rgb(255,0,255)" stroke-width="1" opacity="1" d="M 625.5 756 L 626 757.5 L 619.5 770 L 619 768.5 L 625.5 756 Z " /><path fill="var(--primary)" stroke="rgb(255,0,255)" stroke-width="1" opacity="1" d="M 659.5 759 L 645.5 774 L 659.5 759 Z " /><path fill="var(--primary)" stroke="rgb(255,0,255)" stroke-width="1" opacity="1" d="M 640.5 777 L 628.5 790 L 640.5 777 Z " /><path fill="var(--primary)" stroke="rgb(255,0,255)" stroke-width="1" opacity="1" d="M 815.5 779 L 806.5 789 L 815.5 779 Z " /><path fill="var(--primary)" stroke="rgb(255,0,255)" stroke-width="1" opacity="1" d="M 454.5 781 L 454 782.5 L 453.5 798 L 453 782.5 L 454.5 781 Z " /><path fill="var(--primary)" stroke="rgb(255,0,255)" stroke-width="1" opacity="1" d="M 820.5 783 L 810.5 794 L 820.5 783 Z " /><path fill="var(--primary)" stroke="rgb(255,0,255)" stroke-width="1" opacity="1" d="M 390.5 788 L 416 788.5 L 390.5 789 L 390.5 788 Z " /><path fill="var(--primary)" stroke="rgb(255,0,255)" stroke-width="1" opacity="1" d="M 436.5 788 L 437 805.5 L 436 805.5 L 436.5 788 Z " /><path fill="var(--primary)" stroke="rgb(255,0,255)" stroke-width="1" opacity="1" d="M 833.5 805 L 820.5 819 L 833.5 805 Z " /><path fill="var(--primary)" stroke="rgb(255,0,255)" stroke-width="1" opacity="1" d="M 626.5 808 L 612.5 823 L 626.5 808 Z " /><path fill="var(--primary)" stroke="rgb(255,0,255)" stroke-width="1" opacity="1" d="M 592.5 813 L 591.5 815 L 579 814.5 L 592.5 813 Z " /><path fill="var(--primary)" stroke="rgb(255,0,255)" stroke-width="1" opacity="1" d="M 238.5 815 L 239 831.5 L 238 831.5 L 238.5 815 Z " /><path fill="var(--primary)" stroke="rgb(255,0,255)" stroke-width="1" opacity="1" d="M 212.5 816 L 219 821.5 L 219.5 820 L 220 823.5 L 212.5 816 Z " /><path fill="var(--primary)" stroke="rgb(255,0,255)" stroke-width="1" opacity="1" d="M 579.5 829 L 565.5 844 L 579.5 829 Z " /><path fill="var(--primary)" stroke="rgb(255,0,255)" stroke-width="1" opacity="1" d="M 596.5 831 L 589.5 839 L 596.5 831 Z " /><path fill="var(--primary)" stroke="rgb(255,0,255)" stroke-width="1" opacity="1" d="M 204.5 835 L 213.5 845 L 204.5 835 Z " /><path fill="var(--primary)" stroke="rgb(255,0,255)" stroke-width="1" opacity="1" d="M 508.5 843 L 517.5 853 L 508.5 843 Z " /><path fill="var(--primary)" stroke="rgb(255,0,255)" stroke-width="1" opacity="1" d="M 477.5 854 L 490.5 868 L 477.5 854 Z " /><path fill="var(--primary)" stroke="rgb(255,0,255)" stroke-width="1" opacity="1" d="M 472.5 860 L 482.5 871 L 472.5 860 Z " /><path fill="var(--primary)" stroke="rgb(255,0,255)" stroke-width="1" opacity="1" d="M 696.5 864 L 703 864.5 L 696.5 870 L 697.5 868 L 701 865.5 L 696.5 864 Z " /><path fill="var(--primary)" stroke="rgb(255,0,255)" stroke-width="1" opacity="1" d="M 619.5 870 L 639 870.5 L 619.5 871 L 619.5 870 Z " /><path fill="var(--primary)" stroke="rgb(255,0,255)" stroke-width="1" opacity="1" d="M 622.5 879 L 644 879.5 L 622.5 880 L 622.5 879 Z " /><path fill="var(--primary)" stroke="rgb(255,0,255)" stroke-width="1" opacity="1" d="M 270.5 882 L 285 889.5 L 283.5 890 L 271.5 884 L 270.5 882 Z " /><path fill="var(--primary)" stroke="rgb(255,0,255)" stroke-width="1" opacity="1" d="M 574.5 889 L 599 889.5 L 574.5 890 L 574.5 889 Z " /><path fill="var(--primary)" stroke="rgb(255,0,255)" stroke-width="1" opacity="1" d="M 399.5 899 L 419 899.5 L 399.5 900 L 399.5 899 Z " /><path fill="var(--primary)" stroke="rgb(255,0,255)" stroke-width="1" opacity="1" d="M 178.5 900 L 233 900.5 L 178.5 901 L 178.5 900 Z " /><path fill="var(--primary)" stroke="rgb(255,0,255)" stroke-width="1" opacity="1" d="M 638.5 911 L 654 911.5 L 638.5 912 L 638.5 911 Z " /><path fill="var(--primary)" stroke="rgb(255,0,255)" stroke-width="1" opacity="1" d="M 606.5 912 L 629 912.5 L 606.5 913 L 606.5 912 Z " /><path fill="var(--primary)" stroke="rgb(255,0,255)" stroke-width="1" opacity="1" d="M 573.5 913 L 592 913.5 L 573.5 914 L 573.5 913 Z " /><path fill="var(--primary)" stroke="rgb(255,0,255)" stroke-width="1" opacity="1" d="M 544.5 914 L 559 914.5 L 544.5 915 L 544.5 914 Z " /><path fill="var(--primary)" stroke="rgb(255,0,255)" stroke-width="1" opacity="1" d="M 178.5 915 L 241 915.5 L 178.5 916 L 178.5 915 Z " /><path fill="var(--primary)" stroke="rgb(255,0,255)" stroke-width="1" opacity="1" d="M 246.5 915 L 280 915.5 L 246.5 916 L 246.5 915 Z " /><path fill="var(--primary)" stroke="rgb(255,0,255)" stroke-width="1" opacity="1" d="M 511.5 915 L 534 915.5 L 511.5 916 L 511.5 915 Z " /><path fill="var(--primary)" stroke="rgb(255,0,255)" stroke-width="1" opacity="1" d="M 435.5 919 L 474 919.5 L 435.5 920 L 435.5 919 Z " /><path fill="var(--primary)" stroke="rgb(255,0,255)" stroke-width="1" opacity="1" d="M 402.5 920 L 431 920.5 L 402.5 921 L 402.5 920 Z " /></svg>