<svg xmlns="http://www.w3.org/2000/svg" viewBox="0 0 1024 1024"><path fill="#12120c" stroke="#12120c" d="m546.5 175 4.5 1.5-5 20 1.5.5 15-13h3l1.5 3.5-8 16q2.3 5.7 4.5 2.5l18-8 2.5 3.5-12 17 1.5 3.5 16-2 1.5 3.5-12 15v5l1.5 3.5 5.5 2.5v5l-6 11q4.9 1.6 4 9l-8 18q28 8 46 26 7.4 14.1 19.5 23.5l1.5.5 4.5 6.5 6.5 5.5-3.5-2.5-1.5.5 10.5 14.5.5-3.5-13-27 4 3q10 14.5 14 35 15.8 17.2 25 41h-1L677.5 396l-.5 7.5 5 25 1 23 5.5 33.5 2.5-19.5v-2l.5-7.5 2.5.5 1 18v14l11 85-2 1-10-74v-2l-1.5-22.5-1.5 1.5v26l2 15-1 3 3 48 4 29 24 44 8.5 11.5 23.5 13.5-.5 1.5-4-1-.5 2.5 3.5 10.5 4.5 2.5 6 11-1.5.5-9-12-.5 2.5 2 13 2 2-2 8 1.5 2.5 4.5-3.5 3.5-4.5 1.5.5-11 13-1 10-2.5 3.5-1.5-.5-.5-5.5-8 14-4 1-4-1-92 28-20 4-1.5-2.5 14.5-2.5 55.5-16.5-4.5-.5-12 4-23 3-45 12-.5-2.5 22-6-3.5-.5-43.5 5.5-1 9 2-1 .5-4.5 3.5 2.5q-5.6 33.4-24.5 53.5l-1.5-.5 9-16-3 2-14.5 18.5q-10 10.5-32 9l-32-9q-12.7-4.8-20.5-14.5l-16-23q-4-7-3-19l1-5-69.5-7.5 1 2 1.5.5-.5 1.5-26-6-16-1v1l25 6 31 2 42.5 7.5-6.5.5-23-4-52-5-33-11-14-2 1 3-9-5q-20.7-3.3-35.5-12.5l2-11-1-2 3-2 2-19-1.5-5.5-7 4-.5-2.5 9-8 1-5-3-1 .5-1.5 4.5-3.5 1-3-1.5.5-2 1-.5-1.5 7-4 1.5-2.5q15.8-7.2 26.5-19.5 9.2-9.3 13-24l-1.5-.5-11 12-1.5.5-1.5 2.5-8.5 7.5-3.5 6.5-.5-1.5 2-5 15.5-15.5 10.5-9.5 6-55-1-4 1-3-1-2 5.5-30.5 1.5.5 2.5 16.5q4-11 1.5-28.5l-1-32 1-21h-1l-4.5 16.5-2.5-.5 8-27 1-46-1-4 7.5-18.5 1.5.5q-9.4 23.6-7 59h1l21-61-2 1-10.5 14.5-1.5-.5-1-5 12-22 24.5-27.5 11.5-9.5 1.5-2.5 23.5-19.5-1.5-.5-1.5.5 35-21q-11.4-13.1-11-38 8.1-24.9 22.5-43.5 14-12.5 37-16h2l12-3 9 3 4-9 2.5 1.5.5 6.5zm-3.5 10-7 8 5 2 3-9zm-35 7-2 2h5l6 3h-7q-16 0-25 7h3l1 2-5-1-8 5-1 2h-1q-15 10-17 34-2 25 7 39l17-4-3-16 1-20 4-8 15-11 22-5q10-1 14 4 8 12 11 30v13l-12 18h4v2l-3 2h-2l-13 7-11-3h-13l-18 4-7 4 4 1v2l-2 1-3-1h-2l1 3-1 4-2-1-4-5-2 3h-1q-14 13-23 32l10 3-11 8-19 22h-1l-17 25-16 43-2 2-3-1v-8l9-34 1-3q6-20 18-33 10-16 29-23l17-28 6-7q-30 13-50 35l-23 28-17 34-4 27-20 91q-1 18 4 32l4-23 1-37 2 1-1 11 1 2 3 1v8l-5 25-1 48v2l-1 6-1-40-14 62 1 2 7-11 2 1-12 19-4 12 1 1 13-8q1-4 3 0l-17 13-5 7-3 2 1-2v-2q-10 6-15 18h-1l1-2v-2l-6 5-6 8v1l40-31 1 4-1 2 14-8v2l-8 7-6 7 27-16 3 1-3 6-9 8-6 7 22-13 3 2-2 3-9 8-3 4 26-15 1 3-32 30-9 10 41-31 1 3-34 31-9 10q22-22 52-38l2 1-1 4-45 46-1 2q27-24 60-43l3 1-2 4-16 15-16 17q22-20 50-36l2 1v3l-7 8-4 3-18 19 1 1 34-24 15-8 3 1-3 9-17 27 1 1 27-18 11-5 4 10 15-5 5 1 4 5h7l11-4 2 1-16 6-6-1-4-5h-5l-9 4-7-1-2-8-37 22-3-1 19-34v-3q-29 15-52 35l-4-1 11-14 20-21-21 13-33 26h-3l2-4 26-25 10-11-16 9-45 35-3-1 13-17 6-5 4-5 3-2 23-24-23 14-43 37 23 7h2l15 1h2l92 11 35-1 2 1 110-10 5 1-1 1q-44 2-83 8l-39 2 8 2 21 2h30l13-2 54-2 24-4h13l62-20-2-5-17 8-44 15h-4l37-13 1-2-16 5h-5q21-4 36-13l1 1-2 1-1 2 13-6-2-9 2-8 3 15q21-8 34-24l-4-21-1 2-5-7q-18-20-39-35l-2 1 8 13 11 10v1l-5-2-15-18q-3-14-11-23l-7-25-5-47-1-88-15-61-19-46-6-8q-13-15-32-24l-2 1 9 6 18 22 19 37q8 18 10 43l3-1-1 9-4-5q-2-23-8-41l-20-39-6-4h3l-10-13-19-16-13-5-6 1 5 2 4 5-11-5-2-2 8-2-13-6-4 6-4-1 4-8-2-6-6-3 1-2 4 2-2-2 4-3 6 2 7-19 2-1-2-2 5-9v-7l-8-2-2-2 8-12-1-9-7 2-6-1 6-12-2-5-11 5-4-2 3-11-3-3-1 2-5 4-5-1 1-8-5-3-11 10-4-2 2-8-6-2h-2zm50 2-6 6h3l3-4zm-76 5-12 6-1 2 15-7zm92 7-8 5 4 2 5-6zm-105 2-4 2-8 11 1 1 12-13zm51 17 13 9 1 1-2-6q-3-6-12-4Zm61 0-5 3 3 5 6-7zm-68 8-9 4q-9 8-11 24-1 11 4 18h6v2h-2l1 2 9-2 11 2-18 3 3 1q12 2 20-2 10-8 13-24l-8-19q-6-9-19-9Zm-65 3-7 14q-2 20 5 31h1l-1-9v-2l-1-2q-1-17 3-28zm46 7-6 11 1 11 2-15 3-5zm-45 14-2 6v2l5 23h1zm126 14-1 3v2l1 2 3-6zm-96 12-15 5 4 7 17-6-2-5zm3 8-8 3v1l10-3zm-34 3-7 4v1l10-3v-1zm3 3-23 9-4 5 28-11 1-2zm120 2 2 3q21 7 37 20h1q-16-16-40-23Zm23 3 25 19 6 6-5-7q-11-12-26-18Zm-157 11q-22 11-39 26l-12 14-18 30 1 3 28-43 1 1-3 5 1 1 3-4q17-19 39-32zm-18 2-4 2-2 3 8-4zm19 29-5 1-2 3-1-2-12 8q-18 15-28 39l-12 45 1 2 17-44 25-35 18-16zm-57 6q-9 6-13 18l1 1 12-17zm265 10 17 48 11 49h2v6h1l-1-17-5-27q-10-33-25-59Zm-281 6-16 22 1 1q10-8 15-21zm293 3 9 26h1q-3-16-10-26Zm10 12 10 50h1l-5-33 1-6zm-295 2-5 7 1 2 4-7zm-7 6q-8 12-11 30l1 3 10-27zm-4 24q-13 24-17 58l2 8-1-1-3 18 1 9 18-86zm-17 22-5 15-3 22 1 14q1-25 7-46zm331 37-1 77 2 10-1 2 5 34 5 16h1l-4-42-5-23-1-38 2-1 2 43h1l-3-62zm9 9v20l-1 2 3 38 4 13v-14l-2-34zm-343 58-4 32 1 12 5-17zm-12 5-3 10-2 38-3 19 1 8 8-59zm359 22 2 24h1zm-355 4-2 11 1 4 1-3zm357 27 1 24 3 9 12 10h1l-2-4-2-2-6-6zm11 11q0 20 12 31l7 6zm-371 11-6 14 1 1 5-11zm-4 20-9 12 1 1 8-11zm31 14q-28 14-48 35l-22 25-1 2 56-45 3-5q-3-2 2-4l2 1 9-8zm-26 4-9 6-39 38 1 1 48-44zm-23 1-6 7 7-6zm57 3q-26 13-44 33l-1 2-9 8-12 14 1 1 66-57zm375 2 5 7h1l-1-4zm-410 1-27 24q-12 8-19 22-4 1 0 3l14-17 26-24 8-6zm44 2q-40 24-71 57l-1 2 7 3h3l64-61zm0 14q-32 22-57 50l5 2 4-5 49-46zm-84 1-7 8 7-6zm7 1-15 11-2 6v1l12-10 6-7zm27 5-32 26-4 5 6 3 31-33zm423 12-1 2q-13 15-33 24l3 3 8-2 1 3 4 1v-1l9-5 3 1q6-4 8-12zm-460 2-4 3-2 5h2l5-7zm-10 6-2 4 1 3 3 1 1 1-2-8zm7 12-2 2 4 9 6 3h2l12 4 3-6-7-4-7 4-2 1 3-5v-2l-2 1h-3l1-3zm460 6q-10 10-25 14v1l22-7 4-7zm-474 1-2 9 18 7h3l-3-2-1-1-5-3-4-10-2 7h-1l-2-6zm456 4-19 8v1l21-8zm-412 2-7 6 20 5 24 4h4l-16-6h-8l3-1zm38 10q14 7 35 11l9-2 20 1 2-1 6 1 3-1 2 1h6l-55-8zm-48 3q0 4 8 4h2zm107 8-2 2 27 4 24-1 6 2h43l-43-6h-47zm150 11-54 5 32 3h21l9 1 1-5h2l1-3zm-111 2q-3 14 2 24l2 1-4-16 2-8zm20 1-6 8 1 3 7-10zm7 1-6 8 1 1 7-8zm8 0-10 14 1 1 12-14h-1zm9 1-12 18 1 1 15-16 2 1v3l-12 17 1 1 11-14 6-5 2 1-15 28 1 1 15-16 3 1-9 22v1l13-10 1 2v11l2 1v2l-3-1-2-4 1-4v-3l-12 10-4-1v-4l7-14v-2l-17 18q8 7 22 9l5-2 2 1q21-4 35-15 13-11 16-32l-29-1h-2zm-9 8-15 16 1 2 3 1 11-17zm-11 1-7 7 2 3 5-8zm17 5-16 18 1 2 3 1 12-19zm10 0-20 25 6 4 14-27zm-39 15q1 9 8 15l12 7h1l-6-5zm81 18q-8 6-19 7v1q13 0 20-7zm0 9q-13 7-34 6l10 2q18 1 26-7z"/><path fill="#12120c" stroke="#12120c" d="m592.5 290 16 6q16.3 9.2 28.5 22.5l10 16-2-1q-7-13.5-18.5-22.5l-1.5-.5-.5-1.5-25-14v2l-8.5-5.5zm-221 22 .5 1.5-13 12-24 34-8.5 23.5-.5-2.5q4.1-19.4 14-33 12.5-19.5 29.5-34.5zm115 8 5.5.5-.5 2.5-13 4q-3.5-2 1-4l3.5-.5.5-1.5zm-88 2 .5 1.5-8 6-.5 1.5-19.5 17.5-.5 1.5-1.5.5-12.5 17.5-.5-4.5 15.5-18.5zm201 6 2.5.5-.5 1.5-2.5 1.5.5 3.5 1.5.5-1 3 3 1-.5 2.5-5-1-1.5.5 1.5-3.5 2.5-1.5q-3.2-1.2-2-7zm82 0 8.5 6.5 3 7-2-1-7.5-8.5-.5 1.5 1 3-2.5 1.5-1.5-8.5zm-352 1 2.5 1.5-12.5 21.5-.5-3.5zm3 85 .5 2.5-2.5 6.5-1.5-.5zm219 15h8l13 7 5.5 5.5 2.5 4.5 2.5.5-1 3q3.5 4 2 13l-1 4h1l1.5-3.5.5 3.5-13 26 6.5 1.5 3-2q15.6 7.9 26.5 20.5 4.3 5.7 2 18l-3 12 9 36 3 32-14 30 20.5.5 2.5 1.5-.5 1.5-18-1h-2l-7.5 1.5.5 1.5 31-1 8 1 2 2 3-1q3 1.5 0 3l-5 2h-2l-24 5-.5-1.5 18-5-2.5-.5-63.5 4.5 10.5 1.5 4-1 3 1 15-1v1l-1.5.5 20.5 4.5 16 1 3.5 2.5-12.5.5-14-3-3 2-18 1h-76l-54.5 8.5.5 1.5 36-1h2l3.5 1.5-.5 1.5q-11.6 1.1-19-2l-42 3-1.5-2.5 65-11-14.5-.5-59 6h-21l-1.5-2.5 37-6-34.5-4.5h-19l-2 1-2.5-1.5 5-2-13-4 .5-1.5 17.5-1.5-.5-1.5 32-3h2l15-1q10.8-10.2 26.5-15.5l6-51-10-9q-3.6-5.4-2-16l3-13 6.5-6.5 48-31 15.5-4.5-6-5-6-16 3-20 9.5-17.5zm1.5 2 11 5v-1q-3-5-11-4Zm6 7-3 1h-2l-10 2-9 13 4 3q1 5-2 6l-3-1-2 1q-1 15 5 25 5 8 18 8v2h-3l-4 1 5 1v1q-7 1-9-2-34 12-60 31-11 7-15 22-1 9 3 14 4 7 13 9l4-9-11-17 5-1q1-11 6-17l13-8 12 3 1 2 7-4h7l10-3 2 1q12 13 20 31l16-25 3-2-2 6 1 1 5-6 2 1-25 37-1 1-23 2-3-1h-19l-16 3-1 3 2 1-1 5 17 1h2l5-1 20 3h2l11 2h5l13-11 26-28 3-9-6-24q-8-10-21-14l-3-5-2 1h-3l10-22q2-19-6-27-3-7-13-7Zm12 0 5 7h1l-2-3zm-41 37 1 11h1zm69 33 6 23h1q0-16-7-23Zm-69 20-7 2-6 7-5 13-2 12v1l24-1 3-9v3l1 6 17-1 1 2q4-2 1-3l2-3-9-13q-7-12-20-16Zm-29 1-2 1-5 5-6 18 6 10 1 4 11-2-2-1 3-21 5-10q-3-5-11-4Zm103 17-5 7 2 1v3l-11 11 1 3-6 4-1 2-7 5 13 17h-3l-2-2-3-2 5 15h-2l-13-24-7 3-4-2h-27l-1 9h2l2 4h1l-2-5 2-1 11 26 14 17 3-1 20 4 9-2 2-4 4-2q7-6 9-17l-3-33 2-3q-4-14-4-32zm9 27 3 40 2-6zm-133 4-2 5 1 4 2-8zm5 0-7 31 1 7-3 18q-14 2-22 10l-2 3 19-1 20-15-1-3 8-43zm21 7-1 2v2l-2 10 2 1-7 33 1 3-21 13-2 3q18 1 30-5l3 2 4-1 3-7v-6l-1 2-2 1 13-43 2 1 2-8zm27 13-1 4 5 7h1zm-7 25-5 16 1 3 14-1 2 1 2-1-13-17zm41 15-2 2 10 4 6-1zm-45 5-2 2 1 3 27-2v-1l-5-2-3 1h-2zm-83 3-17 2-3-1-7 2-5-1h-2l-3 1-3 1q16 3 38 2l3 1 2-1 2 1 3-1-7-2-1-1 3-2zm159 2-6 2h17l-1-2-2 1zm-55 1v2h22q-8-4-22-2Zm-155 2-1 2 13 2h14l-2-2zm75 3-38 2-4 2 49 2v-1l-1-1-3-3zm46 0-19 4v1q34 0 63-4zm47 2-43 4v1q30 0 57-3l-10-1h-2zm26 3v1l17 2h6zm-42 3v2l55-1v-1l-20 1zm-82 1-38 5v1l48-4z"/><path fill="#12120c" stroke="#12120c" d="m555.5 456 3.5.5 1 4-3.5 4.5-3.5-2.5zm-11 1 1.5 3.5-3 10 3 2-1.5 2.5-6.5-2.5 4-13zm-171 22 .5 10.5-2 7-1 22 1 3-2.5.5q-3.9-6.6-1.5-19.5l2-15zm168 2q7-1.5 8.5 2.5-1.7 3.3-8.5 1.5l-1.5-2.5zm170 28 2 1 2-1 1.5 5.5-4.5 1.5q-3.1-1.6-1-7Zm70 160 4.5 8.5 1 14v2l-.5 1.5-3-1-8 21-.5-2.5 8-21v-7l-3-5 1-2-1-7zm-541 53 1.5.5q2.6 13.9 13.5 19.5l1.5.5 1 2-1.5.5-14.5-12.5-3-9zm380 19 4.5.5q-2.2 3.8-10.5 1.5v-1zm-388 5 13.5 10.5-.5 1.5q-8.9-2.1-13.5-8.5zm387 42 1.5.5-9 24 6-4-5.5 8.5-2 1-1.5-4.5z"/><path fill="#f7f7f4" stroke="#f7f7f4" d="M.5 0 1024 .5l-.5 1023.5L0 1023.5zM547 175l-7 6-1 2h-1l-1 2h-1l-4 5-3 2h-2l1-5-1-2-2-1-3 8-10-2-36 9-13 8-8 9-13 24-4 12q-2 26 11 39l-35 21h3l-2 1-1 2-6 4-1 2-25 21-15 17h-1q-14 14-22 34l1 6h2l2-5 2-1 6-9 2-1-21 60h-1l1-20-1-4 7-36-1-1-9 27 2 1h-2l-1 2 2 1v39l-8 25 2 4 2-2 3-15h1l-2 39 2 33v2l-1 7-3-17-1-1-2 2-4 28v18l-5 48-18 16-10 12 1 3 5-8 4-3 18-17q-4 15-14 25l-35 26h4l-1 3-3 2-1 2 3 1-1 5-8 6-2 3 1 1 6-2 2-1-1 22-3 4 1 2-1 8h-1l-1 2 4 3 35 11 6 4h2l-2-2v-1l17 3 29 10 83 10v-1l-48-9-25-1-25-6v-1l14 1 28 6-2-4 25 4 43 4-1 7-2 1-5 12 1 8 5 3 2-1 2 2-1 4 1 9 9 5 5 12 11 6 11-1q6-2 8 2l-1 2q-1 8 3 12l8 5q15 1 24-5l5 1 2-3 32-26 26-28q4-5 3-14-2-5-8-4l1-2-4-2 2-7 27-5 10 1-19 5 1 2 46-12 23-3 8-3 2 1-65 18 2 2 17-3 96-29 3 1 4-1 8-13v5h3l2-13 11-13-1-1-9 8 1-10-4-16 2-1 7 11 2 1-5-11-2-2q-6-4-7-13l1-2 4 1v-2l-24-14q-19-27-33-59l-5-53-1-50v-2l-1-2 2-7v11l12 84h1l-9-71-3-47-2-1-3 28-5-27-2-30-5-24 1-7 12 22h1q-8-26-25-42l-13-33-15-23q-17-21-45-30l-2 3 8 4 3-1q15 6 27 17l4 6 3 1 13 20 11 27 1 1-10-13-1-3 4 3v-1l-3-3-7-7-2-2-13-12-11-16q-18-15-42-22l8-16q2-9-4-10l7-13-1-4-5-2-2-3v-4l11-13 1-5-3-3-10 3-5-1v-4l11-14-1-5-18 8-6-2 8-16-2-5-16 13h-3l5-19zM371 312l-5 4-15 18h-1q-17 18-24 46l1 4q4-21 15-35 13-21 31-36zm27 10-19 16-2 3h-1l-9 10h-1l-11 14v4h2l7-12 36-34zm284 6-3 4v2l1 3 4 1 1-5 5 7 3 2-3-7zm-352 1q-9 8-11 23h2l11-22zm3 84-4 9 1 2 3-7zm-16 58-3 13h2l2-12zm395 38-2 3 1 3 6 1v-5zm70 160-3 3 1 5v2l3 6v7l-10 27 1 5 9-29 3 1h1l-1-6v-2l1-2-3-15zm-553 20-4 5 2 2 2-4zm12 33-2 2v4l5 8 10 8 4 1v-1l-4-4q-9-6-12-17zm-8 24-2 3q5 7 15 9v-1l-4-3-7-7zm34 19-2 2 8 5zm353 22-12 29 2 2 4-1 5-7v-2l-5 4h-2q8-9 9-24z"/><path fill="#f7f7f4" stroke="#f7f7f4" d="m543.5 185-.5 1.5-2.5 7.5-4.5-1.5zm-34 7 12.5 2.5-2 9 3.5 1.5 3.5-2.5 6.5-7.5 6.5 2.5-2 7 5.5 2.5 8-5 1.5 2.5q-3.8 3.2-3 11l4.5 1.5 9-5 3.5 4.5-6 12 6.5 1.5 6-2 1.5 7.5-8 11v3q2.2 4.3 10 3v6l-5 10 1 2-9.5 20.5-5-2-3.5 2.5-.5 1.5-2-1q-3 1.5 0 3l7.5 4.5-4 11 3.5 1.5 4-6 11.5 4.5-6 2 2.5 4.5 10 4 .5-1.5-8-6 1.5.5q9.8-1.3 14 3 16.1 9.4 27.5 23.5l4 6-1.5-.5-1.5.5 5 3 22 43 7 38 2.5 5.5 2.5-1.5-.5-8.5-1.5.5-.5 1.5-5.5-29.5-6-17-24-43-14.5-14.5-4.5-3.5 1.5.5q17.9 8.1 30.5 21.5l9 15 17 42 15 67-1 3 1 2-1 12v2l1 4-1 3 1 13v45l5 43 7 24 9 19q5.8 13.7 16.5 22.5l5 2 .5-1.5-9-8-9-14 2.5 1.5 22.5 17.5 9.5 10.5 4.5 2.5 5.5 8.5 1-2q4.2 7.8 3.5 20.5l-9.5 10.5-23 14-4-15q-3.2 1.8-1.5 8.5l2 8-11.5 5.5 1-3-16 7-23.5 6.5 2.5.5 19-5v1l-51 17-45 3q-2.7-5.8-13-4l-20 6-4-5-4-1-14 5-2.5-3.5 10.5-2.5h2l70.5-6.5-.5-1.5-90 7-7-1q-7.9 5.5-24 3l-2-3-6-1-8 5h-12l-71-9-46-3-18.5-6.5 3.5-4.5q26.2-27.8 61-47l-17 18-20.5 19.5-11 15 3.5 1.5q26.9-24.6 59-44l-4.5 5.5-2.5 3.5-28.5 27.5-1 3 2.5 1.5q23.9-23.1 54-40L402 717.5l-7 11 3.5.5 36-26 16-8 .5 1.5-20 34 4.5 1.5 36-22q-1.1 7.1 3 9h7l12-4q1.5 7.5 12 6l20.5-7.5-.5-1.5-19 6h-6l-4-5-6-1-9 4h-6l-3-9-13 6-25 17-.5-1.5 19-30 1-6-3.5-.5-14 7-36 26 1.5-2.5 29-32-4.5-1.5q-26.6 15.9-49 36l14-15 19.5-18.5 1-3-2.5-.5-24 14-37 29 4.5-5.5 27.5-28.5 7.5-6.5 9-12-4.5-.5q-30.2 17.3-54 41l9-10 34.5-30.5 3-6-1.5-.5q-25.8 15.2-46 36l10-11 35.5-32.5 2-3-3.5-1.5-27 17 3-4 12.5-11.5 1-3-3.5-.5-22 13 5-6 12.5-11.5 1-4-3.5-.5q-16.6 6.9-29 18l6-7 8.5-6.5 2-4-2.5-.5-18 13-42 39-.5-1.5 35.5-34.5 14.5-10.5-2.5-5.5-2.5 1.5 1 2-25.5 20.5-1.5-.5-6.5 7.5-3 1-.5-1.5 11-10 .5 2.5 8-11 1.5-.5 4.5-5.5 1.5.5-2 3 6-5 2.5-4.5 17.5-12.5-.5-2.5-15 9-.5-2.5 15-30-1.5-.5-8 11 .5-1.5 3-23 3-6v-7l6.5-25.5.5 12.5-1 4 1 2-1 4 1 3-1 4 1.5 11.5 1.5-3.5 1-50 5-27v-10l-3-2-.5-13.5-1.5.5-1 2 1 3v2l-2 37-3.5 15.5-2.5-14.5v-2l-1-3 1-3-1-3 25-126 23-42 24.5-25.5q17.5-16.5 41-27l-6.5 7.5-17.5 27.5q-14.3 6.2-23.5 17.5-14.8 15.2-22 38l-1 3-9 33v9q2 4.5 4 1l15-40 17.5-28.5 3.5-2.5 15.5-18.5 13.5-10.5-.5-1.5-2-1-2 1-5.5-1.5q9.1-17.9 22.5-31.5l2.5-1.5.5-1.5 5 6 3.5-2.5-2-4 1.5-.5 3 1 3.5-2.5-5-2 6.5-3.5 25-4 3 1 2-1 14 3 10-7 3 1 3.5-2.5-.5-2.5-2.5-.5q11-8.5 12-27l-7-25-6.5-9.5q-3.5-4.5-13-3l-25 6-11.5 9.5-4 8-2 15 4 21-17.5 3.5q-8.6-12.9-6.5-36.5l4-19 16.5-19.5q2.6-3.9 10-3l1.5.5-.5-2.5-2.5-.5 8.5-4.5 21-2 2 1 .5-1.5-11-3zM487 320l-4 1-1 2-5 2 2 2 12-3 2-2zm112 8v9l-4 4 2 1 2-1 3 1 2-1-4-2 2-3-1-1-2-2 1-2 2-1v-1zm9 11-1 2 7 2h2zm-29 86-4 2-6-1-8 1-1 2-3-1-16 7q-8 5-10 15l-3 1-13 13-2 9 7 6q-3 4-2 13-28 13-47 34-11 8-16 23l3 8-4 9 1 9 7 3q-1 8 4 11l-7 13 4 12-20 17q-7 3-8 11l-12 2-26 1-2 3-16 1-1 2 12 4h-2l-2 3h12l3-1 37 5-29 4q-5 2-1 4h26l60-6 6 1-29 4h-2l-31 7 1 2 22-2 40 1v-1l-12-3-3 1-3-1h-2l-4 1h-18l54-8-1 2 1 5 5 3 9-3v2l5 3 6-1 16-12 2 1-4 7 1 5 8 4 9-3 17-14 22-2 22 3 3-1 2 1 1-2-38-7v-1l10 1v-1l-9-1h-2l-1-1 22-3 10 1-18 4 1 1h8l27-7v-1l-16-4-2-2-14-3 18-15 7-10-2-5-9-3 3-11v-5l-3-6 9-8v-1l2-1 3-5-1-5-4-4-10 3-2-3 1-2-1-8 14-11 2-3-1-6-4-4q-10 1-13 7h-4v-4l6-6q1-7-2-9l-3-2-9 3-4-6 11-8 3-4q1-9-4-10h-5l-9 4-8-10v-5l14-18-1-6-5-4-7 3q0-7-5-9l1-3-5-10q-2-5-9-5Zm-206 54-3 8-3 28 2 7q2 3 3 0l-1-6 4-36zm244 262-2 1-1 2 11-1v-1zM475.5 202l1.5.5-8.5 4.5v-1zm97 5 1.5.5-4.5 5.5-2.5-1.5 1.5-2.5zm-103 1-3 4-2.5 1.5-6.5 8.5-.5-1.5 6.5-9.5z"/><path fill="#f7f7f4" stroke="#f7f7f4" d="M519.5 225q11.1-1.6 13.5 5.5l2 5-4.5-3.5zm63 0 1.5.5-5.5 6.5-1.5-.5-1-4zm-69 8q11 .5 16.5 6.5l10 20q-2.7 16.8-13.5 25.5l-15 2-7.5-1.5 18-3-1.5-1.5h-11l-8 2-1-2 3.5-.5-8-4q-3.9-7.6-2-21 3.6-13.9 13.5-21.5zm-66 3 .5 2.5q-4.9 13.1-3 33l2 9h-1q-6.4-10.1-5-28l1-3zm45 9-.5 1.5-3.5 16.5-.5-8.5z"/><path fill="#f7f7f4" stroke="#f7f7f4" d="m448.5 261 4.5 26.5h-1q-5.7-10.6-3.5-26.5Zm126 10 3.5.5-3.5 6.5-.5-1.5 1-4zm-95 12 4.5 2.5 1 2-17.5 7.5-3.5-7.5zm-31 11 2.5.5-.5 1.5-9 3 1-2zm2 3 2.5 1.5-29.5 12.5 3-4zm121 2q24.3 7.7 40.5 23.5l-2.5-1.5q-16.8-12.7-38.5-20.5zm22 3q18.2 7.3 29.5 21.5l2 3-7.5-6.5-22-15zm-172 12-1 2-7 3v-1zm14 0-1 2q-21.8 12.7-37.5 31.5l-2.5 3.5 1.5-2.5 2-5-1.5-.5-28 42-.5-1.5 19-32 15.5-16.5q14.3-12.7 33-21Zm-2 31 3.5.5-17 16-22 30-19.5 47.5.5-1.5 10-42q9.1-21.9 24.5-37.5l16-12 1 2zm-52 4-1.5 2.5-11.5 17.5-.5-1.5q4.4-11.6 13.5-18.5Zm263 9q16.4 27.6 26.5 61.5l6 42h-1l-.5-5.5-1.5-.5-11-49zm-280 8-.5 1.5-3 8-12.5 14.5 1.5-2.5q5.1-12.9 14.5-21.5Zm292 2q7.7 9.3 10.5 23.5h-1z"/><path fill="#f7f7f4" stroke="#f7f7f4" d="m373.5 382-.5 1.5-4.5 8.5.5-1.5q.1-6.4 4.5-8.5Zm294 0 6.5 8.5v11l5 28h-1zm-302 8 .5 1.5-2 11-8.5 18.5-.5-1.5q2.5-17.5 10.5-29.5Zm-4 24 .5 3.5-18.5 85.5-.5-6.5 2.5-18.5 1.5.5-1-15q4.1-28.4 15.5-49.5Zm-17 22 .5 2.5q-6.1 20.4-7.5 45.5l-.5-9.5 2-19zm331 37q4.4 14.1 4.5 32.5v2l-.5 4.5-1-5-1.5.5 1 39 8 48v2l1 14h-1l-6-23-4-31zm9 11 4.5 25.5 2 43h-1l-4-24zm-145 22-4 5-3 2 4-5z"/><path fill="#f7f7f4" stroke="#f7f7f4" d="m679.5 514 2.5 33.5h-1zm-149 20-3 4-3 2-.5-1.5zm-189 5 2.5 25.5-5.5 18.5-.5-9.5zm178 3 .5 1.5-6.5 5.5.5-1.5 2.5-3.5zm-190 3 .5 22.5-5.5 35.5-.5-8.5 3-40zm359 21 3.5 22.5h-1zm-355 5 .5 10.5-1.5 2.5-.5-2.5zm163 20 .5 2.5-8.5 6.5zm194 6 7.5 31.5 3.5 4.5 5.5 4.5 1 2-1.5-.5-11.5-9.5q-4.8-14.5-4.5-32.5Zm-75 2 1.5.5 1 3-1.5 5.5z"/><path fill="#f7f7f4" stroke="#f7f7f4" d="m701.5 608 20.5 37.5-6-5q-13-11.6-14.5-32.5Zm-93 1 .5 2.5-32 25 .5 1.5-1.5-.5 14.5-15.5zm-278 10 .5 2.5q-.6 8.4-5.5 12.5l.5-1.5zm202 13 3 4q-4.7 4.8-14 5l-.5-2.5 2.5-.5 8.5-4.5zm-18 7 .5 4.5-1.5 2.5-5 1-2.5-1.5 8-5zm-189 1 .5 2.5-7.5 9.5-.5-1.5zm141 0 5.5.5-1 2 .5 1.5-12 1v-1zm55 2 10.5 1.5-3 1 2 1-10.5 1.5-.5-3.5zm93 1 13.5 1.5-16.5 1.5-4.5-1.5zm-189 3 9.5.5-2 3 .5 1.5-33.5-2.5zm-36 5 20 1 2.5 1.5-11.5.5-11-2zm-32 2 1.5.5-9.5 8.5-2-1q-4.2 1.8-1.5 3.5L335.5 676l-49 39 2.5-3.5 28.5-30.5q17.6-16.4 40-28Zm106 0 2.5.5 1.5 3.5 1.5.5-5.5 1.5-8.5-1.5zm46 0 14.5.5-1.5 2.5-32 2v-1zm-83 2 7.5.5-.5 1.5-11.5-.5zm-94 7-2.5 3.5-3.5 4.5-30.5 28.5-11.5 14.5-.5-2.5 17.5-20.5zm32 0 1.5.5-65.5 56.5.5-1.5 32.5-34.5zm86 1 16.5.5-23.5 1.5v-1zm291 0 4.5 3.5 1 3-5-4z"/><path fill="#f7f7f4" stroke="#f7f7f4" d="m377.5 665-9 10-58 53-7.5-3.5q31.6-35.4 74.5-59.5Zm54 0 6.5.5-13.5 1.5v-1zm-129 13-15 16-6 5 .5-1.5 2.5-5.5zm73 2-1 2-48.5 45.5-2.5 3.5-5.5-1.5q25.7-27.8 57.5-49.5Zm-48 5-7 8-7.5 6.5-.5 1.5-3.5 2.5-14.5 16.5-5.5-2.5 2.5-3.5zm-38 15-3.5 4.5-2.5 3.5-1.5-.5.5-2.5zm458 0 2.5 11.5q-1 9-7.5 12.5l-2 1-3-1-11 5-1-3-9 2-1.5-3.5q19.7-8.8 32.5-24.5Zm-463 19 8.5 4.5-1 3 1.5.5 3-2-1.5 2.5-2 3 2.5 1.5 7-5 7.5 3.5-3.5 6.5-16-4-3.5-3.5zm426 7 2.5.5 1 3-58.5 19.5-10 1v-1q35.2-8.8 65-23Zm33 0 1.5.5-5.5 7.5-17 5v-1zm-473 1 2 6 2.5-.5 1.5-5.5 4 9 5.5 2.5 1 2-3.5.5-13.5-6.5zm44 5 19.5 7.5-2 1 20 5-4.5.5-38.5-8.5.5-1.5zm40 10 15 2h2l56.5 6.5-43.5 1.5-28-8zm-49 3 9.5 3.5-1.5.5q-7.4-.2-8-4Zm195 8 2 1 2-1h2l4.5.5q-2 4.5-10.5 2.5l-9.5-1.5zm-89 1h50l8.5 1.5-5.5 2.5-3-1-2 2h-22l-26-4zm147 32 3 1 2.5.5-19.5 15.5.5-1.5 8.5-11.5 1.5-.5.5-1.5zm-43 31 4.5 2.5-.5 1.5-6 1 .5-1.5zm20 11-3 4-12 1-8.5-2.5q14.6 1.6 23.5-2.5Zm-28 5 17.5 4.5q-5.8 5.7-18.5 4.5l-.5-7.5z"/><path fill="#e1de30" stroke="#e1de30" d="m542.5 185 1 2-1-1-5.5 4.5zm-177 131-7 8zm11 27-5 6zm39 9-7 8zm163 73q7.3-.2 9.5 4.5l5 10-1 3q4.7 2.3 4.5 9.5l7-3 5.5 3.5 1 6-14 18v5l7.5 10.5 9-4h5q5.8 1.3 4.5 9.5l-3.5 4.5-10.5 7.5 1 2-8.5-7.5-19-12q-1.2 3.3-7 2l-1.5-.5 2.5 4.5 11.5 5.5.5 1.5h2l7.5 6.5 6 24-3 9-26.5 28.5-13 11h-5l-11-2h-2l-20-3-5 1h-2l-16.5-1.5 1-5-2-1 .5-2.5 16-3h10l2 1 7-1 3 1 23-2 1.5-1.5 25-37-2.5-.5-6 7 .5-1.5 2-7-3 2-16.5 25.5v-2l-1.5-.5q-7.1-16.4-18.5-28.5l-2-1-10 3h-7l-5 4-2.5-.5-.5-1.5-12-3-12.5 7.5q-5.3 6.7-6.5 17.5l-4.5.5 11 17-2.5 7.5-1.5.5-.5 1.5q-8.6-2.4-12.5-9.5-4.1-4.4-3-14 3.8-14.2 14.5-21.5l9-7 48-24h2l10 2v-1l-4.5-1.5 3.5-.5h2l1.5-.5-.5-1.5q-12.6-.4-17.5-8.5-5.8-9.2-5-25l1.5-.5 3 1q3.5-1 2.5-6.5l-4-4 1-1 7.5-10.5 10-2h2l7-1 9.5 6.5q8 8.6 6 27l-10 22 2.5.5 4.5-3.5 10-20 1-7-2 1-.5 2.5-.5-3.5 1-10-2-5 1-2-4-2-6.5-8.5-12.5-6.5.5-2.5 8-1 6 1zM556 456l-3 7 4 2 3-4-1-4zm-11 1-3 3-4 13 7 2 1-2-3-2 3-10zm-3 24-2 2 2 2q6 2 8-1-1-4-8-3Z"/><path fill="#e1de30" stroke="#e1de30" d="m570.5 438 4.5 3.5 2 3-1.5-.5-2.5-1.5zm-40 12-.5 1.5-4 24q1.8 11.3 8.5 17.5l3.5 2.5-2.5.5-9 2-23 13q-20.4 10.6-35.5 26.5l-3 13v11q2.4 8.6 9.5 12.5l2.5 1.5-6 51-1.5 1.5q-15.4 4.1-25 14l-10 1 .5-1.5q1-8 7.5-10.5l20.5-17.5-4-12 7-13q-5-2.5-4.5-10.5l-6.5-3.5-1-9 4-9-3-8q4.6-14.4 15.5-22.5 19.5-21.5 47.5-34.5-1.1-8.6 2-13l-7-6 2-9 12.5-12.5zm142 22 .5 11.5h-1zm20 4 .5 3.5-1.5 6.5-.5-8.5z"/><path fill="#e1de30" stroke="#e1de30" d="m529.5 478 3.5 8.5-2-1zm162 12 .5 13.5h-1zm-93 18q5.4 5.1 6.5 14.5l-1.5 2.5zm18 5 7.5 1.5q3.2 2.3 2 9l-6 6v4l3.5.5q3.9-6.1 13-7l4.5 3.5 1 6-2.5 3.5-13.5 10.5 1 8-1 2 1.5 3.5 10-3 4.5 3.5 1 5-3.5 5.5-1.5.5-.5 1.5-8.5 7.5 3 6v5l-3 11 9 3 2 5-7.5 10.5-17.5 14.5.5 1.5-9.5-.5 12-24q3.3-5.7 2-16l-12-63q5.1-6.9 3-21l-.5-1.5h2zm-87 15 4.5 1.5-2 4 2.5-1.5 1.5-.5-.5-1.5 14.5 13.5 9 13-2 3 .5 1.5-1.5.5-.5 1.5-1-2-17 1-.5-6.5-.5-2.5-3 9-22 1-2.5-.5 3.5-13.5 1.5-.5-.5-1.5q2.3 3.2 4.5-2.5l-1.5-.5-2.5 1.5q1.5-10.5 8.5-15.5zm-29 1q8.4-.9 11.5 3.5l-4 7-4 16 1 3h-1l-.5-1.5-.5 2.5 1.5 4.5 1.5.5-10.5 2.5-7.5-14.5 6-18 4.5-4.5z"/><path fill="#e1de30" stroke="#e1de30" d="M604.5 546q.1 18.4 4.5 32.5l-2 3 3 33q-1.6 11.9-9.5 17.5l-3.5 1.5-2.5 4.5-9 2-7.5-1.5-1.5-2.5-1 2-10-2-3 1-13.5-17.5-11.5-25.5-1.5.5 2 5-1.5.5-2-4-1.5-.5v-2l.5-6.5h27l4 2 7-3 13 24 2.5-.5-4-12 .5-1.5-1.5-.5-1-3h1l4.5 6.5 3.5-.5-13-17 7-5 .5-1.5 6.5-4.5-1-3 11-11v-3l-1.5-.5-1.5.5 4.5-6.5 1.5.5zm4.5 63-18 13-13 14 31-24zm3.5-36 2.5 11.5v2l2 12-1.5.5.5-1.5-.5-1.5-1.5.5-1-14v-2zm-133 4 1.5.5-2.5 8.5-.5-4.5zm5 0 13.5 6.5v6l-8 8 1.5.5 5-4-.5 1.5-6 31h1l1.5-3.5-.5 1.5q-.6 8.9-7.5 11.5l-12 8-.5-2.5-.5-1.5q-9.4-.9-12.5 4.5l2 1-7.5.5-2.5-.5q9.8-9.2 25-13l3-18-1-7 2-1-1-3z"/><path fill="#e1de30" stroke="#e1de30" d="m506.5 584 6.5 1.5.5 2.5 8-3 8.5 1.5-2.5 8.5-2-1-12.5 42.5 1.5-.5 1.5.5-.5 3.5-1.5-.5-.5 1.5-14 8-23 2-.5-1.5 23-15-1-3 7-33-2-1 2-10-.5-1.5 1.5-.5zm109 17 1.5 10.5-2 1zm-90 21 1.5.5-.5 1.5 2.5 1.5 6 8-3-1-1.5 2.5-7 3-2.5-.5zm-210 3-6 7zm218 11q5.8-.7 6.5 3.5h-2l-.5 1.5-2-1-13 1v-1q8.8 1.3 11-4Zm33 1 12 5 2-1-1 2h-5l-7.5-3.5-.5-1.5-1.5.5zm-266 2-5 6zm238 3 2 1 2-1 3 2 2-1 .5 1.5-16.5 1.5-2.5-1.5zm65 1 5.5.5-2 1 4 1-9.5.5-.5-1.5zm-165 2 2.5.5-.5 1.5-1.5.5.5 1.5 4 2 3-1-1 2h-2l-2-1-2 1-3-1-3.5-1.5 2.5-3.5zm159 2 8 1 2-1 1 2h-2l-14.5-.5zm-55 1 18.5.5-.5 1.5-2-1-16 1zm55 4 3.5.5-4 1-1.5 2.5-13-1h-2l-5 1-4.5-1.5zm-73 1 22 1 2-1v1l-29 3v-1l3.5-.5zm-79 1 13.5.5-4 3 8 1-11.5.5-21.5-1.5 4-1 .5-1.5zm110 1 2 1 1.5-.5-.5 1.5 2-1 1 2-30 1v-1l8-1h2zm168 2 5 5 1-1 1.5.5-2 1 3.5 4.5zm-204 1 10.5.5-12.5 1.5v-1z"/><path fill="#e1de30" stroke="#e1de30" d="M581.5 658q9-2.5 11.5 1.5l-2.5.5-9-1zm-42 3 9 1 3-1 3 1h2l14-1 4 1 7-1 3 1 10-1v1l-55 1zm-212 1-7 8zm55 2-6 7zm55 0 10.5 1.5-13.5 1.5v-1l3.5-.5zm76 1 39.5.5-15.5 11.5-6 1-4.5-3.5-.5-1.5-9 3-4.5-3.5-1-5zm43 0 29.5.5-16.5 13.5-9 3-7.5-4.5-1-5zm-247 10-13 14zm78 15-6 7zm19 2-5 6zm-87 1-6 7zm-33 1-5 6-1.5-.5 2-1-.5-1.5 1 1zm87 6-5 6zm-35 5-1.5 2.5-1.5 2.5-4 3zm144 42 7.5 2.5.5 1.5 3.5.5-18.5.5 1-2zm32 1 11.5 1.5-17.5 1.5v-1zm14 3 2.5.5-2 1 2.5 3.5 16-5 5.5 4.5-.5 1.5-35 1-11.5-1.5 9.5-4.5zm45 0q9.8-1.7 12.5 3.5-9.8 3.2-24.5 1.5l1-2zm-84 2 10.5.5-9.5 1.5zm-19 2q11.4-.9 18 3l7-1v2l9-1 5.5 1.5-43.5.5-1-2zm110 8 6.5.5-1.5 6.5-4-3-2 6-.5-1.5zm-19 1 12.5.5-1.5 3.5-1.5-.5-1.5 5.5-9-1h-2q-22.9 1-41.5-2.5l.5-1.5-4 1v-1zm-91 3 2.5.5-7.5 10.5.5-1.5-1-2zm15 1 2 1 1.5-.5-7.5 8.5q-3.2-1.7.5-3.5z"/><path fill="#e1de30" stroke="#e1de30" d="m494.5 769 44 5h2l29.5.5q-2.5 22-16.5 32.5-12.5 11-33 14l-1-5-1.5-.5v-11l-1.5-1.5-13 10v-1l1.5-.5-1-2 9-20-3.5-.5-11 11-1.5-.5 1 2-3.5 2.5v-1l1.5-.5v-2l13-25-2.5-.5-5.5 4.5-8.5 10.5-2 1 1-2 1.5-.5 1-3 7-10v-3l-2.5-.5-17 18 1.5-2.5 1.5-2.5 1.5-.5.5-2.5 1.5.5-1-2zm64.5 17-3 2-1 2h-1l-9 12v1l19-15-2-1z"/><path fill="#e1de30" stroke="#e1de30" d="m587.5 771 .5 2.5.5 1.5q6.5-1 7.5 3.5 1.3 9.8-3 14L566.5 821 535 846.5l-2.5 3.5-5-1q-8.2 6.3-24 5l-7.5-5.5q-4-3.5-3-12l1-2q-1.7-3.2-8.5-1.5l-11 1-10.5-6.5-5.5-11.5-8.5-5.5-1-9 1-4-2.5-1.5-2 1-4.5-3.5-1-8 4.5-11.5 2-1q.8 13.7 6.5 22.5l19.5 23.5 14 8q12.5 1 20.5 6.5l-1 8 8.5.5 10.5-4.5-2-1q23.2-.8 33-15l8.5-11.5 1.5-.5q-3.3-2.3 2.5-4.5l-.5 1.5-9 16 1.5.5q12.9-13.1 19-33l1.5-.5-.5-1.5 1.5-.5-.5-1.5 1.5-.5-1-2h2l-1-3 1.5-5.5 3.5-2.5z"/><path fill="#e1de30" stroke="#e1de30" d="M479.5 777q2.2 3.5-4 7l.5-1.5 1.5-2.5 1.5-.5zm-5 2-1.5 2.5-3.5 6.5-1.5-3.5zm8 1q3.3 1.8-.5 3.5l-7.5 12.5-2.5-1.5-1-2zm11 1-1.5 2.5-11.5 19.5-2 1-2.5-3.5zm9 1-.5 1.5-14.5 28.5-5.5-4.5zm-41 15 16 18 6.5 4.5-1.5.5-11.5-7.5-8-11 .5-1.5-1.5-.5zm44 0 1.5.5-7 14v4l3.5 1.5 11.5-8.5.5-1.5.5 2.5-1 4 1 3-3 5 1.5.5 1.5-.5-4.5 1.5-15.5-5.5 3-2-1.5-3.5-1.5.5-1.5 4.5-3.5-2.5zm36 20 .5 1.5-3.5 2.5-3 1-2-1-1 2-1.5-.5.5-1.5 6-2 1.5.5.5-1.5 1.5.5zm5 7-2 3-11 5 1-3-1.5-.5 1.5-.5h2z"/></svg>