<svg xmlns="http://www.w3.org/2000/svg" viewBox="0 0 1024 1024"><path fill="#24231e" stroke="#24231e" d="m508.5 296 3 1 5-1h2l22 4 20 7 12 7 10.5 10.5 20 28 5 10 3 14-1 2 1 1 1 31-6 29-9 24-37 65 1 3-1 8 1 1 1 30 1 1v31l-1 1v13l2 8 12 21 7 29 4.5 8.5 3.5 2.5 4.5 8.5 1.5.5 1 10-5 5-6.5 15.5q-2.2 3.8-9 3l-4.5-3.5v-7l3-7v-5l-1-3-2-5 1.5-2.5 1.5-.5-12-23-15-23-10-21-6-20-5.5-29.5-11 18-2 1-1-1-3 3-2.5-1.5-14.5-21.5-4.5 13.5-13 26 13 15 4 11 7 12v2q3.4 12.1 11.5 19.5l3.5 1.5 1 3 8 8v4l-3.5 6.5-2.5 1.5q-2.5 12.5-10.5 19.5l-5 2-5.5-4.5v-5l4-10v-7l-2-5 2-4-49-58q-4.7-3.8-3-14l2-6 2-17q7.3-19.7 11-43l3-7v-5l-26-41-21-43-4-13v-5l-2-7-1-19-1-1v-19l6-25q8.3-20.7 23.5-34.5 15.2-14.8 36-24 9.5-1.5 16-6l14-1zm-.5 2-15 3h23l31 6 15 7 19 13 3 3-4-6-14-12-18-8-20-5zm-6 7-29 8q-13 4-21 12l-11 11-17 30-4 15-1 16-1 1v19l3 13 7 19 14 29 32 59 38 54 37-57 23-40 25-54 9-29v-8l1-1v-10l-3-16q-6-21-17-37-16-19-41-28l-25-6zm-18 1-2 1v1l5-1zm-52 36q-10 12-15 30l1 3q5-17 14-31zm170 12-1 3 5 12 2 13h1l-2-16zm6 65-15 40q-22 47-49 89l1 1 12-18 29-50q15-25 22-57zm-190 10-1 6 2 8 7 19 15 29 21 35 2 1-39-76zm139 105-27 39 1 9 6 20 4 24 19 32q9-1 14-6v-4l-11-21-3-10-1-23-1-1v-25l-1-1 1-3v-20l-1-1zm-86 8-12 36-4 24-4 13v6l3 5 23 28h3l8-5 3-4q-4-14-12-22l-6-4 18-46-19-30zm-3 1-3 7 1 3 2-6zm92 14-1 25 1 1 1 16 1-4-1-5v-2l1-2-1-1v-18l-1-1zm-13 81-1 2 4 8 2 1zm-54 8-2 3-11 8 1 1q6 1 8-3l4-5zm2 5q-2 4 1 6l2 1zm80 2-1 2q-4 4-12 5l1 2q7 1 10-3 4 0 3-5zm-82 1-2 2v2l19 26h1v-3zm-4 3-2 2 21 29h1l-1-4-18-26zm88 1-2 2 5 15h1l-3-15zm-93 2-1 2 16 19 3 2-12-17zm89 1-1 4 12 30h1l-1-7-10-26zm-4 2-2 2q8 12 13 28h1l-11-29zm-5 1 12 27 2 1-12-27zm-50 17v2q-1 5-4 8-5 1-5-3l-2 1q-1 5 2 6l4-1v2h-4l-1 2h4v2l-4 2h3v2h-4l-4 10 2 2 3-1 6-7 4-11 5-8-2-5zm72 5v6h1zm4 4-3 7-3 2-4-4-2 2q-1 5 2 6l4-1v2q-5-1-6 2l6 1q-1 2-6 2 1 2 6 1l-1 2-4-1q-4 4-3 13h3l7-9 7-18q0-5-3-7Zm-69 1-3 5h2l1-2zm75 7-4 8 1 1 3-5zm-8 18-6 9h2l4-6z"/><path fill="#24231e" stroke="#24231e" d="M511.5 349h9l10 3 14.5 12.5 9 15 2 10v7l-4 17-10.5 14.5-10 7-16 4-1-1h-9l-11-3-15.5-9.5q-6.6-6.9-10-17-2.6-7.9-1-20 4.5-18.5 16.5-29.5l12-7 11-1zm2.5 2v1h5l7 2 11 6h1q-8-9-24-9Zm-7 4q-10 2-16 7l-11 12-4 8-1 11-1 1 1 9 3 9 5 8q7 8 18 12l22-1q9-2 15-8t10-14l3-13q-1-18-10-27-10-15-34-14Zm-14 1-2 1-1 2 4-2zm-22 32-2 7 1 1v10l2 6q4 10 13 16h1q-9-8-13-19l-2-9zm69 35q-10 12-32 11v1q24 2 33-11zm-80.5 194 2.5.5q.9 5.4-1.5 7.5l-1.5-.5 1-5zm94 9q3 1.5 0 3l-4 1-3.5-1.5.5-1.5 4 1z"/><path fill="#f9f9f4" stroke="#f9f9f4" d="M.5 0 1024 .5l-.5 1023.5L0 1023.5zM509 296l-1 1-14 1q-7 4-16 6-21 9-36 24-16 14-24 35l-6 25v19l1 1 1 19 2 7v5l4 13 21 43 26 41v5l-3 7q-4 23-11 43l-2 17-2 6q-2 10 3 14l49 58-2 4 2 5v7l-4 10v5l6 4 5-2q7-7 10-19l3-2 3-6v-4l-8-8-1-3-3-2q-9-7-12-19v-2l-7-12-4-11-13-15 13-26 5-14 14 22 3 1 3-3 1 1 2-1 11-18 5 30 6 20 10 21 15 23 12 23h-1l-2 3 2 5 1 3v5l-3 7v7l5 3q6 1 9-3l6-15 5-5-1-10-1-1-5-8-3-3-5-8-7-29-12-21-2-8v-13l1-1v-31l-1-1-1-30-1-1 1-8-1-3 37-65 9-24 6-29-1-31-1-1 1-2-3-14-5-10-20-28-10-11-12-7-20-7-22-4h-2l-5 1z"/><path fill="#f9f9f4" stroke="#f9f9f4" d="m507.5 298 20 1 20 5 18 8 14.5 11.5 6 8-5.5-4.5-19-13-15-7-31-6h-22l-1.5.5 1.5-1.5 13-1zm-20 7 3.5.5-11.5 3.5v-1z"/><path fill="#f9f9f4" stroke="#f9f9f4" d="M501.5 305h19l25 6q25.1 9.4 41.5 27.5 10.9 16.1 17 37l3 16v10l-4 20-14.5 36.5-.5-3.5 2-2 4-14v-6l2-6 3-23v-2l-1-15-4-19-7-16-16.5-21.5-14-10-10-4h-4l-8-4-8-2h-15l-1 1-11 1-18 6-18 9-9.5 8.5-10 12-10 20-6 24v17l6 23v6l18 47 26 44 17.5 25.5 8.5 7.5-2 4q3.4 4.6 13.5 2.5l7.5-6.5 1-3 14-17 2-5 10-14v-2l24.5-34.5-.5 1.5-9 19-16 27-37.5 57.5-37.5-54.5-32-59-14-29-7-19-3-13v-19l1-1 1-16 4-15 17-30 10.5-10.5q9-7.5 21-12zm-69 36-.5 1.5-9 18-7.5 19.5.5-1.5 4-16q4.7-12.3 12.5-21.5Z"/><path fill="#f9f9f4" stroke="#f9f9f4" d="m496.5 350 9.5.5-14.5 3.5 1-2zm104 3 6.5 12.5 2 16h-1l-2-13zm-106 2 2.5.5q-9.7 3.3-15.5 10.5l6-7zm12 0h11q4.3 3.7 12 4l11.5 9.5q9.3 9.2 10 27l-3 13q-3.6 8.9-10.5 14.5-5.8 5.7-15 8l-22 1q-10.8-4.2-17.5-12.5l-5-8-3-9-1-9 1-1 1-11 4-8 10.5-11.5q6.4-5.1 16-7Zm-26 7-1.5 2.5-5.5 8.5.5-1.5v-3zm64 1 5.5 7.5-2-1z"/><path fill="#f9f9f4" stroke="#f9f9f4" d="M470.5 389q.2 27.8 16.5 39.5l-2.5-1.5-5.5-4.5-8-14q-2.7-8-.5-19.5Zm76 26-.5 1.5q-3.3 8.2-10.5 12.5l-13 6h-15v-1h10l9-2 14.5-9.5.5-1.5 1.5-.5zm62 1 .5 2.5-3 14-7 21-13 27-29 50-17.5 25.5.5-1.5 18-29 26-48 15-33zm-128 11 14 8 11.5 3.5-1.5.5-1-1h-10l-6-3zm-63 2 7.5 21.5 43 83h-1l-26-43-15-29-7-19-2-8zm139 105 .5 8.5 1 1v20l-1 3 1 1v25l1 1 1 23 3 10 11 21v4q-4.6 5.9-14.5 6.5L541 625.5l-4-24-6-20-1-9zm-2.5 92-3 2-4-1-1 2 4 1 4-1q3-1 0-3Zm-85.5-86 .5 2.5-4.5 13.5-.5-2.5zm2 2 1.5.5 19 30-18 46 6 4q8.2 8.8 12 22l-3.5 4.5-8 5h-3L454 625.5l-3-5v-6l4-13 4-24zM460 617v3l-1 5h2q2-2 1-7z"/><path fill="#f9f9f4" stroke="#f9f9f4" d="m559.5 557 .5 8.5 1 1v18l1 1-1 2v2l1 5-1.5 4.5-.5-16.5-1-1zm-26 40 3.5 13.5h-1zm13 41 7.5 14.5h-1l-7-13zm-54 8 .5 3.5-4.5 5.5q-1.9 3.6-8 3l-.5-1.5 11-8zm2 5 3.5 6.5-2-1q-3-1.8-1.5-5.5Zm80 2 1.5.5q.5 5-3.5 5.5-2.8 3.7-10 3l-1-2q8.1-.9 12.5-5.5zm-82 1 18.5 26.5v3l-1.5.5-18.5-26.5v-2zm-4 3 1.5.5 18 26 1 4-1.5.5-20.5-29.5z"/><path fill="#f9f9f4" stroke="#f9f9f4" d="m576.5 658 1.5 1.5 3 15h-1l-5-15zm-93 2 6.5 5.5 13 18-4-3-16-19zm89 1 1.5.5 10 26 1 7-1.5.5-11.5-30.5zm-4 2 1.5.5 11 29h-1l-2.5-5.5-.5 2.5 1 2-2-1-13-26 2.5-.5 11 23 .5-2.5-10-20zm13 13 5.5 12.5v3h-1zm-68 5 3.5 2.5 2 5-5 8-4 11-6.5 7.5-3 1-1.5-2.5 3.5-9.5 4.5-.5-.5-1.5-2.5-.5 4-2-.5-1.5-3.5-.5.5-1.5 4.5-.5-.5-1.5-4 1q-2.7-1.2-1.5-6.5l1.5-.5q.5 3.5 5 3 3.9-2.6 4.5-8.5zm8 8 .5 1.5-2.5 5.5-1.5-.5z"/><path fill="#f9f9f4" stroke="#f9f9f4" d="M589.5 690q3.3 1.8 3.5 6.5l-7 18-7.5 9.5-2.5-.5q-1.1-8.6 2.5-12.5l4 1 1-2q-4.5 1-5.5-1.5 4.6.6 6-2l-6-1q1.4-2.6 6-2l-.5-1.5-4 1q-2.7-1.2-1.5-6.5l1.5-1.5 4 4 3.5-2.5zm6 8 .5 3.5q-6.7 8.8-10 21l-2.5 2.5-2 1 3.5-4.5zm-85 12 .5 1.5-5.5 6.5-1.5-.5 4-3z"/><path fill="#f7e409" stroke="#f7e409" d="M511.5 310h15l8 2 8 4h4l10 4 14.5 10.5 16 21 7 16 4 19 1 15v2l-3 23-2 6v6l-4 14 .5 1.5q-1.2-2.3-2.5.5l1 4-2 1 .5 1.5-1.5.5-.5 3.5-1.5.5v2l-7.5 16.5-1.5.5.5 1.5-1.5.5.5 1.5q-1.2-2.3-2.5.5-9.4 17.6-22 32v2l-10 14-2 5-19.5 24.5q-3.5 4-13 2l-3.5-2.5 2-4-9-8-39-61-10-22-12-33v-6l-6-23v-17l4-18 9-21 17.5-21.5 10-7 18-8 13-4 11-1zm.5 39-4 2-2-1q-9-2-13 2-3 1-1 3l-7 4-3 4q-2 4-3 1l-5 5v5l-4 7-2 8q-2 12 1 20 3 10 10 17h2q4 2 1 4 4 5 12 8h10l1-1v2l2-1h8l1 1 16-4 10-7 10-14 4-17-1-13-6-16q-2-5-3-2v-1l-15-13-10-3z"/><path fill="#f7e409" stroke="#f7e409" d="M513.5 351q17.7-.2 25.5 9.5l-1.5-.5-6.5-3.5-.5-1.5-2 1-1-2h-2l-7-2h-5z"/></svg>