<svg viewBox="0 0 1024 1024" version="1.1" xmlns="http://www.w3.org/2000/svg" desc="Created with imagetracer.js version 1.2.6" ><path fill="currentColor" stroke="rgb(0,0,0)" stroke-width="1" opacity="1" d="M 466.5 145 L 512.5 147 L 514.5 146 Q 582.3 154.7 634.5 179 Q 683 204.5 718 243.5 Q 754.1 283.9 779 335.5 L 793 377.5 L 801 423.5 L 802 441.5 L 802 443.5 L 801 464.5 L 802 497.5 Q 797.2 547.7 780 585.5 L 763 619.5 Q 749.1 642.6 731 661.5 L 729 667 L 737 673.5 L 759.5 698 L 763 697 Q 761.8 694 765.5 695 L 772.5 693 L 785 702.5 L 792.5 711 L 810 727.5 L 850.5 771 L 864 782 L 869.5 789 L 902 820.5 L 919.5 842 L 922 843.5 L 928 859.5 L 928 868.5 L 927 870.5 L 928 875.5 L 923 890.5 L 909.5 906 Q 894.7 919.7 865.5 919 Q 855.4 916.6 849.5 910 L 808 868.5 L 733.5 791 L 730 788.5 L 713 768.5 L 711 760.5 L 707 756.5 L 707 751.5 L 711 744.5 L 684 719.5 L 679.5 713 Q 649.3 736.8 612.5 754 Q 584.9 766.9 550.5 773 L 548.5 773 L 487.5 781 L 485.5 780 L 470.5 781 Q 439.9 779.1 413.5 773 Q 377.4 764.1 346.5 750 Q 289.5 721.5 249 676.5 Q 191.6 610.9 172 507.5 L 172 505.5 L 171 498.5 L 171 496.5 L 169 442.5 L 169 440.5 Q 168.8 413.8 174 392.5 L 182 360.5 L 195 329.5 Q 225.9 269.4 274.5 227 L 296.5 209 L 338.5 181 L 369.5 165 L 414.5 151 Q 438.3 145.8 466.5 145 Z M 477 203 L 422 208 L 396 217 Q 351 235 319 265 Q 281 300 257 348 Q 233 396 229 464 L 229 482 L 231 486 L 232 504 L 245 551 Q 262 599 293 635 Q 323 670 366 693 Q 406 713 461 719 Q 520 722 563 708 Q 614 691 650 659 Q 692 622 717 567 Q 737 525 743 470 Q 744 445 741 425 Q 735 393 725 367 Q 705 319 673 283 L 671 282 Q 632 245 579 222 Q 535 205 477 203 Z M 742 309 L 745 318 L 747 319 L 742 309 Z M 751 387 L 758 432 L 760 431 L 760 427 Q 755 414 755 398 L 751 387 Z M 226 550 L 232 575 L 250 610 L 258 619 L 259 617 Q 238 588 226 550 Z " /><path fill="currentColor" stroke="rgb(0,0,0)" stroke-width="1" opacity="1" d="M 443.5 228 L 457.5 229 L 460 231.5 Q 461 237 457.5 238 L 422.5 248 L 387.5 264 Q 352.2 284.2 325 312.5 L 297 351.5 L 285 377.5 L 281.5 381 Q 274.3 382.3 273 377.5 L 274 365.5 L 286 338.5 Q 303.3 307.8 327.5 284 Q 369.8 240.3 443.5 228 Z " /><path fill="currentColor" stroke="rgb(0,0,0)" stroke-width="1" opacity="1" d="M 432.5 293 L 433 296.5 L 432 308.5 L 433 314 L 456.5 311 L 456.5 312 Q 442.4 312.4 433 317.5 L 434 323 L 449.5 319 L 476.5 317 L 478 315.5 L 479 313.5 L 478 311.5 L 479 307.5 L 479 305.5 L 480 298.5 L 479 296.5 L 480 296.5 L 481 316 Q 487.7 318.6 486 312.5 L 484 299 L 486 300.5 L 491.5 317 L 493.5 317 L 496.5 316 L 508 317 L 511 296.5 L 510 294.5 L 514.5 293 L 516 294.5 L 516 318 L 538 320 L 539 309 Q 543.1 310.7 542 306.5 L 543.5 300 Q 548.1 304.9 546 316.5 L 545 320.5 L 582.5 331 L 591.5 319 Q 594.5 318.1 593 322.5 L 588 333 L 591 331.5 L 596 315.5 L 596 313.5 L 598.5 312 L 600 316.5 L 595 335.5 L 623.5 353 L 634.5 343 L 632 346.5 L 626 354.5 L 629.5 355 L 643 337.5 L 644 330.5 L 639 323.5 L 644 327.5 L 645 338 L 647 339.5 L 644 346.5 L 642 360.5 L 638 366.5 L 655.5 381 L 668 370.5 L 669.5 365 L 670 370.5 L 663.5 379 L 658 383.5 L 668.5 391 L 682 380.5 L 684.5 377 L 686.5 376 L 689 377 L 689 381.5 L 676 397.5 L 675 402 L 670 403 L 674 411.5 L 674 415.5 L 672.5 415 L 670 413.5 L 665.5 408 L 659 412 L 668.5 425 Q 686.2 423.7 696 414.5 L 700.5 407 L 702 408.5 L 702 410.5 L 701 416 L 714 409 L 711 418 L 692 432.5 L 694.5 433 L 699.5 430 L 701 433.5 L 696.5 439 L 678.5 448 L 660 452.5 L 665.5 455 L 686.5 456 L 705.5 450 L 713 443.5 L 715.5 440 L 717 440.5 Q 715.9 449.9 709.5 454 L 698 459 L 699 463 L 675 468.5 L 685.5 471 L 688.5 470 Q 708.2 471.2 717 461.5 L 717.5 460 L 719 462.5 L 711.5 471 L 690.5 478 L 683 482.5 L 690.5 485 L 694 484 L 692.5 487 L 674.5 488 L 673 489.5 L 666 501.5 L 673.5 507 L 675 506.5 L 674 508.5 L 678 516.5 L 675.5 515 L 671.5 512 L 669 515.5 L 679 523.5 L 685 536.5 L 684 539 L 681 537.5 L 679.5 536 Q 677.7 538.8 676 534.5 L 669.5 527 L 663.5 525 L 644 549.5 L 650 562.5 L 646 560.5 L 647 566.5 L 655 577.5 L 653.5 578 L 644.5 570 L 642.5 577 Q 643.7 566.3 637.5 563 L 633.5 560 Q 617.8 576.1 598 587 L 602 599.5 L 600 601.5 L 599 612.5 L 595.5 617 L 595 614.5 L 596 602.5 L 591.5 592 L 550.5 608 L 551 606.5 L 550 599 L 544 601.5 L 548 620.5 L 547 623 L 545 621.5 L 540 609.5 L 540 607.5 L 539 603 L 515.5 608 L 500 608 Q 502.3 618.2 497.5 622 L 495 608 L 484 608 L 484 620.5 L 482 630 L 506 631.5 L 478.5 634 L 431 627 L 428.5 632 L 428 626 Q 395.6 617.9 372.5 599 L 370 605.5 L 377 611.5 L 375.5 612 L 367.5 606 L 365.5 610 Q 366.2 602.8 361.5 601 L 348 588.5 L 344 583.5 L 345.5 584 L 366 602 L 367 594.5 L 343.5 577 L 339.5 582 L 339 580.5 L 341 576.5 L 339.5 573 L 308 552.5 L 309.5 550 L 315.5 551 L 338.5 564 L 342 556 Q 329.7 552.1 321 543.5 L 323.5 543 L 346.5 554 Q 352.5 551.5 348.5 549 L 321 534.5 L 322.5 532 L 334.5 535 L 334.5 534 Q 330.8 529.2 321.5 530 L 320 533 L 286.5 531 Q 276.4 528.6 271 521.5 L 268 506.5 L 280.5 492 L 295 478.5 L 308 461 Q 298.7 461 294 455.5 L 295.5 452 Q 301.2 456.8 312.5 456 L 321 446.5 Q 311.5 445 307 438.5 L 305.5 436 L 281.5 470 L 281 468.5 L 285 461.5 L 283 462.5 L 273.5 479 L 271 477.5 L 278 460.5 L 315 403.5 Q 312 398 309 404.5 L 274.5 449 L 273 446.5 L 311 396.5 L 308 388 Q 312.1 386.3 311 390.5 L 312 393 L 316 390.5 L 336.5 365 L 346 357.5 L 343 341.5 L 344.5 339 L 348 351.5 L 350.5 354 L 354.5 352 L 352.5 355 L 351 357.5 L 354.5 364 L 383 345 L 383 337 L 380.5 337 L 356.5 352 L 356 350.5 L 382 334 Q 379.8 323.5 385.5 320 L 386 321.5 L 385 324.5 L 386 331 L 428 314.5 Q 427 300.5 432.5 293 Z M 428 318 Q 405 324 387 335 L 390 341 Q 407 330 429 324 Q 430 317 428 318 Z M 544 326 L 544 328 L 578 337 L 580 337 L 578 334 L 544 326 Z M 483 327 L 482 330 L 482 351 L 484 351 L 486 329 L 483 327 Z M 493 327 L 491 329 L 491 348 L 488 360 Q 486 365 491 364 Q 502 349 505 328 L 493 327 Z M 472 328 L 436 334 L 440 347 L 452 364 L 456 366 L 465 365 L 468 361 L 475 339 L 475 329 L 472 328 Z M 517 329 Q 513 337 514 350 L 510 364 L 514 365 Q 529 354 535 334 L 517 329 Z M 543 335 L 530 365 L 529 367 Q 547 357 560 343 L 543 335 Z M 430 336 L 413 342 Q 411 348 415 347 L 427 364 L 435 370 L 439 369 L 431 339 L 430 336 Z M 407 345 L 394 353 L 402 368 L 409 373 L 410 374 L 408 365 L 409 357 L 409 346 L 407 345 Z M 589 348 L 588 353 L 606 365 L 614 361 L 589 348 Z M 385 351 L 363 366 L 359 371 L 385 353 L 385 351 Z M 560 351 L 544 365 L 540 370 L 546 369 L 556 363 L 560 354 L 560 351 Z M 586 356 L 575 376 L 601 367 L 586 356 Z M 386 357 L 366 372 L 364 376 L 377 387 L 385 390 L 389 388 L 384 382 L 386 377 L 393 379 L 393 380 L 391 382 L 397 384 L 387 360 L 386 357 Z M 347 360 Q 329 374 318 396 L 318 398 L 320 399 L 328 389 L 350 368 L 347 360 Z M 415 360 Q 414 369 420 374 L 425 373 L 415 360 Z M 572 366 L 560 376 L 566 378 L 572 368 L 572 366 Z M 354 374 L 344 383 L 328 400 L 329 401 L 355 376 L 354 374 Z M 634 374 L 627 381 L 627 383 L 637 391 L 645 386 L 646 385 L 634 374 Z M 356 381 L 352 384 L 328 409 Q 335 415 347 417 L 351 416 L 344 404 L 346 396 L 366 401 L 357 385 Q 358 380 356 381 Z M 624 384 L 612 395 L 608 400 Q 623 399 633 393 L 624 384 Z M 367 389 L 374 398 L 377 396 L 367 389 Z M 650 390 L 643 397 L 647 401 L 657 397 L 650 390 Z M 640 399 L 631 404 L 629 407 L 642 404 L 643 402 L 640 399 Z M 350 404 L 354 411 L 361 408 L 350 404 Z M 572 406 L 586 416 L 587 416 L 586 414 Q 581 408 572 406 Z M 462 410 L 441 416 L 441 418 L 437 418 L 434 429 L 436 431 L 436 437 L 434 438 L 439 439 L 441 438 L 445 441 Q 454 442 459 438 Q 466 434 468 426 Q 469 418 465 415 L 469 413 L 471 412 L 464 410 L 462 410 Z M 390 411 Q 371 420 358 435 L 325 471 L 322 483 Q 321 507 333 519 L 341 526 L 361 534 L 396 556 L 421 563 L 475 571 L 501 571 L 547 559 Q 572 546 593 528 L 603 516 L 606 514 L 598 525 L 599 526 L 608 519 L 628 496 L 636 479 L 634 471 L 618 448 L 612 441 L 572 414 L 570 414 L 579 444 L 580 458 L 580 460 Q 580 479 574 494 L 550 527 Q 538 541 520 548 L 505 552 L 482 554 L 455 553 L 442 549 L 408 527 Q 397 519 392 507 L 381 477 L 379 464 L 378 461 Q 379 431 390 413 L 390 411 Z M 642 414 L 626 418 L 629 422 L 645 415 L 642 414 Z M 322 415 L 307 434 Q 312 439 323 438 L 326 439 L 338 429 L 323 417 L 322 415 Z M 655 416 L 643 424 Q 651 427 664 426 L 658 418 L 655 416 Z M 528 446 Q 530 451 525 449 L 527 451 L 527 453 L 528 451 L 532 451 L 532 449 L 535 449 L 534 448 L 531 448 L 528 446 Z M 563 450 L 559 458 L 560 460 L 559 462 L 561 461 L 562 462 L 560 463 L 564 464 L 564 463 L 563 460 L 564 458 L 563 450 Z M 433 454 L 431 457 L 430 456 L 428 459 L 428 461 L 427 459 L 426 462 L 431 461 L 434 462 L 432 460 L 432 459 L 434 457 L 433 454 Z M 523 461 L 520 466 L 521 469 L 507 488 L 509 491 L 508 494 L 510 496 Q 515 495 513 499 L 509 502 L 510 505 L 507 505 L 511 509 L 512 513 L 514 515 L 519 507 Q 517 499 521 500 L 524 499 L 526 494 L 525 492 L 527 492 L 523 488 L 523 485 L 525 485 L 524 481 L 523 484 L 521 483 L 520 481 L 521 479 L 522 481 L 524 480 L 525 478 L 524 474 L 527 472 L 525 470 L 523 461 Z M 537 461 L 536 462 L 533 464 L 536 464 L 543 463 L 541 461 L 539 463 L 537 461 Z M 434 463 Q 434 467 429 465 L 429 467 L 426 469 L 429 469 L 432 470 L 433 468 L 435 468 L 434 463 Z M 561 465 L 558 468 L 559 470 L 556 475 Q 552 477 556 479 L 555 478 L 552 484 L 554 485 L 554 486 L 551 486 L 549 490 L 551 489 L 552 490 L 550 490 L 552 492 Q 554 489 556 494 L 564 472 L 564 466 L 562 467 L 562 466 L 561 465 Z M 538 466 L 537 467 L 535 470 L 534 469 L 532 470 L 533 472 L 532 471 L 531 474 Q 535 475 534 472 L 540 474 L 541 472 L 543 468 L 538 466 Z M 529 471 L 528 474 L 526 474 L 528 479 L 528 481 L 530 486 L 530 487 L 531 489 L 534 488 L 533 485 L 534 481 L 532 479 L 533 477 L 532 475 L 529 476 L 530 474 L 529 471 Z M 433 473 L 431 475 L 429 478 L 431 477 L 432 479 L 435 480 L 433 481 L 432 484 L 430 485 L 428 486 L 429 484 L 425 482 L 427 486 L 425 486 L 421 489 L 422 492 L 420 492 Q 417 496 415 492 L 418 488 L 418 486 L 420 486 L 424 483 L 425 480 L 423 479 L 421 481 L 409 489 L 410 492 L 412 493 L 411 495 L 413 495 L 415 495 L 414 494 L 414 493 L 417 496 Q 418 500 415 499 L 413 503 L 414 507 L 417 506 L 418 506 L 417 508 L 419 508 Q 420 511 416 510 L 416 513 Q 413 514 418 516 L 422 514 L 421 513 L 422 510 L 424 511 L 426 516 L 424 520 L 425 522 L 429 524 L 437 510 L 439 514 L 438 519 L 436 520 L 436 521 L 440 523 L 440 525 L 443 523 L 442 521 L 440 522 L 441 519 L 440 516 L 442 516 Q 446 518 445 514 L 448 512 L 449 509 L 448 507 L 451 505 L 451 503 L 453 498 L 451 498 L 454 496 L 452 491 L 447 495 L 448 497 L 448 498 L 447 496 L 446 499 L 445 502 L 447 501 L 448 504 L 444 502 L 442 501 L 441 501 L 440 502 L 440 504 L 437 501 L 435 504 L 435 507 L 433 509 L 429 506 L 430 504 L 429 501 L 434 503 L 433 502 L 435 496 L 437 495 L 438 492 L 438 494 L 440 497 L 443 495 L 443 493 L 445 490 Q 449 488 446 486 L 444 487 L 444 486 L 439 478 L 437 476 L 435 476 L 434 477 L 435 475 L 433 473 Z M 646 477 L 639 494 L 623 514 Q 621 518 620 515 Q 615 517 618 519 Q 591 544 555 561 Q 531 573 500 577 L 445 576 Q 410 571 383 558 L 381 559 L 393 565 L 426 576 Q 447 582 474 583 L 514 583 L 518 582 L 521 578 L 525 579 L 532 579 L 556 571 Q 559 569 555 568 L 559 565 Q 567 567 571 564 L 565 561 L 569 558 L 579 560 L 603 541 L 604 539 L 619 527 L 643 497 L 650 481 L 646 477 Z M 314 486 L 312 492 Q 311 508 319 516 L 318 518 Q 306 509 307 488 L 285 506 L 287 513 L 302 520 L 311 520 L 329 524 L 330 525 L 328 523 L 319 508 L 316 497 L 316 487 L 314 486 Z M 666 486 L 658 499 L 663 500 L 671 487 L 666 486 Z M 549 493 L 549 496 L 545 497 L 546 500 L 544 500 L 544 502 L 544 503 L 543 502 L 541 503 L 543 509 L 541 512 L 539 512 L 537 512 L 535 514 L 535 515 L 537 514 L 539 515 L 541 515 L 544 510 L 550 505 L 549 502 L 553 500 L 555 496 L 554 493 L 552 494 L 549 493 Z M 497 494 L 496 496 L 498 497 L 496 497 L 492 499 Q 491 502 495 501 L 496 505 L 499 504 L 497 503 L 499 501 L 499 498 L 501 498 L 501 496 L 497 494 Z M 475 497 L 474 498 Q 467 497 468 500 L 470 499 L 471 501 L 473 503 Q 468 504 469 501 L 467 503 L 471 504 L 472 509 L 471 511 L 475 512 L 482 507 L 482 509 L 486 508 L 484 507 L 483 505 L 486 504 L 488 504 L 486 500 L 475 497 Z M 463 505 L 464 508 L 462 509 L 464 513 L 461 514 L 459 514 L 461 513 L 460 511 L 457 515 L 455 516 L 455 518 L 454 517 L 453 520 L 455 520 L 453 524 L 453 523 L 451 521 L 451 523 L 449 522 L 451 520 L 453 517 L 452 515 L 455 514 L 455 512 L 452 512 Q 448 511 449 514 L 451 515 L 449 515 L 448 520 L 446 521 L 446 523 L 444 526 L 445 527 L 441 525 L 441 533 L 444 533 L 445 531 L 445 533 L 449 532 L 448 531 L 451 530 L 452 528 L 452 532 L 450 532 L 449 534 L 451 535 L 450 538 L 455 535 L 455 533 L 457 529 L 459 534 L 459 535 L 458 534 L 456 535 L 458 538 L 457 540 L 461 541 L 465 540 L 467 541 L 465 539 L 467 538 L 465 536 L 469 530 Q 470 527 466 528 L 464 526 L 465 523 L 463 521 L 461 525 L 462 528 L 459 530 L 459 529 L 458 528 L 455 528 L 457 525 L 460 523 L 461 524 L 460 522 L 462 519 L 459 517 L 460 520 L 458 520 L 457 519 L 465 514 L 466 511 L 465 507 L 463 505 Z M 663 506 L 659 512 L 668 514 L 669 511 L 663 506 Z M 487 509 L 483 514 L 484 517 L 483 519 L 485 520 L 486 522 L 487 518 L 485 518 L 487 513 L 487 511 L 487 509 Z M 503 509 L 501 512 L 499 513 L 500 517 L 499 517 L 498 519 L 501 518 L 500 523 L 501 525 L 506 521 L 507 520 L 506 520 L 505 519 L 504 516 L 507 518 L 507 516 L 503 515 L 505 514 L 503 512 L 503 509 Z M 281 510 L 278 518 L 285 522 L 288 522 L 287 521 Q 281 518 281 510 Z M 478 511 L 476 514 L 476 516 L 473 521 L 474 523 L 472 526 L 473 528 L 472 528 L 472 529 L 473 532 L 475 531 L 473 534 Q 472 538 475 537 L 476 540 L 477 541 L 484 541 L 485 538 L 485 541 L 488 540 L 490 541 L 493 540 L 497 541 L 498 539 L 497 537 L 500 536 L 501 537 Q 502 532 497 534 L 500 529 L 498 530 L 497 528 L 496 528 L 494 528 L 497 526 L 496 523 L 491 531 L 495 533 L 494 536 L 492 533 L 491 533 L 489 532 L 487 526 Q 488 522 485 523 L 483 523 L 481 521 L 477 519 L 480 518 L 478 516 L 479 514 L 478 511 Z M 467 512 L 467 514 L 467 516 L 466 516 L 463 517 L 466 518 L 468 517 L 469 519 L 473 519 L 472 518 L 473 515 L 468 516 L 469 514 L 467 512 Z M 488 515 L 489 518 L 491 521 L 496 522 L 496 519 L 495 521 L 491 518 Q 492 513 488 515 Z M 532 520 L 527 525 L 519 523 L 517 523 L 515 525 L 518 526 L 520 525 L 520 526 L 517 529 L 517 531 L 513 530 L 516 529 L 515 525 L 513 527 L 514 528 L 511 530 L 512 531 L 509 530 L 507 531 L 505 528 L 503 533 L 505 534 L 503 535 L 505 538 L 504 540 L 518 537 L 531 526 L 533 524 L 534 522 L 532 520 Z M 431 521 Q 428 526 432 528 L 435 527 L 437 525 L 435 523 L 435 521 L 432 523 L 431 521 Z M 653 521 L 639 539 L 643 544 L 660 524 L 653 521 Z M 350 533 Q 360 544 377 550 L 378 550 L 350 533 Z M 448 545 L 457 549 L 460 549 L 448 545 Z M 353 554 L 350 557 L 355 560 L 359 559 L 360 556 L 353 554 Z M 624 554 L 619 559 L 620 563 L 617 561 L 594 574 L 598 584 L 628 559 L 629 558 L 624 554 Z M 602 556 L 594 560 L 593 566 L 606 558 L 602 556 Z M 346 560 L 342 566 L 348 567 L 351 562 L 346 560 Z M 364 561 L 363 562 L 361 564 L 374 570 L 376 567 L 364 561 Z M 356 566 L 351 570 L 370 578 Q 373 579 372 576 L 356 566 Z M 381 569 L 378 573 L 383 576 L 388 574 L 381 569 Z M 351 574 L 367 588 L 369 588 L 370 582 L 351 574 Z M 567 575 L 549 585 L 554 594 L 565 591 L 567 592 L 554 597 L 556 605 L 588 589 L 583 582 L 565 588 Q 560 589 561 587 L 576 579 L 567 575 Z M 393 577 L 392 578 L 390 580 L 401 584 L 402 580 Q 399 576 393 577 Z M 417 584 L 414 588 L 430 592 L 431 587 L 417 584 Z M 381 587 L 376 595 Q 398 613 429 621 L 431 608 L 430 602 L 407 596 L 405 602 Q 406 605 403 604 L 402 609 L 401 593 L 381 587 Z M 544 588 L 539 590 L 543 597 L 548 595 L 544 588 Z M 520 589 L 496 591 L 500 601 L 512 599 L 519 600 L 535 599 L 536 598 L 532 593 Q 528 597 521 596 Q 515 593 521 591 L 520 589 Z M 454 591 L 451 597 L 467 600 L 476 600 L 474 595 L 471 591 L 454 591 Z M 413 592 L 426 598 Q 431 600 430 596 L 413 592 Z M 485 592 L 480 594 L 482 600 L 484 601 L 493 601 L 491 594 L 485 592 Z M 439 604 L 433 622 L 476 630 L 479 630 L 479 610 L 472 607 L 449 605 L 446 613 L 447 620 L 443 620 L 442 618 L 443 606 L 439 604 Z " /><path fill="currentColor" stroke="rgb(0,0,0)" stroke-width="1" opacity="1" d="M 563.5 319 Q 573.7 320.8 579 327.5 L 577.5 327 L 564.5 321 L 563.5 319 Z " /><path fill="currentColor" stroke="rgb(0,0,0)" stroke-width="1" opacity="1" d="M 476.5 500 L 479 505.5 L 477.5 508 L 475 508.5 L 475.5 510 L 473 508.5 L 474 506.5 L 473.5 505 L 477 506 L 475 501.5 L 476.5 500 Z " /><path fill="currentColor" stroke="rgb(0,0,0)" stroke-width="1" opacity="1" d="M 441 503 L 443 504.5 L 443 506.5 L 442.5 509 L 441 508.5 L 442 510.5 L 439 512 L 440 508.5 L 438.5 508 L 437 508.5 L 441 503 Z " /><path fill="currentColor" stroke="rgb(0,0,0)" stroke-width="1" opacity="1" d="M 480.5 528 Q 484.3 526.8 483 530.5 L 483.5 532 L 481 531.5 L 480.5 529 L 479 531.5 L 480.5 536 Q 477.5 536.9 479 532.5 L 479 530.5 L 480.5 528 Z " /><path fill="currentColor" stroke="rgb(0,0,0)" stroke-width="1" opacity="1" d="M 262.5 532 L 268 541.5 L 265 539.5 L 262.5 532 Z " /><path fill="rgb(255,251,255)" stroke="rgb(255,251,255)" stroke-width="1" opacity="0.011764705882352941" d="M 0 0 L 1024 0 L 1024 1024 L 0 1024 L 0 0 Z M 467 145 Q 438 146 415 151 L 370 165 L 339 181 L 297 209 L 275 227 Q 226 269 195 330 L 182 361 L 174 393 Q 169 414 169 441 L 169 443 L 171 497 L 171 499 L 172 506 L 172 508 Q 192 611 249 677 Q 289 722 347 750 Q 377 764 414 773 Q 440 779 471 781 L 486 780 L 488 781 L 549 773 L 551 773 Q 585 767 613 754 Q 649 737 680 713 L 684 720 L 711 745 L 707 752 L 707 757 L 711 761 L 713 769 L 730 789 L 734 791 L 808 869 L 850 910 Q 855 917 866 919 Q 895 920 910 906 L 923 891 L 928 876 L 927 871 L 928 869 L 928 860 L 922 844 L 920 842 L 902 821 L 870 789 L 864 782 L 851 771 L 810 728 L 793 711 L 785 703 L 773 693 L 766 695 Q 762 694 763 697 L 760 698 L 737 674 L 729 667 L 731 662 Q 749 643 763 620 L 780 586 Q 797 548 802 498 L 801 465 L 802 444 L 802 442 L 801 424 L 793 378 L 779 336 Q 754 284 718 244 Q 683 204 635 179 Q 582 155 515 146 L 513 147 L 467 145 Z " /><path fill="rgb(255,251,255)" stroke="rgb(255,251,255)" stroke-width="1" opacity="0.011764705882352941" d="M 476.5 203 Q 535 205 578.5 222 Q 631.9 244.6 671 281.5 L 672.5 283 Q 704.7 318.8 725 366.5 Q 735.4 393.1 741 424.5 Q 744.5 444.5 743 469.5 Q 736.6 524.6 717 566.5 Q 692 621.5 649.5 659 Q 613.6 691.1 562.5 708 Q 519.9 721.9 460.5 719 Q 405.9 713.1 365.5 693 Q 323.2 669.8 293 634.5 Q 262 599.5 245 550.5 L 232 503.5 L 231 485.5 L 229 481.5 L 229 463.5 Q 233.4 395.9 257 347.5 Q 281 299.5 318.5 265 Q 350.7 234.7 395.5 217 L 421.5 208 L 476.5 203 Z M 444 228 Q 370 240 328 284 Q 303 308 286 339 L 274 366 L 273 378 Q 274 382 282 381 L 285 378 L 297 352 L 325 313 Q 352 284 388 264 L 423 248 L 458 238 Q 461 237 460 232 L 458 229 L 444 228 Z M 433 293 Q 427 300 428 315 L 386 331 L 385 325 L 386 322 L 386 320 Q 380 324 382 334 L 360 347 L 361 349 L 381 337 L 383 337 L 383 345 L 355 364 L 351 358 L 353 355 L 355 352 L 351 354 L 348 352 L 345 339 L 343 342 L 346 358 L 337 365 L 316 391 L 312 393 L 311 391 Q 312 386 308 388 L 311 397 L 273 447 L 275 449 L 309 405 Q 312 398 315 404 L 278 461 L 271 478 L 274 479 L 285 460 L 287 459 L 284 464 L 285 465 L 306 436 L 307 439 Q 311 445 321 447 L 313 456 Q 301 457 296 452 L 294 456 Q 299 461 308 461 L 295 479 L 281 492 L 268 507 L 271 522 Q 276 529 287 531 L 320 533 L 322 530 Q 331 529 335 534 L 335 535 L 323 532 L 321 535 L 349 549 Q 353 551 347 554 L 324 543 L 321 544 Q 330 552 342 556 L 339 564 L 316 551 L 310 550 L 308 553 L 340 573 L 341 577 L 339 581 L 340 582 L 344 577 L 367 595 L 366 602 L 347 584 L 345 585 L 348 589 L 362 601 Q 366 603 366 610 L 368 606 L 373 609 L 370 606 L 373 599 Q 396 618 428 626 L 429 632 L 431 627 L 479 634 L 506 632 L 482 630 L 484 621 L 484 608 L 495 608 L 498 622 Q 502 618 500 608 L 516 608 L 539 603 L 540 608 L 540 610 L 545 622 L 547 623 L 548 621 L 544 602 L 550 599 L 551 607 L 551 608 L 592 592 L 596 603 L 595 615 L 596 617 L 599 613 L 600 602 L 602 600 L 598 587 Q 618 576 634 560 L 638 563 Q 644 566 643 577 L 645 570 L 654 578 L 655 578 L 647 567 L 646 561 L 650 563 L 644 550 L 664 525 L 670 527 L 676 535 Q 678 539 680 536 L 681 538 L 684 539 L 685 537 L 679 524 L 669 516 L 672 512 L 676 515 L 678 517 L 674 507 L 666 502 L 673 490 L 675 488 L 693 487 L 694 484 L 691 485 L 683 483 L 691 478 L 712 471 L 719 463 L 718 460 L 717 462 Q 708 471 689 470 L 686 471 L 675 469 L 699 463 L 698 459 L 710 454 Q 716 450 717 441 L 716 440 L 713 444 L 706 450 L 687 456 L 666 455 L 660 453 L 679 448 L 697 439 L 701 434 L 700 430 L 691 435 L 690 433 L 711 418 L 714 409 L 702 416 L 700 417 L 702 411 L 702 409 L 701 407 L 696 415 Q 686 424 669 425 L 659 412 L 666 408 L 670 414 L 673 415 L 674 416 L 674 412 L 670 403 L 675 402 L 676 398 L 689 382 L 689 377 L 687 376 L 685 377 L 682 381 L 669 391 L 663 388 L 658 384 Q 663 381 662 378 L 664 379 L 670 371 L 670 365 L 668 371 L 656 381 L 638 367 L 642 361 L 644 347 L 647 340 L 645 338 L 644 328 L 643 328 L 644 331 L 643 338 L 630 355 L 626 355 L 632 347 L 635 343 L 624 353 L 595 336 L 600 317 L 599 312 L 596 314 L 596 316 L 591 332 L 588 333 L 593 323 Q 594 318 592 319 L 583 331 L 545 321 L 546 317 Q 548 305 544 300 L 542 307 Q 543 311 539 309 L 538 320 L 516 318 L 516 295 L 515 293 L 510 295 L 511 297 L 508 317 L 497 316 L 494 317 L 492 317 L 486 301 L 484 299 L 486 313 Q 488 319 481 316 L 481 298 L 479 306 L 479 308 L 478 312 L 479 314 L 478 316 L 477 317 L 450 319 L 434 323 L 433 318 Q 442 312 457 312 L 457 311 L 433 314 L 432 309 L 433 297 L 433 293 Z M 564 319 L 565 321 L 577 327 L 578 327 L 564 319 Z " /><path fill="rgb(255,251,255)" stroke="rgb(255,251,255)" stroke-width="1" opacity="0.011764705882352941" d="M 741.5 309 L 752 325.5 L 750 326 L 741.5 309 Z " /><path fill="rgb(255,251,255)" stroke="rgb(255,251,255)" stroke-width="1" opacity="0.011764705882352941" d="M 427.5 318 Q 430.3 317.4 429 323.5 Q 407.1 330.1 389.5 341 L 387 334.5 Q 405 324 427.5 318 Z " /><path fill="rgb(255,251,255)" stroke="rgb(255,251,255)" stroke-width="1" opacity="0.011764705882352941" d="M 544 326 L 577.5 334 L 580 336.5 L 577.5 337 L 544 328 L 544 326 Z " /><path fill="rgb(255,251,255)" stroke="rgb(255,251,255)" stroke-width="1" opacity="0.011764705882352941" d="M 482.5 327 L 486 328.5 L 484 351 L 482 350.5 L 482 329.5 L 482.5 327 Z " /><path fill="rgb(255,251,255)" stroke="rgb(255,251,255)" stroke-width="1" opacity="0.011764705882352941" d="M 492.5 327 L 505 328 Q 501.6 349.4 490.5 364 Q 485.9 365.4 488 359.5 L 491 347.5 L 491 328.5 L 492.5 327 Z " /><path fill="rgb(255,251,255)" stroke="rgb(255,251,255)" stroke-width="1" opacity="0.011764705882352941" d="M 471.5 328 L 475 328.5 L 475 338.5 L 468 360.5 L 464.5 365 L 455.5 366 L 452 363.5 L 440 346.5 L 436 334 L 471.5 328 Z " /><path fill="rgb(255,251,255)" stroke="rgb(255,251,255)" stroke-width="1" opacity="0.011764705882352941" d="M 516.5 329 L 535 333.5 Q 528.6 353.6 513.5 365 L 510 363.5 L 514 349.5 Q 512.9 336.9 516.5 329 Z " /><path fill="rgb(255,251,255)" stroke="rgb(255,251,255)" stroke-width="1" opacity="0.011764705882352941" d="M 542.5 335 L 560 342.5 Q 546.8 357.3 528.5 367 L 530 364.5 L 542.5 335 Z " /><path fill="rgb(255,251,255)" stroke="rgb(255,251,255)" stroke-width="1" opacity="0.011764705882352941" d="M 429.5 336 L 431 338.5 L 439 368.5 L 434.5 370 L 427 363.5 L 414.5 347 Q 410.8 347.8 413 342 L 429.5 336 Z " /><path fill="rgb(255,251,255)" stroke="rgb(255,251,255)" stroke-width="1" opacity="0.011764705882352941" d="M 401.5 342 L 403 342.5 L 391 349 L 392.5 347 L 401.5 342 Z " /><path fill="rgb(255,251,255)" stroke="rgb(255,251,255)" stroke-width="1" opacity="0.011764705882352941" d="M 406.5 345 L 409 345.5 L 409 356.5 L 408 364.5 L 410 373.5 L 408.5 373 L 402 367.5 L 394 352.5 L 406.5 345 Z " /><path fill="rgb(255,251,255)" stroke="rgb(255,251,255)" stroke-width="1" opacity="0.011764705882352941" d="M 589 348 L 614 360.5 L 605.5 365 L 588 352.5 L 589 348 Z " /><path fill="rgb(255,251,255)" stroke="rgb(255,251,255)" stroke-width="1" opacity="0.011764705882352941" d="M 384.5 351 L 385 352.5 L 359 371 L 362.5 366 L 384.5 351 Z " /><path fill="rgb(255,251,255)" stroke="rgb(255,251,255)" stroke-width="1" opacity="0.011764705882352941" d="M 559.5 351 L 560 353.5 L 556 363 L 545.5 369 L 539.5 370 L 543.5 365 L 559.5 351 Z " /><path fill="rgb(255,251,255)" stroke="rgb(255,251,255)" stroke-width="1" opacity="0.011764705882352941" d="M 585.5 356 L 601 366.5 L 575 376 L 585.5 356 Z " /><path fill="rgb(255,251,255)" stroke="rgb(255,251,255)" stroke-width="1" opacity="0.011764705882352941" d="M 385.5 357 L 387 359.5 L 397 384 L 391 381.5 L 392.5 380 L 392.5 379 L 385.5 377 L 384 381.5 L 389 387.5 L 384.5 390 L 376.5 387 L 364 375.5 L 365.5 372 L 385.5 357 Z " /><path fill="rgb(255,251,255)" stroke="rgb(255,251,255)" stroke-width="1" opacity="0.011764705882352941" d="M 346.5 360 L 350 367.5 L 328 388.5 L 319.5 399 L 318 397.5 L 318 395.5 Q 328.6 374.1 346.5 360 Z " /><path fill="rgb(255,251,255)" stroke="rgb(255,251,255)" stroke-width="1" opacity="0.011764705882352941" d="M 414.5 360 L 425 372.5 L 419.5 374 Q 413.9 369.3 414.5 360 Z " /><path fill="rgb(255,251,255)" stroke="rgb(255,251,255)" stroke-width="1" opacity="0.011764705882352941" d="M 571.5 366 L 572 367.5 L 565.5 378 L 560 375.5 L 571.5 366 Z " /><path fill="rgb(255,251,255)" stroke="rgb(255,251,255)" stroke-width="1" opacity="0.011764705882352941" d="M 353.5 374 L 355 375.5 L 325 404.5 L 324.5 406 L 324 404.5 L 343.5 383 L 353.5 374 Z " /><path fill="rgb(255,251,255)" stroke="rgb(255,251,255)" stroke-width="1" opacity="0.011764705882352941" d="M 633.5 374 L 646 384.5 L 644.5 386 L 636.5 391 L 627 383 L 627 380.5 L 633.5 374 Z " /><path fill="rgb(255,251,255)" stroke="rgb(255,251,255)" stroke-width="1" opacity="0.011764705882352941" d="M 355.5 381 Q 358.5 380.1 357 384.5 L 366 401 L 345.5 396 L 344 403.5 L 351 415.5 L 346.5 417 Q 335.1 414.9 328 408.5 L 351.5 384 L 355.5 381 Z " /><path fill="rgb(255,251,255)" stroke="rgb(255,251,255)" stroke-width="1" opacity="0.011764705882352941" d="M 594.5 381 L 593.5 383 L 586.5 387 L 584 386 Q 582.6 382.3 588.5 384 L 594.5 381 Z " /><path fill="rgb(255,251,255)" stroke="rgb(255,251,255)" stroke-width="1" opacity="0.011764705882352941" d="M 623.5 384 L 633 392.5 Q 623.3 399.5 608 400 L 611.5 395 L 623.5 384 Z " /><path fill="rgb(255,251,255)" stroke="rgb(255,251,255)" stroke-width="1" opacity="0.011764705882352941" d="M 750.5 387 L 755 397.5 Q 755.2 414.3 760 426.5 L 760 430.5 L 758 432 L 750.5 387 Z " /><path fill="rgb(255,251,255)" stroke="rgb(255,251,255)" stroke-width="1" opacity="0.011764705882352941" d="M 366.5 389 L 377 395.5 L 373.5 398 L 366.5 389 Z " /><path fill="rgb(255,251,255)" stroke="rgb(255,251,255)" stroke-width="1" opacity="0.011764705882352941" d="M 649.5 390 L 657 396.5 L 646.5 401 L 643 396.5 L 649.5 390 Z " /><path fill="rgb(255,251,255)" stroke="rgb(255,251,255)" stroke-width="1" opacity="0.011764705882352941" d="M 639.5 399 L 643 401.5 L 641.5 404 L 628.5 407 L 630.5 404 L 639.5 399 Z " /><path fill="rgb(255,251,255)" stroke="rgb(255,251,255)" stroke-width="1" opacity="0.011764705882352941" d="M 350 404 L 361 407.5 L 354 411 L 350 404 Z " /><path fill="rgb(255,251,255)" stroke="rgb(255,251,255)" stroke-width="1" opacity="0.011764705882352941" d="M 571.5 406 Q 580.9 407.6 586 413.5 L 587 415.5 L 585.5 416 L 571.5 406 Z " /><path fill="rgb(255,251,255)" stroke="rgb(255,251,255)" stroke-width="1" opacity="0.011764705882352941" d="M 390.5 410 L 390 411.5 L 380 439.5 L 378 460.5 L 379 463.5 L 381 476.5 L 392 506.5 Q 397.1 519.4 407.5 527 L 441.5 549 L 454.5 553 L 481.5 554 L 504.5 552 L 519.5 548 Q 538.3 540.8 550 526.5 L 574 493.5 Q 579.7 479.2 580 459.5 L 580 457.5 L 579 443.5 L 570 413.5 L 571.5 414 L 611.5 441 L 618 447.5 L 634 470.5 L 636 478.5 L 628 495.5 L 607.5 519 L 598.5 526 L 598 524.5 L 603 517.5 L 599 520.5 L 592.5 528 Q 572.1 546.1 546.5 559 L 500.5 571 L 474.5 571 L 420.5 563 L 395.5 556 L 360.5 534 L 340.5 526 L 333 518.5 Q 321 507 322 482.5 L 325 470.5 L 357.5 435 Q 371.6 420.1 390.5 410 Z " /><path fill="rgb(255,251,255)" stroke="rgb(255,251,255)" stroke-width="1" opacity="0.011764705882352941" d="M 461.5 410 L 463.5 410 L 471 411.5 L 468.5 413 L 465 415 Q 468.8 417.5 468 425.5 Q 465.6 434.1 458.5 438 Q 454.3 442.3 444.5 441 L 440.5 438 L 438.5 439 L 434 437.5 L 436 437 L 436 430.5 L 434 428.5 L 437 418 L 441 417.5 L 440.5 416 L 461.5 410 Z " /><path fill="rgb(255,251,255)" stroke="rgb(255,251,255)" stroke-width="1" opacity="0.011764705882352941" d="M 645.5 413 L 644.5 415 L 628.5 422 L 626 418 L 645.5 413 Z " /><path fill="rgb(255,251,255)" stroke="rgb(255,251,255)" stroke-width="1" opacity="0.011764705882352941" d="M 321.5 415 L 323 416.5 L 338 428.5 L 325.5 439 L 322.5 438 Q 311.5 439 307 433.5 L 321.5 415 Z " /><path fill="rgb(255,251,255)" stroke="rgb(255,251,255)" stroke-width="1" opacity="0.011764705882352941" d="M 654.5 416 L 658 417.5 L 664 426 Q 651.2 427.5 643 423.5 L 654.5 416 Z " /><path fill="rgb(255,251,255)" stroke="rgb(255,251,255)" stroke-width="1" opacity="0.011764705882352941" d="M 528 446 L 531 447.5 L 533.5 448 L 535 448.5 L 532 449 L 532 451 L 528 451 L 526.5 453 L 526.5 455 L 525 453.5 L 526.5 451 L 525 449 Q 529.5 450.5 528 446 Z " /><path fill="rgb(255,251,255)" stroke="rgb(255,251,255)" stroke-width="1" opacity="0.011764705882352941" d="M 562.5 450 L 564 457.5 L 563 459.5 L 564 462.5 L 563.5 464 L 559 461.5 L 560 459.5 L 559 457.5 L 562.5 450 Z " /><path fill="rgb(255,251,255)" stroke="rgb(255,251,255)" stroke-width="1" opacity="0.011764705882352941" d="M 426.5 454 L 430.5 457 L 432.5 454 L 434 457 L 432 458.5 L 431.5 460 L 434 461.5 L 430.5 461 L 426 462 L 426.5 459 L 427.5 461 L 428 458.5 L 429 456.5 L 426 456 L 426.5 454 Z " /><path fill="rgb(255,251,255)" stroke="rgb(255,251,255)" stroke-width="1" opacity="0.011764705882352941" d="M 523.5 460 L 525 460.5 L 523 461 L 525 470 L 528.5 468 L 527 470.5 L 527.5 472 L 529 471.5 L 530.5 474 L 531.5 471 L 533 471.5 L 532 469.5 L 533.5 469 L 535 469.5 L 536.5 467 L 538.5 466 L 543 468 L 541 471.5 L 540 473.5 L 540.5 475 L 534 472 Q 535.3 475 531.5 474 L 531.5 475 L 533 476.5 L 531.5 479 L 534 480.5 L 533 484.5 L 534 484.5 L 534.5 483 L 535 484.5 L 532.5 489 L 529.5 487 L 526.5 486 L 523 485 L 523 488 L 527 491.5 L 525 491.5 L 526 493.5 L 523 500.5 L 523.5 502 L 519 500 Q 520 510.8 513.5 515 L 509.5 516 L 507 512.5 L 509 507 L 507 505.5 L 504 502.5 L 506.5 498 L 509 499 L 509.5 501 L 513 499 Q 514.8 494.5 509.5 496 L 508 493.5 L 509 490.5 L 507.5 488 L 506.5 490 L 506 488.5 L 521 468.5 L 520 465.5 L 523.5 460 Z M 526 472 L 524 474 L 526 479 L 526 480 L 525 478 L 524 480 L 521 482 L 523 484 L 524 481 L 526 485 L 528 484 L 529 486 L 530 486 Q 531 482 528 483 L 529 480 L 526 474 L 528 474 L 526 472 Z " /><path fill="rgb(255,251,255)" stroke="rgb(255,251,255)" stroke-width="1" opacity="0.011764705882352941" d="M 536.5 461 L 539 462.5 L 540.5 461 L 543 462.5 L 535.5 464 L 533 463.5 L 535.5 462 L 536.5 461 Z " /><path fill="rgb(255,251,255)" stroke="rgb(255,251,255)" stroke-width="1" opacity="0.011764705882352941" d="M 433.5 463 L 435 467.5 L 433 468 L 431.5 470 L 428.5 469 L 426 469.5 Q 429.8 471.3 426.5 473 L 424 471.5 L 423.5 474 L 421 473.5 L 422.5 472 L 429 467 L 429 465 Q 433.8 466.7 433.5 463 Z " /><path fill="rgb(255,251,255)" stroke="rgb(255,251,255)" stroke-width="1" opacity="0.011764705882352941" d="M 560.5 465 L 562 465.5 L 561.5 467 L 563.5 466 L 564 471.5 L 553 500 L 549 501.5 L 550 504.5 L 545 508.5 L 545.5 510 L 544 509.5 L 539.5 516 L 536.5 514 L 534.5 515 L 535 513.5 L 536.5 512 L 538.5 512 L 541 512 L 543 508.5 L 541 502.5 L 546 499.5 L 545 497 L 549 496 L 550.5 493 L 552.5 493 L 554 492.5 L 551.5 492 L 550 490.5 L 549 488 L 553.5 486 L 553.5 485 L 552 483.5 L 555 477.5 L 556 474.5 L 559 469.5 L 558 467.5 L 560.5 465 Z " /><path fill="rgb(255,251,255)" stroke="rgb(255,251,255)" stroke-width="1" opacity="0.011764705882352941" d="M 432.5 473 L 434.5 474 L 436 473.5 L 436.5 476 L 439 477.5 L 444.5 486 L 447 487.5 L 444 491.5 Q 446.8 493.2 442.5 495 L 439.5 497 L 438 493.5 L 437.5 492 L 437 494.5 L 434.5 496 L 434.5 497 L 439 498 L 437.5 500 L 436 499.5 L 438.5 503 L 441 502 L 441.5 500 L 442 502 L 448 504 L 446.5 501 L 445 501.5 L 446 498.5 L 447 495.5 L 450.5 491 L 453 492.5 L 453.5 495 L 454.5 493 L 455 494.5 L 452 496.5 L 453 500 Q 450 498.8 451 502.5 L 451.5 506 L 449.5 505 L 449 507.5 L 451 511 L 449 509.5 L 447 510.5 L 447.5 512 L 445 513.5 Q 446.3 517.7 441.5 516 L 441 518.5 L 443 523 L 441 525 L 443.5 526 L 444 524 L 446 522.5 L 445.5 521 L 448 519.5 L 449 515 L 451 514.5 L 449 514 Q 447.8 511 451.5 512 L 455 510.5 L 456.5 509 L 458 509.5 L 456.5 507 L 453 505 L 453 501 L 455 502.5 L 455.5 505 L 457 503.5 L 457.5 501 L 459 499.5 L 461.5 498 L 462.5 501 L 464 501.5 L 462.5 502 L 459.5 503 L 458 503.5 L 459 506.5 L 459.5 509 L 460.5 507 L 461 509 L 464 507.5 L 462 507.5 L 463 505 L 465 506.5 L 467.5 512 L 469 513.5 L 468 516 L 473 515 L 474.5 518 L 476 515.5 L 476 513.5 L 474.5 512 L 471 511 L 472 508.5 L 471 504 L 467 502.5 L 468.5 501 L 468 499.5 Q 467.4 496.8 473.5 498 L 475.5 498 L 485.5 499 L 487 498.5 L 486 500.5 L 488 503.5 L 485.5 504 L 483 504.5 L 485.5 508 L 482 509 L 481.5 507 L 477 510.5 L 478.5 511 L 481 509.5 L 478 515.5 L 482 517.5 L 481.5 519 L 480.5 517 L 477 518.5 L 481 520.5 L 482.5 523 L 482 521.5 L 484 516.5 L 483 513.5 L 486.5 509 L 487 510.5 L 487 512.5 L 486 516.5 L 487 519.5 L 485.5 522 L 485 520 L 483 521.5 L 487 523 L 486 526.5 Q 488.5 531 491 527.5 Q 486 529.5 489 531.5 L 490.5 533 L 491 530.5 L 495.5 523 L 497 525.5 L 497 527.5 L 497.5 530 L 500 528.5 L 499 530.5 L 500.5 533 Q 498.8 529.2 497 532.5 Q 496.2 535.9 501 534 L 503 538.5 L 498.5 540 L 497 539.5 L 494.5 541 L 492.5 540 L 489.5 541 L 487.5 540 L 485 541 L 484.5 538 L 484 541 L 476.5 541 L 476 539.5 L 474 539.5 L 475 537 Q 471.7 538.3 473 533.5 L 473 531.5 L 471.5 529 L 471.5 528 L 473 527.5 L 472 525.5 L 474 522.5 L 473 520.5 L 474 518.5 L 472.5 519 L 469 519 L 467.5 517 L 465 518 L 465.5 520 L 467 519.5 L 468.5 521 L 470.5 520 L 471.5 522 L 469.5 521 L 467.5 522 L 465 521 L 464 523.5 L 464 525.5 L 465.5 528 L 469 528 L 471 532.5 L 470 532.5 L 468.5 530 L 467 533 Q 470 531.8 469 535.5 L 467 534.5 L 466.5 533 L 465 536 L 467 538 L 465 538.5 L 466.5 541 L 464.5 540 L 460.5 541 L 457 539.5 L 458 537.5 L 455.5 534 L 455 536 L 450 538 L 451 534.5 L 449 534 L 447.5 532 L 444.5 534 L 441 533 L 441 525.5 L 439.5 525 L 439.5 523 L 437 523 L 435 526.5 L 431.5 528 L 429.5 521 L 429 524 L 424.5 522 L 424 519.5 L 425 516.5 L 425 514.5 L 423.5 511 L 421.5 510 L 421 512.5 L 423 512.5 L 422.5 517 L 421.5 514 L 417.5 516 Q 413.3 514.3 416 512.5 L 416 510 Q 420.1 511.3 419 508 L 414 507 L 413 502.5 L 415 499 Q 418.3 500.3 417 495.5 L 412.5 495 L 411 494.5 L 411.5 493 L 410 491.5 L 409 488.5 L 421 480.5 L 422.5 479 L 425 480 Q 423.8 483 427.5 482 L 429 481.5 L 429 483.5 L 432 485 L 433 482.5 L 432.5 481 L 434 480.5 L 431.5 480 L 430 478.5 L 429 478.5 L 427.5 480 L 426 480.5 L 425 476 L 429 478 L 428 474.5 L 429.5 475 L 432.5 473 Z M 425 482 L 423 483 L 418 489 Q 412 491 418 494 L 422 492 L 421 491 L 425 487 L 426 485 L 425 482 Z M 434 497 L 433 502 L 434 503 Q 430 504 431 501 L 429 503 L 429 505 L 431 509 L 435 507 L 436 503 L 434 497 Z M 478 503 L 477 506 L 474 505 L 474 507 L 473 509 L 476 510 L 475 509 L 478 508 L 479 506 L 478 503 Z M 437 510 L 432 519 Q 434 523 436 520 Q 439 521 438 518 L 436 519 L 435 518 L 436 515 L 437 517 L 439 518 L 437 510 Z M 466 511 L 465 514 L 459 517 L 462 519 L 460 522 L 461 524 L 463 523 L 465 521 L 465 520 L 463 518 L 465 518 L 464 517 L 465 515 L 467 516 L 467 514 L 466 511 Z " /><path fill="rgb(255,251,255)" stroke="rgb(255,251,255)" stroke-width="1" opacity="0.011764705882352941" d="M 645.5 477 L 650 480.5 L 643 496.5 L 619 527 L 604 538.5 L 602.5 541 L 578.5 560 L 568.5 558 L 565 560.5 L 571 563.5 Q 567.4 566.9 558.5 565 L 555 567.5 Q 558.7 569.3 555.5 571 L 531.5 579 L 524.5 579 L 520.5 578 L 518 582 L 513.5 583 L 473.5 583 Q 447.1 581.9 425.5 576 L 392.5 565 L 381 558.5 L 382.5 558 Q 409.8 570.8 444.5 576 L 499.5 577 Q 531.1 573.1 554.5 561 Q 590.8 544.3 618 518.5 Q 615.3 516.8 619.5 515 Q 621.3 517.8 623 513.5 L 639 493.5 L 645.5 477 Z " /><path fill="rgb(255,251,255)" stroke="rgb(255,251,255)" stroke-width="1" opacity="0.011764705882352941" d="M 314 486 L 316 486.5 L 316 496.5 L 319 507.5 L 328 523 L 330 524.5 L 328.5 524 L 310.5 520 L 301.5 520 L 287 512.5 L 285 505.5 L 306.5 488 Q 305.7 509.3 317.5 518 L 319 515.5 Q 311.1 507.9 312 491.5 L 314 486 Z " /><path fill="rgb(255,251,255)" stroke="rgb(255,251,255)" stroke-width="1" opacity="0.011764705882352941" d="M 665.5 486 L 671 487 L 663 500 L 658 498.5 L 665.5 486 Z " /><path fill="rgb(255,251,255)" stroke="rgb(255,251,255)" stroke-width="1" opacity="0.011764705882352941" d="M 496.5 494 L 501 496 L 500.5 498 L 499 497.5 L 499 501 L 497 503 L 499 503.5 L 498.5 505 L 501.5 504 L 502 506.5 L 503 512 L 505 514 L 503 514.5 L 507 516 L 506.5 518 L 504.5 517 L 505 518.5 L 505.5 520 L 507 519.5 L 505.5 521 L 501 524.5 L 500 522.5 L 501 518 L 497.5 519 L 498.5 517 L 500 516.5 L 499 513 L 501 511 L 499 510.5 L 500 508.5 L 498 505 L 495.5 506 L 494.5 504 L 496 504.5 L 494.5 501 Q 490.8 502 492 499 L 495.5 497 L 498 496.5 L 496 496 L 496.5 494 Z " /><path fill="rgb(255,251,255)" stroke="rgb(255,251,255)" stroke-width="1" opacity="0.011764705882352941" d="M 662.5 506 L 669 510.5 L 668 514 L 659 512 L 662.5 506 Z " /><path fill="rgb(255,251,255)" stroke="rgb(255,251,255)" stroke-width="1" opacity="0.011764705882352941" d="M 495.5 508 L 497 508.5 L 495 509 L 496.5 511 L 496.5 512 L 495 512.5 L 495.5 514 L 491.5 511 L 489 510.5 L 492.5 509 L 495.5 508 Z " /><path fill="rgb(255,251,255)" stroke="rgb(255,251,255)" stroke-width="1" opacity="0.011764705882352941" d="M 280.5 510 Q 280.8 518.2 286.5 521 L 288 521.5 L 284.5 522 L 278 517.5 L 280.5 510 Z " /><path fill="rgb(255,251,255)" stroke="rgb(255,251,255)" stroke-width="1" opacity="0.011764705882352941" d="M 491.5 513 L 492 515 L 495.5 516 L 497 515.5 L 495 518.5 L 496 522 L 491 521 L 489 517.5 L 488 515 Q 491.8 516.3 491.5 513 Z " /><path fill="rgb(255,251,255)" stroke="rgb(255,251,255)" stroke-width="1" opacity="0.011764705882352941" d="M 531.5 520 L 534 521.5 L 533 524 L 531 525.5 L 517.5 537 L 504 540 L 505 537.5 L 503 534.5 L 505 533.5 L 503 533 L 505 527.5 L 503 527 L 504.5 525 L 508.5 523 Q 510.8 526.8 513 523.5 L 509.5 528 L 505 528.5 L 506.5 531 L 509 529.5 L 511.5 531 L 511 529.5 L 513.5 528 L 513 526.5 L 516.5 523 L 518.5 523 L 526.5 525 L 531.5 520 Z " /><path fill="rgb(255,251,255)" stroke="rgb(255,251,255)" stroke-width="1" opacity="0.011764705882352941" d="M 652.5 521 L 660 523.5 L 642.5 544 L 639 538.5 L 652.5 521 Z " /><path fill="rgb(255,251,255)" stroke="rgb(255,251,255)" stroke-width="1" opacity="0.011764705882352941" d="M 343.5 529 L 345.5 530 L 347.5 529 L 347 530.5 L 348.5 532 L 378 549.5 L 376.5 550 Q 356.7 541.9 343.5 529 Z " /><path fill="rgb(255,251,255)" stroke="rgb(255,251,255)" stroke-width="1" opacity="0.011764705882352941" d="M 447.5 545 L 460 548.5 L 456.5 549 L 447.5 545 Z " /><path fill="rgb(255,251,255)" stroke="rgb(255,251,255)" stroke-width="1" opacity="0.011764705882352941" d="M 225.5 550 Q 237.6 587.9 259 616.5 L 258 618.5 L 258.5 620 L 250 609.5 L 232 574.5 L 225.5 550 Z " /><path fill="rgb(255,251,255)" stroke="rgb(255,251,255)" stroke-width="1" opacity="0.011764705882352941" d="M 352.5 554 L 360 556 L 358.5 559 L 354.5 560 L 350 556.5 L 352.5 554 Z " /><path fill="rgb(255,251,255)" stroke="rgb(255,251,255)" stroke-width="1" opacity="0.011764705882352941" d="M 623.5 554 L 629 557.5 L 627.5 559 L 597.5 584 L 594 574 L 616.5 561 L 620 563 L 619 558.5 L 623.5 554 Z " /><path fill="rgb(255,251,255)" stroke="rgb(255,251,255)" stroke-width="1" opacity="0.011764705882352941" d="M 601.5 556 L 606 557.5 L 593 566 L 594 560 L 601.5 556 Z " /><path fill="rgb(255,251,255)" stroke="rgb(255,251,255)" stroke-width="1" opacity="0.011764705882352941" d="M 610.5 559 L 612 561 L 601.5 567 L 602.5 565 L 610.5 559 Z " /><path fill="rgb(255,251,255)" stroke="rgb(255,251,255)" stroke-width="1" opacity="0.011764705882352941" d="M 345.5 560 L 351 562 L 347.5 567 L 342 566 L 345.5 560 Z " /><path fill="rgb(255,251,255)" stroke="rgb(255,251,255)" stroke-width="1" opacity="0.011764705882352941" d="M 363.5 561 L 376 566.5 L 373.5 570 L 361 564 L 362.5 562 L 363.5 561 Z " /><path fill="rgb(255,251,255)" stroke="rgb(255,251,255)" stroke-width="1" opacity="0.011764705882352941" d="M 355.5 566 L 372 575.5 Q 373.3 579.3 369.5 578 L 351 569.5 L 355.5 566 Z " /><path fill="rgb(255,251,255)" stroke="rgb(255,251,255)" stroke-width="1" opacity="0.011764705882352941" d="M 380.5 569 L 388 573.5 L 382.5 576 L 378 572.5 L 380.5 569 Z " /><path fill="rgb(255,251,255)" stroke="rgb(255,251,255)" stroke-width="1" opacity="0.011764705882352941" d="M 349.5 573 L 370 582 L 369 588 L 366.5 588 L 349.5 573 Z " /><path fill="rgb(255,251,255)" stroke="rgb(255,251,255)" stroke-width="1" opacity="0.011764705882352941" d="M 566.5 575 L 576 578.5 L 561 586.5 Q 560.1 589.5 564.5 588 L 582.5 582 L 588 588.5 L 555.5 605 L 554 597 L 567 591.5 L 564.5 591 L 553.5 594 L 549 585 L 566.5 575 Z " /><path fill="rgb(255,251,255)" stroke="rgb(255,251,255)" stroke-width="1" opacity="0.011764705882352941" d="M 392.5 577 Q 399.4 576.1 402 579.5 L 401 584 L 390 580 L 391.5 578 L 392.5 577 Z " /><path fill="rgb(255,251,255)" stroke="rgb(255,251,255)" stroke-width="1" opacity="0.011764705882352941" d="M 416.5 584 L 431 587 L 429.5 592 L 414 588 L 416.5 584 Z " /><path fill="rgb(255,251,255)" stroke="rgb(255,251,255)" stroke-width="1" opacity="0.011764705882352941" d="M 380.5 587 L 401 593 L 401.5 609 L 403 604 Q 406 605.3 405 601.5 L 407 596 L 430 602 L 431 607.5 L 429 621 Q 397.8 612.9 376 594.5 L 380.5 587 Z " /><path fill="rgb(255,251,255)" stroke="rgb(255,251,255)" stroke-width="1" opacity="0.011764705882352941" d="M 543.5 588 L 548 594.5 L 542.5 597 L 539 590 L 543.5 588 Z " /><path fill="rgb(255,251,255)" stroke="rgb(255,251,255)" stroke-width="1" opacity="0.011764705882352941" d="M 519.5 589 L 521 590.5 Q 515.2 593.3 520.5 596 Q 528.3 596.8 531.5 593 L 536 597.5 L 534.5 599 L 518.5 600 L 511.5 599 L 499.5 601 L 496 591 L 519.5 589 Z " /><path fill="rgb(255,251,255)" stroke="rgb(255,251,255)" stroke-width="1" opacity="0.011764705882352941" d="M 453.5 591 L 470.5 591 L 474 594.5 L 476 599.5 L 466.5 600 L 451 597 L 453.5 591 Z " /><path fill="rgb(255,251,255)" stroke="rgb(255,251,255)" stroke-width="1" opacity="0.011764705882352941" d="M 412.5 592 L 430 596 Q 431.4 599.7 425.5 598 L 412.5 592 Z " /><path fill="rgb(255,251,255)" stroke="rgb(255,251,255)" stroke-width="1" opacity="0.011764705882352941" d="M 484.5 592 L 491 593.5 L 493 601 L 483.5 601 L 482 599.5 L 480 593.5 L 484.5 592 Z " /><path fill="rgb(255,251,255)" stroke="rgb(255,251,255)" stroke-width="1" opacity="0.011764705882352941" d="M 438.5 604 L 443 605.5 L 442 617.5 L 443 620 L 447 619.5 L 446 612.5 L 448.5 605 L 471.5 607 L 479 609.5 L 479 629.5 L 475.5 630 L 433 621.5 L 438.5 604 Z " /><path fill="rgb(255,251,255)" stroke="rgb(255,251,255)" stroke-width="1" opacity="0.011764705882352941" d="M 262.5 660 L 270 665.5 L 271.5 667 L 274.5 671 L 270 669 L 265.5 663 L 262.5 660 Z " /></svg>