<svg xmlns="http://www.w3.org/2000/svg" viewBox="0 0 1024 1024"><path fill="#0e0e0a" stroke="#0e0e0a" d="M516.5 386h109l1.5 1.5q3.4 7.6 2 20l-3.5 6.5-3.5-.5 1-22-81.5-.5-136 5h-43l-23-1-1.5-1.5 1.5-2.5h65z"/><path fill="#0e0e0a" stroke="#0e0e0a" d="m331.5 393 1.5.5 1.5 23.5 164-8h121l1.5 3.5-4.5 2.5h-60l-26-1-196 7-4.5-2.5 1-3-1-21zm339 16q12.3 6.2 20.5 16.5l1 4-2 1 1 2q-30.9 40.1-67.5 74.5l-35 28q-15.2 10.3-40 11l-21-3-44-13-27-5-31 23-46 40-1.5-3.5q33.2-35.3 73.5-63.5l32-18 17-1 30 11 20 1 13.5-4.5-20.5-6.5-38-17q-9.5-4-24-3-22.8 4.7-37 18L364 570.5l12 14 1 5-3.5.5q-11.6-6.9-15.5-21.5l1.5-.5 2 1 24-26 18.5-15.5-.5-1.5q-29.5 4.5-64 4l-6.5-2.5-1-26 9.5-2.5 103-5 25-14 19-3 26 6 48 21 11 1 19-13 33.5-33.5zm1.5 6-43 49-43 41q-15 11-36 15l-19-1-31-11q-24 0-35 12l51 14 31 6q17 1 29-5 19-9 34-23l78-82zm-247 85q-42 4-88 5l2 21 11-2 62-3 24-20zm150.5 100h54l1.5 1.5 1 24-2.5 4.5-293 8-1.5-2.5 5.5-2.5 37-2 229-5 18-1 1.5-1.5-.5-17.5-106 1-181.5 6.5q-1.5 11.5 2 18l-2.5 1.5q-5.6-5.4-3.5-18.5l2.5-5.5 61-4z"/><path fill="#fefefe" stroke="#fefefe" d="M.5 0 1024 .5l-.5 1023.5L0 1023.5zM556 385l-169 6-23-1-25 1-2 3 2 1 12 1h69l88-4 115 1-1 16 2 6 3-1 2-4v-18l-3-7-15 1zm-224 7-3 5q-1 12 2 20l-1 3 3 1h34l132-6 122-1v-4l-51-2-85 1-150 7v-1l-1-20zm338 17-54 60q-18 22-43 36l-20-5-37-17-22-6q-16-1-25 3l-25 14-111 6-2 3 1 24 6 3q32 1 60-3l5 1-22 19-17 18-7 4 5 10v2l2 4 8 6q12 2 18-3l55-46 14-8h15l50 14 20 2q31-1 51-14 32-21 58-48l34-35 10-17-2-12-8-6h-2l-10-8zm-64 190-189 5-79 4-4 5v16l3 4-2 3 3 3 137-5 132-2 23-2 2-2v-26l-3-3z"/><path fill="#fefefe" stroke="#fefefe" d="m671.5 416 3.5 2.5-9 8-48.5 52.5-14 12 19.5-20.5zm-193 68q17.9-1.9 29 3l35 16 19.5 6.5q-4.9 3.6-14.5 2.5l-34-6-7-4-28-4q-27.9.6-44 13l4-5q16.1-14.9 40-22Zm-47 16 4.5.5-27.5 20.5-70 4-1.5-19.5zm153 106 41.5.5-1 11 1 3-1.5 3.5q-82.5 4.5-170 4l-115 5 .5-1.5-1-18z"/><path fill="#e9d857" stroke="#e9d857" d="m555.5 385 14.5.5-14.5.5zm56 0h14l1.5 1.5-1.5-.5h-14zm-111 1 15.5.5-15.5.5zm-25 1 10.5.5-10.5.5zm-25 1 10.5.5-10.5.5zm-26 1 11.5.5-11.5.5zm-81 1 20.5.5-20.5.5zm44 0 17.5.5-17.5.5zm154 1 81.5.5-81.5.5zm-48 1 13.5.5-13.5.5zm-29 1 11.5.5-11.5.5zm-28 1 10.5.5-10.5.5zm-86 1 11.5.5-11.5.5zm56 0 13.5.5-13.5.5zm-77 1 .5 13.5h-1zm5 6 .5 12.5h-1zm188 6 47.5.5-47.5.5zm-38 1 13.5.5-13.5.5zm185 0-5 6zm-212 1 10.5.5-10.5.5zm73 4 25.5.5-25.5.5zm-46 1 13.5.5-13.5.5zm190 2 12 13 1.5-.5-78.5 82.5q-14.8 13.7-34 23-11.5 5.5-29 5l-31-6-50.5-14.5q11.1-11.9 34.5-11.5l31 11 19 1q21.9-3.6 36-15l37-35-15 17 29.5-27.5 31.5-35.5 6.5-5.5z"/><path fill="#e9d857" stroke="#e9d857" d="m683.5 417 3 1 8.5 5.5 2 12-10 17-34.5 35.5q-25.8 27.2-58 48-19.7 12.8-51 14l-20-2-50-14h-15l-14 8-55 46q-5.8 4.6-18 3l-7.5-6.5-2-4 .5-2.5 11 12 3.5-.5-1-5-12-14q32-32 69-59l3.5-4.5v2q16.2-10.3 42-11l21.5 3.5q-13.4-.9-21.5 3.5l-27 16q-40.3 28.2-73.5 63.5l1.5 3.5 68-57 9-6h6l65 18 26 3q24.5-2.5 40-14 26.9-19.1 48.5-43.5l42-46 7-11-.5-1.5 1.5-.5-1-4zm-301 2 11.5.5-11.5.5zm-26 1 10.5.5-10.5.5zm282 33-9 10zm-13 5-9 10zm-144 25 11.5.5-11.5.5z"/><path fill="#e9d857" stroke="#e9d857" d="M501.5 502h5l16 6 33 4 4-1v1q-9.6 3.4-24 2l-34-11zm-164 2 19.5.5-19.5.5zm54 33-5 6zm-11 10-16 17zm225 52 23.5.5-23.5.5zm-50 1 19.5.5-19.5.5zm-40 1 13.5.5-13.5.5zm-33 1 12.5.5-12.5.5zm-32 1 12.5.5-12.5.5zm-34 1 12.5.5-12.5.5zm146 2 21.5.5-21.5.5zm-43 1 17.5.5-17.5.5zm106 0 .5 10.5h-1zm-139 1 13.5.5-13.5.5zm-34 1 13.5.5-13.5.5zm-35 1 15.5.5-15.5.5zm-35 1 14.5.5-14.5.5zm-28 1 11.5.5-11.5.5zm-16 1 .5 12.5h-1zm256 12 12.5.5-12.5.5zm-42 1 20.5.5-20.5.5zm-53 1 22.5.5-22.5.5zm-45 1 15.5.5-15.5.5zm-31 1 12.5.5-12.5.5zm-31 1 13.5.5-13.5.5zm201 1 13.5.5-13.5.5zm-37 1 17.5.5-17.5.5zm-52 1 22.5.5-22.5.5zm-46 1 15.5.5-15.5.5zm-36 1 15.5.5-15.5.5zm-30 1 12.5.5-12.5.5zm-32 1 13.5.5-13.5.5z"/></svg>