<svg xmlns="http://www.w3.org/2000/svg" viewBox="0 0 1024 1024"><path fill="#070605" stroke="#070605" d="M529.5 247q10.3-2.2 14.5 1.5l2.5 5.5 35-1 16 1 3-6 14-1 6.5 3.5 3.5 6.5q20.3 1.8 31.5 12.5l11 16 21 41 8.5 9.5 18 9 67 19q10.3 4.2 16.5 12.5l8 18 6 36 3 42 1 73-3 100 1 4-1 32-3 15q-4.3 14.2-15.5 21.5-8.8 6.7-24 7l-145 3-170-3h-101l-44 7-30 1-43-4q-11.2-2.3-17.5-9.5l-6-14-3-33-1-159 1-61 3-34q7.5-30.5 27.5-48.5 12-11.5 32-15 5.7-8.3 16-12 7.9-3.6 21-2l13 5 5-8 12-1 1.5-1.5 2.5-6.5q33-11 80-8l8.5 4.5 3.5 13.5 16.5-12.5 8-11 19-37 11.5-13.5q12-7.5 29.5-9.5l3.5-6.5zm3.5 5-6 2 1 2 12-1 1-1zm74 0-4 2 2 1 12 1v-1q-3-4-10-3Zm-47 7-42 3-16 4-7 5 5 16 21-5 35-2 62 2q12 1 21 6l8-17-10-6-21-4q-26-3-56-2Zm-68 14-10 14-22 42-25 68 1 3q9-32 25-57 6-10 18-14 4-25 18-40zm158 0-9 17q14 14 18 38l10 5q14 12 21 32l18 52h21l2-4 10-5h41l8 3 4 7h10q-1-25-12-39l-13-10-64-18-21-10-4-2 25 67h-1l-32-77-27-51zm-108 13-29 3-13 5q-11 13-16 32l1 1 21-2 147 1 1 1-13-29q-6-9-18-10-38-4-81-2Zm-139 40 1 20h7l-1-17zm-13 1v18h-1q-4-6-3-17l-9 1 1 18h-1q-4-7-3-18l-8 2 1 5v11l-1 1q-5-5-3-17l-7 1q-2 11 2 18 23 0 42-3l-1-18q-2-4-9-2Zm23 0 3 18 5-1-2-16zm11 0 2 16 5-2-2-10zm73 4q-17 1-26 9-10 11-16 26l-28 72h2l5-7q26-31 66-48 23-11 57-13 42-1 72 11t53 32q16 14 28 33l2 1-20-63q-8-22-20-39-8-11-24-14zm-145 1-2 1-3 5 3 12h4zm102 2q-12 12-32 16-34 6-73 7l7 4 7 10 2 10 1 36h8l2-6 12-9q9-1 14 3 6 3 6 13h17q12-45 30-83zm-117 8-8 3 1 5h13l-1-7zm-40 5-12 5v1l34-2q-7-6-22-4Zm14 9q-24 1-42 6-16 4-25 14-13 11-19 29l3 1h72q21-1 33-12 8-6 11-17 2-12-4-16l-7-5zm36 4 2 8v10l-8 15q-14 16-42 18h-58l-17-2-4 11 6 1h112l24-4q3-29-4-47zm204 16q-61 8-96 42-29 26-45 64l-4-1 1-7 9-19 8-31-15-2-3 8-10 7q-11 1-15-4l-6-10q-2-4-8-2 0 11-5 18l-15 13q-20 15-22 48v184l-1 1-2-1-1-37V497q2-24 13-38l18-16q8-6 10-17v-4l-34 4q-57 1-108-2l-3 17-2 133 1 81 3 41 16 4 32 3 51-1 23-6 98-1 4-3-2-10q-18-17-31-39-10-17-16-38l1-5 24 50 28 35-1 10q-3 4-10 5h-94l-29 7q-52 4-90-6l-3 1 3 12q4 7 14 9l32 4q28 3 49-3l5-14 1 1q1 8-2 12l1 1q18-5 42-5l203 3h115l92-3 17-6 11-14v-2l-60 3h-42l-9-4 1-8q22-19 36-45l16-38 1 1q-5 23-15 41-13 24-34 42l-1 5 7 2 101-3 2-3 2-23q-1-56 2-106l-1-95-3-36-2-8-9 1q1 15-5 24l-6 3-13 1h-32l-4-2-5-9-2-18-18 1 11 38h2l5-6 1 1-5 11 2 10h-3l-3-4-7 8 10 8 11-6 14-13-6 12-14 13 10 8 3 4q22-4 34-19l1 1-4 8-23 17 2 3 9 7q19-2 31-12h1l-1 3q-10 11-25 17l-19 5 16 5q17 2 27-4l1 1q-9 10-25 12-13 2-19-2l-11 15q13 2 19 11v2q-7-6-17-8l-7 1-7 8 12 4 7 9v1q-7-8-19-10l-6 1-11 10 14 8 2-3 3 2q-10 32-32 54-38 45-112 55-47 2-78-12-35-14-58-38-27-25-41-62l5-2q10 27 28 48 38 49 115 60h31l37-8q33-12 58-34 25-23 40-55-6-8-16-10l-12 8-1 2 3 1 9 13v1q-6-8-16-12l-11 5-1 2 3 1 7 12v2l-2-2-12-11-19 8 8 12v10l-7-12-8-8-22 8 6 11v7l-10-18-22 5 3 7-1 16h-1q-1-16-8-24l-17 2 1 4-1 19h-1l-5-23-21-2-7 19-2-4 3-15-20-5q-7 6-8 16h-2v-6l4-11-17-6-9 13h-2q0-10 6-14l-15-8-10 12h-1q1-10 7-13l-44-26-1-2 74 35q24 9 56 11 50 2 85-12 39-15 69-41l31-34-8-4-9 13q-31 33-76 53-31 14-73 16-38 0-66-9l-39-15-47-24q-16-7-39-5l-6-3-5-5q-1-11 4-15 27-20 49-44l-3-2-4-5 7 2q9 1 12-5l1-2-6-4-6-7-6 5-15 16-20 19-2 1 24-29 30-28-4-7 1-3 6 8 12-9-4-8 1-2 5 8 16-8-3-8 1-4 5 9 17-7-1-6 1-7 5 11 15-5-1-4v-13l2-2 4 17 21-4 1-10 3 10 19-2 4-19 1 18 2 1h18l2-5v5l18 3 5-21h1l-1 22 23 7 9-19h1q1 13-4 21l19 8 8-11 4-3-6 18 18 11 3-1 11-10-9 15 18 13 11-7-25-36q-27-31-69-47-29-12-72-9Zm-160 31-7 3-4 6q-1 7 2 11l6 4 10-1 5-6-1-10q-3-6-11-7Zm357 5-11 2-4 5q-1 16 4 26l5 2 35-1 8-2 4-6-1-17 1-2-1-2-4-4zm-188 15-18 3q2 12 8 20l12-1-1-21zm8 0 1 21 8 1q6-8 8-20zm21 2-5 19 1 2 8-1 10-17q-5-4-14-3Zm-54 1-16 5q5 10 14 17l10-1-5-20zm76 2-8 20 7 2h3l12-9 5-6zm-100 4-13 5 3 5 14 11 7-2-8-18zm128 5-12 17 4 2q12-1 19-8l3-4zm-145 1-16 8 1 2q5 8 16 12l11-4-11-17zm133 7-8 7h4l4-5zm-154 3-13 8 17 11 9-3-11-15zm189 0-8 11-3 2-1 2 9 4 19-8v-1zm-9 3-11 7 1 2 10-7zm-197 7-7 5-3 4 15 8 10-4zm110 0q-33 1-58 10-18 16-23 45-3 41 17 61 19 24 58 28 38 0 57-19 23-19 28-56 0-37-18-55-24-14-61-14Zm118 4-14 11 11 7q12 0 20-5zm-243 7-9 7-3 4q6 6 17 7l9-6v-1zm55 3-32 16-45 34-5 14q0 19 8 30l6 5 70 33q27 11 63 13 45 1 77-12 42-17 73-45 11-9 17-22l-56-47-34-17h-2q13 16 15 44 0 37-18 57-20 27-61 33-41 0-62-19-25-18-31-55-2-41 17-60zm212 8-16 9 4 2q14 2 21-3zm14 14-12 6-1 2q9 5 26 3v-1l-9-9zm22 18-16 5q10 6 28 5v-1zm-334 17-5 4-4 10 1 10h-1q-5-4-3-14l-9 6-9 10 1 7 8 3h21l5 2h3l-8-17 1-20z"/><path fill="#070605" stroke="#070605" d="m514.5 343 97 1 13-1 3.5 1.5-1.5 1.5-18 2h-60l-23-1-12.5-2.5zm-216 20q20-2.5 26.5 8.5 3.2 3.3 2 11l-7.5 9.5q-11.5 8.5-33 7-9.4-1.1-13.5-7.5l-1-10q2.4-8.6 9.5-12.5zm1.5 5-15 5-7 9 9 4q17 1 27-6l4-7q-6-6-18-5Zm22 9q-8 11-23 13-13 2-19-2l-3-1 1 3 11 4q20 1 30-8l3-5zm398.5-14 45 11 12.5 5.5-.5 2.5-50-14zm-389 72 2.5 1.5-1.5 2.5q-20.8 4.2-47 3l-34-2-9 1-8.5 6.5-2.5 5.5-.5-4.5 3.5-6.5 11-5h37l27 1zm-57 34 2.5 1.5-6 4-2 9 6.5 10.5 4 1 2-1 .5 2.5-5.5 1.5-7.5-5.5q-4.5-4.5-3-15l5.5-7.5zm-45 9 1.5 8.5-1 9 1 50-1 62 2 69-1.5.5-3.5-48.5-1-65 1-50zm303 2h11l11 6q6.1-3.9 18-2 16 3 24.5 13.5 11.6 10.9 10 35-3.7 17.3-15.5 26.5-10.6 10.9-34 9-18.6-3.4-27.5-16.5-9.4-10.1-8-31l1-4q-8.2-5.3-7-20l6.5-11.5zm.5 5-4 2-8 11 2 11 9 6q10 2 15-3l5-8q1-9-2-12-4-9-17-7Zm-188.5 2 1.5 9.5-1 118 1 52-1.5 7.5-1.5-1.5-1-15-1-133 2-36zm452 82 .5 43.5-2 56-1.5 6.5-1.5-1.5v-38l2-51 1-14zm-361 47 4.5 3.5 25.5 28.5q37.3 36.2 109 38 34.4-2.6 59-15 26.2-13.8 47-33l-1.5 2.5-12.5 13.5q-36.9 35.1-108 36-70.3-7.7-106.5-49.5-11.5-10.2-16.5-24.5Zm-91 87 1.5 7.5-1.5 4.5-1.5-.5q-1.7-8.2 1.5-11.5Z"/><path fill="#fefefe" stroke="#fefefe" d="M.5 0 1024 .5l-.5 1023.5L0 1023.5zM535 246l-11 3-3 6-23 6-8 5-13 17-22 41-17 14-4-11-4-5-12-2q-42-2-72 8l-4 8q-10-1-15 3l-3 7-16-6-17 2q-12 4-18 13-17 3-28 12-24 19-32 54l-2 18-2 117 2 128 3 24 4 10q6 8 18 11l32 4h35l36-6 33-2 197 3h116l93-3 19-8q13-10 16-31l3-117q2-71-3-133l-6-39-10-22-16-12-61-17-22-10-12-13q-11-28-27-50-10-15-33-16l-4-5-5-5-17 1-3 6-6-1-44 1-1-3q-3-6-11-5Z"/><path fill="#fefefe" stroke="#fefefe" d="m528.5 253 11.5.5-12.5 1.5zm76 0q8.9-1.9 12.5 1.5l-8.5.5zm-59 7 66 1 27 5 7.5 4.5-7.5 16.5q-10.9-5.6-27-6l-71-1-29 3-11 4-5.5-16.5 14.5-6.5zm105 13 10.5 14.5 21 42 31.5 77.5 1.5-.5-2-11-22-56 4.5 3.5 24 10 55 15q12.2 3.3 18.5 12.5 9.2 14.3 11 36-2 3.5-9.5 1.5l-7-9q-18.3-4.2-43-2-10.7-.2-14.5 6.5l-1.5 3.5h-19l-1.5-1.5-17-50q-7.1-17.9-19.5-30.5l-11.5-7.5q-5.4-23.1-18-39zm69.5 90 7 5 42 11 9 4 1-2-11-7zm-228.5-89 4.5 15.5-9 13-9.5 26.5q-10 3.5-15.5 11.5-14.8 22.2-23.5 50.5l-.5-1.5 22-60 22-42z"/><path fill="#fefefe" stroke="#fefefe" d="m557.5 286 12 1 3-1 46 2q13.5.5 20.5 7.5l15 30-3.5.5-79-1-24 1-52-1-10 2-.5-2.5 11-26 5.5-5.5 20-5zm-67 46h161q14.5 3.5 21.5 14.5l17 33 21 65-2-1-23.5-27.5q-23.4-22.1-56-35-31.8-13.7-80-11-73.2 11.3-112.5 56.5l-8.5 10.5.5-1.5 26-69q6.4-17.1 18.5-28.5zm23.5 11-2 2 8 2 47 2 49-1 12-2-1-3-28 1zm-60.5-8-.5 1.5q-16.7 37.8-28.5 80.5l-16.5-.5q0-7.5-4.5-10.5l-13-5q-9.2 1.3-13.5 7.5l-4.5 8.5-4-1-1.5.5-1-32-2-12q-3-10-11.5-14.5l-2.5-1.5q39.9-.1 73.5-6.5 18.5-4 30-15Zm-151 22h32l6.5 5.5 3 11q-3.1 14.4-13.5 21.5-10.1 8.4-27 10l-53 1-25.5-1.5q7.6-18.4 21.5-30.5l20-11zm.5 5q-15 1-23 8-7 4-9 14l3 10q6 5 17 6 20 0 31-9l5-7q2-9-2-13-6-10-22-9Z"/><path fill="#fefefe" stroke="#fefefe" d="m347.5 361 10.5 9.5 3 6 1 39-6.5 2.5-23 3h-94l-17.5-1.5 2.5-9.5 69 2q17.7-.8 31-6 12.3-5.2 19.5-15.5 5.7-6.8 7-18z"/><path fill="#fefefe" stroke="#fefefe" d="M556.5 376q45.1-1.1 75 13 37.8 16.2 62.5 45.5l22 33-9.5 7.5-17.5-13.5 8-15-1.5-.5-12 12-2-2-16.5-9.5q5.7-6.3 6-18l-1.5-.5-11 15-17.5-8.5q4.2-8.3 4-21-1.5-3-3 0-1.1 12.4-8.5 18.5l-21.5-6.5 1-21-1.5-2.5-6 22-17.5-2.5-.5-5.5-2 6-18.5-1.5-2.5-17.5-1.5.5-2.5 17.5-19 2-3-10-1 11-20 4-5-17-1.5.5-1 9 2 9-15.5 5.5-6-13-.5 5.5 2 9-16.5 7.5-6-10-1.5.5 3 12-14.5 8.5-6-9-1.5.5 4 11-11.5 7.5-6-7-1.5.5 4 10-25 22-29 34 2.5.5 11.5-10.5 28.5-29.5 13.5 9.5-9.5 7.5-11-2-.5 1.5 8 5-51 46-3 11 6.5 8.5 8 3q21.6-2.1 35 4l47 24 42 16q31 10 74 8 93.4-14.1 142.5-72.5l6.5-9.5 6.5 3.5q-11.2 17.3-26.5 30.5-32 29.5-77 46-35.8 13.2-88 10-29.6-2.9-53-12l-71-34-.5 1.5 46 27q-6.1 3.4-6 13l3-2 6.5-8.5 16.5 6.5q-7.5 3-6 15l2-1 6.5-10.5 3-2 16.5 6.5q-5.5 5-4 17l1.5.5q1.9-10.6 8-17l20.5 4.5q-4.4 6.1-3 18l1.5 2.5 4.5-15.5 3.5-4.5 19 1 1.5 1.5 4.5 23.5 1.5-.5 2-16-2-8 16.5-.5q7.2 8.8 8 24l1.5-.5 2-14-4-10 21.5-3.5 9 17 2.5-.5q.1-12.1-6-18l21.5-6.5 5.5 4.5 7.5 14.5 1.5-.5 1-7-8-15 15.5-7.5 11.5 7.5 4.5 5.5.5-3.5-9-13 9.5-5.5 15.5 10.5 1.5 2.5.5-4.5-7.5-9.5-4.5-2.5 9.5-7.5 6-1 12.5 7.5q-15.3 36.2-43.5 59.5-20.4 17.1-47 28l-39 10-31 1q-32.7-2.8-57-14-34.8-15.7-58.5-42.5l-20-27-10-22-3.5-3.5-3.5 2.5q15.1 42.4 46.5 68.5 23.5 21.5 56 34 26.9 10.6 64 11 40.2-1.8 68-16 35.1-16.4 58.5-44.5 19-20.5 29-50l-4.5-1.5-3 2-11.5-7.5.5-1.5 12-9q13.8 2.2 22 10l.5-2.5-5.5-6.5-13.5-5.5 7.5-7.5h9l15 7 .5-1.5-5.5-6.5-13.5-5.5 9.5-13.5 22 1q14.4-2.6 22.5-11.5l-.5-2.5q-8.3 6.7-25 5l-17.5-5.5q30-4.5 45-24l-.5-1.5-22 11-11 2-9.5-10.5q13.8-6.7 23-18l3-7-2.5-.5q-11.4 14.1-32 19L729 494.5l2.5-2.5 9.5-8.5 8-14-2.5-.5-11 12-13 8-9.5-8.5 7-6 2.5 3.5 4.5-2.5-3-9q4.7-3.8 5-12l-1.5-.5-5 7-12.5-38.5 5.5-.5 12.5 1.5q-1.2 18.2 7.5 26.5 8 4 22 2l24-1q7.4-1.1 10.5-6.5l2-5 .5-16.5q8.3-2.2 10.5 1.5l4 53v103q-3.1 46.4-2 97l-2.5 14.5-23 2-74 2-8-1-3.5-2.5 21-24 14-21q10.8-18.2 16-42l-2.5-1.5-19.5 44.5q-13.1 21.9-32 38l-2 7 4.5 5.5q9.2 3.3 23 2l67-2 17-2-.5 1.5-8.5 12.5-15 7-142 4-2-1-2 1-176-3h-106l-27 4-.5-1.5 2-11-2.5-1.5-6 15-7 2h-49l-22-3-13.5-7.5-5-14 1.5.5q35.5 8 81 6 23.7-.8 41-8h95l7.5-4.5 2-9-3-7-28-34-22.5-46.5-1.5 2.5 3 12 13 28q13.3 23.2 32 41l2 7-3.5 4.5-95 1-31 7-36 1-40-3-18.5-5.5q-5.8-83.7-3-176l1-62 2.5-31.5 117 1 24-4 .5 5.5q-2.6 11.4-11.5 16.5L336 455.5q-12.2 13.3-15 36l-1 115 1 76 1.5 2.5 3.5-1.5-1-176q.3-39.7 23.5-56.5l12.5-10.5q5.6-6.9 6.5-18.5l7.5 1.5q1.4 8.1 7.5 11.5 4.7 3.3 14 2l8.5-5.5 3.5-8.5 14.5.5-8 33-9 18-1 6 4.5 1.5q17.2-39.8 48-66 36.4-33.1 99-40ZM328 435l-11 2-46-1q-22-2-34 4l-6 8 1 6 3-7 11-6 28 1q34 3 60-3v-2zm-55 34-2 1q-5 3-6 11l4 13q2 5 12 4l2-3-6-1-7-8 1-10 6-5v-1zm-43 8-2 6-2 54q-3 75 5 141h1l-1-200zm114 10-3 22v132l3 34 2-1-1-127 1-59zm452 82-3 25-2 65 1 16h2l2-13 2-71-1-21zm-360 46-2 2 13 19q36 44 106 54 41 2 69-9 29-11 50-31l9-10v-3q-22 21-50 35-22 10-49 13h-29l-33-7q-30-10-51-28l-31-33zm-92 88-2 8 2 5q4-3 2-12z"/><path fill="#fefefe" stroke="#fefefe" d="m552.5 428 8.5.5-.5 20.5h-11l-1.5-1.5-6-17zm15 0 16.5.5-6.5 19.5-7.5-.5zm21 1 14.5 2.5-12.5 18.5-6.5-1.5zm-57 2 6.5.5 4 19-8.5 1.5-7.5-6.5-7-11zm80 2 17.5 5.5-8.5 9.5-9 6-8.5-2.5zm-100 3 2.5 1.5 8 17-8.5 1.5-10.5-8.5-4-7zm127 6 14.5 6.5q-8 8-20.5 11.5l-5.5-2.5zm-147 1 3.5.5 9.5 14.5 1.5.5-13.5 4.5-10.5-8.5-3-5zm-18 9 11.5 15.5-9.5 2.5-14.5-9.5.5-1.5zm188 1 15.5 8.5-.5 1.5-17 8-8.5-4.5zm-10 3-5 6-3 2-1-2zm-195 6 7 8 7.5 4.5-8.5 4.5q-10.9-2.1-16.5-9.5zm227 5 16.5 10.5-.5 1.5q-7 5-20 4l-9.5-6.5zm-242 6 13.5 10.5q-3.3 6.2-12.5 6.5l-12.5-6.5 3.5-4.5zm53 4-.5 1.5q-15.6 18.9-16 53 3.7 40.3 28.5 59.5 13.9 12.1 34 18 14.6 4.9 36 3 35.9-6.6 54.5-30.5 12.4-14.1 18-35 3.5-13 2-31-2.8-22.7-14-37l1.5-.5 31 16 58.5 47.5q-8.4 15.1-21.5 25.5-29.7 26.3-70 42-33.6 13.9-84 11-33.1-3.4-59-14L424 571.5q-10.9-11.6-9-36 .8-8.2 6.5-11.5l43-32z"/><path fill="#fefefe" stroke="#fefefe" d="M534.5 485q10.2-.2 14.5 5.5l3 11-7.5 11.5-11 2-10.5-7.5-1-12 5.5-7.5zm172 0 9.5 6.5q-6.9 4.6-19.5 3.5l-3.5-2.5zm16 13 11.5 9.5-1.5 1.5h-11l-12.5-4.5zm20 19h3l9.5 7.5-14.5.5-10.5-3.5.5-1.5zm-334 17 1.5.5-1 16q1.8 12.7 9 20l-1.5.5q-11.5-5-30-3l-6.5-4.5q.4-9.1 6.5-12.5l11-8-.5 1.5q-1 9.5 3.5 13.5l1.5-.5q-3.2-18.2 6.5-23.5Z"/><path fill="#d4bc48" stroke="#d4bc48" d="m555.5 253 14.5.5-14.5.5zm4 6 30.5.5-30.5.5zm-19 21 14.5.5-14.5.5zm39 0 15.5.5-15.5.5zm-38 6 15.5.5-15.5.5zm35 0 20.5.5-20.5.5zm-181 34 22.5.5-22.5.5zm124 5 27.5.5-27.5.5zm52 0 78.5.5-78.5.5zm-169 1 7.5 2.5 1 17-7.5.5zm50 0-6 7zm-63 1q7.5-2 9.5 1.5l1 18q-19.1 3.9-42.5 3.5-3.2-6.7-1.5-18.5l6.5-.5q-1.7 11.7 3 17l1.5-1.5v-11l-1-5 7.5-1.5q-.6 11.1 3 18l1.5-.5-1-18 8.5-.5q-.8 10.8 3 17l1.5-.5zm23 0 6.5.5 2 16-5.5 1.5zm11 0 5.5 3.5 2 10-5.5 2.5zm268 3 5 6zm-195 1 151.5.5-151.5.5zm-145 1 2.5 17.5-4.5.5-2.5-12.5 2.5-4.5zm118 1-7 8zm196 5 6 7zm-329 4 5.5.5 1 7-13.5.5-.5-5.5zm204 1 15.5.5-15.5.5zm59 0 12.5.5-12.5.5zm-303 4q15.4-2.4 22.5 3.5l-34.5 2.5v-1zm241 0 10.5.5-10.5.5zm-258 1-6 7zm287 0 26.5.5-26.5.5zm-256 8 22.5.5-22.5.5zm41 7 6 7zm-52 5q12.9-1.4 18.5 4.5l-4.5 7.5q-9.3 7.2-27 6l-8.5-4.5 6.5-8.5z"/><path fill="#d4bc48" stroke="#d4bc48" d="m321.5 377 .5 3.5-3.5 5.5q-9.8 9.2-30 8l-10.5-4.5-1-3 2.5 1.5q6.5 4 19 2 15.8-2.2 23-13Zm40 8 .5 11.5h-1zm5 14 .5 17.5h-1zm246 5 .5 16.5h-1zm-385 1 22.5.5-22.5.5zm163 2q8.3.8 11.5 6.5l1 10-5.5 6.5-10 1-5.5-4.5q-3.2-3.3-2-11l3.5-5.5zm354 0 31.5.5-31.5.5zm-487 4 35.5.5-35.5.5zm386 1 1.5 6.5h-1l-.5-5.5-1 2-.5-1.5zm104 0 36 1 4.5 3.5 1 2-1 2 1 17-4.5 6.5-8 2-35 1-4.5-2.5q-5.2-9.8-4-26l3.5-4.5zm-186 2 .5 6.5-5.5 1.5v-1l4.5-.5zm-113 1-11 12zm118 0 1 6 12.5.5-12.5.5q-3.1-1.6-1-7Zm119 1 8 9zm-277 1 16.5.5-16.5.5zm46 1-13 14zm-229 2 12.5.5-12.5.5zm455 0 11 12zm-314 1q6.8-1.7 8.5 1.5l-1.5-.5-6.5.5-.5 2.5zm350 1 11.5.5-11.5.5zm-480 3 32.5.5-32.5.5zm325 8 .5 15.5h-1zm-312 3 21.5.5-21.5.5zm34 1 26.5.5-26.5.5zm73 0-5 6zm-145 1 .5 13.5h-1zm6 2 .5 15.5h-1zm143 0-5 6zm-87 1 11.5.5-11.5.5zm422 5-10 11zm76 4 10.5.5-10.5.5zm-30 1 16.5.5-16.5.5zm-395 1-8 9zm307 2-.5 1.5-3.5 4.5q-3-1.5 0-3l2.5-.5zm-174 6 6.5 7.5h-1zm335 1 .5 10.5h-1zm-249 1q37 .5 61.5 13.5 18.1 18.4 18 55-4.7 37.8-28.5 56.5-19 19-57 19-38.6-4.4-57.5-28.5-19.5-19.5-17-61 5.1-28.4 22.5-44.5 25-9 58-10ZM533 480l-10 5-7 12q-1 14 7 20l-1 4q-1 20 8 31 9 13 28 16 23 2 34-9 11-9 15-26 2-25-10-35-9-11-24-14-12-2-18 2l-11-6zm-74.5-16 5 6zm350 1 .5 11.5h-1zm-366 8 6 7zm277 0-6 7zm-297 8-9 10zm-194 1 .5 10.5h-1zm-18 1 .5 29.5h-1zm530 0-8 9zm-319 6-14 15zm394 0 .5 23.5h-1zm-599 2 .5 26.5h-1zm513 2-.5 1.5 7.5 8.5-8.5-8.5zm-321 3-5 6zm-63 1 .5 43.5h-1zm464 0 .5 63.5h-1zm-84 2 5 6zm-498 2 .5 11.5h-1zm93 3 .5 102.5h-1zm21 4 .5 15.5h-1zm81 2-12 13zm-25 4-6 7zm358 10 .5 1.5-9.5.5v-1zm-529 12 .5 26.5h-1zm183 1 .5 13.5h-1zm-13 6 1.5 7.5h-1l-.5-6.5-1.5.5zm-166 3 .5 61.5h-1zm585 0 .5 22.5h-1zm-470 1 .5 67.5h-1zm-136 8 .5 53.5h-1zm507 2-6 7zm-328 11 17.5.5-17.5.5zm342 2-6 7zm-515 3 .5 24.5h-1zm172 1 16.5.5-16.5.5zm243 7-11 12zm178 0 .5 20.5h-1zm-310 1 8 9zm316 5 .5 18.5h-1zm-588 4 .5 24.5h-1zm99 11 .5 81.5-2 1zm16 5 .5 33.5h-1zm455 6 .5 20.5h-1zm-327 3 2.5 1.5-5 4 3.5-4.5zm323 0 .5 18.5h-1zm-232 4 19.5.5-19.5.5zm247 6 .5 40.5h-1zm-576 2 .5 22.5h-1zm-4 1 .5 11.5h-1zm223 3 15 16zm-234 3 .5 19.5h-1zm340 0 26.5.5-26.5.5zm-346 7 .5 17.5h-1zm111 5 .5 35.5h-1zm114 1 5 6zm254 1-11 12zm106 1 .5 11.5h-1zm18 0 .5 23.5h-1zm-367 9 5 6zm-229 8 .5 13.5h-1zm128 0 .5 6.5-2.5 1.5-.5-1.5h2zm83 1 5 6zm279 4-14 15zm-496 1 .5 10.5h-1zm500 1-14 15zm-152 11 15.5.5-15.5.5zm194 9 16.5.5-16.5.5zm-409 1 30.5.5-30.5.5zm370 0 19.5.5-19.5.5zm29 4 17.5.5-17.5.5zm-39 1 14.5.5-14.5.5zm-438 2 10.5.5-10.5.5zm29 0 11.5.5-11.5.5zm-27 5 34.5.5-34.5.5zm535 2-7 8zm-39 9 10.5.5-10.5.5zm-414 1 13.5.5-13.5.5zm79 0 27.5.5-27.5.5zm307 0 10.5.5-10.5.5zm-249 1 39.5.5-39.5.5zm219 0 15.5.5-15.5.5zm-139 1 64.5.5-64.5.5zm70 0 45.5.5-45.5.5zm-283 4 16.5.5-16.5.5zm70 0 31.5.5-31.5.5zm314 0 13.5.5-13.5.5zm-470 1 33.5.5-33.5.5zm223 0 36.5.5-36.5.5zm216 0 16.5.5-16.5.5zm-139 1 56.5.5-56.5.5zm71 0 45.5.5-45.5.5zm-372 5 12.5.5-12.5.5zm24 0 11.5.5-11.5.5z"/></svg>