<svg viewBox="0 0 1024 1024" version="1.1" xmlns="http://www.w3.org/2000/svg" desc="Created with imagetracer.js version 1.2.6" ><path fill="currentColor" stroke="rgb(0,0,0)" stroke-width="1" opacity="1" d="M 507.5 170 Q 541.5 169.5 557 187.5 L 568 205.5 L 573.5 226 Q 643.8 244.2 684 292.5 Q 702.5 314 715 341.5 L 729 388.5 L 739 445.5 L 744 508.5 L 747 523.5 L 748 553.5 L 755 613.5 Q 761.1 635.4 772 652.5 L 799.5 684 L 801 685.5 L 804 687 L 805.5 690 L 810 693.5 Q 822.1 705.4 821 730.5 L 816 749.5 L 807.5 760 Q 795.2 768.7 778.5 773 L 768 773 L 767 769 L 703.5 770 L 701.5 769 L 693.5 770 L 691.5 769 Q 671.2 772.2 646.5 771 L 626.5 770 L 612 771 Q 611 789.2 603 801.5 L 583.5 826 L 581 827.5 L 577.5 832 Q 560.5 845 537.5 852 Q 523.9 855.4 505.5 854 Q 486.6 852.4 472.5 846 Q 453.1 836.9 439 822.5 Q 420.3 804.8 417 773 L 364.5 774 L 298.5 773 L 257.5 774 L 244 772 L 242.5 775 Q 224.5 773.5 217 761.5 Q 204.6 751.4 203 730.5 L 204 716.5 L 208 706.5 L 226.5 685 L 236 676.5 Q 259.1 653.1 269 616.5 Q 278.4 580.9 279 536.5 L 278 527.5 L 280 495.5 L 282 487.5 L 282 485.5 L 287 426.5 Q 292.4 389.4 303 357.5 L 319 324.5 Q 341.4 293.4 368.5 267 Q 400.4 235.5 453 226 Q 455.2 196.5 474.5 183 Q 487.1 172.6 507.5 170 Z M 516 406 L 514 408 L 516 411 L 521 410 Q 542 410 558 417 L 560 412 L 516 406 Z M 502 407 L 459 419 L 446 426 L 450 431 Q 474 416 507 411 Q 509 405 502 407 Z M 516 414 L 514 417 L 519 419 Q 539 419 554 425 L 556 420 L 532 414 L 516 414 Z M 504 415 L 494 418 L 507 418 Q 509 414 504 415 Z M 572 416 L 569 424 L 599 445 L 606 441 L 607 438 Q 594 422 572 416 Z M 483 423 Q 468 426 459 433 L 457 435 Q 462 437 461 434 L 486 424 L 483 423 Z M 503 425 Q 480 428 466 439 L 464 442 L 467 443 Q 478 437 496 437 L 498 437 L 503 436 L 506 427 Q 507 424 503 425 Z M 516 425 L 518 437 L 536 442 L 543 441 L 545 439 L 547 436 Q 535 426 516 425 Z M 511 426 L 507 436 L 511 436 L 513 436 L 511 426 Z M 539 426 L 550 432 L 551 428 L 539 426 Z M 568 427 L 565 430 Q 581 436 592 448 L 596 447 L 568 427 Z M 440 428 L 415 446 L 405 458 L 409 460 L 444 434 L 442 431 Q 443 427 440 428 Z M 469 431 L 461 436 L 459 438 L 470 432 L 469 431 Z M 562 433 L 560 439 L 579 451 L 589 450 Q 578 439 562 433 Z M 445 440 L 429 452 L 417 465 L 420 466 L 427 465 L 448 451 L 447 447 L 442 450 L 446 445 L 446 443 L 445 440 Z M 493 441 L 475 446 L 473 448 L 497 445 L 500 443 Q 500 439 493 441 Z M 612 442 L 604 450 L 608 454 L 615 448 L 614 444 L 612 442 Z M 618 450 L 611 458 L 617 462 L 621 456 L 619 452 L 618 450 Z M 569 456 L 576 460 L 578 460 L 580 459 Q 577 455 569 456 Z M 401 462 L 392 475 L 393 476 L 403 464 L 401 462 Z M 627 464 L 620 469 L 629 480 L 635 481 L 627 464 Z M 602 465 L 607 472 L 610 470 L 602 465 Z M 406 467 Q 392 478 384 495 Q 382 501 386 501 Q 392 481 406 469 L 406 467 Z M 410 472 L 394 494 L 396 494 L 413 476 L 412 474 L 410 472 Z M 614 472 L 613 473 L 611 475 L 620 478 L 621 478 L 614 472 Z M 455 475 L 420 498 L 406 513 L 403 534 L 403 536 Q 403 551 410 560 Q 423 577 446 585 L 477 594 L 511 600 L 526 600 L 550 595 Q 579 585 601 565 Q 617 551 628 532 L 622 524 L 620 522 L 618 523 Q 621 525 620 532 L 621 533 Q 618 517 608 509 L 607 511 L 605 507 Q 592 493 575 484 L 573 484 L 582 518 Q 582 545 568 559 Q 559 570 545 575 L 510 582 Q 484 583 471 571 Q 446 552 441 514 Q 442 488 456 476 L 455 475 Z M 615 481 L 622 487 Q 626 488 625 486 L 615 481 Z M 457 482 Q 448 491 446 506 L 447 515 L 457 484 L 457 482 Z M 378 504 L 373 514 L 374 519 L 381 510 L 380 506 L 378 504 Z M 626 509 L 631 518 L 636 522 L 631 511 L 626 509 Z M 639 514 L 647 526 L 647 519 L 639 514 Z M 378 520 L 372 525 L 373 534 L 380 522 L 378 520 Z M 577 521 Q 571 542 560 558 L 561 559 Q 574 548 577 526 L 577 521 Z M 400 522 L 394 532 Q 394 544 400 551 L 402 552 Q 398 539 400 522 Z M 389 531 L 381 542 L 380 543 L 378 546 L 385 550 L 386 547 L 390 547 L 393 553 L 398 557 Q 392 551 392 541 L 390 542 L 387 541 L 389 534 L 389 531 Z M 645 532 L 637 548 L 638 556 Q 644 548 645 535 L 645 532 Z M 631 537 L 622 552 L 623 553 L 632 542 L 634 539 L 631 537 Z M 379 553 L 381 562 L 400 582 L 401 582 L 389 561 L 379 553 Z M 632 556 L 621 568 L 621 570 L 627 569 L 632 559 L 632 556 Z M 476 567 Q 483 576 500 577 L 507 577 L 476 567 Z M 385 570 Q 388 583 397 592 Q 406 602 419 607 L 408 592 L 385 570 Z M 406 577 L 410 586 L 425 597 L 427 599 L 425 594 L 406 577 Z M 616 578 L 609 583 L 603 590 L 601 593 L 611 587 L 617 580 L 616 578 Z M 602 583 L 586 595 L 578 604 L 589 599 L 603 584 L 602 583 Z M 582 584 L 575 588 L 574 590 L 583 585 L 582 584 Z M 611 592 L 561 621 L 551 624 Q 527 624 510 630 Q 501 628 502 632 L 510 633 Q 564 635 594 613 L 611 594 L 611 592 Z M 455 593 L 457 595 L 477 602 L 512 607 Q 537 609 552 600 L 552 599 Q 536 605 515 605 L 513 605 L 478 599 L 455 593 Z M 431 595 L 430 597 L 444 609 L 469 622 L 486 627 L 512 625 L 495 620 L 479 613 L 475 613 L 466 618 L 462 617 L 468 613 Q 472 614 471 611 Q 447 608 431 595 Z M 417 597 L 420 603 L 432 614 L 452 622 L 454 622 L 417 597 Z M 577 597 L 553 608 L 553 609 L 565 607 L 577 599 L 577 597 Z M 571 610 L 551 618 L 550 620 L 571 612 L 571 610 Z M 541 614 L 522 617 L 501 615 L 495 616 L 522 622 Q 538 621 550 615 L 541 614 Z M 444 623 Q 462 642 498 646 Q 520 648 538 644 Q 560 639 577 628 L 579 625 L 561 632 L 530 637 L 504 636 L 485 631 L 462 629 L 444 623 Z " /><path fill="currentColor" stroke="rgb(0,0,0)" stroke-width="1" opacity="1" d="M 606.5 512 Q 609.3 511.4 608 517.5 L 609 538.5 L 605.5 551 L 605 548.5 Q 609.7 534.7 607 513.5 L 606.5 512 Z " /><path fill="rgb(255,253,255)" stroke="rgb(255,253,255)" stroke-width="1" opacity="0.00392156862745098" d="M 0 0 L 1024 0 L 1024 1024 L 0 1024 L 0 0 Z M 508 170 Q 487 173 475 183 Q 455 196 453 226 Q 400 235 369 267 Q 341 293 319 325 L 303 358 Q 292 389 287 427 L 282 486 L 282 488 L 280 496 L 278 528 L 279 537 Q 278 581 269 617 Q 259 653 236 677 L 227 685 L 208 707 L 204 717 L 203 731 Q 205 751 217 762 Q 225 773 243 775 L 244 772 L 258 774 L 299 773 L 365 774 L 417 773 Q 420 805 439 823 Q 453 837 473 846 Q 487 852 506 854 Q 524 855 538 852 Q 560 845 578 832 L 581 828 L 584 826 L 603 802 Q 611 789 612 771 L 627 770 L 647 771 Q 671 772 692 769 L 694 770 L 702 769 L 704 770 L 767 769 L 768 773 L 779 773 Q 795 769 808 760 L 816 750 L 821 731 Q 822 705 810 694 L 806 690 L 804 687 L 801 686 L 800 684 L 772 653 Q 761 635 755 614 L 748 554 L 747 524 L 744 509 L 739 446 L 729 389 L 715 342 Q 703 314 684 293 Q 644 244 574 226 L 568 206 L 557 188 Q 541 170 508 170 Z " /><path fill="rgb(255,253,255)" stroke="rgb(255,253,255)" stroke-width="1" opacity="0.00392156862745098" d="M 515.5 406 L 560 412 L 557.5 417 Q 542.1 410.4 520.5 410 L 515.5 411 L 514 407.5 L 515.5 406 Z " /><path fill="rgb(255,253,255)" stroke="rgb(255,253,255)" stroke-width="1" opacity="0.00392156862745098" d="M 501.5 407 Q 509.3 404.6 507 411 Q 474.2 416.5 449.5 431 L 446 425.5 L 458.5 419 L 501.5 407 Z " /><path fill="rgb(255,253,255)" stroke="rgb(255,253,255)" stroke-width="1" opacity="0.00392156862745098" d="M 515.5 414 L 531.5 414 L 556 420 L 553.5 425 Q 539.1 418.9 518.5 419 L 514 416.5 L 515.5 414 Z " /><path fill="rgb(255,253,255)" stroke="rgb(255,253,255)" stroke-width="1" opacity="0.00392156862745098" d="M 503.5 415 Q 508.8 413.5 507 418 L 494 417.5 L 503.5 415 Z " /><path fill="rgb(255,253,255)" stroke="rgb(255,253,255)" stroke-width="1" opacity="0.00392156862745098" d="M 572 416 Q 593.7 422.1 607 437.5 L 606 441 L 598.5 445 L 569 423.5 L 572 416 Z " /><path fill="rgb(255,253,255)" stroke="rgb(255,253,255)" stroke-width="1" opacity="0.00392156862745098" d="M 482.5 423 L 486 423.5 L 462 432.5 L 464.5 434 L 469.5 431 L 467.5 434 L 459 438 L 460.5 436 L 460.5 435 Q 455.7 436.3 457 433 L 482.5 423 Z " /><path fill="rgb(255,253,255)" stroke="rgb(255,253,255)" stroke-width="1" opacity="0.00392156862745098" d="M 502.5 425 Q 506.9 423.5 506 426.5 L 503 436 L 497.5 437 L 495.5 437 Q 478.4 437.4 466.5 443 L 464 442 L 465.5 439 Q 480.3 428.3 502.5 425 Z " /><path fill="rgb(255,253,255)" stroke="rgb(255,253,255)" stroke-width="1" opacity="0.00392156862745098" d="M 516 425 Q 535 426.2 547 435.5 L 544.5 439 L 543 440.5 L 535.5 442 L 518 437 L 516 425 Z " /><path fill="rgb(255,253,255)" stroke="rgb(255,253,255)" stroke-width="1" opacity="0.00392156862745098" d="M 510.5 426 L 513 435.5 L 510.5 436 L 507 435.5 L 510.5 426 Z " /><path fill="rgb(255,253,255)" stroke="rgb(255,253,255)" stroke-width="1" opacity="0.00392156862745098" d="M 538.5 426 L 551 428 L 549.5 432 L 538.5 426 Z " /><path fill="rgb(255,253,255)" stroke="rgb(255,253,255)" stroke-width="1" opacity="0.00392156862745098" d="M 567.5 427 L 596 446.5 L 591.5 448 Q 581 436 565 429.5 L 567.5 427 Z " /><path fill="rgb(255,253,255)" stroke="rgb(255,253,255)" stroke-width="1" opacity="0.00392156862745098" d="M 439.5 428 Q 443.3 426.8 442 430.5 L 444 433.5 L 408.5 460 L 405 457.5 L 414.5 446 L 439.5 428 Z " /><path fill="rgb(255,253,255)" stroke="rgb(255,253,255)" stroke-width="1" opacity="0.00392156862745098" d="M 562 433 Q 577.5 438.8 589 449.5 L 578.5 451 L 560 439 L 562 433 Z " /><path fill="rgb(255,253,255)" stroke="rgb(255,253,255)" stroke-width="1" opacity="0.00392156862745098" d="M 444.5 440 L 446 442.5 L 446 444.5 L 448 450.5 L 426.5 465 L 419.5 466 L 417 465 L 428.5 452 L 444.5 440 Z " /><path fill="rgb(255,253,255)" stroke="rgb(255,253,255)" stroke-width="1" opacity="0.00392156862745098" d="M 492.5 441 Q 500.4 439.3 500 442.5 L 496.5 445 L 473 448 L 474.5 446 L 492.5 441 Z " /><path fill="rgb(255,253,255)" stroke="rgb(255,253,255)" stroke-width="1" opacity="0.00392156862745098" d="M 611.5 442 L 614 443.5 L 615 447.5 L 607.5 454 L 604 449.5 L 611.5 442 Z " /><path fill="rgb(255,253,255)" stroke="rgb(255,253,255)" stroke-width="1" opacity="0.00392156862745098" d="M 617.5 450 L 619 451.5 L 621 455.5 L 617 462 L 611 457.5 L 617.5 450 Z " /><path fill="rgb(255,253,255)" stroke="rgb(255,253,255)" stroke-width="1" opacity="0.00392156862745098" d="M 568.5 456 Q 576.8 454.8 580 458.5 L 577.5 460 L 575.5 460 L 568.5 456 Z " /><path fill="rgb(255,253,255)" stroke="rgb(255,253,255)" stroke-width="1" opacity="0.00392156862745098" d="M 400.5 462 L 403 463.5 L 391.5 477 L 392 475.5 L 400.5 462 Z " /><path fill="rgb(255,253,255)" stroke="rgb(255,253,255)" stroke-width="1" opacity="0.00392156862745098" d="M 626.5 464 L 635 481 L 629 480 L 620 468.5 L 626.5 464 Z " /><path fill="rgb(255,253,255)" stroke="rgb(255,253,255)" stroke-width="1" opacity="0.00392156862745098" d="M 601.5 465 L 610 469.5 L 606.5 472 L 601.5 465 Z " /><path fill="rgb(255,253,255)" stroke="rgb(255,253,255)" stroke-width="1" opacity="0.00392156862745098" d="M 405.5 467 L 406 468.5 Q 392.4 481.4 385.5 501 Q 382.5 501.5 384 494.5 Q 391.9 477.9 405.5 467 Z " /><path fill="rgb(255,253,255)" stroke="rgb(255,253,255)" stroke-width="1" opacity="0.00392156862745098" d="M 409.5 472 L 412 473.5 L 413 475.5 L 396 494 L 394 493.5 L 409.5 472 Z " /><path fill="rgb(255,253,255)" stroke="rgb(255,253,255)" stroke-width="1" opacity="0.00392156862745098" d="M 613.5 472 L 621 477.5 L 619.5 478 L 611 475 L 612.5 473 L 613.5 472 Z " /><path fill="rgb(255,253,255)" stroke="rgb(255,253,255)" stroke-width="1" opacity="0.00392156862745098" d="M 454.5 475 L 456 475.5 Q 441.8 487.8 441 513.5 Q 446.4 551.6 470.5 571 Q 483.9 582.6 509.5 582 L 544.5 575 Q 559 569.5 568 558.5 Q 581.7 544.7 582 517.5 L 573 483.5 L 574.5 484 Q 592.4 492.6 605 506.5 L 606.5 511 L 607.5 509 Q 617.5 516.5 619.5 532 L 620 525.5 L 618 522.5 L 620 522 L 621.5 524 L 628 531.5 Q 616.8 550.8 600.5 565 Q 579.5 584.5 549.5 595 L 525.5 600 L 510.5 600 L 476.5 594 L 445.5 585 Q 423.5 576.5 410 559.5 Q 403.3 550.7 403 535.5 L 403 533.5 L 406 512.5 L 419.5 498 L 454.5 475 Z M 607 512 L 607 514 L 606 542 L 607 548 L 609 539 L 608 518 Q 609 511 607 512 Z " /><path fill="rgb(255,253,255)" stroke="rgb(255,253,255)" stroke-width="1" opacity="0.00392156862745098" d="M 457.5 481 L 457 482.5 L 446.5 515 L 446 505.5 Q 448.3 489.8 457.5 481 Z " /><path fill="rgb(255,253,255)" stroke="rgb(255,253,255)" stroke-width="1" opacity="0.00392156862745098" d="M 614.5 481 L 625 485.5 Q 625.9 488.5 621.5 487 L 614.5 481 Z " /><path fill="rgb(255,253,255)" stroke="rgb(255,253,255)" stroke-width="1" opacity="0.00392156862745098" d="M 377.5 504 L 380 505.5 L 381 509.5 L 373.5 519 L 373 513.5 L 377.5 504 Z " /><path fill="rgb(255,253,255)" stroke="rgb(255,253,255)" stroke-width="1" opacity="0.00392156862745098" d="M 625.5 508 L 631 511 L 636 521.5 L 631 517.5 L 625.5 508 Z " /><path fill="rgb(255,253,255)" stroke="rgb(255,253,255)" stroke-width="1" opacity="0.00392156862745098" d="M 638.5 513 L 647 518.5 L 646.5 526 L 638.5 513 Z " /><path fill="rgb(255,253,255)" stroke="rgb(255,253,255)" stroke-width="1" opacity="0.00392156862745098" d="M 377.5 520 L 380 521.5 L 372.5 534 L 372 524.5 L 377.5 520 Z " /><path fill="rgb(255,253,255)" stroke="rgb(255,253,255)" stroke-width="1" opacity="0.00392156862745098" d="M 576.5 521 L 577 525.5 Q 573.8 548.3 559.5 560 L 560 558.5 Q 570.8 542.3 576.5 521 Z " /><path fill="rgb(255,253,255)" stroke="rgb(255,253,255)" stroke-width="1" opacity="0.00392156862745098" d="M 399.5 522 Q 398.5 539 402 551.5 L 400 550.5 Q 394.5 543.5 394 531.5 L 399.5 522 Z " /><path fill="rgb(255,253,255)" stroke="rgb(255,253,255)" stroke-width="1" opacity="0.00392156862745098" d="M 388.5 531 L 389 533.5 L 387 540.5 L 389.5 542 L 392 541 Q 392.5 551.5 399 557.5 L 393 552.5 L 389.5 547 L 386 547 L 384.5 550 L 378 545.5 L 379.5 543 L 381 541.5 L 388.5 531 Z " /><path fill="rgb(255,253,255)" stroke="rgb(255,253,255)" stroke-width="1" opacity="0.00392156862745098" d="M 644.5 532 L 645 534.5 Q 643.6 547.6 637.5 556 L 637 547.5 L 644.5 532 Z " /><path fill="rgb(255,253,255)" stroke="rgb(255,253,255)" stroke-width="1" opacity="0.00392156862745098" d="M 631 537 L 634 538.5 L 632 541.5 L 622.5 553 L 622 551.5 L 631 537 Z " /><path fill="rgb(255,253,255)" stroke="rgb(255,253,255)" stroke-width="1" opacity="0.00392156862745098" d="M 378.5 553 L 389 560.5 L 401 581.5 L 400 581.5 L 381 561.5 L 378.5 553 Z " /><path fill="rgb(255,253,255)" stroke="rgb(255,253,255)" stroke-width="1" opacity="0.00392156862745098" d="M 632.5 554 L 633 555.5 L 626.5 569 L 621 570 L 621 567.5 L 632.5 554 Z " /><path fill="rgb(255,253,255)" stroke="rgb(255,253,255)" stroke-width="1" opacity="0.00392156862745098" d="M 473.5 566 Q 487.7 573.8 507 576.5 L 499.5 577 Q 481.9 575.1 473.5 566 Z " /><path fill="rgb(255,253,255)" stroke="rgb(255,253,255)" stroke-width="1" opacity="0.00392156862745098" d="M 618.5 569 L 620 570.5 L 610.5 579 L 613 575.5 L 618.5 569 Z " /><path fill="rgb(255,253,255)" stroke="rgb(255,253,255)" stroke-width="1" opacity="0.00392156862745098" d="M 384.5 570 L 408 591.5 L 419 607 Q 405.8 601.9 397 591.5 Q 387.6 582.6 384.5 570 Z " /><path fill="rgb(255,253,255)" stroke="rgb(255,253,255)" stroke-width="1" opacity="0.00392156862745098" d="M 408.5 571 L 417 578.5 L 415.5 579 L 408 573 L 408.5 571 Z " /><path fill="rgb(255,253,255)" stroke="rgb(255,253,255)" stroke-width="1" opacity="0.00392156862745098" d="M 403.5 575 L 425 593.5 L 427 598.5 L 424.5 597 L 410 585.5 L 403.5 575 Z " /><path fill="rgb(255,253,255)" stroke="rgb(255,253,255)" stroke-width="1" opacity="0.00392156862745098" d="M 594.5 575 L 591.5 579 L 577.5 589 L 569.5 592 L 569.5 591 L 594.5 575 Z " /><path fill="rgb(255,253,255)" stroke="rgb(255,253,255)" stroke-width="1" opacity="0.00392156862745098" d="M 615.5 578 L 617 579.5 L 610.5 587 L 599.5 594 L 603 589.5 L 608.5 583 L 615.5 578 Z " /><path fill="rgb(255,253,255)" stroke="rgb(255,253,255)" stroke-width="1" opacity="0.00392156862745098" d="M 601.5 583 L 603 583.5 L 588.5 599 L 577.5 604 L 585.5 595 L 601.5 583 Z " /><path fill="rgb(255,253,255)" stroke="rgb(255,253,255)" stroke-width="1" opacity="0.00392156862745098" d="M 611.5 591 L 611 592.5 L 593.5 613 Q 563.5 635 509.5 633 L 502 632 Q 500.9 628.3 509.5 630 Q 527 624 550.5 624 L 560.5 621 L 611.5 591 Z " /><path fill="rgb(255,253,255)" stroke="rgb(255,253,255)" stroke-width="1" opacity="0.00392156862745098" d="M 440.5 593 L 454 599.5 L 452.5 600 L 440.5 593 Z " /><path fill="rgb(255,253,255)" stroke="rgb(255,253,255)" stroke-width="1" opacity="0.00392156862745098" d="M 454.5 593 L 477.5 599 L 512.5 605 L 514.5 605 Q 535.6 604.6 551.5 599 L 551.5 600 Q 536.7 608.7 511.5 607 L 476.5 602 L 456.5 595 L 454.5 593 Z " /><path fill="rgb(255,253,255)" stroke="rgb(255,253,255)" stroke-width="1" opacity="0.00392156862745098" d="M 430.5 595 Q 446.7 607.6 471 611 Q 472.3 614.3 467.5 613 L 462 616.5 L 465.5 618 L 474.5 613 L 478.5 613 L 494.5 620 L 512 624.5 L 485.5 627 L 468.5 622 L 443.5 609 L 430 596.5 L 430.5 595 Z " /><path fill="rgb(255,253,255)" stroke="rgb(255,253,255)" stroke-width="1" opacity="0.00392156862745098" d="M 416.5 597 L 454 621.5 L 451.5 622 L 431.5 614 L 420 602.5 L 416.5 597 Z " /><path fill="rgb(255,253,255)" stroke="rgb(255,253,255)" stroke-width="1" opacity="0.00392156862745098" d="M 576.5 597 L 577 599 L 564.5 607 L 552.5 609 L 552.5 608 L 576.5 597 Z " /><path fill="rgb(255,253,255)" stroke="rgb(255,253,255)" stroke-width="1" opacity="0.00392156862745098" d="M 570.5 610 L 571 612 L 549.5 620 L 550.5 618 L 570.5 610 Z " /><path fill="rgb(255,253,255)" stroke="rgb(255,253,255)" stroke-width="1" opacity="0.00392156862745098" d="M 540.5 614 L 550 614.5 Q 538.4 620.9 521.5 622 L 495 615.5 L 500.5 615 L 521.5 617 L 540.5 614 Z " /><path fill="rgb(255,253,255)" stroke="rgb(255,253,255)" stroke-width="1" opacity="0.00392156862745098" d="M 443.5 623 L 461.5 629 L 484.5 631 L 503.5 636 L 529.5 637 L 560.5 632 L 578.5 625 L 576.5 628 Q 559.9 638.9 537.5 644 Q 520.5 648 497.5 646 Q 462 642.1 443.5 623 Z " /></svg>