<svg xmlns="http://www.w3.org/2000/svg" viewBox="0 0 1024 1024"><path fill="#080909" stroke="#080909" d="m555.5 103 3.5.5-16 26-1 11 6.5 4.5 6-1 2.5 3.5-12 15 5.5 1.5 6-2 1.5 3.5-13 8-4.5 10.5-2.5-.5v-7l6-9q-4.5-1.5-3-9l4.5-5.5 4.5-3.5-11-5-2-9q5.2-20.3 18.5-32.5Zm-67 35h3l8.5 6.5-6.5 11.5-11.5-7.5zm-52 31 13 10 11-3 .5 3.5-5 11 7 12-2.5 1.5-12-3-9 11-3.5-1.5-1.5-12.5-12.5-5.5 2.5-3.5 9.5-4.5v-13zm3.5 9-2 9-7 5 8 3 2 8 5-6 8 1h1l-4-6 2-8 1-2-5 2h-3zm136.5 18 2.5 3.5-19.5 28.5-2.5-1.5zm35 1q7.6-1.1 9.5 3.5l1 6-4.5 5.5-4 1-6.5-4.5-1-6 3.5-4.5zm2.5 4-2 1-1 5 5 1 1-4zm-110.5 0q9.9.6 13.5 7.5 5.1 6.9 3 21l-5.5 9.5-5 1-3.5-2.5-1-10-4.5-4.5-5.5-4.5-2-8 4.5-7.5zm-1.5 5q-6 2-4 10l8 5 4 7-1 5 1 3h2l4-9q1-11-3-16-2-6-11-5Zm-127.5 2q13.4 2.7 19.5 12.5l4.5 10.5q10.5 2.5 16.5 9.5l-.5 2.5-2 1-13-8-1.5 5.5-4.5 4.5-8.5-1.5-2-7 4.5-5.5 5.5-1.5q-1.9-9.1-8.5-13.5l-10.5-5.5zm17.5 27-2 1-2 5 4 1q3-1 2-6zm209.5-1 3.5.5q1 7.5-4.5 8.5l-12 1-6.5 3.5-5 26-2.5 3.5-20 6-1.5-5.5 5.5-16.5 13-2 3.5-2.5q.6-10.9 7.5-15.5l16-2 2.5-2.5zM573 263l-10 2-4 9 1 3 12-4 2-9zm-123.5-25 3.5 2.5 4 9-9.5 6.5-5 1-6.5-9.5zm190 9 4.5 2.5 3.5 5.5 11-1 .5 2.5-5 9 4 9-2.5 1.5-8-3-10 8-2-12-8.5-3.5 1.5-3.5 8.5-3.5zm2.5 9-1 5-5 4 4 1 2 6q1-4 9-3l-2-2 2-6v-2l-5 1-3-3zm-175.5 0q8.3-1.3 10.5 3.5l1 5-4.5 6.5-6 1-5.5-4.5-1-4 3.5-6.5zm2.5 4-3 6 6 1 1-4zm-104.5 3 12.5 10.5-10.5 12.5-12.5-10.5zm.5 6-5 6 5 5 6-4-2-4zm151.5-5 4.5 1.5.5 5.5 6.5.5-1.5 4.5-5.5.5-.5 6.5-4.5-1.5-.5-5.5-7.5-1.5 2.5-3.5 5.5-.5z"/><path fill="#080909" stroke="#080909" d="m444.5 267 3.5 2.5 9.5 25.5q36.5-3 77-2l64 4 .5-1.5-1-8 5.5-6.5 6-1 6.5 4.5-4.5 1.5-6-1-3.5 7.5 2.5 5.5q47.3 3.2 86 15 26.8 6.7 43.5 23.5 6.6 6.4 6 20-4.4 25.6-15 45l-36 64-32 46-61 74-23 33q-12.2 20.8-17 49l-9 85-13.5 16.5-18.5 13.5-1.5 28.5-3.5-.5-.5-25.5q-9.4 8.6-27 9l-3.5-4.5-1-8q-2.3-56.2-9-108-3.3-22.7-11-41-10.8-23.2-26-42l-64-78-39-56-32-59-11-31-2-13q2-16 13.5-22.5 16.1-10.9 37-17 33.4-10.1 73-14l4.5-4.5 2-4-2.5-3.5q-10.4 1.4-13.5-4.5l-1-5 5.5-8.5 2-1 1.5 3.5q-5.2 1.3-4 9l12.5 2.5 2.5 2.5 1 7-2 4 9.5.5 26.5-2.5-9-27zm32.5 31-17 2 6 17-3 1-8-18-33 2-11 3 1 5 14 2 2 4v6l-6 9-4-1 6-10-2-5-5 1-5-1q-6-2-5-10-38 3-69 13-23 6-39 18-8 5-10 15-1 9 4 14 24 21 62 29l54 9 55 4h22l-1-3 2-7 5-4v-1l-6-4-9-14-9 6 2 4-1 6-6 5-7-1-6-7 1-6q3-7 15-5l14-9 2 10 4 6 13 6v4l-4 2-5 6 2 6q66 2 121-7l31-16 46-13 16-8 7-8-1-9-15-12-25-8 1-3q23 3 39 15l6 11-3 12q-9 9-23 14l-58 18-27 17-20 26-16 57-14 25-13 12-2 3 60-17q20-8 35-21 29-24 35-70 1-17-4-28-22 2-35 12l-33 43-8 16-3-1q1-13 8-19l12-14 15-23q9-9 22-14 46-6 79-26 7-5 10-14 1-13-5-17-16-17-42-23-38-11-81-15l-3 10-7 5-9-1-5 1 2 7-1 7q-2 4-10 3l-2-3 2-1h2l4-1-2-10 4-8 10 2 5-1q4-2 4-8l-4-3-47-3zm-183 74q0 10 6 17 14 16 38 22l34 8 61 7 34 7q36 8 61 28 12 10 20 26l8-20q2-21-7-30l-19-15-33-9-93-6-60-11q-30-7-50-24Zm437 0q-24 18-58 25l3 15q2 26-6 44-9 21-24 37-16 16-39 26l-22 8-65 17q-14 3-22 12l10 32 12-9 78-38 45-31q58-54 88-136zm-271 8-2 1q-4 1-3 7 1 3 8 2 3-1 2-7zm-154 20 8 16q16 19 40 31l24 11 50 18q18 8 33 20 18 17 30 41 9-6 11-18 0-23-11-33-15-19-38-30l-24-9q-14-5-32-5l-3-2 2-3q36 2 67 10 30 7 52 23 16 10 21 33l8-9-9-18q-20-24-53-34l-36-9-93-13q-28-6-47-20Zm295 6-32 4-45 1-9 2q17 3 29 12 13 10 17 29 1 16-4 26-8 17-20 30-18 20-43 34l2 6 30-13 20-14 18-25 18-62q6-16 18-26l3-2v-1zm-281 22 1 6 10 13 19 15 52 26 15 10q11 8 17 23l2 9v44l3 13 24 46 8 27 5 31 7 89h2v-1l13-12q-5-93-23-173-7-33-19-60-9-20-23-34l-28-23-21-12-36-16zm132 22 31 20q19 14 24 43 0 12-5 19v1l19-14 9-11q1-19-9-25-25-26-69-33Zm-114 9 3 7 19 16q27 11 49 28 10 8 14 23l1 35 7 15 3 2-3-19 1-11q4-33-11-46l-23-18q-34-13-60-32Zm73 16 16 12q17 14 28 35 12 22 19 49l16 77q9 55 13 115l7-4-2-31v-48q1-21 7-36v-7l-21-79q-9-28-26-47-21-26-57-36Zm-56 9 15 24 49 59h1l-1-32-7-14-19-17zm298 23q-22 21-49 36l-87 43-7 7v8l9 31 15-25 24-22 51-33 25-21 19-22zm-56 58q-29 16-52 37-31 29-33 86-1 35 3 67l7-3 2-2v-22l6-51 10-36q21-46 58-75zm5 4-14 13q-29 25-45 64l-9 34-6 56 1 12q5-4 15-3l5-61 9-43q17-42 45-71zm-61 180q-16 3-26 12l1 15 12-8 13-13 2-5zm-31 15-11 8-14 16 1 2q15-2 24-10z"/><path fill="#080909" stroke="#080909" d="M544.5 308q8.3-1.3 10.5 3.5l2 6-4.5 7.5-7 1-5.5-3.5-1-9 3.5-4.5zm2.5 4q-5 1-4 7l5 3 3-1 1-2-1-5zm-53.5 1 6.5 2.5q-.5 7.5-5.5 10.5l-3.5-1.5zm140 3 2.5 1.5 1 3-1.5 2.5-4.5-2.5.5-3.5zm-269 2 6.5.5-1.5 3.5q-38.2 4.3-61.5 23.5l-4.5 10.5-2.5-.5q-.5-14.5 9.5-18.5l17-9zm151 11q5.5-1 6.5 2.5l2.5 6.5 11-3 2.5 3.5-6 10 7 6-1.5 5.5-13-1-7 11-4.5-2.5-1.5-11.5-8-1-2.5-2.5q-.7-5.7 3.5-6.5l7.5-4.5zm2.5 6-2 10-9 6 9 1 1 3-1 4 1 4 6-9 6 1h4l-1-1-5-5 1-4 3-4-8 2-4-7zm133.5-4 7.5 3.5 1 4q-3.1 10.4-11.5 15.5l-4.5-1.5-1-11 2.5-1.5 2 7 4.5-2.5-.5-2.5-5.5-3.5-1-3zm-202 2 4.5 2.5 1 7-1.5 2.5-7 1-2.5-1.5-1-7zm-55 1 4.5 1.5-2.5 5.5-3.5-1.5zm215 2 6.5 4.5q.9 6.9-3.5 8.5-6.5 1-8.5-2.5l-1-4 3.5-5.5zm-243 7 4.5 2.5 12 15q-8.5 7-23.5 7.5l-1.5-3.5zm2.5 7-4 11v1l11-3zm52.5 5 3.5 1.5 3.5 6.5 7.5 2.5-.5 3.5-6.5 3.5-3.5 8.5-3.5-2.5-4.5-6.5-6.5-1.5 1.5-3.5 6.5-4.5zm161 0q11.9.1 15.5 8.5l1 5-14 13-.5 1.5-2 1-2.5-1.5q-.4-9.1-6.5-12.5l-3.5-2.5q-1-7.5 4.5-8.5zm-.5 5-7 6 9 10 10-8-2-4q-3-5-10-4Zm44.5 7 5.5 1.5-2.5 4.5-3.5-1.5zm-84 13 2.5 1.5-4.5 6.5-9 7-2.5-2.5 10.5-10.5zm-34 438q31.9.1 44.5 19.5 11 12.5 11 36-2.7 22.8-16.5 34.5-12.3 13.2-37 14-27.1-2.9-39.5-20.5-13-12.5-10-41 4.5-19.5 17.5-30.5 11.1-9.9 30-12Zm-2.5 5q-15 3-24 11-14 11-17 33 0 24 13 36 10 11 29 14 24 1 36-11 12-10 16-29 1-24-9-35-12-20-44-19Z"/><path fill="#080909" stroke="#080909" d="M504.5 839q25.3-2.3 33.5 12.5 7.2 7.8 5 25-2.7 11.3-10.5 17.5-8.2 8.3-26 7-11.2-2.3-17.5-9.5l-8-15v-13q3-12 11.5-18.5zm4.5 4-12 5q-8 5-11 16-2 18 7 25l14 7q15 2 22-5 8-6 10-19 0-12-5-17-7-12-25-12Z"/><path fill="#f6f6f5" stroke="#f6f6f5" d="M.5 0 1024 .5l-.5 1023.5L0 1023.5zM557 102q-14 12-20 31-1 8 2 13l10 4-9 11 3 7q-6 4-6 15l4 1 4-9 14-10-1-3-10 2-2-4 5-4q6-2 6-10l-3-3-2 1-7-1-3-3q4-23 18-35l-1-2zm-68 35-7 13 9 6h3l7-11zm-53 32-2 2v13l-10 5-2 5 12 4 1 2 1 12 4 1 9-11 10 2 4-1v-3l-7-9 6-12-1-4-12 4zm140 27-20 31 5 1 15-22 3-8zm38 0-5 2-3 4 1 8 5 3q8 1 10-4l-1-9zm-113 5-2 1-6 7q-1 7 2 11l7 4 3 5-1 3 2 7 6 2 4-2 5-11q1-14-4-20-4-8-16-7Zm-126 7-2 4 11 5 9 13-6 2-4 5 1 7 5 3 6-1q4-3 5-10l14 8 1-3q-5-8-15-10l-7-12q-6-9-18-11Zm228 25-3 4-2 2q-12-1-17 3-6 5-7 16l-14 2-3 3-5 17 2 3 22-6 6-28 5-4 15-2 4-7zm-155 5-12 9v3l7 8q10-2 15-9l-6-10zm191 9-2 11-8 3-3 4 9 4 3 12h3l7-7 6 2 5-1-4-8v-4l5-7-1-3-10 2-2-2-5-6zm-171 8-2 1-5 6 1 7 5 3 8-1 3-4q1-7-2-9zm-102 7-2 1-11 12 11 11 5-1 8-8-1-5zm152 1-3 3 1 4-6 1-2 4 7 1 1 7 4 1 1-6 7-2 1-4-7-2-1-5zm-74 4-1 5 9 23-31 3h-5l3-6-2-6q-4-4-12-3l-3-2 5-9-1-2-3-1-6 8 1 8 6 3 9 2-3 8-4 2q-40 4-72 14-23 6-39 19-8 6-11 16l1 15 9 28 32 61 43 62 64 78q15 18 25 41 8 19 11 43l10 115 6 3q15-1 24-9l1 1-1 23 4 2 2-2v-27l24-18 9-13 8-81q3-22 11-39l21-35 68-83 36-52 33-59q10-20 15-43 2-15-4-21l-15-14-32-13q-39-11-84-15l-2-2 1-8 3-2 8 2 1-3-4-4-9 1-6 9 1 4v3l-47-4h-73l-19 2-11-26zm61 551q-15 3-24 10-17 12-21 36-1 27 12 40 12 14 34 18 26 2 39-11 15-11 19-33 2-30-13-43-14-18-46-17Z"/><path fill="#f6f6f5" stroke="#f6f6f5" d="m439.5 179 7 6 6-2-.5 1.5-2 6 4 6-3.5.5-4-1-6.5 5.5-2.5-7.5-5.5-2.5 7-5zm173 23 4.5 1.5-2.5 4.5-3.5-2.5zm-109 4q7.2.3 9.5 5.5 4.3 5.7 2 18l-3.5 5.5-1.5-.5q1.4-8.9-2.5-12.5l-7.5-4.5-2-7 2.5-3.5zm-113 30 3.5.5-3.5 5.5-2.5-1.5zm252 21q1.5 3.9 7.5 3.5l-2 4 2 4-1.5-.5-7 3-3-6-1.5-.5 4-3zm-175 4 4.5.5 1 3-4.5 2.5-2.5-3.5zm101 3 4.5.5-2.5 8.5-11 3-.5-1.5 3.5-9.5zm-203 5q11 5.5 0 11-11-5.5 0-11Zm126 29 68 1 40.5 3.5q1.5 7-2.5 8.5l-8 1-8-1-2.5 1.5-1 8 2 7-9 4 1.5 2.5 6 1 5.5-3.5 1-9-2-6 2.5-.5 10 2 7.5-4.5 3.5-10.5q43.1 3.4 79 14l34 14 11.5 10.5 4 10q-.7 10.3-6.5 15.5-12.8 11.2-31 17l-58 15-19.5 15.5-26 37-5 15 3.5 1.5 9.5-18.5q13.4-13.1 22-31l9.5-9.5q13.2-9.3 34-11 5.4 12.1 3.5 31.5-7.6 44.9-37.5 67.5-15.3 12.7-36 20l-54 15 4-5 8.5-7.5 14-23 18-62q8.5-15.5 21.5-26.5 14.1-11.4 33-18l55-17q11.4-4.6 18.5-13.5 3.5-4 2-13l-9.5-11.5q-14.8-9.7-36-13l-1.5 3.5 26.5 9.5 12.5 8.5 3 10-4.5 6.5-26 13-48 14-24 13q-54.4 8.1-118 7l-2.5-4.5 5.5-7.5 4.5-3.5-2.5-3.5q-8.5-1.5-12.5-7.5l-4.5-13.5-2-1-15 10-5-1-6.5 3.5-2 10 4.5 5.5 9 1 5.5-4.5 1-8-1-3 7.5-4.5q3.1 9.9 11 15l3.5 1.5-1.5 2.5-2.5 1.5-2.5 11.5-71-4-57-9q-39.6-7.4-63.5-30.5-4.5-4.5-3-15l10.5-13.5q18-12 42-18 29.3-8.2 63-12l4 9q4.5 3.5 13.5 2.5v4q-5.2 2.3-5 10l2.5 1.5q7.8-4.2 8.5-15.5l-4.5-5.5-12.5-2.5.5-4.5 41-4 9 19 3.5-1.5-6-17zm55.5 9-3 1-6 7 1 7q2 6 13 4l5-6-2-9zm-52 5-4 5q-2 8 2 10l3-1 5-10zm138 4-3 3 1 3 5 1 1-4zm-266 1-35 9q-15 5-25 14l-7 11 1 6h4l2-9q7-10 20-14 19-8 44-12v-3zm151 11-2 1-3 3-2 11-7 3-4 6 1 2q3 3 11 2l1 13 6 1 6-11 10 2 4-1 1-2-8-10 6-7-1-6-11 3-5-8zm132 3-5 4 1 3-4 6 1 8 3 3 4-1 8-9 2-9q-2-6-10-5Zm-254 2-2 1-2 5 6 2 2-5zm52 0-2 1-4 5 1 5 5 3 5-1 3-4-1-5q-1-5-7-4Zm160 3-2 1q-4 2-3 9l6 4 4-1 4-6-1-3q-2-5-8-4Zm-242 7-8 21 2 5 20-5 3-2v-3l-6-7-8-9zm56 12-4 9-6 3-2 3q2 3 9 3l3 7 4 2 2-7 9-7-1-3-6-2-5-7zm159 0-7 4-5 6 9 11 1 7 5 1 4-5 11-9q1-8-3-9-3-8-15-6Zm47 11-3 3 3 4 5-2-1-3zm-238 12-2 1-1 4 5 2 2-3-1-2zm152 2-13 12 2 3h3l10-9 2-3-1-2z"/><path fill="#f6f6f5" stroke="#f6f6f5" d="m545.5 313 5.5 1.5 1 3-2.5 3.5-5.5-1.5zm-27 23 4 8 6-2 .5 1.5-3 4 6 7-1.5.5-8-1-2.5 1.5-2.5 5.5q1.3-7.8-3-10l-6.5-.5 8-5zm-150 15 7 8-10 3-.5-2.5zm214 9h4l6.5 5.5-2.5 4.5-7 6-5-8-3.5-2.5zm-288 13q27.2 20.8 68 28 55.6 10.9 122 11l33 6q20.7 5.8 32.5 20.5 6.8 8.7 6 25-2.1 13.9-8.5 23.5-8.1-17.9-23-29-23.3-17.2-56-25l-33-7-61-7-32-7q-27.9-6.6-43.5-25.5zm435 0 .5 1.5q-16.8 44.2-41 81-18 27.5-41.5 49.5-22.2 19.8-49 35l-78 38-11.5 7.5-.5 1.5-1.5-.5-9-31 17.5-9.5 60-16 32-11q27-11.5 44.5-32.5 23.2-24.3 25-70l-4-20q33.9-6.1 56.5-23.5Zm-272 8q6.3-1.2 7.5 2.5l-1.5 5.5-5 1-3.5-5.5z"/><path fill="#f6f6f5" stroke="#f6f6f5" d="M306.5 401q18.2 13.3 44 19l26 5 61 7 36 8q36.1 9.4 58.5 32.5l12 20-7.5 9.5-1.5-.5q-3-20.5-17.5-29.5-19.2-15.3-46-23l-30-7-45-6-2.5 1.5 1.5 4.5q60.9 5.6 92.5 40.5 11.8 11.2 14 32-1.1 14.9-10.5 21.5l-2.5-1.5q-11.2-25.3-31.5-41.5l-29-17-47-17-29-13q-19.9-10.6-34.5-26.5l-10-13z"/><path fill="#f6f6f5" stroke="#f6f6f5" d="m595.5 407 6.5.5q-13.5 11.5-21 29l-18 62q-7.7 15.8-20.5 26.5l-16 11q-17.6 4.4-30 14l-2.5-6.5q28.3-15.2 48-39 10.8-12.2 17-29 3.7-9.8 2-25-4.2-15.7-15.5-24.5-11.8-9.7-29.5-13.5l44.5-1.5zm-276 21 27 21 36 16 23 13q17.5 10.5 30.5 25.5 12.1 13.4 20 31 12 28 19 61 17.6 78.9 22 171l-14 13-6-84-4-29-10-35-24-47q-4.3-12.7-3-31l1-21q-3.3-22.7-18.5-33.5l-16-11-49-24-25.5-21.5z"/><path fill="#f6f6f5" stroke="#f6f6f5" d="M452.5 450q27.2 5.3 48 17 13.3 7.2 22.5 18.5 6.8 6.7 7 20-3.9 10.1-12.5 15.5l-15 11 1.5-2.5q4.4-8.1 3-22-7.7-27.3-28.5-41.5zm-114 10 22 14 43 21 19.5 16.5q9.7 10.8 9 32l-1 28 3 13h-1q-9.5-8.5-9-27l1-17q-3.4-23.1-19.5-33.5-18.8-13.7-42-23L340 463.5z"/><path fill="#f6f6f5" stroke="#f6f6f5" d="m411.5 475 37 18 16.5 14.5q17.1 19.4 27 46l8 25 15 63q-10.3 31.2-8 75l2 42-6.5 4.5q-5.4-103.6-27.5-190.5-12-52.5-45.5-83.5zm-57 9 39 21 16.5 13.5q6.9 7.1 9 19v28l-3-2-47-58zm298 23-1.5 2.5-12.5 16.5-24 21-52 34-26.5 22.5q-10.9 11.6-17.5 27.5l-8.5-37.5 4.5-5.5 88-44q27.9-15.6 50-37Z"/><path fill="#f6f6f5" stroke="#f6f6f5" d="m597.5 565-6 7-21.5 20.5q-24.2 25.8-36 64-10.5 42.5-11.5 94.5l-7 4q-4.5-34-2.5-74.5 3.7-54.8 35.5-81.5z"/><path fill="#f6f6f5" stroke="#f6f6f5" d="m602.5 569-3.5 4.5-28 38-15 34-7 35-6.5 63.5-14 3 .5-1.5q-.3-58.3 15-101 18-42.5 51.5-69.5zm-64 181 3.5.5-12.5 15.5-14 10-.5-14.5zm-29 15 .5 13.5q-8.7 8.8-24.5 10.5l-.5-1.5 9.5-11.5z"/><path fill="#809986" stroke="#809986" d="m555.5 150-5 6zm-116 28 5 6zm3 31-3 4-3.5-1.5 1.5.5zm78 8 .5 10.5h-1zm-157 46-7 8zm4 0 8 9zm154 7 7.5 1.5-.5 2.5-1-3q-7 1.5-6-1Zm126 3-7 8zm-293 3 9 10zm22 0-8 9zm101 17 16.5.5-16.5.5zm58 0 15.5.5-15.5.5zm-59 5 14.5.5-14.5.5zm56 0 17.5.5-17.5.5zm192 36 5 6zm-426 2-5 6zm73 10 5 6zm-78 18 5 6zm243 20-7 8zm-236 4 8 9zm239 0-6 7zm-76 18 19.5.5-19.5.5zm67 0 11.5.5-11.5.5zm102 3-7 8zm-170 2 10.5.5-10.5.5zm61 0 17.5.5-17.5.5zm22 15 7 8zm-3 4 6 7zm-201 35 9 10zm176 7 9 10zm-3 4 6 7zm133 7-11 12zm4 3-5 6zm14 0-5 6zm-236 3 8 9zm-2 5 5 6zm-9 5 8 9zm107 14-5 6zm30 6-7 8zm-119 13 .5 20.5h-1zm191 3-5 6zm-208 5 .5 26.5-1.5.5.5-1.5zm5 0 .5 16.5h-1zm7 4 .5 10.5h-1zm170 25q2 2.5-2 5l-3.5.5zm-11 3-20 21zm-3 10-11 12zm-45 15-6 7zm-35 90 .5 29.5h-1zm5 0 .5 31.5h-1zm1 41 .5 10.5h-1zm10 7 .5 14.5h-1zm5 0 .5 10.5h-1zm-19 12 .5 11.5h-1zm-12 13 .5 6.5-4 3q4.5-2 3.5-9.5Zm17 34 .5 15.5h-1zm-5 4 .5 11.5h-1zm-4 25q32.3-.8 44.5 18.5 10.4 11.6 9 35-3.7 19.3-16.5 29.5-11.2 12.3-36 11-18.4-3.1-28.5-14.5-12.7-11.8-13-36 2.7-21.8 16.5-32.5 9.1-8.4 24-11Zm-.5 16-12 6q-9 7-12 19v13l8 15q6 7 18 9 17 1 26-7 7-6 10-17 2-18-5-25-8-15-33-13Z"/><path fill="#809986" stroke="#809986" d="M508.5 843q18.8-.3 25.5 11.5 5.1 5.9 5 17-1.7 13.3-10.5 19.5-6.8 6.7-22 5l-13.5-7.5q-9.4-6.6-7-25 2.8-10.2 10.5-15.5zm-48 20 .5 12.5h-1zm12 40 6 7z"/></svg>