<svg xmlns="http://www.w3.org/2000/svg" viewBox="0 0 1024 1024"><path fill="#0d0d0b" stroke="#0d0d0b" d="m674.5 313 5.5 2.5 3 8 7 136 2 78-1.5 2.5-59.5 3.5 27 38 3 22 6 23 11 37 9.5 20.5 7-1q14.3 9.7 40 8l16-7h10l5.5 3.5q4 3.5 3 12-5.1 13.9-15.5 22.5l-17 10-25 9-17 12q-8.3 5.7-24 4-5.6-2.9-4.5-12.5l-9-14q-4.2-8.3-3-22l5-4-11-23q-17.2-14.8-28-36l-3-11-2-24-8.5-12.5q-35.6-17.4-59.5-46.5l-2.5-3.5-17.5 1.5q-7.1 22.9-19 41l-31 43-9.5 9.5q-8 5.6-24 3l-60-23-34-9-4 6q-20.8 8.2-33.5 24.5l-7 16-5.5 5.5-9 2q-7.4-1.1-10.5-6.5-4.7-6.8-5-18l1-3v-2l2-15 15-29 4-21q4.1-13.4 13.5-21.5l5-1 11 7h7l12 5 11.5 9.5 1.5 7.5q9.3 4.7 25 3 11.5-3.5 28-2l10 3 21 12 4.5-25.5 6-17-10.5-.5-60 3-4.5-1.5-6-69-6-122v-28l1.5-1.5 87-8zm-4.5 4-231 14-64 5-3 2 145 127 13 7 10-4 66-72 1-5 3-2 1-2-3-3-2-6q5-3 2-5l-5 1-14 9q-9 1-12-3l-2-3 6 3h7l17-10-1-2 3-5v-4l-19 9-8-2-5-6 9 5h4l15-8 4-7-5-8 1-6q7-1 9 4l6-5 9 3 3-4h5l5 3 2-3 6-2 3 4 2-1 1-2q7 0 11-3l10-12zm8 4-17 20v3l3 1 2 6-3 2-1 3 4 2 1 3-4 9h2l2 4-3 8 4 3q2 7-3 9 6 1 4 11l-4 2-5-3-3 4q-8 1-10-3l-3 4h-5l-5-3-3 4-2 1q-7 1-7-3l-6 3h-5q-4-2-2-8l3-2v-1l-2-2-31 35 110 99h1l-3-35-8-172zm-20 13q-2 5-9 4l-2-3-7 5-7-4-6 5q-8 1-8-4l-3 4-2 1-9-4-1 5 4 2 1 3-3 7 8 1v-7l8-4 31-2 7-8zm-288 5 2 82 8 127v2h2l96-112zm289 5-5 5 2 10 2 36q-5 3-13 2h-2l-10 2h-13l29-5 5 1 2-1-2-9-2-32-1-1-21 25 4 1v2h-5l-1-1-9 9 1 9h-1l-1-6-6 5 2 3-3 5 1 5 6-4q7-1 9 3l2-1v-1l4-3 9 3v-1l4-3 7 3 6-4 5 1h2l-4-6 3-9-4-3q-1-8 3-9l-2-2-2-2q-1-8 4-9l-3-3-2-2 4-8-2-2zm-14 2-30 3 1 7 14 8v1l-11-4h-2l1 10 8 2 23-26zm-35 13v2l-3 7 6 2 2-1-1-9zm2 14-4 7 1 2 3 1v4h2q4-3 2-12zm-35 62-26 29-16 12q-11 1-15-3l-39-33-96 111v1l43-1 192-12 2 1 64-3v-1zm34 109-25 4h10l1 2q-17 4-39 3l-2 2h25v2l-2 1-18 1q2 5 5 2l13 1v2l-12 1q18 18 43 30l9 15 3 27 3 9 28 36 10 24 9 4 7-2 5-6-1-3q-1-9 3-11l-15-35-11-38-5-29-27-39-2-3zm-92 5-4 3q-35 6-62 19l-5 23-4 6-7-2-16-10-11-3q-14-1-23 2-22 3-32-5l-10 2q-5 3-6 11l2 6 3 1 4 9 21 3 76 28q14 2 21-3 35-38 57-89zm35 1v1h19zm-241 6-10 14-6 26q-12 15-17 37-2 16 3 26l2 1-2-8q0-19 6-31l30-59 3-2q-2-5-9-4Zm169 0-29 10 1 2 33-11zm-21 2-4 1-1 2 9-2zm-135 3-2 1-9 14 1 1q16-1 24-11-5-5-14-5Zm17 6-1 2q-8 11-28 11-8 24-21 43l-6 22q-1 10 3 17l4 2 3-1 4-4q4-14 12-22l-5-9 3-2 5 7 3-1-4-12 3-1 5 9 3-2-5-13 3-1 6 11 14-7v-5l-9-14 2-11q5-8 17-9v-2zm350 120-6 8 2 5-4 9-9 5q-13 2-15-5l-3 2 1 11 18 3 11 6 3 4q16-10 39-15l24-15 7-10v-5l-2-2h-6l-16 7-9 1-3 9-3-1 2-7-4-2-5 11-3-1 3-9-4-2-4 10q-2 4-4 1-1-8 3-11zm71 11-4 6q-10 11-24 18l-30 10-15 8q-9 5-22 5l4 8q13 1 20-4l17-12 30-11 8-5q10-8 16-20zm-102 27-2 2 9 14h8l10-4v-1q-9-9-25-11Z"/><path fill="#0d0d0b" stroke="#0d0d0b" d="M345.5 412q3 1.5 0 3l-81 16 1-2zm-8 31 2.5.5-.5 1.5-35 8v-1zm-3 30 5.5.5-25.5 8.5-54 13v-1zm14 115q10.1-1.1 13.5 4.5l-.5 1.5-12-3-2 1-.5-2.5zm293 0 1.5.5 7 10-1.5 1.5-5.5-5.5zm-193 41 4.5.5-.5 1.5-10 5-.5-2.5zm216 55 6 16 2.5 1.5-2.5.5-4.5-3.5zm-61 1 8.5.5-4.5 2.5-17 3-68 8v-1l22-5zm-4 23 8.5.5q-13.1 5.4-31.5 5.5v-1z"/><path fill="#fefefe" stroke="#fefefe" d="M.5 0 1024 .5l-.5 1023.5L0 1023.5zM666 313l-219 13-79 8-2 2v47l8 134v2q4 15 3 35l3 2 71-2h1l-6 19-3 22-20-11-15-4-30 3-18-3-1-2-2-6-10-9q-8-6-21-6l-9-6-8 2-11 17-6 26q-12 15-17 38-2 18 5 29l8 5q9 2 13-2l5-6 7-16 21-18 12-5 4-7 27 7 70 26q15 2 23-5l38-50q12-19 20-42l16-2 5 7q23 26 57 43 7 5 9 15 0 19 5 34l10 16 20 23 8 19h-1l-4 6 3 19 9 14 2 11 5 3 17-2q14-5 24-15l25-9 14-8q13-9 18-27l-3-8-7-6h-7l-21 8q-25 0-39-9l-4 2-9-16-13-43q-6-19-8-42l-28-38 48-3 12-2 2-3-4-108v-2l-5-73v-21l-3-17q-4-5-15-3Zm-323 99-78 17-1 2h7l62-12 15-5zm-8 31-29 8-1 2 36-8v-1zm2 29-54 14-26 9-1 2 83-21 1-2zm271 212-85 13-1 2 65-7 25-5v-2zm-4 23-29 7 1 1q18-1 33-6v-1z"/><path fill="#fefefe" stroke="#fefefe" d="m661.5 318 12.5.5-11.5 12.5q-7.5-2-9.5 1.5l-1.5 2.5-2.5-1.5-.5-1.5-6.5.5-1.5 3.5-4.5-.5-.5-1.5-3-1-5.5 2.5-1.5 2.5-3.5-1.5-.5-1.5-6.5 1.5-1.5 2.5-7-4-3 1-2.5 1.5 2.5 8.5 2.5 1.5-1.5 3.5-1.5.5-1.5 5.5-13 7h-6l-9-4 4 5q2.9 4.1 11 3l18-8 .5 1.5q-4 1-3 7l.5 1.5-15 9-7 1-9-4 5 6 8 2 21-11 .5 2.5-3 2 3.5 7.5 1.5.5-.5 3.5-2.5.5v4L585.5 417l-4-3-4 3-1-3h-4l-7 7 1.5-2.5 1-4-2.5-.5h-4l-9 6q3.5-2.5-1-5l-30 24 6.5-7.5 6.5-7.5 5.5-4.5 1-2-1.5-2.5-4 1-19 16 1.5-2.5.5-1.5 1.5-.5.5-1.5 1.5-.5 6-8q-1.7-4.2-3.5-1.5l-10 6-2-4-10 5 .5-1.5-.5-3.5-13 7 .5-1.5 2-6-2.5-1.5-7.5 6.5.5 2.5 2-1-.5 1.5-2 6 2.5 1.5 8-5-3.5 4.5.5 3.5h4l6-5-7.5 8.5 1.5 3.5 19-14-4.5 5.5-7 9 2.5 3.5 9-6-10 11L373 337.5l58.5-5.5 149-8zm16 4L689 530.5l-1.5-.5L580 432.5l30.5-34.5q3 1.5 0 3l-1.5.5-1 7 2.5 3.5q7.8.8 10-4l6 4 5.5-3.5.5-1.5 6 3h5l3-4 8 3 3.5-1.5 1.5-2.5 7 2 2.5-1.5 1-3v-2l-4-7q4-1 3-7l-2.5-4.5-1.5-.5 3-7-5-6q5.3-1.2 4-9l-5-5 1.5-1.5 2.5-1.5q1.3-6.2-2.5-7.5l-2.5-1.5z"/><path fill="#fefefe" stroke="#fefefe" d="M645.5 335q.8 4.8 7 4l6-4-6 7-34 3-5.5 3.5-.5 6.5-5.5-.5 2-8-4-3-1-5 1.5-.5 7 5 6-5 7 4 7-5q1.6 3.9 8 3l4.5-3.5zm-275 6L478 437.5 381.5 549q-9.8-100.7-11-208Zm287 4 4.5 3.5-4 7 5 7-4 7 4 6-3 7 .5 1.5-2.5-1.5-1-7 1-2-3-25zm-20 2 1.5.5-6.5 5.5.5-1.5 2.5-3.5zm13 6 1.5.5-1.5 4.5-4 1 1.5-2.5zm-40 6 1.5.5 2 9-3.5.5-2.5-1.5zm2 14 2.5 1.5 1 8-2.5 3.5-4.5-6.5zm21 13 .5 1.5-6.5 9.5-7 1-.5-1.5q9.8-2.2 13.5-10.5Z"/><path fill="#fefefe" stroke="#fefefe" d="m662.5 386 1.5.5-2 10 3 5-1.5.5-7-1-4 3-8-2q-3 7-6 2l-7-1-6 4-6-3-8 4-.5-3.5q4-1 3-7l-1-2 3.5-4.5 3 9 26-2 3 1 6-3h2l1.5-.5zm-86 49L686 535.5l-7.5 1.5-91 3q-99.4 8.1-203 12l3.5-4.5L480.5 441l37 31q5 5 15 5 15.9-6.1 24.5-19.5z"/><path fill="#fefefe" stroke="#fefefe" d="M524.5 442 513 454.5l-2.5 3.5-3.5-2.5zm2 17 1.5.5 1 4-3 5 .5 1.5-11.5-7.5 1.5-2.5 2 3 2 1zm16 4-5 6-4 2 1-2zm79 81h2l2.5.5 28 40 4 23 12 43q5.2 20.8 16 36-5.6 3.9-3 16l-5.5 5.5-8 1-6.5-4.5-10-24-27-34q-6.5-14-6-35l-8.5-15.5q-24.9-13.1-44.5-31.5l13-1-1.5-2.5h-15l-1.5-1.5 18.5-1.5 1.5-1.5-1.5-2.5-13.5-.5 23.5-1.5 7.5-2.5-9-2zm20.5 43q-3 10 6 13l3-1-8-11zm22 97 1 14 5 5 4-1-2-2-6-15zM517.5 550l4.5.5Q500.5 602 464.5 639q-5.8 4.2-17 3l-77-28-21.5-3.5-9-13v-6l5.5-7.5 8-2q9.6 7.4 28 6l25-3q20.6 3.4 33 15h5l4.5-7.5 3.5-20.5 19-8q19.6-8.4 44-12zM351 587l-2 1q-5 2-1 4l3-1 12 3v-1zm97 42-4 2-2 3 1 2 11-5v-1zm106.5-79 10.5.5-10.5.5zm-241 6 7.5 3.5-9 12-7 19-18 34q-5.5 12-4 31l1 2h-1q-4.1-7.9-3-21 4.4-24.1 17-40l7-28z"/><path fill="#fefefe" stroke="#fefefe" d="m475.5 558 2.5.5-23.5 8.5-.5-1.5zm-151 4 1.5.5 3 10-3.5 1.5-3.5-9.5zm7 1 7.5 2.5-4.5 4.5-1.5-1.5zm12 4 10.5 8.5-.5 1.5-6 1 .5-1.5zm-6 6 4.5 6.5-3 2zm-9 7 6.5 10.5v9q7.8 4.7 9 16l-14.5 6.5-.5-3.5 2-4-3-10h1l3.5 6.5 3.5-1.5zm-32 37 2.5 10.5h-1l-2.5-3.5-2 1 .5-1.5zm20 9 2.5 4.5q-2 4.5-4 1l2-3zm-24 1 3.5 16.5-4 1-1 4 2.5 5.5 4-1 1 2 3-1 .5 1.5-3.5 5.5-6 2q-6.7-6.2-4.5-21.5zm15 1 5.5 8.5-9.5 13.5-1.5-8.5 6-2zm384 60 14.5 5.5-3.5 5.5-2 1-2-1-4 3-2-1-5 6 .5-1.5 1-7-1-5zm64 0 5.5 2.5q-1.2 11.3-9.5 15.5-10.1 9.4-25 14l4.5-5.5.5-1.5 2.5 1.5.5 1.5 4.5-3.5 3.5-5.5 1.5.5.5 1.5 3.5-2.5 3-10-3.5-1.5-3.5 2.5-.5-2.5-7 1v-1z"/><path fill="#fefefe" stroke="#fefefe" d="m762.5 700 .5 1.5-13.5 17.5-9 6-30 11-19 13-13 4h-6l-2.5-7.5 16.5-3.5q21.3-12.2 48-19l23.5-16.5zm-103 9 3.5 2.5-2 7v2l-.5 1.5-2.5-11.5zm23 2-.5 1.5-3.5 9.5-4 2-.5-1.5 4.5-9.5zm13 9 .5 1.5-4.5 12.5-2.5-1.5zm-25 8 3.5.5-4.5 12.5-5.5-6.5 3-1zm10 4 5.5 3.5-.5 1.5-9 3-.5-1.5z"/><path fill="#ccaf47" stroke="#ccaf47" d="m669.5 317 5.5.5-5.5 6.5 4-6q-5 1-4-1Zm-109 2 13.5.5-13.5.5zm58 1 11.5.5-11.5.5zm36 11 7.5.5-8 1-1.5 2.5.5-1.5zm29 1 .5 10.5h-1zm-52 4 3.5 2.5-2.5-1.5-5 4zm27 0-6 7-6.5-.5q10.3.8 12.5-6.5Zm-286 1 6 7zm246 0 3 4q-2.7-5.2-5.5-1.5zm-249 2 9 10-8.5-7.5-.5 9.5zm246 7 1.5.5-3 2-.5 7.5-7.5-1.5 2.5-3.5-1.5 2.5.5 1.5 5.5-.5q-1.5-7 2.5-8.5Zm29 0 4.5.5-23.5 26.5-7.5-2.5-1-10 1.5.5 11 4 .5-1.5-14-8 .5-3.5 3.5-2.5.5-1.5 16-1v1l-3.5 2.5.5 1.5 6-5h3l1 2 2-1 2.5-.5zm-261 1 5 6zm223 1 .5 1.5-4.5 7.5.5-1.5.5-4.5 2.5-1.5zm-222 5 7 8zm263 3-1 3 5-2 3.5 33.5q-3.5 6.5-15.5 4.5l2.5-3.5-.5-1.5-5.5 4.5 2 1-9.5 1.5.5-1.5 5-9-9.5 8.5-4 1-1.5-8.5 8.5-8.5 1 1 5.5-.5-.5-1.5-3.5-1.5zm-74 4h2l2.5 1.5-1.5-.5-1.5.5 2.5 3.5zm-203 2 .5 12.5h-1zm-4 2 .5 16.5h-1zm300 13 .5 1.5-2 3 3 2-1.5-.5-2.5-1.5zm-9 2 2 5 3.5 1.5-4.5 7.5zm-286 7 .5 12.5h-1zm297 0 .5 4.5q-5.8 3.3-.5 6.5-6.7-3.2-.5-6.5zm-246 1 5 6zm7 0 5 6zm9 8 5 6zm167 0-6 7zm-173 1 6 7z"/><path fill="#ccaf47" stroke="#ccaf47" d="m652.5 396 1.5.5-7.5 2.5-2.5-1.5zm-34 1 1.5.5.5 1.5 10.5.5-11.5.5zm64 1 .5 10.5h-1zm-26 3 1.5.5-5.5 3.5-1-2 2 1zm-209 2 5 6zm149 2-6 7zm7 0-5 6zm30 1 5 3h5l1.5-.5-6.5 1.5zm-189 1 5 6zm243 1 .5 12.5h-1zm-315 2 .5 10.5h-1zm194 3 1.5 3.5-1 2 5.5-4.5 4.5.5.5 2.5 5-3 2.5 4.5-45.5 49.5v-2l-3.5 2.5.5 1.5-2-1v2l-1.5-.5-.5 1.5-7.5-1.5 2-1-1-2 3-6-1.5-2.5-7 5-3.5-2.5-.5-1.5-1.5 2.5 1.5 2.5-19.5-17.5 5.5 4.5 8.5-8.5-1.5-.5-6 4-2.5-3.5 9-11-1.5-.5-15.5 11.5.5 1.5-4-5 2.5 1.5 5-7-1.5-.5-6 2-.5-3.5 3.5-4.5-9 5-1.5-4.5 2-3-2-1 2.5-4.5 6-4 1.5 2.5-3 6 1.5.5 12-7 .5 3.5-.5 1.5 10-5 2 4 11-7q4.2 1.8 1.5 3.5l-5.5 7.5-1.5.5.5 1.5 15-12 4-1 1.5 2.5-5.5 6.5-7.5 6.5-5 6 1.5.5 27-22q4.5 2.5 1 5zM520 446l-13 10 4 2 10-11zm74.5-31-5 6zm-226 1 .5 11.5h-1zm315 1 .5 10.5h-1zm-100 10-3.5 4.5 1 2-2-1zm105 1 .5 10.5h-1zm-211 10-5 6zm115 5 5 6zm-123 4-5 6zm96 0-5 6zm124 1 .5 10.5h-1zm-4 7 .5 10.5h-1zm-225 2-5 6zm96 0-5 6zm53 1 5 6zm-104 3 5 6zm-53 5-6 7zm167 1 5 6zm71 2 .5 15.5h-1zm-236 1-5 6zm163 1 6 7zm69 5 .5 10.5h-1zm-56 1 6 7zm-184 2-5 6zm182 2 10 11zm14 7 10 11zm1 7 9 10zm44 2 .5 11.5h-1zm4 4 .5 13.5h-1zm-33 2 9 10zm-1 5 13 14zm-244 9-5 6zm262 2 8 9zm17 4 .5 13.5h-1zm-16 3 8 9zm-18 11 12.5.5-12.5.5zm-27 1 12.5.5-12.5.5zm-44 2 12.5.5-12.5.5zm-17 1 10.5.5-10.5.5zm40 3 10.5.5-10.5.5zm-215 7 12.5.5-12.5.5zm162 2 23 1 1.5 1.5-1.5 2.5-1.5-.5 2-1-.5-1.5-20-1-2 1-2.5-.5zm-137 1 10.5.5-10.5.5zm129 0 18 19zm-165 1 19.5.5-19.5.5zm177 3 11.5.5-11.5.5zm-236 3 8.5 1.5-3 1 3 7-5.5 3.5-.5-2.5zm-2 1-1.5 2.5 4 10-10.5 2.5-.5-1.5 1.5.5 2.5-.5-2-4zm15 2 1.5 1.5-4.5 4.5z"/><path fill="#ccaf47" stroke="#ccaf47" d="m342.5 567 5.5 9.5-1.5 2.5q-7.1.9-9.5 6.5l-1.5 4.5-1.5-.5-5.5-9.5-.5 2.5 8 27-3.5 1.5-4-7-.5 2.5 3 10-2.5 4.5-5-9-2.5.5 3 7-2.5 6.5-4-7-2.5.5 4 10h-1l-.5-1.5-2 3-1.5-.5-3.5-4.5-3.5 2.5 1 11-6 2 1.5 8.5 1.5-.5-2.5 5.5h-2l-2.5-.5-.5-1.5-4 1-2.5-7.5 1.5-2.5 3.5-.5-3.5-16.5-1 2-.5-1.5 1.5-2.5 1.5-.5-1-2h1l.5 1.5 3.5 2.5.5 1.5.5-4.5-3-7 13.5-25.5 1 3 1.5-.5-2-4 3.5-9.5 1 2 1-2q18.6-.4 26.5-11.5zm-3.5 7v8l3-2zm32.5 13 10.5.5-10.5.5zm-35 14 5 6zm135 31-6 7zm3 4-5 6zm-28 10 12.5.5-12.5.5zm189 14 5 6zm98 35 5 1 5-1 1 3 4-3 2.5 1.5q-.3 8.2-5 12l-.5 2.5v-2l-1.5-.5-.5-1.5-1.5.5-5 7 .5 1.5-2-1v2l-3-4-1.5.5-5 6 .5 1.5-6 2v-1l1.5-.5-1.5-2.5-2.5 3.5.5 1.5-8 2v-2l-2.5 1.5.5 1.5-5 2 .5-1.5-.5-2.5-2.5 3.5.5 1.5-11 5-1-2 2 1 2.5-9.5h-1l-3.5 7.5-13-7-17.5-3.5.5-1.5 1 2 1.5-2.5-1-2 2.5-5.5 1 3 1-2 10 1 2-1 .5 1.5-4 9 1.5.5 3.5-2.5 3-9-.5-1.5 1.5.5 4.5-7.5 1 2 4-5 3 1 4-3h2l2-1-.5 1.5 1.5 6.5 4-8 3 2 1.5-.5-1 5 2.5 1.5 3-5 5-3-.5 1.5 1.5 5.5 1.5-.5 1.5-6.5 1 2 5.5-3.5zm-72 30 10.5 2.5-2 1-3.5 5.5-3.5-.5-3-7z"/><path fill="#ccaf47" stroke="#ccaf47" d="m674.5 728 10.5 6.5-1.5.5-3.5-2.5-4 7 .5 1.5-6.5-.5v-4z"/></svg>