<svg xmlns="http://www.w3.org/2000/svg" viewBox="0 0 1024 1024"><path fill="#10100f" stroke="#10100f" d="M591.5 245h9l12 3h6l12 4q9.7 3.8 15.5 11.5l6 8 5 11q2.8 8.7 1 22l-5 18q-6.2 13.3-15.5 23.5l-5.5-.5q9.6-10.4 16-24l6-16v-8l1-1-1-1v-9l-4-9-10.5-14.5-5-4-17-7-18-2-1-1-1 1h-10l-19 7q-23.3 15.7-52 26h-9l-8 2h-14l-17.5 5.5.5 1.5 2 1h13l1-1h9l5 1 8-4 .5 2.5-4.5 3.5-24 11q-11.8 13.2-26.5 23.5l.5 1.5 11-4 18-12h4l21-19 3-1 .5 1.5-25 24-14 26-8 11 4.5.5q7.5-3 11.5-9.5 4.1-12.4 12.5-20.5l16.5-11.5 8.5-15.5 1.5.5-14 33-1 6q4.4 11.1 12 19l4.5 11.5 1.5-.5 1-14-7-14v-8q1.9-7.7 7.5-11.5l1.5-.5 8.5-10.5 4-1h2q5.6-.1 7.5 3.5l1 9-4 10-9 14-2 7v9l3.5 4.5 2.5-.5 1-5 11-20 19-19 4-11v-7l2-8 6.5-8.5q5.3-5.7 18-4 7.9 2.1 11.5 8.5l3 6-1.5 2.5-2.5-1.5-1.5-2.5-1.5.5-4 7-1 6 1 3-1.5 2.5-7.5 4.5 4.5 6.5q11.8 8.7 27 14l5.5 4.5 1 7-1 4-28 40q-33 59-69 115l-39 58-24 43-18 27-1 4-4.5 4.5-4 2-10 10-35 29-4 3h-5q-3.1-1.4-2.5-6.5l2-4v-4l12-46 4-12 8-16 58-97 64-94 45-72 10.5-14.5 3.5-.5-1-7 5-4q-2.5-13 4.5-16.5l1.5-.5q1.3-5.2-1.5-6.5-3.6-2.9-11-2-6.7 2.3-10.5 7.5l-2 4-1 10-3 10-12.5 15.5-8.5 7.5-14.5 28.5-3 1-5.5-3.5-3-6v-8l3-12 9-13 4-13-2.5-3.5-6.5-.5-.5-2.5-2.5 1.5q-3.2 11.3-12 17-2.9 3.6-2 11l8 12 1 14v2l1 4-4.5 6.5q-1.2-2.2-6-1l-2.5-2.5-5-17q-6.6-6.4-10-16v-9l5-11-1.5.5-14.5 12.5-8 15-6.5 6.5-7 2h-2l-5.5-.5v-3l21-37-4.5 3.5q-7.9 7.6-19 12h-7l-2.5-1.5-1-4 3.5-4.5 20.5-16.5.5-1.5 1.5-.5 2.5-3.5 13.5-6.5-5.5-.5-1 1h-12l-6.5-3.5q-1-5.5 2.5-6.5l21-6h12l1-1h7l10-2 36-17 17-10zm.5 84-3 8 33 19 2 2 3-3-1-4-18-10-14-12zm-6 11-8 17-23 37-74 110-29 46-26 45-13 17 1 1 8-4 8 1q4 3 3 13v1l7-4 9 1q3 3 3 9l13-20 22-40 29-42 31-49 52-87 21-29-18-12-58 95-42 58-61 104-4 3 21-40 37-64 53-75 51-82zM423 614l-13 6-2 2-2 15-6 22q1 2 3 0l6 2 6 7 28-23-1-4 2-7v-7l-4 1-11 8-5-2 2-18zm.5-281 4.5 3.5 1 3-3.5 1.5-3.5-2.5v-2zm-27 15q4-.5 4.5 2.5l3 5-2.5.5-5.5-5.5zm42 8 1.5 4.5-2.5 1.5-1.5-2.5 2-1zm-15 17 3.5 1.5-1.5 2.5-3.5-2.5z"/><path fill="#10100f" stroke="#10100f" d="m548.5 375 2.5.5q.5 4-2.5 4.5l-1.5-.5zm-48 1q6.3-1.2 7.5 2.5l-1.5 2.5-1.5.5 1 3-3.5.5-2.5-1.5 1-2-3-1q-.5-4 2.5-4.5Zm-46 9 3.5 2.5-2.5 3.5q-4.5 1-5.5-1.5l2.5-3.5zm36 1q3.8-.7 4.5 1.5l-2.5 5.5q-5.1.6-6.5-2.5l2.5-3.5zm39 0 4.5.5q1 5.5-2.5 6.5-4-1.5-2-7Zm-112 17q3.8-.7 4.5 1.5l-1 2 4.5-1.5 7.5 4.5 3 5 1 8q-2.6 8.9-9.5 13.5l-8.5 3.5 1.5 2.5 13.5 10.5.5 1.5q1.5-2.5 3 1l6.5 5.5-2 1 3 1-2.5 4.5-1.5.5-.5 1.5-4.5-3.5.5-1.5q-4.6.6-6-2l-22-17-.5 17.5-1 1q2.3 1.3 1 6l-2.5 4.5-2-1-1 1-3.5-3.5v-27l1-1-1-4 2-9-1-4 1-1v-10l2.5-6.5h2l5-4h5zm-2.5 7-5 2-3 4v2l1 1v14l2 1 12-5 6-8-1-5-3-4zm16 47q-4 2 1 4l3-1v-1q-1-3-2-1zm205.5-54 4.5 1.5-2.5 3.5-1.5-.5zm-253 2q4.8-.7 6.5 1.5l1 3-5 16-5 33-5.5 14.5-8 1-5.5-5.5-4-7-8.5-19.5-4.5 8.5-6 19-3.5 3.5-3 1-5.5-3.5-13-49v-11l3.5-.5 7.5 19.5 7.5 26.5 8.5-22.5 5.5-8.5 6-1 3.5 3.5q4.5 16.5 12.5 29.5l1.5-.5 5-33 4-14 2.5-3.5zm126 0 1.5.5-4.5 6.5-1.5.5-1.5 4.5-3.5 2.5.5 1.5-1.5-.5 2-6 2.5-2.5 1.5-.5.5-3.5 1.5-.5.5-1.5zm196 0 1.5 4.5-.5 2.5-2-1-.5 1.5v2l1 2h-2l.5 2.5 1.5.5-2 1 2.5.5 1-2q2.3.8 1.5 4.5l-2 11q2.2 1.2 1 6l-1 3-.5 6.5-1.5.5 2 1-1 7-4.5 6.5-5.5-2.5 2-1-.5-1.5-5 2-2-3-1.5-.5-.5-3.5-2.5-.5-1-2 1-2-4-2 1-2-3-2 1-2-.5-2.5-2 1-1-3-1.5-.5 1-3-3-2 1-3 .5-1.5 5-1q3.5 2.5 3 9l1.5.5-1 3 2.5.5 1.5-.5-1 5 1.5 2.5 3-1 .5 3.5-2 1 3 1-1 2 5-2v-9l1-1-1-2 1-1v-9l2-10-1-3 2-4-1-1 2-4 .5-1.5 2 1zm-4.5 49-2 3h2l1-2 2 1v-1zm-204.5-47 2.5.5 1 3-2.5.5-1.5-.5-1.5 4.5-2-4-.5 1.5.5 1.5q-1.5-2.5-3 1l-3 1-9.5-2.5.5-1.5 1.5-.5-.5-1.5 14-2 2 1zm-36 2 1.5.5-2.5 4.5.5-3.5zm3 3 2.5 7.5v2q1.2 5.8-2 7l1.5 2.5 1.5.5-3 1 .5 1.5 2-1 1.5 7.5-2 1 1 2-3 1-3 6 .5 1.5h-2l-1.5-.5.5-7.5 1.5-.5-.5-1.5-1.5-.5 1.5-2.5 1.5-.5-3-2v-2l1-11v-2l.5-5.5q1.3 2.3 2.5-.5zm207 7 2 5 1.5-.5-1.5 2.5q-4.5 1-5.5-1.5l2-1-.5-1.5-1.5-.5zm-9 9 1.5.5-.5 2.5-1.5.5-.5 1.5-1.5.5-2.5 3.5-1.5-2.5 6-4zm-1 15 2.5.5-.5 4.5-2.5.5.5 2.5 1.5-.5-1 3 .5 1.5-2 1-2-2-2.5 1.5q-1.1-6.1 1.5-8.5l1.5-.5.5-1.5 1.5-.5zm-70 36 3.5 1.5q.5 4-2.5 4.5l-5 1-2.5-1.5 1.5-3.5q4.3.8 5-2Zm109 4q6.3-1.2 7.5 2.5l1 4-4 21 1 5-1 3q2.8 1.8 1 8l-1 1-1 17-3.5 4.5-4 2-5.5-3.5-1.5-2.5-3.5-2.5-22.5-34.5-1.5.5v29l-1 1-1 12-1.5 1.5-3.5-1.5-2-9v-22l1-2v-23l2.5-2.5h5l6.5 5.5 25.5 36.5 1.5-31.5 3-16zm-252 1 6.5 3.5-.5 1.5-7 1-1.5-3.5zm180 3q7.5 0 11.5 3.5l1 3-2.5 2.5h-9l-1 1q-7.5-1.5-11 1h-2l-2.5-.5.5-1.5-8 3-.5-3.5 5.5-4.5zm-312 9 3.5 1.5q0 6 3 9v2l-1 6h1l.5-1.5q3 2 2.5 7.5l-2 2 .5 3.5-4.5-2.5-1-8 .5-1.5-1.5-.5.5-1.5 2.5-.5-.5-2.5-3 2-2.5-12.5zm288 4 1.5 4.5.5 13.5 18-3 5.5 2.5 1 2-2.5 3.5-22.5 3.5v17l1.5 1.5 23-6h8l4.5 2.5 1 3-2.5 3.5-5 2-15 2-8 3-9 1-6.5-3.5-3-12 1-1v-16l1.5-7.5 1.5-.5-2-1 .5-4.5 2.5-.5zm-224 9 1.5.5-3.5 5.5-.5-2.5 2-1zm-30 1 3.5 1.5.5 3.5 1.5.5-.5 1.5-2.5 1.5q.8 4.8-2.5 5.5l-1.5-.5-.5-1.5-1.5.5-1 3 .5 1.5-2.5 1.5-3.5 8.5-2.5 1.5-.5 2.5-1.5.5-1 2 2 1-1.5 2.5-1.5.5 1 3h-1l-.5-1.5-1.5.5 1 2-3 1-.5 1.5-1.5-.5 1-5-2-1 .5-1.5 2.5-.5-4-2 2.5-3.5-.5 1.5.5 1.5 3-3q1.8 3.8 3.5.5 3.8-17.2 12.5-29.5zm-23 16 2.5 6.5-4.5 6.5-1.5-.5 1-2-2-1q-1-5.5 2.5-6.5l1.5-.5zm55 0 .5 1.5-1 3-4 7 .5 1.5-2.5.5q.8 4.8-2.5 5.5l-2-1-.5 1.5 1 2-4.5 4.5-1.5-1.5-.5-1.5-2 1-.5-1.5q4.6.6 6-2l3-6-.5-1.5 2.5-.5q-1-4.5 1.5-5.5l1.5.5 1.5-3.5 1.5-.5.5-2.5zm37 0 1.5 2.5-1 3-.5 1.5-1.5.5.5 1.5-2.5-1.5.5-1.5 1.5-.5 2-3zm146 0 .5 2.5q1.8 7.2-2 9l2 2v11l-3.5 4.5h-2l-4.5-3.5-1-8 1.5-6.5 1.5-.5v-2zm-158 17 .5 1.5-3 2-2.5 4.5-.5-2.5 2-1 1.5-3.5zm129 16 3.5 2.5-.5 1.5-3.5-1.5zm-8 26q4-.5 4.5 2.5l-.5 7.5-2.5-1.5-3-7z"/><path fill="#fefefe" stroke="#fefefe" d="M.5 0 1024 .5l-.5 1023.5L0 1023.5zM589 245l-19 6-19 11-34 16-12 1-7 2h-13l-20 7q-3 1-2 5l4 3 7 2q4 1 6-1l6 1-8 3-23 20-9 10 1 2 5 3q17-3 26-14l1 1-20 35 2 3q10 1 15-3l5-5 10-18 9-7 4-3-5 12v6q4 10 11 18l5 17 4 2 3-1 3 1 3-4q1-5-1-6l1-5 1 4 6 5h5l13-27 20-20 5-12 1-11 2-5q4-7 14-9l7 2q3 1 2 6l-2 1q-7 4-5 17l-5 4q-1 4 1 6l-3 1-44 67-9 16-64 94-27 43-26 47-10 15-1 6-4 4v3l-6 16-12 47q-1 7 3 9l6-1 54-45 21-33 19-35 34-50 49-79 30-52 24-34 1-4 3-2 2-6-1-5 5-1q10-10 16-23l6-24-2-18q-4-12-11-19l-8-8-20-8h-6l-6-2zm-166 88-2 6 5 2 3-1-1-4q-1-4-5-3Zm-21 13q-2 4 2 5h1l-2-4zm-4 1-3 3 1 2 6 4q1 2 2 0l-2-5-1-1-1-1zm42 8-2 1-1 2-2 1 2 3h4l-1-2 1-2zm-17 18-1 3 5 1v-2q-1-3-4-2Zm14 1 1 3 3-1q-1-3-4-2Zm113 0-4 6 3 1q4 0 3-5zm-47 1-3 1-3 4 3 1-1 2q1 4 7 3l2-8zm-50 10-4 5 4 2 4-1q2-1 1-4t-5-2Zm39 0-4 2-3 4 6 3 3-1 2-5zm39 0-3 3 1 4 4 1 2-3-1-4zm174 15-2 1-5 13-1 17-1 1v14l-1 3-6-6-12-21q-2-5-3-2v-1l-3-5-4-4-2 1-1-2-1 2h-1l-1 2-2 1h4v2l-4 2 3 1 3-1-1 2 3 7 20 32 10 7 5-1 4-6v-7l1-2v-13q2-6 1-14l1-3-1-3 3-12q-1-3-2-1l-1-1zm-68 2-2 3h-2l-2 4h-1l-2 3h8l7-2-1-5zm-224 1-10 5-3 9-1 29-1 1v23l1 3q1 3 7 2l2-2 2-27 33 25q4 1 4-2l-1-7-26-21 9-5q6-5 8-12 1-11-4-15l-8-5h-2l-1-1zm-27 1-4 1-5 9-4 17-3 24-1 1q-8-13-13-29l-5-4-4 1-7 11-7 20-7-24-5-12-1-6-2-4q-4-1-5 3v8l12 47 2 4 5 3 5-1 2-2 11-29 12 28 7 5 6-1 3-3 3-10 2-16 2-6v-6l6-20v-6zm126 0-5 1-1 2-1-1h-8l-19 4-2 3 6 3 17 1q-2 3-1 11h3v-1l-1-1-1-1h2l2-1-1-1 2-1v-2l2-1v2h1l-1-3 1-3h3l-1-3 2-1 2 3 2-1-2-1 1-3 2-1-1-1-1-1zm4 1 3 3h1l-1-2zm-55 3-3 4v49q3 1 1 3l2 2v-1l3-1-2-3 2-1 1 2 2-3-3-1 5-1v-2l-1-1-2-2h2v-20l-2-17-3-6zm202 13-2 4 1 1-2-1-1 3h-2l1-2-1-1-2 3v8l-1 1 1 5q1 4-1 6-1 10 1 17l4 2 3-7v-6l2-7q1-7-1-10v-2l1-1v-12zm-37 9-4 1q-3 1-1 3-1 2-2 0l-1 4h-1l-1 2 9-1 2-3v3l4-1-3-2 2-1q1 2 2 0l-4-5zm-118 3-10 16h2l1-2 2-1 2-4q3-2 1-3l2-1zm101 12q-3 9-10 14l4 6 3-1v2q-3 1 2 3h2l8-7v-1l2-1-1-4-7 2q-2-2-3 1l2 1-4 1v2h-1l-1-2 4-1-1-2 2-1-1-4 1-3-1-2q2-2 0-3Zm24 9-2 3-2 1v2l-3 5 1 1 3-1h2l3-1q3-1 2-5l2-1v-1q-1-3-2-1zm-45 1q-3 2 0 3l3-1zm3 23-7 5 1 3 8-1 2-2-1-3zm110 4-4 4-2 7-1 13-1 1v26l-28-38-5-4-5 1q-3 1-2 5v2l-1 2v46l1 4 5 2 2-4 1-17 1-3-1-4v-2l1-1 1-13 23 36 8 6q5 1 7-2l2-3 2-8v-29l2-8 1-15q-1-5-7-4Zm-254 2-2 2 1 4 5-1 4 1 1 1-1-3-4-4zm177 3-20 5-2 5-2-3-3 6q2 3 5-2l1 1-1 2-2 1v2l-2-2-2 3 1 2-2 5 1 5-2 11v20l1 3 7 5h8l23-6h5l4-2 1-2-1-5-7-3-28 6q-3-6-2-16l12-3h8l4-2q2-1 1-5l-3-3h-10l-11 3-1-18 9-2h10l1-1h13q3-1 2-6-5-6-16-4Zm-210 1-2 1-1 2-3 2-1 2h-1l-1-1-1-1-1 3 3 1-3 4-2 1 1 4-2 5 5 2h-1l-1 3-2 1h2l-1 2 1 2h-1l-1-4-2 8 1 5 1-2v-2l2-1q3 0 2-4l2-1 1-1v-8h-1l-2-1-2 1-1-1 3-1-1-1h2l2-3 1-7 5-2 5-5-1-1 3-1zm-31 2-2 1-4 6 1 3 1-2 2-1 1-3 2-1zm43 0-3 7h2v-4l3-1zm154 2q-2 3-3 1l-4 1h3v2l-3 1-1 4-2 1 1 1q4 1 6-1l2 1 6-4-2-5zm-191 2-2 5h-1l-1-1-1-1v2l-1 2-2 1 2 1-2 1v2l-2-1 1 3h-3l-5 10v11l-1 2v2l-3 9-4-3q-5 2-2 4l-1-1-2 1 1 4-2 1 2 5 6 4 2-3 2-1-1-1 1-2 2-1v-1l3-1-1-2h2l1-4 2-1 4-12q-1-6 1-7l-1-3h-1l-2-1-3 2h2v2h-1l-2 4-2 1v-1l-1-3 2-1 7-9 2-5 2-1 3-7zm-72 1-3 3 1 13 12 44 6 3 2-6 3-2q2-1 1-4l3-2 1-1 1-6-1-3 2 1 2-7 2-1 1-2 1 3h2l-2-3 5-3-1-1 1-2-2-7q-2-3-7-2l-6 8-8 23-14-44zm117 2q-5 2-2 4l-1 2-2-1-1 4h3l-1 4-2-1q-4 2 0 4-3 0-3 5h-1l-2 3-2 1-1 2h-1l-5 9q1 3 6 3l4-7-1-4 9-7 6-10v-6l-2-4zm126 14-1 3 4 1v-1zm4 6-3 3 1 4-4 1 2 3h-1q-3 1-1 3h-2l-2 5v16l2 3 3 1q5 1 6-2v-32zm-206 7-2 2h2v2l-1-1-3 2 3 1-4 5q-1 5 2 7l7-6-2-1 1-2q0-6-3-9Zm49 12v3l-7 4 1 2-3 4q-1 6 2 8l2-1v4h2l3-3 1-7-3-2 4-6-1-5zm21 1-1 2-2 1 2 3q2-1 0-2l2-1zm107 22-1 2 5 3 1-2q-1-4-5-3Zm-8 26q-3 1-2 5h3l1 5h3v-8q-1-3-5-2ZM420 703l-13 7-2 3v6l-2 7v11l-1 1v34l1 3q1 3 7 2l2-4v-12l1-2v-2l-1-2 2-8 30 24q2 4 9 3l3-5-2-4q-13-14-29-23l12-7 6-8 1-4q1-8-2-11l-8-8q-6-2-14-1Zm68 0-5 2-7 11-7 20-4 19-2 4-1 15q1 2 5 1l7-21 22-2 4 17v6l6 4q5 1 6-3l-1-15-3-8 1-10-2-2-3-4-6-23-4-7zm152 1-4 2q-5 1-4 6l4 2q1 4-1 6v28l1 1 1 20q3 1-1 3l1 5 4 2h6l6-2 23-14q9-7 12-19 1-17-7-23-8-9-19-14l-11-3zm-104 1-12 7-6 10q-1 8 3 11l6 4 20 10 5 8-1 9-6 4-6-1-6-5-5 1-3 4 2 7q4 5 12 6h7l10-4 7-8 2-8-1-7-3-7-11-11-18-8-3-2 1-4q3-6 11-8 7-1 11 2 1 2 2 0l-1-5q-5-7-17-5Zm62 0-17 3-5 5 1 2-1 19-1 1v27l2 7 3 4 6 2h9l26-6 2-3-1-3-6-4-27 5-3-5v-10l-1-1 2-2h9l1-1 11-1 4-3-1-3-3-3h-10l-1 1-11 1-2-20 15-1 1-1h19l3-4-1-2q-8-6-23-4Zm-224 1-1 1-24 2-1 1-2-1-4 2-2 3-1 25-1 1v28l3 7 5 2h9l17-4 13-1 4-3q1-8-3-9h-9l-26 5-2-3v-16l2-2 16-1 9-3q2-1 1-4l-4-4h-11l-12 3-1-16 39-4 2-4-4-4h-11z"/><path fill="#fefefe" stroke="#fefefe" d="m591.5 250 17 1 16 4q11.8 3.7 18.5 12.5l5 7 5 11 1 16-2 9-2.5 3.5q-1.5-3.5-3-1l-4 1-2.5-4.5 7-4-3.5-1.5-5 3-4.5-4.5 1-1 2-5-1.5-1.5-4.5 4.5-.5 1.5-5.5-1.5q.9-5.4-1.5-7.5l-2.5 1.5q1.5 6-1.5 7.5l-5 1-1.5-6.5-7.5-8.5-8-3h-6q-10.2 2.8-15.5 10.5l-3 9v7l-4 12-19 19-13.5 26.5q-5.6-1.9-4.5-10.5l3-11 10-16 3-12-3.5-6.5-9-2q-6.1 1.4-8.5 6.5-3.2 7.8-10 12-3.2 4.3-3 12l7 14v14l-2 1-5-13-9-12-1-9 7-15 2-8 5-9v-3l-5 4-6.5 13.5q-12.6 5.4-20.5 15.5l-7 14-4.5 5.5-10 5-.5-1.5q11.4-14.1 19-32l8.5-9.5 17.5-16.5 2-3q-1.3-2.7-2.5-.5l-4 2-19 17h-3l-8 4-16 11-6 1v-1q15.1-9.9 27-23l22-10 6.5-4.5-.5-2.5h-3l-8 4-9-2-1 1-12 1-5.5-1.5.5-1.5 21-5 2 1 1-1h10l10-2 2 1 14-5 40-22z"/><path fill="#fefefe" stroke="#fefefe" d="m607.5 299 4.5 3.5-2 1q1.4 11.1 8.5 16.5l8 4h11l5.5-3.5.5-4.5 5-1 .5 2.5q-6.8 16.2-17.5 28.5l-5-4-16-7-13.5-9.5-2-4 8-6v-9z"/><path fill="#fefefe" stroke="#fefefe" d="m618.5 305 5.5.5q-3.7 3.3-4.5 9.5l-4.5-8.5zm15 5q3.9 2.6 4.5 8.5-2.4 2.6-8.5 1.5l-2.5-1.5 4-2zm-100 3 2 3 5-1q4 1.5 2.5 8.5l-3 7-9 13-3.5 15.5-2.5-8.5-6-8v-8q1.5-6.5 6.5-9.5l1.5-.5zm53 27 4 5 7.5 4.5-54.5 86.5-4.5 2.5-12 18 2 1-35 50-36 62-19 37-5.5 7.5-1.5-.5-3.5-4.5-4-1-5 1-5 3-.5-1.5 12-15 53-88 60-88 39-62zm15 12 17.5 10.5-23 33-41.5 68.5-1.5-.5 4-7 2-12-3.5-4.5-4-1-4 2 1.5-2.5zm-189 59q9.5-1 13.5 3.5l1 7-6.5 7.5-11 4-1.5-5.5q2.3-1.2 1-6-2.7-1.8-1-8z"/><path fill="#fefefe" stroke="#fefefe" d="m549.5 449 .5 1.5-3.5 7.5-.5-1.5zm-4 10 .5 1.5-2.5 5.5-.5-1.5zm-36 36-.5 1.5-7 15-8 12-2 5v6l2.5 2.5h4l6 3 2-1-.5 1.5-19 28-22 40-12.5 19.5q-.9-5.6-5-8l-6-1-8 5-.5-5.5 16-23 46-80z"/><path fill="#fefefe" stroke="#fefefe" d="m503.5 528-.5 1.5-2.5 4.5.5-1.5zm-83 87 5.5.5-2 19q1.3 2.8 6.5 1.5l13-9 .5 3.5-2 6v6q2.8 1.8-1.5 3.5l-26 21-5-6-8.5-2.5 6-24 1-11 3.5-4.5zm-1 97q10.1-1.6 13.5 3.5l1 4-5.5 7.5-6 4-9 3-1.5-8.5v-9zm225 1q19.9 3.1 29.5 16.5l3 10q-2.1 9.9-9.5 14.5l-12 8-7 2-.5-14.5-2-10v-13l-1-1zm-158 5 6.5 22.5-1.5 1.5-13 1-.5-2.5z"/><path fill="#bea75f" stroke="#bea75f" d="m640.5 257 5 6zm-1 6 3 4zm7 1 3 4zm-55 20 6.5.5-6.5.5zm14 3 4 5zm17 5 1.5.5 1.5 7.5 5 1 5-6 1.5 2.5-3 5 4.5 4.5 2-2 5-1q3.5 2-1 4l-4.5 1.5 2.5 4.5 5-2q1.8 3.1 3.5 1.5l-1.5 2.5-2-1-4.5 1.5q1 5.5-2.5 6.5-5.1 2.4-14 1-7.4-2.1-11.5-7.5-4.1-4.9-5-13l2-1-.5-1.5 1.5.5.5-1.5 1 2 6.5-2.5q-1.5-6 1.5-7.5Zm-3.5 13-4 2 5 8q0-6 4-9zm15 5-3 7-4 2 3 1q6 1 8-1-1-6-4-9Zm24.5-18 .5 7.5h-1zm-73 1-4 5zm-81 4-5 6zm4 1-16 17zm89 7 .5 10.5-2 1 1-1zm-119 1-8 9zm10 5-3 4-3.5-.5q5.1.1 6.5-3.5Zm44 0 2.5 1.5.5 2.5 2.5.5-2.5.5-2-4-1.5.5.5 1.5-1-1-4.5 3.5zm-44 6-3 4zm106 0-1.5 2.5 1 7-1.5.5-.5-2.5q-1.2-6.2 2.5-7.5Z"/><path fill="#bea75f" stroke="#bea75f" d="m595.5 320-.5 1.5 4 6-3-2-2-4zm-141 1-3 4zm114 2-18 19zm-66 1-3 4zm-20 1-.5 1.5-2.5 4.5.5-1.5zm90 1-5 6zm21 3 14 12 18.5 9.5 1 4-4 3 .5-1.5h-3q-14.1-11.4-31.5-19.5l1.5-5.5 3.5-.5zm-172 6 1.5 2.5-.5 1.5 1.5.5-1.5.5q-2.7-1.2-1-5Zm97 0 .5 6.5h-1zm-19 1 .5 6.5h-1zm62 1-7 8zm26 4 3 4zm43 4 6.5 1.5-5.5 1.5zm-229 3 3.5 1.5-.5 1.5-2-1-.5 1.5.5 1.5-1.5-2.5zm196 0 1.5 2.5-3 2 2-3zm-201 3 4 5zm84 1-5 6zm31 2 3.5 4.5-2-1zm-72 1 1.5 2.5-1 2 1 2-1.5.5-.5-2.5zm-2 1 .5 2.5-2 1 1 2-2-1 .5-2.5 1.5-.5zm84 0 .5 6.5h-1zm-62 1 1 3q4.8 1.3 6-1l2.5 1.5-8.5.5q-2.5-1-1-4Zm68 2 1.5 6.5-2-1zm24 16 .5 2.5-4.5 3.5-1.5-2.5h1l.5 1.5 3.5-2.5zm-99 10 1.5.5-4 3 1 2-2-1zm42 1 1.5 3.5-2 1 1-3zm-7 1-1.5 2.5 1.5 2.5 1.5.5-1.5.5-2.5-3.5zm217 13 3.5 2.5.5 1.5q1.2-2.3 2.5.5l-3 12 1 3-1.5.5-1.5-.5-.5 1.5-2.5.5-.5 2.5-2-3 4.5-1.5-2-1-1-3h2l1-2-1-2 3-2-1.5-4.5q-1.5 3.5-3 1l-1.5.5-1 2 3 1-.5 1.5-2-1-1.5.5 3.5-9.5zm-68 2 5.5 2.5 1 5-7.5 2.5h-8l2-3 1.5-.5 1.5-3.5 2.5-.5zm.5 1v5h2l2-3zm-215.5 0 3 1 3.5 1.5-1.5-.5-2 1-1-1-2.5 1.5 1-2zm-36 1 5.5 2.5-.5 1.5-1-2-4-1zm126 0 2.5 1.5.5 1.5 1.5-.5-.5-1.5 3.5.5.5 1.5 1-2 1 2-4 2v-2l-3.5 1.5-1 3 2 1-2.5 1.5-2-3-1.5.5 1 3-1.5.5-1.5-.5-1 3 1 3h-1l-.5-1.5-1.5.5-.5 2.5-1.5.5.5 1.5-2 1-1.5-.5.5 1.5 1.5.5-.5 1.5-2.5-.5q-1.5-7.5 1-11l-12-1 5-3 1.5-2.5.5 2.5.5 2.5 2-5 3 1 .5-1.5-1.5-2.5-5 2-3.5-1.5 6.5-1.5h8l1.5.5.5-1.5 2.5.5-2 1-.5 1.5-1.5.5.5 3.5 1.5-.5 2-3-.5-1.5q1.2 2.3 2.5-.5zm-7.5 8-4 6 1 1 3-2-1-2h2v-2zm-43.5-4 2.5.5q3 3 3 9h-1l-1.5-5.5-3 5-1.5-.5-.5 5.5-.5-10.5zm203 1 1 2 2-1 4.5 3.5 9 13-6 2-1 2 1.5 3.5 1.5.5-1 3 2 1 .5 2.5 2-1 .5 2.5-1 2 3 2-.5 1.5-2.5-1.5-12-21 1.5.5q4.5 1 5.5-1.5l-.5-1.5-2.5 1.5 1-2-1.5-3.5-3.5 2.5 2 1-.5 1.5-3.5-1.5-1.5-3.5-4-1-1 2-1.5-.5 4-3-.5-1.5 2 1 .5-1.5-4-1 2-1 .5-1.5 1.5-.5zm-350 2 .5 8.5h-1z"/><path fill="#bea75f" stroke="#bea75f" d="m699.5 412 1 2-1.5-.5-.5 2.5-.5-2.5zm-299 4 .5 8.5h-1zm299 2 2.5 1.5-1.5-.5-1.5.5-.5 1.5-.5-1.5zm-234 2 1.5 1.5 1 10v2l-.5 6.5-1-7-2 1-1-2-1.5-.5 2-1 .5 1.5 2.5-.5-2-1-1-2q3.2-1.2 2-7zm195 1 1 2 1-2 1.5.5v12l-1 1v2q2.3 3.2 1 10h-1l-.5-3.5-2.5.5-.5 1.5-1.5.5-.5 1.5-1.5.5-1 8 2.5-1.5q1.5 3.5 3 1l1.5.5v4l-3.5 7.5-3.5-2.5q-2.3-6.7-1-17 2.2-1.3 1-6l-1-5 1.5-.5q1.8 2.7 3.5-1.5l.5-1.5 1.5-.5-.5-1.5-5 3-.5-6.5 1.5-2.5 2 1h2l1.5-.5-1.5-2.5-2 1-1-2zm37 1 .5 6.5h-1zm-272 2-4 5zm282 0 .5 9.5-2 1 1-1zm-308 4q2.8 1.3.5 2.5l-.5 7.5zm35 0-1.5 2.5-4.5 5.5 3.5-4.5zm246 0 1 2-1.5-.5 1 2-1.5.5-.5-2.5zm-272 1 1 4 1.5.5-1.5.5q-2.7-1.2-1-5Zm217 1 4 2 1.5-.5q-2.5 1.5 1 3-3.1 1.8-1.5 3.5l-4 1 .5-1.5-.5-1.5-2 3-9 1 1-2 1.5-.5.5-3.5q1.3 2.3 2.5-.5-2.2-1.2.5-2.5zm57 1 12 18 1-3 .5 5.5-5 2 1-2-3-1 2-1-.5-3.5-3 1-1.5-3.5 1-4-1.5.5-3.5-1.5.5-1.5 1 2 .5-2.5-2-1zm14 0 .5 7.5h-1zm-189 2 .5 4.5-2 1q2.5 1.5-1 3l-2.5 4.5-1.5.5-1.5 2.5-1.5-.5zm38 1-2.5 3.5-15.5 22.5 1-3-1.5-.5 12.5-18.5zm6 5q4.8.3 6.5 3.5l1 4-2 10-4 7 1.5.5 1.5-.5-7.5 11.5-1.5.5v2L534.5 497l-1.5.5v2L517.5 524l-1.5.5v2l-1.5 2.5-1.5.5q2.5 1.5-1 3l-4.5 6.5-5 1-4-3h-4l-2.5-2.5v-6l2-5 8-12 7-15h-2l3.5-4.5 1.5-.5-1-1 3-3 32.5-46.5zm-85 2 1.5.5q1.7 8.2-1 12l2 1-.5 2.5-4.5.5 3 1-2.5 3.5-1-2-1.5.5 2 3-3 1-.5 1.5-1.5-2.5q2.5-1.5-1-3l.5-8.5 2.5-1.5 3.5-6.5 2.5-.5zm240 2 .5 6.5-2.5 1.5v-1l1.5-.5zm-298 2 4.5 3.5-4-2-.5 13.5zm200 0q2.8 1.3.5 2.5l1 2-1 3 2.5 5.5 7-2 1.5 3.5-2 1-.5 1.5-8 7h-2q-4.2-1.7-1.5-3.5l-.5-1.5-3 1-3.5-6.5q6.5-5 9.5-13.5Zm-2.5 15-1 3h2l-1-1 3-1zm-207.5-14 .5 23.5h-1zm32 2 7.5 6.5-2.5 1.5z"/><path fill="#bea75f" stroke="#bea75f" d="m660.5 448 2.5.5q1 4.5-1.5 5.5l-.5-1.5 1-2h-2zm21 1 3.5 1.5.5 1.5 2.5.5-.5 1.5-2-1q-1.2 2.3-2.5-.5zm-264 2 3 4zm286 1 2 1 1.5-.5q-2.3 1.3-1 6l-4.5 6.5 1.5-2.5q2.8-2.7 2-9zm-71 2 4 2q1.3-2.2 2.5.5l-.5 1.5-1.5.5q.8 4.8-2.5 5.5l-3 1h-2l-3 1-.5-1.5 3-5-.5-1.5 2.5-1.5z"/><path fill="#bea75f" stroke="#bea75f" d="m700.5 454 3.5.5-.5 1.5-2-1-1 2-1.5-.5zm-278 1 3 4zm165 0 3.5 1.5-1.5-.5-2.5.5 2 1-1.5.5q-3-1.5 0-3Zm98 0 2.5.5.5 3.5 1.5.5 1.5 2.5 5-2 .5 1.5-2 1 5 3-3.5.5-9.5-7.5zm-253 1 2.5 3.5-3.5 1.5q-4.5-2-1-4l2 1zm9 1 5.5 6.5v5q-.5 3-4.5 2.5l-2.5-1.5 1-2-.5-1.5 2 1 2.5-4.5-3-1 2-1zm-10 5q1.3 2.8 5.5 2.5l-1 1 2.5 3.5zm-69 7 4 5zm45 1 .5 2.5q-1 3.5-6.5 2.5l-2.5-3.5 5.5 2.5 2.5-1.5zm183 8 3.5 1.5-1.5.5-2-1-4 2v-1zm-137 8 2.5 4.5-1.5-.5-3.5-.5 3-1zm-40 2 7.5.5-3 1 1 1-5.5 5.5-4.5 1.5-2 9 .5 1.5q-1.5-2.5-3 1l-2.5.5.5 1.5 2-1 2 1 1.5-.5v8l-1.5 1.5-1.5.5q.5 4-2.5 4.5l-1.5.5v2l-1.5 2.5-.5-5.5q2.5-1.5 1-7l1.5-1.5 1.5-.5.5-2.5 1.5-.5-5-2 2-5-1-4 2-1 2-3-2-4 1.5-.5 1 2 1.5-.5.5-1.5 1.5-.5-.5-1.5q1.2 2.3 2.5-.5l.5-1.5zm-31 2 1.5 2.5-2 1-1.5 3.5-1.5.5-1.5 2.5-.5-3.5 3.5-5.5zm43 0 2.5 1.5-3 1v2l-.5 2.5-1.5-.5zm184 0 2.5.5-8 5 1 8h-1l-.5-3.5-5 10-2.5-.5 1-3-1-2 1.5-2.5h2l1.5-.5-4-2 2.5-5.5 2 3 2-5q4.6.6 6-2Zm-30 2 3.5 1.5 2 5-6.5 4.5-2-1q-1.2 2.2-6 1l-.5-1.5 2-1 .5-3.5 3.5-1.5-.5-1.5-2.5-.5 3.5-.5q1.5 2.5 3-1Zm-191 2 .5 4.5-3.5 7.5-1.5.5q-2 7-7 11l1.5.5h2l3-2-.5 1.5 1 3q-2.5 1.5-1 7l-1.5 1.5.5-1.5-.5-1.5-2.5 1.5-.5 2.5-2.5 1.5-1.5 4.5-1-2-1 5-2.5.5 1 2-4 6 1.5 2.5 2.5-3.5-1-2 1.5.5 3.5-2.5.5-3.5 2.5-.5q-2.5-1.5 1-3l1.5-3.5.5 1.5-2.5 6.5-1.5.5 1 2h-2l-.5 2.5-1.5-.5 1 2-3 1-.5 1.5-1.5.5-1 2 .5 1.5-1.5.5-2.5 3.5-5.5-4.5-2-5 2-1-1-4 5.5-3.5 3.5 2.5 3-9v-2l1-2v-11l4.5-9.5 3.5-.5-1.5-2.5 4.5-2.5-2-1 2-1 1-2-.5-1.5 1.5-.5.5-1.5.5 1.5-1 2 1.5.5zM377 518l-1 2-3 2 1 3h2l1-3 2-1v-1zm-14 30v2l2-1v2q2 3 3 0l-1-2zm276.5-54-2 3-9.5-.5 9.5-.5zm-80 1 1.5.5-.5 3.5-1-2q-2.7 1.2-.5 2.5l-.5 1.5-2.5-.5 1.5-3.5 1.5-.5z"/><path fill="#bea75f" stroke="#bea75f" d="m611.5 496 1.5.5-.5 2.5-6.5-.5q4.3.3 5.5-2.5Zm-178 1 1.5.5 2 4v6l-6.5 10.5-8.5 6.5 1 4-4.5 7.5q-5 .5-5.5-3.5l4.5-8.5 1.5-.5.5-1.5 1.5-.5-.5-1.5 1.5.5 1.5-2.5 1.5-.5q-.5-4.5 3-5-3.7-1.7-.5-3.5l1.5-.5-.5-1.5q1.3 2.3 2.5-.5l-3-1 .5-3.5 2 1 1.5-2.5q-2.7-1.8 1.5-3.5ZM419 529l-2 3h-1l-1 2 3 1-1-1 2-1v-1q2-2 0-3Zm-99.5-31 2.5 7.5h-1zm333 2 .5 17.5h-1zm41 6 .5 9.5h-1zm-378 2 1 3 3-2 .5 2.5-3 1 .5 1.5 3 1 2-6 1.5 4.5h-2l-1.5 2.5-2-1-1 4zm346 0 1.5.5-1 1-.5 12.5zm-315 2 2.5.5-5 3-3.5 8.5-.5-1.5q1.6-7 6.5-10.5Zm215 0 1.5.5-1.5 2.5 1.5.5-.5 1.5-3.5-1.5.5-2.5 1.5.5zm-208 1q3 2 2.5 7.5l-1 2 .5 1.5-4.5 2.5 2 3-2.5.5-1-3-1 2-1.5.5-2.5 7.5-2-1 1.5 2.5-1 6-1.5 1.5-2.5 1.5q.8 3.8-1.5 4.5l-2.5 1.5-2.5 6.5-5.5-3.5 2-1 .5-1.5 2.5-.5-2-3 1.5.5 1.5-.5.5-1.5 1.5-.5 1-2-2-1 1.5-2.5 1.5-.5 1.5-3.5 1.5-.5 4.5-9.5 1.5-.5v-2l.5-2.5 1.5.5.5 1.5 3.5-2.5 1-4-.5-1.5 2 1 .5-1.5-2-1zm242 0 1 4 1.5.5-2.5.5zm-36 5 .5 1.5q-4.1 1.4-4.5 6.5l-1.5-2.5 3-2 .5-2.5zm4 1 1.5 8.5-.5 2.5-1.5-.5-6 7-.5 2.5-1.5.5-.5 5.5-.5-7.5 1.5-4.5 2.5-.5q-2.2-1.2.5-2.5l1.5-.5-2-3 4-1-1-4zm-238 1 2.5 8.5h-2l-.5 2.5-3.5 2.5.5 4.5 1.5.5-1 2 1.5.5 5-8 3 10 1-2 .5 1.5q-1.7 3.3-3.5-.5l-3.5 2.5-.5-1.5-1.5 2.5 4 2-3 1 .5 1.5 1.5.5-1.5 4.5-8.5-31.5h1l.5 2.5 3 1 2.5-4.5zm32 6q3.3 2.8 3.5 8.5l-1 2 2 1-7 6q-2.8-1.7-2-7l3-4-1.5-2.5 2-1 1.5.5-.5-1.5-1.5-.5zm237 3 .5 12.5h-1zm110 0 .5 10.5-1.5 5.5-.5-4.5 1-1zm-299 6 2.5 1.5-2 1 2 1 1 5-4 6 3 2-1 7-3.5 3.5-1.5-.5-.5-3.5-2 1q-2.6-2.4-1.5-8.5l3-4-1-2 7-4q-3-1.8-1.5-5.5Zm22 4 1.5 2.5-2 1q2.3 1.3-.5 2.5l-1.5-3.5 2-1zm178 2 1.5 5.5-2-1zm-11 4 2.5 8.5-2-1zm-40 2q-1 8 4 10l2-1q1.8 2.8 3.5-1.5l.5-1.5.5 2.5q-1 3.5-6.5 2.5l-2.5-1.5q-3.6-2.8-1.5-9.5Zm-182 7 1.5.5 1 2-1.5.5-1-2-1.5.5zm165 7 2.5 3.5-2.5 1.5-1-2 2 1 .5-1.5zm-11 26-.5 1.5 1 3-1.5.5-.5-3.5zm-109 21-3 4zm-6 1-.5 1.5-1.5 3.5-.5-1.5zm28 2-2 3-2.5.5 2 1-3.5 4.5-1.5-3.5 2-1 2.5-3.5q1.5 2.5 3-1Zm-5 41-3 4zm9 1-7 8zm-17 6-5 6zm-17 4 4 5zm9 3-3 4-1.5-.5zm9 1-4 5zm-7 6-4 5zm-7 6-3 4zm-10 8-3 4zm-15 7 5.5 1.5-4.5.5zm31 11q8.9-1.4 14 1l8.5 7.5q3.2 3.3 2 11l-1 4-6.5 8.5-11.5 6.5q16.3 9.7 29 23l2 4-3.5 5.5q-6.8.7-9-3l-30-24-1.5 7.5 1 2v2l-1 2v12l-2.5 4.5q-5.5 1-6.5-2.5l-1-3v-34l1-1v-11l2-7v-6l1.5-2.5 1.5-.5-.5-1.5 2 1zm.5 9-8 5v9l2 8 9-3 6-4 5-7-1-4q-3-6-13-4Zm67.5-9 6.5 3.5 4 7 6 23 2.5 4.5 2.5 1.5-1 10 3 8 1 15q-.7 4.3-6.5 3.5l-5.5-4.5v-6l-4.5-16.5-21.5 1.5-7.5 21.5q-3.7.8-4.5-1.5l1-15 2-4 4-19 7-20 6.5-10.5zm-.5 15-9 23 1 2 13-1 1-1zm152.5-14h11l11 3q11.7 4.8 19.5 13.5 8.1 6.9 7 23-3.3 12.7-12.5 19.5l-23 14-6 2h-6l-3.5-2.5-1-5q3.5-1.5 1-3l-1-20-1-1v-28q2.2-1.3 1-6l-4-2q-.5-5 3.5-5.5zm5.5 9v13l1 1v13l2 10 1 14 7-2 12-8q7-5 9-14l-3-10q-10-14-29-17Zm-109.5-8q12.9-1.9 17.5 4.5l1 5q-1.2 2.8-2.5.5-3.3-3.2-11-2-7.2 1.8-10.5 7.5l-1 4 2.5 2.5 18 8 11.5 10.5 3 7 1 7-2 8-7.5 8.5-10 4h-7q-7.8-1.2-11.5-6.5l-2-7 2.5-3.5 5-1 6 5 6 1 6.5-4.5 1-9-5.5-7.5-20-10-5.5-4.5q-4.1-2.9-3-11l5.5-9.5zm62 0q15.7-2.2 23.5 3.5l1 2-3.5 4.5h-19l-1 1-14.5.5 1.5 20.5 11-1 1-1h10l3.5 2.5 1 3-4.5 3.5-11 1-1 1h-9l-1.5 1.5 1 1v10l2.5 5.5 27-5 6.5 3.5 1 3-2.5 3.5-26 6h-9l-5.5-2.5-3-4-2-7v-27l1-1 1-19-1-2 4.5-4.5zm-224 1 1 1h11l4.5 3.5-2.5 4.5-38.5 3.5.5 16.5 12-3h11l4.5 3.5q.8 3.8-1.5 4.5l-9 3-16 1-1.5 1.5v16l1.5 3.5 26-5h9q4.8 1.2 3.5 8.5l-4.5 3.5-13 1-17 4h-9l-4.5-2.5-3-7v-28l1-1 1-25 1.5-2.5 4-2 2 1 1-1 24-2z"/></svg>