<svg viewBox="0 0 1024 1024" version="1.1" xmlns="http://www.w3.org/2000/svg" desc="Created with imagetracer.js version 1.2.6" ><path fill="currentColor" stroke="rgb(0,0,0)" stroke-width="1" opacity="1" d="M 507.5 170 Q 540.5 169.5 556 186.5 L 568 205.5 L 573.5 226 Q 631.8 241.2 669 277.5 L 670.5 279 Q 702.6 307.9 719 352.5 L 729 388.5 L 738 437.5 L 754 609.5 Q 764.3 650.2 790.5 675 L 792 676.5 L 804 687 L 805.5 690 L 810 693.5 Q 822.1 705.4 821 730.5 L 816 749.5 L 808.5 759 Q 793.5 771.7 768 773 L 767 769 L 693.5 770 L 691.5 769 Q 671.7 772.2 647.5 771 L 626.5 770 L 612 771 Q 611 789.2 603 801.5 L 584.5 825 L 581 827.5 L 577.5 832 Q 560.5 845 537.5 852 Q 523.9 855.4 505.5 854 Q 486.6 852.4 472.5 846 Q 453.1 836.9 439 822.5 Q 420.3 804.8 417 773 L 383.5 772 L 257.5 774 L 244 772 L 242.5 775 Q 224.5 773.5 217 761.5 L 206 745.5 L 203 730.5 L 205 712.5 Q 212.5 697.5 224.5 687 L 236 676.5 Q 259.1 653.1 269 616.5 Q 278.5 580.5 279 535.5 L 278 531.5 L 279 529.5 L 279 527.5 L 279 509.5 L 285 442.5 L 291 403.5 L 303 357.5 L 319 324 L 321 322.5 Q 342.5 292.5 368.5 267 Q 400.4 235.5 453 226 Q 455.2 196.5 474.5 183 L 490.5 174 L 507.5 170 Z M 516 406 L 514 408 L 516 411 L 522 410 Q 543 410 558 418 L 560 412 L 516 406 Z M 502 407 L 459 419 L 446 426 L 450 431 Q 474 416 507 411 Q 509 405 502 407 Z M 516 414 L 514 417 L 519 419 Q 539 419 554 425 L 556 420 L 532 414 L 516 414 Z M 504 415 L 494 418 L 507 418 Q 509 414 504 415 Z M 572 416 L 569 424 Q 586 432 599 445 L 606 441 L 607 438 Q 594 422 572 416 Z M 482 423 Q 468 426 459 433 L 457 435 L 462 434 L 463 433 L 486 424 L 482 423 Z M 503 425 Q 480 428 466 439 L 464 442 L 467 443 Q 482 436 503 436 L 506 427 Q 507 424 503 425 Z M 516 425 L 518 437 L 536 442 L 543 441 L 545 439 L 547 436 L 531 427 L 516 425 Z M 511 426 L 507 436 L 513 437 L 511 426 Z M 539 426 L 550 432 L 551 428 L 539 426 Z M 568 427 L 565 431 Q 581 435 592 448 L 596 447 L 568 427 Z M 440 428 L 415 446 L 405 458 L 409 460 L 444 434 L 442 430 L 440 428 Z M 469 431 L 461 436 L 459 438 L 470 432 L 469 431 Z M 562 433 L 560 439 L 579 451 L 589 450 Q 578 439 562 433 Z M 445 440 L 429 452 L 417 465 L 420 466 L 427 465 L 448 451 L 447 447 L 443 450 L 447 445 L 446 443 L 445 440 Z M 493 441 L 475 446 L 473 448 L 497 445 L 500 443 Q 500 439 493 441 Z M 612 442 L 604 450 L 608 454 L 615 448 L 614 444 L 612 442 Z M 618 450 L 611 458 L 617 462 L 621 456 L 619 452 L 618 450 Z M 569 456 L 577 461 L 579 460 L 580 459 Q 577 455 569 456 Z M 401 462 L 391 477 L 393 477 L 403 464 L 401 462 Z M 627 464 L 620 469 L 628 479 L 635 481 L 627 464 Z M 602 465 L 607 472 L 610 470 L 602 465 Z M 511 466 L 491 471 Q 485 469 486 473 L 476 477 L 465 492 L 463 493 L 459 505 L 459 507 L 458 511 L 457 514 L 459 531 L 460 534 L 461 536 L 463 541 L 464 544 L 467 549 L 470 550 L 475 556 L 476 558 L 478 557 L 480 560 L 482 559 L 483 562 L 485 561 L 492 563 L 494 563 L 494 565 L 500 566 L 502 565 L 513 568 L 524 567 L 526 567 L 526 566 L 528 566 Q 538 564 543 557 L 544 555 L 552 551 L 551 548 L 553 548 L 555 544 L 557 540 L 557 538 L 559 537 L 561 533 L 560 530 L 564 529 L 563 525 L 563 523 L 565 519 L 565 517 L 564 506 L 566 502 L 565 500 Q 567 492 564 492 L 563 490 L 557 485 L 558 483 Q 556 486 554 483 L 553 480 L 551 477 L 550 477 L 545 473 L 541 474 L 534 473 L 538 472 L 537 471 L 534 470 L 532 469 Q 526 471 527 468 L 525 467 L 514 468 L 511 466 Z M 406 467 Q 392 478 384 495 Q 382 501 386 501 Q 392 481 406 469 L 406 467 Z M 410 472 L 394 494 L 396 494 L 413 476 L 412 474 L 410 472 Z M 614 472 L 613 473 L 611 475 L 620 478 L 621 478 L 614 472 Z M 455 475 L 420 498 L 407 511 L 403 529 Q 402 548 409 559 Q 423 576 446 585 L 472 593 L 511 600 L 533 599 L 553 594 Q 580 583 601 565 Q 617 551 628 532 L 622 524 L 620 522 L 618 523 L 620 532 L 621 533 Q 618 517 608 509 L 607 511 L 605 507 Q 592 493 575 484 L 573 484 L 582 518 Q 581 544 568 559 Q 560 569 547 574 L 509 582 Q 483 582 470 570 Q 449 553 442 523 Q 439 489 456 476 L 455 475 Z M 615 481 L 622 487 Q 627 489 625 484 L 615 481 Z M 457 482 Q 448 490 446 506 L 447 515 L 457 484 L 457 482 Z M 378 504 L 372 519 L 374 519 L 381 510 L 380 506 L 378 504 Z M 626 509 L 631 518 L 636 522 L 631 511 L 626 509 Z M 639 513 L 647 526 L 647 519 L 639 513 Z M 378 520 L 372 525 L 373 534 L 380 522 L 378 520 Z M 577 521 Q 571 543 559 559 L 560 560 Q 574 548 577 526 L 577 521 Z M 400 522 L 394 532 L 394 537 L 400 551 L 402 552 L 400 522 Z M 389 531 L 381 542 L 380 543 L 378 546 L 385 550 L 386 547 L 390 547 L 393 553 L 398 557 Q 392 551 392 541 L 390 542 L 387 541 L 389 534 L 389 531 Z M 645 532 L 637 548 L 638 556 Q 644 548 645 535 L 645 532 Z M 631 537 L 622 552 L 624 553 L 634 539 L 631 537 Z M 379 553 L 381 562 L 400 582 L 401 582 L 389 561 L 379 553 Z M 632 556 L 621 568 L 621 570 L 627 569 L 632 559 L 632 556 Z M 476 567 Q 483 576 500 577 L 507 577 L 476 567 Z M 619 569 L 613 576 L 613 577 L 620 571 L 619 569 Z M 385 570 Q 388 583 397 592 Q 406 602 419 607 L 409 593 L 385 570 Z M 406 577 L 410 586 L 427 599 L 428 599 L 425 594 L 406 577 Z M 616 578 L 609 583 L 603 590 L 601 593 L 611 587 L 617 580 L 616 578 Z M 585 582 L 575 588 L 574 590 L 586 583 L 585 582 Z M 602 583 L 586 595 L 578 604 L 588 600 L 603 584 L 602 583 Z M 612 591 L 561 621 L 551 624 L 532 625 L 509 630 Q 500 628 501 632 L 509 633 Q 563 635 594 613 L 612 593 L 612 591 Z M 455 592 L 454 594 L 477 602 L 511 607 Q 535 609 551 601 L 552 599 L 520 605 L 478 599 L 455 592 Z M 431 595 L 430 597 L 444 609 L 469 622 L 486 627 L 512 625 L 498 621 L 479 613 L 475 613 L 466 618 L 462 617 L 465 616 L 473 613 L 451 606 L 431 595 Z M 417 596 L 420 603 L 432 614 L 452 622 L 454 622 L 417 596 Z M 577 597 L 553 608 L 553 609 Q 570 608 578 598 L 577 597 Z M 570 610 L 551 618 L 550 620 L 571 612 L 570 610 Z M 541 614 L 522 617 L 502 615 L 495 616 L 522 622 Q 538 621 550 615 L 541 614 Z M 444 623 Q 462 642 497 646 Q 520 648 538 644 Q 560 639 577 628 L 579 625 L 561 632 L 527 637 L 525 637 L 505 636 Q 486 630 462 629 L 444 623 Z " /><path fill="currentColor" stroke="rgb(0,0,0)" stroke-width="1" opacity="1" d="M 508.5 483 L 510.5 483 L 516.5 484 L 518.5 484 L 523.5 486 L 525 485.5 L 521 497.5 L 523.5 502 L 527.5 503 L 536.5 501 L 538.5 502 L 540 501.5 L 541 512.5 L 541 514.5 L 541 519.5 Q 537.8 518.5 539 524.5 L 533 532.5 L 533.5 534 L 530 535 L 528.5 537 L 525.5 538 L 519.5 541 L 509.5 541 L 507.5 541 L 501.5 539 L 497.5 536 L 496 536.5 L 494.5 535 L 492 531 Q 489 532.3 490 528.5 L 487 523 L 485 522.5 L 486 519.5 L 485 508.5 L 486 506.5 L 487 503.5 L 490 496.5 L 489.5 495 L 491 495.5 L 492 492 Q 496.8 486.4 507 486 L 508.5 483 Z " /><path fill="currentColor" stroke="rgb(0,0,0)" stroke-width="1" opacity="1" d="M 607.5 512 Q 610.9 522.6 609 538.5 L 605.5 551 L 605 548.5 L 607 540.5 L 607.5 512 Z " /><path fill="var(--primary)" stroke="rgb(255,0,255)" stroke-width="1" opacity="1" d="M 503.5 170 L 507 170.5 L 494.5 173 L 494.5 172 L 503.5 170 Z " /><path fill="var(--primary)" stroke="rgb(255,0,255)" stroke-width="1" opacity="1" d="M 473.5 183 L 467 190.5 L 462.5 196 L 466 191.5 L 473.5 183 Z " /><path fill="var(--primary)" stroke="rgb(255,0,255)" stroke-width="1" opacity="1" d="M 556.5 187 L 568 204.5 L 567 204.5 L 556.5 187 Z " /><path fill="var(--primary)" stroke="rgb(255,0,255)" stroke-width="1" opacity="1" d="M 656.5 265 L 663.5 273 L 656.5 265 Z " /><path fill="var(--primary)" stroke="rgb(255,0,255)" stroke-width="1" opacity="1" d="M 367.5 267 L 354.5 281 L 367.5 267 Z " /><path fill="var(--primary)" stroke="rgb(255,0,255)" stroke-width="1" opacity="1" d="M 671.5 279 L 682.5 291 L 671.5 279 Z " /><path fill="var(--primary)" stroke="rgb(255,0,255)" stroke-width="1" opacity="1" d="M 353.5 282 L 348 288.5 L 342.5 295 L 347 289.5 L 353.5 282 Z " /><path fill="var(--primary)" stroke="rgb(255,0,255)" stroke-width="1" opacity="1" d="M 683.5 292 L 690.5 300 L 683.5 292 Z " /><path fill="var(--primary)" stroke="rgb(255,0,255)" stroke-width="1" opacity="1" d="M 341.5 296 L 339 299.5 L 326.5 315 L 330 310.5 L 341.5 296 Z " /><path fill="var(--primary)" stroke="rgb(255,0,255)" stroke-width="1" opacity="1" d="M 515.5 406 L 519 406.5 L 515 407 Q 513.2 412.3 520.5 410 L 520.5 411 L 514 409.5 L 515.5 406 Z " /><path fill="var(--primary)" stroke="rgb(255,0,255)" stroke-width="1" opacity="1" d="M 515.5 414 L 532 414.5 L 515 415 L 514.5 417 L 514 415.5 L 515.5 414 Z " /><path fill="var(--primary)" stroke="rgb(255,0,255)" stroke-width="1" opacity="1" d="M 503.5 415 Q 508.8 413.5 507 418 L 498.5 417 L 494.5 418 L 494.5 417 L 500.5 416 L 505.5 417 L 505.5 416 L 503.5 415 Z " /><path fill="var(--primary)" stroke="rgb(255,0,255)" stroke-width="1" opacity="1" d="M 537.5 425 L 543 426.5 L 542.5 428 L 549.5 431 L 551 430.5 L 548.5 432 L 538.5 427 L 537.5 425 Z " /><path fill="var(--primary)" stroke="rgb(255,0,255)" stroke-width="1" opacity="1" d="M 468.5 427 L 472 428.5 L 470.5 429 L 468.5 428 L 468.5 430 L 466.5 429 L 465.5 431 L 464 430.5 L 463 433.5 L 465 434.5 L 466.5 433 L 469.5 431 L 467.5 434 L 464.5 436 L 461.5 434 Q 464.7 436 461.5 438 L 459 436.5 L 460.5 437 L 462 436.5 L 457 435 L 457.5 433 L 459 433.5 L 460.5 431 L 468.5 427 Z " /><path fill="var(--primary)" stroke="rgb(255,0,255)" stroke-width="1" opacity="1" d="M 540.5 432 L 547 435.5 L 544.5 439 L 546 436.5 L 544.5 435 L 540.5 432 Z " /><path fill="var(--primary)" stroke="rgb(255,0,255)" stroke-width="1" opacity="1" d="M 444.5 440 L 446 442.5 L 447 444.5 L 444.5 449 L 442 449.5 L 436 456.5 L 435.5 459 L 434 458.5 L 432.5 460 L 426.5 465 L 428.5 462 L 432 459.5 L 436.5 453 L 439.5 451 L 446 443.5 L 444.5 441 L 440.5 444 L 442.5 441 L 444.5 440 Z " /><path fill="var(--primary)" stroke="rgb(255,0,255)" stroke-width="1" opacity="1" d="M 508.5 441 Q 516.9 438.4 515 444 L 506 443.5 L 514 442.5 L 508.5 442 L 508.5 441 Z " /><path fill="var(--primary)" stroke="rgb(255,0,255)" stroke-width="1" opacity="1" d="M 610.5 443 L 605 449.5 L 607.5 453 L 614.5 447 L 608.5 454 L 604 450.5 L 610.5 443 Z " /><path fill="var(--primary)" stroke="rgb(255,0,255)" stroke-width="1" opacity="1" d="M 414.5 446 L 407.5 454 L 414.5 446 Z " /><path fill="var(--primary)" stroke="rgb(255,0,255)" stroke-width="1" opacity="1" d="M 617.5 450 L 619 450.5 L 612 456.5 L 615 460.5 L 611 457.5 L 617.5 450 Z " /><path fill="var(--primary)" stroke="rgb(255,0,255)" stroke-width="1" opacity="1" d="M 428.5 452 L 421.5 460 L 428.5 452 Z " /><path fill="var(--primary)" stroke="rgb(255,0,255)" stroke-width="1" opacity="1" d="M 402.5 465 L 393 475.5 L 391.5 477 L 392 475.5 L 394.5 471 L 395.5 472 L 402.5 465 Z " /><path fill="var(--primary)" stroke="rgb(255,0,255)" stroke-width="1" opacity="1" d="M 510.5 466 L 513.5 468 L 524.5 467 L 527 467.5 Q 526.1 470.9 531.5 469 L 533.5 470 L 536.5 471 L 538 471.5 L 534 472.5 L 538.5 473 L 540.5 472 L 549.5 477 L 551 476.5 L 552.5 480 L 554 482.5 Q 556 485.7 558 482.5 L 557 484.5 L 563 489.5 L 563.5 492 Q 566.8 491.6 565 499.5 L 567 502.5 L 565 502.5 L 564 505.5 L 565 516.5 L 565 518.5 L 563 522.5 L 563 524.5 L 564 529 L 560 529.5 L 561 532.5 L 558.5 537 L 557 537.5 L 557 539.5 L 555 543.5 L 551.5 551 Q 549.7 548.3 548 552.5 L 548.5 554 L 544 554.5 L 542.5 557 Q 537.6 564.1 527.5 566 L 526 565.5 L 525.5 567 L 523.5 567 L 512.5 568 L 501.5 565 L 499.5 566 L 494 565 L 493.5 563 L 491.5 563 L 484.5 561 L 483 561.5 L 481.5 559 L 479.5 560 L 477.5 557 L 476 557.5 L 474.5 556 L 470 550 L 467 548.5 L 464 543.5 L 463 540.5 L 461 535.5 L 460 533.5 L 459 530.5 L 457 513.5 L 458 510.5 L 459 506.5 L 459 504.5 L 463 493 L 465 491.5 L 475.5 477 L 486 473 Q 484.6 469.3 490.5 471 L 510.5 466 Z M 509 483 L 507 486 L 498 488 L 497 491 L 496 490 L 492 492 L 487 504 L 486 507 L 485 509 L 486 520 L 485 523 L 487 523 L 490 529 Q 489 532 492 531 L 495 535 L 496 537 L 498 536 L 502 539 L 508 541 L 510 541 L 520 541 L 526 538 L 529 537 L 530 535 L 534 534 L 533 533 L 539 525 Q 538 519 541 520 L 541 515 L 541 513 L 540 502 L 539 502 L 537 501 L 528 503 L 524 502 L 521 498 L 524 492 Q 525 485 523 486 L 521 486 L 519 486 L 521 485 L 519 484 L 517 484 L 511 483 L 509 483 Z " /><path fill="var(--primary)" stroke="rgb(255,0,255)" stroke-width="1" opacity="1" d="M 405.5 467 L 406 468.5 L 400 473.5 L 399.5 476 Q 397.1 471.5 405.5 467 Z " /><path fill="var(--primary)" stroke="rgb(255,0,255)" stroke-width="1" opacity="1" d="M 413 468 L 419 469 L 416.5 473 L 415 472.5 L 418 470.5 L 414.5 469 L 414.5 471 L 413 468 Z " /><path fill="var(--primary)" stroke="rgb(255,0,255)" stroke-width="1" opacity="1" d="M 622.5 471 L 629 479 L 633.5 480 L 633 478.5 L 633.5 477 L 635 481 L 628 478.5 L 622.5 471 Z " /><path fill="var(--primary)" stroke="rgb(255,0,255)" stroke-width="1" opacity="1" d="M 613.5 472 L 621 477.5 L 619 478 L 618.5 476 L 616.5 477 L 616.5 476 L 618 475.5 L 613.5 473 L 611 474.5 L 612.5 473 L 613.5 472 Z " /><path fill="var(--primary)" stroke="rgb(255,0,255)" stroke-width="1" opacity="1" d="M 412.5 475 L 397.5 491 L 394.5 494 L 395 492.5 L 397.5 488 L 398.5 489 L 412.5 475 Z " /><path fill="var(--primary)" stroke="rgb(255,0,255)" stroke-width="1" opacity="1" d="M 396.5 477 L 399 477.5 L 391 482.5 L 396.5 477 Z " /><path fill="var(--primary)" stroke="rgb(255,0,255)" stroke-width="1" opacity="1" d="M 457.5 481 L 457 482.5 L 455.5 484 L 456 485.5 L 455.5 487 L 454.5 485 L 452.5 488 L 453 486.5 L 457.5 481 Z " /><path fill="var(--primary)" stroke="rgb(255,0,255)" stroke-width="1" opacity="1" d="M 419.5 498 L 407.5 511 L 419.5 498 Z " /><path fill="var(--primary)" stroke="rgb(255,0,255)" stroke-width="1" opacity="1" d="M 597.5 499 L 604.5 507 L 597.5 499 Z " /><path fill="var(--primary)" stroke="rgb(255,0,255)" stroke-width="1" opacity="1" d="M 441.5 503 L 442 520.5 L 441 520.5 L 441.5 503 Z " /><path fill="var(--primary)" stroke="rgb(255,0,255)" stroke-width="1" opacity="1" d="M 605.5 508 L 606.5 511 L 607.5 509 L 611.5 514 L 609 512.5 L 608.5 518 L 607.5 512 L 606.5 522 L 605.5 508 Z " /><path fill="var(--primary)" stroke="rgb(255,0,255)" stroke-width="1" opacity="1" d="M 278.5 512 L 279 527.5 L 278 527.5 L 278.5 512 Z " /><path fill="var(--primary)" stroke="rgb(255,0,255)" stroke-width="1" opacity="1" d="M 638.5 513 L 647 518.5 L 646.5 526 L 646 518 L 643.5 517 L 642.5 520 L 638.5 513 Z " /><path fill="var(--primary)" stroke="rgb(255,0,255)" stroke-width="1" opacity="1" d="M 614.5 518 L 617.5 523 L 620 522 L 621.5 524 L 628 531.5 L 627 531.5 L 621.5 525 L 620 525.5 L 622 532.5 L 621 537.5 L 624 538.5 L 617.5 546 L 618 544.5 Q 621.2 542.2 620 535.5 L 619 532.5 L 620 526.5 L 619 526.5 L 618.5 531 L 614.5 518 Z " /><path fill="var(--primary)" stroke="rgb(255,0,255)" stroke-width="1" opacity="1" d="M 609.5 519 L 610 537.5 L 609 537.5 L 609.5 519 Z " /><path fill="var(--primary)" stroke="rgb(255,0,255)" stroke-width="1" opacity="1" d="M 399.5 522 L 400 539.5 L 399 539.5 L 398 523.5 L 399.5 522 Z " /><path fill="var(--primary)" stroke="rgb(255,0,255)" stroke-width="1" opacity="1" d="M 580.5 531 L 581 534.5 L 577.5 543 L 577 541.5 L 580.5 531 Z " /><path fill="var(--primary)" stroke="rgb(255,0,255)" stroke-width="1" opacity="1" d="M 631.5 537 L 634 538.5 L 627.5 547 L 626 547.5 Q 629 549.5 624 551.5 L 622 553 L 626.5 546 L 628 545.5 L 627.5 544 L 629 544.5 L 628 542.5 L 631 541.5 L 630.5 540 L 629 540.5 L 631.5 540 L 633 538 L 631.5 537 Z " /><path fill="var(--primary)" stroke="rgb(255,0,255)" stroke-width="1" opacity="1" d="M 605.5 542 L 607 550.5 L 603.5 559 L 603 556.5 L 605.5 542 Z " /><path fill="var(--primary)" stroke="rgb(255,0,255)" stroke-width="1" opacity="1" d="M 406.5 551 Q 410.9 563.6 421.5 570 L 426 573.5 L 422.5 571 L 409 558.5 L 406.5 551 Z " /><path fill="var(--primary)" stroke="rgb(255,0,255)" stroke-width="1" opacity="1" d="M 612.5 552 L 600.5 565 L 612.5 552 Z " /><path fill="var(--primary)" stroke="rgb(255,0,255)" stroke-width="1" opacity="1" d="M 632.5 554 L 633 555.5 L 631.5 559 L 630.5 558 L 624 563.5 L 632.5 554 Z " /><path fill="var(--primary)" stroke="rgb(255,0,255)" stroke-width="1" opacity="1" d="M 459.5 560 L 468.5 570 L 459.5 560 Z " /><path fill="var(--primary)" stroke="rgb(255,0,255)" stroke-width="1" opacity="1" d="M 381.5 561 L 398 576.5 L 397 574.5 L 399 575.5 L 401 581.5 L 400 581.5 L 381.5 561 Z " /><path fill="var(--primary)" stroke="rgb(255,0,255)" stroke-width="1" opacity="1" d="M 473.5 565 L 479 568 L 479.5 570 L 481.5 569 L 484 570.5 L 481.5 572 L 473 567 L 473.5 565 Z " /><path fill="var(--primary)" stroke="rgb(255,0,255)" stroke-width="1" opacity="1" d="M 618.5 569 L 620 570.5 L 617 571.5 L 618 572.5 L 613.5 577 L 610.5 579 L 612.5 576 L 614 575.5 L 613 574.5 L 618.5 569 Z " /><path fill="var(--primary)" stroke="rgb(255,0,255)" stroke-width="1" opacity="1" d="M 408.5 571 L 417 578.5 L 415.5 579 L 408 573 L 408.5 571 Z " /><path fill="var(--primary)" stroke="rgb(255,0,255)" stroke-width="1" opacity="1" d="M 594.5 575 L 595 577 L 580.5 587 L 580 585.5 L 594.5 575 Z " /><path fill="var(--primary)" stroke="rgb(255,0,255)" stroke-width="1" opacity="1" d="M 615.5 578 L 617 579.5 L 610.5 587 L 615 581.5 L 614 579.5 L 615.5 578 Z " /><path fill="var(--primary)" stroke="rgb(255,0,255)" stroke-width="1" opacity="1" d="M 400.5 584 L 408.5 593 L 400.5 584 Z " /><path fill="var(--primary)" stroke="rgb(255,0,255)" stroke-width="1" opacity="1" d="M 578.5 586 L 579 587.5 L 567.5 593 L 567.5 592 L 576.5 587 L 578 587.5 L 578.5 586 Z " /><path fill="var(--primary)" stroke="rgb(255,0,255)" stroke-width="1" opacity="1" d="M 598.5 588 L 587.5 600 L 598.5 588 Z " /><path fill="var(--primary)" stroke="rgb(255,0,255)" stroke-width="1" opacity="1" d="M 611.5 591 L 612 592.5 L 607.5 595 L 599.5 600 L 600.5 598 L 608.5 593 L 610 593.5 L 611.5 591 Z " /><path fill="var(--primary)" stroke="rgb(255,0,255)" stroke-width="1" opacity="1" d="M 418.5 592 L 424.5 596 L 426 595.5 L 425.5 597 L 428 598.5 L 426.5 599 L 418.5 592 Z " /><path fill="var(--primary)" stroke="rgb(255,0,255)" stroke-width="1" opacity="1" d="M 440.5 593 L 454 599.5 L 452.5 600 L 440.5 593 Z " /><path fill="var(--primary)" stroke="rgb(255,0,255)" stroke-width="1" opacity="1" d="M 430.5 595 L 434 597.5 L 433 598.5 L 440.5 607 L 430 596.5 L 430.5 595 Z " /><path fill="var(--primary)" stroke="rgb(255,0,255)" stroke-width="1" opacity="1" d="M 585.5 595 L 579 602.5 L 579.5 604 L 577 603.5 L 585.5 595 Z " /><path fill="var(--primary)" stroke="rgb(255,0,255)" stroke-width="1" opacity="1" d="M 403.5 596 L 413 603.5 L 411.5 603 L 403.5 596 Z " /><path fill="var(--primary)" stroke="rgb(255,0,255)" stroke-width="1" opacity="1" d="M 576.5 597 L 578 597.5 L 571.5 603 L 572.5 600 L 569.5 601 L 569.5 600 L 572.5 599 L 574 599.5 L 575.5 598 L 576.5 597 Z " /><path fill="var(--primary)" stroke="rgb(255,0,255)" stroke-width="1" opacity="1" d="M 510.5 599 L 526 599.5 L 510.5 600 L 510.5 599 Z " /><path fill="var(--primary)" stroke="rgb(255,0,255)" stroke-width="1" opacity="1" d="M 510.5 606 L 528 606.5 L 510.5 607 L 510.5 606 Z " /><path fill="var(--primary)" stroke="rgb(255,0,255)" stroke-width="1" opacity="1" d="M 451.5 612 L 458.5 616 L 462.5 615 L 462.5 617 L 465 617.5 L 464.5 619 L 470 621.5 L 468.5 622 L 455.5 615 L 454 615.5 L 454.5 614 L 451.5 612 Z " /><path fill="var(--primary)" stroke="rgb(255,0,255)" stroke-width="1" opacity="1" d="M 455.5 631 L 467 637.5 L 465.5 637 Q 456.7 635.6 455.5 631 Z " /><path fill="var(--primary)" stroke="rgb(255,0,255)" stroke-width="1" opacity="1" d="M 508.5 632 L 531 632.5 L 508.5 633 L 508.5 632 Z " /><path fill="var(--primary)" stroke="rgb(255,0,255)" stroke-width="1" opacity="1" d="M 762.5 632 L 771 648.5 L 769 647.5 L 762.5 632 Z " /><path fill="var(--primary)" stroke="rgb(255,0,255)" stroke-width="1" opacity="1" d="M 496.5 645 L 526 645.5 L 496.5 646 L 496.5 645 Z " /><path fill="var(--primary)" stroke="rgb(255,0,255)" stroke-width="1" opacity="1" d="M 778.5 660 L 790 674 L 792 674.5 L 790.5 675 L 778.5 660 Z " /><path fill="var(--primary)" stroke="rgb(255,0,255)" stroke-width="1" opacity="1" d="M 245.5 664 L 243 667.5 L 236.5 675 L 242 668.5 L 245.5 664 Z " /><path fill="var(--primary)" stroke="rgb(255,0,255)" stroke-width="1" opacity="1" d="M 235.5 676 L 225.5 687 L 235.5 676 Z " /><path fill="var(--primary)" stroke="rgb(255,0,255)" stroke-width="1" opacity="1" d="M 792.5 676 L 802.5 687 L 792.5 676 Z " /><path fill="var(--primary)" stroke="rgb(255,0,255)" stroke-width="1" opacity="1" d="M 810.5 694 L 818 705.5 L 817 705.5 L 810.5 694 Z " /><path fill="var(--primary)" stroke="rgb(255,0,255)" stroke-width="1" opacity="1" d="M 820.5 714 L 822 728.5 L 821 728.5 L 820.5 714 Z " /><path fill="var(--primary)" stroke="rgb(255,0,255)" stroke-width="1" opacity="1" d="M 208.5 750 L 217 760.5 L 213 757.5 L 208.5 750 Z " /><path fill="var(--primary)" stroke="rgb(255,0,255)" stroke-width="1" opacity="1" d="M 815.5 750 L 816 751.5 L 808.5 760 L 800.5 765 L 801.5 763 L 814 753.5 L 815.5 750 Z " /><path fill="var(--primary)" stroke="rgb(255,0,255)" stroke-width="1" opacity="1" d="M 700.5 769 L 762 769.5 L 700.5 770 L 700.5 769 Z " /><path fill="var(--primary)" stroke="rgb(255,0,255)" stroke-width="1" opacity="1" d="M 766.5 769 L 768 773 L 778 773.5 L 768.5 774 L 766.5 769 Z " /><path fill="var(--primary)" stroke="rgb(255,0,255)" stroke-width="1" opacity="1" d="M 626.5 770 L 647 770.5 L 626.5 771 L 626.5 770 Z " /><path fill="var(--primary)" stroke="rgb(255,0,255)" stroke-width="1" opacity="1" d="M 673.5 770 L 689 770.5 L 673.5 771 L 673.5 770 Z " /><path fill="var(--primary)" stroke="rgb(255,0,255)" stroke-width="1" opacity="1" d="M 656.5 771 L 671 771.5 L 656.5 772 L 656.5 771 Z " /><path fill="var(--primary)" stroke="rgb(255,0,255)" stroke-width="1" opacity="1" d="M 383.5 772 L 382.5 774 L 298 773.5 L 383.5 772 Z " /><path fill="var(--primary)" stroke="rgb(255,0,255)" stroke-width="1" opacity="1" d="M 395.5 773 L 416.5 773 L 417 775.5 L 416 775.5 L 415.5 774 L 395.5 774 L 395.5 773 Z " /><path fill="var(--primary)" stroke="rgb(255,0,255)" stroke-width="1" opacity="1" d="M 260.5 774 L 294 774.5 L 260.5 775 L 260.5 774 Z " /><path fill="var(--primary)" stroke="rgb(255,0,255)" stroke-width="1" opacity="1" d="M 598.5 808 L 597 810.5 L 586.5 823 L 591 817.5 L 598.5 808 Z " /><path fill="var(--primary)" stroke="rgb(255,0,255)" stroke-width="1" opacity="1" d="M 442.5 825 L 452 833.5 L 448.5 831 L 442.5 825 Z " /><path fill="var(--primary)" stroke="rgb(255,0,255)" stroke-width="1" opacity="1" d="M 576.5 832 L 574.5 835 L 566.5 840 L 567.5 838 L 576.5 832 Z " /><path fill="var(--primary)" stroke="rgb(255,0,255)" stroke-width="1" opacity="1" d="M 564.5 840 L 563.5 842 L 552.5 847 L 552.5 846 L 564.5 840 Z " /></svg>