<svg viewBox="0 0 1024 1024" version="1.1" xmlns="http://www.w3.org/2000/svg" desc="Created with imagetracer.js version 1.2.6" ><path fill="currentColor" stroke="rgb(0,0,0)" stroke-width="1" opacity="1" d="M 403.5 106 L 621.5 106 L 630 112.5 L 632 116.5 L 632 335.5 L 625.5 344 L 621.5 346 L 568 346 Q 567.1 360.2 575.5 366 L 608.5 377 L 625.5 385 L 647 403.5 Q 661 421 666 447.5 L 685 615.5 L 685 633.5 Q 681.4 649.4 670.5 658 Q 659.3 669.8 634.5 668 Q 622 665.3 614 659 L 616 725.5 L 616 727.5 L 620 878.5 Q 616.5 902 600.5 913 Q 588.7 923.7 563.5 921 Q 545.9 917.1 536 905.5 Q 527.6 896.4 525 881.5 L 513 779 Q 509 778 511 787.5 L 499 883.5 Q 494.5 902 481.5 912 Q 469.8 923.8 443.5 921 Q 424.5 917.5 415 904.5 Q 407.2 896.3 405 882.5 L 405 834.5 L 410 659.5 L 408.5 660 Q 398 670.5 374.5 668 Q 358 664.5 349 653.5 Q 337 642 339 616.5 L 359 443.5 Q 366.1 410.1 388.5 392 L 408.5 380 L 443.5 369 L 454 360.5 L 457 347.5 L 455.5 346 L 402.5 346 L 394 339.5 L 392 335.5 L 392 116.5 L 398.5 108 L 403.5 106 Z M 424 136 L 422 138 L 422 252 L 425 251 Q 434 251 438 257 L 438 258 Q 434 252 425 252 L 423 254 L 423 316 L 427 315 L 513 315 L 507 308 L 508 305 L 509 310 L 517 316 L 602 316 L 602 229 L 597 222 L 598 218 L 599 224 L 601 225 L 601 137 L 542 137 L 542 139 L 541 138 L 540 136 L 424 136 Z M 488 346 L 486 348 L 484 366 L 476 382 L 459 395 L 427 405 L 408 415 Q 393 428 388 451 L 368 626 L 371 634 L 380 639 L 390 637 L 396 630 L 413 496 L 415 482 L 418 475 L 426 469 Q 435 468 440 472 L 445 483 L 434 859 Q 431 877 438 886 L 450 892 Q 460 893 464 888 L 470 877 L 495 676 L 499 655 Q 502 648 511 647 Q 519 647 523 651 L 527 660 L 554 875 L 557 884 Q 561 890 570 892 Q 578 893 583 889 L 590 879 L 580 520 L 581 477 L 591 469 Q 599 468 603 471 L 609 480 L 628 629 L 630 633 L 640 639 L 651 636 L 656 628 L 637 456 Q 634 435 623 422 L 606 408 L 571 397 L 556 389 Q 539 376 538 348 L 537 346 L 488 346 Z " /><path fill="currentColor" stroke="rgb(0,0,0)" stroke-width="1" opacity="1" d="M 492.5 181 L 494 181.5 L 489 185.5 Q 487.3 194.8 493 196.5 L 491.5 196 L 490 194.5 Q 486.3 192.8 488 185.5 L 492.5 181 Z " /><path fill="currentColor" stroke="rgb(0,0,0)" stroke-width="1" opacity="1" d="M 530.5 181 L 539 183.5 L 537.5 184 L 530.5 182 L 526.5 183 L 526.5 182 L 530.5 181 Z " /><path fill="currentColor" stroke="rgb(0,0,0)" stroke-width="1" opacity="1" d="M 515.5 187 L 514.5 189 L 500.5 197 L 500.5 196 L 515.5 187 Z " /><path fill="currentColor" stroke="rgb(0,0,0)" stroke-width="1" opacity="1" d="M 541.5 193 L 542 194.5 L 534.5 203 L 525 209.5 L 522 218.5 L 526.5 225 L 531 226.5 L 528.5 227 L 524 225 L 521 215.5 L 527.5 206 L 540 196.5 L 541.5 193 Z " /><path fill="currentColor" stroke="rgb(0,0,0)" stroke-width="1" opacity="1" d="M 550.5 206 L 549 208.5 L 545.5 216 L 545 214.5 L 550.5 206 Z " /><path fill="currentColor" stroke="rgb(0,0,0)" stroke-width="1" opacity="1" d="M 580.5 207 L 575.5 213 L 570.5 214 L 570.5 213 Q 578.2 212.7 580.5 207 Z " /><path fill="currentColor" stroke="rgb(0,0,0)" stroke-width="1" opacity="1" d="M 447.5 215 Q 456.9 213.7 459 219.5 L 460 246.5 Q 461.6 255.4 468.5 259 L 470 259.5 L 468.5 260 Q 460.9 256.1 459 246.5 L 459 221.5 L 455.5 217 L 447.5 216 L 441.5 221 L 442 219.5 L 443.5 217 L 447.5 215 Z " /><path fill="currentColor" stroke="rgb(0,0,0)" stroke-width="1" opacity="1" d="M 440.5 222 Q 440.4 232.1 445 237.5 L 444 237.5 Q 438.5 232.1 440.5 222 Z " /><path fill="currentColor" stroke="rgb(0,0,0)" stroke-width="1" opacity="1" d="M 445.5 239 Q 449.4 243.6 448 253.5 L 445 255.5 Q 449.3 253.3 447 244.5 L 445.5 239 Z " /><path fill="currentColor" stroke="rgb(0,0,0)" stroke-width="1" opacity="1" d="M 495.5 239 L 497 239.5 L 491 244.5 L 485 256 L 479.5 259 L 479.5 258 L 487 251.5 Q 489.2 243.2 495.5 239 Z " /><path fill="currentColor" stroke="rgb(0,0,0)" stroke-width="1" opacity="1" d="M 505.5 263 L 499 270.5 Q 495.7 274.2 497 282.5 L 501.5 288 L 499 287 Q 494.5 284.3 496 274.5 L 505.5 263 Z " /><path fill="currentColor" stroke="rgb(0,0,0)" stroke-width="1" opacity="1" d="M 526.5 283 L 528 283.5 L 519 289.5 L 520.5 292 L 522 292.5 L 520.5 293 L 518 289.5 L 520.5 286 L 526.5 283 Z " /><path fill="currentColor" stroke="rgb(0,0,0)" stroke-width="1" opacity="1" d="M 534.5 283 L 536 284.5 L 537 290.5 L 533.5 293 L 533.5 292 L 536 290.5 Q 536.8 284.3 534.5 283 Z " /><path fill="var(--primary)" stroke="rgb(255,0,255)" stroke-width="1" opacity="1" d="M 403.5 105 L 621 105.5 L 401.5 107 L 401.5 106 L 403.5 105 Z " /><path fill="var(--primary)" stroke="rgb(255,0,255)" stroke-width="1" opacity="1" d="M 391.5 117 L 392 334.5 L 391 334.5 L 391.5 117 Z " /><path fill="var(--primary)" stroke="rgb(255,0,255)" stroke-width="1" opacity="1" d="M 632.5 117 L 633 334.5 L 632 334.5 L 632.5 117 Z " /><path fill="var(--primary)" stroke="rgb(255,0,255)" stroke-width="1" opacity="1" d="M 423.5 136 L 539.5 136 L 541 137.5 L 541.5 139 L 542 137 L 601 137 L 601 224.5 L 599 223.5 L 597.5 218 L 596.5 221 Q 596.6 210.9 590.5 207 L 585.5 206 L 574.5 214 L 570.5 213 L 570.5 214 L 573 214.5 L 570.5 215 L 565 210.5 L 561.5 204 L 556.5 203 L 550 208.5 Q 547 220.5 538.5 227 L 538.5 225 L 534 226.5 L 537 227.5 L 533.5 228 L 531.5 228 L 523 224.5 L 521 219.5 L 522 215.5 L 521 213.5 L 522 213.5 L 522.5 215 L 523 212.5 L 523 210.5 L 527.5 205 L 539.5 196 L 541 196.5 L 540 193.5 L 542 188.5 L 540 188.5 L 536.5 184 L 530.5 183 Q 513 187.5 501.5 198 L 495.5 199 L 495.5 198 L 498 197.5 L 494.5 197 L 492.5 198 L 489 195.5 L 488 193.5 L 489 185.5 L 489 183.5 L 490.5 182 Q 494.6 177.1 505.5 179 L 516.5 180 L 516.5 179 L 508 178.5 L 517.5 178 L 521.5 179 L 521.5 178 L 519 177.5 Q 527.8 176.3 532 170.5 L 532 163.5 Q 525.8 160.7 527 150.5 L 539 141.5 L 540 137 L 423 137 L 423 250.5 L 424.5 250 L 430 251.5 L 428 252.5 L 430.5 253 L 432.5 253 L 443.5 258 L 446 253.5 L 446.5 251 L 447.5 254 L 448 244.5 L 447 244.5 L 446.5 249 L 441 232.5 L 442 229.5 L 441 229.5 L 440.5 231 L 440 229.5 L 441 222.5 L 440 222.5 L 439.5 228 L 439 222.5 L 442.5 217 L 442 218.5 L 442.5 220 L 445.5 215 L 453.5 216 L 453.5 215 L 448 214.5 L 453.5 214 L 460 219.5 L 459 246.5 L 460 246.5 L 460.5 222 L 461 246.5 L 460 249.5 L 461 249.5 L 461.5 248 L 462 249.5 L 461 252.5 L 462 252.5 L 462.5 251 L 468.5 258 L 476.5 259 L 486 251.5 Q 488.2 243.2 494.5 239 L 496.5 240 L 496.5 238 L 506.5 237 L 515 243.5 L 517 250.5 L 516 250.5 L 515.5 249 L 515 251.5 L 516 254.5 L 515 254.5 L 514.5 253 L 513 256.5 L 515 256.5 L 510.5 262 L 500 270.5 L 497.5 278 L 496.5 274 L 496 282.5 L 497 282.5 L 497.5 279 Q 497.6 285.4 502.5 287 L 512 292.5 L 513 295.5 L 509.5 300 L 508 299.5 L 509 302.5 L 508 304.5 L 514.5 314 L 600 315.5 L 516.5 316 L 513.5 314 L 426.5 315 L 423 316 L 424 252.5 L 422 252 L 422 137.5 L 423.5 136 Z " /><path fill="var(--primary)" stroke="rgb(255,0,255)" stroke-width="1" opacity="1" d="M 598.5 225 L 602 228.5 L 602 315.5 L 601 315.5 L 601 228.5 L 598.5 225 Z " /><path fill="var(--primary)" stroke="rgb(255,0,255)" stroke-width="1" opacity="1" d="M 530.5 281 L 537 283.5 L 538 290.5 Q 534.6 296.6 523.5 295 L 518 291.5 L 519 289.5 L 518 287.5 L 530.5 281 Z " /><path fill="var(--primary)" stroke="rgb(255,0,255)" stroke-width="1" opacity="1" d="M 631.5 336 L 632 337.5 L 625.5 345 L 622.5 346 L 622.5 345 L 630 339.5 L 631.5 336 Z " /><path fill="var(--primary)" stroke="rgb(255,0,255)" stroke-width="1" opacity="1" d="M 403.5 346 L 455.5 346 L 457 347.5 L 455.5 347 L 403.5 347 L 403.5 346 Z " /><path fill="var(--primary)" stroke="rgb(255,0,255)" stroke-width="1" opacity="1" d="M 487.5 346 L 536.5 346 L 538 347.5 L 537.5 350 L 537 347 L 487.5 347 L 487 353.5 L 486 353.5 L 487.5 346 Z " /><path fill="var(--primary)" stroke="rgb(255,0,255)" stroke-width="1" opacity="1" d="M 568.5 346 L 621 346.5 L 568.5 347 L 568.5 346 Z " /><path fill="var(--primary)" stroke="rgb(255,0,255)" stroke-width="1" opacity="1" d="M 635.5 391 L 646.5 403 L 635.5 391 Z " /><path fill="var(--primary)" stroke="rgb(255,0,255)" stroke-width="1" opacity="1" d="M 387.5 392 L 378.5 402 L 387.5 392 Z " /><path fill="var(--primary)" stroke="rgb(255,0,255)" stroke-width="1" opacity="1" d="M 615.5 414 L 622.5 422 L 615.5 414 Z " /><path fill="var(--primary)" stroke="rgb(255,0,255)" stroke-width="1" opacity="1" d="M 588.5 469 L 590 469.5 L 581.5 476 L 586.5 470 L 588.5 469 Z " /><path fill="var(--primary)" stroke="rgb(255,0,255)" stroke-width="1" opacity="1" d="M 420.5 471 L 418 474.5 L 415.5 481 L 415 478.5 L 420.5 471 Z " /><path fill="var(--primary)" stroke="rgb(255,0,255)" stroke-width="1" opacity="1" d="M 579.5 480 L 580 507.5 L 579 507.5 L 579.5 480 Z " /><path fill="var(--primary)" stroke="rgb(255,0,255)" stroke-width="1" opacity="1" d="M 444.5 492 L 445 520.5 L 444 520.5 L 444.5 492 Z " /><path fill="var(--primary)" stroke="rgb(255,0,255)" stroke-width="1" opacity="1" d="M 580.5 520 L 581 545.5 L 580 545.5 L 580.5 520 Z " /><path fill="var(--primary)" stroke="rgb(255,0,255)" stroke-width="1" opacity="1" d="M 443.5 531 L 444 557.5 L 443 557.5 L 443.5 531 Z " /><path fill="var(--primary)" stroke="rgb(255,0,255)" stroke-width="1" opacity="1" d="M 581.5 557 L 582 583.5 L 581 583.5 L 581.5 557 Z " /><path fill="var(--primary)" stroke="rgb(255,0,255)" stroke-width="1" opacity="1" d="M 442.5 568 L 443 594.5 L 442 594.5 L 442.5 568 Z " /><path fill="var(--primary)" stroke="rgb(255,0,255)" stroke-width="1" opacity="1" d="M 582.5 594 L 583 621.5 L 582 621.5 L 582.5 594 Z " /><path fill="var(--primary)" stroke="rgb(255,0,255)" stroke-width="1" opacity="1" d="M 441.5 606 L 442 631.5 L 441 631.5 L 441.5 606 Z " /><path fill="var(--primary)" stroke="rgb(255,0,255)" stroke-width="1" opacity="1" d="M 583.5 632 L 584 658.5 L 583 658.5 L 583.5 632 Z " /><path fill="var(--primary)" stroke="rgb(255,0,255)" stroke-width="1" opacity="1" d="M 440.5 639 L 441 666.5 L 440 666.5 L 440.5 639 Z " /><path fill="var(--primary)" stroke="rgb(255,0,255)" stroke-width="1" opacity="1" d="M 614 659 L 618 661.5 L 615 660.5 L 614.5 689 L 614 659 Z " /><path fill="var(--primary)" stroke="rgb(255,0,255)" stroke-width="1" opacity="1" d="M 409.5 668 L 410 691.5 L 409 691.5 L 409.5 668 Z " /><path fill="var(--primary)" stroke="rgb(255,0,255)" stroke-width="1" opacity="1" d="M 584.5 669 L 585 697.5 L 584 697.5 L 584.5 669 Z " /><path fill="var(--primary)" stroke="rgb(255,0,255)" stroke-width="1" opacity="1" d="M 439.5 677 L 440 700.5 L 439 700.5 L 439.5 677 Z " /><path fill="var(--primary)" stroke="rgb(255,0,255)" stroke-width="1" opacity="1" d="M 615.5 697 L 616 722.5 L 615 722.5 L 615.5 697 Z " /><path fill="var(--primary)" stroke="rgb(255,0,255)" stroke-width="1" opacity="1" d="M 408.5 701 L 409 727.5 L 408 727.5 L 408.5 701 Z " /><path fill="var(--primary)" stroke="rgb(255,0,255)" stroke-width="1" opacity="1" d="M 585.5 705 L 586 728.5 L 585 728.5 L 585.5 705 Z " /><path fill="var(--primary)" stroke="rgb(255,0,255)" stroke-width="1" opacity="1" d="M 438.5 711 L 439 734.5 L 438 734.5 L 438.5 711 Z " /><path fill="var(--primary)" stroke="rgb(255,0,255)" stroke-width="1" opacity="1" d="M 616.5 732 L 617 759.5 L 616 759.5 L 616.5 732 Z " /><path fill="var(--primary)" stroke="rgb(255,0,255)" stroke-width="1" opacity="1" d="M 407.5 739 L 408 764.5 L 407 764.5 L 407.5 739 Z " /><path fill="var(--primary)" stroke="rgb(255,0,255)" stroke-width="1" opacity="1" d="M 586.5 740 L 587 762.5 L 586 762.5 L 586.5 740 Z " /><path fill="var(--primary)" stroke="rgb(255,0,255)" stroke-width="1" opacity="1" d="M 437.5 746 L 438 770.5 L 437 770.5 L 437.5 746 Z " /><path fill="var(--primary)" stroke="rgb(255,0,255)" stroke-width="1" opacity="1" d="M 617.5 768 L 618 791.5 L 617 791.5 L 617.5 768 Z " /><path fill="var(--primary)" stroke="rgb(255,0,255)" stroke-width="1" opacity="1" d="M 587.5 772 L 588 801.5 L 587 801.5 L 587.5 772 Z " /><path fill="var(--primary)" stroke="rgb(255,0,255)" stroke-width="1" opacity="1" d="M 406.5 774 L 407 797.5 L 406 797.5 L 406.5 774 Z " /><path fill="var(--primary)" stroke="rgb(255,0,255)" stroke-width="1" opacity="1" d="M 436.5 782 L 437 810.5 L 436 810.5 L 436.5 782 Z " /><path fill="var(--primary)" stroke="rgb(255,0,255)" stroke-width="1" opacity="1" d="M 618.5 802 L 619 827.5 L 618 827.5 L 618.5 802 Z " /><path fill="var(--primary)" stroke="rgb(255,0,255)" stroke-width="1" opacity="1" d="M 405.5 809 L 406 833.5 L 405 833.5 L 405.5 809 Z " /><path fill="var(--primary)" stroke="rgb(255,0,255)" stroke-width="1" opacity="1" d="M 588.5 813 L 589 840.5 L 588 840.5 L 588.5 813 Z " /><path fill="var(--primary)" stroke="rgb(255,0,255)" stroke-width="1" opacity="1" d="M 435.5 823 L 436 848.5 L 435 848.5 L 435.5 823 Z " /><path fill="var(--primary)" stroke="rgb(255,0,255)" stroke-width="1" opacity="1" d="M 619.5 838 L 620 863.5 L 619 863.5 L 619.5 838 Z " /><path fill="var(--primary)" stroke="rgb(255,0,255)" stroke-width="1" opacity="1" d="M 404.5 843 L 405 881.5 L 404 881.5 L 404.5 843 Z " /><path fill="var(--primary)" stroke="rgb(255,0,255)" stroke-width="1" opacity="1" d="M 589.5 849 L 590 878.5 L 589 878.5 L 589.5 849 Z " /><path fill="var(--primary)" stroke="rgb(255,0,255)" stroke-width="1" opacity="1" d="M 434.5 858 L 435 876.5 L 434 876.5 L 434.5 858 Z " /><path fill="var(--primary)" stroke="rgb(255,0,255)" stroke-width="1" opacity="1" d="M 612.5 900 L 612 901.5 L 601.5 913 L 611 902.5 L 612.5 900 Z " /><path fill="var(--primary)" stroke="rgb(255,0,255)" stroke-width="1" opacity="1" d="M 412.5 901 L 421 910.5 L 414 904.5 L 412.5 901 Z " /><path fill="var(--primary)" stroke="rgb(255,0,255)" stroke-width="1" opacity="1" d="M 489.5 904 L 482.5 912 L 489.5 904 Z " /><path fill="var(--primary)" stroke="rgb(255,0,255)" stroke-width="1" opacity="1" d="M 444.5 921 L 460 921.5 L 444.5 922 L 444.5 921 Z " /><path fill="var(--primary)" stroke="rgb(255,0,255)" stroke-width="1" opacity="1" d="M 565.5 921 L 580 921.5 L 565.5 922 L 565.5 921 Z " /></svg>