<svg xmlns="http://www.w3.org/2000/svg" viewBox="0 0 1024 1024"><path fill="#0d0d0a" stroke="#0d0d0a" d="m491.5 186 2 1 17-1h2l2 1h12l24 7 26 15 36 15 21.5 15.5.5 1.5 12.5 11.5q16.5 18.5 28 42l25.5 57.5 1-3 3.5 9.5 3 23 5 20 3 34v2l-1 4 1 2-3 22v2q-1.2 24.3-8.5 42.5l-1.5-.5 4-37h-1l-2 14-11 41 3-1-8 20 2-1 3.5-5.5-.5 1.5-5 11-13 16 17 19 5 11q0 12-7 17l4.5 4.5 1-1 1.5.5 14.5 16.5 17 13-4.5-5.5-15-20 2.5-.5 40 46 17.5 15.5 1.5 2.5 1.5.5 1.5 2.5 29.5 27.5.5 1.5 17.5 16.5 3.5 4.5 1.5.5 5 6-1.5.5-20.5-19.5-2.5-3.5-16-14 10.5 11.5 6.5 7.5 1.5.5 32.5 34.5 4.5 3.5 21 27-1.5.5-19-22-.5 3.5 5 3-1 8 3.5 4.5 2-3 3.5 1.5 3 14v10q-2 14-10.5 21.5l-10 5h-8q-5.9 6.6-17.5 7.5l2.5 3.5q-3.5-4-11.5-3.5-.9-7.1-6.5-9.5l-15-10 1.5 2.5 5 9-1.5.5-25-29-2 1-24.5-21.5-.5-1.5-30.5-29.5-46.5-59.5-7.5-3.5 5-1-3.5-4.5-1.5-.5-6-9 2.5-.5 4 3-11.5-12.5-.5-1.5-2.5-1.5.5-1.5 6.5 3.5 11.5 13.5 1.5-.5-15-18-.5-3.5-7 3h-2l-1.5.5-.5 2.5-3-2-4 1-2-4-21.5-19.5-.5-1.5-24 16q-10.1 7.4-26 9-4-2.5 2-5l4.5-2.5-1.5-.5-13 5-2-1-15 9-9 2-.5-1.5 3.5-3.5 9.5-3.5-4.5-.5-53 13-17 2-2-1-31 1-3-1q-43.7-4.3-73.5-22.5l1.5-.5 12 6 35 12 30 5 2-1 5 1v-1q-24.2-5.3-44-15l-88-52 .5 1.5q6.7 14.8 19.5 23.5l15.5 11.5-1.5-.5q-15.2-7.3-25.5-19.5l-15-25 1.5-.5q20.2 17.8 46 30l-1-2-26-19-1 2-6.5-4.5-10.5-12.5-4.5-2.5q-17.3-24.2-30.5-52.5l-.5 2.5q11.9 35.1 29 65l-2-1-17-33-9-12-7-17q-7.2-23.3-10-51-9.8-26.7-14.5-58.5l-1.5 13.5 1 3v2l-1 3 4 31-2-1q-5.6-23.4-3-55l4-48 3-10v-2l3-17 9-28q4-14.5 12.5-24.5l2.5.5-.5 3.5-1-2-1.5.5q-13.3 26.7-21 59v2l-5 25v12h1l1-8 8-22 5-25 6.5-10.5 1.5.5.5 2.5 14.5-36.5 11-22 6.5-7.5-.5 1.5-3 5 5-4 22.5-23.5 21-16 51.5-26.5-2.5-.5q-55.3 14.7-87.5 52.5l-3.5 4.5-1.5-.5 13.5-17.5q26.1-24.4 64-37l73-21zm27.5 2-44 2-35 6v1l17-2 46 1 22 4 27 2 9 3h3q-14-11-34-14h-2l-8-1zm-75 14-32 8v1l39-8zm35 0q-1 2 5 1h2l7 3v1l-26-3-30 5h38l9 3h-2l-43-1-3 1-2-1-25 4-15 6h-2q-40 16-68 43l-1 2h-1l-23 26-3 2-6 7-15 28 1 2q13-26 33-46l19-18v-1q13-13 30-21l4 1-1 5-9 15h-2l9-17v-2l-27 19-3 4-3 2-18 20-2 1q-25 28-40 65l1 2 14-27 3-2 1-2 1 1-25 49-4 12-1 13q1 35 7 66l11 46q11 42 33 74l2-1 6 9 12 11-25-42 2-1 29 47q22 13 51 21 42 12 90 19l1 3-4 1q-7-4-19-2l6-1-63-14-29-10-3 1 43 19 26 5v1l-7-1-1 2 18 4h9l-15-3-1-2 31 4h18l20-5q37-12 70-29l7-1v2l-21 15-2 3q21-8 39-20l27-22q23-19 37-46v-2l-20 23h-1l-21 23-9 7-2 3h-1l-4 3 1-2 4-3 6-7 4-3 45-50 13-20 13-47 9-53 3-1h1l-1-10 1-2q-6-45-26-75l2-1q9 11 13 27h1l-3-14-14-36-28-38-8-7 19 36 1 1-32-50q-15-18-39-27-32-14-69-23l-1-2 2-1-2-2-24-2-3 1zm59 1v1l31 11 30 15h1l-22-18q-18-7-40-9Zm-15 4v1q27 6 50 16h2l-29-13-15-4zm67 9 49 39 20 22 3 2-21-29q-21-22-51-34Zm-232 17-17 11-3 4 21-14zm-33 15-11 9-1 2-4 5 17-15zm313 11 31 41 2 1q-6-16-17-26zm-351 28-16 25 1 1 15-24zm396 41 9 26 4 17h1q-4-25-14-43Zm-427 14-6 12 1 2 5-12zm8 6-7 20 1 6 6-23zm-13 13-6 14-4 38v2l1 9 3-31 6-27zm3 17-5 20 1 5 5-19zm447 0 1 20 2 1zm-461 13-8 28q1 32 9 58l2 1-2-21v-2l-2-13 1-44zm470 14v3l-1 2 2 62 2-18q1-27-2-48zm-456 2-4 19 1 4v2l-1 4 1 13v2l2 8-1 3 9 44 10 33q9 24 26 41h1q-28-50-38-117v-2q-6-25-6-54Zm446 28-3 8-5 37-8 30 1 2q6-8 9-20l6-40zm-451 17 4 32h1l-4-20 1-2zm3 69q3 27 15 47h1zm7 3 2 9h1zm20 45 5 12 3 2zm395 5-2 3 10 8h1l-7-9zm-8 8-12 15-5 4-10 11 2 4q15-15 26-33zm3 3-11 18-3 2 1 2-6 6-1-1-8 9 2 8 2 1-1-10 3-1 7 19 9-7q10-6 13-20l1 2 1-4h2l-1-3 1-3 2-1-1 5h2l2-5-1-1-1-1-2-2-4-5zm-332 33-1 2 43 23h2zm302 5 4 19h1l-4-18zm47 1-8 12 1 1 8-6v-1l2-1zm-54 4 1 10 1-9zm59 2-19 22 5 15h2v2l5 4-6-24 3-1 14 36 7 11 9 8-8-25 2-1 10 22 2-1 14 27 1-2 10 17 13 12-13-29 3-1 18 29v1l-6-8-2-1 9 18h2v2l4 3-6-16 2-1q12 31 31 57h1q-10-28-25-50l1-4 26 44h1l-4-10v-5l3-1 18 27 6-2v6q-4 2 1 5v1l-4-2-12-15-4-3 8 22q5 5 16 4l17-25-1-6v-2l-7-17-13-13-1-1-2-2-17-18q-21-22-45-40l-2 1q23 20 40 48l3 3-20-23-1-3-2-1-8-9-2-2-3-3-1-1-1-1-28-27-1-1-1-1q-24-20-40-47zm-343 1q4 8 17 11h3zm299 0v10q2 3 4-1zm-79 1q-32 17-71 27v1l15-1 32-8 26-18zm57 0q-3 9 3 13h1zm50 1-7 9h2l5-7zm-38 2v14l-3 1v1l6-2 1-3h-1zm-38 4-36 22-1 2q20-7 35-19l3-4zm-20 3-9 5-1 2 11-6zm-206 5q5 6 18 8h1zm282 7-2 3 3 3 2-1 1-2-3-1v-1zm-274 1q26 19 68 24l24-2v-1l-1-1-3 1q-49-6-88-21Zm338 0 12 15 8 6 1 3 26 22h1zm-181 3-13 4v1l16-4zm128 0-4 3 15 25 2 1q-4-18-13-29Zm-7 5-4 3 6 5zm-207 3 2 2 10 1q14 2 24-1l-2-2zm211 0q0 13 11 20h1zm24 3 4 12h1zm-226 3v1h21zm218 0 2 8 2 1zm2 9 9 23 2 1q-3-14-10-23zm12 5 5 15 2 1zm10 12q1 12 8 21l4 2 2 3h1l-4-13zm-8 1 2 11 3 2zm23 4 2 10 2 1zm-44 7v4l36 45 31 29 3 4h1l-55-66zm46 7 2 13 7 6zm11 13 5 14 3 2zm-7 5 7 11 4 3-7-10zm19 12v4l4 3zm8 4q2 11 11 18h1q-4-11-12-18Zm-5 6q2 13 11 21l4 3-7-15zm23 12 4 12 7 6q-3-12-11-18Zm-8 2 8 19 6 5q-4-16-14-24Zm89 18 1 9 1-2zm-71 1 4 14 9 7h1l-8-15zm67 12-13 20h2l12-15zm13 0-5 18-5 8-9 10 8-3q9-6 11-18zm-57 2q-1 9 6 14h1zm-15 7 1 10 7 8 8 3h2l5 2h4l-6-3 1-2-6-10-2 1 1 5h-1l-4-6zm25 13 1 5 7 2 5-4zm30 1-5 3-3 4 8-5zm-36 12 3 6q2 4 11 3v-1l4-1 1-2-7 1-7-1-1-1 2-1v-1z"/><path fill="#0d0d0a" stroke="#0d0d0a" d="M454.5 233h2l25.5 3.5-6.5.5-29-1q-32 4-54.5 17.5l2.5.5q22.4-11.6 53-15l6 2 34-4 15 2h2l18 2 35 11 40 25-11.5-12.5-2-5 1.5-.5 2.5 1.5 35.5 38.5 1.5.5 2.5 3.5.5-1.5-6-10 1.5-.5 1 2 1.5.5 25 47 16 39 2 7 1 20-5 65 1 2-3 27-5 12-39.5 51.5-4.5 3.5-13.5 15.5-1.5.5-.5 1.5-1.5.5-2.5 3.5q-18.3 17.7-41 31l-17 9-8 1 2-3q36.8-13.7 61.5-39.5l-.5-1.5-23 16-37 17-6 1-4-1-31.5 6.5 26.5.5 13-2-1 2-21 3-2-1-6 1-3-1-3 1-62-6-28-7v1l34 12 25.5 2.5q-6.2 3.8-18.5 1.5l-20-5-46-19-36-20-18.5-16.5-.5-1.5-4.5-3.5-17-28-18-56h1l1.5 2.5.5-2.5-8.5-52.5-2 8-1.5-.5 1-16 9-42 1-3 15-46 18.5-24.5 10.5-9.5 2.5-3.5 44-34 24-14q22.3-11.2 54-13Zm44.5 8v1q28 3 51 12l34 20h2q-32-29-87-33Zm-68 2-10 3v1l16-3zm31 2-10 2-2 3-6 5h5q12 3 29 2l8 2 2-1h2l51 6q23 5 41 15h1q-24-18-56-27l-38-7zm-26 4-17 5v1q12 0 19-5zm9 1-10 4v1q8 1 10-3zm-15 7-8 3-20 14-1 2h2l-16 14 1 1 23-17 1-2 11-9 2 1-43 34-43 54 1 1 19-23q33-38 74-68l3-4h-1l-3-1zm11 1-47 39-1 2h-1l-3 4-3 2-1 2h-1l-3 4h-1l-1 2h-1l-25 28-1 2 17-14v-1l19-17v-1l31-24 3 1-10 12 1 1 35-18 24-9 13-2v3l-9 8h-2l4-3v-1l4-3v-2l-27 8-45 22-23 28-2 1 17-22 2-3-29 19q-32 30-53 70l1 1 19-17h1l-3 2-1 2h-1l-18 18-5 15h-1l2-8v-3l-7 10-2 1 32-51 15-20 8-9-6 4q-31 26-50 64l-4 3h-2q-4 2-2 9v2q2 38 13 68v-1h1l-1 3q9 35 24 64l-1 2h3l-1 2 14 10 4 6h2v2l8 6v2h2v2l12 7 18 6 19 3h2l32 4 3 1h22l15-10h1l-16 11v1l19-6 17-21 15-14v-1l4-3 6-7q-23 15-49 26l-32 9-1-1 14-4 23-12 38-30 29-29-1-1 2-1 17-19 2-1 4-6 2-1v-1h1l-18 22h2l-5 3-2 3-33 32-1 2q-20 20-46 33l-1 2q31-12 58-29l49-41 11-13 2-1-1-1h2l3-2 18-18 12-42h1l-10 37 1 2 3-1 2-1-2 6-10 11-8 20h2v-1l2-1q16-22 27-50v-2l-7 11-2 1 10-18 3-2-5 17-18 36 1 1 20-30 1 1-9 17q-4 2 0 4l-11 17-1 2 9-5 3-3 8-18q6-22 8-47l-1-2v-2l1-2q1-22-2-39l-9-46q-11-25-29-43l-18-18-5-3 2 3-1 3-2-4q-29-20-74-23h-2l-23-3zm-27 2-6 2-5 8 1 1 14-10zm-11 5-14 10-5 6-26 23q-21 20-36 46h2l13-16 50-47 16-20zm-7 1q-16 6-26 16l-2 3q18-6 30-18zm191 8-1 2 27 20 3 3-1-3q-12-14-28-22Zm-213 11-11 6-20 25 1 1 9-10 13-12v-1l9-8zm44 4-34 26-3 4v1l27-17 11-13zm-80 4-17 18h-1q-14 13-21 33l1 2 13-20 2-1v-1l4-3 20-27zm17 3-9 7q-18 16-28 40l1 1 37-47zm-16 4-9 10 1 1 8-9zm36 1-5 4-35 36-1 2 41-40zm255 9 1 5 3 2zm-270 10-28 27-27 31-6 26 1 2q27-45 60-84zm283 10v7l11 24 9 30 3 23h1q2-19-2-31zm-312 2-21 28h2l19-26zm-21 2-15 28 1 2 14-28zm7 4-12 21 1 1 11-20zm2 19-8 4v2l-4 8 1 1 12-14zm329 7 6 38 1 21-2 27v2l-2 16-3 8 1 4q9-24 8-60v4l1 3-1 2h2v-5h1v24l-7 34 1 5q7-14 7-35v-2l1-3-1-13v-2l1-8-3-22zm-355 4-5 12h2l3-9zm12 0q-8 4-8 16h2l6-14zm-5 18-2 3 1 6 2-8zm-5 7-3 16 1 10q5-9 3-25zm-9 7-5 14q-2 10 2 15v-4l3-20zm10 17-4 8 1 13-1 2 10 59q8 28 24 50l4 2 1 1-23-57 1-3q-12-33-13-75Zm-6 28 1 28 7 24h1q-7-23-8-51zm338 29-6 7 1 1 6-7zm35 0q-4 30-18 50l1 1q14-14 17-39zm-43 6-1 2-2 1-20 21-3 6v1l24-22 3-8zm30 4q-15 37-35 70h-1l9-19v-2l-26 33-27 24-1 2q22-12 41-29l13-15 2-1v-1l2-1-1-2 4-7 4-3-1-2 8-13 9-30zm-360 3q2 30 18 50l2 1q-13-23-20-51Zm343 5-12 16 1 1 11-15zm-18 1-2 3-18 16-11 19-2 1 6-11v-2l-17 24h-1l-19 25-2 1 1 1 20-15 30-30q10-12 15-29zm4 11-32 40h2q18-15 30-37zm-28 6-25 21-5 6 25-18 5-7zm39 1-10 6-28 34 1 1 10-9 18-19 2-1 8-11zm-47 11-49 37-1 2-6 5-2 3h-1l-1 2-5 4-18 22-1 2 45-25 39-50zm40 3-4 5h-1l-1 2h-1l-1 2-3 2-3 4-21 18-18 23v1l21-15q18-18 32-39zm-320 6q5 22 20 38 13 14 31 24h2l-7-6-38-42zm284 9q-16 18-37 31l-10 12 1 1 34-29 4-2-1-1 9-10zm3 5-39 32-2 3-8 6 2 1q-1 4-8 2l-17 14-1 2 27-10 28-24q11-10 18-24zm-253 15-1 2 23 19h1l-6-7zm232 15-18 16 1 1 8-4 10-12zm-28 2-44 27h-5l-21 7-1-2q-41 0-73-9l-4 1q17 11 44 12h2l22 3 2-1 22 1h2l5 1 34-4 8-9 4-3 1-2-28 10-1-2 24-18 7-10zm34 4-10 8-22 9-11 12q27-9 44-28zm-218 7 4 5 17 11h1q-9-11-22-16Zm18 8 14 12 21 7h3zm65 20 3 2 23 4 28-2v-1h-1z"/><path fill="#0d0d0a" stroke="#0d0d0a" d="m522.5 284 1.5.5-1.5 2.5-29 10-.5-1.5 13-5-.5-1.5zm-91 27 2.5.5-.5 1.5-10.5 8.5-.5 1.5-4 2 5-6 2.5-1.5.5-1.5 4.5-3.5zm-15 14-6 7-21 18-.5-1.5 18-15 1.5-2.5zm-33 8-.5 1.5-3.5 5.5-.5-1.5zm-6 8 .5 1.5q-22.8 27.7-40 61l3-2 5-8 26.5-28.5.5 1.5-3 2-37 44-14.5 27.5-1.5.5-1.5 2.5.5-1.5 5.5-11.5 1.5-.5-1-2 2-1-1-2h2l1-3v-2l31-51zm85 11 1.5.5 2.5 13.5 2-10 2.5.5-1 6v4l.5 5.5 5 1h11l24 6 8-15 1 4 1.5-.5 3.5-6.5 2.5.5-8 21 20.5 15.5h3l22-17 .5 2.5-5 6 4 2-11 14q2.5 6.5 11.5 6.5l14-5 2 3 5-2 .5 2.5-1.5 2.5-13.5 10.5q2.7 13.9 13 20l-1.5.5-7-5-2.5-.5-.5-1.5-4-2-.5 1.5 2 4-1.5 2.5-2-1-3.5 5.5 2.5-1.5 3-1 .5 1.5-2.5 3.5-28.5 22.5 2 1 3.5 7.5 1-2 1.5 2.5-3.5 6.5-5-7-1 3-2.5-1.5-2.5-4.5-22 9-29 6h-16l-34-7-.5 3.5q16.5 8 39.5 9.5h2l19-1v1q-9 3.5-23 2-22-1.5-39-8l-3 8-1.5-.5-.5-1.5-1.5-.5 2-7-26.5-14.5-14 12-1.5-4.5 10-13-19-15q1.8-3.2 3.5.5l2 1h2l1.5-.5-9.5-7.5-4 5-3.5-2.5 5-8-1-3 13-18-1.5-.5-12.5 11.5-2.5 5.5q-4.3-1.8-1.5-3.5l17-20-18-17 2.5-.5 5 3-.5-1.5-1-5 1.5-.5 9 11 9 6 28.5-22.5q-7.9-8.1-11-21l2.5-1.5 3 6 1-6 1.5.5 9.5 18.5 39.5-13.5-2-19zm9.5 23-2 5h5q19 0 33 5l1-2-10-5zm-12 1-34 13 2 3 24-9 12-2v-3zm14 7-3 2 1 1 12-1 3 1h5l-2-2zm-17 2-10 3v1l18-2v-1zm61 1-2 3 13 5h1zm-100 7-14 9-1 2 17-7-1-3zm61 2-2 1h-2l-20 2-33 14q-24 13-41 32h-2l2-4v-2l-6 9 21 14h2l-9-8 2-3q23 22 63 29l30-1h2l10-2h2l31-10 11-6 17-19 2-1 1-2q-18-21-43-34l-24-9zm76 0-8 7 3 1 6-7zm-26 2 7 5v-1zm-86 1-20 9-1 2 23-10zm107 11-1 2 6 3h1zm22 4-10 3 3 1 8-3zm-17 14 11 11h1l-2-4zm7 12-6 9 1 1 7-8zm-160 27 6 4h1zm122 4-24 8-34 4-4-1-1 2 16 1 5 1 16-2 22-8 6-4zm-108 3 10 6 24 5h3zm-14 2q8 10 24 13l1-2zm50 12q-1 2 5 1h2l15 2h2l6-1zm-89.5-93 .5 1.5-4.5 5.5 1.5-2.5zm-5 8-1.5 2.5-2.5 4.5-.5-1.5z"/><path fill="#0d0d0a" stroke="#0d0d0a" d="M468.5 408h7l11.5 4.5 1 4-3.5.5-3-1-3.5 2.5-2 10 4.5 5.5 7 2 2.5-1.5.5-1.5 1.5-.5 2.5-8.5 6.5 4.5 2 13q-2.3 12.7-11.5 18.5-6.7 6.8-21 6-12-.5-17.5-7.5-10.3-7.2-9-26 2.9-12.6 12.5-18.5zm30.5 30-3 10 1 1 3-10zm-48 2q-3 9 2 13l2 1zm-99.5-30 .5 1.5-10.5 15.5-.5-1.5zm285 0 .5 15.5-1.5 6.5-.5-7.5zm-3 1 1.5.5-4.5 6.5-.5-1.5zm-4 8-.5 1.5-12 19-2.5 8.5-1-2-2.5 1.5 5.5-11.5 1 2zm-291 12-.5 1.5-3.5 5.5-.5-1.5zm-5 8 .5 1.5-8.5 14.5-.5-1.5zm276 11-.5 1.5-5.5 7.5 1.5-2.5zm-286 7 .5 1.5-3.5 6.5-.5-1.5zm236 1-.5 1.5.5 1.5 6.5 5.5 2 8-2.5.5-4-5-5.5-2.5.5-1.5 2 1 .5-1.5-3.5-1.5-12 8v-1zm40 6-2.5 3.5-2.5 4.5-.5-1.5zm-9 11 .5 1.5-5.5 6.5.5-1.5zm16 2 .5 2.5-3.5 7.5-.5-1.5zm-374 16 2.5 1.5q4 30 16 52h-1q-13.2-23.2-17.5-53.5Zm308 30-1 2-7 4 1-2zm-17 10-1 2-8 4 1-2zm303 264 1.5 11.5-1.5 3.5z"/><path fill="#f9f9f3" stroke="#f9f9f3" d="M.5 0 1024 .5l-.5 1023.5L0 1023.5.5 310l2.5-1.5-3-2zM356 100l-3 9h2l2-6zm114 74-21 6q-4 1-3 8l6 3-24 5-69 21q-31 11-52 31-12 7-17 22h2l1-2 2-1 2-4q31-36 84-50l1 1-36 20-13 5-21 16-1 2h-1l-2 3h-1l-1 2-2 1-6 7h-1l-5 6-5 4 3-4-1-1-7 8-11 22-13 33h-3l-8 13q-4 27-13 51h-1q6-56 28-96l1 2 1-3-2-2-10 14-14 42-6 30-2 40-2 8 1 38v2l5 14h1l-4-28v-2l1-22q4 32 14 59l3 22v2q5 27 17 47h2l23 42h1q-17-30-29-65l1-2q11 27 28 50l7 4 5 8 11 9 2-3 18 15 1 2-39-26-3 1 12 21q13 15 32 25v-1l-20-16-15-18v-2l84 50q19 10 44 15v1l-35-5q-26-7-47-18l-3 1q33 21 84 24l5 1 37-2 53-13 4 1-10 5 2 3 22-11q9 1 14-4l1 1-4 2-2 3 2 2q30-7 49-26l4 6 3 1v2l3 1v2h2v2l8 5 6 7 3-1 3 1 2-3 3 1 5-4 10 15 3 1 2 4v1l-15-16-4 1 4 6 12 11-5-5-3 2 9 13 1 1-3-1-1 3 8 2q23 35 51 66l8 6v2l7 5v2l3 1 1 3 31 26 3 1 25 29 2-1-3-6-3-5 11 7 8 11 8 1 4 3 1 1-2-3 16-8q11 0 18-5 9-6 11-19 3-16-3-23l1-2-2-5-3 1-1 2q-4-1-3-7v-4l2-1 12 16h3l-22-28-3-3-2-2-1-1-1-1-2-2-1-1-1-1-1-1-36-38 19 17v2l6 4v2h2l7 9 2-1-15-17-4-4-4-4-3-3-5-5-14-13-1-1-31-30-1-1-10-9-35-41-2 1 10 16 7 7-20-16-3-3-6-5 1-2-4-1-3-3 6-10v-4l1-3q-7-17-20-27l14-21 3-2v-1l2-1q17-22 25-55l3 2 6-1 5-8 5-27-1-27-8-34 1-14-4-33-6-20h-2l1-2-1-1v-1l-1-1v-1l-9-21-1-1-10-18-1-1-1-2-1-1-3-4q-18-22-43-37l-10-10-10-10-1-1-1-1-1-1-3-2-1-1-9-6-1-2-3-3-2 1-1-2h-1l-2-3-2 1v-1l-2-2h-2l-1-1q-12-10-30-13h-17l-5 3-39-9q-17-3-37-2Zm424 91-3 2 3 1 7-1zM43 460l1 2h9zm190 32v11l7 24 11 21h1q-12-24-17-54zm695 192-7 2 1 2 8-2v-1zM738 916l-5 2 1 2 7-2v-1z"/><path fill="#f9f9f3" stroke="#f9f9f3" d="M466.5 181q31.1-2.1 53.5 4.5-30-1.5-53.5 3.5h-2l-5 1-6.5-4.5zm89 7h11l16 5 32.5 19.5.5 1.5 8.5 6.5-1.5.5-35-15q-12.5-11-31-16zm-76 2 7.5.5-2.5 4.5-5-1h-2l-18 1-2.5-.5.5-1.5 2 1zm-34 12 2.5.5-22.5 4.5v-1zm50 1 2 1h2l4-1 5.5 1.5-2 1-.5 1.5-10.5-1.5zm-38 2q18.6-1.1 32.5 2.5l-10.5 2.5q-12.1-3.4-29-2l-2 1-3-1-5 1v-1zm-36 2 2.5.5-8.5 2.5v-1zm26 4 2 1 3-1h2l14 1h2l9.5.5-26.5 3.5-9.5 4.5 1.5 6.5 15.5 5.5-28.5 2.5-26 8q-32 14.5-56.5 36.5l-.5 1.5q-20.3 13.2-35.5 31.5l-13 17-8 28-9 21-10 60 2.5 1.5 1-3 1.5.5 7 46h-1l-4.5-13.5-.5 1.5 21 67 20.5 32.5 3.5 2.5 4.5 5.5q48.4 38.6 119 55h2l4-1 2 1 8.5-2.5-.5-1.5-4 1h-2l-20-2-29.5-10.5 2.5-.5 31 7 41 4h29l20-4v1l-5.5 3.5.5 1.5 8-1 30-17q25.7-17.3 45.5-40.5l36-43 13.5-21.5.5 1.5-7 21-1 15 1.5 2.5 6.5 1.5-34.5 39.5-1.5.5-19.5 20.5-1.5.5-1 3 1.5.5 28.5-27.5.5-1.5 1.5-.5 24.5-27.5-.5 1.5Q648.5 580 631.5 595l-34 29q-17.2 12.3-39 20v-1l22.5-16.5-.5-2.5-6 1-55 24-40 11-45-5h-2l-13-3h-2l-16-4-33.5-15.5 1.5-.5q37.9 13.6 82.5 20.5l-2 1 .5 1.5 23 2 1.5-3.5q-48.8-8.2-93.5-20.5-28.4-7.6-49.5-22.5L303.5 565l-1.5.5q9.8 23.7 25 42l-2.5-1.5-3.5-2.5-11.5-14.5-3.5-1.5q-18.1-27.9-29-63l-14-58-6-48 1-3-1-23 8-22 22-42-1.5-.5q-11.1 9.4-16 25l-.5-1.5q24.2-51.3 64.5-86.5l25-17-1.5 2.5-7 16 4-3 9-17-4.5-2.5q-21.8 10.7-37.5 27.5l-.5 1.5-5.5 4.5q-22.6 23.4-39.5 52.5l.5-1.5 18.5-33.5 9.5-8.5 13.5-15.5 1.5-.5 8.5-9.5q23-21 53-35l2 1v-2l2 1v-2l3-1 2 1 21-9zm63 4q14.4.6 22.5 7.5l-4 3-.5 1.5-21.5-10.5z"/><path fill="#f9f9f3" stroke="#f9f9f3" d="m490.5 218 15.5 10.5-6.5.5-13-3-2.5 1.5-.5 1.5h-8l-17.5-5.5.5-1.5 20-3h2zm117 7 8.5 5.5-1.5-.5-7.5-3.5zm-156 11 23.5 1.5-24.5 3.5q-1.5-3.5-8-2-24 3.5-43 12v-1q21.6-11.4 52-14Zm124 2 11.5 5.5-.5 1.5h-5zm-106 7 1.5.5.5 1.5 27 3 17.5 9.5-4.5.5-41-4-3 1-22.5-2.5 6.5-7.5zm-38 5 3.5.5-12.5 3.5v-1zm-110 1 1.5.5-8 7-3.5 4.5-2 1 .5-1.5 6.5-7.5zm122 0-3 4-2-1-2 1 1-2zm177 4 7.5 5.5 4 6zm-194 3 9.5.5-46 39-.5 1.5-4.5 3.5-.5 1.5-16.5 15.5-26.5 30.5 1.5-2.5 31-41 9.5-9.5 42.5-33.5-.5-1.5-14.5 9.5-2.5 3.5-14 10 6-7 6.5-4.5.5-2.5z"/><path fill="#f9f9f3" stroke="#f9f9f3" d="m440.5 258 6 1h2l17 1h2l39 2 20 4 1.5-.5 1.5 2.5 16.5 10.5q22.5 49.5 56.5 87.5l1.5.5 23 27v4l-9 31h1l10.5-32.5 2.5 1.5.5 1.5 2.5 1.5 1.5 3.5 2.5.5.5 1.5 2.5 1.5 10 17-4 43q-3.9 22.6-14.5 38.5l-10 6 2.5-3.5 10-17-1-2 9-14 1-5-1.5-.5-20 31-.5-1.5 19-37 5-19-1.5-.5-13.5 24.5 1.5.5 7-11-.5 1.5-15 32-12.5 17.5-.5-1.5 8-19 5.5-6.5 1.5-.5 5-9-1.5-.5-5 3 .5-1.5 10-38v-2l2-19-1.5-7.5-1 4-3.5 2.5-13.5 23.5-1-4-3.5 10.5-13 19 1.5.5 10-14 .5 3.5-3 13 2-1 4-21 19.5-30.5-.5 1.5 1 3-2 12v2l-12 45-21.5 21.5.5-1.5q6.9-12.1 9-29h-1l-9 28-12.5 16.5-3.5 1.5-.5 1.5-42 36q-26.3 17.7-58 30l1-2q41.8-24.7 72.5-60.5l7.5-8.5 5.5-3.5-1.5-.5-2.5 1.5 19-23-7 6-18.5 21.5-57 33-64.5 23.5 1.5.5 33-10 32-13 49-29-2.5 3.5-17.5 18.5-45 36-21 11q-10.2-.2-15.5 4.5l.5 1.5q47.7-9.3 80-34l-12 13-3.5 2.5-25.5 29.5-14 4 2-3 13.5-8.5-.5-1.5-20 13h-16l-43-5-29-7q-18.9-5.6-28.5-20.5l-4.5-5.5-13.5-9.5-20-47-6-18v-6l4-13-2 1-3.5 10.5-9.5-39.5-2-37 6-3q20.4-39.1 52.5-66.5l-.5 1.5-.5 1.5-1.5.5-16 21-32 52 1.5.5 7-10-.5 1.5-2 10 2 1q.5-12.5 6.5-19.5l1.5-.5 8.5-9.5 13.5-12.5-1.5-.5-21 20 .5-1.5q15.7-29.3 36.5-53.5l1.5-.5 12.5-14.5 29-19-4.5 5.5-20.5 27.5-1.5.5-19 26-25 43-8 10-9 23 1.5.5 14.5-27.5 10.5-14.5 1.5-.5 32.5-37.5 1.5-.5.5-1.5 1.5-.5 12.5-13.5 24-20 1 1 9-9 2.5-1.5.5-1.5 3-2h2l10.5-5.5-1.5-.5-9 5 1-3-2-1-50.5 44.5-3.5 4.5-1.5.5-10.5 11.5-1.5.5-8.5 10.5-2.5 1.5-14.5 18.5 1.5-2.5q10.6-22.4 26-40l1-3q18.9-29.1 42.5-53.5 31.3-19.2 71-30l-9 10-13.5 10.5 1.5.5 24.5-19.5 1-2q-2-3.5-9.5-1.5-35.8 10.7-64 29l2.5-3.5 7-8v-3l-1.5-.5-25 17-43 40 5.5-6.5 41.5-43.5zm80.5 26-16 5-2 3h-2l2-1v-1l-14 4-1 2 11-4 1 1-9 3-1 2 34-11 1-2zm-64 11-18 12-3 4 22-15zm29 3-13 7 1 1 15-7zm-71 32-10 11h2l8-9zm-13 15-15 18h-1l-1 2h2l4-6 2-1 9-11zm60 7-2 3 2 18q-22 4-38 13l-10-20-3 2 1 2v2l-2-5-4 1v4l10 19q-16 8-27 20l-13-9-4-6q-2-4-4 1l1 3 1 1-5-3-2 3 11 8v2h2l5 7-3 2-14 15-1 4 3 1 3-5 12-11-13 19 1 2-4 9 5 1 4-5v2l6 3 1 2-7-2-1 3 18 14-10 15 1 2h4l3-4 9-8q10 9 25 15l-1 7 4 2 4-8q17 8 44 8h2l2 1 6-1h2l12-4 1-2q-11 4-25 4l-8-1h-2q-19-2-34-8l2-4q16 7 38 8l13-1 28-6 21-9 1 4 4 2 1-2 1 4 5 2 2-3-1-2 1-4-1-1-1 2-4-5 15-9q1-4 3 0h-2l-1 2 12 8 2-1q0-8-5-11l-2-2-2-4-19 14-2 1 20-15 11-12-2-2-4 3 1-2 4-2q4-2 0-4l1-3 14 9v-2l-1-1q-9-6-12-17l16-14v-3l-6 1-1-2-13 4h-7l-7-5 11-15-2-2 4-5-2-4-22 18-23-16 9-19-3-3-4 7-1-1-2-2-8 15q-16-7-38-7l-1-16-1-1q-4 2-3 8l-1-3v-2l-1-4zm-80 17-7 8 1 1 6-7zm-29 1-2 1-5 6 4-2v-1l4-3zm21 9-10 13 1 1 9-12zm-11 14q-23 28-39 63h2q17-33 38-62zm-39 63-8 15 1 3 7-15zm277 6-9 11 1 1 8-10zm-9 12-7 9h2l5-7zm-47.5-215 10.5 4.5-2 1-.5 2.5-6.5-3.5zm121 0 15.5 12.5q36.1 35.4 44 99l-2-1-12.5-30.5-1.5-.5-11-26zm-254 2 4.5.5-13.5 10.5 1.5-2.5 4.5-7.5zm-9 4-.5 1.5q-7 13.5-18.5 22.5l-1.5.5-.5 1.5-39.5 36.5-19.5 22.5 2.5-3.5q10.6-20.4 26.5-35.5l1.5-.5 12.5-13.5 1.5-.5.5-1.5 1.5-.5 4.5-5.5zm208 1 18.5 15.5 11 15-1.5.5-28.5-29.5zm-216 1-2 3q-9.8 9.7-24 15l4-5zm254 4 1.5.5.5 1.5 5.5 4.5 5 6-.5 1.5 3.5 2.5-.5 1.5 1.5.5-1.5.5-2-4-3.5-2.5.5-1.5-5.5-4.5q2.7-1.8-1.5-3.5z"/><path fill="#f9f9f3" stroke="#f9f9f3" d="m558.5 286 17.5 13.5 43 62 12 23-1.5.5q-42.3-43.8-71-99Zm-188 1 1.5.5-26 25 15.5-20.5zm-85 2-1.5 2.5-11.5 19.5-.5-1.5zm131 1-.5 1.5-10.5 12.5-25 16 6-7zm168 1 31.5 32.5 14 28h-1L603.5 318l-2.5-1.5-15-19zm-248 4-3.5 4.5-32.5 43.5-.5-1.5q12.6-28.9 36.5-46.5Zm16 3 .5 1.5-33.5 42.5.5-1.5q9.8-24.2 28.5-39.5zm-13 1-1.5 2.5-6.5 8.5.5-1.5zm33 4-1.5 2.5-.5 1.5-1.5.5-.5 1.5-36 35 12.5-13.5 16.5-17.5zm-14 19-2.5 3.5-55.5 77.5-.5-2.5 5-22q14.1-20.4 32.5-36.5l1.5-.5.5-1.5zm286 13 4.5 10.5h-1zm-330 7-.5 1.5-3.5 6.5.5-1.5zm7 3-.5 1.5-6.5 10.5-2 1 2.5-3.5zm346 1 4.5 10.5h-1zm-365 1-.5 1.5-5.5 12.5-.5-1.5zm-39 2 .5 2.5-6.5 20.5-.5-1.5q1.2-12.8 6.5-21.5Z"/><path fill="#f9f9f3" stroke="#f9f9f3" d="m317.5 358 1.5.5-10.5 11.5-.5-1.5 3.5-7.5zm-68 6 .5 3.5q-5.4 15.6-6.5 35.5l-1.5-.5 3-26zm54 5 .5 3.5-5.5 10.5-.5-3.5zm158 7 1.5.5-.5 4.5-10 1-24 10q-4.5-2-1-4zm10 0q22.6-.6 37.5 6.5-1.8 4.2-3.5 1.5-14.5-5-34.5-4.5zm-218 3 .5 8.5-3.5 10.5-.5-4.5zm218 5 13.5.5-13.5.5zm47 2 9.5 6.5-1.5.5-9.5-3.5zm-101 7 1.5 3.5-14.5 6.5 1-2zm-179 2 .5 10.5-1 30 4 39h-1q-7.1-23.4-9-52zm247 0 19 4 20 10 29.5 22.5.5 1.5 5.5 4.5-.5 1.5-3.5 2.5-7.5 9.5-14 12-15 6-20 6-30 4-2-1-8 1q-44.2-5.3-69-30l-1.5 3.5 6.5 7.5q-12.3-5.2-20.5-14.5l4.5-5.5.5 1.5-1 3 1.5-.5 35-28q20-12.5 46-19l2 1 7-2 2 1h2zM475 407q-15 1-21 9-10 5-10 20l-1 3 6 16q7 11 25 12l16-5q9-6 13-17 3-17-6-21l-5 3 1 2-4 6-7-1-6-7 5-10 6 1 1-5zm-180.5-11 .5 13.5-1.5 4.5-.5-11.5zm259 0 .5 1.5-6.5 4.5 2-3zm-269 7 .5 4.5-2.5 20.5-1.5-10.5zm-31 8q5.8 99.7 43.5 167.5l-4-3q-19.4-23.1-28-57l-12-55-2-40 1-3zm476 5 2.5 4.5 3 25-4 30-4.5 9.5-.5-19.5v-2l1-5-1-2v-2l1-11-2-19zm-56 3 5.5 2.5 1 7-2.5-1.5-2.5-1.5zm-379 1 1.5 1.5q-.1 21.6 4 39l8 29v6l-2 7q1.5 3 3 0l-1-2 1.5-3.5 20.5 53.5-5-4q-13.5-18.5-21-43-9.6-33.4-12-74l1-3v-2zm261 7 10.5 8.5-.5 2.5-9.5-8.5zm99 8 .5 15.5-4.5 22.5-.5-3.5 3-11zm-93 5 2.5 1.5-5.5 4.5.5-1.5zm113 2 7.5 1.5-2.5 9.5-1.5-.5z"/><path fill="#f9f9f3" stroke="#f9f9f3" d="m450.5 444 3.5 7.5-2-1zm210 1 .5 9.5-4 23-2.5 5.5-.5-5.5zm7 8q.6 9.9 6.5 14.5v6L663.5 502l-.5-2.5 2-7 1-33zm-377 2 1.5 1.5q.9 20.6 6 37h-1q-6.7-16.7-6.5-38.5Zm234 15-1 2-27 11-25 1-8.5-1.5 13.5-1.5h2q27.1-1.4 46-11Zm-130 4 .5 1.5-5.5 4.5zm24 0 20.5 6.5-3.5.5q-11.5-1.6-17-7Zm-13 3 20.5 8.5-1.5 2.5q-12.7-3.4-19-11Zm277 1 .5 1.5-12 34-4 17 4.5 2.5 1.5-.5-9.5 13.5-1-2-2.5-.5v-9l4-12 6-11zm-63 3 .5 1.5q-3.2 10.8-12.5 15.5l-1.5.5-5.5 6.5-6 5 .5-1.5 4-7zm42 1 .5 7.5q-2.9 21.6-15.5 33.5l.5-1.5q10.8-16.2 14.5-39.5Zm-13 6 .5 1.5-9 29-15 25 3-1-5 4-9.5 11.5-1.5.5-5.5 6.5-33 24 5-6 12.5-10.5 9.5-11.5 2.5-1.5 18.5-24.5-.5 1.5-8 19 2-1zm62 4 3.5 1.5q-6.4 31.1-24.5 50.5l.5-1.5 6-17h-2l8.5-30.5 1.5.5-2 14 1.5 2.5 3.5-5.5z"/><path fill="#f9f9f3" stroke="#f9f9f3" d="m614.5 494-.5 1.5q-3.7 16.3-13 27L573.5 551l-23 18 4.5-5.5 31.5-42.5-.5 1.5-5 10 1.5.5q4.7-14.3 15-23zm-323 1 14.5 35.5-2-1q-10.3-14.2-12.5-34.5Zm339 0-1.5 2.5-6.5 9.5 1.5-2.5zm-12 10-.5 1.5-14.5 21.5-3.5 2.5-11.5 12.5 2.5-3.5zm-30 7 1.5.5-6.5 7.5-23 17 3-4zm40 0 1.5.5-31.5 33.5-1.5.5-.5 1.5-1.5.5-.5 1.5-.5-1.5 26.5-31.5zm-376 12 13.5 39.5h-1q-9.7-17.5-12.5-39.5Zm328 0 .5 1.5-39.5 49.5-43 24 4.5-5.5 24.5-27.5 1.5-.5 6.5-7.5zm42 2-1.5 2.5q-13.9 23.1-33.5 40.5l-17 12 1.5-2.5 16.5-20.5zm-319 7 6.5 10.5 35.5 41.5 8.5 6.5-1.5.5q-17.8-10.2-30.5-25.5-13.2-14.2-18.5-33.5Zm277 13 .5 1.5-39.5 34.5 1.5-2.5 4.5-6.5q19-11 33-27Zm8 0 .5 1.5q-8.9 17.1-23.5 28.5l-23 19-24 9 1-2 7.5-5.5.5-1.5 8-6 3 1 4.5-2.5 9.5-11.5zm-251 15 15.5 12.5.5 1.5 1.5.5.5 1.5 1.5.5-.5 1.5zm336 13 8.5 9.5-1.5-.5-8.5-7.5z"/><path fill="#f9f9f3" stroke="#f9f9f3" d="m539.5 578 .5 1.5-8.5 10.5-22.5 16.5 1.5 3.5 27-11-8.5 9.5-.5 1.5-1.5.5-.5 1.5-19 4-3-1-34 1-42-4q-19.1-2.4-32.5-10.5l2.5-.5 11 3 41 5 2-1 3 1 3-1 2 1h2l3-1 3.5 1.5.5 1.5h5l20-7h2l10.5-5.5 1.5-2.5zm24 2 1.5.5-6.5 7.5-6 3 3-4zm9 3-4 5q-14.8 13.7-36 21l6-7q9.4-9.1 25-12zm96 3 5.5 3.5.5 1.5 1.5.5 4.5 7.5 3.5 2.5-.5 1.5-1.5-.5-.5-2.5-1.5.5-3 10 .5 1.5-3-1-.5 1.5v2l-2 6-15.5 15.5-3 1-5.5-16.5-2.5-2.5-2 9-1.5-7.5 14-12z"/><path fill="#f9f9f3" stroke="#f9f9f3" d="m590.5 587-5 6q-21.2 19.3-49 32l1-3-14 3-2-1q-10.6 3.9-27 2v-1l29-6 7 1 39-18zm-233 2 11.5 6.5.5 1.5 7.5 5.5-2.5-1.5zm304 0-1.5 2.5-19.5 23.5-1.5-3.5zm-284 9 32.5 15.5-2.5.5q-20.4-3.7-30-16Zm63 18 50.5 3.5q-13.3 3.2-31.5 1.5l-16-3zm-103 3 36.5 20.5-1.5.5-32-17zm348 5 2.5 4.5-9.5 8.5 1.5-2.5zm-46 1 3.5 13.5h-1zm51 6 2.5 1.5q15.5 25 36.5 44.5l10.5 8.5.5 1.5 1.5.5 1.5 2.5 28.5 27.5 16.5 20.5 1.5.5 11.5 14.5.5-1.5-1.5-2.5-1.5-.5q-15.5-26-37-46l3.5 2.5 35.5 29.5 14.5 16.5 1.5.5 1.5 2.5 1.5.5 11.5 12.5 2.5 1.5 7 9 5 19-12 20-6.5 6.5q-10.2.2-14.5-5.5l-7-19 3 2 6.5 10.5 1.5.5.5 1.5 1.5.5.5 1.5 5 2 .5-1.5-2.5-3.5 2-1 2 1 1.5-1.5v-12l-1.5-2.5-1.5.5 1 10-1 2 .5 1.5-1.5-.5-.5-5.5-5 3-20-28-2.5 1.5 3 10-2-1-22.5-37.5-2.5.5 25 51h-1l-9-13-21.5-42.5-1.5.5-.5 2.5-11-17-1.5-.5-7.5-12.5-1.5 3.5 12 25-13-12-8.5-14.5-2-1-1.5.5-8-19-4.5-5.5-1.5-.5-9.5-20.5-3.5 1.5 8 23h-1l-11-13-13-33-5.5-8.5-2.5 1.5 7 24-3-2q-6.9-6.6-8-19zm-341 1 14.5 8.5-1.5.5q-9.9-2.3-13-9Zm275 1 4.5 11.5-4-3-1-5v-2zm23 0 2.5 7.5-2 1zm-83 1 1.5.5-21.5 15.5-29 8-14 1v-1q34.3-9.2 63-24Zm109 1-1.5 2.5-3.5 4.5.5-1.5zm-76 5 1.5.5q-14.4 14.1-35.5 21.5l1-2zm40 0 2.5 7.5-3.5 2.5.5-1.5zm-60 3-2 3-6 3 1-2zm-196 13q38.9 15.1 87.5 20.5l-25.5 1.5q-36.7-6.3-62-22Zm284 2 12.5 26.5h-1l-14-24zm61 5 35.5 33.5-4.5-3.5zm-273 3 21 1 2-1 3 1 6.5.5-28.5.5zm210 2 9.5 15.5-4-3zm-197 4 12.5.5-12.5.5zm215 10 10.5 21.5-3-2-2-4q3-2-2-4zm12 7 4.5 8.5h-1z"/><path fill="#f9f9f3" stroke="#f9f9f3" d="M703.5 700q10.8 7.2 13.5 22.5l-6-5zm-29 12 20.5 19.5 51 61-19.5-18.5-1.5-.5-4.5-5.5-1.5-.5q-25.1-25.7-44.5-55.5Zm46 8 7.5 13.5-1.5.5q-6.8-4.5-6-14Zm12 14 5.5 10.5h-1zm-7 3 7.5 8.5-4-3zm32 9 2 3 1.5.5 3.5 5.5 1.5-.5-1 2 4 7-6-5zm-6 7q7.3 5.2 10.5 14.5l-6-5zm-5 5q9.6 7.4 13.5 20.5l-5-4q-7.4-6.5-8.5-16.5Zm23 13 9.5 13.5-7-6zm-8 2 6.5 6.5 7 14-6-5zm17 17 4 5 3.5 2.5 6 12-2.5-1.5-5.5-4.5zm67 13 .5 5.5-10.5 11.5 1.5-2.5zm13 0 .5 2.5-1 6 1 2q-1.5 13-9.5 19.5l-9 4v-1l7.5-6.5 7-11zm-57 1 6.5 13.5-3-2zm-14 7 9.5 8.5 4.5 6.5 1.5-2.5-1-3 1.5.5 2.5 1.5 2 6-1 3 5 1-4.5.5q-11.6-.4-15.5-8.5l-4-6 1-2zm25 13 11.5 2.5-2.5 3.5q-6.5 1-8.5-2.5zm28 2 .5 1.5-7.5 4.5v-1zm-21 16 4.5.5-2.5.5-6 3-4.5-2.5z"/><path fill="#d5c46c" stroke="#d5c46c" d="m355.5 100 1.5 2.5-2.5 6.5-1.5-.5zm114 74q20.6-1.1 37 2l39 9 5-3h17q18.3 3.2 30.5 12.5l.5 1.5h2l5.5 3.5.5 1.5 1.5-.5.5 2.5 2-1 3.5 2.5.5 2.5 9.5 5.5.5 1.5 3.5 1.5.5 1.5 1.5.5.5 1.5 10.5 9.5 9.5 10.5q25.1 14.9 43.5 36.5l2.5 4.5 1.5.5.5 2.5 1.5.5 9.5 18.5 1.5.5 9 21-.5 1.5 1.5.5-.5 1.5 1.5.5 7 22 4 33-1 14 8 34 1 27-5 27-5.5 8.5-6 1-3-2q-7.3 32.7-25 55l-1.5.5-.5 1.5-2.5 1.5-14 21 2.5 3.5-5.5-6.5 13-16 5-11-3-1 1.5-2.5-.5 1.5.5 1.5q16.6-18.4 22.5-47.5l-3.5-1.5-1 2-.5-1.5 5-26v-2l2-22-1-3 1-2v-2l-3-34-5-20-3-23-3.5-9.5-1.5.5 2 3-2-1q-13.7-38.3-33-71-12.8-22.7-31.5-39.5l-1.5-.5-1.5-2.5-20-14-36-15-26-15-24-7-10.5-.5 4-1q-22.4-6.6-53.5-4.5l-13.5 4.5 6 4-6.5 1.5-6.5-3.5q-1.2-6.2 2.5-7.5zm86.5 14 1 2q18 5 31 16l35 15h1l-8-7-1-1-32-20-16-5zm111 72 31 53 11 26h2l12 31 2 1q-8-64-44-99zm63 156-5 9 2 19-1 11v2l1 2-1 5v2l1 19 4-9 4-30-3-25z"/><path fill="#d5c46c" stroke="#d5c46c" d="m518.5 188 1 2 8 1h2q19.7 3.3 33.5 12.5l-.5 1.5-5.5-1.5-.5-1.5-4 1-67.5-8.5 2-4-2-1 20.5-.5 3 1zm-65 5 3.5.5-1.5 2.5-4.5-.5 5-1zm6 0 18.5 1.5-17.5.5-2.5-.5zm19 9 12 1 3-1 3 1 1.5.5-2 1 .5 1.5 10 1 1-2 1.5-.5-5-1 4.5-.5 11.5 2.5-2 1 .5 2.5q37.2 8.8 69 23 24.1 8.9 39.5 26.5-2-3.2-4 0l7.5 7.5 1.5-.5-.5 1.5 2.5 1.5 21.5 35.5.5-2.5-17-29 1.5-.5q19.7 19.8 34.5 44.5l14 38-2 1 3 1 1 4-2 1 1-2h-2l-3-7 .5-1.5-1.5-.5-6.5-10.5-1.5.5q19.7 30.8 26 75l-1 2 1 10-1.5.5-2.5.5-13 70-11.5 33.5-1.5.5.5 1.5-5.5-3.5 15-50h-1l-11 31-6 11-4 12v9l3 1 .5 1.5 2.5-1.5-4 3-.5 2.5-7.5-2.5-1-11 7-26-.5-1.5 1.5.5-1-2 2.5-6.5 1.5.5-1-5h1l.5 2.5 9.5-25.5v-6q-5.9-4.6-6.5-14.5l-1 6-.5-6.5 4-50-3-23-16-39-25.5-47.5-1.5-.5-.5-1.5-1.5.5 7 13h-1l-3.5-5.5-1.5-.5.5-1.5-25.5-24.5-10.5-12.5-3-1-.5 2.5 8.5 10.5 7.5 6.5-2.5-1.5-5.5-3.5-.5-1.5-3-1q-32.2-26.8-85-33l-2 1-15-2-11 1-11.5-1.5 10.5-.5 7 1v-1l-22.5-2.5 2-1-17-7 1.5-6.5 8-3 26.5-3.5-10-1 9.5-.5 2 1q3.6-4.9 11.5-5.5l-1.5-2.5-6-1h-2q-6 1.3-5-1Zm32.5 13-4 2 22 10v-1l4-3q-8-7-22-8Zm-20 3-10 1h-2l-20 3-1 2 18 5h8v-1l3-2 13 3h6zm85 20 6 7h5v-1zm35 28-1 2 29 29h1l-11-15zm57 80 3 11h1zm6 73 1 7 3 1 2 2-1-7zm1 23 3 11h2l2-9zM544.5 204l3.5.5.5 1.5 4-1q31.6 4.4 47.5 24.5l-1.5.5-1-2-2 1-43.5-20.5-.5-1.5-2 1-3.5-1.5-.5-1.5-2 1z"/><path fill="#d5c46c" stroke="#d5c46c" d="m525.5 207 16.5 3.5.5 1.5 3-1 2.5 1.5-.5 2.5-7.5-2.5-.5-1.5-3 1-8-4-2 1zm-75 1 18.5.5-18.5.5zm99 5 9.5 3.5.5 1.5 2-1 9.5 4.5-.5 1.5-8.5-3.5-.5-1.5-3 1-2.5-1.5-.5-1.5-2 1-4.5-2.5zm38 2 3.5 1.5.5 1.5h2l8.5 3.5.5 1.5 1.5-.5.5 1.5h2l1.5.5-1 2 7.5 3.5 2.5.5.5 1.5 3 1 20.5 16.5 18 23-.5 1.5 1.5.5-1.5.5-19-20-8.5-6.5-.5-1.5-1 1-4-4-16.5-12.5-.5-1.5-1 1-4-4-10.5-7.5-.5-1.5q-2 3-4-2zm-197 6 1.5.5-.5 1.5-5 2-1-2 2 1v-2zm182 1 8.5 4.5-1.5.5-7.5-3.5zm-222 15 .5 1.5-4 2-1.5 2.5-2.5-.5 3-1 1.5-2.5 1.5.5zm91 4 2.5.5-8.5 2.5v-1zm57 0 13 1 1.5 1.5-3.5-.5-11-1zm-158 3-.5 1.5-1.5 2.5-4 3zm131 1 2 1 2-1h2l2 1 5-1h2l11.5 1.5-.5 1.5 4-1q24.3 3.2 43.5 11.5l-1 2 4 5-2.5.5q-13-5-30.5-5.5l-.5-2.5-16-8-27.5-3.5zm62 2 21.5 7.5-.5 2.5-12.5-5.5-.5-1.5-2 1-7.5-2.5zm-214 5-.5 3.5-3.5 3.5z"/><path fill="#d5c46c" stroke="#d5c46c" d="m631.5 253 5.5 4.5.5 1.5 16.5 15.5q-2 3.8 3.5 7.5l1.5-.5-2.5-3.5q6 2.5 2 5l-5.5-4.5.5-1.5-5.5-4.5h2l-.5-1.5-7.5-5.5-.5-2.5zm-67 6 5.5 3.5-.5 1.5 2-1 20.5 14.5.5 1.5 1.5-.5.5 2.5 1-2 3 5 1-2 3 4 2.5.5-1 2 2.5-1.5 8.5 8.5 3 5-5.5-4.5-4.5-3.5-.5-1.5-1 1-5.5-5.5-.5-1.5-1 1-4-4-7.5-5.5-.5-1.5-1.5.5-.5-1.5-3.5-1.5.5-1.5-2 1-4.5-3.5.5-1.5-2 1-2-3h-2l-6.5-3.5zm-261 4-5 6zm252 0 1 2h2l7.5 3.5.5 1.5 1.5-.5.5 1.5h2l14.5 9.5-2.5-1.5-30.5-11.5 1.5-3.5z"/><path fill="#d5c46c" stroke="#d5c46c" d="M528.5 265q35.7 4.3 59.5 20.5l1.5 4.5 1.5-3.5-2-3 4 3 .5 1.5 1-1 17.5 17.5 13 16-.5 1.5 3.5 2.5q9.3 11.2 14 27l8 42 2 30h-1L640.5 406l-1.5-.5-.5-1.5-2.5-.5-2.5-4.5-1.5-.5-.5-1.5-2-1-2.5-.5-23.5-29.5-1.5-.5-39-54-17-33-4.5-4.5-13.5-7.5zm30.5 21q28 55 71 99h1l-12-23-43-62zm26 5 1 7 15 19 3 1 22 30 3 2-13-26zm308.5-26 7.5 1.5-7.5 1.5-2.5-1.5zm-480 4-1.5 2.5-1 2-.5 2.5.5-3.5zm-22 1-7 10zm15 1 .5 2.5-3 1-2.5 3.5-.5-2.5.5-1.5 2.5-.5.5-1.5zm-81 1-10 11zm-37 3 1.5.5-2 1 2 2-6.5 6.5 1.5-2.5 1.5-2.5 2.5-1.5q-2-3.2-4 0zm19 1-.5 1.5-4.5 5.5 1.5-2.5zm91 3-2 5-2.5.5-4.5 5.5-2.5-.5 4-2 .5-1.5 1.5-.5zm75 3 1.5.5-6.5 5.5-1.5-.5-2.5 3.5.5-1.5 3.5-4.5 1.5.5 1.5-2.5 1.5.5zm-68 1-9 10zm255 1 2.5 1.5.5 2.5 1.5.5-2 1 3 1 6 11-3-2-2-3 .5-1.5-2.5-1.5-.5-2.5-3.5-2.5.5-1.5-2.5-1.5zm-287 1 1.5.5-7 6q5.4-2.7 3.5-5.5zm48 3-4 5-2-3 1.5.5.5-1.5 2 1zm-80 2-4 5-2.5 1.5q2.8 1.8-1.5 3.5l-1-1-11.5 10.5 18-17 .5-1.5zm6 0-.5 1.5-.5 1.5-1.5.5-.5 1.5-1.5.5-.5 1.5-1.5.5-.5 1.5-1.5-.5zm115 0-.5 1.5-1.5 2.5-8 6 .5-1.5 1.5-2.5zm-73 1-5 6zm108 0 2.5 3.5-2.5-1.5-2.5.5 3 2-1.5.5-5-2-4 2 1-2zm-116 3-6 7zm33 0v5l-2.5-.5zm-85 3-9 10zm52 1-6 7zm-10 1-5 6zm79 0-.5 1.5-.5 1.5-2.5.5-1.5 2.5-3 2-1-2 1.5.5 1.5-2.5 1.5.5 1.5-2.5zm33 0 1 2q-2-3-4 2l-1.5-.5.5-1.5 1.5.5.5-1.5z"/><path fill="#d5c46c" stroke="#d5c46c" d="m442.5 300 1.5.5-4 3-2 3 1.5 3.5 5-2-2 3-10 5-3.5.5 5.5-3.5 2.5-1.5-1.5-.5-1.5.5 4-4-1-1zm-47 2-8 11v-3l2.5-.5-1-1zm-50 1-6 7zm38 1-15 16zm-14 1v3l-2.5.5 1 1-33.5 33.5.5-3.5 9.5-9.5 1 1 17.5-17.5-1-1zm-17 2-6 7-2.5 1.5-2.5 3.5 1.5-2.5 2.5-3.5 1.5-.5.5-2.5 1 1zm6 4-16 17zm25 2-2 9-1-5-10.5 9.5zm-43 7-2.5 3.5-6.5 8.5-.5-1.5zm19 0 .5 1.5-3 2-.5 2.5-1-1-15.5 14.5zm61 1-1 3 2-1-6.5 7.5-4.5 5.5-1.5.5q3.3 2.2-2.5 4.5l-1.5-.5 3-2-1-1 7-7q-2.9-2.7 1.5-5.5l1.5.5zm260 3 5.5 10.5-1.5.5zm-314 1-5 6zm-45 5-.5 1.5-2.5 5.5-1.5-.5zm321 0 4.5 8.5-1 2h2l-1.5 2.5-2.5-4.5h2l-1.5-3.5-1 2zm-273 1-7 8-1-1-4.5 3.5 3.5-4.5 2 1zm-19 2-1.5 2.5.5 1.5 1.5-.5-5 2zm7 2-2 9-1-1-19.5 18.5 15-15-1-1 2.5-3.5 2.5-1.5-1-1zm46 0q2 2.5-2 5l-2.5-.5zm-149 3 3.5.5-4 7 .5 1.5-1.5-2.5 3-5-1.5-.5-2.5 1.5zm142 3 2.5.5-7 6zm7 1 .5 1.5-4.5 5.5-.5-1.5zm246 3 1.5 3.5-.5 1.5 1.5.5-.5 1.5 1.5.5 14 38v23h-1l-1-11 .5-1.5-1.5-.5-1-10-14-42 .5-1.5-1.5-.5zm-318 2-10 11zm66 2 1.5 1.5-5.5 5.5-1.5.5.5 1.5-2.5-.5 6-5q-2.7-1.8 1.5-3.5Zm-31 6q4.4 4.5-4 9l2.5-3.5.5-1.5 1.5-.5-3-1zm327 3 1.5.5 2 12h-1zm-47 4 12.5 39.5 2 19-1 2 2 1-1 8v2l-.5 5.5-1-16-1 6-1.5-.5 1-2-1-3-.5-3.5-1 26-1.5-14.5v-2l1-7-1-21-5-27 .5-1.5-1.5-.5zm-263 4 .5 1.5-4.5 5.5-1.5.5-.5 2.5q-2.3-3.8 4.5-7.5zm-43 1-1.5 2.5-1.5 2.5.5-1.5-.5-1.5-1.5.5zm12 3 1.5.5-5 3 .5 1.5-2.5-.5 5-3zm14 3-7 8-2.5-.5zm105 2 6.5.5-7 1 1 4-2-1zm-98 4 .5 1.5-3 2-.5 2.5-1.5.5-.5 2.5-2.5-.5zm188 2-5 6zm-226 3 2.5.5-5.5 5.5-1.5-1.5zm21 0-4 5-3.5.5zm115 1 11.5.5-11.5.5zm231 2 .5 3.5 1 3-.5 5.5-1.5-3.5 1-2-2-1zm-337 2q3.7 2.2-1.5 4.5l-.5 1.5-1-2 1.5-.5.5-1.5 1.5-.5zm166 1 5 6zm-182 2-3 4-2.5-.5zm-55 1 1.5.5-.5 14.5zm109 9 .5 1.5-5.5 4.5zm23 3 .5 1.5-10.5 5.5 1-2zm-188 1 .5 29.5h-1zm75 0 2.5.5-.5 2.5-2-2-3.5 2.5zm80 0-5 6-4.5-3.5 3.5 2.5zm243 0 .5 3.5-2 3 1 2h-1l-1-2 .5-2.5 1.5-.5zm-407 1 .5 15.5h-1zm63 1 1.5 6.5-1.5 4.5zm-51 1 1.5 10.5-1.5 4.5-.5-9.5v-2zm381 1 1.5 3.5-1.5 4.5-1.5-3.5 2-1zm88 1q4.8 17.7 2.5 42.5l-2 1 1 3v2l-1.5 12.5-.5-57.5v-2zm-296 1-2 3-7 4 2-3zm169 1-6 7zm48 1 2.5.5-4.5 6.5q-3-1.5 0-3l2.5-1.5zm-254 6-5 6zm1 4-9.5 10.5-1.5 2.5.5-1.5zm-38 2 2.5.5-3.5 4.5-1.5.5.5 1.5-1.5-.5-.5 1.5-.5-1.5 4-3v-2zm46 5 .5 1.5-2 1-2.5 3.5-1.5-.5zm6 2-7 8zm224 1 4.5 2.5-3.5 4.5-.5-1.5v-2zm83 1 .5 16.5-4 32q-2.4 15.1-9.5 25.5l-1.5.5-1 3-.5 1.5-.5-1.5 3-5-1-3 7-25 4.5-30.5 1.5-.5-1-6h2l-1-5zm-472 1 .5 27.5h-1zm92 3-2.5 3.5-.5 1.5-1.5-.5v-2l.5-1.5 1 2 1-2zm242 4-9 10 3.5-4.5 1.5-2.5 1.5-.5-.5-1.5zm50 3 2.5.5 1 4-2-1-.5-1.5-3.5 2.5.5 1.5-2.5-.5 5-4zm-221 3 6.5 5.5-5.5-4.5-2 1zm175 1-5.5 6.5.5 1.5-2.5-.5zm-18 1-8 9zm64 4 1.5.5-2 5 1 3-2 1 1-2-1-3zm-7 1q3.5 2-1 4l-1.5.5.5 1.5-1.5.5-.5 1.5-1.5.5q2.7 1.7-1.5 3.5l-1.5-1.5 5-5 1.5-2.5 1.5-.5zm-47 3-5 6 2-5zm-515 1 10.5 1.5-9.5.5zm208 7 3.5 16.5h-1zm279 0-2 3-3 2-1-2 3-1zm-140 2 2.5 2.5-5.5 5.5 4.5-5.5zm-109 1 2.5 5.5 2 6-1.5 2.5-.5-1.5-1-7zm36 0 2.5.5-4 5 1 2h-2l1 3h-2l1 2-2-1 5-9zm223 1 2.5 1.5.5-1.5 1 2-3 1-1-2-1.5.5zm86 0 1 2 2-1v1l-1.5.5 2 1-3 2q2.7 1.8-1.5 3.5l-1-2 2.5-.5 1-3-2-2zm81 1 .5 10.5-2.5 17.5-1-5-2 1-.5-1.5 2-1-1-3 2-1-1-2 3-7-1-3zm-44 2 .5 11.5h-1l-1-5zm-41 2-2 4 1.5.5-.5 1.5q-2.2-4.2-4.5.5l1 1-9.5 9.5-4.5 1.5zm-226 2-5 6zm56 9q8.3-2.2 10.5 1.5l-2.5.5-3-1q-6 1.3-5-1Zm19 1 2 1 9-1v1l-6 1h-2l-4.5-.5zm141 8-13 14zm-137 2 10.5.5-10.5.5zm96 1-2 6 6-3-1 2-6 4 .5-1.5-.5-1.5-4.5 1.5zm26 2-5 6zm22 3v3l-4.5-.5zm-19 1-5 6-1.5-.5 2-1-.5-1.5 1 1zm24 1-2.5 3.5-3.5 4.5 1.5-2.5 2.5-4.5zm-38 5 2.5 1.5-4 3 2.5-3.5-2 1zm-30 2 1.5 1.5-5.5 5.5-2-1-4 3-1-2 1.5.5.5-1.5 3-2 1.5.5 1.5-2.5-.5 1.5.5 1.5zm1 4-26 27zm63 0-6 7zm-363 2 3.5 7.5-1.5.5zm326 1 .5 2.5.5 1.5q1.7-2.7 3.5 1.5l-6-1-1-2zm64 1q3.8 2.2-1.5 4.5l-1.5 2.5.5-1.5 1.5-3.5 1.5-.5zm-47 3-5 6zm21 0-18 19zm-51 1-4.5 5.5 1.5 1.5 1.5-.5q-2 4.5-4 1-1-3.8 5.5-7.5Z"/><path fill="#d5c46c" stroke="#d5c46c" d="M571.5 526q-3.4 2.3.5 4.5l-3.5 3.5 2.5-3.5-2-2zm-265 7 2.5 1.5 4 7-2-1zm254 0-2 4 1.5.5-4.5 3.5q-2.3-4 5-8Zm36 2 2.5 1.5-6.5 7.5-1.5-.5 6-7-8.5 7.5-1.5-.5 2-1 .5-3.5-2.5 1.5-2 3q3 2-2 4l-.5 1.5-1.5-3.5 9.5-8.5 1 3zm-82 2v3l-3 1-1.5-.5-.5 1.5-.5-1.5zm18 1-5 6zm21 1-6 7zm54 1-7 8zm82 2 .5 2.5-2.5 4.5-.5-1.5 3-4zm-423 1 5.5 9.5-2-1zm237 0 1 2-3 1-1.5-.5-.5 1.5-1.5-.5-.5 1.5-1-2zm119 5-7 8-2.5-.5.5-2.5 2 2zm-102 1q.9 4-5 8zm45 0-2 3-1-1-4.5 3.5zm15 0 .5 1.5-7.5 9.5 3.5-4.5-1.5-1.5-1.5.5 6-4z"/><path fill="#d5c46c" stroke="#d5c46c" d="M572.5 551q2.2 3.5-4 7l.5-3.5zm23 0-6 7zm-113 1 1 2-7 2-1-2 2 1 1-2 2 1zm175 2-5 6zm-125 1 1.5 2.5-.5 2.5-1-1-4.5 3.5 3-3q-3.7-1.8-.5-3.5l1 3 1.5-2.5zm-63 1-2 3-3 1-1-2h2zm41 1-4 7 .5-3.5zm88 1-8 9zm-262 2 4 5q1.7-2.7 3.5 1.5-4 2.3-8-5zm243 2-8 9zm75 0-5 6zm-100 1-2.5 3.5q3.7 1.8.5 3.5-4-3.5 2-7Zm94 1-6 7zm-325 4 9 10zm28 0 4 5-1.5.5-1 2 .5 1.5-2-3 1.5.5-1-2h2zm295 3-5 6zm-36 1-9 10zm-254 2 6 7zm224 3-1 2-9 8v-3l2.5-.5 1.5-2.5zm-241 1 6 7zm208 2-5 6-1.5-.5zm-38 1-5 6zm156 1 1.5.5-1.5 2.5-1.5.5-1.5 3.5-2.5 1.5.5 1.5-1-1-5.5 4.5 10.5-11.5 1.5-.5zm-72 2 1.5.5-3 2-3.5 4.5 1-4 1.5.5zm-57 1-3 6q-2.1-3 3-6Zm96 1-13 14zm-39 3-7 8zm-20 3-2 3-11 6 1-2zm57 3-7 8zm-315 2 5 6zm186 2q3 1.5 0 3l-2-1v2l-2.5-1.5zm116 2-5 6zm31 0-5 6zm-35 1-5 8-1.5-1.5zm-137 1 1 3 2.5.5-6.5 1.5v-1l3.5-2.5zm180 0 1.5.5-1.5 2.5-1.5-.5 1 2-10.5 9.5 2.5-3.5 2.5-3.5 2.5-.5v-2zm-146 2-.5 1.5.5 2.5 3-1v1l-3 1-1.5-3.5zm134 6-4 5-1.5-2.5h1l.5 1.5zm-172 7 20 1 1.5-.5-.5 1.5-21-1zm-169 3 7.5 5.5-5-3 3 4-4-3zm162 0 10.5.5-10.5.5zm71 1 1.5.5-.5 2.5-1.5-.5-.5 1.5-4 1v-1l1.5-.5-.5-1.5-3 2 1-2 4-1 1.5.5zm133 1-7 8zm-325 6 4.5 2.5.5 1.5 1.5-.5-.5 2.5zm362 1 5 6zm-136 1-1 2-2.5.5-1.5 2.5v-3zm104 2 .5 1.5-3 2 .5 1.5-3.5.5zm-93 7-5 6v-3l1.5.5.5-1.5zm101 1-5.5 6.5 1 1-.5 1.5-1-2-4 5-.5-1.5zm-347 6 3 4 2.5 1.5-1.5.5-5.5-4.5zm382 7 13.5 12.5-4.5-3.5-2.5-1.5-.5-1.5-1.5-.5-1.5-2.5zm-285 1 2.5.5-.5 2.5-5-1-2 1 1-2zm33 4 13.5.5-13.5.5zm256 4 6 7zm25 0 5 6zm-283 5 18.5.5-18.5.5zm201 1-.5 1.5 2 4h-3l1-2h-2zm58 0 7 8zm9 0 6 7zm-84 3 5 6zm110 1 6 7zm-113 1 5 6zm100 5 8.5 8.5 1.5 4.5-8.5-8.5zm183 5 2.5.5-.5 1.5-8 2-.5-2.5zm-170 7 12 13-7.5-6.5-1.5-2.5q-1.7 2.8-3.5-1.5zm-55 3 6.5 5.5.5-1.5.5 1.5-1.5 1.5zm48 1 12 13zm-57 3 3.5 6.5-.5 1.5 1.5.5-2 1-1-3 .5-1.5-1.5-.5zm9 0 4 5-3.5-1.5.5-1.5-1.5-.5zm56 1 3.5 2.5 1.5 2.5 2.5.5-1 1 4.5 5.5zm31 5 10 11zm-80 2 4.5 6.5h-1zm-36 4 6 7-5.5-3.5.5-1.5-1.5-.5zm117 0 7.5 6.5-1.5.5zm-87 4 1 2 1.5.5-.5 1.5 1.5.5 1 2-4-3zm98 8 6 7zm-11 2 9 10zm19 6 24 25zm-87 4 5.5 4.5.5 3.5-3-5zm69 3 6.5 8.5-6-3 3 1zm-70 2 1 2 1.5.5.5 1.5 2.5 1.5-1.5-.5-4.5-3.5zm21 0 10 10 1.5-.5-.5 1.5 1.5.5-.5 1.5zm-12 3 2 4 2.5 1.5-1.5.5zm79 2 6 7zm-13 3 2.5.5.5 2.5 1.5-.5-.5 1.5 1.5.5 1.5 3.5 1.5.5-.5 1.5zm-54 1 2.5 1.5-.5 1.5 2.5 1.5-1.5-.5-2.5-1.5.5-1.5zm7 2 7 8q-2.7-5.4-5.5-3.5l.5-1.5-1.5-.5zm14 1 1.5.5-.5 1.5 1.5.5v2l-.5 1.5-3.5-4.5zm-53 7 8 9zm115 2 6 7zm-112 6 6 7zm47 5 4 5-3.5-1.5.5-1.5-1.5-.5zm-39 3 5 6zm5 0 13 14zm31 3 2.5.5-.5 1.5 1.5.5 1 2zm98 2 5 6zm-82 1q2.8 5.4 5.5 3.5l-.5 1.5 1.5.5-.5 1.5zm-4 9 4.5 2.5 1.5 4.5zm56 7 1.5.5-1.5 9.5zm-61 16 5.5 4.5-6-3zm78 1-8 9-1.5-.5 4-3-.5-1.5 1 1zm5 16-6 7zm-56 8 1.5 3.5-2.5 1.5-3-4 4 3 .5-2.5zm9 2 5 6zm-563 44 .5 2.5-2 1-.5 1.5-2.5.5-.5 1.5-1.5-.5.5-1.5zm500 33 3.5.5-.5 1.5-7 2-1-2z"/></svg>