<svg xmlns="http://www.w3.org/2000/svg" viewBox="0 0 1024 1024"><path fill="#0a0b0a" stroke="#0a0b0a" d="M501.5 257q56.2-.2 95 17 45.9 19.1 76.5 53.5l35 44 24 45q9.9 23.1 15 51 3.7 21.8 2 49-3.5 37-16 65l-15 29-33 45 6 26 13 39 19 43-1.5 2.5-25-2-31-10q-36.8-17.2-64-44-38.9 16.6-96 15-53.6-3.4-92-22-44-21-74.5-55.5-33.1-34.4-52-83-14.7-37.3-12-92 4.3-46.7 21-81 20.9-44.6 55.5-75.5 30.6-27.9 73-44 33.1-12.9 77-15Zm5.5 6q-54 2-91 20-37 16-64 42-59 52-71 150-2 53 13 90 15 38 40 66 50 59 149 71 65 2 108-19l6 2q21 21 47 37l39 21h1q-19-46-32-97l37-43 18-32q14-31 18-71l-1-43-8-38q-15-51-46-85-29-33-71-52-38-18-92-19Zm209 133 10 38h2v2l6 5q-7-25-18-45Zm12 43 2 19 7 9 3 2q0-22-12-30Zm3 24 1 14-1 13v4l11 12h1l-1-28-10-14zm1 35-5 29 7 10 5 3 3-18v-11zm-5 34-6 20 11 12 6-19zm-6 23-15 34 11 9 14-30zm-16 36-11 16 11 11 9-14zm-12 18-9 11 7 10 4 2 8-11-1-1zm-11 14-15 16 13 10 12-13zm-16 17-7 7 2 8 17 10 3 3-3-15zm-2 20 4 18 18 12h1l-5-17zm-275 21q12 11 33 18h2l20 9h3l-3-4-2-3-11-2-24-9zm283 3 4 16 16 10h2l-5-14zm-80 6-15 6 12 12 11-4 42 30 20 11q21 11 50 15l2-1-4-9-18-12-3-1 4 11-2 4q-58-21-97-60l-1-1zm-20 7-10 3-2 2 11 10 14-3-1-1-6-6zm-18 5-15 3 10 11 17-2-4-6-5-6zm-106 1 7 8 19 4h1l-8-9zm231 2 2 11 18 11h1l-4-11zm-147 1-15 2 9 10 19-1-10-11zm-59 1 9 9 14 2h5l-9-10zm24 1 5 8 3 2 16 1v-1l-9-10zm188 13 2 12 18 9 1 1-3-9z"/><path fill="#0a0b0a" stroke="#0a0b0a" d="M517.5 324h92l2.5 2.5 1 20-1 7q4.7 32.3 2 72l-2 67v2l2 114-2 23 1 12 2.5 3.5h13l1.5 1.5-1.5 3.5-208 2-25-1-2.5-1.5q7.2-3.8 19-3l1-10-2-34v-276l4.5-2.5 45-1h2zm82.5 4-115 2-66-1-1 2 6 5h176l4-5 2-1-2-1zm9 2-8 9 2 61-1 3 2 244 4-1 1 1q1-46-2-87l1-4-1-17 1-90 2-21v-52l-2-15 1-21zm-194 1v174l2 78-1 3 1 6-2 38 1 17 1 2 6-1-1-17 1-2-1-18 1-2-1-3 1-265zm13 7 4 6 119-3 3 1h2l9-1h24l4 2 4-3-1-2zm171 2-1 2-4 3 2 28 1 128-1 145 3 1 1-1V341zm-174 2v2l-1 70 1 183-1 2 2 49h4q1-26-2-47l1-6-1-2 1-3-1-4 1-7-1-99 1-74-1-6 2-53zm8 5v39l3 3v23l-2 3-1 3 2 130v2l-1 2v25l3 4v21l-3 4 1 42 156-1 1-1-1-9v-2l1-8-2-100 1-57-1-2 1-111v-10l-26 1zm-61.5-21 1.5.5-8.5 9.5-14.5 13.5-21.5 28.5-.5-1.5q12.5-27 34.5-44.5z"/><path fill="#0a0b0a" stroke="#0a0b0a" d="m558.5 366 10.5.5q4.2 25.8 2 58l-2.5 73.5-47 1-2.5-4.5-1-10-1-41 1-72 2.5-4.5zm-34.5 4-1 2 7 5 30-1 4-4-36-1h-2zm-2 2v93l-1 2 1 13-1 2 1 11 5-4-1-13 1-57v-40zm44 1-5 5-1 48v61l5 4h1l-1-26v-2l2-58-1-19 1-12zm-36 6-2 58 2 51 27-1v-2l1-15-1-2 2-88zm25 110-26 1-3 4v1l37-1q-1-6-8-5Zm-89.5-122h34l1.5 1.5 1 54-2 73 1 2-3.5 2.5h-45l-2.5-9.5v-80l1-3-1-4 1.5-34.5zm-9.5 4 4 6h31l5-5zm-2 2v20l-1 102 7-6q-4-52-2-110zm44 0-6 7 1 4-1 43v61l5 5 1-71zm-37 6v108l2 1h27l-1-26v-2l2-79-1-2zm1 111-6 7 39-1-4-6-3 1zm-157.5-62 .5 3.5q-8.1 25.4-8 59 .8 30.7 7 56l-2-1q-11.4-31.1-8-77 2.1-23.4 10.5-40.5Zm269 76q10.1-1.6 13.5 3.5l2 6-4.5 8.5-9 2-7.5-5.5-1-7 3.5-5.5zm4.5 2-2 1-4 5 1 5 4 2 6-2 1-7zm-1.5 22 5.5 1.5-2 7 1 2-4.5 1.5-1.5-10.5zm-112 7 37 1 1.5 1.5 1 30-1 59-1.5 2.5-42 1-7.5-2.5-1-16 1-5-1-69 1.5-1.5zm-5.5 4 4 6h30l5-4v-2l-5 1zm-5 1q2 39 2 84l3-2 1-1 1-29v-45zm45 2-2 3q-5 2-2 4l-1 54 1 4v2l-1 10 5 3 1-62-1-3 1-14zm-35 5v72l28-1 1-69-1-2zm-2 74-2 3-3 2 1 1 39-1-4-5zm66.5-86 40.5.5 1 11v2l1 78q-6 4-17.5 2.5l-34-1-1.5-1.5-1-80 1.5-9.5zm-4.5 4 4 6 12-1 16 1h3l5-5zm-3 2 2 80 3-2v-72l-4-5zm45 1-6 5 2 70 5 4zm-35 4-3 2v57l2 13 29-2-1-68zm-2 73-5 5 1 1 22-2 3 1 13-1-3-4-17 1zm-219.5-52 2.5 1.5 12 24-1.5.5q-9.8-10.6-13-26Z"/><path fill="#fefefe" stroke="#fefefe" d="M.5 0 1024 .5l-.5 1023.5L0 1023.5zM493 257q-92 10-143 60-34 31-55 76-18 36-21 88-1 53 15 91 20 45 52 79 30 33 74 53 34 16 81 21 63 4 105-14 28 26 66 44 20 9 46 12 9 2 11-3-25-47-38-105v-6q30-31 48-72 13-30 16-70l-2-40q-5-30-15-53-24-55-63-94-32-34-79-53-25-9-54-13z"/><path fill="#fefefe" stroke="#fefefe" d="M499.5 264q55.3-.8 93 16 47.5 19.5 78.5 55.5 25.3 29.2 40 69 13.6 35.4 14 84-2 42.5-15 74-18.1 42.9-49.5 72.5l-8.5 7.5 7 30 24 69-1.5.5-37-20-53-40q-39 20-98 20-108.8-9.2-161.5-74.5-24.9-28.1-39-67-11.6-30.9-12-73 2.1-54.4 21-92 20-43.5 53.5-73.5 28.2-25.3 66-41 33.5-14 78-17Zm89.5 59-169 2-8 2-1 7v2l-1 2 1 86v2l-1 18 1 5-1 10v2l1 17-1 2 1 3-1 7 1 5-1 2 1 97-1 3 2 51-18 2-1 3 8 1q117 2 229-2l1-3-2-3h-14l-2-9q-1-18 2-31l-2-43 1-11v-2l-1-4 1-88-1-3 2-49-1-3 1-2-1-3 1-11v-2l-3-59-3-3zm-218 3-10 7q-22 17-33 45h2l18-25 26-25zm-66 101q-10 19-12 47-1 25 2 47 1 15 8 26h1l-6-46v-28l8-45zm5 139 1 10 12 18h1q-4-16-12-26z"/><path fill="#fefefe" stroke="#fefefe" d="m505.5 329 73 1 26-1-5 6-176 1-4.5-5.5 36.5-.5 10 1zm103 2-.5 1.5-1 14v2l1 5-1 3 2 15v68l-2 15v2l1 129-1 2 2 54v2l-.5 2.5-5.5-.5-1-270 1-2-1-36zm-194 1 7.5 6.5-1 241 1 68-5.5.5-.5-28.5 1-72-1-3 1-19-2-188zm13 7 168.5.5-4.5 2.5-95-1-65 2zm171 2 1.5 162.5-1.5 15.5-1.5-15.5q1.9-82.4-2-159zm-173 1q6.6 4.4 3.5 18.5l-1 183 1 34-1 24 1 46-3.5.5-.5-2.5 1-32zm8 5 156.5 1.5-.5 154.5-6-8-6-1-3 1-4 1-.5-55.5v-2l2-45-2.5-27.5h-43l-7.5 1.5-2 9v103l2 18 1.5 1.5 47.5.5-2 4v25l1 6-46.5.5-2.5 1.5-1 72v2l1 9-1 7 2.5 2.5h48l3.5-1.5 1-49-2-33 2.5 1.5 3 2h2l4-3 1 1 4.5-4.5q3.9-5.1 2.5-15.5l1.5 90.5-1 2 1 26-105.5 1.5-2-1-49 1-.5-7.5 1-34 2-2v-25l-2-2-1-110v-2l1-2v-2l-1-10v-36l2-2v-25l-3-2 1-3v-2zm45.5 19-27 2-2 5 1 3-2 75 1 48 8 2h28l14-1 1-1 2-92-2-39q-8-4-22-2Zm-24 169-3 1-2 24 1 4v2l-1 3 1 3-1 2 1 53 3 3 49-1 1-6-1-86-1-2z"/><path fill="#fefefe" stroke="#fefefe" d="m456.5 371 2 1 36-1-.5 1.5-2.5 3.5-31 1zm68 0 20 1 18-1-4 5h-30zm-27 3 .5 36.5-1.5 81.5-4.5-5.5v-17l1-14-1-16 2-44-1-17zm25 0 4.5 7.5-1 3 1 18-1 83 1 2-5 4 1-85-1-3zm43 0 .5 50.5-1.5 66.5q-6.1-2.4-4.5-12.5l2-94-1-6zm-111 1 3.5 4.5 1 109-4.5 5.5-.5-43.5 1-31-1-2 1-4zm7 4 9 1 9-1 10.5 1.5-1.5 107.5-26.5-1.5-2-106zm68 0 28.5 1.5-1 28v2l-.5 75.5-27 1 .5-1.5-1-65 1-35zm190 26 13.5 33.5-7-6zm9 36 7.5 8.5 4 18-4-3-6-8zm3 23 9.5 13.5 1 27-2-1-8-10zm-174 25 2.5 1.5 2 3-36.5 1.5 4-5zm-97 2 31.5.5 2 3-37.5 2.5 1.5-2.5zm118 4 6.5 4.5 3 4-1.5 2.5-1-3-1.5.5q2.8-1.8-1.5-3.5l-1 2-2 1-1-2-1.5.5.5 1.5-4-1v2l-2.5-.5-.5-1.5-2.5 1.5 2-5-.5-1.5zm153 4 9.5 10.5 1 7-4.5 23.5-9.5-11.5v-5zm-156 9 4 1 1.5-.5.5 1.5 2.5 1.5-1 3-.5 1.5-6 1-2.5-1.5v-2l1-2-1-2zm23 15 1.5 8.5v36l-1 3v2l-.5 73.5-1.5-.5 1-76-1-36zm-29 8q3.4 3.6 1.5 12.5h-1zm157 2 1.5.5 9 13-5.5 16.5-8.5-8.5-1-5zm-203 6 38.5 1.5-3.5 3.5-30 1zm-64 1 37.5.5-3.5 3.5-30 1zm-5 1 6.5 7.5-1 7 1 2v2l-1 60-3.5 3.5zm119 0 1.5.5 2.5 3.5 1.5-.5-.5 1.5-2 1v-2l-2-1-1.5.5v-2zm-52 1 4.5 6.5-1 40 1 9-1 18 1 2-3 2-2-63v-2zm44 0 .5 7.5-1 18 2 50-.5 2.5-3.5-2.5-2-71zm-67 1 .5 34.5-1 5v2l1 37-4-3 1-55-1-17zm30 4 29.5 1.5-1 37 2 29-29.5 2.5zm-65 1 28.5.5-1.5 69.5-27.5-.5 1-2-1-2 1-50zm257 8 9.5 10.5v3L716.5 598 706 587.5l1-1zm-16 36 9.5 10.5-9.5 14.5-9.5-11.5zm-12 18 9.5 11.5-7.5 9.5-4.5-3.5-5-8zm-138 9 7.5 2.5-.5 1.5-37 1v-1l1.5-.5 1.5-2.5zm-92 2 31.5 1.5 1 2-36.5 1.5zm219 3 1.5.5 8 11-9.5 11.5-1.5.5-.5 1.5-11.5-10.5zm-16 17 12.5 11.5 2 13-1.5.5-16.5-11.5-2-9zm-1 20 17.5 11.5 5 17-2.5-1.5-15.5-10.5zm-269 24 25.5 11.5 1 2-1.5-.5q-16.2-4.8-25-13Zm277 0 16.5 11.5 4 13-1.5-.5-15.5-10.5zm-82 6 57 42q18.2 13.3 44 19l1.5-6.5-3-7 1.5-.5 17.5 11.5 4 9-4.5.5q-31.2-4.8-54-18-29.5-16.5-54-38l-13 4-10-11zm-168 5 19 6 3.5 3.5 1 2-1.5-.5-18-6zm148 2h3l10.5 10.5-13.5 3.5-9.5-10.5zm-15 4 10 11-16 3-10.5-9.5zm-107 1 18 4 6.5 6.5-1.5.5-18-4-5.5-5.5zm231 3 15.5 9.5 4 10-1.5-.5-15.5-9.5zm-152 1h7l9.5 9.5-17.5 1.5-10.5-9.5zm-54 1 19 1 1.5 1.5 5 6-7.5.5q-14.3-.1-18-9Zm24 1h15l2.5 2.5 5 6-14.5.5zm187 13 17.5 10.5 3 9-2.5-1.5-14.5-7.5z"/><path fill="#979487" stroke="#979487" d="m517.5 264 10.5.5-10.5.5zm143 50 9 10zm-311 3-12 13zm304 0 16 17zm-65 6 20.5.5-20.5.5zm-99 1 27.5.5-27.5.5zm-138 1-9 10zm68 0 39.5.5-39.5.5zm-46 2-7 8zm45 2 16.5.5-16 1 1.5 2.5zm67 0 19.5.5-19.5.5zm66 0 27.5.5-27.5.5zm57 1 .5 2.5-.5 7.5-1-8-4.5 3.5zm-5 1-4 5-147.5-.5 147.5-.5zm-243 2-15 16zm3 3-13 14zm47 1 .5 79.5h-1zm4 0 .5 76.5h-1zm13 1h168l1.5 1.5-4.5 3.5v-1l3.5-2.5-168.5-.5zm1 2q1.8 4.3 8.5 3.5l-5.5.5zm170 0 1.5.5-.5 58.5-.5-57.5z"/><path fill="#979487" stroke="#979487" d="m496.5 341 53.5.5-53.5.5zm-44 1 28.5.5-28.5.5zm-11 5 28.5.5-28.5.5zm124 0 25.5.5-.5 9.5-1-9h-24zm30 6 .5 18.5h-1zm-167 8 .5 30.5h-1zm50 5 18.5.5-18.5.5zm48 0 31.5.5-31.5.5zm-93 2 .5 12.5h-1zm90 2 1.5.5-1 1 3.5 4.5zm-2 2 .5 20.5h-1zm-68 1 2 3-1.5-.5-.5 16.5zm156 2 .5 52.5h-1zm-159 1 .5 26.5h-1zm17 0 23.5.5-23.5.5zm50 0 .5 66.5h-1zm85 1 .5 21.5h-1zm-122 2q8.3-2.2 10.5 1.5l-1.5-.5h-9zm67 0 11.5.5-.5 19.5-1-19h-10zm-87 2 .5 39.5h-1zm101 3 .5 28.5h-1zm-32 1 .5 34.5h-1zm37 1 .5 18.5h-1zm-64 1 .5 19.5h-1zm69 6 .5 13.5h-1zm-78 2 .5 21.5h-1zm103 3 .5 101.5h-1zm-70 5 .5 15.5h-1zm-4 3 .5 40.5h-1zm35 4 .5 55.5h-1zm-60 1 .5 10.5h-1zm-73 2 .5 182.5h-1zm30 6 .5 30.5h-1zm-39 1 .5 82.5h-1zm74 2 .5 31.5h-1zm12 1 .5 45.5h-1zm59 2 .5 52.5h-1zm5 0 .5 28.5h-1zm5 0 .5 11.5h-1zm-78 1 .5 12.5h-1zm121 0 .5 27.5h-1zm115 9 5.5 4.5-.5 1.5zm-200 1 .5 34.5h-1zm199 3 6 7-5.5-4.5-.5 1.5zm-306 11 .5 129.5h-1zm28 0 .5 28.5h-1zm43 5 .5 13.5h-1zm-34 1 .5 19.5h-1zm149 0 .5 63.5h-1zm-197 4 .5 16.5h-1zm43 4 .5 30.5h-1zm36 1 .5 22.5h-1zm-28 1 1 21 12.5.5-12.5.5-1.5-1.5zm60 0 .5 12.5h-1zm44 0 .5 24.5h-1zm-131 1 .5 78.5h-1zm83 0 .5 12.5h-1zm-224 6 .5 26.5h-1zm-12 1 .5 12.5h-1z"/><path fill="#979487" stroke="#979487" d="m569.5 475 1 21 5-2h2q7.3-.2 9.5 4.5l3 5 1 24v86h-1l-.5-86.5q1.8 15.3-7 20-2-3-4 2l-2-1-3-1-4.5-3.5-.5-8.5-1.5-.5-1-31 2-4-8-1 9.5-.5.5 1.5-1 3 2.5-1.5 6 2v-2l1.5.5.5 1.5 2.5-1.5.5-1.5 4 6 1.5-2.5-5.5-6.5-4-2-9 2zm2.5 27-1 2 2 1-2 1-4 6 1 7 8 5 9-2 1-2 3-1-1-2 1-3-2-6-5-4q-8 1-10-2Zm5 26-2 2 2 10 4-1-1-2 2-7zm-6 5-1 11h1zm-70.5-54 .5 16.5h-1zm-226 1 .5 20.5h-1zm23 0 .5 10.5h-1zm131 0 .5 63.5h-1zm129 5-1 2-11.5-.5zm185 2 .5 18.5-1.5.5-1-2 1.5.5zm-18 2 .5 10.5h-1zm-263 1 11.5.5-11.5.5zm288 0 .5 20.5h-1zm-257 2 2.5 3.5-16.5.5v-1l15.5-.5zm39 2 12.5.5-12.5.5zm81 0 .5 41.5h-1zm-331 1 .5 10.5h-1zm129 1 .5 96.5h-1zm47 4 26.5.5-26.5.5zm140 4 1 15 1-15 .5 26.5h-1l-.5-7.5-1 10z"/><path fill="#979487" stroke="#979487" d="m577.5 506 6.5 3.5-.5 1.5-2.5-1.5-.5-1.5h-2l-4.5 1.5 1 2-1 2 .5 2.5 6 1 2-1v1l-6 2-3.5-2.5-1-5 3.5-4.5zm-161 19 .5 18.5h-1zm61 10h24l1.5 1.5-1.5-.5h-24zm43 0 7.5.5-9.5 1.5v-1zm-62 4 4.5.5-4 1 3.5 4.5zm67 0 38.5.5-5.5 5.5h-3v-1q5.8.8 6.5-3.5l-36.5-.5zm82 0 .5 16.5h-1zm-154 1 7.5 6.5-7-5-.5 2.5zm50 0 .5 14.5h-1zm17 1 1.5.5-1.5 9.5zm-22 1 1.5.5-.5 11.5-1-11-1.5.5zm-34 2 28.5.5-28.5.5zm96 2 .5 24.5h-1zm-144 1 .5 34.5h-1zm47 0h28l1.5 1.5-.5 25.5-1-26h-28zm62 2 .5 39.5h-1zm32 1 .5 35.5h-1zm8 0 .5 17.5h-1zm-131 1 .5 25.5 2 3h-1l-2-3zm20 4 .5 14.5h-1zm270 1 7.5 6.5.5-1.5.5 1.5-1.5 1.5zm-203 2 .5 28.5h-1zm86 2 .5 23.5h-1zm-144 3 .5 49.5h-1zm32 0 .5 18.5h-1zm118 0 .5 17.5h-1zm-153 1 .5 27.5h-1zm68 3 .5 37.5h-1zm-25 1 .5 54.5h-1zm96 4 .5 73.5-2.5 1.5-1.5-1.5v-21h1l.5 21.5 1.5-.5zm-82 5 .5 31.5h-1zm54 1 .5 47.5h-1zm-116 1 .5 44.5h-1zm43 5 .5 36.5q-2.5 4-5-2l.5-7.5q-1.3 7.8 3 10zm-7 2 .5 31.5h-1zm123 0 .5 19.5h-1zm92 2 9 10zm-290 4 .5 26.5h-1zm142 3 .5 18.5h-1zm50 1 .5 44.5h-1zm-83 2 .5 17.5h-1zm37 0 .5 18.5h-1zm4 1 .5 17.5h-1z"/><path fill="#979487" stroke="#979487" d="m522.5 601 1 19 2.5-1.5-3.5 2.5zm-86 1 .5 1.5-2 2-.5 33.5-.5-33.5zm-25 3 .5 29.5h-1zm11 6 .5 17.5h-1zm29 1 .5 14.5h-1zm248 0q3.2 6.6 6.5 4.5l-1.5 1.5zm-274 1 .5 31.5h-1zm121 2 12.5.5-12.5.5zm-117 4 .5 28.5h-1zm114 0 10.5.5-10.5.5zm-26 1 2 8 33.5.5-33.5.5q-4.4-1.9-2-9Zm157 0-6 7zm-203 1 21.5.5-21.5.5zm23 2 2 3-24.5-.5 23-1zm-160 7 16 17zm341 0-7.5 8.5 1.5 2.5-2.5-2.5zm12 0 4.5 5.5-3 2 2-3zm-265 1 .5 16.5-6.5 1.5-1-2 6 1zm237 4-6.5 7.5-.5 1.5-.5-1.5zm-68 3 .5 7.5-1.5 1.5h-104v-1l104.5-.5zm-259 2 6 7zm333 0 11 12-11-11-2.5 1.5zm22 0-5 6zm5 5-5 6zm-77 1h13l2.5 2.5-1.5 3.5.5-1.5-1.5-3.5h-13zm-181 1 15.5.5-15.5.5zm-93 3 12 13zm273 2 13.5.5-13.5.5zm-214 1 19.5.5-19.5.5zm21 0 143.5.5-143.5.5zm-36 26 6.5 3.5.5 1.5 2.5.5-.5 1.5-1-2-3-1zm35 16 1.5.5.5 1.5 1.5-.5 1.5 4.5-3.5-1.5-.5-1.5-1.5.5 1-2zm151 2 6.5 4.5-4.5-3.5zm-10 3 1.5.5-2 1 8.5 9.5-9.5-9.5zm-79 1 10.5.5-10.5.5zm24 0 11.5.5-11.5.5zm50 1 5 6zm-92 4 10.5 8.5-1.5.5-7-8zm67 0h3l10.5 10.5-10.5-9.5zm-35 2 15.5.5-15.5.5zm-22 1 5 6zm68 0 6 7zm-48 2 6 7-5.5-.5 4-1zm21 1 5.5 6.5-8.5.5v-1l7.5-.5z"/></svg>