<svg xmlns="http://www.w3.org/2000/svg" viewBox="0 0 1024 1024"><path fill="#12100d" stroke="#12100d" d="m664.5 369 5.5 2.5v4l-14 24q-16.1 22.4-36.5 40.5L605 452.5l.5 1.5 3.5 2.5-1.5 7.5-4-10-14.5 13.5 12.5 2.5 12-4-4 5q-5.1 3.4-15 2l-11-2-7.5 3.5 1.5 2.5 25 10 7 1q6.1-3.4 17-2 12.1 3.4 19.5 11.5l-.5 2.5-18-10-7-1q-6.8 3.2-18 2l-4-1-4 7-5.5-2.5-.5-1.5q-1 4-7 3-5.4-3.6-4.5-13.5l2 1 4.5 9.5 4.5-7.5-12.5-5.5-8.5 12.5-3.5 12.5-12 3-16 9-1.5-3.5 5-8 5.5-19.5q12-2.5 18.5-10.5l-.5-2.5-3.5-.5-1-4 10-30 5.5-5.5 24-8 1 2-26.5 11.5-10 31 3.5.5 6.5-5.5q1.8-12.2 9.5-18.5l3.5.5-1.5 2.5-3.5 2.5-2 6 3-2q22.1-36.9 52.5-65.5 12.7-13.3 31-21Zm1.5 3q-23 11-38 28l-29 35 9 10 18-15 29-34 11-21zm-69 67-2 3 9 7 2-1zm-3 4-19 24-9 7 7 7h1l-2-6q4-7 15-7l3-6 4-3 7-8-1-1zm-29 35q-7 8-18 10l-5 16 1 2 7-8v-3l4-3 2 5-3 1-6 7-3 4q6-6 18-6 1-13 8-20zm26 8q-2 5 1 8h2l2-5z"/><path fill="#12100d" stroke="#12100d" d="m627.5 434 7 3 30.5 23.5-.5 1.5h-3l-16-10-19.5-16.5zm-108 69 1.5.5q-18.7 21.3-33 47L456.5 614l-2.5-1.5-28-44-18.5-21.5-4-1-12.5 8.5-2 8 66.5 88.5 5 1 7.5-5.5 27-59q11.8-24.2 28.5-43.5l1.5.5-22 35-25 55-10.5 17.5q-2.9 4.1-11 3l-10.5-9.5-58-78-3-7q1.6-8.9 8.5-12.5l11-5q8.4 2.2 12.5 8.5l38.5 57.5 35.5-69.5q11.9-20.6 28.5-36.5Z"/><path fill="#fefefe" stroke="#fefefe" d="M.5 0 1024 .5l-.5 1023.5L0 1023.5zM663 369q-21 10-35 26-26 26-45 58l-4 3 2-5 4-3-1-3-3 1-10 20-6 4h-2l9-31 27-11q3-1 0-3l-27 9-5 7-9 31 5 2v2q-7 7-18 10l-8 22-11-6-7 1-29 38-32 63-38-49q-5-10-17-13-10-1-13 3-7 4-8 14 1 12 8 19l46 60 20 17 10-1 7-8 32-69 20-32-1-1q-15 14-24 34l-34 71-3 2q-7 2-9-2l12-4 6-9q1-14-5-20l-7-6 25-53 33-49 2-1q1 8-2 12l2 7 6 3h8l13-8-1-9 17-6 3-3q0-12 5-17l3-2 2-3 11 5-1 5-3 1-5-10-2 1 4 13 3 1 5-3q1 4 8 3l4-7 6 2 11-2 12 1 18 9v-2q-9-9-23-13l-11 2h-9l-28-11 5-4 20 2q9-1 13-6l-1-3-3 2h-2l2-6-1-5-4-3 10-8q24-20 42-46l13-22v-6zm-36 65-1 2 21 17 18 10 1-2-32-25z"/><path fill="#fefefe" stroke="#fefefe" d="m663.5 373 2.5.5q-18.4 39.6-50.5 65.5l-7 6-9.5-8.5q15.4-24.6 36.5-43.5zm-67 66 8.5 8.5-1.5 1.5-8.5-7.5zm-3 5 7.5 7.5-2.5 2.5-10.5 9.5-2.5 4.5q-9-.5-12.5 4.5l-1 6 1 2-6-5 .5-2.5 6.5-4.5zm9 11 1.5.5q3.9 2.6 3 10l-1.5 3.5-15.5-1.5 4.5-5.5zm-38 23 4.5 5.5-4 5-4.5 14.5h-5l-11 5 9-10 2.5-1.5-1.5-4.5-4.5 1.5v3l-7.5 8.5.5-1.5 4.5-15.5q11.4-2.1 17-10Zm26 9 5.5 2.5-2.5 4.5q-4.8-2-3-7Z"/><path fill="#e8d34b" stroke="#e8d34b" d="m627.5 395-5 6zm-26 48 4.5 4.5-1.5 1.5zm-1 13-5 6zm-48 42-5 6zm-32 4h5l11 6 1.5-.5-4 8 3.5 1.5 8-6 1.5 9.5-13.5 8.5h-8l-5.5-3.5-2-7q3.3-3.7 2-12h-2zm-125 40 7.5.5-16 12-2 6 3 7 65 85-7.5-6.5-9.5-8.5-46-60q-6.6-6.9-8-19 1.3-9.2 7.5-13.5z"/><path fill="#e8d34b" stroke="#e8d34b" d="m403.5 546 4 1 10.5 10.5 37.5 56.5 2.5-1.5 1.5-2.5 7.5 5.5q6 7.5 6 21h-2l1 2h-2l-4.5 6.5-11.5 3.5 1.5 2.5-62.5-82.5-4-6v-4l4.5-6.5z"/><path fill="#e8d34b" stroke="#e8d34b" d="m435.5 577 22 27 1.5-.5-3.5 5.5z"/></svg>