<svg xmlns="http://www.w3.org/2000/svg" viewBox="0 0 1024 1024"><path fill="#050505" stroke="#050505" d="M494.5 218h23l13 3q15.8 6.7 25.5 19.5 12.7 17.3 16.5 43.5l13.5-10.5q8.6-9.4 14-22l8.5-8.5q6.8-6.2 17-9l17-2 16 5 11.5 9.5q11.5 14 11 40l-1 1v9l-2 10-4 12q-8.7 20.3-24.5 33.5-16.3 10.2-29.5 23.5L602.5 399l-13 8-14 1q-11.8-2.2-17.5-10.5-4.6-5.4-5-15l2-10 4-7v-9l-3 2q-6.2 11.8-16.5 19.5l-19 9-13 1-1 1h-21l-1-1h-13q-7.3 5.2-10.5 14.5l-1 4v20l1 1v10l1 1 3 31 2 7v7l15 79 4 14 7.5 10.5q3.3 3.2 11 2l19-9q7.5-2.5 19-1 32.5 7.5 49.5 30.5 10.4 13.6 17 31l5 21 1 16-4 20q-3.8 9.7-11.5 15.5l-30 18-14 5-9.5 1.5 11 23v3l-3 4 8 14q2.3 4.8 1 13l-4 10q6.2 6.3 4 21l-6 12q3.6 5.4 2 16-1.7 8.3-7.5 12.5l-3.5 2.5q2.5 19-8.5 24.5l-4.5 2.5-2 10-10.5 12.5-1.5-.5 2-4-1.5-.5q-1.9 3.6-7 4l-.5-1.5 10-9 4-9q-16.9-.1-23-11-2.3-3.2-1-10l5.5-6.5q4.8 1.2 6-1 10.9 1.6 15.5 9.5l3.5 6.5q6.5-3 4.5-14.5l-1.5.5-9-1-10.5-5.5-4-6v-5l2.5-4.5q3.2-4.3 12-3 8 2.5 12.5 8.5l2.5 4.5 4.5-3.5q2.9-4.6 2-13-1.2-2.8-2.5-.5-5 3-14 2l-7-2-6.5-5.5q-3-3-2-10l4.5-5.5q4.6-2.9 13-2 10.1 2.4 16 9 4.1-3.9 2.5-13.5l-1.5-3.5-10 4h-11q-7.6-1.8-11.5-7.5l-1-9 5.5-6.5q5.8-3.3 16-2l12 6q2.4-2.1 1.5-7.5-2.6-10.9-9.5-17.5l-5 1q-12.6-15.4-22-34l-17-2-26-8q-19.3-7.2-30.5-22.5l-19-39-16-41-20-70-6-33-1-13-1-1-3-32-1-1v-9l-1-1v-9l-1-1-1-23-1-1v-51l1-1v-22l1-1 1-25 1-1v-7l3-15 2-21q5.6-17.9 18.5-28.5 20.2-18.3 47-30l20-7 26-3zm-8.5 6q-12 5-19 15h-3l11-11 3-1v-1l-7 1-10 8-8 8-13 29 1 4q4-15 11-27 2-5 4-1l-11 26 1 3 7-20 9-13 1 1-2 5 3-2 1 2 9-13 14-12zm21 0q-13 2-21 9-14 12-22 30l-5 15-2 19-1 1v17l1 1v7l2 10 10 24 8 11q12 11 31 15 19-1 30-10 11-10 19-24 0-8-4-12l-1-1-8 14q-9 12-27 15-15 0-22-7-10-7-15-17l-5-13-2-10v-21q3-2 1-7l5-17 8-14q9-13 26-18h12l16 8q15 14 19 40 6 0 8-3l-5-20-12-23q-9-11-22-17-9-4-22-2Zm-55 9-7 4-15 23-6 17-3 15v24l1 1v8l2 10 6 19 10 19q3 3 9 4l1 1q-9-9-14-20l-8-22-2-10v-8l-1-1v-20l1-1 2-18 3-10q7-21 21-33zm6 2-9 10 10-9zm180 2-16 4-11 7q-15 11-18 33l-2 1q-1-6 1-7v-4l-3 5q-12 15-33 20h-15l-7-3 2-3 2 1h2q-2-17-10-27-6-8-16-12h-10l-9 5-11 16-7 26v19l2 9q3 13 11 22l12 6q10 2 16-2l2 1q-5 5-17 5l8 2q17 1 25-8 9-8 13-21l-2-2-6 11-2 1 5-13-3-2q-5 14-15 23h-2q9-10 13-24l-6-3 2-3h6l11 5q7 6 11 16l3 19 2-1 1 1q-7 8-9 22l1 7 2 4 7 6 12 4q9 0 15-5l10-10 12-17 30-24q22-18 28-51v-24q-2-12-8-20-6-9-16-13zm-110 17 10 15 5 17v4l2 1h1l-4-19-6-10zm-85 1-4 6-6 18h2q2-13 8-22zm95 1-1 2 8 12 6 21 4-1q-1-3-2-1l-5-17q-3-10-10-16Zm-84 8-6 17 1 1 1-1 4-14zm-42 2-4 11 1 4 3-12zm-29 61-3 13 1 2 2-8zm11 10-1 2 7 12q10 12 26 19h2l-14-10q-12-10-20-23Zm56 30-1 2 5 3zm-20 11-7 3q-9 6-12 17l-1 3v15l-1 1 1 1v16l1 1 1 17 1 1 2 22 1 1v6l1 1v6l1 1v6l2 7 3 24 1 1 1 12 6 24 4 25 8 18 13 8h9l1-1q-11-2-16-8l-8-11-8-31v-6l-3-12-1-14-2-8-2-22-7-34-1-14-4-23v-10l-1-1v-15l2-8 3-5 8-8 11-5zm-51 7-1 47q2 1 1 6h1v-51zm53 27-1 18 1 1v11l1 1v9l1 1 1 12h1l-1-20-1-1v-13l-1-1v-14zm5 0 3 52 5 29v6l1 1v6l1 1v6l10 47h1l-6-31v-5l-2-6v-6l-4-16-1-15-2-8v-9l-1-1v-8l-1-1v-8l-1-1-1-24q-2-2-1-7zm-16 1-1 23 3 15 2 21h1l-2-23-1-1v-9l-1-1v-14l-1-1 1-2-1-2 1-5zm22 2 2 41h1l-2-40zm11 1v13h1v-11zm-27 1v25h1zm2 25v16h1zm20 14-1 13 1 1 1 18 3 12 6 41 6 25h1l-13-72zm-18 2-1 9 2 8v7l8 46h1zm-20 4v17h1v-9zm26 4-1 8 2 7 2 20 9 49h1zm17 1 2 26 3 14h1l-4-33zm9 19-1 8 1 1 3 26 6 24h1l-7-34v-6zm-76 16-1 6 1 1 4 31 9 38h1l-5-24-2-17-2-6v-5zm76 21-1 5 6 30q2 3 3 0zm-19 21v12l7 30h1zm-3 21q0 17 7 30h1zm19 7-1 4 5 15 2 1zm-5 3q-1 11 5 18h1l-3-5zm80 8q-2 3-7 1l-9 4-10 11-6 14q2 5-1 7l1 3-1 2 6 28q7 18 17 33 17 22 51 28l1-1 12-1 7-3 9-10 6-19v-15l-6-23q-7-17-17-30-9-12-21-19l-19-8-12-1zm-58 29-5 6-2 1 1 2v22l4 20 13 29 11 15q14 16 36 25h10l-9-3-19-11q-33-27-43-77-2-18 3-27zm17 3-2 7 1 4 2-10zm-4 2-2 2 1 12 1-8zm-5 3-2 4 1 7 1-3zm-24 3-12 16-5 14q2 5-1 7l1 7 1-1v-6l4-13 13-23zm20 0-2 3 1 13h1zm-47 46-1 3 3 6h1zm111 40 1 2 8 4v-1zm2 6 2 3 8 3h4zm-7 5 1 2 5 2h2zm-21 10-1 1-11 1 8 1h8zm27 21v5l2 1zm3 8-2 4h3l1-2zm-17 39-4 5 8 4 11-3-8-6zm27 14v11l-1 1 1 2 2-6-1-6zm-29 15-4 3 1 3 7 3q7 1 11-2-4-7-15-7Zm-6 28-1 2 8 5h5l-2-3-4-4zm-10 22-2 2 1 4 9 5h6l-4-7-4-4z"/><path fill="#050505" stroke="#050505" d="M631.5 249q19.8-1.8 26.5 9.5l6 14 1 19q-6.3 34.2-29.5 51.5l-12 7-1-2q12-6.5 20.5-16.5 8.8-10.2 14-24l4-16v-13q-2.4-14.1-11.5-21.5l-6-3-6-1-8 2-11.5 10.5.5 1.5q4.6-7.4 14-10l-1 2-10.5 8.5.5 1.5 12-9 .5 1.5-10 8 .5 1.5 9-6-4.5 5.5.5 1.5 6-3 .5 2.5q-2 5.5-11.5 3.5-6.6-1.4-10-6l-2.5 8.5 2.5 3.5 15 9 4.5 4.5q7 7.5 5 24-2.6 7.4-8.5 11.5l-6 3-17 3-5.5 5.5q-2.2 6.8-7.5 10.5l-9 1q-5.6-2.4-5.5-10.5 1.3-5.7 5.5-8.5l5.5-4.5 1-8q-3-3-3-9l5.5-7.5 6-1 12.5 9.5-.5 1.5-11-6 2.5 3.5q2.5 3.5 1 11l-3.5 4.5-5.5 1.5-7.5 8.5-1.5.5q-3 2-2 8 1 3.5 6.5 2.5l12-15 7-3h7l7-2 8.5-6.5q4-5 2-16l-2.5-5.5-1 6q-2.8-2.7-1.5-9.5l-2.5-2.5-.5 1.5 2 5-2-1-3.5-9.5-1 2-2-4-.5 3.5 2 4-1.5.5-4-10-.5 2.5 2 7-2-1-2-10-1.5-1.5-.5 2.5q2.6 2.9 2 9l4 7-2.5.5q-11.1-7.4-9.5-27.5 3.4-13.1 12.5-20.5zm-124 33q3.8-.7 4.5 1.5 1 5.5-2.5 6.5l-3.5-1.5-1-3zm11 9 4.5.5 1 4-2.5 3.5q-4 .5-4.5-2.5zm-22 1 3.5.5 1 5-1.5 2.5q-4.7.8-5.5-2.5zm12 7 3.5 1.5 1 4-1.5 2.5-3 1-2.5-1.5q-1.2-6.2 2.5-7.5Zm10 10 4.5.5 1 5q-.5 3-4.5 2.5-3.2-.7-2.5-5.5zm-22 1q3.8-.7 4.5 1.5l1 3-2.5 3.5-4.5-1.5q-1.2-5.2 1.5-6.5Zm12 8 3.5 1.5 1 4q-.7 3.3-5.5 2.5-2.5-1-1.5-5.5zm32 276 10 1 14 6 17.5 14.5q12.1 13.9 18 34l2 9v18q-2.4 12.1-10.5 18.5-6.4 6.6-20 6l-10-2-11-5-17.5-16.5q-8.6-10.9-14-25l-4-17v-15q2.2-12.3 9.5-19.5l8-5zm-6.5 9-5 2q-8 5-10 16v17l2 9q5 15 14 27l16 15q7 6 19 8 11 2 17-3l3-4 3-10v-12l-4-17q-6-16-16-28-9-12-22-18l-7-2zm51 24-1 2 4 7-2 1 8 20 1 12 1 1v7l-2 7 1 2 3-8v-8l1-2q-2-26-14-41Z"/><path fill="#050505" stroke="#050505" d="m549.5 613 3.5 2.5q.8 3.8-1.5 4.5l-3.5-1.5q-1-4.5 1.5-5.5Zm-12 2q4-.5 4.5 2.5.8 3.8-1.5 4.5-4 .5-4.5-2.5-.7-3.7 1.5-4.5Zm24 4 3.5 2.5-.5 3.5-2 1-2.5-1.5-1-3zm-30 7q4-.5 4.5 2.5.8 3.8-1.5 4.5-3.7.8-4.5-1.5-1-4.5 1.5-5.5Zm40 4 3.5 2.5q.5 4-2.5 4.5l-2.5-1.5-1-3zm-14 1q4-.5 4.5 2.5.8 3.8-1.5 4.5l-4.5-3.5zm-10 1 3.5 2.5q1 4.5-1.5 5.5l-3.5-1.5-1-5zm-15 9q3.8-.7 4.5 1.5l1 3-1.5 2.5q-4.7.8-5.5-2.5-.7-3.7 1.5-4.5Zm35 1 3.5 1.5 1 4-3.5 1.5-2.5-5.5zm11 1 3.5 2.5q.8 3.8-1.5 4.5l-3.5-2.5q-.7-3.7 1.5-4.5Zm-20 1 2.5 1.5 1 5-2.5 1.5-2.5-1.5-1-4zm-12 3q3.8-.7 4.5 1.5l1 3q-1.7 4.2-3.5 1.5l-2.5-1.5zm-9 8q3.8-.7 4.5 1.5l1 4-3.5 2.5q-4-.5-3.5-5.5zm31 1q4-.5 4.5 2.5.8 3.8-1.5 4.5l-3.5-1.5-1-4zm13 0 3.5 2.5 1 2-1.5 2.5q-4 .5-4.5-2.5-.7-3.7 1.5-4.5Zm-23 2 2.5 1.5 1 5-2.5 1.5-2.5-1.5-1-5zm-10 9 3.5 1.5 1 4q-.7 2.3-4.5 1.5l-2.5-4.5zm32 3q3.8-.7 4.5 1.5.8 3.8-1.5 4.5l-3.5-1.5-1-3zm-20 5 4.5 3.5q.8 3.8-1.5 4.5l-4.5-1.5-1-4zm12 2 3.5.5 1 5-3.5 1.5q-3.2-.7-2.5-5.5z"/><path fill="#fefefe" stroke="#fefefe" d="M.5 0 1024 .5l-.5 1023.5L0 1023.5zM500 217l-1 1h-8l-15 3h-6l-21 7q-25 11-44 27-16 11-23 31l-3 27-3 14v8l-1 1-1 33-1 1v20l-1 1v32l1 1v15l1 1 1 22 2 9v10l3 17v7l1 1v7l9 50 15 52 16 44 20 43 5 7 4 2v2l4 2v2q10 8 25 13l20 6 19 3 17 29q2 6 11 4l7 15v9l-10-6-5-1h-5l-9 3q-5 3-6 9-1 5 2 8 5 6 14 7 11 0 18-5l2 7-1 8-1 1-14-8q-12-2-17 3l-3 4q-1 8 2 12 4 5 12 6h13l3-2 1 1q2 12-4 16l-5-6-9-7q-5 1-6-1l-6 2-5 5-1 4 2 6q7 10 24 10 1 9-4 13l-4-7q-4-7-12-9l-10 1-6 8q-1 7 3 11 6 9 22 9l-4 8-11 10 1 2 7-3 2-1-3 4h4l9-11q3-4 2-10l6-4q6-4 8-13 2-8-1-11l5-3 5-7 2-8v-6l-3-8q6-5 7-14 1-13-5-18l4-8q-1-5 1-6l-2-10-8-14 2-1 2-3-9-18-2-7 7-1 15-5q18-8 33-20 6-6 10-15l3-14v-18l-3-16q-7-24-21-41-18-23-51-30l-14 1-22 10q-7 1-9-2l-8-9-5-17v-5l-3-10-11-59v-7l-2-7-4-39-1-1v-13l-1-1 1-14 4-9 8-8 1 1h39l13-3 16-9 14-17 2-1v8l-5 11v10l6 12q9 9 24 12 17 0 26-8l8-8 12-17 34-40 6-9 9-21 3-16q2-29-9-44-9-13-26-17h-13l-9 2-17 10-9 10-11 18-13 11-8-25-11-19q-10-13-25-19l-15-3z"/><path fill="#fefefe" stroke="#fefefe" d="M508.5 224h10l11 3 18.5 12.5q15.4 17.6 19 47l-7.5 2.5q-3-29.5-22-43l-11-5-11-1q-18.8 4.2-28.5 17.5-15.8 20.2-15 57l6 23q5.2 11.8 14.5 19.5l16 8h11q14.8-2.7 22.5-12.5l9.5-15.5 1.5.5 4 10q-8 15.1-20.5 25.5l-16 8-16 1q-17.7-4.8-28.5-16.5l-7-10-9-21-3-15-1-17 1-1v-8l1-1v-7l2-10 5-14q8.1-17.9 22.5-29.5l12-6q6.1.6 9-2Zm-25 1 2.5.5-15 14-6.5 9.5-1-2-1.5.5 2-4-1.5-.5-8 10 .5-1.5 1-5-2.5-.5-1.5.5 1-3 9.5-9.5 9-7 5-1v1q-8.2 3.3-12.5 10.5l.5 2.5zm-33 9-5.5 6.5q-11.5 14.5-17 35l-3 16-1 19 1 1 1 17 5 18 8 18 10 12-1.5-.5q-5.5-.4-7.5-4.5l-10-19-4-12-4-19-1-22 1-1 1-16 7-22q6-14.5 16.5-24.5z"/><path fill="#fefefe" stroke="#fefefe" d="M633.5 238q21.5-1 30.5 10.5 12.7 13.8 11 42-2.8 1.8-1 8l-5 17-10 18-8.5 8.5-12 6-45 35-9 4h-9q-2.6-3.9-10-3-3.6 1.9-3.5 7.5l.5 1.5q-5.1-4.4-3.5-15.5l8-16v-3l-1.5.5-1.5-.5q0-22.5-12.5-32.5-6.8-5.7-18-7l-2.5 1.5 1.5 3.5 4.5 1.5q-4.8 14.7-14 25l1.5.5 5.5-4.5 11.5-19.5 1.5 3.5-5 12 1.5.5 7-13 1.5 3.5q-4.6 12.9-14.5 20.5l-13 6h-12l-3.5-1.5 2.5-.5h6l7.5-5.5-1.5-.5-4 2-11 1q-10.2-1.7-15.5-8.5l-6-10-4-12-1-11-1-1v-8l1-1 1-13 6-19q3.9-9.6 11.5-15.5l9-4h5q13.4 2.7 19.5 12.5l6 11 4 14q-5.4-.9-7 2l1.5 2.5 9 3h9q22.3-4.2 34.5-18.5l3.5-5.5.5 3.5-1 5q1.5 3 3 0l7-21 12.5-13.5q8.1-6.9 21-9Zm.5 10q-11 2-17 8l-9 12-3 14 2 11 5 8 5 3h2l-4-7 1-3 2 4 1-5 1 5h2l1-3 2 4 1-2 2 7h2l3 5 1-4 1 3q2 12-4 17l-7 4-11 1-10 4-9 13-4 2-3-1-2-3 1-4 5-4 4-5 6-3 5-7-1-9-2-4 10 7v-2q-5-8-14-11l-5 2-5 6q-1 8 3 12l-2 8-5 3-5 7 1 9 6 4q6 1 9-2l8-12 5-4 14-2 9-4q6-5 8-13v-9l-4-11q-7-10-19-15l-5-5 3-7 12 6 7-1 3-4v-2l-6 2 4-5v-2l-6 3-4 3 6-5 4-5-7 3-7 6 9-8 3-4h-3l-7 5-4 3q5-8 15-11 10-1 15 3 8 6 11 19v18l-2 9q-5 15-14 27-9 11-22 19l1 1 5-1 9-6q11-9 18-21l8-18 3-15q0-21-9-32-7-9-23-9Zm-127 27-9 4-10 13-3 11 1 14 6 11 7 4 5 1 9-1 4-2q10-8 13-24v-9l-5-13-9-8zm111 78-2 4h3l1-2zM449.5 252l-.5 1.5-3.5 7.5-.5-1.5z"/><path fill="#fefefe" stroke="#fefefe" d="m531.5 257 9.5 13.5 5 20-1.5.5-5.5-21.5zm11 6 4.5 7.5 5 20-2-1q-1.7-16.2-7.5-26.5Zm-148 76 16 19 16.5 11.5-1.5-.5q-14.6-5.4-23.5-16.5zm36 39 4.5.5q-9.9 3.6-16 11l-6 12v25l1 1 1 15 4 22v7l8 40 1 16 1 1 1 14 1 1 3 23 7 27q3.5 10 11.5 15.5l11.5 4.5-.5 1.5-9-1-11.5-8.5-4-7-4-12-2-16-5-19-5-27v-6l-2-7v-6l-3-13v-7l-1-1-2-21-2-8-1-16-1-1-1-36q2.8-12.2 10.5-19.5zm-52 13 .5 30.5h-1z"/><path fill="#fefefe" stroke="#fefefe" d="m420.5 414 .5 16.5h-1zm11 0 1.5 7.5 1 25h-1zm6 1 .5 9.5h-1zm6 1 1.5 26.5h-1zm-5 11 4.5 47.5h-1l-2-24-1-1v-10l-1-1zm-17 5 .5 7.5h-1zm28 35 4.5 34.5h-1l-2-17-1-1v-8l-1-1zm6 10 1.5 12.5h-1zm-1 26 2.5 10.5v7l1 1 2 17 2 5v5l3 13h-1l-9-46zm-7 1 6.5 36.5h-1l-6-31zm-59 9 9.5 51.5h-1l-6-28zm78 29 3.5 16.5h-1l-3-13zm63 42h11l15 4q16.3 6.8 27.5 18.5 12.4 13.1 20 31l6 19 1 16 1 1-1 1v8l-4 13-8.5 11.5q-6 4.5-15 6h-12q-26.6-6.9-42.5-24.5-10.9-14.1-18-32l-6-22-1-19q3.4-17.1 14.5-26.5zm8.5 10-11 5q-7 4-10 13l-3 13 1 15 5 17 14 23q11 16 34 21h13l12-6 8-12 2-11-1-16-4-14q-6-17-17-28-10-11-23-17l-9-3zm-74.5-9 2.5 6.5h-1z"/><path fill="#fefefe" stroke="#fefefe" d="M538.5 603q24.1 4.4 35.5 21.5l7 10 7 15 3 9 2 16q-2.7 1.8-1 8l-4.5 10.5-6 3h-15q-18.2-5.8-28.5-19.5-9.4-11.1-15-26l-4-16v-11l3-11 4.5-5.5 5-3q5.5 1.5 7-1Zm10.5 10q-3 1-2 5l5 3q3-1 2-5t-5-3Zm-11 2-3 3 1 3 4 2 2-1 1-2-1-3q-1-3-4-2Zm23 4q-3 1-2 5 1 3 6 2l1-2-1-3q-1-3-4-2Zm-30 7-2 5q1 4 6 3l2-3-1-3q-1-3-5-2Zm28 4-2 1-1 5q1 3 6 2l1-4zm12 0q-3 1-2 5 0 3 5 2 2-1 1-5-1-3-4-2Zm-24 2-3 3 1 3q1 3 6 2l1-4q0-5-5-4Zm-13 8-2 1-2 3 1 3 5 2q3-1 2-5zm34 2-2 2q-1 5 3 6l3-1v-4q0-3-4-3Zm10 1-2 2 1 4 5 1 1-2-1-3q-1-3-4-2Zm-20 1q-3 1-2 6 1 3 6 2l1-2-1-3q-1-3-4-3Zm-11 2-2 2 1 5 3 1 3-1-1-5q-1-3-4-2Zm-9 9q-3 1-2 6 1 3 6 2 2-1 1-6-1-3-5-2Zm31 0-2 2 1 6 4 1 2-3-1-3zm12 1-2 5q1 3 6 2 2-1 1-4-1-4-5-3Zm-23 2-3 4 1 2q1 3 6 2l1-2-2-5zm-10 9-2 2q-1 5 3 6 3 1 4-1l-1-6zm33 2q-3 1-2 6 1 2 6 1v-5zm-21 6q-3 1-2 6l5 3q3-1 2-6-1-4-5-3Zm13 1-3 3 1 4 4 2 3-2-1-4q0-4-4-3Zm-97.5-63 .5 1.5-2 5-1 16 4 21 11 27q10.8 19.3 26.5 33.5 11.3 10.2 28.5 14.5l-7.5.5q-23.3-9.2-37.5-27.5l-10-14-10-21-6-23-1-22q2.5-1.5 1-7zm13 7 .5 7.5h-1zm-27 3-.5 1.5-12 21-4.5 16.5-.5-6.5q3.9-21.1 17.5-32.5Zm124 6q7.1 8.9 10.5 21.5l2 9v16l-1.5 4.5-.5-15.5-2-10-7-17 1-3zm-38 82 4.5 2.5-1.5-.5q-3.7-.3-3-2Zm0 5 5.5 2.5-1.5.5-4-2zm-14 82q8.6.4 12.5 5.5-4.2 3.3-12.5 2.5l-4.5-3.5 1.5-3.5zm26 16 .5 7.5h-1zm-29 13q9.3.8 13.5 6.5-3.6 3.4-12.5 1.5l-4.5-3.5.5-3.5zm-7 28h5l6.5 5.5-.5 1.5q-6.9-.6-10.5-4.5zm-9 22q8.1-.1 10.5 5.5l2 4-6.5.5-7.5-5.5q-.7-3.7 1.5-4.5Z"/><path fill="#bca779" stroke="#bca779" d="m499.5 217 15.5.5-15.5.5zm-29 10-3 4zm2 2-8 9zm74 1 8 9zm-95 3 .5 1.5-7 6 5-5-.5-1.5 1.5.5zm34 0-8 9zm-28 2 2 1 1.5-.5-8 7 .5-1.5-1.5.5-4.5 5.5 1.5-2.5zm58 5 7.5.5-7.5.5zm-63 4 1.5 2.5-2.5 1.5v-1l1.5-.5zm154 0-5 6zm-144 2q3.7 2.2-1.5 4.5l-3.5 6.5-.5-1.5 4.5-7.5 1.5-.5zm148 2-6 7zm23 0 7.5.5-7.5.5zm-138 1-8 9zm32 5 3.5 2.5 1 2zm-123 1-3 4zm38 0 .5 1.5-3.5 7.5-1.5-.5zm95 1 4.5 4.5-.5 1.5 2.5 1.5-2 1 .5-1.5-2.5-1.5q2.3-1.2-.5-2.5l-2.5-1.5zm-43 1-3 4zm155 0 4 5zm-193 1 .5 1.5q-3.7 4.3-4.5 11.5l-1.5-.5zm68 0 5 6zm106 1 .5 2.5-1.5 1.5-.5-2.5zm-233 3-6 7zm225 0-4 5-.5-1.5zm10 0-1 4q-3.5-2 1-4Zm-7 1 2.5.5-5.5 5.5-1.5-1.5zm-15 1-.5 1.5-1.5 3.5-.5-1.5zm23 0 1.5.5-5 6 .5 1.5-1.5-.5 5-6zm-7 3 2.5.5-4.5 3.5-.5-1.5zm-41 6-5 6zm-151 1 1.5.5-1.5 4.5-1.5-.5zm-25 1 .5 1.5-1.5 4.5-.5-4.5zm97 0 9 1 9.5 7.5 5 13v9q-2.6 16.4-13.5 24.5l-4 2-9 1-5-1-6.5-4.5-6-11-1-14 3-11 9.5-12.5zm1.5 7-3 4 1 3 4 1q3-1 2-6-1-3-4-2Zm11 9-2 6q1 2 5 2l2-3-1-4zm-22 1-3 6q1 3 6 2l1-2-1-5zm12 7q-4 1-3 8l3 1 3-1 1-2-1-4zm10 10-2 3q-1 4 3 5t4-2l-1-5zm-22 1q-3 1-2 7l5 1 2-3-1-3q-1-3-4-2Zm12 8-3 3q-1 4 2 5 4 1 5-2l-1-4zm81.5-41 1 5 1.5-.5q-1.5 3-3 0zm-4 1-4 5zm74 0 .5 13.5h-1zm-269 1-.5 1.5-1.5 3.5-.5-1.5zm274 2 .5 7.5h-1zm-115 1 .5 2.5-1.5 3.5-.5-2.5zm70 7 2 4 1-2 1.5 2.5-3.5 2.5-.5-1.5.5-1.5-1.5-.5zm-199 2 .5 7.5h-1zm122 5 9.5.5-9.5.5zm86 1 .5 6.5-1.5.5-1.5-2.5zm-157 3 .5 14.5h-1zm-48 1 .5 9.5h-1zm208 0 1.5 3.5-1.5 4.5q-2.7-1.2-.5-2.5zm-39 4-3 4zm46 2 .5 9.5h-1zm-218 1 .5 7.5h-1zm35 0 .5 6.5h-1zm145 1 5.5 3.5h-2l-.5 1.5zm52 4 .5 1.5-2.5 3.5.5-1.5zm-48 2 .5 6.5h-1zm30 10-4 5zm-84 1 3 4zm-170 4 1.5 3.5-2.5 8.5-.5-2.5 1-1zm261 1-5 6zm5 0-11 12zm-53 1-4 5zm-219 3 .5 6.5h-1zm282 0-11 12-29.5 23.5-12 17-10.5 10.5q-5.4 4.6-15 5l-12-4-6.5-6.5 2-6 2.5-2.5q7.4-.9 10 3h9l12-6 42-33 12-6z"/><path fill="#bca779" stroke="#bca779" d="m657.5 344-6.5 7.5-34 44-8.5 8.5q-8.6 8.4-26 8l-8-2-7.5-4.5 1.5-.5q5.5 4.5 17 3 12.4-3.1 19.5-11.5l15-21 6.5-6.5 23-17zm-132 3-1 4-1.5-.5zm15 0-5 6zm58 1-3 4zm-17 1 3 4zm-207 1 .5 6.5h-1zm112 0 6 7zm-82 1 6 7zm154 5 .5 9.5h-1l-.5-7.5-1.5.5zm-48 4 8.5.5-8.5.5zm35 4-8 9zm-115 2 1 2 2.5 1.5-1.5-.5-2.5-1.5zm19 2 4.5 3.5-1.5.5zm-76 1 .5 10.5h-1zm175 0-7 8zm-104 2 5.5 6.5h-1l-.5-1.5-1.5.5 1-1zm-66 14 1.5 1.5v51h-1l-1-15 1-1v-30l-1-3zm45 0-4 5zm48 3-6 7zm2 0 11.5.5-11.5.5zm-101 2 .5 32.5h-1zm64 22 1.5 2.5-1.5 3.5zm6 3 1.5.5-1.5 7.5zm11 1 1.5 1.5v11h-1zm7 3 .5 7.5h-1zm-47 1 .5 6.5h-1zm25 0 .5 6.5-1.5 5.5-.5-6.5zm-12 2 4.5 38.5h-1l-2-10-1-17-1-1zm-5 1 .5 8.5-1.5 4.5-.5-4.5zm10 0 .5 6.5h-1zm13 1 .5 7.5-1.5 5.5-.5-4.5zm-11 6 .5 6.5-1.5 5.5-.5-4.5zm-60 2 .5 6.5h-1zm66 1 .5 5.5-1.5 5.5-.5-4.5zm-17 5 .5 5.5-2-1zm23 3 .5 14.5h-1l-1-12zm-11 3 .5 5.5-1.5 2.5-.5-4.5zm-12 1 1.5 3.5 2 23h-1zm18 0 .5 4.5-1.5 5.5-.5-4.5zm1 9 .5 4.5-1.5 5.5-.5-4.5zm-7 2 1.5.5-.5 8.5zm-24 6 2.5 21.5h-1l-2-11zm38 0q2.3.8 1.5 4.5l-1.5 2.5zm-6 1 .5 4.5-1.5 3.5-.5-2.5zm-6 3 1.5 7.5-1.5.5zm14 5 .5 3.5-1.5 5.5-.5-4.5zm6 9 .5 2.5-1.5 3.5-.5-2.5zm6 6 2.5 15.5-2-1zm-18 2 1.5 1.5 1 9-1.5.5zm14 12q2.3 1.8 1.5 6.5h-1zm-72 2 1.5 5.5-1.5.5zm69 4 .5 1.5-1.5 4.5-.5-3.5zm-13 4 1.5 1.5 3 19-2-1zm-3 7 1.5 10.5h-1l-2-9zm22 2 2.5 9.5-2-1zm-19 20 3.5 16.5-1.5.5-2.5-12.5zm29 0 1.5 1.5 1 8h-1zm-23 5 1.5.5 1 9h-1zm7 7 1.5.5 2 11h-1zm-15 14 4.5 18.5 3 7-1.5.5-6.5-21.5zm7 2 5.5 20.5h-1q-4.6-9.4-4.5-20.5Zm11 2 2.5 6.5-1.5.5zm-5 3 5.5 16.5-1.5.5-4.5-14.5zm77 6 9.5.5-9.5.5zm49 18 11 12zm-56 6-3 4zm-80 4 3 4zm140 1 4 5zm-7 2 4 5zm-25 4q3.3.8 2.5 5.5l-3.5 2.5v-1l2.5-1.5q.5-4.7-1.5-5.5Zm14 2 7 8zm-76 2 .5 2.5-.5 3.5-1.5-4.5zm-19 1 1.5.5-.5 5.5zm23 1 .5 2.5-1.5 4.5-.5-4.5zm-33 4 1 2-1-1-3.5 2.5zm20 0 .5 15.5h-1l-1-13zm3 0q2.3.8 1.5 4.5l-1.5 3.5zm31 1 .5 7.5h-1zm-41 3 .5 8.5h-1zm87 4q3 .5 2.5 4.5h-1zm-14 15q3.8-.7 4.5 1.5l-1.5-.5-3.5.5-.5 3.5-.5-3.5zm20 0 2 3 1.5.5-1.5.5q-3.6-1.1-2-4Zm13 12 2.5 4.5-3-2zm-136 1 1.5 6.5-2 1zm159 4 .5 8.5h-1zm8 1 .5 8.5h-1zm-64 7 2 3 4-1-1 2q-4.7.8-5.5-2.5zm26 5 2.5.5-4 2-.5 2.5-.5-2.5zm-38 3 11 12zm43 1 .5 2.5-3.5 2.5v-1l2.5-1.5zm-30 5 3 4zm22 11 10.5.5-10.5.5zm-70 10 11 12zm5 0 10 11zm100 2-3 4zm-53 4 2.5 1.5-.5 1.5q-1.7-3.1-3.5-1.5zm5 7 4.5 1.5-2.5.5-2.5-.5zm-49 12 9.5.5-.5 1.5-9-1zm42 28 1.5 2.5-3.5 1.5-.5-1.5 1.5.5 1.5-.5zm-26 33-3 4zm-3 16 3 4zm43 6 .5 8.5h-1zm-30 1 6.5.5-6.5.5zm9 16q4.5 2 1 4l-1.5-.5 2-1zm-9 4 6.5.5-6.5.5zm15 6q3.3 1.8 1.5 8.5h-1q.6-6.7-.5-8.5Zm11 3 .5 6.5h-1zm-51 26-3 4zm40 0 .5 9.5h-1zm-23 2 5 6zm1 13 1.5 2.5-6.5.5v-1l5.5-.5zm19 2-5 6zm-39 1 4 5zm17 18-6 7zm5 6-5 6zm-7 1q3.3 1.8-.5 3.5l-.5 1.5-.5-1.5zm-7 1-.5 1.5.5 1.5 1.5.5-2.5.5-.5-2.5z"/></svg>