<svg xmlns="http://www.w3.org/2000/svg" viewBox="0 0 1024 1024"><path fill="#0b0b08" stroke="#0b0b08" d="m560.5 200 2.5 1.5-6 28-10.5 12.5-16 7-3.5 3.5.5 1.5h8l9.5 3.5 3 6v14l-1 1v29l1.5.5q5.4-5.1 6.5-14.5l7.5-7.5 3.5 1.5 2 8-3 7-9 10-5 11-1 12-1 1v28q-2.5 1.5-1 7l1.5 3.5h30l11-8 21-4 5.5-5.5-1-19q5.2-13.3 16.5-20.5l5-2 1.5 2.5v20l-5 11 1.5-.5 9-5h13l1 1 10.5.5v2l-8.5 9.5q-5.4 4.6-15 5l-1-1h-13q-7.8 8.2-19.5 12.5l39.5.5q5.8 1.3 8.5 5.5l2.5 11.5 2.5-1.5q2-18.5 13.5-27.5l27-13q2.8 1.3.5 2.5l-7 26-6.5 9.5q-7.6 7.4-21 9l-5.5 4.5-4 7 1.5-.5h5l2-2 9-3h7l27.5 9.5-.5 2.5-17 8-14 1-13-6h-6l-2.5 3.5v14l-3.5 6.5-6 3h-14l-1-1h-15l-12.5 2.5 4.5 4.5h5l10 4 6.5 6.5 11 23-2.5 1.5-11-4h-7l-7-2q-6.7-2.2-10.5-7.5l-7-16-3.5-3.5-8-4-13-3h-27l-1.5 1.5v36l1.5.5q1-5 8-4 6.7 4.3 6.5 15.5-3.8 8.7-11 14l-2 23-7 12-8 30 2-1 3.5-4.5 11-6h5l1.5 5.5q-1.5 7.5-6.5 11.5l-12.5 8.5-3 6v3l4.5 1.5h13l1 1 12 1 25 6 19 8 7.5 6.5q6 6 4 20l-1 1v10l-1 1-1 15q-2.1 8.4-8.5 12.5l-5.5 3.5-6 32-6 22-5 30q-2.8 10.2-9 17v7l15 1-10.5.5-1 1-3-1-2.5 5.5 25.5.5 2.5 1.5-23.5.5-5-1-6.5 5.5 19 1-4.5 1.5h-31l-10-10h-15l-1 1h-31l-1-1-13-1-9 10q-2.9 3.6-11 2l-5-2-28.5-.5 17.5-1.5 2 1 3-1 1.5.5-4.5-5.5h-36l-1 1h-8l-.5-1.5 9.5-.5 1-1 33.5-.5q.8-3.7-1.5-4.5l-15.5-.5 1.5-1.5 14.5-.5-1-6q-7.2-6.8-10-18l-16-82-1.5-2.5q-7.2-1.8-10.5-7.5l-4-14-3-28q1.9-11.6 10.5-16.5 30.7-15.3 73.5-18.5l1-11 2-5v-16l-5.5-11.5-5-3h-11l-8-2-11.5-8.5-9-18-1-13 1.5-1.5 4 4q7.5 6.5 21 7l12.5 8.5q5.5 5 7 14l3.5 3.5 1.5-.5q-2.3-15.8-9-27l-1-9 3-11v-8q-5-6.6-3-20l1-1v-22l-1.5-1.5h-32l-4.5 13.5-9.5 10.5q-11.9 6.1-29 7l-.5-2.5q7.3-6.7 11-17l7.5-7.5 8.5-4.5q-7.1-2.9-18.5-1.5l-11 2-10 4h-7l-10-3-4.5-3.5q-4.5-6-6-15l-2.5-2.5-1 1h-12l-9-5-14-14-5.5-2.5 1.5-2.5 13-4h14q12 3 18 12l.5-10.5-1-1v-11q.9-6.6 5.5-9.5l7-2h9l1 1h35q3-1.5 0-3-12.9-2.6-19.5-11.5-6.7-7.8-8-21l2.5-1.5 9 6 12 3 7.5 6.5 5 12 4.5 4.5 8 3h35l1.5-1.5v-35l-1-4v-2l-5.5-6.5-13-6-8.5-7.5q-9.4-11.1-8-33l1.5-6.5 2.5.5 8.5 10.5 10.5 7.5q5.7 6.3 6.5 17.5l1.5-.5q.3-7.2 4-11v-32q1.5-6.5 6.5-9.5l5-2q10.9 1.4 18-1 7.4-2.6 11.5-8.5l3-16q3.5-10 11.5-15.5 6.9-5.1 17-7zm-2.5 6-21 9q-8 5-11 14l-3 15-4 7-9 6q-8 2-18 1l-5 2-3 3-2 6v11l1 1-1 22-1 1-1-2-3 6v11l1 1v1q-7-1-9-5l-10-10-3-6 1-3 2 5 10 9q0-12-6-17l-10-8-6-4q-2 20 8 30l9 6 11 5q14 13 26 29l8 16 2 9-1 25-3 17-1 1-5-5q-5-7-12-10l-6-2h-8l-8-2-18-12-6 1q10 3 16 10v3l-11 2-30 11h-10l-9-3-3 1 6 3 9 2 13-1 32-10q6-2 8 2l-5 3-6 7-11 21-6 5h-2l-10 4q-10 8-15 21v1l15-3 6-3q7-5 10-15l1-2q-11 5-17 13h-2l2-4 8-8h2l7-5q10-10 16-23 6-9 17-12h9l5 3q11 7 15 23v25l8 23 4 20v22l-3 15-19 39-3 11v10l-1 1 1 3v18l-4 8v1l8-2 2-5v-12l-1-1v-20l5-15 3-2-6 17v18l1 1q2 10-1 17l8 1h1l-4-17 1-16 2-1-1 3v13l4 19 9 6q6 1 7-3v-3l-5-13v-8l-1-1 1-6q2 4 1 11l3 9 5 7 3-1-4-13 1-3 5 15 7 3h1l-6-10-3-11v-11l4-11q4-8 14-10l5-7v-5l-8 4q-10 8-16 19h-2l1-12 4-10v-2q-9 8-12 22h-1l2-10 3-6q7-7 11-16l-1-1q-10 10-17 24l-4 12-1 18-2-2v-14l6-19 23-33q-5-1-7-5l1-9 5-3 3 2h-3l-4 6 1 3q0 3 6 3l4-6v-6l-4-7 2-3 1 6h2q-1-15 8-20l-4-2 1-3v2l4 1 1-2-1-1q-4-4-4-11l-1 2-5 4-3-3v-4l-5-13 2-4 1 5 2 1-1-2v-21q2-2 1-6 2-4 8-3l2-2 8-2 13 1 1 2-3-1-2 1-5-1-9 2h16l1 1 12 1 22 11 1 3 2 2-4-3-2 1 6 14 10 6 13 2 5 2h2l-8-16q-5-8-14-10l-2 1 9 13v1l-2-1-9-11-19-16-3-4q7 0 10 4h10l13-3h8l8 2 11-1 4-7v-11q-8 9-19 13h-11l-9-4h-3v-1h7l8 3h6l6-2 13-12 11-5 7 1 9 5 5 1 7-1 11-4 1-2-21-8-8 1-3 2 11 2 2 3-15-3-9 1-5 2h-2l1-5 4-6 18-19 2-1-3 6-2 3 11-4q6-4 9-11l5-19 1-2-21 10q-9 7-11 21l16-15 1 1-5 6-14 14-5 3-10 11h-2q1-7 6-9 2-10-1-15l-3-3h-29l-1-1h-24l-2 1-17 19 18 3h8l1 1 10-1 12-5h4v3l-9 8-16 5h-9l-16-3-13 1q6 7 18 9v2l-3 2-12-1-13-8h-9l-9 4q-14 10-18 31v16l8 34v15l-1 1 1 1 3-5 2-1-2 7-14 20-3 2 7-13 2-9v-9l1-1-2-18-3-8-4-19v-10l2-7v-4l-1 3h-1q1-22 16-30l1 1q-10 8-15 22l1 4 9-18q7-10 20-13l11 1 15 9h2l-18-12 9-3 17 1 8 2q19 2 30-5l1-2-13 4h-11l-20-4h-12l-1-1 9-6 8-9 11-10 18-6 11-7 2-3-15 7-16 3-7 3-26 24q-11 6-24 9l-9 5-12 15h-2v-15l3-16v-8l1-1v-15l-1-1 1-12 11-15 2-5v-4l-6 11-6 6h-2l-5-15-3-17v-18l2-8v-4l-3 6-3 14 1 20 5 22v8l-1 1-6-9-23-25-4-10v-5l2-1 4 13h1v-10l-1-1 1-7 2 11v11l4 5 17 16-5-26 1-20 4-13 5-6 2 1q1 8-2 13v23l6 25h2l7-9 2-11 2-1 3 10q0 8-4 13l-9 13v33l-3 16 1 6v-1l15-11 17-5 8-4 14-13-29-1-3-3 1-39 3-16q6-14 16-23v-8l-2 1-4 5-3 10-8 9-3-2-1-15-2 3v14l-2-2v-10l4-12v-15l1-1-1-12-4-4h-14l-1-1-8 5h-5l4-2 8-8 7-17 7-10 7-5 1 1q-10 7-14 20l1 2 13-6 8-9 5-21zm77 115-8 7q-6 5-8 13v12l2 1q5-8 7-18h1q-1 12-6 20h2q6-6 10-15 3-8 1-19zm-151 16-1 6 3 4q-1 6 2 9v6l-3-12-1-1-1 27-1 2-3 2-23-1-1-1-3 1h-9l-10-4-6-5-4-11-5-6-18-7h-2l1 5 7 12 13 7h1l-5-9-2-4 2 1 16 21-7 2h-39l-1-1h-5l-7 2-4 10 1 3v25l1 1v3l-9-12-9-9-11-3-9 1-8 3 16 14 10 5q6 1 9-1-5-8-15-12v-1l6 1 9 6 5 7 6 16 5 3h1l-6-8 1-2q4 2 1 4h2l1 3h2l1 4 5 2h8l18-9 5 1 1 2h9l-9-6v-1l8 2q2 5 8 6h8l5-7 9-18 2-3-36 10q-18 1-26-7l-4-4 1-3 17 5 14-1 19-8 13-3-1-2q-5-8-16-8l-2-2 7-3 11 1 14 10 5 2h9l11 3 13 9 3-17q2-14-1-22-3-14-11-22l-6-5 3 8v2l-5-10v-3zm166 9q-10 2-15 8l1 1 10-3 4 1-12 4 3 1h11q8-3 12-9zm-177 68-10 6-13 19v2l2-1h28l2 1 1 3v8l1 1v12l-2 11q0 8 4 13l3-7v-4h1v8l-7 19v11q9 15 10 38h-2l-1-1-12-11-23-11 1-2 22 10 1 1-3-6-8-9q-8-4-18-5l-7-4h-2q1 13 8 21l11 8q7 3 19 2l4 2q8 6 9 19h2l9-18-1-12-1-1 1-3 3 12 3-11-3-12 1-2 3 10 1-4v-26q-2-2-1-6l-10-32v-25q-2-10-7-15l-9-8zm84 69q-3 7 2 10l2-1-2-6zm-74 119-1 1h-9l-7 2h-5l-21 5-20 7-7 4q-5 3-7 10l1 7 6 5 13 7 28 8 1 2q-27-3-44-15l-4-2 2 21 3 9 10 6 26 9 25 5 23 1 1 1h30l1-1h15l1-1h8l7-2h5l33-9 12-6 6-8 1-14 1-1v-12q-13 12-32 16h-5l21-8 10-6 7-8-1-9q-7-9-18-13l-24-7-17-2-1-1h-8l-1-1-12 1 1 4 16 3v1l-1-1h-10l-1-1-4 2 3 5 6-2 7 1 10 7 5-2 8 1 1 3 4 3h6l7 2 6 6 1-2-9-8-4-1-1-2 13 6 1 3h2v-2l-10-9-25-7-1-2q20 2 35 10l5 8-1 7-7 6-19 7-27 5-21 1-1 1h-32l-1-1-24-1-28-5-21-8-7-7 1-7q4-6 12-9l8-3 15-3 5 1-1 1-23 6-9 5q-5 1-4 8h2v-1q6-7 17-10l1 1q-10 3-17 11l2 3 17-13q6-1 9 2 11-2 18-10l13 1 1 1q2-1 1-6-1-3-2-1h-16l11-3h6v-5zm-12 24-4 3 1 2 7-3q-1-3-4-2Zm-20 9-3 3h8zm20 1-3 3 1 1 7-1v-2zm78 1-4 3 1 2 9-3q-1-3-6-2Zm-18 3-3 4q5 1 6-1zm-106 45 5 25 10 54q3 11 10 18l3 15q4 5 11 7h7l3-4-3-2v2q-3-1-1-2l-1-1v-1l8 1v-1q-9-2-15-6l1-2 34 6h32l1-1h8l1-1 17-2v2l-7 4 10 8q7 0 12-4l3-3 2-15 8-14 16-77v-5l-26 8-24 3-1 1h-11l-1 1h-52l-1-1h-9l-34-7z"/><path fill="#0b0b08" stroke="#0b0b08" d="m492.5 263 4.5.5q-5.4.1-7.5 3.5l.5-1.5.5-1.5zm6 3 3.5.5-6 4-2.5 6.5-.5-5.5 3.5-4.5zm-9 4 .5 4.5q-2.3 1.2-1 6l-1.5 1.5-.5-5.5zm47 3 .5 5.5-4.5 9.5-1.5-.5zm-49 14q4.4 8.6 4.5 21.5h-1l-4-17zm50 0-.5 1.5q-3.6 1.9-3 8l3 2-1 3q2.3 1.2 1 6h-1l-1.5-7.5-2.5-1.5q-.7-7.7 3.5-10.5zm1 71 .5 6.5-1 1v13l2.5 4.5 5.5 2.5-4.5.5-3.5-2.5-2-6v-6zm-28 5q3.4 2.6 2.5 9.5h-1zm-21 13 .5 2.5-3.5 6.5q-3.7 3.3-12 2v-1q9 .5 12.5-4.5zm133 7h14l1.5 1.5-32.5 1.5v-1h8zm-241 3h11l11.5 3.5-4.5 1.5-8-3h-10l-4.5 2.5-2.5 3.5.5-1.5q-.5-4 2.5-4.5zm136 5 .5 2.5-3 13v10l-1.5 2.5-.5-9.5 3-17zm32 15 2.5.5-8.5 3.5 1-2zm99 5 .5 1.5-5.5 9.5-5 3-7 1-11-3-2 1 2-3q5.3-.8 7 2h10l8.5-7.5zm-152 5q6 5 8.5 13.5l-1.5.5zm-121 3 1.5 1.5 1 8h-1l-2-6zm49 10 4.5 3.5-1.5-.5zm227 1 .5 1.5-6.5 4.5 2-3zm-273 2q2.4 5.6 12 4l9-3-1 2-12 4-6-2-2.5-2.5zm170 0 4.5.5-10.5 4.5-2.5 2.5q-4.2 7.8-3.5 20.5l-1.5-9.5 2-10 4.5-5.5zm-78 1q12.3-1.3 16.5 5.5 3.1 4.4 2 13h-1q.7-10.7-5.5-14.5l-6-2-14.5-.5zm126 0 8 2 13.5.5-1.5 1.5h-12l-8-3zm-89 12 .5 11.5 3 13-2-1q-4-9.2-1.5-23.5Zm7 11 1.5.5-.5 5.5q-2.9-1.4-1-6Zm-19 16 .5 10.5h-1zm17 0 6.5 12.5 2 8 1 15-2.5 12.5-.5-7.5 1-1v-11l-1-1-1-11zm24 3 1.5 1.5 3 14v12l-2.5 4.5-.5-3.5 1-1v-12zm-42 12 .5 1.5-3 8 2 3-2.5.5-1.5-3.5zm3 11 1.5.5q1 6.5-2.5 8.5l-4.5-.5.5-1.5q4 .5 4.5-2.5zm-8 14 .5 4.5 7 19 2 17-1.5 2.5-1.5-13.5-7-22zm42 25 1.5.5 1 4-2-1zm-21 20 .5 2.5-3.5 4.5-.5-1.5zm15 43 .5 5.5-2-1zm-11 17 1.5.5 1 7h-1zm-100 36 12.5 6.5-3.5.5-9.5-5.5zm192 0 2.5.5q-.7 4.3-6.5 3.5l2-3zm-142 7 8 1 2.5 1.5-7.5.5-3.5-1.5zm93 0 5.5.5-15.5 3.5-19 1-3.5-1.5 14.5-.5 1-1h8zm-140 1 5.5 2.5-.5 1.5-5.5-2.5zm1 8 7.5 3.5-2.5.5q-4.6-.8-5-4Zm24 6 1.5.5 1 4-1.5.5-2.5-3.5zm134 0 2.5.5-1 2 1.5.5 3.5-2.5q.8 3.8-1.5 4.5l-6.5-.5zm-145 18 14 5 31.5 5.5-.5 1.5h-7l-21-4-15-5zm159 0 3.5.5-12.5 5.5-13 2 1-2q12.3-1.2 21-6Zm-5 8 3.5.5-.5 1.5q-2.9 2.6-9 2l1-2zm-149 2 14 3 1.5 1.5-4.5.5-8-2zm53 1q7.4-.9 11.5 1.5l-11.5.5zm62 5 2 3 1.5-.5 1.5-2.5 1.5.5q.8 3.8-1.5 4.5-4.5 1-5.5-1.5zm32 0 3.5.5-5.5 2.5-.5-1.5zm-143 3 6.5 1.5-.5 1.5-6.5-1.5zm37 21 3.5 5.5-1.5.5-3.5-4.5zm-4 3 1.5.5.5 3.5 2.5.5-3.5 1.5-2.5-4.5zm-24 7 3.5 2.5-.5 1.5-2.5-.5zm1 22 9.5 3.5-.5 1.5q-6.5 0-9.5-3.5zm123 1 1.5.5-1.5 2.5-5 1-.5-1.5zm-123 6 18.5 6.5-.5 1.5-11-2-7.5-4.5zm124 0q3 1.5 0 3l-6 3h-5v-1zm-95 4 3.5 5.5-1.5.5q-3.8-1.3-2-6Zm5 2 3.5 2.5-.5 1.5-2.5-1.5zm70 17h2l1.5.5-.5 1.5-4.5-.5zm5 3 1.5.5-.5 1.5-4 1-.5-1.5zm-74 6h45l6.5 1.5-47.5.5-4-1zm-2 8h71l8.5 1.5-93.5.5v-1h13z"/><path fill="#fefefe" stroke="#fefefe" d="M.5 0 1024 .5l-.5 1023.5L0 1023.5zM561 200l-28 13q-8 5-11 15l-3 16-2 3-10 6q-15-2-23 3l-6 8q1 4-1 6v10l1 1v15l-4 11-6-13q-4-7-11-10-7-4-10-11l-2-1-2 4q-3 23 6 35l9 8 13 6 7 8v42l-37-1-7-3-11-18-6-5-12-3-8-5q-2-2-3 1 1 15 9 24l7 5 13 6h-49l-5 2-5 8v23l-1-1q-6-9-18-11h-9l-17 5-2 3 9 4 6 8q6 7 17 10l12-1 5 15q4 6 14 8h12l14-5 22 1-9 5-5 5-13 21 3 1 20-4 10-5q9-7 11-21l3-2h30v10l1 1-1 18-1 1q0 10 4 17l-3 14 1 14 5 10 3 11v3l-4-3q-1-7-4-10l-10-10q-6-4-16-4-9-3-13-9l-4 2 1 11 8 18q5 7 15 11 6 2 17 1l4 2 5 8 2 8v10l-3 11v7l-1 1-17 1-28 6-20 7-9 5q-6 5-9 13v13l1 1 1 14 5 18q3 4 10 6l2 5v5l4 15 11 58q3 12 11 21l1 5h-16l-1 2 9 1q6 2 8-1l1 5h-39l-9 2 1 1h36l1-1h11l4 5h-21l-2 2 2 1h29l5 2 7-1 7-8 5-4 9 2h10l1 1 41-1 2 4 8 6q6 2 8-1h26l1-1-7-2h-10l-2 1 6-5h16l1 1 12-1v-1l-8-1-1-1h-19l1-3 15-1 1-1-1-2h-15l1-7q6-6 8-15l5-24v-5l6-22 7-34 6-4 7-10 2-22 1-1v-12l1-1q0-10-5-14l-16-11-19-6-25-5-22-1 3-8q4-6 11-8 9-4 8-18l-2-2-13 5-8 7q6-12 8-28l8-15 1-19 11-15v-8l-5-9q-8-1-9 3l-2-6 1-30h32l16 6 4 5 5 13q5 7 14 10l15 2 8 3h3q-3-15-11-25l-5-6q-7-5-17-5l-3-2 3-2 12-1 1-1h8l8 2q9 1 14-2l5-7 1-17 4-2 6 1 9 5 5 1q16-1 27-9l2-3-26-10q-15-2-21 5h-5l2-4 6-6 14-4 5-3q6-5 10-13l4-17 3-7q1-4-1-5l-26 13-9 9q-5 7-6 19l-2 2q0-8-3-12l-6-5h-41q12-5 20-13h8l1 1q14 1 21-6l7-9-1-2h-7l-7-2h-8l-9 4-3 2 3-5 2-9-1-18-1-2h-2l-11 10q-8 5-10 16l1 18-9 5-15 2-11 8h-32v-30l1-1 1-17 5-12 11-13 1-3q2-10-3-12l-4 1-6 6-2 8-4 6-1-13v-32l-1-2q-4-8-18-6l-1-2 21-11 9-12 4-23 2-4zm51 599-2 2 3 1q3 1 4-1-1-3-5-2Zm-119 4-1 1h-8l-1 2h29l1 1h23l2-1-2-2h-16l-1-1zm29 8-1 1h-49l-3 1 1 2h93l1-1-1-2h-33q-2-3-8-1Z"/><path fill="#fefefe" stroke="#fefefe" d="m556.5 207 .5 3.5-4 17-5.5 7.5-5 4-11 5 .5-1.5 4-11 9-11-1.5.5q-6.9 1.6-9.5 7.5l-4 6-7 17-6.5 7.5-6.5 3.5 3.5 1.5 10-5h12l4 1 2.5 2.5 1 2v21q-2.5 1.5-1 7l-3 7v15l2 1v-13l1.5-2.5q-.9 9.9 3 15 4 .5 4.5-2.5 7.2-6.3 9-18l3.5-3.5 1.5.5q.3 8.3-4.5 11.5l-1.5.5q-8.7 8.3-12 22l-1 18-1 1v33l4.5 2.5 26.5.5-12.5 11.5q-10.7 6.3-25 9l-12 8-.5-6.5 3-13v-15l-1-1v-9l4-16 6-11v-8l-2.5-6.5-3.5 1.5-1 9-5.5 7.5-1.5-.5-5-26v-22l-1-4q2.3-1.2 1-6l-3.5-1.5-4.5 5.5-5 16v23l4 20h-1l-19-21q1.8-13.7-2.5-21.5l-.5 12.5 1 5h-1l-4.5-12.5-1.5.5q-1.2 10.2 3 15l21 24v4l7 20h-1q-2.4-13.6-10-22L475.5 323l-13-6-8.5-7.5-6-13-1-15 7.5 6.5 9.5 7.5 5 14-1.5.5-11-14-1.5.5q4.6 14.9 16.5 22.5l6 3 .5-3.5-1-1v-8l2.5-5.5q1.3 2.3 2.5-.5l1-5v-33l4.5-5.5 2-1h13l8-2 10.5-8.5 3-7 3-14 7.5-10.5zM495 262l-6 4 1 1 7-3v-1zm37 2-2 3 3 1 1 1q0-4-2-5Zm-31 1-6 3-2 2v8h2l1-6 7-5zm-11 5-3 5 1 9 1-1v-5l2-7zm47 2-6 13v4h2l5-11v-5zm-49 13-1 9 4 16h1v-10zm48 2q-5 3-4 13h2l1 2v8h2v-13l-2-1q0-6 4-8zm4 1-3 4 1 2 2-3zm2 33-2 2 1 3 2-1zm-3 36-2 2q2 6-1 8v14l1 2q2 4 8 4l1-2-4-2-3-2zm18 26-2 2 1 1q4 1 5-1-1-3-4-2Zm77.5-61 .5 16.5q-2.6 10.9-10.5 16.5l.5-1.5 4-13v-5l-2 1-6.5 16.5q-2.2-3.7-1.5-10.5 2.9-12.6 12.5-18.5z"/><path fill="#fefefe" stroke="#fefefe" d="m483.5 338 2.5 2.5v3l5.5 11.5 1.5-.5-4-10 3 2q7.8 8.2 12 20l3 12v12l-1 1-2 17-1.5 2.5-3-4-13-7-18-2-16-11q-5.1-2.4-14-1l-5.5 3.5 14.5 5.5 4.5 4.5-.5 1.5q-16.8 2.7-29 10l-14 1-19-4-1.5 2.5q9 13.5 33.5 11.5l25-8 7-1-2.5 3.5-7 15-6.5 8.5-1-1-9.5-.5-2.5-3.5q-2.8-3.7-10-3l1 2 7.5 3.5-.5 1.5-3-1-13-2-10 6-11 3 1-2 2 1q3-1.5 0-3l-2-1-2 1-3-1-.5 2.5 3 1-3.5.5-1-3-2.5-.5-.5-2.5-1.5-.5-.5-1.5-1.5-.5q.5-4-2.5-4.5l-1.5.5 4.5 8.5 1.5.5-.5 1.5-4.5-4.5-5-14-9.5-10.5q-5.4-4.6-15-5l1 2q10.1 2.4 15.5 9.5l1 2-10.5.5-6-3-16.5-15.5 8.5-2.5h11q11.4 2.6 16.5 11.5l7.5 11.5 2.5-.5-2-5v-4l1-1v-12l-1-1v-13l3.5-5.5 2-1h20l1 1h9l1-1h10l4 1q1.5-2.5 7-1l5.5-2.5-1.5-2.5-5.5-4.5-8.5-12.5-5-3-.5 1.5q5.9 4.6 9 12l-1.5-.5q-9.1-1.9-13.5-8.5-4.9-5.1-6-14l2.5 1.5q12.3 1.8 19.5 8.5l6 14 4.5 4.5 9 4 39 1 2.5-1.5 2-8 .5-19.5 3 11 1.5-.5-1-9-2-4q2.5-1.5-1-3zm5.5 38-2 5q-2 6-12 4l-1 2q8 2 12-1 5-2 4-9zm-105 9-7 3q-4 1-3 7h2v-2l8-5q8-1 13 3 5 1 7-1l-12-5zm-8 14-2 2 1 4h1zm0 19q-3 8 2 11h1l-2-9zm48 11q0 3 6 5v-1q-1-5-6-4Zm-46 3v4l6 3h7l9-4v-2l-11 3h-4zm268.5-85 16.5 1.5-3.5 4.5q-5 5-15 5l-4.5-1.5 10-4-7.5-.5-6 2 2-3zm54 8 .5 1.5-5 18-7.5 10.5-12 6 1.5-2.5 4-8-8 7-3.5 4.5-9.5 8.5-6 12 4.5.5q5.8-3.7 17-2l10 3q3.5-2-1-4l-10.5-2.5q4.2-2.8 12.5-1.5l18.5 7.5-13.5 5.5h-9l-13-6h-8l-6 3-16 14q-4.7 2.3-13 1l-10-3h-2l-9 1-3-1-.5 1.5q5.9 2.6 15.5 1.5l11 4h6l10-4 11-9-.5 1.5q2.2 11.2-3.5 14.5l-2 1h-13l-1-1h-14q-7.9 3.6-21 2-2.8-3.7-9-4-3.5 2 1 4 13 7.5 22.5 18.5l9.5 11.5 1.5-.5-9-14 2.5-.5 10.5 6.5 9 17-2.5.5-18-4-8.5-6.5-6-13 1.5.5 5 3-.5-1.5-5.5-6.5-18-9-10-1-1.5-1.5q2.3-1.2-.5-2.5l-5-1-3 1-3-2-10 2-4 3h-4l-3.5 3.5-.5 26.5-2-5q-2.7 1.3-1.5 6.5l6.5 18.5q4.8.8 5.5-2.5l1.5-2.5q-.4 8.9 5.5 11.5l-2.5 1.5-3-4-1.5 2.5 4 3-.5 1.5-4.5 3.5-3 10 1 5-2-1-1.5-5.5q-2.5 1-1.5 5.5l4 8-3.5 8.5q-4.5 1-5.5-1.5l-1-6 1.5-2.5 4.5-.5-1.5-2.5q-6.5-1-7.5 3.5l-1 7 4.5 5.5 3.5 1.5-22 29-6 15-2 16 1.5 7.5 1.5-.5 1-16 5-15q5.9-12.6 15.5-21.5l-.5 1.5v2l-10 13-5 15 1.5.5 6.5-14.5 4.5-5.5-.5 1.5-4 20 2.5 1.5q5.4-10.6 14-18l10-5 .5 1.5q-1.5 6.5-6.5 9.5-8 2.5-12.5 8.5-6.3 8.7-4 26 2.3 10.2 8 17l-2.5.5-4.5-3.5-5.5-14.5-.5 6.5 4 10-3.5.5q-9-11-8-32l-1.5 3.5v14l6 18q-1.2 4.7-8.5 3.5l-6.5-4.5-4-16-.5-21.5-2.5 5.5v17l3 12-3.5.5-3.5-1.5 1-12-1-1-1-19 6-21-3 2q-6.8 11.7-6 31l1 1 1 14-1 5-2.5 3.5-7 2 2.5-3.5 3-8v-8l-1-1v-18l5-18 12.5-22.5h2l8.5-7.5 8-16 10-14 2-7-1.5-.5-4 6-.5-5.5 1-4-1-1v-10l-5-25v-18q2.3-1.3 1-6l5-12 9.5-10.5 11-6 7-1 13 8 9 1 4-1 2.5-2.5-2.5-2.5q-8.1-.9-12.5-5.5 6.4-3.1 17.5-1.5l1 1h19q14-3 21.5-12.5l1-3q-.7-2.2-4.5-1.5-9 7-26 6l-22.5-4.5 16.5-17.5h53l5.5 3.5 1 13-7 10 2.5 1.5 12-13 14.5-12.5 9-11-1.5-.5-16 15 .5-1.5q2-13.5 11.5-19.5zM629 382l-11 2h-9l-5 2 4 1 19-1 1-1q5-1 7 1 3 1 4-1l-1-2zm20 29-5 7q-3 4-8 5-7 1-10-2-7-2-8 2l1 1 3-1 7 3q8 1 13-2l7-9zm2 19-7 6 1 1 5-2 3-4zm-104 2-7 4-5 10q-2 10 2 15l1-15 2-5 4-4 10-4zm50 1 3 3 8 2 10-1v-1l-11-1q-4-3-10-2Zm-60 41q-2 8 1 14l1 19 2-3v-16l-3-12zm3 53-1 3 3 1 2-3zm-8 9q-2 5 1 6h2l-2-5zm-21 20-4 7q-2 1 1 2 3-3 4-8zm14 44-1 6q2 3 3 0l-1-5zm-10 16q-2 6 2 9h1l-2-8zm110.5-256-3 4-9 5-16 5-12 11q-3.2-1.7.5-3.5l-.5-1.5-7 8-13 8 3-4 10.5-9.5 4.5-5.5 11-7 17-3z"/><path fill="#fefefe" stroke="#fefefe" d="m458.5 414 1.5.5.5 1.5 1.5-.5q-9.4 9.1-15 22l-8.5 8.5-9 5-4.5 4.5-3 4v3l4.5-3.5 13-10 .5 1.5-8.5 13.5q-8.2 6.3-22 7l.5-1.5 10.5-16.5 12-6h2l6.5-4.5q7.7-9.3 12-22zm15 0q13.6 1.4 19.5 10.5 6.8 8.7 6 25-2.8 1.8-1 8l4 16 2 16 2 5 1 27h-1l-1.5-3.5-1.5.5 2 3 2 10q-3.3 2.2-3.5 7.5l-2-5-.5 5.5 1 1v10l-8.5 16.5-1.5-.5q-1.1-13.4-10.5-18.5l-4-2h-14q-7.7-2.2-12.5-7.5-7.5-9-10-23l3.5 2.5q6.8 4.7 18 5l11.5 8.5 4 7-1.5-.5-16-8-6-1-.5 1.5 24.5 12.5 14 12 .5-10.5-3-13-6-14-1-9 2-10 5-11 1-10-2-1-1 7-2.5 4.5q-4-6-2.5-17.5l1-1v-24l-3.5-5.5q-6.7-2.3-17-1l-1 1h-12l1.5-2.5q4.5-12 13.5-19.5zm-6.5 19-4 1-1 2h17l5 2 3 7 1 10 2-1v-7l-3-9q-6-7-20-5Zm29 38-2 14h2l1-4q1-7-1-10Zm-1 16-5 8q-1 5 3 6l2-1-2-3 2-7zm3 10-1 5q-1 3-5 2l-1 2 4 2 2-1 3-4-1-5zm-8 14-2 2 1 9 7 22 1 11h2l-1-17zm81.5-95 4.5 2.5-1.5.5zm-14 23 9.5.5-9.5.5zm-1 45 1.5.5 2 8-3-2zm-19 118 23 2 31 7 15 6 9.5 7.5q2.8 2.7 2 9l-4.5 6.5-19 11-14.5 5.5 6.5.5q17.9-4.6 30-15l.5 3.5-1 1-1 19-5.5 9.5-20 9-35 8-18 1-1 1h-48l-1-1h-10l-1-1-12-1-21-5-22-8-8.5-6.5-3-11-2-17 1.5.5 18 10 16 5 13 1-1-2-30-9q-11-4-17.5-12.5v-8l6.5-7.5 7-4 17-6 25-6 22-2 .5 3.5-18 4 .5 1.5 17-1 .5 5.5-3.5.5-1-1h-11q-5.7 7.8-18 9l-7-2-18 13-1.5-1.5 4.5-4.5 12.5-6.5-.5-1.5q-12.5 2-19 10l-.5-1.5 5.5-6.5 8-4 23.5-6.5-.5-1.5q-26.3.2-39.5 13.5l-2 7 5.5 7.5 18 8 29 6 19 1 1 1h48l1-1 17-1 22-4 18-6 10.5-7.5 2-7q-1.6-6.9-7.5-9.5-13.6-8.3-35-9l-.5 1.5 23.5 6.5q7.8 2.3 12.5 7.5l1 3-4.5-3.5-12-5-.5 1.5q9.5 3 15 10l-.5 1.5-7-6-11-1-7-7-6-1q-1.7 2.8-7 2l-10-7h-8l-3 2-2.5-5.5 8.5-.5q1.5 2.5 7 1l.5-1.5-8.5-2.5h-7l-1.5-1.5zm70.5 50-6 4 1 2 4-1q3 0 2-4zm-194 1q3 6 13 8v-1q-5-6-13-7Zm149 6-1 1-16 1-1 1-20 1 1 2h18l17-3 6-2zm-99 1-1 2 9 2 4-1q-4-4-12-3Zm144 0-4 3 1 1q4 1 5-2zm-191 1-1 2 6 3 2-1q-1-5-7-4Zm2 7-1 3 7 3 2-1zm186 0-2 2 1 2 2-1 1-2zm-162 6-2 2q-1 3 3 4l2-1zm135 0-4 6 3 1h2q5 0 5-3l-1-4-3 4-1-3z"/><path fill="#fefefe" stroke="#fefefe" d="m469.5 627 4.5.5-6.5 2.5zm-20 9q4.5-1 5.5 1.5l-2.5.5-3-1zm22 0 4.5 1.5q-1.2 2.8-2.5.5l-4 1-.5-1.5zm79 1 3.5 1.5-8.5 3.5-.5-1.5zm-21 4 3.5 1.5-4.5 1.5-.5-1.5zm-104 45 17 6 28 6 22 1 1 1h33l1-1h16l1-1h8l1-1 18-2 28-9 .5 1.5-17 82-8 13-1 12-5.5 6.5q-4 3-12 2l-6.5-7.5 7-4-.5-1.5-2-1-20 4-33 1-1-1-16-1-22-5q-3.5 2 1 4l12.5 5.5-2.5.5-5-2-.5 3.5 3.5 1.5 2-1-4 5q-10.7-.3-15.5-6.5l-3-15q-6.9-6.6-10-17l-6-28-2-16-2-5zm6.5 6-2 2q18 11 48 11v-1l-3-2-27-4zm161 0-10 4-16 4 1 1q14 0 24-5l2-3zm-8 9-5 2-1 2 9-1 1-2zm-149 1-1 2q6 4 17 4v-1zm53 2 1 3 12-1-1-2zm63 4-2 2 1 4 3 1 4-1 1-3-3-2-1 2h-1zm31 1-2 1 1 2 5-1v-1zm-142 2q-4 2 1 4h6zm36 22q-2 5 2 6h2l-2-4zm-3 2-2 2 1 5h5v-1l-1-1q-3-1-2-4zm-24 8v4h-1l-1 3 3 1 2-6zm1 15-1 2 5 2 2-1q-1-4-6-3Zm125 0-2 1q-3 2 0 3l3-1zm-126 7-1 2q3 4 11 3v-1l-7-4zm123 1-3 1q-5 2-1 4l6-2 1-2zm-122 6-1 3q7 5 20 5v-1zm123 0-11 5 1 2 10-3 2-3zm-95 4-1 2 4 5 2-1-3-5zm6 1-1 3 4 2v-2zm72 17-4 2 2 2 3-1zm1 4-2 1-1 2h6l1-2z"/><path fill="#bab366" stroke="#bab366" d="m532.5 213-6 7zm20 23-4 5zm-60 17 11.5.5-11.5.5zm-9 3-3 4zm8 2 11.5.5-11.5.5zm20 3 1.5.5-2 1 3 1-2.5.5q-3-1.5 0-3Zm32 5 .5 8.5h-1zm-61 2 .5 11.5h-1zm-5 1 .5 10.5h-1zm59 3 1.5.5-.5 5.5zm-87 5 6 7zm98 1 .5 13.5h-1zm-33 3 3.5 1.5-.5 5.5-1-6q-4.5-.5-5 3zm21 6 2 1q1.3-2.2 2.5.5l-2.5 5.5v-3l1.5-.5-3.5-2.5-1.5.5zm25 0-5 6zm-47 1 .5 3.5q-3.5 1.5-1 3l-1 5v18l3 17 4.5 15.5h2l6.5-6.5 2.5-3.5 1.5-.5-.5-1.5 1.5.5-12 18-1 12 1 1v15l-1 1v8l-3 16v15l1.5.5 12-15q10.4-7.1 25-10l10-6 2 1q8.3-3.2 13.5-9.5l4.5-5.5.5 1.5q-4 2 0 4l-8.5 8.5-8.5 5.5.5 1.5h12l20 4h11l13-4-1 2q-10.1 7.4-30 5l-8-2-17-1-8.5 2.5 12 9q-1.7 3.3-3.5-.5l-11-6h-8q-12.6 3.4-19.5 12.5l-10 19-2 10v10l4 19 3 8 2 18-1 1v9l-2 9-6 12 2-1 4.5-6.5-.5 1.5q-4.2 13.8-14.5 21.5l-2 1-2.5-.5q5.7-8.8 8-21-1.5-5.5 1-7v-22l-4-20-8-23v-25q-3.8-15.2-15.5-22.5l-5-3h-9q-9.6 2.9-15 10l2.5-3.5-1-1-.5-1.5-3 2 2-3 5.5-3.5q-1.7-3.2-8.5-1.5l-32 10-13 1-9-2-5.5-3.5 2.5-.5 9 3h10l30-11 11.5-2.5-.5-2.5-10.5-8.5-.5-1.5-1.5.5.5-1.5 5 1 15 11 8 2h8l6 2q7.8 3.3 12.5 9.5l4.5 5.5 1.5-1.5 3-17 1-25-1-4 1-3h-1l-.5 1.5-.5-1.5 1-3h-2l1-3h-1l-.5 1.5-.5-1.5 1-3-5-14 4 3 5.5 9.5 1.5-1.5v-8l-5-22-1-20 3-14zm-2.5 75 1 10h1q1-7-2-10Zm7 28-2 2-3 17 1 9 1-2v-10l3-13zm32 15-5 2-1 2 8-3zm-15 8q-12 8-16 23l1 7q3-20 16-29zm-37 3-1 2q5 4 7 11h1q-2-8-7-13Zm10 28q-3 14 1 24l2 1-3-13zm7 11q-2 5 1 6v-5zm-2 16 5 17 1 11 1 1v11l-1 1 1 7 2-12-1-15-2-8z"/><path fill="#bab366" stroke="#bab366" d="m516.5 290 1.5 2.5v22q2.8 1.8 1 8l4.5 18.5 3-2-4 5-1.5-.5-6-25v-23zm18 3 1 3 1.5.5-.5 1.5-2.5-1.5zm13 0 .5 13.5 1 1-1.5.5zm-88 8 4 5zm20 1 1 2 1.5-.5-1.5 1.5-2.5-.5zm84 2-4 5zm-103 3 4 5zm93 0 2.5.5q-2 4.5-4 1zm82 8 3.5 1.5-.5 1.5-1-2-4 2zm-1 6 1.5.5-.5 15.5-1-15-2.5 1.5zm-159 2 6 7zm149 2-4 5zm-152 1 5 6zm15 3 3 4zm6 1 14 15zm56 6 .5 6.5h-1zm-71 2 .5 35.5h-1zm137 2 .5 8.5h-1zm31 3 8.5.5-8.5.5zm-102 1 .5 16.5h-1zm125 2 .5 1.5-4 3zm-34 1 2.5.5-3 1-1.5 2.5.5-1.5zm-152 2 1.5.5-1 2-.5 19.5zm47 0 .5 2.5-3 7-1 15 1 1v15l-3 13v7l-3.5 4.5-.5-6.5 3-16v-33zm97 3-3 4-1.5-.5 1.5-2.5q1.5 2.5 3-1Zm-216 4 1 2 1.5-.5-1 1 1.5 2.5-3.5-3.5zm227 0 5.5 1.5-3.5.5zm-9 1 .5 1.5-4.5 3.5-1-2 1.5.5.5-1.5zm-91 8 .5 13.5h-1zm10 0 .5 6.5h-1zm132 0-4 5zm-253 5 4 5zm259 0 1.5.5-5.5 6.5 4.5-5.5zm-2 1-14 15-.5-2.5.5-1.5 1 2zm-242 3 22.5.5-22.5.5zm107 0 30.5.5-30.5.5zm106 1 4.5 3.5-3.5-2.5zm-269 1 35.5.5-35.5.5zm212 2 24.5.5-24.5.5zm-50 1 27.5.5-27.5.5zm48 0-6 7zm-201 2 9.5.5-9.5.5zm283 0 .5 2.5-4.5 4.5-1-1-4.5 3.5zm-100 1-9 10zm-22 1q3.8-.7 4.5 1.5-1 2.5-5.5 1.5v-1l4.5-.5q-4.4.4-3.5-1.5Zm81 0q3 1.5 0 3l-3.5-.5 4-1zm-254 2 8.5.5-8.5.5zm91 0 5.5.5-6.5 1.5zm133 1 8.5.5-8.5.5zm70 2v3l-2.5-.5zm-90 1-6 8 2.5.5-3.5.5-.5-1.5zm82 3-8 9zm-40 3q3.8-.7 4.5 1.5l-.5 1.5-1-2q-4 .8-3-1Zm33 0-7 8zm-6 1-3 4zm-321 1 9.5.5-9.5.5zm29 2 .5 10.5h-1zm11 0-.5 1.5-.5 4.5-.5-4.5zm257 0-5 6zm-263 2 .5 12.5h-1zm-10 3 3 4zm-5 1 6 7zm-26 1 11 12zm242 3h12l7.5 1.5q-9.9-.9-16 2l.5 1.5zm-172 1 17.5 2.5-9.5.5-8-2zm287 0q4.5 2 1 4zm-135 4 9.5.5q-16.5 3.5-25 15l-7 15q1.3 4.7-1 6v18l1 1 1 12h-1l-4-17v-16q3.8-20.2 17.5-30.5zm-69 1 5.5 3.5-2.5-1.5q-3.8-.2-3-2Zm180 5 .5 10.5h-1zm-312 2 6.5.5-6.5.5zm304 1-3 4zm3 0 .5 8.5h-1zm-9 1-3 4zm-299 2 7.5.5-7.5.5zm266 2 1.5.5-2 1 4 1-9.5.5-.5-1.5zm-188 1 3.5 4.5h-1l-.5-1.5-1.5.5 1-1zm-57 2 3.5 2.5-2.5-1.5-2.5 1.5zm260 0 6.5.5-6.5.5zm0 3 6.5.5-6.5.5zm-167 1 14.5.5-14.5.5zm130 1 2.5.5-3 1 1.5 2.5q-4.5-2-1-4Zm-178 1 5.5 1.5-5.5.5zm161 0 1.5 1.5-.5 2.5-3.5-.5 3-2zm32 0 6.5.5-6.5.5zm-237 1q1.8 3.1 3.5 1.5l-1.5 1.5zm60 1 6.5.5-6.5.5zm15 0-5 6q-3-1.5 0-3l1 1zm18 0 13.5.5-13.5.5zm178 0 6.5.5-6.5.5zm-260 1 3.5 1.5 1 2-3.5 1.5v-1l1.5-.5-1.5-2.5-1 2zm221 0 10.5.5-10.5.5zm-214 1 1 3 1.5.5-1.5.5-2.5-1.5 2-1zm22 2 13.5.5-13.5.5zm231 1 8.5.5-8.5.5zm-158 1 .5 6.5h-1zm66 0 27.5.5-27.5.5zm-71 1 .5 8.5h-1zm11 0 .5 7.5-2 1zm-71 4-4 5zm80 0 .5 7.5h-1zm-69 1-4 5zm180 0 5 6zm-12 1 3 4zm32 2 5 6zm-20 1 1 3 1.5.5-1.5.5-1.5-1.5zm-171 7-5 6zm40 0 .5 6.5h-1zm10 1 1.5.5-1 3 .5 1.5-1.5-.5zm123 6 3 4zm-115 4 .5 7.5h-1zm6 1 3.5 8.5 4 18v26l-1.5 4.5-2-8-1 2-.5-1.5 2-2v-19l-5-23zm-13 2q3 1.5 1.5 7.5h-1q.5-6-.5-7.5Zm59 0 1 6 3.5-2.5-4.5 3.5zm-10 14 .5 12.5h-1zm-46 5 2.5 4.5-2.5 1.5v-1l1.5-.5zm61 6-3 4zm-57 1-2 3-3 1-.5-1.5q4.3.3 5.5-2.5Zm-59 6-.5 1.5-.5 5.5-.5-5.5zm2 0 3 4zm50 3-.5 1.5-.5 5.5-.5-5.5zm63 0 .5 13.5h-1zm-46 21 1.5 2.5-3.5 11.5-1.5-6.5zm28 2 3 4zm-51 7q2.2 4.2 4.5 2.5l-.5 1.5zm-17 5 11.5.5-11.5.5zm17 0 6 7zm13 1 .5 7.5h-1zm6 26v3l-2.5-.5zm50 0-3 4zm-12 8-4 5zm3 3-3 4zm-15 1 1 3 1.5-.5.5-1.5.5 1.5-2.5 1.5q-2.5-1-1-4Zm-34 10 .5 11.5h-1zm25 1 .5 9.5h-1l-1-6zm-15 1 .5 13.5h-1zm37 0 8.5.5-8.5.5zm-15 5 .5 3.5q-1.5 3-3 0h2zm-59 8 7.5 1.5-7.5.5zm17 0q2.8 1.3 1.5 6.5l-2 1q2.3-1.2 1-6zm6 2 .5 8.5h-1zm8 2 .5 7.5h-1zm-89 3-4 5zm58 0-4 5zm-55 4-4 5zm10 1-3 4zm155 1 3 4zm-28 2 1 2 1-2 .5 1.5q-1.5 3-3 0zm45 4 5.5 4.5-2-3 3 2-1.5 2.5zm-193 6 .5 7.5h-1zm18 1 3 4zm186 0-3 4zm-198 1 5 6zm145 0 2.5 1.5q-.7 2.3-4.5 1.5v-1l3.5-.5zm-20 4q3 1.5 0 3l-2.5-.5 3-1zm84 5 .5 6.5h-1zm-127 9 8.5.5-8.5.5zm42 0 6.5.5-6.5.5zm76 5 2.5 1.5-3.5 2.5v-1l2.5-1.5zm-74 2 6.5.5-6.5.5zm4 2 6.5.5-6.5.5zm-91 9 1.5.5-2 1-1.5 2.5.5-1.5zm136 1 1.5 3.5h-1l-.5-2.5-1.5.5zm-174 1 4 5zm207 1-3 4zm-184 16 1 4q-4.5-2-1-4Zm105 1 6.5.5-6.5.5zm-40 1 30.5.5-30.5.5zm41 4 6.5.5-6.5.5zm-44 1 33.5.5-33.5.5zm-5 5 1 2 6.5.5-6.5.5zm63 4 2 3 1.5.5-1.5.5-2-3-1 3-.5-2.5zm-103 39 3.5.5-3 1 .5 1.5 1.5.5-1.5.5q-2.5-1-1-4Zm2 11 3.5.5-3 1 .5 1.5zm31 20q1.8 3.1 3.5 1.5l-2.5 3.5-2.5-1.5 1.5.5 1.5-.5zm86 7 2.5.5-1.5 2.5-2.5-.5 3-1zm-11 5 .5 1.5-3.5 2.5v-1l2.5-1.5zm24 1h14l1.5 1.5-1.5 1.5h-10v-1l10.5-.5-14.5-.5zm-142 2 7.5.5-7.5.5zm84 0 6.5.5-6.5.5zm28 1-.5 1.5 2.5 3.5-3.5-3.5zm23 1 .5 1.5-4 3zm-105 2 4.5 1.5-1.5 1.5-3.5-1.5zm110 0 1 1 18.5.5-19.5.5zm-49 1 15.5.5-15.5.5zm-25 1 16.5.5-16.5.5zm107 0q4.5-1 5.5 1.5-.7 2.3-4.5 1.5v-1l3.5-.5-4.5-.5-1.5.5zm-198 1 23.5.5-23.5.5zm36 0 4.5 5.5h-1zm24 0-3 4zm104 0 4.5.5q-5.9-.4-7.5 3.5zm17 1 8.5.5-8.5.5zm-46 1 5 6zm-56 1 26.5.5-26.5.5zm-9 1 5.5 1.5-5.5.5zm89 0 1 1 10.5.5-10.5.5-2.5-.5zm-141 1 10.5.5-10.5.5zm81 1 23.5.5-23.5.5zm-81 1 27.5.5-27.5.5zm124 1 7.5.5-7.5.5zm-34 3 7.5.5-7.5.5zm-50 1 11.5.5-11.5.5z"/><path fill="#bab366" stroke="#bab366" d="M555.5 812q6.8-1.8 8.5 1.5l-1.5 1.5h-93l-1-2 1 1h93v-1h-7z"/></svg>