<svg xmlns="http://www.w3.org/2000/svg" viewBox="0 0 1024 1024"><path fill="#141310" stroke="#141310" d="m263.5 152 6.5 3.5 1.5 2.5 1.5.5.5 1.5 5.5 3.5 8.5 11.5 2.5 1.5-.5 1.5 5.5 4.5 19.5 26.5 4.5 3.5 36.5 42.5.5-1.5-35-50 3-2 .5 2.5 4.5 3.5 1 2-.5 1.5 4.5 3.5-1 3 2.5.5 4.5 3.5.5 1.5 1.5.5 16 22 .5 3.5 3.5 2.5 19 28-2 1 3.5 1.5 2.5.5 22 24 1.5 4.5 1-2 8.5 6.5.5 1.5 3.5 2.5.5 1.5 10.5 5.5.5 1.5 4.5 1.5.5 1.5 19 9 8.5 7.5 9.5 11.5 1.5.5 1.5 2.5 25 19 14 5h2l12.5 2.5.5 1.5q21.5-10 34.5-28.5l27.5-37.5 2.5-.5 2.5-6.5 2.5-1.5-1-2 22.5-32.5 1.5-.5 20.5-22.5 4 1-1.5-2.5.5-1.5 1.5-.5.5-1.5 65.5-55.5 3.5-4.5 3 2 .5-1.5-2-1 1.5-2.5 2.5-.5v-3l10.5-11.5 1.5-.5.5-1.5 2.5-1.5 2.5-3.5 1.5-.5 6.5-7.5 4-1 2.5 3.5-2 1-4.5 6.5-1.5.5-2.5 4.5-4.5 3.5.5 1.5 18-12 3-1 4 1 1.5-.5.5 1.5 3-1 3 1 7 3 .5-2.5-1-3 1.5-.5.5 1.5-.5 1.5 1.5-.5 2-3-6-2 2-1 .5-1.5 4.5 2.5.5 2.5 2.5.5 2.5 5.5 2.5 1.5 9.5 13.5 3.5 2.5 6.5 8.5 1.5.5.5 1.5 6.5 4.5.5 1.5 16.5 13.5.5 1.5 1.5.5 6 9v4l-2 5q4.1 2.9 3 11l5 7q-1.9 9.1-8.5 13.5l-2.5 1.5-1.5 3.5-5.5 3.5-2.5 4.5-1.5.5-1.5 3.5-8.5 6.5-3.5 5.5-5 3-1-3-.5 2.5-.5 1.5-5.5 3.5-.5 1.5-22.5 16.5.5 1.5 15.5-9.5 1.5-2.5 1.5.5-.5 1.5 1.5-.5.5-2.5 2 1 1-2 .5 1.5-16.5 13.5-1-3-1.5.5 1 3-7.5 4.5-4-2-.5 1.5 5 2-2.5 1.5h-2l-3-1-3.5 1.5-.5 2.5-1.5.5.5 1.5-1.5.5 2.5.5 1.5-.5.5-2.5 1.5 2.5-2 1-2.5 3.5-5.5 2.5-8.5 9.5-1.5.5-3.5 4.5-4 3-.5-1.5 1.5-2.5 2.5-1.5-.5-1.5-5.5 3.5-.5 1.5-1.5.5-2 3 2.5.5 1-2 1.5.5-38 51-16.5 18.5-1.5.5-1.5 2.5-14.5 12.5-.5 1.5-24.5 21.5-11 18-1 9 2 19 8 15-.5 1.5 37.5 29.5q20 21 32 50l1 3 4 8-.5 1.5 2.5 1.5 1.5 3.5 1.5.5 20 28-.5 1.5 2-1 21.5 24.5-.5 1.5 5.5 2.5.5 1.5 5.5 4.5.5 2.5 1.5-.5-1 3 1.5.5 1-2 1 2 1.5.5 2.5 4.5 1.5.5.5 2.5 2-1 1 2 7.5 6.5.5 2.5 6.5 3.5-.5 1.5 16.5 9.5 1 3 .5 2.5 1-4q13.5 5 21.5 15.5l.5 3.5 1.5.5-1.5 2.5-2.5-1.5 2 6-1.5 4.5-2.5-.5-.5-2.5-2.5 1.5.5 1.5-1.5.5 1 2-3 2-1 8 2-1 5.5-8.5 3-1 1 2 5-2 1 2 1.5.5.5 2.5 2.5.5v2q0 7.5-4.5 10.5l-2.5.5 1 2-6.5 8.5-2.5 1.5-7 9 9.5-8.5 9-6 2.5 1.5-15.5 19.5-17.5 13.5 1 1-9.5 9.5-11.5 10.5-2.5 3.5-1.5.5-13.5 14.5-7 1-.5-2.5 3.5-5.5 4.5-2.5 6-7-1.5-.5-22.5 13.5-2.5 3.5-5.5-.5-1-2 1.5-2.5 3.5-.5 1.5-2.5 1.5-.5-2.5-3.5-3-1-1 3-1.5.5 1 2h-1l-.5-1.5-4 2-2.5-1.5-2.5-4.5-5 1-3-4-1.5-.5-8.5-12.5-1.5-.5-.5-1.5-3.5-2.5-6.5-10.5-2.5-.5-22.5-29.5-2.5-1.5-5.5-8.5-19.5-15.5-.5-1.5-3-1-8.5-5.5-.5-2.5-1 2-2.5-3.5.5-1.5-1.5.5-.5 1.5-16.5-13.5-15-18-24-42-17.5-19.5-22.5-14.5-.5-1.5-3.5-1.5-.5-1.5-17.5-10.5-.5-1.5-3-1-19-2-6.5 2.5-12 18-38.5 39.5-3.5 2.5-.5 1.5-2-1v2l-2.5 1.5-5.5 6.5-2.5 1.5-1.5 2.5-1.5.5-.5 1.5-1.5.5-.5 1.5-6 5-2-1v2l-2.5.5 1 2-10 8-.5 1.5-1.5-.5-5.5 6.5-1.5.5-21.5 25.5-3.5 2.5-2.5 3.5-13.5 10.5-.5 1.5-4.5 2.5-.5 1.5-1-2-4.5.5 4 2-6.5 5.5-.5-1.5 3-1-4.5-1.5-2.5 1.5 1 2-1.5.5-1.5-1.5 5.5-5.5 1.5-.5.5-1.5 10.5-8.5 1.5-2.5 19.5-17.5 7.5-9.5 1.5-.5 2-3-1.5-.5-2.5 1.5-1.5 2.5-29.5 23.5-22 27 3.5-2.5 2-1 1 2 2-1-.5 1.5 1 2-5 4-3.5 4.5-10 8-2-1-.5 1.5 1 1-4 4-.5 1.5-9.5 8.5q-12.9 11.6-20 29l-8.5 8.5-3.5-.5-1-3 7-10-2.5 1.5-14 10h-4l-2.5-.5-.5-2.5-7-2-1 3-1-2-1 2-1.5.5 1 2-.5 1.5 2.5 1.5-1 2 1 3-3-2-.5-2.5-1 2-22-11-8.5-8.5-6.5-10.5-1.5-.5-25.5-30.5-12.5-11.5-3-7 1.5-.5 4 2 2-1 8 10 21 16-11-12-1.5-.5-1.5-2.5-10.5-7.5-2-3 1.5-2.5 1.5-.5-.5-2.5-1.5-.5 2-1-.5-1.5-1.5-.5 1.5-2.5 1.5-.5-1.5-3.5-2.5 1.5-.5 1.5-1.5-5.5 3-13-2 1-3.5 4.5-1.5.5-.5 1.5-3 1-3.5-1.5 10.5-14.5 2 1 2-4 1.5.5 4.5-6.5 16.5-13.5.5-1.5 1.5-.5 2.5-3.5 4.5-3.5.5-1.5 2.5-1.5 3.5-4.5 19.5-13.5.5-1.5 17-12 2 1 7-9 4.5-1.5 3.5-5.5 3-2 1 2 1.5-.5-1-2 5-4 .5 1.5 1.5-.5.5-1.5 2.5-1.5 1.5-4.5 1.5-.5.5-1.5 24.5-19.5 1.5-2.5 1.5-.5 19.5-25.5 1.5-.5v-2l23.5-30.5 2.5-1.5 6.5-8.5 2.5-.5v-2l14-20 3-12v-13l-6-21 .5-1.5-2.5-1.5-.5-2.5-1.5-.5-5-10-23.5-28.5-1.5-.5-4-5 1-3-1.5-.5q-1.7 2.8-3.5-1.5l-5-8 1-2-1.5-.5q-1.8 2.8-3.5-1.5l-12-17 1-2-13-12 1-2-1.5-.5-3-1Q284 381.5 267 363.5l-1.5-2.5-1.5-.5-.5-1.5-2.5-1.5-3.5-4.5-21.5-18.5-1.5-2.5-16.5-12.5-.5-1.5-5.5-4.5-.5-1.5-8.5-6.5-20.5-23.5-7.5-4.5.5-3.5 4-1 16.5 12.5.5 1.5 1.5.5 14.5 17.5q32.6 24.4 60.5 53.5l.5 1.5 5.5 4.5.5 1.5 2.5-.5-39.5-41.5-30.5-24.5-.5-1.5-12.5-11.5-13.5-16.5-1.5-.5-4.5-9.5-1.5-.5-1-5 4.5-2.5 7 8 .5-1.5-5-9v-4l2-1-.5-2.5-17 14-1-2-1.5-.5v-3l9-11q-6-3 0-6l1.5-2.5 1.5.5 3.5-5.5 1.5-.5 5.5-6.5 3.5-.5.5-1.5 1.5-.5-1-3 5.5-6.5 2 1-.5-1.5.5-1.5 1.5-.5-.5-1.5 6-2 1 2 9.5-10.5-1.5-.5-4.5 3.5-.5 1.5-1.5-.5 15.5-19.5 1.5-.5.5-1.5 15-12 8-3q3.5 1 2.5 6.5l-10 12 1.5.5 8-6h5l10.5-6.5-7-12zm14.5 25v4l7 6zm-13 9-28 22-14 16h-1l-1 2h-1l-3 5h-1l-1 2-5 4-1 2-11 9 20 25 6 4 3 5h2l9 11h2l35 44 3 1 3 5 42 34 4 5-1 1 2 4v-4l9 6v2l3 1 1 3h2l12 16h2l9 15h2l5 12h2l11 21 16 10q8 5 11 16l2 17 3 4q1 7-3 9l-1 26-3 11-14 23-9 8-1 2-4 2-3 4-12 9-15 22h-1l-3 6-2 1q-11 23-28 38l-1-1-2-1 1 4h-1l-1 2h-1l-1 2-12 8-1 2-27 22-4 1-1 2-3 2h-2l-1 2-3 2-48 55-4 2-1 2-3-1-1-3-5 7 15 18 11 5 1 3 2-1 3 2 2 5 1-2 2 1 3 5 20 14-1 2 12 4 6-8 2-1 4-7 10-9v-1l2-1v-1l4-3v-1l2-1v-1l3-2 1-2 2-1 23-29 4-2 11-14 12-9v-1l20-15v-1q41-24 75-55v-1l2-1 7-9 2-1 16-25 9-7 17-6 16-11h7l1 3h7l22 10h4l21 14v2h2v2h2v2l4 1v2l23 15 6 7 14 22-1-1-1 2h3q11 28 30 49l22 15 1 3 2-1 5 3 2 4 2-1 14 8v2l7 3 1 3 6 3 1 3 6 4 11 13 19 28 1 3h2l5 8 5 3 18-21 28-25 4-5 4-13-1-4-20-19-23-13 1-2-1-1-1 2-6-4-5-5q-15-7-24-19-18-15-29-35l-1-1-23-32-12-28 1-2-1-1-7-13v-2l-1-1-11-16-1-7-1 2-2-2-25-20-13-17-8-17 1-18-1-2 5-22 9-13 13-10 1-2 2-1 22-25 3-1 2-6 2-1 17-32 3-1-2-1 12-22 5-3-1-2 11-15 21-17 1-3 41-31v-1l7-4v-1l4-3 6-7 2-1 25-32-4-6 1-2-3-1v-2l-2 1-30-23-1-1-21-20-4 5h-1l-3 5h-1l-1 2-29 26-5 6-7 6h-3l-1 2-27 21-2-1-2 3-33 26-1 2h-1l-7 9-3 2-11 16h-2v2l-21 35h-1l-14 22h-1l-1 2-2 1-2 3-34 24-8 2-11-1-16 3-12-4-4 1-12-9-1-1-5-4-10-10 2-1-2-1-11-15-1-1-1-3-2-1-2-3h-1l-33-19-2-2h-1l-2-1-1-2h-1l-11-8-1-1-1-1-9-9-6-6-10-11-1-1-1-1-3-3-1-1-1-1q-17-15-29-34l3-1v-1l-4 1-2-4-1-1-21-24-1-1-1-1-22-20-9-9-4-3zm457 16-5 5-1-1-2 1 1 2-30 25-1 2-10 8-2 3 35-26 3-4 3-2 10-12zm-516 1-2 1-2 5h-1l-4 6h2v-1l2-1 6-9zm576 115-23 17q-19 14-30 36l2 1-1-2 3-4 4-3-1 2h2l1-2-2-1 1-2 45-41zm-23 31-4 3-1 2h-1l-2 4h3l-1-1 6-4zm-476 17-1 2 11 8h1zm212 23q1 4 8 5v-1zm-97 109v4l-1 5 1 6v2l2 4 1-2q3-15-3-19Zm228 14-2 3 2 5v-4l1-3zm-37 143v4l15 17 12 11-7-13zm169 38-1 2h2l1 3 16 13h1zm-533 30-2 3-11 8-22 27h2l11-13 8-7 5-7 7-6 2-3zm412 12-1 3v1l2-1 3 2v-1l-2-2-1-1zm70 52-1 2h2v2l14 12 6 6-1-3-12-12-1-1-1-1-2-2zm-387 7-6 7-10 9-14 16-2 1-9 12h2l30-33 2-1 7-9zm-104 39 8 14 4 3-1 4h2v-1l1-3 4 3h1l-6-8zm26 2 1 5q4 8 15 9l4 6 5-4-6-2-8-6-2-2z"/><path fill="#141310" stroke="#141310" d="m301.5 177 2.5 1.5.5 2.5 3.5 1.5.5 2.5 1-2 1.5 2.5-2 1 6 3 7 11q-2.5 5-5 0l-5-8 1-3-1.5-.5v2l-1.5-.5-7.5-9.5-1.5-.5 1-2h-2zm520 124 .5 1.5-4.5 3.5 1-4 2 1zm-340 30 1.5.5.5 1.5 2.5 1.5-1 2 1.5.5h2l1.5.5.5 1.5 18 11 16 4 9-2 16-10 1.5.5.5-1.5 1.5-.5 1.5-2.5 3-1-.5 1.5-2 8-6.5 7.5-13 7-2-1-11 3-18-5-10.5-8.5-.5-2.5-2 1-1-2-6.5-5.5-2-3 2-1-3-1 2-1-3-1zm146 36 5.5 1.5-14 11-.5 1.5-3 2-2-1-.5 1.5 2 1-22 30-9.5 9.5-42 29q-6.9 5.1-21 3-13.5-2-22.5-8.5l-.5-1.5q-22.8-5.2-34.5-21.5L448.5 408l-2.5-1.5-5-9 2.5-1.5 11.5 7.5 23.5 25.5 15 9 19 4 4-1 2 1 19-5 24.5-13.5 4.5-5.5 14-9-.5 1.5-9 12 1.5.5 9.5-8.5 32.5-40.5zM542 442l-17 5 1 2q12 0 18-6zm-168.5-49 4.5 2.5 8 14-.5 1.5 3-1 18 20 1-2 26.5 22.5 29 43 4 14 1 18-2 9-11.5 21.5-5.5 3.5-26.5 39.5q-17.9 11.1-31.5 26.5L377.5 642l-3.5-.5v-6l5-7 20.5-21.5 18.5-14.5 21-30-4-2q11-13.5 16-33v-2l-2-23-4-13-8-17-9.5-12.5-12.5-11.5.5-1.5 6 1-1-2q-18.9-11.1-32.5-27.5l-2.5-3.5-5.5-4.5 1-3-1.5-.5-1.5.5-4-9-1-3zM459 503v7l-1 18 1 6 2-8q1-14-2-23Z"/><path fill="#141310" stroke="#141310" d="M556.5 405h2l1.5.5-3.5 4.5-19 14-14 2-6-2h-2l-3.5-1.5.5-3.5 7-1 2 1 2-1 4 1 6-1zm68 15 2.5 1.5 1 4-14.5 17.5-16.5 14.5-15 29q-4.2 15.8-3 37l11 24 42.5 47.5 1.5.5.5 1.5 13.5 10.5 8 14-1.5.5-9.5-8.5-.5-1.5-1.5.5 1-2-1.5-.5-1.5.5-1.5-3.5-1.5.5.5 1.5h-2l-5.5-1.5-5.5-7.5-5.5-4.5-.5-2.5-1 2-36.5-35.5q-11.5-11-17-28l-1-20q2.7-19.8 11.5-33.5l1.5-.5q9-23.5 27.5-37.5l9.5-7.5zm-285 47 .5 1.5-.5 1.5 1.5.5-.5 1.5 1.5-.5.5-3.5 2 3 2.5 1.5 11.5 17.5 6.5 2.5q9.9 12.1 9 35-2.2 14.8-11.5 22.5l-5.5 4.5-.5 2.5-2.5 1.5-1.5 2.5-8 4-1.5-4.5q14.1-16.9 19-43l-4-16-21-32zm335 4 4.5 2.5-2 1-11 21v13l4.5 12.5 2.5.5 4 8-2.5 3.5-3 1-9.5-8.5-3.5-5.5-1.5-.5q-4.8-6.2-3-19l4-10v-2q3.1-10.5 11.5-15.5z"/><path fill="#141310" stroke="#141310" d="m603.5 473 1.5.5-5 18v2l1 4-1 2 3 2v17l4 14 13 18-1.5-.5-2-1-3-1-1.5-.5-.5-1.5-5.5-4.5-10-19-2-31q1.7-12.3 9.5-18.5Zm-185 6 8.5 6.5 5 8 2 10-2 1 3 2 1 24-4.5 13.5-1.5-.5 1.5-6.5 1.5-.5-2-4 1-4-7-34-7-13zm99 83 4 1h2q8-1.5 9.5 3.5l-2 4 2.5 2.5q9.6-1.1 15 2l26 19 21 11 8.5 8.5 14 19-2 1 3 2 1 4-1.5.5-3-4-5.5-4.5-1.5-2.5-1.5-.5-15.5-17.5-17-8-41-29-11-1-37 17-12.5 10.5q-11.1 21.9-28.5 37.5l-2.5.5-1.5 3.5-1.5.5-2.5 4.5-1.5.5-2.5 3.5q-6.3 7.7-17 11v-1l15.5-14.5 2-4-2.5 1.5-1.5.5-.5 1.5-6 1-.5-3.5 21-18 1.5-2.5 1.5-.5 2.5-3.5 3.5-2.5 20-31 8.5-8.5q12.6-13.4 37-15Zm-8.5 8-17 8 1 1 18-8z"/><path fill="#141310" stroke="#141310" d="m514.5 589 15 1 6.5 3.5-2.5.5-26 4-27 16-.5-1.5 11.5-13.5q8.5-8 23-10Zm5 62 3 1h2l7.5 1.5.5 1.5 1-2 11 6h2l3.5 1.5.5 2.5q1.7-2.7 3.5 1.5l-1 3h1l.5-1.5 3.5 1.5 1 3-1 2v4l-.5 1.5h-2l-8-3-17-12h-6q-21 1.5-31.5 13.5l-4.5 6.5-4.5-1.5 8-16 4.5-4.5 16-8 1 2z"/><path fill="#fefdf5" stroke="#fefdf5" d="M.5 0 1024 .5l-.5 1023.5L0 1023.5zM264 151l-2 1-2 4 7 10-5 4-4-1-2 3-10 5-2 1 10-12-1-4-3-3-25 18-16 19-4 3-1 2-2 1-10 14h-1l-8 9h-1l-10 11 2 4-9 12 3 4 7-3v-1l2-1v-1l7-6-1 2 3 8v1l-6-4-4 5 10 17 4 2v2l3 1 5 8v1l-2-2-17-13-3 1-2 5 9 5 3 5 3 1 14 18 3 1v2l12 9v2l23 17 1 3 13 10v2l4 1v2l20 19 33 24v2h2v2l4 2 42 58 3 1 3 6 5 3q13 14 17 38v2l2 4-3-1-1 2h-1l-3 7-4 4 1 1h-1l-3 4h-2l1-3q2-25-8-38l-6-3-10-14-9-9-4 2v4l18 25 6 16q1 11-3 19l-16 29 2 3q7 1 9-3l5-7 6-5 6-9h1l-1 2 2 5v2h3v3l3 2-18 23h-1l-38 51h-1l-3 4-29 24-1 2-39 32-31 22-2 3q-18 19-39 35l-11 15 5 1 1 1 9-8-3 16 4 1v-1h1l-3 10h2l-6 3-2-1-5 2 6 9 8 6 4 6 6 4 26 35 8 7q17 5 29 16v-4l-4-7 4-2 1-2 4 1 4 6 16-10 4-3-7 10 3 4 3-1 10-11 14-22 31-29v-1l35-30 21-23 35-32v-1l4-3v-1l6-5v-1l2-1 6-7 5-3 1-2 18-17v3l6 1-1-1h2l7-3h1l-2 7h6l3-5 16-11 18-4q13 5 23 14l5 1h2l4 1 1 1-3-8 1-2q-11-14-30-19-14-2-21 3h-2l2-1v-1l8-5 1-2v-2l5-2-1-2q3 2 7-5l10 4 17 12v2l29 19 15 21q12 25 28 46l17 14v2l41 29v2h2l41 53h2l16 20 5-1 4 5 3-1 3 2 3-6 2 2-1 4-5 3 2 4 7-2 18-11 2-1-2 3-3 2-6 7 1 3 9-2 9-10 35-33 22-22 4-7-1-4-12 8-1 2-1-1 4-3 11-17q2-9-2-11l-4-2q-3 5-5 2l1-9q-3-2 2-4l-3-6-10-10-13-6-22-16-1-1-13-12-6-7-1-1-2-2-10-9-47-56-23-46-10-13q-14-17-32-28l2-1 4-8-2-1 1-2-2-6-1-1-1-2-1 3-2 1-2-2-2-1h-5l3-2 6 2h1l-1-2h-3l1-3-1-1-2 1 1-2-3-3-2 1-2-1-2 1v3l-1-1-2-1-1-6v-2l-1-4 1-5 2 1v-1l4-6 2 1v-1l2-1 6-7-2-1 2-1v-4l-2 1-1-2-2-1 2-1v-1h-1l-1-1 43-39 15-17 34-46 17-16 4-5 13-10-1-2 1-3h1l-1 2 1 1 4-2v-1l31-23 1-2 2-1 11-13-2-1-3 2 3-4 11-9 3-6 2-1 5-6 2-1 8-10 1-7-3-1 1-2h-1l-5-11 2-3q0-14-9-19l-22-19-10-11-2-2-16-21-2-2-2-2-8-5v2l-1 4h2l1 5h-2l-3 1-7-4h-4l-16 9-4 5h-2l15-17v-2l-3-2-4 1-30 33h-1l-2 3q-15 17-35 30l-1 2-23 18-1 2-15 13q-29 26-47 63h-1q-15 25-34 45l-3 2v-1l-1-2-1-1-1-1-2-2-11 5-1 3-2-1-3 2-1 3h-3l-1 3v1l-3-1-1 3-2-1-4 5-7-1 1-3h-2l1-2-1-4-3-2-1 2-2-2 4-1-2-1-1-2-2-2-1-1-3-3-1-1-7-2-1 2v2l-3 1-2-1-1 2-8-5-9-9-1-1-4-5-37-23-18-14-4-4-1-1-1-1-5-5-14-16-1-1-50-67-1-1-25-34-2 1-2-2-2-2-5 1 2 1-2 1 5 2 13 16 35 50 2 2-15-17-1-1-25-28-1-1-30-38zm218 179-3 2 7 12 4 2v2l16 11 14 4q9 1 13-2l4 1 13-8 5-6q1-10 6-14l2-3q-15 14-34 22h-8l-11-3-26-18-1-1zm193 140-6 3-1 2h-1q-11 8-13 26l-1 3 1 11 7 11 3 1v2l7 5h4l3-4-5-9-1-1-4-5-2-16q4-18 15-27z"/><path fill="#fefdf5" stroke="#fefdf5" d="m278.5 178 2 3 1.5.5 3 4-7-6zm-15 9 48.5 44.5q23.8 34.3 52.5 63.5l3.5 2.5.5 1.5 1.5.5 29.5 30.5 12 9 28 15 13.5 11.5 13 18-5 1 .5 2.5 1.5.5-1.5 2.5-2.5-.5-.5-1.5-1.5.5.5 2.5 1.5.5 1 3-1.5 2.5-2 1 .5-1.5-.5-1.5-1.5.5-.5 3.5-3 1v-1l1.5-.5-.5-2.5-1.5.5-1.5 2.5-7-4-2 1-1.5-.5 4 8-.5 3.5 2.5.5-2 1-.5 2.5-1.5-.5 1-3-.5-2.5-2.5.5 1 2-1.5 2.5 1.5.5-2 1-.5-1.5-1.5.5 1 3-1.5.5-1-2-2-1-2.5 1.5-1.5 2.5-2.5 1.5.5 1.5-1.5.5.5 1.5 2.5.5-3 1 .5 1.5 3-1 .5 1.5-6 1 .5 1.5-3 1-1.5.5.5 2.5q2-5 4-2l4.5-.5-3-1 .5-1.5 3.5 1.5.5 1.5 1.5.5-4 1 .5 1.5-6-2-1 2-4.5.5 3 1-.5 1.5h-2L394 415.5l-2.5-3.5-5.5-4.5-11.5-16.5-1.5.5-1 3q2.3 13.7 11.5 20.5l9.5 7.5 11.5 12.5 1.5.5.5 1.5 1.5.5-1.5 5.5-1.5-.5-.5-1.5-1.5 5.5v2l-2.5 5.5-1.5-.5 1 2-2 3 1.5-.5 1.5.5-2 1 .5 1.5 3.5-.5-2 4 1.5-.5 1.5.5.5 1.5 2-1 3-1 1.5-.5 3.5-5.5 1.5-.5-1-2 3-1 .5-1.5 7.5 6.5-1.5.5-2.5.5 1 2h-1l-.5-1.5-2.5 1.5-1 2 1 2-1.5.5q-1.7-2.7-3.5 1.5l1.5 2.5 2.5 1.5-2.5.5-2-3-.5 1.5v2l-.5 1.5-1-2-1 3-25.5-19.5-16.5-30.5-1.5-.5-22.5-29.5-42.5-35.5-1.5-2.5-27.5-24.5-14-19-45-47-15-20 12-10 27.5-30.5zm501 2q25 26.5 56.5 46.5l3 6q-14.3 23.7-34.5 41.5l-1.5.5-.5 1.5q-34.9 22.1-63.5 50.5l-.5 1.5-1.5.5-.5 1.5-5.5 4.5-17 23-26 50Q659 437 640.5 453L620 470.5l-.5 2.5-2.5.5-1 2 2 4-3 2-.5 1.5-1.5-.5.5-2.5 3.5-.5-1.5-2.5-3 2h-4l-1.5.5.5 1.5 1.5-.5-3.5 1.5-1.5-.5 2-8 1-3 .5-1.5 1 1 5.5-5.5 3.5-4.5 28.5-23.5-2-7 .5-1.5-1.5-.5 1-2-3.5-5.5-3 1v-2l-1.5-.5 1-2-2-1 .5-1.5 1.5-.5-.5-3.5-1.5-.5 2-1-.5-1.5-1.5-.5 1-2-1.5-2.5-1.5-.5-1.5-3.5-2.5-.5-.5-2.5-8-6-2 4-.5-1.5 1-2-1.5-.5-2 3-2-1-1 3-3.5-1.5 13.5-15.5 14.5-9.5-8.5-1.5-14 7-8.5 8.5-9.5 13.5-4-7-2 1-.5-1.5.5-1.5-4-1-18.5 11.5-1.5 2.5-2.5.5 2 1-2.5 3.5-1-3-7 4-1-4q1.8 2.7 3.5-1.5l2.5-3.5 22.5-16.5q23.3-30.2 42-65l23.5-27.5 68-51 30.5-27.5 1.5-2.5 6.5-5.5 4.5-6.5 1.5-.5zm-48 19-1.5 2.5-10.5 11.5-27 21 10-11zm-517 80 17.5 15.5.5 1.5 25.5 20.5.5 1.5 5.5 4.5 13 14-1.5-.5-49.5-42.5zm617 14 1.5.5-2 1 .5 1.5-6.5 3.5-.5 2.5-21 13 3-4zm-41 21-7 8-25.5 22.5-1.5 2.5-1.5.5-6.5 7.5 1.5-2.5 11.5-14.5 3.5-2.5 1.5-2.5zm-512 24 12 13-2.5-1.5-.5-1.5-1.5-.5-2.5-3.5-5.5-4.5z"/><path fill="#fefdf5" stroke="#fefdf5" d="m432.5 413 .5 2.5.5 1.5 1.5-.5.5-1.5 1.5.5-.5 1.5-1.5.5.5 1.5 1.5-.5-3 2-3-6zm22 2 2 3-1.5.5-1 2 1.5 2.5 1.5.5-1.5.5-2-1-.5 1.5 2 1-1 2 .5 1.5-1.5-.5-.5-1.5-2.5-.5-.5-1.5-3 7-1-2-2.5 3.5 2 1 .5 1.5 1.5.5-1.5.5q-2.7-5.7-5.5-.5l.5 1.5-3.5 1.5 2 5-.5 2.5-3-2-1 2-1-2-.5 2.5 2 1-.5 1.5-6-7 1.5-.5-.5-1.5 1.5.5.5-2.5 1 2 10.5-11.5-2-1 1.5-.5 1 1 4-4 1.5-.5.5-2.5 1.5-.5.5-2.5 1.5-.5.5-1.5 1.5-.5zm-25 3 1.5.5.5 1.5 1.5.5-1 2 3 2-.5 1.5-1.5.5-.5 1.5-2-8-1.5-.5zm55 4 1.5.5 1 2v2l-.5 1.5-1-2-3 1-.5-1.5 2-1zm-59 10 4 1 1.5-.5-1.5 3.5-1-2-1.5.5-.5-1.5-2.5 1.5z"/><path fill="#fefdf5" stroke="#fefdf5" d="m439.5 439 1.5.5.5 2.5 2-3 1.5.5-.5 1.5-1.5.5-.5 1.5-3.5-1.5zm60 32 .5 1.5-10.5 13.5-2.5 1.5-.5 1.5-5 3 .5-1.5 7.5-8.5 1.5-.5 3.5-4.5 1.5-.5zm98 8-.5 1.5-3.5 11.5-2-1-2 3-1.5-.5-.5-1.5-6 4 .5-1.5 1.5-4.5 2.5-.5-.5-1.5 2 1v-2h2l1.5-.5-.5-1.5-1.5.5.5-1.5 1.5-.5.5-2.5 2 1zm14 42 2.5 6.5-3 2-.5 1.5-.5-1.5 3-2-2-1 1-3-1.5.5-2.5-1.5 1.5.5 1.5-.5zm-73 6-1.5 2.5.5 1.5 2.5-.5.5-2.5.5 2.5-4 2-1.5 2.5-3.5-1.5.5-1.5 3 1 1-2-1.5-.5zm110 1 6.5 4.5-2 1-.5-1.5-3 1-3 1-.5-2.5h2l1-2zm-118 7 2.5 1.5-.5 2.5-2.5 1.5-3.5 4.5-1.5.5-.5 3.5-3-4-1.5 3.5 1.5 3.5 2.5-.5-.5-1.5 1.5.5-1.5 2.5-4-1-1.5.5 2-3-1.5.5-1.5.5-.5 2.5-1.5.5-.5 1.5-1.5.5 3.5 2.5.5-1.5-1-2h1l.5 1.5 1.5.5-1.5 2.5-4 1-1-2 2.5-.5-3-1 .5-2.5 2.5-1.5 4.5-7.5 1.5-.5.5-1.5 7.5-3.5.5-1.5 1.5-.5zm113 26 18.5 14.5 13 22 25 54 31 43 23.5 23.5 1.5.5 1.5 2.5 18 14 38.5 24.5.5 1.5 12.5 11.5-3 15-6.5 7.5-23.5 20.5-21.5 24.5-31.5-44.5-20.5-20.5-43-28-16.5-13.5-16-22q-12.3-27.7-29.5-50.5l-11-10-19-12-14.5-13.5-1-3 3 1 .5-2.5 4 1 10.5-8.5 1.5-2.5 14.5 13.5 9.5 11.5 1.5.5 4.5 5.5.5-6.5-18.5-25.5-5.5-4.5 15-13 1-2-.5-1.5 16.5 14.5 5.5 6.5 4-1 18 14 .5-3.5-12.5-17.5-16.5-13.5-5-7 3.5-4.5-1.5-.5 2-1 .5 1.5 7.5-6.5 1.5-2.5 1.5-.5 1.5-2.5zm-240 6 .5 3.5-4 7h2l-1.5 2.5-1-2-6.5 6.5v7l5.5 8.5 4.5 3.5-.5 1.5-14.5 12.5-14 17-1 6 3.5 2.5 3.5-2.5 19.5-23.5 11-8v2l4.5.5-3 5 1 2-4 2-2.5 5.5-2.5.5-2.5 5.5-1.5.5 1 3h-1l-.5-1.5q-6.1 2.4-4.5 12.5l3.5 4.5 2.5.5 1.5 2.5 1-2 1 2 4-2 .5 1.5h-2l-1.5 2.5-1.5-.5 1.5 3.5 2-1 1 3 1.5-.5.5-2.5 1.5 3.5.5 1.5 1-2 1 2q16.3-5.2 24.5-18.5l.5-1.5 2.5-1.5 14.5-15.5 3 4 2.5 1.5-2 1 3.5 2.5 3-1 1.5 2.5q-2-3.2-4 0l3 2 2 3-5.5 7.5-1.5-.5-2.5 5.5-1.5.5-10.5 12.5-1.5.5-7.5 8.5q-32.5 27-70 49-21.3 15.2-38.5 34.5-18.4 26.1-41.5 47.5l-2.5 1.5-.5 1.5-1.5.5-17.5 21.5-12-7-28-24-13.5-7.5-15-19 2.5-3.5 2 4 20.5-18.5 35.5-41.5 31.5-23.5.5-1.5 9.5-6.5.5-1.5 25.5-21.5q20.2-23.3 35-52l9.5-10.5 10.5-8.5.5-1.5 8.5-5.5 2.5-3.5 3.5-2.5z"/><path fill="#fefdf5" stroke="#fefdf5" d="m422.5 599 1 2 1.5.5.5 3.5 2-3 1.5.5-.5 2.5-2.5 1.5.5 1.5h-2l-1.5-.5 2-1-.5-1.5-1.5-.5-1.5-3.5-1 3-2.5-.5zm141 4 1.5 2.5-.5 1.5 2 1 1.5-.5-.5 2.5-4-3-1 2 4.5 2.5.5 1.5 1.5.5-.5 2.5-3-5-1 2-1.5-.5.5 1.5 1.5.5-5 1 3 1-.5 1.5-1.5.5-.5 1.5-12.5-4.5 5.5-6.5 3.5-1.5.5-1.5 1.5.5.5-1.5 3 2zm-117 11 .5 2.5q1 5.5-2.5 6.5l-2 1 .5-1.5-.5-2.5-1 2-2.5-.5 3-2 .5-1.5 2.5-.5zm144 44 18.5 16.5 7 11-1.5.5zm171 38 8.5 7.5 5 6-4.5-3.5-9.5-8.5zm-540 30 1.5.5-6 5-6.5 8.5-7.5 6.5-11.5 13.5-.5-1.5 23.5-26.5zm166 17-.5 1.5-20.5 22.5-28 25 .5-1.5 23.5-27.5 12.5-10.5 1.5-2.5zm455 27 1.5.5-6.5 9.5.5-1.5 1.5-6.5 2.5-.5zm-133 19 2 3 9.5 7.5 6 7-4.5-3.5-13.5-12.5zm-528 4 20.5 17.5-.5 1.5-6.5-5.5-.5-1.5-1.5-.5-.5-1.5-9.5-6.5zm136 3 .5 1.5-31.5 35.5-4 3 1.5-2.5 20.5-23.5 4.5-3.5.5-1.5 1.5-.5.5-1.5 1.5-.5zm-99 39 14.5 15.5-1.5.5-7.5-5.5zm24 1 15.5 11.5-2.5.5-6.5-2.5-.5-1.5-1.5-.5z"/><path fill="#98905d" stroke="#98905d" d="m778.5 157 6.5 3.5-.5 1.5-1.5-.5.5 1.5 1.5.5-2 1 4 1-2.5 3.5-1.5.5-.5 2.5-4.5-3.5 3-1-1.5-4.5-1.5-.5 1-4zm-25 1 4.5 1.5v2l-4.5 5.5 1.5-2.5.5-1.5 1.5-.5-2.5-3.5zm-3 1 1.5.5-7.5 6.5zm-475 1 4.5 3.5 1 2-2-1-.5-1.5zm489 5 3 1 3 1 4.5 2.5-2.5-1.5-3 1-1-2-2 1-3-1q-1.7 3.8-3.5.5zm-483 2 8 9-2.5-1.5zm-48 2-5 6zm24 0 3.5 1.5-7.5 2.5v-1l2.5-.5zm491 3q2.1 3-3 6l-2.5.5.5 1.5-1.5-.5 3.5-4.5 2.5-.5zm-502 2-1 3 3-2-2 3-5 3-.5-1.5 2-1zm51 2 6.5 1.5-2 1-1.5 2.5-5.5-3.5zm436 1-8 9zm-429 2 2 1q1.8-2.8 3.5 1.5l5 7-1.5-.5-4.5-1.5 2-1-1.5-2.5-1 2-1-3-3.5-1.5zm-26 1 2.5.5.5 2.5 2.5.5.5 3.5zm24 1 5 6zm-82 1-5 6zm44 4 5 6zm-44 2 .5 1.5-6.5 6.5-1.5-.5 1 2-6 5 .5-1.5-7 2v-1l2.5-1.5.5-1.5 5 1-.5-1.5-1-2 5.5-6.5-3.5 4.5.5 2.5 1.5-.5 1.5-2.5 4.5-2.5.5-2.5zm544 0 15.5 14.5-14.5-13.5-4 3zm-492 6 3.5 2.5 8 9zm443 3-10 11zm-394 1 6.5 7.5-2.5-1.5-1.5-.5-.5-2.5-2.5 4.5 5 6-4-3-5-7q2.5 3.5 5-1zm433 2-5 6zm-33 2 1.5.5-7.5 8.5-1-1-7.5 6.5 8-8-1-1 .5-1.5 2 1zm-516 1 1.5.5-6.5 9.5-1.5.5-.5 1.5-2-1-1.5.5.5-1.5 2 1 1-2 1.5-.5.5-2.5 1 2 1-3 1.5.5-.5-2.5-1.5.5 1.5-2.5z"/><path fill="#98905d" stroke="#98905d" d="m200.5 204 1.5.5-2 1 1 2-1.5.5-4.5 1.5zm36 4-5 6zm93 0v2l2.5 1.5-1.5-.5-1.5.5-.5 1.5-.5-1.5zm413 3-5 6zm-423 2 5 6zm516 0 5 6zm-643 1 1.5 2.5-2 1-.5 1.5-3.5.5 2 1-.5 1.5q-1.7-3.7-3.5-.5l1 2h-1l-.5-1.5-2.5 1.5 9-8zm103 0 11 12zm39 1 5 6-4-3-2.5-.5zm401 2-8 9zm-409 4 8 9zm-145 4 1.5.5-5 4-1.5 3.5-1.5-.5-2.5 3.5 1.5-2.5zm157 9 8 9q1.8-2.8 3.5 1.5-4 .9-8-5zm-23 2 5 6zm367 0-4 7-1.5-.5-1.5 2.5.5-1.5zm-14 1-5 6zm-462 3-5 6zm618 0 .5 1.5-6.5 9.5.5-1.5zm-639 2 .5 2.5-2 1-.5 3.5-1-4-4.5 3.5q3-6 6-4zm163 4 3.5 1.5-.5 1.5 2.5 1.5-.5 1.5 2.5 1.5 2 4h-1zm10 0 6.5 8.5-4-1 1-2-4-3zm298 1-5 6zm-331 1 5.5 4.5 1 3-4-3zm525 1 2 3 1.5-.5-1 2 3 1-2.5 8.5.5-1.5 1-4-3.5-4.5-1.5.5 1-2zm-668 3 4.5 3.5 2 4-4-3zm22 3 5.5 6.5-4-3zm438 5-9 10zm38 0 1 2-5 4 2.5-3.5zm172 4-4.5 5.5-1.5 2.5-1.5.5-1.5 2.5.5-1.5 1.5-2.5 1.5-.5 2-3-.5-1.5q2 3 4-2Zm-477 6 4.5 5.5-2.5.5-1.5-.5 2-1zm422 5-6 7zm-450 1 8 9zm33 1 2.5 4.5-1.5-.5-3.5-1.5 1.5.5 1.5-.5zm-187 2 15.5 17.5-4.5-1.5-6.5-6.5-1.5-4.5q-2.2 3.2-4.5-2.5zm165 9 5.5 4.5.5 1.5 3.5 2.5-2.5-1.5zm472 0-5 6zm-641 2 8 9zm202 0 6 7zm251 3-5 6zm181 1 .5 1.5.5 2.5 1.5-.5-3.5 4.5-1.5-.5-.5 1.5-3.5 2.5 1.5.5 2.5-1.5-8 7-1.5 2.5.5-1.5.5-4.5 1.5-.5 1.5-2.5 1.5-.5q-3.7-1.7-.5-3.5l2-1 1 2 .5-2.5zm-609 3 3.5 1.5 1 4-1.5.5.5-1.5-1.5-2.5-2.5-.5zm30 2 5 6zm126 1 6 7zm-156 5 5 6zm36 1 8 9zm-27 2 7.5 6.5-4.5-3.5zm587 0 .5 2.5-2 3-.5 2.5-4 3 2.5-3.5-1.5-1.5-1.5.5-.5 2.5-1.5-.5.5-2.5 7.5-3.5zm-400 1 5.5 4.5-1.5.5h-2l-1.5-.5 2-1zm-30 1 5 6zm-170 2 1.5.5 4.5 5.5 1.5.5-1.5.5zm540 0-4 7-1.5-1.5zm45 4-3 6q-2.1-3 3-6Zm-5 4-1 5 1.5.5-2.5 5.5 1.5-2.5-1.5-3.5-4 2-.5-1.5 3-1zm-17 1 3.5 1.5-6.5 7.5 2.5-7.5zm-345 2 8.5 5.5-1.5-.5-2.5-.5-.5-1.5zm-190 2 19.5 18.5-9.5-8.5zm243 5 1.5.5-3 2 .5 1.5 2.5.5-2 1 3 1-2.5.5-2.5-5.5zm248 0-5 6zm50 0v2l4 1v-2l2.5 1.5-5 4-.5 1.5-4.5 2.5-3.5 4.5.5-1.5-.5-1.5-2 1-2.5-.5 3-2-.5-1.5 1.5-.5.5-2.5 2.5-.5-2-3 1.5-.5 1.5 3.5.5 2.5 1-2 2-1h2l1.5-.5-5-2zm-218 1 1.5.5-5.5 7.5v-2l-4.5 2.5 1 2-2 1 .5-1.5-1.5.5-.5 1.5-1-2zm206 0-.5 3.5-.5 1.5-1-2-5.5 4.5zm-518 1 9 10zm234 0 5.5 4.5-2.5.5-1.5-.5 1-2zm275 3-6 7zm-268 2 10.5 7.5-2.5-1.5-8.5-4.5zm-243 7 3.5 1.5-1 1 3.5 4.5zm504 1-1 3 1.5.5-2 1-.5-1.5-6.5 5.5zm-258 2 1 3 1.5-.5.5-1.5 2.5.5-2 3 2.5 3.5-7.5-6.5zm-205 1 8.5 7.5-1.5-.5zm468 3 2.5 1.5-6 4 .5 1.5-2.5-.5 1.5-3.5 2.5-.5-.5-1.5zm6 1-4 5v-3q2 3 4-2Zm-292 1 5 6zm102 1-5 6zm-127 4 2 1 1.5-.5.5 2.5 1.5-.5-.5 1.5 2.5.5-.5 2.5zm-172 1 3.5 1.5 1.5 2.5 4.5 3.5.5 1.5q1.8-2.7 3.5 1.5l1.5 2.5 1-1 4.5 4.5-1.5.5-1-2-1.5-.5-.5-1.5-1 1-4-4-2.5-1.5-.5-1.5-2.5-.5-4.5-5.5zm475 0 2.5.5-1.5 2.5-1.5.5-1 3 4-2-12.5 13.5 1-3-3.5-.5 1.5-3.5 2.5.5.5 3.5 5.5-7.5-1.5-.5-1 2-2.5-.5 2.5-3.5 1.5-.5zm-255 1 7.5 1.5.5 1.5 3.5 2.5.5 1.5 2.5 1.5.5 2.5 2.5.5-4 1 1.5 2.5 1-2 3.5 1.5 1 4-1 2h2l-1.5 3.5-10-3-21.5-17.5 2.5 1.5 2 1 2-3 2 1zm244 0v2l1.5.5-1.5 2.5-1.5-.5.5-1.5-4.5 2.5-1 5-.5 1.5-1.5-.5-.5 1.5-1.5-.5 2.5-4.5 2.5-1.5.5-2.5 1.5-.5.5-2.5zm-171 1-5 6zm-17 2 5.5 1.5.5 1.5 1.5.5 2 3-18.5 16.5-1.5-.5-1.5 2.5-5 2-1-2-12.5-2.5 2-1 3.5-4.5 2 1 1-3 3 1 .5-1.5.5-2.5 3.5-.5.5-2.5 3-2 2 1 1-3zm-280 2 9 10zm363 2 3 1 1.5-.5-5.5 3.5zm-16 5 1.5.5-11.5 9.5 8-9zm-291 7 5 6-3-2v4l-1.5-4.5zm411 0-5 6z"/><path fill="#98905d" stroke="#98905d" d="M461.5 384q8.3-1.2 9.5 4.5l4.5 5.5 5.5 3.5.5 1.5 11 8h2l15 4 16-3 11 1 8-2 15-11-1.5 2.5-4 5 1.5 2.5-22 12-9 1-2-1-2 1-6-1-2.5 1.5 1.5 4.5 3 1 2-1 12 2 14-6 14.5-12.5 1-2-1.5-.5-1.5.5.5-1.5 5-3 1 3 1-3 1.5.5-.5-1.5-1.5-.5 4-2 2.5-3.5 17-9 3.5 1.5-1 2 1.5-.5 2.5 1.5 3 6-14.5 17.5-1.5.5 1 1-4.5 4.5-1-2-4 6-1.5-.5 10-13-1.5-.5-6.5 4.5 2 1-.5 1.5-1.5-.5-.5-1.5-10.5 8.5-.5 1.5-3.5 1.5 2 1-1.5.5-2-1q-14.9 12.6-39 16l-4-1h-2q-31.9-3.1-45.5-24.5L454.5 403l-12-7-2 3-1.5-3.5 1.5.5 3-1 6 4 2-3 2.5-1.5-.5-1.5 1.5-.5.5-1.5 1.5-.5.5-2.5 1.5-.5.5-1.5.5 1.5-1 2 4-1-.5-1.5-1.5-.5z"/><path fill="#98905d" stroke="#98905d" d="m494.5 389 8.5 3.5-.5 1.5-4.5-1.5-.5-1.5q-2.2 3-3-2Zm123 0 1.5.5.5 1.5 1-2 8.5 6.5.5 2.5 2.5.5 1.5 3.5 1.5.5 1 2-1 2 2 1-.5 1.5-1.5.5 2 1-.5 3.5-1.5.5.5 1.5 1.5.5-1 2 2 1-.5 1.5 3-1 3.5 5.5-1 2 2 1-1 2 2 6-32 27-5.5 6.5-1.5-.5-2 3 1 2-2 7 1.5.5 2-3 2-1 3 1 3-2 1.5.5-1-2 1.5-2.5 2.5-.5.5-2.5 7-6-5.5 6.5-8 28 1 2-1 18 8 17 12.5 17.5 9.5 7.5-7 6-.5 1.5-2.5 1.5-.5 1.5-12 11-33.5-37.5-9-21v-18l1-8 2-2-1-4 3-11 13.5-23.5 26.5-24.5 4-9-2.5-3.5-4.5 3.5-6.5 7.5-1.5.5q2.8 1.8-1.5 3.5L589 455.5 576.5 478l-1.5.5q-11.8 18.2-11 49 7 24.5 24.5 38.5l25.5 24.5-3 1-.5 1.5-16 12-20-11-26-19q-5.4-3.1-15-2l-2.5-2.5 2-4-3.5-3.5-7-1-3 1-2-1q-24.1 1.4-36 15l-1.5-.5-20.5 28.5-1.5.5v2l-1.5 2.5-1.5.5q3.3 2.2-2.5 4.5l-1.5.5q2.8 1.8-1.5 3.5v-2l-1.5.5-.5 2.5-.5-3.5-.5-2.5-2 4-2.5.5 2 5-6.5 7.5-15.5 12.5.5 3.5 6.5-1.5.5-1.5 1.5.5 1.5-2.5.5 1.5-16 17 .5 1.5-2-1v2l-1.5-.5-.5-1.5-1 2-1-2h-2l-1.5-.5-.5-2.5-2 1-1.5-3.5 3-1-.5-1.5-2 1-1-2-1 2-2-3-2.5-.5q-4.5-2.5-3-11l5.5-7.5 1.5-.5 2.5-5.5 2.5-.5 4.5-7.5 1.5.5-1-2 3-5-6-2 12.5-10.5 1.5 3.5.5 2.5 1.5-.5-.5-3.5-1.5-.5v-3l6-6 21.5-33.5 4.5-2.5 11-21 2-20-5-21-11-14-10-19-16.5-18.5-9.5-7.5 3-1-.5-1.5-2.5-.5 5-1-.5-1.5-1.5.5.5-2.5q2.5-4 9.5-3.5l-.5-1.5-3 1-.5-1.5 3-1-3-1 .5-1.5 1.5-.5.5-2.5 2.5-1.5.5-1.5 2-1 2 1 2-4 2.5-1.5.5-1.5 3.5-1.5-2-3 3 2 3.5 5.5 9.5 8.5-2.5.5-1.5.5-.5 1.5-1.5.5-.5 2.5-2.5 1.5q2 3.5 4-1l.5-1.5 1 2 1.5-.5-1-2 1.5-2.5 7.5 5.5 10.5 12.5 17 9 7.5 1.5.5 1.5q12.8 9.2 36 8 33.9-16.1 58.5-41.5l13.5-18.5 2.5-.5-.5-1.5-1.5.5 7.5-3.5 1.5.5zM453 423l-1 2h-1l-1 2h3v2h2l-1-1 1-2-1-1zm-27 2-1 2 3 1h-4l-3 1 3 1 2-1-1 2h3l-1-1 4-1-1-1-1-1zm22 0-15 16-1-2-1 3-2 1 4 5 4-8 4-2-1-1 6-7 1 2 2-6zm52 46-4 6h-1l-4 5h-1l-8 9v1l5-3v-1l3-2 10-13zm104 2-4 3v2l-2 4h-4l-2-1-1 3h-1l-1 2 2-1v2l-9 5 1 3 5-3v2h2v-1l3-2 1 2 2 30 10 19 6 4v2h2l4 2h1q-11-10-15-26l-1-22-3-2 1-2-1-4v-2l2-7 2-1-1-1 2-9zm-72 63-1 2h-1l-1 2-4 1h2v2l-2-2-4 3 4 5v-3l-1-1v-1l3 1 3-4 3-2v-2zm-12 9-5 8h2v-2l2-1 2-4zM373.5 391l4.5 3.5-2.5-1.5-2.5.5-.5 1.5-.5-1.5zm-67 3 3 1 1.5.5-1 2 .5 1.5zm73 4 6.5 8.5-5-4zm-4 6 3 4 2-1 .5 1.5q-2 3.5-4-1zm20 12 11.5 13.5-2-1z"/><path fill="#98905d" stroke="#98905d" d="m421.5 420 2.5.5-1.5 2.5-1.5.5-1.5 2.5q-3-1.5 0-3l1.5-.5zm-28 3 11 12zm308 2-6 7zm-367 4 3 1 1.5.5-1 2 .5 1.5zm324 6-15 16zm-250 3 13.5 9.5-2.5.5-4-1-.5 1.5 10 10-.5 1.5q6.8-.7 7.5 4.5l13 25 4 13 2 23-1 3-5.5 15.5-1.5-.5 1 3-3.5 4.5-1.5.5-1 3-3 6 4 2-23.5 32.5-12 9-8.5-7.5-2-5v-7q8.5-5.5 11-17l-3 1q13-13.5 13.5-39.5l1.5.5-1-15q4.1-1.9 3-9l-3-4v-2q.2-18.2-9.5-26.5l-1.5.5q3.3-2.3-2.5-4.5l-5.5-4.5 4.5 3.5 9 7 4-5 1.5.5-1-2 5.5-6.5 4.5-3.5-6-5-2.5 4.5-1.5.5-3.5 5.5-3 2-2-1-1.5.5-.5-1.5-2 1-.5-1.5 2-3h-4l-1-3 1-3 .5-1.5 1.5.5 3-6-1-5 3-2-1 2 1.5.5zm10.5 41-1 3 7 13 7 34-1 4 2 4h-1l-2 7h2l4-13-1-24-3-2 2-1-2-10-5-8zm268.5-40-7 8zm-146 3 2.5.5-6.5 3.5-1-2zm-9 3 3.5 1.5-10.5 2.5-1-2zm140 8-12 13zm-286 5 5.5 4.5-1.5.5q-2.7-5.4-5.5-3.5zm-46 9 1.5 4.5-1.5.5v-2l-2.5 1.5 2 3-3-2zm317 0-6 7-1.5.5.5 1.5 1.5-.5.5 1.5 1-3 .5 3.5-2 1 3 2-.5 3.5-1.5.5 2 1-6.5 7.5-1.5.5-.5 1.5-2-1-3.5 5.5-.5 1.5-2-1-1 2-.5-6.5 13.5-22.5zm17 3 6.5 1.5-5.5 6.5 1.5-2.5.5-1.5 1.5-.5-4.5-2.5v2l-3-1-1.5.5zm-8 5-5 6z"/><path fill="#98905d" stroke="#98905d" d="M397.5 498q6.6 4.4 3.5 18.5l-1.5 2.5-1.5-4.5h2l-.5-2.5-1.5.5-1-6 2-6h-2zm63 14 .5 13.5-2-1v-11zm165 0 1.5.5-1 3-.5 4.5-1.5-5.5zm-236 2q3.9 4.6 1.5 15.5l-3 12-9.5 13.5-3.5-2.5-.5-2.5-2.5-.5v-2l-2.5-5.5-2.5 1.5 4.5-7.5 1.5.5-1-3 1.5.5 1.5-.5 2.5-3.5 1.5-.5-1-1 4-4 2.5-6.5 1.5-.5.5-1.5 2.5-.5zm255 1 2 1 2-1 3.5 2.5.5 1.5 1.5.5 3 5-1.5.5-6-2-2.5 1.5 4.5.5 2.5.5 1.5 2.5 2.5-1.5.5-2.5 1 2 1.5-.5-2-3 3 2 1 2h-2l2 6-1 2 2 1-4.5 8.5-1.5.5 1.5 2.5-13.5-10.5-1-3-6-16zm5.5 14-2 3-1-1-1 3 2-1 3 1 1-3zm26.5-2 1.5 2.5-3.5 4.5-2.5-.5 3-1 2-3zm-328 33 3 1 2-1-1 2-4 3 1-3-1.5-.5zm336 7 5 6zm-176 3 2.5.5-4.5 2.5-2-1v2l-3-1v1l1.5.5-10.5 4.5-.5-1.5 13.5-6.5zm14 3 11 1 41 29 15.5 7.5-2.5 3.5-12 8-2-1-1 3-1.5-.5 2 4-3.5-2.5-10.5-5.5h2l.5-1.5 1.5-.5-.5-1.5-2.5-.5 5-1-2-1-.5-1.5-2-1-2 1v-1l1.5-.5.5-3.5 1 3 1.5.5 1.5 2.5 1.5-2.5-4-2q2.8-1.8-1.5-3.5l-1.5.5-.5 1.5-1.5-.5-.5 1.5-8.5 6.5-.5 1.5q-8-6.5-21.5-7.5l-1.5-2.5h-7l-16 11-17 6-8.5 6.5-6.5 11.5-2.5-1.5-.5-1.5-2.5-1.5 3-1-.5-1.5-3 1-3.5-2.5 2-1-3-2-.5-1.5-1.5.5-.5-2.5q-3.7 6.7-7.5 4.5 5 0 10-8 7.6-15.9 19.5-27.5zm-7.5 16q-15 2-23 10l-12 14 1 1 27-16 24-3 3-2-5-3zm104.5 4 4 6 2-1v1l-2 1q-6-1.5-4-7Zm20 6 9.5 8.5 4 6-2-1-7.5-9.5zm-302 7 1.5.5-2 1 1 3-3-1-1.5 2.5.5-1.5zm301 1 1.5.5 1.5 3.5 2-1 3 5 1-2 .5 1.5q-2 3.5-4-1l-.5-1.5-6-3-4 1v-1zm-242 2-8 9zm195 2 10 11zm-259 2-3.5 4.5-1.5 2.5.5-1.5zm318 3q-2 3 4 6l1.5.5-1.5.5-5.5-5.5z"/><path fill="#98905d" stroke="#98905d" d="m511.5 631 19 2 1.5 1.5-1.5-.5-7.5 5.5-1.5 2.5-3.5.5v2l-1.5 2.5-7.5 4.5.5 1.5 2.5.5q-12.5 3.5-20 12l-2.5 5.5-1.5-.5 1 2-4.5 7.5-.5-1.5 2-3-1.5.5-12 4-2-4-14.5 13.5q29.5-23.5 49.5-56.5zm-197 4-7 8zm279 9 7.5 5.5-1.5-.5-5-3-1.5.5zm-130 2 1.5 2.5-5.5 6.5-1.5-.5 2-1zm-32 5-6 7zm93 0 8.5 1.5-.5 2.5-1-2-7-1zm80 0 5 6zm-273 2-5 6zm257 2 6.5 5.5-3.5-2.5-1.5.5 9.5 10.5-10.5-10.5zm-131 1-5 6zm-170 1 .5 1.5-2.5 4.5-1.5.5-.5 1.5-1.5-.5.5-2.5 1.5-.5 1.5-2.5 1.5-.5zm38 3-6 7zm225 1 6.5 5.5-1.5-.5-1.5.5-1 2 3 4-2.5.5-3.5-2.5 1.5.5 3 1-1-2-3.5-1.5 3-1 1-3-4-2zm65 0 4.5 6.5-1.5 2.5-1.5-.5.5-1.5 1.5-.5zm131 0 4 5q-2-5-4-2l-1.5-.5zm-149 1 11 12zm-317 1-3.5 4.5 1 1-.5 1.5-1.5-.5-.5-1.5-2.5 1.5zm296 1 7.5 6.5-5.5-4.5zm-18 4 1.5 2.5v2l2 7-1.5-.5-2.5-1.5-1-2 1-3 1-3zm-287 2-2.5 3.5-.5 2.5-3 1zm34 4 1.5.5-1 2h2l-4 3 1-3zm411 0 2.5 1.5.5 2.5 2-1v1l-1.5.5 1.5 2.5zm-129 1 5 6zm173 3 8 9zm-499 1v2l1.5.5-1.5.5q-1.7-2.7-3.5 1.5l-.5 2.5-2-1-1.5.5zm367 2 2.5 3.5-.5 1.5 1.5.5-2.5.5-.5-1.5-1-3zm129 12 3.5 2.5 8.5 10.5 1.5-.5-.5-1.5 6 7-1.5-.5-1.5-2.5-3-1-10.5-9.5-1.5-2.5-1.5-.5zm-309 1 1.5.5-1.5 2.5-1.5.5-6.5 7.5-1.5.5-.5 1.5-.5-1.5 8-7 1.5-2.5 1.5-.5zm283 0 6.5 5.5.5-1.5.5 1.5-1 1 5.5 6.5zm32 3 5 6zm-485 2-5 6zm-55 8-.5 3.5-.5 1.5-1-2-2.5 1.5zm39 3 .5 1.5-5 4-10.5 11.5 9.5-10.5 1.5-2.5 3.5-2.5zm486 1 6 7zm-317 1 1.5.5-4 3-.5 1.5-9 8 3.5-4.5-1-1 .5-1.5 2.5-.5-.5-1.5 2 1zm369 5 2 3 4.5 3.5-3.5-2.5-2.5-.5zm-172 8 1.5.5 3.5 6.5 2.5 1.5.5 1.5 1.5.5.5 1.5 2.5 1.5 3 5h-1l-.5-1.5-1.5-.5-1.5-3.5-3 1-1.5-.5 1-3zm-426 3-5 6zm16 0 2.5.5q-3 5.1-6 3zm193 1 .5 1.5-17 16 9.5-10.5 6.5-5.5zm358 0 2.5.5 4 5-5.5-4.5zm-558 5-6 7zm28 2-6 7zm389 1 6 7zm-237 2 1.5.5-2.5 3.5-3 2-1-2 1.5.5 1.5-3.5zm-182 1 1.5.5-7.5 6.5zm139 1-5 8q-2.3-4 5-8Zm-166 4-.5 1.5-1.5 3.5-1.5-.5-1.5 4.5-1.5-.5-.5-1.5-3.5 2.5q2.3-5.7 4.5-2.5l1.5-.5-1-1zm659 0 6 7zm-639 3v3l-1-1-7.5 6.5zm139 0L331 759.5l-.5 2.5-1.5-.5zm33 4-5 6zm7 0-12 13zm467 1 2.5 4.5q-5 2-2 4l-1.5 8.5-4.5 2.5-2.5 4.5 1.5-2.5-.5-2.5-2.5.5-.5 2.5-.5-2.5.5-2.5 2 1 .5-1.5-.5-1.5 1.5-.5-3-4h1l1.5 2.5 2-1 1 3 2.5-.5 1-6-2-4q2 3.2 4 0l-.5-1.5-1.5-.5zm-460 2-5 6zm-166 1-11 12zm-52 1-2.5 3.5-2 5 3 1-2.5.5-1.5-3.5zm530 4 6.5 4.5-1.5.5zm116 0 10 11zm-613 7 .5 1.5-1.5 2.5 2.5 1.5-2.5 1.5-2-4-2 3-.5-1.5 5-3zm649 1 4.5 1.5 2 4-2.5.5-1-3-1.5-.5-.5-1.5-3 2zm-671 5-.5 1.5.5 1.5 1.5.5-2 1-.5 1.5-.5-1.5.5-1.5-1.5-.5.5-1.5zm154 0 .5 1.5-3.5 4.5-1.5.5-3.5 5.5-1.5.5.5 1.5q-3.2-1.7.5-3.5l.5-1.5 1.5-.5 4.5-6.5 1.5-.5zm21 1-5 6zm322 1 6 7zm-317 4-4 5-17 14-1-2h2l2.5-1.5-1.5-.5h-2l-2.5-.5-.5-1.5-2.5 1.5 3.5-4.5-.5 1.5 1.5 2.5 2.5-.5v-2l-.5-1.5-1.5.5 8-7-2.5 3.5 3-1 4 2 3-4-3.5-1.5 1.5-1.5 3.5 1.5.5 1.5 1-2zm-182 1 2.5.5-.5 1.5-1.5.5 2 1-.5 2.5-1.5.5-1 2 2.5 4.5 2.5.5q-2 3.5-4-1l-3.5-4.5-2 1 2-3 3.5-.5zm678 3-.5 1.5-5.5 7.5 1.5-2.5-1-2 4-2zm-152 1 1 2 2.5 1.5 1.5 3.5 1.5-.5-1 1 9.5 10.5-13-15-1.5.5zm-499 1 8 9 1.5.5-1.5.5zm525 0 9 10q-3.2-6.6-6.5-4.5l1-1zm126 7 1.5 3.5-1.5 2.5-.5-1.5.5-1.5-2-1-2 1v-1zm-683 5 6 7zm547 2 5.5 5.5-.5 1.5 1.5.5-1.5.5q-5.9-4-5-8Zm135 0-1.5 2.5-9.5 10.5 8.5-9.5zm-662 3 5 8-4-6-1.5.5zm141 0-7 8zm-27 3 2.5.5-6 3zm439 0 6.5 7.5-4-3zm53 3-6 7zm-476 1 2.5 1.5-6 5 4-4-1-1zm-22 2-12 13zm539 4-9 10zm-522 2-8 9zm-71 1 7.5 6.5-1.5.5q-2.7-5.4-5.5-3.5zm50 1-11 12zm-99 5 5 6zm5 1 3.5 2.5-.5 3.5-1.5.5 3.5 4.5-4.5-4.5 1-1 1-2zm625 1-9 10 1-4q2.3 3.2 4.5-2.5l-.5-1.5zm-523 5-3.5 4.5-1.5 2.5.5-1.5zm-23 1 2.5.5-7 6-1.5 2.5-1.5-.5zm496 0-6 7zm-535 4 6.5 3.5 1 2-2.5-1.5zm488 3 1.5.5 4 5zm83 0-10 11zm-559 5 5.5 4.5-2.5 1.5-3.5-2.5 2-1zm-38 4 2.5.5-1 1 5.5 6.5zm10 0 1 2h2l5.5 3.5-1.5.5-1-2-4-2-2 3-1.5-.5zm36 1 2.5.5-5.5 4.5-.5-1.5 4-2zm528 2 1.5.5-5.5 5.5-1.5-1.5 5-3zm-48 3 5 2 2-1v1l-5 1zm19 1 1.5.5-3.5 6.5-2.5-1.5 4-3zm-509 1 7.5 2.5.5 2.5h2l2.5.5-3.5 2.5-4-6-4-1-1 2zm35 0-7 8-3 1-2.5-4.5 2 1 .5 1.5h3zm-37 1 .5 2.5-2 1 2 3-1.5-.5-1.5-.5v-2l.5-1.5 1.5-.5zm545 1-9 10zm-15 4 .5 1.5-3 5 1.5.5 5-1v1l-7 1-.5-3.5zm-533 3 3 5 .5-2.5-1-2 3 2v2l-.5 2.5-5.5-4.5z"/></svg>