<svg xmlns="http://www.w3.org/2000/svg" viewBox="0 0 1024 1024"><path fill="#111110" stroke="#111110" d="M698.5 292q6.5-1 7.5 3.5l3 16 1.5 36.5 1.5.5-2 12 5 50 2 43 8 67 16 83 20 69v2l-.5 1.5q-7.2 5.8-20.5 5.5l2 18-49.5 8.5-105 8-160 18q-42.9.6-80 7h-33l-1.5-2.5 1.5.5h27l54-7 28-1 61-6 99-12 105-8 50.5-8.5-2.5-14.5-85 13-93 8-64 9q-57.4 3.1-109 12l-43 2-5.5-9.5-8-24-32-136-13-94-5-56-1-30-4.5-37.5q-6.3 9.2-3.5 27.5l7 63 3 68 12 84 3 33 17 100 2 22-1.5.5-16.5-94.5-18-135q-3.9-30.6-3-66l-7-70v-20l1-2-2-3 6.5-15.5 10-3 49-2 51-7 103-7zm-15.5 5-156 15-152 11-51 7q-28-1-50 3l3 8 4 53 2 3 20-4 117-10 197-21 90-7v-24l-4-33zm24 60-3 2-10 1-49 3-117 13-246 23 5 62 14 100 25 108 11 37 2 13 4 6 45-4 75-10 21-1 72-10 101-9 103-16-19-57-16-77-11-83-4-76z"/><path fill="#111110" stroke="#111110" d="m671.5 380 12.5.5-48 6 5 41h-1l-5.5-41.5q-56.3 4.2-108.5 12.5l7.5 52.5 17-1v1q-11.2-.7-17.5 3.5l4 35h-1l-4-35-1.5-1.5-55 6-1.5 1.5 9 56 1.5 1.5 14-1v1l-13 1-1.5 1.5 2 15h-1l-3.5-15.5-51 5-2.5 1.5 7 51 2.5 5.5 25-3v1l-25.5 3.5 9.5 50.5 51-3 4.5-1.5-10.5-52.5-5.5-.5 5-2-1-6 1.5-.5 2 7 26-3v1l-24 3-1.5 1.5 10.5 52.5 52.5-4.5-7-43 2 1 7.5 41.5 50-5 1.5-1.5-1-3 1.5-.5 1 4 53.5-7.5-4-30h1l5.5 29.5 40-6 1.5-1.5-10.5-50.5-37 4v-1l36.5-5.5-7.5-53.5-24 2v-1l24.5-3.5-6.5-56.5-42 4v-1l42.5-5.5-3-52h1l6 81 10 79 2.5 7.5 1.5.5-2 1 7 41 3.5 10.5 2.5.5-3 2 7 30h-1l-8.5-30.5-40.5 7.5 10 45-1.5.5-11-45-53.5 7.5 10 50h-1L610.5 622l-50.5 6.5 8 40h-1l-8-36-2.5-4.5q-21.8 4.2-48 4l-3.5 1.5 9 47h-1L502.5 633l-55.5 4.5 11 49h-1L444.5 638q-28.1.9-50.5 7.5l12 49h-1L392.5 645l-45.5 6.5 11 43h-1l-12-41-19-86q-13-69-19-145h1l5 46 2.5 8.5 48.5-6.5q-.3-30.7-6.5-55.5l-47 4v-1l120-11 170-20 66-5zM520 398l-106 13 6 52 52-5-5-48 1-5 1 3 6 49 56-5-6-53zm-112 12-49 6 4 17 2 29 3 9 49-7-5-53zm54 50-42 6 8 58 54-6-9-57zm-51 6-43 6-2 2 8 56 51-6-7-57zm-53 7-43 6 9 59 47-7 1-1q-6-26-7-56zm64 53-48 7 6 44 4 12 50-6-8-55zm-51 6-47 7q3 30 11 56l46-5-9-57zm58 53-38 5-8 3 12 50 50-7-10-50zm-54 7-37 4-3 2 9 44 4 8 44-6-10-51z"/><path fill="#111110" stroke="#111110" d="m577.5 394 1.5.5 5 40h-1zm31 15q11.2-1.2 14.5 5.5 7.5 8 7 24-1 11.5-8 17l2.5.5 7-1 11 12 5.5 4.5 9 10q4 4.5 3 14l-8 18 2 13-2 8 1 9-1 9 4 26 1 20q-6.1 7.4-21.5 5.5l-5.5-3.5 2.5-4.5 8.5-4.5q-7.2-16.3-9.5-37.5l-3.5 9.5-7.5 44.5-10 2-2-1-7 1-10.5-3.5 2.5-5.5 11.5-4.5v-27l5-34-2-3-1-10v-2l-.5-7.5q-11.1 12.9-37 11l-4.5-3.5-1-8 1-2-2-1-2.5 3.5-6 1-4-1-.5 1.5q3 7 14 6l-.5 2.5-6.5 1.5-12.5 16.5-18 10-1.5-3.5 7-22 48.5-61.5 8-1 5 6 1.5.5 1 5-26 32 5.5.5q11.4-2.1 18.5-8.5l13-29 7.5-8.5 3.5-2.5-1.5-.5-2 1-11.5-6.5-2.5-4.5-6 1-1.5-6.5 2-4 1-16 8.5-11.5zm-5.5 9-5 14 1 2v2l-3 8 1 1 5-1 2 4 11 7 3-1q8-5 7-19l-18-11-3-5zm25 40-12 7-7 10-10 25q-10 12-32 12l1 7 4 1q17 1 27-6 11-9 16-23l2-1 2 1-9 18q-1 14 4 24 20-1 35-8l-7-43-9-20zm-45 7-6 8 11 7 5-6-2-6q-2-4-8-3Zm-7 8-2 2 1 3 8 5h2l-5-4zm69 0 7 33 4-13q-3-13-11-20Zm-71 3-3 4 11 7v-1l-1-1zm-4 5-21 28 7 2 5-1v-3l4-2v2h2l12-17-2-2-4-4zm-23 30-13 16h5v4l1 2 4-1 2 3 10-11-5-3-4-4 1-5zm-13 18-4 12 4 2 9-4-1-3-4-1-1-5zm112 2q-14 6-32 6l-4 32 1 6-1 22 7 1 1-1 5-33 11-26 2 1-2 7q3 25 13 45l5-1-4-25 1-33zm6 62-2 2-5-1-6 4v1l12-1 2-4zm-45 8-7 2-1 2h18l1-2z"/><path fill="#111110" stroke="#111110" d="m547.5 559 3 11 7-2 28-2v1l-35.5 4.5 1 10-1.5.5-2-11-4 1 1-2 3.5-.5z"/><path fill="#fefefe" stroke="#fefefe" d="M.5 0 1024 .5l-.5 1023.5L0 1023.5zM700 291l-7 2-25 1-18 3q-87 5-168 15l-106 7-38 6-48 2-15 3-8 16 1 4-1 7q1 42 7 80l2 59 18 137 16 98 3 10 4 1h27l28-4 62-4 58-6 15-3 76-8 106-8 48-7 6-3-3-16q14-1 22-7l-20-70-16-82-9-75q-1-44-6-82l1-19-2-1 1-6-2-37-2-8z"/><path fill="#fefefe" stroke="#fefefe" d="M692.5 297q8.3-2.2 10.5 1.5l4 55-3.5 1.5-71 5-219 23-97 8-34 5-3.5-44.5-4-19 53.5-2.5 51-7 106-7z"/><path fill="#fefefe" stroke="#fefefe" d="m273.5 341 9.5 117.5 14 101 32 135 12.5 31.5 11 1 5-1h2l32-2 48-7 50-4 66-9 83-7 97-14 2.5 13.5-54.5 8.5-105 8-128 15-60 4-46 6h-30l.5-1.5-19-119-4-40-11-75-3-67-7-64v-25z"/><path fill="#fefefe" stroke="#fefefe" d="M706.5 357q5.8 45.3 6.5 95.5l9 74 19 93 18 54-19.5 4.5-88 13-110 10-54 8-47 4-77 10-21 1-17.5-61.5-24-105-13-93-6-65 23.5-3.5 113-9L706 358.5zM675 379l-14 3-56 4-189 22-87 7-20 4 1 1 48-4 3 20 3 34-1 1-47 5-8-57-2 1 8 76 12 75 20 89 13 38h1l-13-46q24-1 45-6l10 42 4 7h1l-12-49q23-6 50-8l11 49 2 1v-6l-10-43 14-3 40-2 12 48h1l-10-48 53-5q3 23 10 43h1l-9-42 2-2 49-5 10 49 2 1-9-50 52-8 8 38 4 8h1l-9-46 40-7 7 30 2 1-6-31 3-1v-1l-3-1q-8-23-10-51l2-1-1-1-4-10-7-53-6-64-1-31-2-11-2 1 3 53-41 4-1 2 36-2 6-2 1 2 5 54-26 5 4 1 23-3 7 53-1 1-29 3-7 3 1 1 36-5 10 51-39 7-7-31-2 1 5 30-52 7-2-3-1-1-1 5-49 6q-7-18-8-40l-2-3 1-2-2-8 2-2 36-4v-2l-37 4-3-11-2 1 1 11-7 2h8l9 54q-24 4-52 4l-11-51 26-4 1-2-27 2-3-7 1-2-1-1-1 11h-3l-2 3h6l10 52-53 4-11-49 26-4 1-1v-2l-26 3-3-7-7-48 54-7 3 17 2-1-2-15 14-3v-2l-14 1-10-56 56-7 6 38h1l-4-38 18-3v-2l-17 2-3-8-5-44 50-6 5 42 2 1 1-4-6-39 55-6 7 43h1l-5-43 33-3 14-3q-2-4-9-2Zm-64 29-8 4q-7 6-9 18l1 2q1 8-3 12l2 5 6-1 2 4q4 7 14 8l-4 3-10 16-7 18q-8 8-22 10h-2l24-29 2-5-1-6-8-6-7 2-20 25h-1l-29 39-6 19-2-6-1-1-2-4 3-1v-1l2-1-2-1 2-5-2-1 2-1v-3l-1-1q-5-3-2-5l-1-2 2-1-1-1-1-2 2-1v-2h-1v-1l-5-11 2-1-2-1-2-2-1-1-2 3-4-4-6-3-5 3 1 1 2-1 1 1-2 1 4 2h-4l-3-1 1 3h4l-2 3 1 2 3 1 2 4 1-3 1 5v1l2-1 2 2-2 4 3 1-1 3q4 2 0 4l3 8-1 3 6 14h3v2h2l3 5 19-11 11-15 9-5v2l7 2q22 0 34-11v17l3 6q-7 26-6 60l-9 3-5 6 8 4h21l4-5-1-3 6-36 4-11q2 20 8 37l-8 4-2 6 11 3 14-3 3-4-2-7 1-3-4-30-1-27 3-5-2-9 8-25-4-11-20-21-6-6-6 1-2 1 7-13q2-17-4-25-5-8-15-10Z"/><path fill="#fefefe" stroke="#fefefe" d="m515.5 399 9.5.5 6 51-56.5 6.5-5.5-51.5 1.5-1.5zm-54 6 5.5.5 5 51-51.5 6.5-2.5-10.5-4-42zm-58 6 8.5.5q.3 27.7 5 51l-49.5 7.5-7.5-54.5zm199 8 5 6 7.5 3.5 2.5 3.5 7.5 3.5q-.2 11.8-6.5 17.5l-6 1-8.5-7.5-2.5-3.5-5 2 .5-1.5q3.6-5.4 2-16zm.5 12-2 2 1 3 3 1 2-4zm23.5 28q6.8-.7 7.5 4.5l9 24 5 37q-14.2 6.8-34.5 7.5l-3.5-22.5 9-15v-5l-2.5-.5-16 23q-10 9-31 7l-1.5-7.5q21.2.2 31-11 7.7-11.3 11-27l7.5-9.5zm-160 1 5.5.5 9 56-2.5 1.5-51 5-7.5-57.5zm-52 6 2.5.5 7 57-49.5 6.5-3.5-17.5-4-39zm166 1 1.5.5 4 10-1.5-.5-6.5-4.5zm-219 6 2.5.5 7 56-46.5 7.5-2.5-7.5-7-51zm214 1 6.5 7.5-3.5-2.5-3.5-2.5zm70 1 9.5 13.5v7l-3.5 9.5zm-73 2 1.5.5 5.5 7.5 1.5.5-1.5.5-7.5-6.5zm5 12 1.5.5-12.5 17.5-.5-1.5zm-14 20 .5 10.5-6.5.5-6.5-4.5.5-2.5 8 1 3.5-2.5zm-19 6-.5 1.5-6.5 9.5-2 1 2.5-3.5zm8 7 2.5 1.5-5.5 6.5-.5-1.5zm-136 5 8.5.5 9 55-50.5 6.5-9.5-55.5 1.5-1.5zm118 2 2.5 1.5-1 4 3.5 1.5 2.5.5-.5 2.5-7 4-4.5-3.5zm112 2 1.5.5-1 14v2l1 10-1 2 4 30-4.5 1.5q-8.9-20.1-11.5-46.5l2-5-1.5-2.5-3.5 1.5-10 27-5.5 31.5-6.5-.5 1-35 3.5-24.5q19.1.1 32-6Zm-279 2 4.5.5 8 55-1.5 1.5-44 5-10.5-55.5zm65 52 2.5 1.5 9 48-49.5 7.5-10.5-49.5zm-53 7 1.5.5 10 50q-19.2 5.8-43.5 6.5L335 597.5zm272 2 .5 2.5-11.5 2.5 1-2zm-47 8 11 1 1.5-.5-.5 1.5-15.5-.5z"/><path fill="#999586" stroke="#999586" d="m703.5 292 4.5 7.5h-1zm-291 24 10.5.5-10.5.5zm-115 14 17.5.5-17.5.5zm409 0 .5 22.5h-1zm-436 17 .5 19.5h-1zm413 49 .5 10.5h-1zm28 14 .5 10.5h-1zm-27 4 .5 11.5h-1zm31 5 .5 11.5h-1zm-441 22 .5 13.5h-1zm330 6 5 6zm-326 8 .5 13.5h-1zm305 6h4l8.5 5.5 1 6h-1l-1.5-3.5-1.5-.5-4.5-5.5q-8.4-.9-11 4l3-4z"/><path fill="#999586" stroke="#999586" d="M582.5 465q6.5-1 8.5 2.5l2 6-5.5 6.5-3.5-2.5 1-2-4-9zm-307 1 .5 13.5h-1zm373 6 8 9zm-79 9 3.5 2.5 3.5 4.5 1.5.5-1 3-.5 2.5q-1.8-2.7-3.5 1.5l.5 1.5 1.5-.5-5 3 .5 1.5 1.5-.5-5 3 1 2h-2l-.5 1.5-1-2-3.5 1.5-.5 3.5-5 1-6.5-2.5zm-69 3 7.5 3.5.5 1.5 2-1v1l-1.5.5 3 2 1.5-2.5 2-1-.5 1.5 1.5 2.5 2.5.5-2 1 6 14-2 1 .5 2.5 1.5.5-2 1 1 2q-2.9 2.8 1.5 5.5l1.5.5-.5 3.5-1.5.5 2 1-2 5 2 1-2 1-.5 1.5-2.5.5 1.5 4.5 1.5.5 1.5 6.5 1-2 .5 2.5-1 3 1.5 2.5-3-5-1.5-.5-.5-1.5-2.5-.5-6-14 1-3-3-8q4-2 0-4l1-3-3-1 2-4-2.5-1.5v2l-2.5-1.5 1-4-2-1-.5 2.5-2-4-2.5-1.5-1-2 1.5-2.5-3.5-.5-1-3 2.5 1.5 4.5-.5-4.5-2.5-1.5-.5zm59 4 1.5.5-7.5 8.5 2.5-3.5zm-13 23 1.5.5-1 5 3.5 4.5 1.5.5-3 8 1 1-4.5 4.5-2-3-4 1-.5-2.5v-2l-.5-1.5-3-1-1.5.5 4-3-1.5 2.5 3.5-2.5 2-4-3 1 5-3 1-2 1-3zm25 8 10.5.5-10.5.5zm1 5 10.5.5-10.5.5zm-82 47 .5 4.5-5 2 6 1-.5 1.5-6.5-1.5 1.5-2.5 3.5-.5zm-32 8 5.5.5-1.5 2.5-2.5-.5 3-1zm152 0 .5 13.5h-1zm-6 1 .5 16.5-2.5 1.5v-1l1.5-.5zm13 22 .5 1.5-1.5 1.5h-17l-.5-1.5 1.5-.5 16 1zm-123 31 8.5.5-.5 2.5-1-2h-7zm-145 17 10.5.5-10.5.5zm-10 65 1.5 5.5-2 1 1-2h-2zm-25 19 .5 2.5-.5 1.5 27.5.5-27.5.5-2.5-1.5 2-1zm2 7 27.5.5-27.5.5z"/></svg>