<svg xmlns="http://www.w3.org/2000/svg" viewBox="0 0 1024 1024"><path fill="#0f0f0b" stroke="#0f0f0b" d="m520.5 204 6 1 28-1 25 3 14 4h2l35 8 17 7 26 6 2-1 18 5 31 13q19.8 10.2 33.5 26.5 17.1 17.4 29 40 10.3 17.7 16 40l15 27 10 36 2 30-2 17 1 2-5 35-9 31-30.5 72.5-.5-4.5 2-5-2 1-35.5 54.5-1.5.5-10.5 12.5q-27.3 28.7-72 40h-2l-31 8-31 12-28 5-3 2-26 3h-2l-29-1-10 1-2-1h-2l-4 1-11-1h-2l-14-1q-12.2 19.3-29 34l-4.5 3.5-.5 1.5q-23.4 22.6-56 36h-2l-27 8-3-1-48 15-5-3-22 5q-1.5-3.5-8-2l-8 2-2.5-4.5 10-6-5-4 3-5-1-1 25-25 10.5-12.5 1.5-.5q11.2-12.3 17-30l9-32v-2l1-18q-24.9-9.1-41-27l-.5-1.5-23.5-22.5-22-26-13-21-10-22-6-20-2-15 1-6-2-20 3-30v-2l-2-23 1-2-1-9 1-2-1-2 3-22v-2l6-25 13-27 31-45 21.5-22.5 37-25q35.9-16.1 66-38l27-13 38-10 67-6 2 1zm12.5 2-1 3-6 1 2 1q16-1 27 3h25l1-3-3-2-1 2h3v1h-5l1-2-1-1-1 2-1-1-1-1v2h-3l1-2-10-2-1 2h2v1l-3-1-1-1-1-1q-2-3-4 2l-1-1-2 1-2-3-2 1-2-1-1 2h2v1l-6-3-1 2h-1l-1-1zm-43 8-27 4-25 9-1 2 77-12v-2l-3 1zm-53 5q-28 7-48 20l-1 2 14-5 2 1 39-16 1-2-5 1zm113 14-34 4 7 2 6-1 2 1 9-1 2 1q15-4 37-2v-1zm25 6-2 2-6-1-13 1-1 2 72 12 42 12 21 9h2l-31-18-1-1q-13-8-29-11l-3-1-20-4h-2l-4-1-4 1h-2l-3-1-4 1-1-1-2 1-2-1-2 1zm-92 1-10 3-3-1-11 2-3 3-9 1-16 8v1l36-7h2l41-8q-11-4-27-2Zm201 0 2 3 33 17q9 12 26 19l11 19h2l29 34h1l-17-33-2-2-1-2-4-3 2-1-3-1-2-3-1-1-1-1-2-2-4-4-1-1-2-2-1-1-1-2h-1l-1-2-2-2v-1l-4-2-1-1-1-1-1-1h-1l-2-2h-1l-2-2-10-5-1-1-5-2-3-1-4-2-1-2-2 1zm-153 3-9 1h-4l-8 3-3-1-33 6-7 3-2-1-52 12-19 11h-2l7-5v-2l-33 10-28 19-1 2-2 1-1 2-28 24-1 2-5 4-1 2h-1q-30 28-41 75h2l14-21 2 1q-16 22-22 55l1 6-1 3v2l1 3v2l-1 3 2 22 1 1q-5-7-4-19v-2l-1-3 1-2-1-8-7 27 1 22 18 51 18 39 19 27 15 13 1 3 4 2 3 7q10 13 25 21l5-1 1 7 13 4 1-3 4-3 1 3-3 18-9 27-19 37-3-1v-4l19-40 8-27-6-3-2 1 2 4-2 1-2-1-3 7 1 4-6 28-15 37q-14 23-32 43l-3 4 39-15 69-51 3-4 4-3 24-29 2-5 5-3 1 3 8 1 3-6-6-3 1-5 8 1 1 1 9-9 1 1-6 8 4 1h24l5 1 43-4 49-9 20-2 37-11 43-27 32-29 14-15 4-2 27-38 7-17 9-78q0-19-4-33l-2 16-2 4 1 3-2 11-2-3 3-23-1-3 1-9q1-16-4-26l-25-53v-2l3 1 6 10 14 32h1q-2-20-8-34l-1-3-29-23-45-41 1-2 31 25v2l14 13 26 20h1l-4-9-16-21-15-12-1-1-13-7-4-4-1 1q-18-11-39-17-2-5-4-2l-2-1-1-2-2 1-1-1h-1l-45-11-2 1-25-5-1-1h-1l-13-2-1-2-3 1h-2l-3-1-2 1-4-1-1-1h-1l-8-1-1-2-1 2zm-95 6-15 7-34 10-2 3 35-9 18-10zm282 21 11 9v-1zm-396 5-27 17-1 2-15 11-7 8-3 2-3 5h-1l-22 32h-1l-8 13 1 2 21-27 6-5v-1l11-10 11-15 34-28v-1l6-4zm381 7 7 5h1zm-368 13q-22 12-39 29l-5 6h-1l-26 36 1 3-1 2h-1l-11 21 1 2 12-23 4-4-1-2-1 2h-2l21-26 3-2 2-3 45-40zm433 20-1 3 17 26 15 33q2 3 3 0-2-18-10-30l-18-24-1-1zm-520 41q-14 15-22 36l1 2 6-13 15-22zm523 10 10 44 2 15h1q1-20-2-34l-10-24zm-537 1-7 12 1 1 6-10zm577 12 1 29v2l8 36 1-15q3 15 3 34h1l-1-8 1-8v-2l1-3-1-4 2-5-1-1-4-22 1-3-1-1-2-3 1-2-2-1 1-2-1-1v-1zm-553 16-9 17-1 3-13 36q-1 17 5 28l11-42 3-22v-2l4-16zm532 28-1 13v2l-2 15 1 7-1 8 1 2v19l-3 22-10 38 1 2 3-4 6-17 7-33-1-3q4-11 3-26v-2l1-4-1-2 1-8-4-28zm30 39-2 9 1 2 1 2 1-6-1-3 1-3zm-587 11-2 4q-1 13 2 23v2l4 35 10 24 2 1q-8-26-9-59zm-23 34-1 2v2l1 2-1 4 2 10-1 2 4 28 19 42 3 2-10-25-8-35v-9l-7-24zm600 14q-13 25-21 54l1 2q14-24 21-55zm-563 2q3 47 23 80l31 28v1l-17-12h-2l3 5 39 32 9 5v-1l-2-2-25-26-8-8q-19-21-31-48zm514 47q-14 25-34 44l-3 2-3 4 3-1v-1l8-6q18-16 29-40zm-516 32 2 8 18 27 10 8v2l4 2h1l-34-46zm493 12-21 23-4 5 7-5 4-5 2-1 3-5 2-1 7-9zm-23 17-54 40 1 1 38-22 12-14 2-1 2-3zm36 4-39 32-3 4-38 23 1 1q33-9 55-30l4-5 2-1 15-18 2-1 2-4zm-74 20-56 30-34 13-13 3 8 1 45-13q8-8 22-12l28-20zm-58 23-15 4-22 2-39 8-34 4h-21l-1 2 8 1 21-1h2l14 1h2l7 2h12l27-6 33-12 7-4zm-288 17-6 28 1 3 7-27zm130 1-2 4v1l3-1 11 4h7l-10-3 1-3zm42 5-1 2 18 3q10 1 15-2l-13-3-3 1zm-61 6-20 25q-27 30-64 50l-6 7q34-15 61-38 19-19 34-41zm143 12-21 5h-10l-30 4 1 1 29-1 28-5 9-3zm-138 25-3 2-1 2-9 8-6 7 10-6 9-11zm-38 37q-17 12-38 20l-2 3q25-7 41-22z"/><path fill="#0f0f0b" stroke="#0f0f0b" d="m367.5 293 1.5.5-35 24-.5 1.5-4.5 2.5-.5 1.5-17.5 13.5-.5 1.5-5 4-1.5-.5-1.5 3.5-1.5.5-9.5 10.5.5-1.5 1-4 10.5-10.5 2.5-1.5.5-1.5 41-33zm154 60q17.1-1.6 28 3l2-1q17.7 5.8 29.5 17.5 14 16 20 40v2l4 12-4 2 2 9q-3 2 2 4l3 25v2l-1 21 2 14-1 2 1 2-1 9 1 6-1 2 3 37-1 4 2 15-2 14 3 2 1 3-5 3-.5 4.5-1.5.5-.5 1.5-3.5-2.5-1.5-3.5-13 2-2-1-8 2-2-1h-2l-28-1-5-2-6 1h-2l-11 1-4-1q-27 7-62 6l-4-2-3 7-2.5-.5-1.5-6.5q-11.5 1.5-17.5-2.5l-1-2 9.5-3.5 3 1 4.5-1.5-2-40 1-2-4-43 2-23-1-3 1-21 3-13-1-3v-2q2.3-21.2 11-36v-7l18.5-30.5 9.5-6.5.5-1.5q15.8-10.7 39-14Zm33.5 12 13 11q13 11 16 33h2l5 16-2 1 4 17q0 18 4 32 1 23-2 43l2 25v2l2 8 2-32 2-5-2-28v-22l-5-26-2-27-15-30q-9-13-24-18Zm-33 6-7 2q-4 2-2 11h2l6-8h1l-9 12 1 47 1 3-1 19h-1l1-19q-4-12-3-27l-2-5 1-9-4-2 3-5-1-8-23 31-2 6 2 5 12-15 7-6-20 24v8h2l3-5 3-2-8 12 2 23-1 2 1 4-1 2 1 3-1 6-3-25-1-1-2 1 3-4-1-7-3 5 1 2-2 3-3-1 7-11v-8l-1-1-7 9-1 28-1-23-1-1-3 2 5-8-1-6 1-6-1-4v-3l8-11-3-2-6 9-3 11-3 42 2 17-1 16 1 3v8l-1-3v-2l-1-2 1-7-1-23-2 2-2 22 4 43 5-7q3-2-2-4l3-9 1 1-2 7h2q2-5 4-1l-12 19v6h2l3-6 4-3-8 13 1 5 3-5 2-1v-1l3-2-9 14 3 7 7-12h1l-9 16 1 12h2l3-5-2-1q1-9 7-13l1-14q3 2 1 9h3l-2 8h2l2-1-3 4 1 6 4-5-1-33-2-9 1-7-1-5 2-6 1 1-1 2 3 21 1-3v6l-1 3 2 33v2l1 5h4q2-9-2-11l2-4 7-4-5 6 1 5-1 5 1 3h20l-2-6 2-38-1-17-1-3 1-3q3 5 1 16v2l1 39 3 10 19-3-2-5 3-7 3 12 19-3-1-7 1-17 2-1q-2 15 3 25l14-2-1-6 2-52v-2l2-11-5-26-1-15 1-16-2-11 1-2q-5-33-21-54l-3-3-1-1-12-9-1 21v2l2 19v12l-2-20-4-20v-14q-5-5-16-4Zm-18 5-2 1-18 22 1 4 4-5-1-1-2 1 7-8 2-1v-1l9-8 2-1-22 28 1 5q15-14 23-35zm-10 5-10 10-1 4h2l10-13zm-28 24-4 6 1 3 3-7zm12 10-4 5 1 6 4-6v-4zm1 8-2 3h-1q-5 3-3 12h2l5-7v-7zm-16 24-3 21 1 13 2-26zm-12 23-4 30 1 2-2 7 1 9 2-11-1-2 2-5 1-15zm143 76v12h1zm6 10v12l-2 16v2l1 2 4 1h1l-1-4 1-2-1-20zm-149 14v23l3-1-2-14v-2zm26 6-4 8h2l3-7zm9 7-4 6 1 3 3-1zm-9 1-4 8h5v-7zm104 3-25 2-3 2 5 1 15-2 11 1 1-3z"/><path fill="#0f0f0b" stroke="#0f0f0b" d="m529.5 378-.5 1.5-7.5 12.5-1.5-3.5 7.5-9.5zm5 1 .5 1.5-3.5 6.5-2.5-1.5zm14 10 1.5.5-1 5 1 16h-1zm15 15 3.5 48.5-2 1zm5 8 1.5.5v2l-.5 23.5-1.5-1.5zm-72 8 2.5.5-1 5 1 4q-1.5 3-3 0l-2-6zm31 22 2.5 2.5 1 17-1.5 6.5-4.5-19.5zm-31 20 3 9 2.5.5 2 14-1.5 6.5-2-6-2 1-.5-2.5zm73 6 7.5 3.5-2 8 1 3-1 2 3 21-1 5 1 6-1 8 4 16-4.5 6.5-2.5-.5-.5-1.5-15 4-8-3-1 2-2.5-3.5-1-28 1-2q-10 0-14-6l-3-12q2.4-9.1 9.5-13.5l4.5-.5-1-7 6.5-4.5zm-6.5 6-7 3-4-1-2 7 5 1 4 5 6-1q6 2 4 11-2 4-8 4l-4 6q-2 4-8 5l2 8-1 17 1 3 5-1 2 3 15-3 1 2h1l-2-53-1-13-1-2-2 1zm-20 13-7 9 1 5 1-3 2-1v3l6 2 1 3h-3l1 2 6-2h2l2-3-2-12zm-51.5-17 1.5 18.5 3.5 6.5 1.5.5-.5 2.5-2.5-1.5-5-9v-13zm273 32 .5 13.5-2 5 1 2-11 42-10.5 18.5-4 1 2.5-3.5 9-19 12-42-1-2zm-264 7 1.5 5.5-1 13 1 10-1 5 .5 1.5-1.5-.5-1-23z"/><path fill="#0f0f0b" stroke="#0f0f0b" d="m560.5 514 6.5 2.5 1 3-3 6 3 8-9.5 1.5-1.5-2.5 2-8-3-6 2.5-3.5zm-35 11 1.5.5 1 10-1.5.5zm12 20 1.5.5 1 20q-1.5 3-3 0l-1-17zm33 18 2 5 1-5 2.5 10.5-1.5.5-3-2-2.5-.5zm-67 16 .5 2.5-4.5 5.5-.5-2.5zm5 0 1.5.5 1 7-3.5 1.5-.5-6.5zm-219 19 6 7 11.5 5.5-.5 2.5q-10.4-2.1-14.5-10.5z"/><path fill="#f4f5f0" stroke="#f4f5f0" d="M.5 0 1024 .5l-.5 1023.5L0 1023.5zM539 203l-80 6-40 8-35 16-31 20q-33 15-61 34l-1 2-14 10-15 15-32 45-17 34-5 20v2l-3 20v27l2 6-3 36 1 18-1 3 3 29 15 39q17 29 40 53l15 13 6 8q17 16 40 26l-2 21-11 36-11 20-25 27-5 4-10 10-3 7 5 2v2l-9 5 2 5 13-2 6 3 17-5 6 1 1 2 51-16 1 2 33-10 13-6 36-26q20-18 37-41l7 1 2-1 3 1 7-1 19 2 10-1h2l5 1 6-1 5 1h2l29-3h2l13-4 2 1q30-6 55-18l35-9h2l33-14 26-20 20-21 29-46 3-2-2 3 1 4 14-28 21-56 9-40 3-35-1-3 1-4q-2-33-12-57l-15-27q-6-24-17-42l-16-25-6-6-4-5-25-24q-20-12-43-20l-30-7h-7q-27-12-59-18l-35-6z"/><path fill="#f4f5f0" stroke="#f4f5f0" d="m534.5 209 19 1h2l6 1h2l13.5 1.5q-2.5 4-11.5 1.5l-33.5-3.5zm-58 7 36.5.5-72.5 11.5v-1zm-39 4 4.5.5-31.5 13.5-2-1-17 6v-1q20.1-11.9 46-18Zm104 14h2l29.5 1.5-5.5 1.5h-4l-5-1q-17.1 3.4-39 2l-.5-1.5zm-50 6 16.5 1.5-74.5 14.5v-1l16-7h6l5-4zm66 1 4 1 20-1h20l27 5 21 7 36.5 20.5-2.5.5q-21.7-10.8-48-17L555 242.5zm127 0q46.5 10.5 71.5 42.5 19.4 19.6 31 47l-4-3-22.5-27.5-4.5-3.5q-4-12.5-13.5-19.5h-3l-20-17z"/><path fill="#f4f5f0" stroke="#f4f5f0" d="m528.5 244 32 4 70 13 26 7 29.5 13.5-1 2 45.5 42.5 22.5 16.5 9 12 6 27h-1L749.5 344l-4-3-1.5 2.5 24 50 5 16v14l-1 3 1 3-1 20-2 8v2l.5 6.5.5-2.5.5-1.5 1.5.5 3-12-1-5 2-3 .5-13.5 3.5 21.5v2l-4 43v2l-5 41-3 9-22.5 35.5-1.5.5-5.5 7.5-1.5.5-.5 1.5-3.5 2.5-.5 1.5-45 41-42 27-31 10-31 4-27 6-52 6h-28l-12.5-1.5 6-9-1.5-.5-2.5 1.5-.5 1.5-2.5 1.5-3.5 4.5-10-2-1.5 4.5 7 4-4.5 6.5-6.5-2.5-.5-1.5-6.5 3.5Q423.5 725 403.5 743q-20.6 19.4-47 33l-19 16-38 15 1.5-2.5 21-26 12-19 16-41 5-23-1-5 1.5-4.5 5.5-2.5-2-3 1.5.5 4.5 1.5-7 26-20 45 3.5 2.5 21.5-42.5 10-33v-9l-3.5-1.5-3 6-12.5-4.5 1-3-1.5-3.5-5 1-22.5-18.5-5.5-9.5-23.5-22.5-15-22-21-47-16-47v-21l5.5-23.5 1.5 15.5-1 3 2 12 2.5 3.5.5-6.5-2-13v-25l6-23 20-39q-2-3.5-4 1l-1.5 5.5-5.5 3.5-10.5 17.5-.5-2.5 6-20 16-30 20.5-23.5 1.5-.5 1.5-2.5 1.5-.5 2.5-3.5q24.8-24.2 54-44l36-12v1l-6.5 4.5.5 1.5 23-12 47-11h8l8-3 21-4h9l10-3 2 1zM371 291l-14 6-2 3q-24 14-44 33l-1 2-7 5-12 14 1 3 7-8 5-4 1-2q30-28 66-50zm152 61-11 2-22 8-13 9-10 10-10 17q-5 7-5 19l-5 10-6 36-2 48q-1 16 3 27l-1 4 1 2-1 9 1 35 2 10-16 3-1 4 4 2 10 1 4-1 4 8 4-7 11 2 4-1 7 1 30-4h2l18-3 6 1 2-1 38 3 17-1h4l2-1 2 1 6-1 1 4 3 1 4-3-1-2 5-3-1-5-3-2 3-15-3-24-2-79v-2l-1-21v-2l-4-12-1-10 4-2-5-11-3-16-14-24q-12-15-31-21l-4 1-14-4-8 1h-2zm245 134-2 8-2 1 2 5 2-4-1-3v-2l1-2zm-3 15-12 51-12 28-4 4 2 1 4-1q9-12 14-29l9-43q2-9-1-11Zm-477 93 5 11 12 8 3-1-11-7zm144.5-343 1.5.5-16.5 8.5-31 8v-1zm289 21 6.5 5.5-1.5.5zm-402 5-4 5-32.5 27.5q-9.7 16.4-24.5 27.5l-2.5 1.5-19.5 24.5.5-1.5 28.5-41.5 1.5-.5 1.5-3.5 4.5-3.5 6.5-7.5zm370 5q29 12 50.5 31.5l18 28-9.5-8.5-19.5-13.5-4.5-5.5-1.5-.5-10.5-11.5zm-356 14-4 5-27.5 23.5-1.5 2.5-17.5 16.5-12.5 15.5-3 2 1.5-2.5q12.2-19.8 28.5-35.5zm436 23 23.5 30.5q6.2 11.3 8 27l-2-1-12-28zm-524 41-.5 1.5-17.5 29.5.5-1.5q5.8-17.7 17.5-29.5Z"/><path fill="#f4f5f0" stroke="#f4f5f0" d="m556.5 366 20.5 14.5 13 22 5 19v15l6 33-1 2 1 2-1 18 2 19-1 3 1 4-3.5 30.5q-3.5-18.5-2.5-41.5l2-24-4-24 1-4-5-29 1-5-8-16-4-14-13.5-16.5zm-293 5 .5 1.5-10.5 18.5.5-1.5z"/><path fill="#f4f5f0" stroke="#f4f5f0" d="m523.5 371 14.5 3.5v21l3 10 1 21 1.5 3.5.5-17.5-1-3 1-8-2-9v-2l1.5-14.5 15.5 12.5q11.9 16.1 18 38 3.8 16.2 3 37v4q-.4 22.9 5 40v12l-2 8 1 6-1 8v2l1 4-3 23 1 12-13.5 1.5-1.5-3.5v-20l-1.5-1.5-2.5 2.5v19l1 3-19.5 3.5-2-11-3.5 1.5 1 10-18.5 2.5-2.5-24.5 1-2-1-4 1-2v-2l-2.5-31.5-1.5.5 1 30-2 26 3 9-5.5 1.5-3-1-2 1-9.5-1.5.5-2.5 5.5-4.5 1-3-1.5-.5-5.5 4.5-1-5 5-7-1.5-.5-4.5 3.5 1-9-2.5-1.5-1.5 2.5 2 9-4.5 7.5-2-42-1 2-2.5-18.5 1-3-2.5-.5-.5 1.5v2l2 49-3.5 2.5-1.5-3.5 2-4-2-1-1.5-7.5-1.5.5v12l-8 14 3 2-2.5 3.5-2.5-.5v-12l9-16-1.5-.5-8 13-1.5-7.5 9-14-8 7-1.5 2.5-.5-2.5 9-17-4 3-4.5 6.5-1.5-4.5q8.3-7.7 12-20l-2.5-.5-2.5 1.5 2-7-2.5-.5q-4 2.5-2.5 10.5l2 3-4.5 6.5-1.5-.5-2-47 1.5-15.5 2.5 37.5-1 7 1.5 2.5 1.5-29.5-1-3 1-3-2-27 1.5-16.5 4-2 .5 2.5-1 2v2q-2.2 12.3 1.5 18.5l1.5-2.5.5-15.5 4 1 1.5-4.5 1-3 .5-1.5.5 6.5-4 7 2-1 1.5-2.5 1.5 3.5 1 20 1.5 1.5 1.5-1.5v-27l-1-13 8-13-3 2-4.5 6.5-.5-7.5 19-25-6 5-13.5 17.5-.5-7.5 23.5-33.5.5 7.5-2 5 1.5.5 1.5-.5 1 26 2 4 1 15-1 2 1 2v2l-1 4 1.5 7.5 1.5-4.5v-27l-1-39 9-12-1.5-.5-7 8-.5-8.5zm6.5 6-11 14 4 1 8-14zm5 2-2 1q-5 1-4 7h3l4-7zm14 9-2 2 3 22 1-20-1-3zm14 16 1 38-1 2 1 10q2 3 3 0l-2-36 1-2-1-11zm6 7-2 2 1 24q2 3 3 0l-1-3 1-2-1-3 1-2-1-3 1-3v-2l-1-7zm-71 8-2 1-2 3 4 9 2-11zm29 23-2 5 3 20q2 3 3 0l-1-23zm-30 19-2 2 2 24 2 1 2-1 2 5 1-2-1-17-4-3zm72 7q-7 3-17 2l-9 5 1 7-5 1-9 12q-2 11 4 16l12 4 1 31 2 2 3-1 2 3 18-3 3 1 3-1 1-4 2-1-3-20v-2l1-2-1-2v-2l1-2-3-25q-2-11 2-15zm-77 1-3 10v8l7 11h3q-9-9-6-28zm-18 1v16l2 1zm27 38-2 3 1 2-2 14 1 2-1 2 2 14h2l1-9-2-10 1-5v-11zm25 16-2 2 3 11h1q2-11-2-13Zm12 21-2 2v18l3 3q3-2 1-10v-2l-1-10zm33 18q-4 2-2 10h3l3 2h1l-1-12-2 1zm-62 16-3 4q-1 5 3 6l2-1-1-8zm263.5-208 9.5 21.5 2 31h-1l-2-16zm-267 5-5 6-2.5 1.5-12.5 14.5.5-1.5 14.5-18.5zm2 1 .5 1.5-23.5 32.5-.5-3.5zm303 3q11.2 21.8 14.5 51.5v2q2.6 13.6-1.5 20.5l-3-24-1.5.5-.5 9.5-6.5-40.5 1-3zm-316 1-1.5 2.5-8.5 11.5-.5-3.5 7.5-8.5zm-238 17-.5 1.5-5 35-11.5 42.5-4.5-20.5q6.3-33.7 21.5-58.5Zm220 10 1.5.5-7.5 12.5-.5-3.5zm2 7 .5 3.5-4.5 6.5-.5-4.5z"/><path fill="#f4f5f0" stroke="#f4f5f0" d="m469.5 422 2.5 4.5-2 7 1 8-4 3q-1.6-14.1 2.5-22.5Zm9 2 1.5 5.5-5.5 7.5-.5-8.5zm312 1q5.4 18.6 3.5 44.5l-1 2 1 3-7 45-10.5 30.5-.5-4.5q11-29.5 13-68l-1-29zm-311 9 1.5 2.5v2l-7.5 12.5-.5-5.5zm91 41 4.5 60.5-1 2 1 2-.5 2.5-1.5-.5-.5-1.5-15 3-2-3-3.5.5-.5 1.5-.5-3.5 1-9v-2l-2-13 8-6 2.5-4.5q6.4-.1 8.5-4.5l1-6-4.5-5.5q-7.8 1.8-9.5-2.5l-.5-1.5-5.5-2.5.5-4.5 9-1 8 1zm-8.5 38-3 1-4 6 4 6-2 4 2 6q8 1 10-3l-3-6 2-10zm-329.5-37 1.5 3.5v2l5 19q1.1 30.4 8 55h-1l-9-21-3-21v-14l-2-6v-2l-1-12z"/><path fill="#f4f5f0" stroke="#f4f5f0" d="m544.5 487 4 2 2-1q5.5 3 3.5 13.5l-1.5 2.5-3 1-4 2 1-2 1.5-.5-1.5-2.5q-5.7.8-6.5-3.5l-.5-2.5-2 1-.5-1.5 5.5-7.5zm-95 4 .5 2.5v2l-1.5 5.5-.5-7.5zm-239 17 5.5 16.5 1 13 8 36 10 25-2-1q-11.7-19.3-19-43-4.5-21.5-3.5-46.5Zm599 14 .5 2.5q-7.4 28.6-20.5 51.5l.5-1.5q7.3-28.7 19.5-52.5Zm-562 4q12.6 41.9 32.5 76.5l10 15 37.5 39.5 1.5.5.5 1.5 2.5 1.5-1.5-.5-43.5-33.5-5-6 1.5-.5q6 8.5 17 12 3-1.5 0-3l-9.5-7.5-5.5-6.5-16.5-14.5Q251.5 569 247.5 526Zm353 32q4.6 11.4 2.5 29.5l-1.5.5-2.5-1.5-1-5 2-2v-20zm159 14-.5 1.5-7 14-21.5 24.5-2.5 1.5-1.5 2.5-1.5-.5 28-32zm-275 3 1.5 4.5-4.5 5.5-.5-4.5zm-34 3 2.5 14.5-1.5.5zm43 3 1.5 8.5-4.5 1.5-.5-4.5zm-17 4 1.5 3.5-1.5 3.5-3.5-.5zm82 4 6 1 11-1v1l-22 1v-1zm-310 19 2.5 1.5 28 38-1.5.5q-19.2-16.4-29-40Zm488 8-3.5 4.5-16.5 18.5-2 1 8.5-9.5zm-22 16-6.5 7.5-10.5 11.5-32 18 2-3zm36 4-.5 1.5q-11.2 17.8-27.5 30.5-20.3 17.7-50 26v-1l26-14 47.5-38.5.5-1.5zm-79 22 1.5.5-25.5 18.5-14 6-4 4-45 14h-6v-1l41-14zm-55 21 1.5.5q-30 15-68.5 21.5l-19-3-39.5-.5 13.5-1.5h2l40-4 36-8 3 1 6-2 3 1zm-286 17 1.5 4.5-2.5 8.5-.5-6.5zm130 1 8 1 1.5-.5-1 2 1.5 2.5 6.5 1.5-1.5-.5-10.5-1.5-.5-1.5-5.5-.5zm43 5q18.3-2.2 30.5 1.5l-15.5 1.5-15-2zm-62 6 4.5 1.5q-15.6 24.4-36.5 43.5-25.5 20-56 35l6-7q35.8-18.7 61.5-47.5zm142 12 4.5.5-31.5 6.5h-2l-21 2-8.5-1.5 35.5-2.5zm-138 25 .5 1.5-9.5 10.5-9 6 1-2 10.5-8.5zm-38 37 1.5.5q-16.4 13.1-38.5 20.5l1-2q20.4-7.1 36-19Z"/><path fill="#83817a" stroke="#83817a" d="m538.5 203 14.5.5-14.5.5zm-6 3 2.5.5.5 1.5 1.5-.5.5-1.5 4 2 1-2 2 1 2-1 1.5 2.5-3.5.5-2-1-15 3-1-2 5.5-.5zm22 0 2.5 1.5.5 1.5 1.5-.5.5-1.5 10.5 1.5-1.5 2.5-6-1-1.5.5-.5-1.5-5 1-3.5-1.5zm-75 1 12.5.5-12.5.5zm92 2 1.5.5.5 1.5 1-2 1.5.5-1.5 2.5-4.5-.5 2-1zm-17 4 10.5.5-10.5.5zm-65 1 20.5 1.5-32.5.5v-1zm122 0 10.5 2.5-2.5.5-8-2zm-140 2 4.5.5-14.5 3.5 1-2zm-14 4 2.5.5-8.5 2.5v-1zm-43 6 2.5.5-8.5 3.5v-1zm116 8 10.5.5-10.5.5zm-136 1 1.5.5-5 3 2 1-5.5 1.5 1-2zm179 0 5.5.5-.5 1.5-10.5-.5zm110 5 7.5 2.5-1.5.5-3-1-1.5.5.5-1.5zm-67 3 9 2 2.5.5-3.5.5-6-1zm-158 1 1.5.5q-1.9 4.6-9.5 3.5v-1q6.8 1.3 8-3Zm59 0 2.5.5-.5 1.5-2-1-7 2v-1zm179 0 8 3 2.5-1.5.5 2.5 3.5 1.5-1.5.5zm-134 3 3 1 1.5-.5.5 1.5 2.5.5-2.5.5-6.5-1.5zm70 0 16.5 5.5-1.5.5-13-4zm80 2 7.5 3.5.5 1.5 10.5 4.5 1.5 2.5 1.5-.5 1.5 2.5 1.5-.5.5 1.5 1.5.5.5 1.5 4.5 1.5-.5 1.5 2.5 1.5.5 2.5 1.5-.5.5 2.5 1.5.5 1.5 2.5 1.5.5 3.5 4.5 2.5 1.5.5 1.5 1.5.5 1.5 3.5 3.5.5-2 1 4 3 .5 2.5 2.5 1.5 8 16h-1l-12-20-29.5-30.5-24.5-13.5zm-239 3 3.5.5-9.5 2.5v-1zm-24 5 4.5.5-9.5 1.5v-1zm-39 1 2.5.5-9.5 2.5v-1zm255 3 14.5 8.5-1.5-.5zm79 1 12 13zm-354 2-1 2-3.5 1.5.5 1.5-2.5-.5zm334 0 6 7zm-315 3 1.5.5-9.5 5.5 1-2zm308 3 3.5 1.5 1.5 2.5h2l4.5 3.5-.5 1.5-1.5-.5q2.7-1.7-1.5-3.5l-1.5.5.5 1.5zm-31 3 5.5 3.5-1.5.5-6.5-2.5zm-365 2 2.5.5-4.5 3.5h-2l-5 3 1-2zm364 5 19 9q2.2-3.2 4.5 2.5l-1.5-.5-18-9h-2l-1.5.5-.5 1.5-.5-1.5zm17 2 12.5 6.5-.5 1.5zm-394 1-1 2-6 4 2-3zm52 0-1 2-6 4 2-3zm327 1 10 11zm78 0 5 6zm-414 5-2 3-4 3 4-5zm361 4 10.5 5.5.5 1.5 9.5 6.5-2.5-1.5zm-421 2-1 2-5 4 4-5zm52 0-3 4-6 5-.5-1.5 3-2 .5-1.5zm357 1 33.5 31.5-2.5-1.5zm-424 3-14 15zm52 2-5 6zm435 3 10 11zm-485 1-5.5 6.5-3.5 4.5-1.5.5-1.5 3.5-.5-1.5 2.5-3.5 3.5-2.5zm53 0-6 7zm12 5-3 4-3 2 2-3zm-33 1-5 6zm13 1-6 7zm444 3 4.5 5.5q-1.5 3-3 0l.5-1.5-2.5-1.5zm12 1 6.5 11.5h-1zm-476 1-5 6zm-39 3 .5 1.5-9.5 12.5 1.5-2.5zm50 0-6 7zm431 1 10.5 14.5-2-1zm-422 5-6 7zm417 4 2 4 3.5 2.5-2.5-1.5-4.5-3.5zm40 2 7.5 9.5-3-2zm-483 4-3.5 4.5-7.5 8.5 6.5-7.5zm5 4-9 10zm451 3 6.5 4.5 1 3 2 7h-1q-1.7-10.6-8.5-14.5Zm-455 6-7 8-.5-2.5.5-1.5 1 2zm-22 3-5 6zm-28 2 1.5.5-3 5-1.5 2.5-2.5.5-3.5 4.5 2.5-3.5zm20 4q3.7 2.2-1.5 4.5l-2 4 2.5.5v-2l1.5 1.5-4 4-.5 1.5-.5-2.5v-2l2.5-6.5 1.5-.5zm-32 3q3 1.5 0 3l-1.5.5-1 3-1.5 3.5-1.5.5v2l-3.5 6.5-.5-1.5 4.5-8.5 1.5-.5 1-3 1.5-3.5 1.5-.5zm39 5-1.5 2.5-2.5 4.5.5-1.5zm-37 2-.5 1.5.5 2.5 2.5-1.5-7 4zm276 5-.5 1.5 1 9-1.5.5-.5-9.5zm28 2 2.5 1.5h-2l-.5 7.5zm-39 1 2 1 2-1-1 2-1.5.5q5.3 2.2 4 11h-1l-1.5-7.5-2.5-.5 1-2h-2l1.5-2.5zm13 8-2.5 3.5-.5 31.5-.5-31.5zm-241 1 1.5 2.5-1.5 2.5-6 3 3-4 3.5-1.5zm273 3 1.5.5-2 1-.5 9.5-.5-9.5zm-58 2 2.5.5-6 5zm13 11-2 5-3.5.5zm316 1 1.5.5-1 2 1.5 3.5 1.5.5-1 3 2 13h-1zm-323 7 2.5.5-6 3zm14 1 .5 11.5h-1zm58 1 1.5.5-2 1-.5 22.5-.5-22.5zm-3 7 .5 16.5h-1zm224 5 1.5.5-1.5 11.5zm-304 2-.5 1.5 1 8-1.5.5-.5-8.5zm78 2 .5 13.5h-1zm-93 3 1.5 9.5h-1zm349 0 1.5.5-1.5 15.5-1.5-5.5zm-353 4 1 11 3.5-2.5-4.5 5.5zm310 1 .5 7.5-1.5 2.5-.5-1.5zm-4 1 .5 10.5h-1zm-258 6 .5 11.5h-1zm315 7 .5 11.5h-1zm-344 2 .5 10.5h-1zm339 0 .5 4.5v2l-.5 7.5-1.5-.5 1-6-1-4zm-354 1 .5 15.5h-1zm10 0v2l1.5.5-.5 3.5-1-3-5 7 .5-1.5 2.5-5.5 1.5-.5zm290 5 2.5 5.5h-2l1 2-2 1 1-7zm-274 4 1 2-1.5-.5-.5 7.5-.5-7.5zm-35 3 .5 2.5-1 4 1 5-1.5 5.5-.5-13.5zm-11 6 .5 2.5-1 2 1 10h-1l-1-3v-2zm23 0 1.5 7.5-1.5 4.5zm-8 4 .5 11.5h-1zm97 0 5.5 2.5-7.5.5-1-2zm38 0 .5 11.5h-1zm7 1 .5 14.5h-1zm-144 2 .5 11.5h-1l-1-10zm-219 3 .5 17.5h-1zm11 2 .5 4.5 1 3-.5 1.5-2.5-3.5zm342 0 .5 10.5h-1zm-60 11 .5 1.5-1 2 1.5-.5 1.5.5-2 1-1.5 3.5-.5-5.5zm17 1 .5 7.5-2.5 3.5-2.5-.5 3-1zm-107 5 1.5 4.5v2l-.5 1.5-1.5-4.5v-2zm121 0-3 4-6 2 1-2zm196 2q3.8 2.3 1.5 10.5h-1zm-218 1 2.5 3.5-2.5 1.5-3.5-1.5 2.5-.5 2 1-.5-1.5zm27 3 .5 10.5h-1zm-15 1-.5 1.5-4.5 5.5 3.5-4.5zm-112 2 1.5 8.5-2 1zm18 10 1.5 2.5v2l-.5 4.5zm87 11 .5 8.5-1.5 4.5-.5-3.5zm58 5 .5 15.5h-1zm-10 4 .5 9.5-2 1zm-27 7 1.5.5.5 1.5 1.5.5-1.5.5-3-1-5.5-.5zm-22 1 7.5 2.5-4.5 1.5-2-3-1.5.5zm-66 1 .5 16.5h-1zm4 3 .5 11.5h-1zm-25 1 2 5 1.5-.5-1.5 2.5-1-2-1.5-.5zm-218 3 1 2 1.5-.5 1 6-2-1zm197 5 .5 28.5h-1zm123 0 1.5 1.5v16h-1zm-71 10 1.5.5.5 5.5 4-4 1.5 1.5-5.5 3.5-1.5-1.5zm-9 2 .5 7.5h-1l-.5-3.5-2.5 1.5.5 1.5-2.5-1.5.5-2.5 1 2 3.5-2.5zm84 1h2l4.5 2.5-1.5.5-3-2zm-26 6 1 9 1.5.5-1.5.5q-3.8-2.3-1-10Zm-51 2 2.5 1.5-.5 7.5-1-8-2 3-1.5-.5zm248 0-2 4 7-4-3 4-4 1q-4-2.5 2-5Zm-239 1-2.5 3.5-1 5 9 1-9.5.5-.5-3.5zm-51 1 .5 10.5h-1zm116 6q10.6-1.1 17 2l1.5-.5-2.5 1.5-16-2zm182 4-4.5 5.5-5.5 6.5 4.5-5.5zm-460 5 5.5 4.5q-2.5 2-5-2l.5-1.5zm444 0-12 13zm-462 5 6 7zm23 2 2.5.5-1 1 3.5 4.5zm444 1-6 7zm-4 1-5 8-1.5-1.5zm-16 5-10 11zm22 1-1.5 2.5-.5 1.5-2.5 1.5q2.8 1.8-1.5 3.5l-1-1-8.5 7.5zm-454 3 5 6zm15 4 13 14zm403 5-3 4-15 13 2-3zm-405 1 7 8-5.5-3.5zm424 5-5 6zm-457 6 8 9zm43 0 19.5 20.5-11-10zm398 6-7 8zm36 0-5 6zm-433 1 5 6zm-47 2 13 14zm66 4 11 12zm-11 1 6 7zm423 0-8 9zm6 4-9 10zm-81 13h2l1.5.5-2.5 1.5-1.5-.5-.5 1.5-1.5-.5-1.5 2.5-.5-1.5zm-335 28 2.5 3.5h-1l-1.5-2.5-1 6-.5-5.5zm-8 1 .5 10.5h-1zm165 0 16.5.5-16.5 1.5zm7 2 11.5.5-11.5.5zm8 3 15.5.5-15.5 1.5zm-176 17 1.5.5-3.5 10.5-.5-2.5zm114 0-6 7zm-13 7-5 6zm-7 8-15 16zm0 9-8 9zm-18 1-5 6zm-65 6 3 6 2-1-1 2-3.5-2.5zm106 1-6 7zm9 2-7 8zm-19 4-2 5-2.5-.5zm-19 21 1.5.5-7.5 4.5v-1zm-96 5-5 6zm39 0-3 5 1.5.5-1.5.5-1.5-.5-.5 1.5-1.5-.5zm-74 4-9 10zm-15 15-9 10zm-10 13-1.5 2.5.5 1.5 2.5 1.5-1.5-.5-2.5-1.5z"/></svg>