<svg viewBox="0 0 1024 1024" version="1.1" xmlns="http://www.w3.org/2000/svg" desc="Created with imagetracer.js version 1.2.6" ><path fill="currentColor" stroke="rgb(0,0,0)" stroke-width="1" opacity="1" d="M 676.5 104 Q 691.9 101.6 697 109.5 Q 700.9 112.5 700 119 L 697 117.5 L 691.5 110 L 681.5 108 Q 668.5 109 663 117.5 L 659.5 125 L 654 122.5 L 649.5 116 L 641.5 115 Q 629.4 117.4 623 125.5 Q 619 131.5 620 142.5 L 621 149.5 L 618.5 153 L 611.5 154 L 597.5 150 Q 586.2 154.2 580 163.5 Q 574.3 168.8 576 181.5 L 579 187.5 L 576.5 189 L 572 185.5 Q 568.3 179.7 570 168.5 Q 574.6 153.6 586.5 146 Q 591.8 140.8 603.5 142 L 613 145 Q 610.8 126.3 621.5 119 Q 630.4 109.9 648.5 110 L 657.5 117 L 662.5 110 L 676.5 104 Z " /><path fill="currentColor" stroke="rgb(0,0,0)" stroke-width="1" opacity="1" d="M 726.5 123 L 729.5 127 L 732 126 L 730 130.5 L 732 134.5 L 730.5 138 L 724.5 139 L 723 136 L 721 134.5 L 720 131 L 718 130.5 L 720 130 L 719 126.5 L 720.5 127 L 726.5 123 Z " /><path fill="currentColor" stroke="rgb(0,0,0)" stroke-width="1" opacity="1" d="M 665.5 141 L 668 142 L 669.5 145 L 669 146.5 L 672 148 L 672.5 144 L 674 146.5 L 672 149.5 L 673.5 149 L 675 151.5 L 673.5 154 L 671 153 L 672 155.5 L 669.5 157 L 668 156.5 L 669.5 158 L 669.5 159 L 666.5 158 L 661 160 Q 662.3 163 658.5 162 L 657.5 165 L 653 167 L 651 165 L 652 167.5 L 647 170 L 645.5 172 L 645.5 173 L 648 174.5 L 642 184.5 L 644.5 185 L 653 179.5 L 657 167.5 L 656.5 166 L 664.5 165 L 676.5 171 L 683.5 171 Q 693.5 167.5 699 159.5 L 701.5 156 L 704 161.5 L 695.5 173 Q 689.4 179.4 675.5 178 L 663.5 172 L 659 184.5 L 651.5 192 Q 647.1 195.1 638.5 194 L 637 188.5 L 641 185.5 L 639.5 185 L 632.5 189 L 629.5 188 L 630 189.5 L 628.5 191 L 622.5 194 L 616 191.5 L 615.5 189 L 614 189.5 L 610.5 185 L 609 186.5 L 604 188 L 602.5 191 L 599.5 193 L 593 189.5 L 591 186 L 593 184 Q 589.7 185.3 591 180.5 Q 595.3 178.1 595 172 L 597 170.5 L 600.5 166 L 604.5 164 L 606.5 164 L 611.5 162 L 613.5 163 L 619 162 L 619.5 165 L 620 163 L 627 160 L 629.5 155 L 631 153.5 L 641.5 148 L 642 149.5 L 641.5 151 L 643 149.5 L 644 149.5 L 644.5 151 L 645 149 L 654 148 L 654.5 146 L 657.5 147 L 659 144 L 666 142.5 L 665.5 141 Z " /><path fill="currentColor" stroke="rgb(0,0,0)" stroke-width="1" opacity="1" d="M 725.5 156 L 726.5 159 L 727.5 157 L 729 159.5 L 727 163 L 724.5 164 L 724 162 L 727 160.5 L 724 160 L 725.5 156 Z " /><path fill="currentColor" stroke="rgb(0,0,0)" stroke-width="1" opacity="1" d="M 684.5 160 L 686.5 163 L 685 164.5 L 684 167.5 L 682.5 169 L 680 165.5 L 681 161 L 684.5 160 Z " /><path fill="currentColor" stroke="rgb(0,0,0)" stroke-width="1" opacity="1" d="M 537.5 189 L 540 190 L 540.5 192 Q 543 187.5 552.5 190 L 572.5 194 L 633.5 199 L 670 217.5 L 671 225.5 L 669 243.5 L 666.5 247 L 664.5 248 L 662 247 L 660.5 250 Q 653.2 247.4 655 253.5 L 658 257.5 L 652 264.5 L 652 267.5 L 657 277.5 L 655 284.5 L 671.5 289 L 677 292.5 L 678 304.5 L 677 306.5 L 689 314.5 L 692.5 328 L 733.5 355 L 772 391.5 Q 820 446 848 520.5 L 866 582.5 Q 872.3 609.7 872 643.5 L 874 649.5 L 873 666.5 L 871 670.5 L 870 702.5 L 874 727.5 Q 876.4 737.6 883 743.5 L 883 748.5 L 882 750.5 Q 894.5 760 893 783.5 Q 888.8 811.3 872.5 827 L 862 833.5 L 859.5 837 Q 839 857 812.5 871 Q 783.9 885.1 751 894 L 749.5 897 L 730.5 903 L 692.5 908 L 660.5 911 L 608.5 913 L 606.5 913 L 512.5 915 L 478.5 919 L 397.5 920 L 386.5 918 L 332.5 919 L 278.5 915 L 249.5 915 L 238.5 916 L 235.5 915 L 233.5 915 L 171.5 915 Q 159.4 913.6 154 905.5 L 153 902.5 Q 153.2 891.2 160.5 887 L 186.5 874 L 231 859 L 229.5 856 Q 213.2 845.8 201 831.5 Q 163.2 792.3 145 733.5 Q 136.4 706.6 132 675.5 L 131 615.5 Q 142.2 537.2 173 478.5 Q 202.1 429.6 244.5 394 Q 299.2 343.7 368.5 308 Q 401.7 291.2 441.5 281 Q 463.6 276.1 492.5 278 L 500 279 L 499 276.5 Q 498.8 268.3 503.5 265 L 525.5 263 L 527 261.5 L 526 255.5 L 529.5 249 L 538 247 Q 535 244.8 536 237.5 L 540 225 Q 532.6 225.5 529 221.5 L 528 214.5 L 532 197.5 L 537.5 189 Z M 540 193 L 540 198 L 547 197 L 552 198 L 553 198 L 540 193 Z M 498 295 L 487 300 L 486 302 L 500 300 L 501 296 L 498 295 Z M 460 297 L 428 304 L 377 324 Q 336 344 302 370 L 292 389 L 291 406 L 290 407 L 287 403 Q 285 389 289 382 L 290 380 L 267 398 Q 257 404 255 418 L 255 438 L 261 461 L 281 494 L 299 509 L 307 499 Q 334 467 375 449 L 415 434 Q 432 429 455 429 Q 475 429 490 432 L 487 421 Q 486 373 507 348 L 513 343 Q 498 365 493 398 Q 491 420 497 433 L 508 435 L 507 432 Q 504 403 514 389 L 517 387 Q 512 408 512 435 L 544 444 Q 568 454 586 471 Q 593 441 611 422 Q 646 381 707 365 Q 713 366 713 364 L 692 349 L 690 350 L 683 348 L 679 350 L 679 352 L 676 353 L 673 354 L 668 353 L 664 354 L 663 350 L 664 346 L 666 346 L 675 343 Q 678 342 675 340 L 654 345 L 647 342 L 641 344 L 634 343 L 616 336 L 619 332 Q 630 331 636 336 L 643 335 L 644 332 Q 633 330 627 322 L 623 324 L 619 331 L 612 330 L 615 339 L 614 342 L 611 345 L 600 348 Q 579 347 569 336 L 570 331 Q 574 325 583 324 L 581 322 L 582 318 L 579 315 L 571 316 L 563 315 L 561 317 L 555 322 L 538 325 L 532 325 L 504 314 Q 499 312 499 306 L 483 309 L 475 306 Q 448 331 443 378 Q 446 387 440 385 L 439 378 L 439 363 L 447 335 Q 456 312 473 298 L 460 297 Z M 595 323 L 593 326 L 581 332 L 579 334 L 589 337 L 603 337 L 604 336 L 603 330 L 595 323 Z M 717 373 Q 664 383 632 414 Q 614 429 603 450 L 596 468 L 596 481 L 606 489 Q 613 467 628 452 Q 649 429 675 412 L 709 394 L 728 389 L 743 390 L 744 390 L 728 374 L 717 373 Z M 728 394 Q 674 410 640 445 Q 619 462 609 490 L 609 494 Q 633 517 650 548 Q 665 571 668 606 Q 703 576 764 570 L 788 571 L 789 574 L 787 573 Q 710 574 670 612 Q 668 619 672 621 Q 686 609 709 605 L 716 606 L 683 621 L 672 630 L 673 650 Q 703 626 753 620 L 794 621 Q 825 628 849 642 L 854 647 Q 853 601 843 567 Q 825 556 798 552 Q 770 549 752 556 L 751 554 L 774 547 Q 814 544 838 558 L 841 561 Q 817 473 767 413 Q 743 413 725 419 L 687 436 L 684 435 Q 708 413 748 407 L 760 407 L 760 406 L 750 395 L 728 394 Z M 250 414 Q 211 447 185 494 Q 164 537 153 590 L 154 597 Q 163 607 178 613 Q 200 620 228 623 L 255 622 L 258 598 L 248 601 Q 222 602 207 593 L 205 589 L 234 596 L 258 595 Q 267 555 286 527 L 266 516 Q 247 502 239 477 L 241 473 Q 247 488 258 500 Q 270 514 291 521 L 296 512 L 283 504 Q 257 481 249 441 L 250 417 L 250 414 Z M 443 446 Q 426 460 423 489 Q 421 513 431 527 L 435 526 Q 456 526 472 531 Q 493 537 509 548 L 510 539 L 519 523 Q 539 495 583 492 L 557 470 Q 536 471 525 481 L 509 498 L 506 498 L 514 485 Q 524 472 542 466 Q 548 468 547 464 Q 532 456 513 452 L 475 446 L 443 446 Z M 432 447 Q 371 461 332 497 L 332 508 L 339 522 L 338 524 Q 327 518 327 502 Q 291 538 275 594 L 277 601 Q 292 613 318 615 L 317 617 Q 287 619 274 605 L 271 619 Q 268 654 277 677 Q 290 709 312 732 L 325 742 L 324 739 Q 322 714 333 702 L 339 697 L 340 698 Q 330 707 328 725 Q 327 739 331 748 L 340 754 L 341 754 L 339 748 Q 337 726 343 713 Q 351 695 364 684 Q 341 667 337 633 L 324 636 L 311 636 L 310 635 L 315 632 L 336 628 L 342 597 Q 351 576 364 561 Q 380 541 406 532 Q 399 523 397 510 L 398 498 Q 396 490 401 492 Q 399 518 412 530 L 424 527 Q 418 518 417 504 Q 414 465 433 449 L 432 447 Z M 576 498 Q 553 502 538 513 Q 518 525 513 552 L 520 557 Q 550 583 555 636 L 553 657 L 546 686 L 539 706 L 549 707 Q 561 711 569 721 L 569 723 L 546 711 L 537 710 Q 524 732 508 750 Q 487 772 453 783 Q 454 829 477 855 Q 488 872 511 879 L 538 866 L 539 864 L 520 854 L 504 837 L 505 833 L 509 839 Q 522 854 543 861 L 548 860 L 556 854 L 585 823 L 586 821 L 584 822 Q 567 820 559 811 L 552 805 L 552 801 L 577 814 L 592 815 Q 626 769 645 709 L 642 704 Q 633 692 619 686 Q 595 677 565 674 Q 558 676 559 672 L 568 670 L 586 671 L 619 679 Q 637 686 648 699 L 651 688 L 651 683 L 646 675 L 637 668 L 610 660 L 608 657 Q 638 657 653 673 L 655 654 Q 655 609 644 576 Q 628 539 603 512 L 590 499 L 576 498 Z M 425 541 Q 405 545 392 555 Q 361 577 352 620 Q 351 648 365 662 Q 376 676 396 681 Q 425 682 440 668 Q 450 659 453 644 Q 454 625 446 616 Q 440 607 430 603 Q 416 601 410 607 L 402 618 L 403 630 L 410 633 L 423 631 L 425 635 L 424 639 Q 420 645 411 646 L 397 642 Q 389 637 387 628 Q 386 609 394 601 Q 404 589 423 587 Q 440 587 450 596 L 464 615 L 466 616 L 467 614 Q 473 605 485 601 L 491 602 L 478 609 L 467 623 L 468 631 L 470 629 Q 482 618 503 615 Q 512 614 518 617 L 519 620 L 514 619 Q 484 621 469 636 Q 469 664 454 678 Q 438 693 413 698 Q 383 700 369 686 Q 349 701 344 730 Q 343 746 346 758 L 359 763 L 360 764 L 358 758 L 359 739 L 360 739 L 359 744 L 362 765 Q 376 771 396 772 Q 455 772 488 746 L 499 734 Q 495 715 485 704 L 473 693 L 469 688 L 487 698 Q 499 709 504 729 L 513 717 L 505 701 L 498 692 L 504 695 Q 512 701 516 713 Q 533 686 538 648 Q 540 626 535 612 Q 529 592 517 578 Q 501 559 477 549 L 447 541 L 425 541 Z M 151 604 L 149 615 L 149 667 Q 153 698 161 725 Q 177 780 212 817 L 220 824 L 219 820 Q 218 793 226 775 L 245 746 Q 259 728 280 718 L 276 711 Q 256 716 244 728 L 231 744 L 229 745 L 237 729 Q 250 712 273 706 Q 256 679 254 638 Q 244 646 229 648 Q 213 649 204 644 Q 237 646 254 632 L 255 625 L 238 628 Q 206 628 182 621 Q 163 616 151 604 Z M 755 629 Q 709 634 680 655 L 671 667 L 671 675 L 667 696 Q 683 684 705 676 L 709 677 Q 686 686 668 701 L 664 705 L 655 732 L 656 734 Q 674 718 702 710 L 706 713 L 705 715 Q 676 725 656 743 Q 643 753 639 771 L 639 772 L 658 757 L 660 759 L 640 778 L 628 790 L 611 817 L 604 823 L 589 840 L 586 844 L 599 835 L 647 792 L 682 769 L 720 750 Q 736 743 759 741 Q 816 737 847 761 Q 856 770 860 785 Q 856 802 846 815 Q 827 833 802 845 L 796 843 L 797 839 L 821 819 Q 833 810 840 795 L 840 790 L 827 807 Q 783 849 712 864 L 694 864 Q 724 860 747 849 Q 784 834 815 811 L 837 782 L 837 780 L 836 778 L 825 792 Q 807 810 783 822 Q 756 835 724 842 Q 717 843 718 841 L 785 812 L 811 794 L 828 773 L 820 770 L 816 779 Q 804 793 785 801 L 779 800 L 796 787 L 813 768 L 779 761 L 767 761 L 738 766 L 718 773 L 680 792 L 648 814 L 605 851 L 591 860 L 605 869 Q 619 872 639 871 L 641 871 Q 656 868 676 869 L 696 865 L 701 866 Q 695 873 683 875 L 650 879 L 616 879 Q 601 878 593 872 L 586 864 L 546 887 L 527 893 L 526 895 L 568 890 Q 612 889 651 893 Q 785 888 857 821 Q 871 807 877 785 L 877 779 L 872 763 L 875 762 L 874 758 L 871 760 L 866 753 L 860 746 L 832 729 Q 817 723 799 722 Q 770 720 750 725 Q 715 734 687 748 L 684 744 Q 719 720 771 712 Q 828 708 857 731 L 854 718 Q 831 694 790 690 Q 767 687 752 692 L 743 692 Q 756 685 775 683 Q 801 681 820 687 Q 839 693 853 703 L 854 665 L 853 659 Q 845 648 832 643 L 800 632 Q 781 627 755 629 Z M 284 723 L 268 733 Q 250 748 237 769 Q 227 786 226 814 L 228 825 L 227 831 L 239 840 L 241 842 L 239 834 Q 236 801 251 786 L 253 787 Q 246 798 245 816 L 246 832 L 252 850 Q 294 881 354 894 L 357 894 Q 343 880 341 855 L 344 843 Q 346 868 357 884 L 373 896 L 401 900 L 454 897 Q 479 893 499 884 Q 502 885 501 882 L 486 873 Q 453 848 447 798 L 448 783 L 437 785 L 436 789 Q 435 818 445 837 L 443 838 Q 432 826 430 805 L 431 786 L 421 788 Q 386 791 363 783 Q 334 773 314 756 L 284 723 Z M 246 869 Q 220 881 190 889 L 173 898 L 171 900 L 179 901 L 234 900 L 236 901 L 248 900 Q 279 898 306 902 L 314 902 L 292 893 L 246 869 Z " /><path fill="currentColor" stroke="rgb(0,0,0)" stroke-width="1" opacity="1" d="M 499.5 322 Q 508.9 320.6 512 325.5 Q 513 332 508.5 333 L 497.5 335 L 486 329.5 L 487.5 327 L 499.5 322 Z " /><path fill="currentColor" stroke="rgb(0,0,0)" stroke-width="1" opacity="1" d="M 548.5 335 Q 554.6 333.8 554 336.5 L 556 340.5 L 555.5 343 Q 547.8 344.8 546 340.5 L 548.5 335 Z " /><path fill="currentColor" stroke="rgb(0,0,0)" stroke-width="1" opacity="1" d="M 648.5 352 Q 659.9 350.6 662 358.5 L 659.5 363 Q 650.3 362.7 646 357.5 L 648.5 352 Z " /><path fill="currentColor" stroke="rgb(0,0,0)" stroke-width="1" opacity="1" d="M 619.5 353 L 622 354 L 620 360 L 626.5 363 L 627 361.5 L 625 356.5 L 628.5 354 L 633 357.5 L 635 362.5 L 633 370 L 627.5 371 L 612 362.5 L 614.5 357 L 619.5 353 Z " /><path fill="currentColor" stroke="rgb(0,0,0)" stroke-width="1" opacity="1" d="M 781.5 517 L 805.5 517 L 812 520.5 Q 813.4 525.5 806.5 523 L 800.5 521 L 781.5 520 L 780 518.5 L 781.5 517 Z " /><path fill="currentColor" stroke="rgb(0,0,0)" stroke-width="1" opacity="1" d="M 779.5 850 Q 786.4 847.5 785 852.5 Q 771.6 861.9 753 865 L 755.5 861 L 779.5 850 Z " /><path fill="rgb(255,252,255)" stroke="rgb(255,252,255)" stroke-width="1" opacity="0.00784313725490196" d="M 0 0 L 1024 0 L 1024 1024 L 0 1024 L 0 0 Z M 677 104 L 663 110 L 658 117 L 649 110 Q 630 110 622 119 Q 611 126 613 145 L 604 142 Q 592 141 587 146 Q 575 154 570 169 Q 568 180 572 186 L 577 189 L 579 188 L 576 182 Q 574 169 580 164 Q 586 154 598 150 L 612 154 L 619 153 L 621 150 L 620 143 Q 619 132 623 126 Q 629 117 642 115 L 650 116 L 654 123 L 660 125 L 663 118 Q 669 109 682 108 L 692 110 L 697 118 L 700 119 Q 701 112 697 110 Q 692 102 677 104 Z M 727 123 L 721 127 L 719 127 L 720 130 L 718 131 L 720 131 L 721 135 L 723 136 L 725 139 L 731 138 L 732 135 L 730 131 L 732 126 L 730 127 L 727 123 Z M 667 142 Q 665 146 659 144 L 658 147 L 655 146 L 654 148 L 645 149 L 645 151 L 644 150 L 643 150 L 642 151 L 642 150 L 642 148 L 631 154 L 630 155 L 627 160 L 620 163 L 620 165 L 619 162 L 614 163 L 612 162 L 607 164 L 605 164 L 601 166 L 597 171 L 595 172 Q 595 178 591 181 Q 590 185 593 184 L 591 186 L 593 190 L 600 193 L 603 191 L 604 188 L 609 187 L 611 185 L 614 190 L 616 189 L 616 192 L 623 194 L 629 191 L 630 190 L 630 188 L 633 189 L 640 185 L 641 186 L 637 189 L 639 194 Q 647 195 652 192 L 659 185 L 664 172 L 676 178 Q 689 179 696 173 L 704 162 L 702 156 L 699 160 Q 694 168 684 171 L 677 171 L 665 165 L 657 166 L 657 168 L 653 180 L 645 185 L 642 185 L 648 175 L 646 173 L 646 172 L 649 170 L 648 169 L 650 169 L 652 168 L 651 165 L 655 167 L 654 165 L 655 162 L 655 165 L 658 165 L 659 162 Q 662 163 661 160 L 667 158 L 668 157 L 670 157 L 672 156 L 671 153 L 674 154 L 675 152 L 674 149 L 672 150 L 669 147 L 670 145 L 667 142 Z M 538 189 L 532 198 L 528 215 L 529 222 Q 533 226 540 225 L 536 238 Q 535 245 538 247 L 530 249 L 526 256 L 527 262 L 526 263 L 504 265 Q 499 268 499 277 L 500 279 L 493 278 Q 464 276 442 281 Q 402 291 369 308 Q 299 344 245 394 Q 202 430 173 479 Q 142 537 131 616 L 132 676 Q 136 707 145 734 Q 163 792 201 832 Q 213 846 230 856 L 231 859 L 187 874 L 161 887 Q 153 891 153 903 L 154 906 Q 159 914 172 915 L 234 915 L 236 915 L 239 916 L 250 915 L 279 915 L 333 919 L 387 918 L 398 920 L 479 919 L 513 915 L 607 913 L 609 913 L 661 911 L 693 908 L 731 903 L 750 897 L 751 894 Q 784 885 813 871 Q 839 857 860 837 L 862 834 L 873 827 Q 889 811 893 784 Q 895 760 882 751 L 883 749 L 883 744 Q 876 738 874 728 L 870 703 L 871 671 L 873 667 L 874 650 L 872 644 Q 872 610 866 583 L 848 521 Q 820 446 772 392 L 734 355 L 693 328 L 689 315 L 677 307 L 678 305 L 677 293 L 672 289 L 655 285 L 657 278 L 652 268 L 652 265 L 658 258 L 655 254 Q 653 247 661 250 L 662 247 L 665 248 L 667 247 L 669 244 L 671 226 L 670 218 L 634 199 L 573 194 L 553 190 Q 543 187 541 192 L 540 190 L 538 189 Z " /><path fill="rgb(255,252,255)" stroke="rgb(255,252,255)" stroke-width="1" opacity="0.00784313725490196" d="M 540 193 L 553 197.5 L 551.5 198 L 546.5 197 L 540 198 L 540 193 Z " /><path fill="rgb(255,252,255)" stroke="rgb(255,252,255)" stroke-width="1" opacity="0.00784313725490196" d="M 497.5 295 L 501 296 L 499.5 300 L 485.5 302 L 486.5 300 L 497.5 295 Z " /><path fill="rgb(255,252,255)" stroke="rgb(255,252,255)" stroke-width="1" opacity="0.00784313725490196" d="M 459.5 297 L 473 297.5 Q 456.2 312.2 447 334.5 L 439 362.5 L 439 377.5 L 440 385 Q 446 386.9 443 377.5 Q 448.3 331.3 474.5 306 L 482.5 309 L 498.5 306 Q 498.6 312.4 503.5 314 L 531.5 325 L 537.5 325 L 554.5 322 L 561 316.5 L 562.5 315 L 570.5 316 L 578.5 315 L 582 317.5 L 581 322 L 583 324 Q 574.2 324.6 570 330.5 L 569 335.5 Q 579.1 346.9 599.5 348 L 610.5 345 L 614 341.5 L 615 338.5 L 612 330 L 618.5 331 L 623 324 L 626.5 322 Q 633.2 329.6 644 332 L 642.5 335 L 635.5 336 Q 630 331 618.5 332 L 616 335.5 L 633.5 343 L 640.5 344 L 646.5 342 L 653.5 345 L 674.5 340 Q 677.5 341.5 674.5 343 L 665.5 346 L 664 345.5 L 663 349.5 L 664 354 L 667.5 353 L 672.5 354 L 675.5 353 L 679 351.5 L 678.5 350 L 682.5 348 L 689.5 350 L 691.5 349 L 713 363.5 Q 713.5 366.5 706.5 365 Q 646.3 380.8 611 421.5 Q 593.3 441.3 585.5 471 Q 567.6 454.4 543.5 444 L 512 434.5 Q 511.9 407.7 517 387 L 514 388.5 Q 503.5 403 507 431.5 L 508 435 L 497 433 Q 490.6 420.2 493 397.5 Q 498 364.6 513 343 L 507 347.5 Q 486 373 487 420.5 L 490 432 Q 474.7 428.7 454.5 429 Q 432.2 429.2 414.5 434 L 374.5 449 Q 334.3 467.3 307 498.5 L 298.5 509 L 281 493.5 L 261 460.5 L 255 437.5 L 255 417.5 Q 256.9 403.9 266.5 398 L 289.5 380 L 289 381.5 Q 285.1 389.1 287 402.5 L 289.5 407 L 291 405.5 L 292 388.5 L 301.5 370 Q 336.1 344.1 376.5 324 L 427.5 304 L 459.5 297 Z M 500 322 L 488 327 L 486 330 L 498 335 L 509 333 Q 513 332 512 326 Q 509 321 500 322 Z M 549 335 L 546 341 Q 548 345 556 343 L 555 340 L 554 337 Q 555 334 549 335 Z M 649 352 L 646 358 Q 650 363 660 363 L 662 359 Q 660 351 649 352 Z M 620 353 L 615 357 L 612 363 L 628 371 L 633 370 L 635 363 L 633 358 L 629 354 L 625 357 L 627 362 L 627 363 L 620 360 L 622 354 L 620 353 Z " /><path fill="rgb(255,252,255)" stroke="rgb(255,252,255)" stroke-width="1" opacity="0.00784313725490196" d="M 594.5 323 L 603 329.5 L 604 335.5 L 602.5 337 L 588.5 337 L 579 334 L 580.5 332 L 593 325.5 L 594.5 323 Z " /><path fill="rgb(255,252,255)" stroke="rgb(255,252,255)" stroke-width="1" opacity="0.00784313725490196" d="M 716.5 373 L 727.5 374 L 744 389.5 L 742.5 390 L 727.5 389 L 708.5 394 L 674.5 412 Q 648.7 429.2 628 451.5 Q 613.2 467 606 489 L 596 480.5 L 596 467.5 L 603 449.5 Q 614.4 428.9 631.5 414 Q 663.6 383.1 716.5 373 Z " /><path fill="rgb(255,252,255)" stroke="rgb(255,252,255)" stroke-width="1" opacity="0.00784313725490196" d="M 727.5 394 L 749.5 395 L 760 405.5 L 759.5 407 L 747.5 407 Q 707.7 412.7 684 434.5 L 686.5 436 L 724.5 419 Q 743 413.5 766.5 413 Q 817.2 473.3 841 560.5 L 837.5 558 Q 813.5 544.5 773.5 547 L 751 554 L 751.5 556 Q 769.5 549 797.5 552 Q 824.7 555.7 843 567 Q 853.4 601.4 854 646.5 L 848.5 642 Q 824.8 627.7 793.5 621 L 752.5 620 Q 703 625.5 672.5 650 L 672 629.5 L 682.5 621 L 716 605.5 L 708.5 605 Q 686.5 609.5 671.5 621 Q 668 619 670 611.5 Q 709.8 573.8 786.5 573 L 789 574 L 787.5 571 L 763.5 570 Q 703.3 576 668 606 Q 664.8 571.5 650 547.5 Q 632.9 517.1 609 493.5 L 609 489.5 Q 619.3 462.3 639.5 445 Q 674 410 727.5 394 Z M 782 517 L 780 519 L 782 520 L 801 521 L 807 523 Q 813 525 812 521 L 806 517 L 782 517 Z " /><path fill="rgb(255,252,255)" stroke="rgb(255,252,255)" stroke-width="1" opacity="0.00784313725490196" d="M 249.5 414 L 250 416.5 L 249 440.5 Q 256.6 481.4 282.5 504 L 296 512 L 290.5 521 Q 270 514.5 258 499.5 Q 247.1 488.4 240.5 473 L 239 476.5 Q 246.5 502 265.5 516 L 286 527 Q 266.8 555.5 257.5 595 L 233.5 596 L 205 589 L 206.5 593 Q 222 602 247.5 601 L 258 598 L 255 622 L 227.5 623 Q 200.1 620.4 177.5 613 Q 163.2 607.3 154 596.5 L 153 589.5 Q 164.5 537 185 493.5 Q 211 447.5 249.5 414 Z " /><path fill="rgb(255,252,255)" stroke="rgb(255,252,255)" stroke-width="1" opacity="0.00784313725490196" d="M 442.5 446 L 474.5 446 L 512.5 452 Q 532.2 456.2 547 464 Q 548.4 468 541.5 466 Q 524 471.5 514 484.5 L 506 497.5 L 509 498 L 524.5 481 Q 535.6 470.6 556.5 470 L 583 491.5 Q 539.2 495.2 519 522.5 L 510 538.5 L 509 548 Q 493 537.2 471.5 531 Q 455.8 525.7 434.5 526 L 430.5 527 Q 421.3 513.3 423 488.5 Q 425.6 460.1 442.5 446 Z " /><path fill="rgb(255,252,255)" stroke="rgb(255,252,255)" stroke-width="1" opacity="0.00784313725490196" d="M 431.5 447 L 433 448.5 Q 414.3 465.3 417 503.5 Q 418.2 518.1 424 527 L 411.5 530 Q 399.1 517.7 401 492 Q 395.8 490.2 398 497.5 L 397 509.5 Q 399 523 406 531.5 Q 380.2 541.2 364 560.5 Q 350.7 576.2 342 596.5 L 335.5 628 L 314.5 632 L 310 634.5 L 310.5 636 L 323.5 636 L 337 633 Q 340.8 667.4 364 683.5 Q 350.5 695 343 712.5 Q 336.9 725.9 339 747.5 L 341 753.5 L 339.5 754 L 331 747.5 Q 326.9 738.6 328 724.5 Q 329.7 706.7 340 697.5 L 338.5 697 L 333 701.5 Q 322.2 713.7 324 738.5 L 325 742 L 312 731.5 Q 289.5 709 277 676.5 Q 267.6 653.9 271 618.5 L 273.5 605 Q 287.4 618.6 316.5 617 L 317.5 615 Q 292.4 612.6 277 600.5 L 275 593.5 Q 290.5 537.5 326.5 502 Q 327.1 517.9 337.5 524 L 339 521.5 L 332 507.5 L 332 496.5 Q 370.6 460.6 431.5 447 Z " /><path fill="rgb(255,252,255)" stroke="rgb(255,252,255)" stroke-width="1" opacity="0.00784313725490196" d="M 575.5 498 L 589.5 499 L 603 511.5 Q 628.3 538.7 644 575.5 Q 654.8 609.2 655 653.5 L 652.5 673 Q 638.3 656.6 608 657 L 609.5 660 L 636.5 668 L 646 674.5 L 651 682.5 L 651 687.5 L 648 699 Q 636.6 686.1 618.5 679 L 585.5 671 L 567.5 670 L 559 672 Q 557.6 676 564.5 674 Q 594.6 676.9 618.5 686 Q 632.8 692.2 642 703.5 L 645 708.5 Q 625.9 769.4 591.5 815 L 576.5 814 L 552 801 L 552 804.5 L 558.5 811 Q 567.3 820.2 583.5 822 L 585.5 821 L 585 822.5 L 555.5 854 L 547.5 860 L 542.5 861 Q 522 853.5 509 838.5 L 504.5 833 L 504 836.5 L 519.5 854 L 539 864 L 537.5 866 L 510.5 879 Q 488.5 872 477 854.5 Q 454.5 829 453 782.5 Q 486.7 772.2 508 749.5 Q 524.4 731.9 536.5 710 L 545.5 711 L 568.5 723 L 569 720.5 Q 561.1 711.4 548.5 707 L 539 706 L 546 685.5 L 553 656.5 L 555 635.5 Q 550.3 583.2 519.5 557 L 513 551.5 Q 518.1 525.1 537.5 513 Q 552.8 501.8 575.5 498 Z " /><path fill="rgb(255,252,255)" stroke="rgb(255,252,255)" stroke-width="1" opacity="0.00784313725490196" d="M 424.5 541 L 446.5 541 L 476.5 549 Q 501.2 558.8 517 577.5 Q 528.8 591.7 535 611.5 Q 539.8 626.3 538 647.5 Q 533 686.5 515.5 713 Q 512.1 701.4 503.5 695 L 497.5 692 L 505 700.5 L 513 716.5 L 503.5 729 Q 499.2 709.3 486.5 698 L 469 688 L 472.5 693 L 485 703.5 Q 495.4 715.1 499 733.5 L 487.5 746 Q 455 772.5 395.5 772 Q 375.8 771 362 765 L 359 743.5 L 360 738.5 L 359 738.5 L 358 757.5 L 360 763.5 L 358.5 763 L 346 758 Q 342.9 746.3 344 729.5 Q 349.1 700.6 368.5 686 Q 382.5 700 412.5 698 Q 438.2 692.7 454 677.5 Q 469.2 663.9 469 636 Q 483.9 620.6 513.5 619 L 519 620 L 517.5 617 Q 512.4 613.6 502.5 615 Q 482.1 618.3 470 629 L 468 631 L 467 622.5 L 477.5 609 L 491 601.5 L 484.5 601 Q 473.3 604.8 467 613.5 L 465.5 616 L 464 614.5 L 449.5 596 Q 440.1 587.4 422.5 587 Q 404 589.5 394 600.5 Q 385.9 609.4 387 627.5 Q 389 637.5 396.5 642 L 410.5 646 Q 419.9 644.9 424 638.5 L 425 634.5 L 422.5 631 L 409.5 633 L 403 629.5 L 402 617.5 L 409.5 607 Q 415.8 601.3 429.5 603 Q 440.2 606.8 446 615.5 Q 454.3 624.7 453 643.5 Q 449.8 659.3 439.5 668 Q 425 682 395.5 681 Q 376 675.5 365 661.5 Q 351.4 647.6 352 619.5 Q 361.5 577 391.5 555 Q 404.6 544.6 424.5 541 Z " /><path fill="rgb(255,252,255)" stroke="rgb(255,252,255)" stroke-width="1" opacity="0.00784313725490196" d="M 151 604 Q 162.8 615.5 181.5 621 Q 205.8 628.2 237.5 628 L 255 625 L 253.5 632 Q 236.7 645.7 204 643.5 Q 212.8 649.2 228.5 648 Q 244.2 646.2 253.5 638 Q 255.8 679.2 273 705.5 Q 250.2 712.2 237 728.5 L 229 744.5 L 231 743.5 L 243.5 728 Q 256.2 716.2 275.5 711 L 280 717.5 Q 258.8 727.8 245 745.5 L 226 774.5 Q 218 792.5 219 819.5 L 220 823.5 L 212 816.5 Q 177.3 779.7 161 724.5 Q 152.7 697.8 149 666.5 L 149 614.5 L 151 604 Z " /><path fill="rgb(255,252,255)" stroke="rgb(255,252,255)" stroke-width="1" opacity="0.00784313725490196" d="M 754.5 629 Q 780.8 626.7 799.5 632 L 831.5 643 Q 845 648 853 658.5 L 854 664.5 L 853 703 Q 838.8 693 819.5 687 Q 800.9 681.1 774.5 683 Q 756.3 684.8 743 691.5 L 751.5 692 Q 766.9 687.4 789.5 690 Q 831.5 694 854 717.5 L 857 731 Q 827.6 708.1 770.5 712 Q 719.2 719.7 684 743.5 L 686.5 748 Q 715.1 733.6 749.5 725 Q 770.3 719.8 798.5 722 Q 817.1 723.4 831.5 729 L 859.5 746 L 866 752.5 L 870.5 760 L 874 758 L 875 761.5 L 872 763 L 877 778.5 L 877 784.5 Q 871.3 807.5 857 821 Q 784.8 887.5 650.5 893 Q 611.9 888.6 567.5 890 L 525.5 895 L 526.5 893 L 545.5 887 L 585.5 864 L 592.5 872 Q 601.5 878 615.5 879 L 649.5 879 L 682.5 875 Q 694.8 873.3 701 865.5 L 695.5 865 L 675.5 869 Q 655.5 867.5 640.5 871 L 638.5 871 Q 619.4 872.1 604.5 869 L 591 859.5 L 604.5 851 L 647.5 814 L 679.5 792 L 717.5 773 L 737.5 766 L 766.5 761 L 778.5 761 L 813 767.5 L 795.5 787 L 779 799.5 L 784.5 801 Q 803.9 793.4 816 778.5 L 820 770 L 828 773 L 810.5 794 L 784.5 812 L 718 840.5 Q 717.4 843.3 723.5 842 Q 755.8 834.8 782.5 822 Q 807.2 810.2 825 791.5 L 835.5 778 L 837 779.5 L 837 781.5 L 814.5 811 Q 784.1 833.6 746.5 849 Q 724 860 694 863.5 L 711.5 864 Q 782.7 848.7 827 806.5 L 839.5 790 L 840 794.5 Q 833.5 810 820.5 819 L 797 838.5 L 796 842.5 L 801.5 845 Q 827.1 833.1 846 814.5 Q 855.8 802.3 860 784.5 Q 856.4 769.6 846.5 761 Q 816.1 737.4 758.5 741 Q 736.4 742.9 719.5 750 L 681.5 769 L 646.5 792 L 598.5 835 L 585.5 844 L 589 839.5 L 603.5 823 L 611 816.5 L 628 789.5 L 639.5 778 L 660 758.5 L 657.5 757 L 638.5 772 L 639 770.5 Q 643.2 752.7 655.5 743 Q 676.5 724.5 705 715 L 706 712.5 L 701.5 710 Q 674.2 717.7 655.5 734 L 655 731.5 L 664 704.5 L 667.5 701 Q 685.7 686.2 709 676.5 L 704.5 676 Q 682.5 683.5 666.5 697 L 667 695.5 L 671 666.5 L 679.5 655 Q 708.7 633.7 754.5 629 Z M 780 850 L 756 861 L 753 865 Q 772 862 785 853 Q 786 848 780 850 Z " /><path fill="rgb(255,252,255)" stroke="rgb(255,252,255)" stroke-width="1" opacity="0.00784313725490196" d="M 283.5 723 L 313.5 756 Q 334.1 773.4 362.5 783 Q 386.1 790.9 420.5 788 L 431 786 L 430 804.5 Q 431.8 825.8 442.5 838 L 445 836.5 Q 434.5 818.5 436 788.5 L 437 785 L 448 783 L 447 797.5 Q 453.3 848.2 485.5 873 L 501 882 Q 502.3 885 498.5 884 Q 478.8 893.3 453.5 897 L 400.5 900 L 372.5 896 L 357 883.5 Q 346 867.5 343.5 843 L 341 854.5 Q 343.3 879.7 357 893.5 L 353.5 894 Q 293.6 880.9 252 849.5 L 246 831.5 L 245 815.5 Q 246.3 798.3 253 786.5 L 250.5 786 Q 236.2 801.2 239 833.5 L 241 841.5 L 238.5 840 L 227 830.5 L 228 824.5 L 226 813.5 Q 226.5 786 237 768.5 Q 249.6 748.1 267.5 733 L 283.5 723 Z " /><path fill="rgb(255,252,255)" stroke="rgb(255,252,255)" stroke-width="1" opacity="0.00784313725490196" d="M 245.5 869 L 291.5 893 L 314 901.5 L 305.5 902 Q 279.1 898.4 247.5 900 L 235.5 901 L 233.5 900 L 178.5 901 L 171 900 L 172.5 898 L 189.5 889 Q 219.6 881.1 245.5 869 Z " /></svg>