<svg viewBox="0 0 1024 1024" version="1.1" xmlns="http://www.w3.org/2000/svg" desc="Created with imagetracer.js version 1.2.6" ><path fill="currentColor" stroke="rgb(0,0,0)" stroke-width="1" opacity="1" d="M 468.5 145 L 487.5 146 L 489.5 145 L 512.5 147 L 514.5 147 L 537.5 149 L 564.5 155 Q 602.8 163.7 634.5 179 Q 683 204.5 718 243.5 Q 754 284 779 335.5 Q 788.5 357 794 382.5 L 801 423.5 L 802 447.5 L 802 449.5 L 801 465.5 L 802 469.5 L 802 471.5 Q 802.6 527.6 787 567.5 L 767 612.5 Q 751.6 639.6 731 661.5 L 729 667 L 737 673.5 L 759.5 698 L 772.5 693 L 785 702.5 L 792.5 711 L 798 715.5 L 799.5 717 L 850.5 771 L 902 820.5 L 919.5 842 L 922 843.5 L 928 859.5 L 928 868.5 L 927 870.5 L 928 875.5 Q 924.5 893.7 913 903 L 910 904.5 L 908.5 906 Q 894.5 920 865.5 919 Q 854.6 916.4 848.5 909 L 808 868.5 L 733.5 791 L 730 788.5 L 713 768.5 L 711 760.5 L 707 756.5 L 707 751.5 L 711 744.5 L 684 719.5 L 679.5 712 Q 642.4 743.4 592.5 762 L 555.5 772 L 487.5 781 L 485.5 780 L 472.5 781 L 469.5 780 L 448.5 779 L 413.5 773 L 353.5 753 Q 291.7 724.3 249 676.5 Q 191.8 610.7 172 507.5 L 172 505.5 L 171 498.5 L 171 496.5 L 169 442.5 L 170 440.5 L 169 428.5 Q 172 393.5 181 364.5 L 203 313.5 Q 232.9 264.4 274.5 227 L 299.5 207 L 338.5 181 L 374.5 163 L 424.5 149 L 468.5 145 Z M 475 203 L 427 207 L 396 217 Q 351 235 319 265 Q 279 301 255 352 Q 234 398 229 462 L 229 482 L 231 486 L 232 504 L 245 551 Q 262 599 293 635 Q 323 670 366 693 Q 406 713 461 719 Q 520 722 563 708 Q 614 691 650 659 Q 692 622 717 567 Q 737 525 743 470 Q 745 444 741 425 Q 735 393 725 367 Q 705 319 673 283 L 671 282 Q 632 245 579 222 Q 534 205 475 203 Z M 742 309 L 748 323 L 750 324 L 742 309 Z M 751 387 L 757 428 L 760 433 L 760 431 L 760 429 L 755 398 L 751 387 Z M 226 549 Q 226 563 232 575 L 250 610 L 259 620 L 259 619 L 259 617 Q 237 588 226 549 Z " /><path fill="currentColor" stroke="rgb(0,0,0)" stroke-width="1" opacity="1" d="M 443.5 228 L 457.5 229 L 460 231.5 Q 461 237 457.5 238 L 422.5 248 L 394.5 260 Q 354.9 281.4 325 312.5 L 297 351.5 L 285 377.5 L 281.5 381 Q 274.3 382.3 273 377.5 L 276 359.5 L 289 333.5 Q 304.5 305 327.5 284 Q 369.8 240.3 443.5 228 Z " /><path fill="currentColor" stroke="rgb(0,0,0)" stroke-width="1" opacity="1" d="M 432.5 293 L 433 296.5 L 432 308.5 L 433 314 L 456.5 311 L 456.5 312 L 437.5 315 L 433 317.5 L 434 323 L 449.5 319 L 476.5 317 L 478 315.5 L 479 307.5 L 479 305.5 Q 477.5 297.9 481 299 L 481 315.5 L 486 316 L 484 299 L 486 300.5 L 491.5 317 L 493.5 317 L 507.5 317 L 508 313.5 L 511 296.5 L 510 294.5 L 514.5 293 L 516 294.5 L 516 318 L 538 320 L 539 309 Q 543.1 310.7 542 306.5 L 543.5 300 Q 547.7 305.3 546 316.5 L 545 320.5 L 582.5 331 L 591.5 319 L 593 321.5 L 588 333 L 591 331.5 L 596 315.5 L 596 313.5 L 599 312 L 600 316.5 L 595 335.5 L 623.5 353 L 634.5 343 L 632 346.5 L 626 354.5 L 629.5 355 L 643 337.5 L 644 330.5 L 639 323.5 L 644 327.5 L 645 338 L 647 339.5 Q 642.8 345.8 643 356.5 L 638 366.5 L 655.5 381 L 668 370.5 L 669.5 365 L 670 370.5 L 663.5 379 L 658 383.5 L 668.5 391 L 682 380.5 L 684.5 377 L 686.5 376 L 689 377 L 689 381.5 L 676 397.5 L 675 402 L 670 403 L 674 411.5 L 674 415.5 L 672.5 415 L 670 413.5 L 665.5 408 L 659 412 L 668.5 425 Q 686.2 423.7 696 414.5 L 700.5 407 L 702 408.5 L 702 410.5 L 701 416 L 714 409 Q 713.7 418.6 705.5 422 L 692 432.5 L 694.5 433 L 699.5 430 L 701 433.5 L 696.5 439 L 678.5 448 L 660 452.5 L 665.5 455 L 686.5 456 L 705.5 450 L 713 443.5 L 715.5 440 L 717 440.5 Q 715.9 449.9 709.5 454 L 698 459 L 699 463 L 675 468.5 L 685.5 471 L 687.5 471 L 704.5 469 L 717 461.5 L 717.5 460 L 719 462.5 L 711.5 471 L 690.5 478 L 683 482.5 L 690.5 485 L 694 484 L 692.5 487 L 674.5 488 L 673 489.5 L 666 501.5 L 673.5 507 L 675 506.5 L 674 508.5 L 678 516.5 L 675.5 515 L 671.5 512 L 669 515.5 L 679 523.5 Q 685.5 527.9 684 539 L 681 537.5 L 679.5 536 Q 677.7 538.8 676 534.5 L 669.5 527 L 663.5 525 L 644 549.5 L 650 562.5 L 646 560.5 L 647 566.5 L 654 577.5 L 652.5 577 L 650 575.5 L 648.5 574 L 644 570.5 L 642.5 577 Q 644.2 564.8 636.5 562 L 633.5 560 Q 617.8 576.1 598 587 L 602 599.5 L 600 601.5 L 599 612.5 L 595.5 617 L 595 615.5 L 596 602.5 L 591.5 592 L 552.5 608 L 550 607.5 L 551 602.5 L 550 599 L 544 601.5 L 548 620.5 L 547 623 L 545 621.5 L 540 609.5 L 540 607.5 L 539 603 L 515.5 608 L 500 608 Q 502.3 618.2 497.5 622 L 495 608 L 484 608 L 484 620.5 L 482 630 L 506 631.5 L 478.5 634 L 431 627 L 428.5 632 L 428 626 Q 395.6 617.9 372.5 599 L 370 605.5 L 377 611.5 L 375.5 612 L 367.5 606 L 365.5 610 L 365 603 L 349 589.5 L 344 583.5 L 345.5 584 L 366 602 L 367 594.5 L 343.5 577 L 339.5 582 L 339 580.5 L 341 576.5 L 339.5 573 L 308 552.5 L 309.5 550 L 315.5 551 L 338.5 564 L 342 556 Q 329.7 552.1 321 543.5 L 323.5 543 L 346.5 554 Q 352.5 551.5 348.5 549 L 321 534.5 L 322.5 532 L 334.5 535 L 334.5 534 Q 330.8 529.2 321.5 530 L 320 533 L 286.5 531 Q 276.4 528.6 271 521.5 L 268 506.5 L 280.5 492 L 295 478.5 L 308 461 Q 298.7 461 294 455.5 L 295.5 452 Q 301.2 456.8 312.5 456 L 321 446.5 Q 311.5 445 307 438.5 L 305.5 436 L 283.5 466 L 284 464.5 L 285 461.5 L 283 462.5 L 273.5 479 L 271 477.5 L 281 455.5 L 315 403.5 Q 312 398 309 404.5 L 274.5 449 L 273 446.5 L 311 396.5 L 308 388 Q 312.1 386.3 311 390.5 L 312 393 L 316 390.5 L 335.5 366 L 346 357.5 L 343 341.5 L 345 340.5 L 349 354 L 354.5 352 L 352.5 355 Q 349.5 354.1 351 358.5 L 354.5 364 L 383 345 Q 385 338.1 381.5 336 L 362.5 348 L 361 347.5 L 359.5 350 L 357.5 351 L 357 349.5 L 382 334 Q 379.8 323.5 385.5 320 L 385 321.5 L 384 323.5 L 386 331 L 428 314.5 L 429 310.5 L 428 307.5 Q 427.8 297.8 432.5 293 Z M 427 318 L 390 332 L 387 335 L 390 341 Q 407 330 429 324 Q 431 317 427 318 Z M 544 326 L 544 328 L 578 337 Q 581 338 580 335 L 544 326 Z M 483 327 L 481 329 L 483 353 L 485 346 L 486 329 L 483 327 Z M 493 327 L 491 329 L 491 348 L 488 360 Q 486 365 491 364 Q 501 350 505 330 Q 506 327 499 328 L 497 328 L 493 327 Z M 471 328 L 436 334 Q 440 351 451 363 L 456 366 L 465 365 Q 474 351 476 330 L 471 328 Z M 515 329 L 514 350 L 510 362 L 512 365 L 518 362 Q 529 351 535 334 L 515 329 Z M 543 335 L 530 365 L 529 367 Q 547 357 560 343 L 543 335 Z M 430 336 L 413 342 Q 411 348 415 347 L 427 364 L 435 370 L 439 369 L 431 339 L 430 336 Z M 409 344 L 394 353 L 402 368 L 409 373 L 410 374 L 408 365 L 409 357 L 409 344 Z M 589 348 L 588 353 L 606 365 L 614 361 L 589 348 Z M 385 351 L 363 366 L 359 371 L 385 353 L 385 351 Z M 560 351 L 544 365 L 540 370 L 546 369 L 556 363 L 560 354 L 560 351 Z M 586 356 L 575 376 L 601 367 L 586 356 Z M 386 357 L 366 372 L 364 376 L 377 387 L 385 390 L 389 388 L 384 382 L 386 377 L 393 380 L 391 380 L 394 384 L 398 383 Q 390 373 387 360 L 386 357 Z M 347 360 Q 329 374 318 396 L 318 398 Q 317 401 320 400 L 328 389 L 350 368 L 347 360 Z M 415 360 Q 414 370 421 375 L 425 373 L 415 360 Z M 572 366 L 560 376 L 566 378 L 572 368 L 572 366 Z M 354 374 L 344 383 L 327 401 L 328 402 L 355 376 L 354 374 Z M 634 374 L 627 381 L 627 383 L 637 391 L 645 387 L 646 385 L 634 374 Z M 356 381 L 352 384 L 328 409 Q 335 415 347 417 L 351 416 L 344 404 L 346 396 L 357 399 L 359 399 L 364 401 L 367 401 L 357 385 Q 358 380 356 381 Z M 624 384 L 612 395 L 608 400 Q 623 399 633 393 L 624 384 Z M 367 389 L 372 398 L 377 396 L 367 389 Z M 650 390 L 643 397 L 647 401 L 657 397 L 650 390 Z M 640 399 L 631 404 L 629 407 L 642 404 L 643 402 L 640 399 Z M 350 404 L 354 411 L 361 408 L 350 404 Z M 572 406 L 586 416 L 587 416 L 586 414 Q 581 408 572 406 Z M 391 410 Q 372 420 359 434 L 325 471 L 322 483 Q 321 507 333 519 L 341 526 L 361 534 L 398 557 L 431 565 L 475 571 L 501 571 L 547 559 Q 572 546 593 528 L 603 516 L 606 514 L 598 525 L 599 526 L 608 519 L 628 496 L 636 479 L 634 471 L 618 448 L 612 441 L 572 414 L 570 414 L 579 444 L 580 457 L 579 459 L 580 461 L 580 463 L 574 494 L 549 528 Q 536 542 517 549 L 505 552 L 482 554 L 455 553 L 442 549 L 407 526 Q 397 519 392 507 L 387 489 L 381 477 L 378 461 Q 379 430 391 412 L 391 410 Z M 462 410 L 448 415 L 443 415 L 439 417 L 437 418 L 434 429 L 436 432 L 434 432 L 436 433 L 436 434 L 433 436 L 433 438 L 435 441 L 437 440 L 437 438 L 439 439 L 441 438 L 445 441 Q 454 442 459 438 Q 466 434 468 426 Q 469 418 465 415 L 469 413 L 471 412 Q 469 408 462 410 Z M 642 414 L 626 418 L 629 422 L 645 415 L 642 414 Z M 322 415 L 307 434 L 323 439 L 328 439 L 338 429 L 323 417 L 322 415 Z M 655 416 L 643 424 Q 651 427 664 426 L 659 419 L 655 416 Z M 537 445 L 534 446 L 534 448 L 532 446 Q 525 444 526 448 L 523 450 L 525 450 L 523 453 L 525 454 L 527 457 L 528 452 L 535 450 L 535 448 L 538 446 L 537 445 Z M 563 449 L 558 461 L 560 464 L 558 468 L 559 470 L 553 479 L 554 481 L 549 489 L 551 493 L 548 494 L 547 496 L 540 504 L 542 508 L 542 510 L 541 508 L 539 507 L 537 510 L 538 512 L 537 511 L 534 516 L 537 515 L 533 520 L 530 518 L 529 521 L 528 520 L 527 522 L 529 523 L 525 525 L 519 522 L 516 523 L 509 522 L 507 523 L 505 523 L 508 519 L 507 519 L 507 518 L 505 515 L 507 513 L 506 515 L 512 517 Q 519 512 521 500 L 524 502 L 524 501 L 524 499 L 527 497 L 526 496 L 527 494 L 529 492 L 527 490 L 529 489 L 530 491 L 533 489 L 535 486 L 535 482 Q 538 483 537 478 L 537 476 L 538 474 L 539 474 Q 538 478 542 476 L 541 474 L 543 468 L 539 466 L 531 471 L 530 470 L 530 468 L 528 467 L 526 466 L 523 464 L 525 463 L 524 460 L 525 458 L 524 456 L 520 466 L 521 469 L 512 483 L 509 485 L 506 491 L 505 490 L 503 492 L 496 494 L 493 495 L 494 499 L 493 498 L 492 501 L 493 502 Q 488 500 489 504 L 492 504 L 495 503 L 494 505 L 500 509 L 499 511 L 500 513 L 498 517 L 496 518 L 498 513 L 497 507 L 494 509 L 493 507 L 491 505 L 491 507 L 491 508 L 489 507 L 489 506 L 487 502 L 488 500 L 491 501 Q 493 496 490 497 L 490 499 L 475 497 L 468 498 Q 466 495 464 500 L 463 499 L 463 497 L 452 491 L 449 493 L 447 496 L 443 496 L 447 492 L 447 490 L 447 488 L 444 485 L 439 478 L 434 474 L 436 474 L 436 472 L 430 475 L 428 475 L 425 476 L 424 479 Q 420 478 421 481 L 418 482 L 416 484 L 411 485 L 409 489 L 411 496 L 415 498 L 412 498 Q 411 501 415 500 L 413 503 L 415 508 L 414 510 L 416 510 L 415 513 L 418 516 L 422 514 L 421 516 L 422 518 L 421 520 L 425 522 L 430 524 L 432 528 L 435 528 L 439 524 L 440 527 L 441 528 L 439 530 L 441 531 L 439 532 L 444 534 L 446 533 L 445 535 L 451 538 L 454 536 L 454 538 L 456 537 L 455 539 Q 460 542 470 541 L 475 540 L 477 541 Q 497 542 514 539 L 524 532 L 527 530 L 538 516 L 542 515 L 551 504 L 550 502 L 552 501 L 555 496 L 554 494 L 556 494 Q 563 483 564 466 L 563 466 L 564 464 L 563 455 L 564 453 L 563 449 Z M 434 453 L 432 455 L 428 454 L 426 457 L 428 457 L 426 458 L 425 462 L 426 464 Q 424 460 421 465 L 423 466 L 422 466 L 417 467 L 423 468 L 426 466 L 421 474 L 424 474 L 435 468 L 434 466 L 433 463 L 433 462 L 434 459 L 432 459 L 434 458 L 434 453 Z M 537 460 L 535 462 L 533 464 L 543 464 L 543 463 L 543 460 L 541 461 L 537 460 Z M 641 475 Q 639 481 643 480 L 645 479 L 639 494 L 623 514 Q 621 518 620 515 Q 615 517 618 519 Q 591 544 555 561 Q 531 573 500 577 L 445 576 Q 410 571 383 558 L 381 559 L 393 565 L 430 577 L 458 582 L 498 584 L 518 582 L 521 578 L 525 579 L 532 579 L 534 577 L 543 576 L 557 571 L 556 566 L 571 564 L 568 562 L 566 559 L 569 558 L 578 560 L 602 542 L 604 539 L 619 527 L 643 497 L 650 481 L 641 475 Z M 314 486 L 312 492 L 312 502 L 319 516 L 318 518 Q 306 509 307 488 L 285 506 L 287 513 L 301 520 L 311 520 L 330 525 L 319 508 L 316 497 L 316 487 L 314 486 Z M 666 486 L 658 499 L 663 500 L 671 487 L 666 486 Z M 663 506 L 659 512 L 668 514 L 669 511 L 663 506 Z M 279 510 L 278 518 L 285 522 L 288 522 L 287 521 L 281 514 Q 282 509 279 510 Z M 653 521 L 639 539 L 643 544 L 660 524 L 653 521 Z M 348 532 Q 359 543 377 550 L 378 550 L 348 532 Z M 447 545 L 456 549 L 460 549 Q 455 545 447 545 Z M 354 553 L 350 557 L 355 560 L 359 559 L 360 556 L 354 553 Z M 624 554 L 619 559 L 620 561 L 620 563 L 617 561 L 594 574 L 598 584 L 628 559 L 629 558 L 624 554 Z M 602 556 L 594 560 L 593 566 L 606 558 L 602 556 Z M 346 560 L 342 566 L 348 567 L 351 562 L 346 560 Z M 364 561 L 363 562 L 361 564 L 374 570 L 376 567 L 364 561 Z M 356 566 L 351 570 L 370 578 Q 373 579 372 576 L 356 566 Z M 381 569 L 378 574 L 383 576 L 388 574 L 381 569 Z M 349 573 L 349 575 L 368 589 L 370 583 L 349 573 Z M 567 575 L 549 585 L 554 594 L 565 591 L 567 592 L 554 597 L 556 605 L 588 589 L 582 581 L 564 588 L 561 587 L 576 579 L 567 575 Z M 393 577 L 392 578 L 390 580 L 401 584 L 402 580 Q 399 576 393 577 Z M 417 584 L 414 588 L 430 592 L 431 587 L 417 584 Z M 381 587 L 376 595 Q 398 613 429 621 L 431 608 L 430 602 L 407 596 L 405 602 Q 406 605 403 604 L 402 609 L 401 593 L 381 587 Z M 544 588 L 539 590 L 543 597 L 548 595 L 544 588 Z M 519 589 L 496 591 L 500 601 L 512 599 L 519 600 L 535 599 L 536 598 L 532 593 L 526 596 L 518 594 L 522 591 L 519 589 Z M 454 591 L 451 597 L 463 599 L 465 599 L 467 600 L 476 600 L 472 593 L 472 591 L 454 591 Z M 413 592 L 426 598 Q 431 600 430 596 L 413 592 Z M 484 592 L 480 593 L 482 600 L 484 601 L 493 601 L 491 594 L 484 592 Z M 439 604 L 433 622 L 476 630 L 479 630 L 479 610 L 472 607 L 449 605 Q 445 610 446 619 L 447 620 L 442 618 L 443 606 L 439 604 Z " /><path fill="currentColor" stroke="rgb(0,0,0)" stroke-width="1" opacity="1" d="M 563.5 319 L 575.5 324 L 579 327.5 L 577.5 327 L 564.5 321 L 563.5 319 Z " /><path fill="currentColor" stroke="rgb(0,0,0)" stroke-width="1" opacity="1" d="M 488 519 L 493 522.5 L 492 525.5 L 490.5 527 L 489 526.5 L 487 528 Q 485.3 523.9 489.5 525 L 489 523.5 L 490 521.5 L 488 521 L 488 519 Z " /><path fill="currentColor" stroke="rgb(0,0,0)" stroke-width="1" opacity="1" d="M 262.5 532 L 268 541.5 L 265 539.5 L 262.5 532 Z " /><path fill="var(--primary)" stroke="rgb(255,0,255)" stroke-width="1" opacity="1" d="M 450.5 145 L 468 145.5 L 450.5 146 L 450.5 145 Z " /><path fill="var(--primary)" stroke="rgb(255,0,255)" stroke-width="1" opacity="1" d="M 490.5 145 L 507 145.5 L 490.5 146 L 490.5 145 Z " /><path fill="var(--primary)" stroke="rgb(255,0,255)" stroke-width="1" opacity="1" d="M 698.5 223 L 716.5 242 L 698.5 223 Z " /><path fill="var(--primary)" stroke="rgb(255,0,255)" stroke-width="1" opacity="1" d="M 273.5 227 L 252 249.5 L 236.5 267 L 240 262.5 L 273.5 227 Z " /><path fill="var(--primary)" stroke="rgb(255,0,255)" stroke-width="1" opacity="1" d="M 460.5 232 L 461 235.5 L 452.5 241 L 452.5 240 L 460 235.5 L 460.5 232 Z " /><path fill="var(--primary)" stroke="rgb(255,0,255)" stroke-width="1" opacity="1" d="M 328.5 256 L 320.5 265 L 328.5 256 Z " /><path fill="var(--primary)" stroke="rgb(255,0,255)" stroke-width="1" opacity="1" d="M 318.5 265 L 301.5 283 L 318.5 265 Z " /><path fill="var(--primary)" stroke="rgb(255,0,255)" stroke-width="1" opacity="1" d="M 738.5 269 L 747 279.5 L 743 276.5 L 738.5 269 Z " /><path fill="var(--primary)" stroke="rgb(255,0,255)" stroke-width="1" opacity="1" d="M 659.5 271 L 666.5 279 L 659.5 271 Z " /><path fill="var(--primary)" stroke="rgb(255,0,255)" stroke-width="1" opacity="1" d="M 336.5 275 L 328.5 284 L 336.5 275 Z " /><path fill="var(--primary)" stroke="rgb(255,0,255)" stroke-width="1" opacity="1" d="M 326.5 284 L 316.5 295 L 326.5 284 Z " /><path fill="var(--primary)" stroke="rgb(255,0,255)" stroke-width="1" opacity="1" d="M 477 292 L 479 293.5 L 482 298.5 L 482 315.5 L 481 315.5 L 481 299.5 L 479 299 L 478.5 306 L 477 292 Z " /><path fill="var(--primary)" stroke="rgb(255,0,255)" stroke-width="1" opacity="1" d="M 511.5 292 L 517 294.5 L 516.5 318 L 516 294.5 L 514.5 293 L 510.5 294 L 511.5 292 Z " /><path fill="var(--primary)" stroke="rgb(255,0,255)" stroke-width="1" opacity="1" d="M 543.5 298 Q 548.4 303.1 547 314.5 L 546 314.5 Q 547 303.1 543.5 298 Z " /><path fill="var(--primary)" stroke="rgb(255,0,255)" stroke-width="1" opacity="1" d="M 337.5 300 L 325.5 313 L 337.5 300 Z " /><path fill="var(--primary)" stroke="rgb(255,0,255)" stroke-width="1" opacity="1" d="M 542.5 301 L 543 305.5 L 542 309 Q 536 307.1 539 316.5 L 538 316.5 Q 536.3 309.7 539.5 308 L 541 306.5 L 542.5 301 Z " /><path fill="var(--primary)" stroke="rgb(255,0,255)" stroke-width="1" opacity="1" d="M 741.5 309 L 752 325.5 L 750 326 L 741.5 309 Z " /><path fill="var(--primary)" stroke="rgb(255,0,255)" stroke-width="1" opacity="1" d="M 452.5 310 L 463.5 310 L 464 312 L 459.5 311 L 453.5 313 L 453.5 312 L 457 311.5 L 452.5 310 Z " /><path fill="var(--primary)" stroke="rgb(255,0,255)" stroke-width="1" opacity="1" d="M 767.5 313 L 773 322.5 L 771 321.5 L 767.5 313 Z " /><path fill="var(--primary)" stroke="rgb(255,0,255)" stroke-width="1" opacity="1" d="M 561 318 L 563 319.5 L 564.5 319 L 571 321.5 L 569.5 322 L 566.5 321 L 565 321.5 L 565.5 320 L 563.5 321 L 561 320 L 561 318 Z " /><path fill="var(--primary)" stroke="rgb(255,0,255)" stroke-width="1" opacity="1" d="M 637.5 322 L 639 323.5 Q 642 321.5 645 327.5 L 647 337.5 L 645 338 L 643.5 327 L 642.5 329 L 637.5 322 Z " /><path fill="var(--primary)" stroke="rgb(255,0,255)" stroke-width="1" opacity="1" d="M 576.5 324 L 581 330 L 584 328.5 L 585.5 326 L 585 327.5 L 582.5 331 L 575 328.5 L 578 326.5 L 576.5 324 Z " /><path fill="var(--primary)" stroke="rgb(255,0,255)" stroke-width="1" opacity="1" d="M 492.5 327 L 496 327.5 L 492 328 L 491.5 346 L 491 328.5 L 492.5 327 Z " /><path fill="var(--primary)" stroke="rgb(255,0,255)" stroke-width="1" opacity="1" d="M 482.5 333 L 484 350.5 L 482.5 353 L 482.5 333 Z " /><path fill="var(--primary)" stroke="rgb(255,0,255)" stroke-width="1" opacity="1" d="M 263.5 336 L 263 337.5 L 257.5 349 L 257 347.5 L 263.5 336 Z " /><path fill="var(--primary)" stroke="rgb(255,0,255)" stroke-width="1" opacity="1" d="M 343 339 Q 347.1 337.3 346 341.5 L 347 344.5 L 346 344.5 L 344.5 340 L 342.5 346 L 342 341.5 L 343 339 Z " /><path fill="var(--primary)" stroke="rgb(255,0,255)" stroke-width="1" opacity="1" d="M 403.5 341 L 405 341.5 L 391 349 L 391.5 347 L 393 347.5 L 394.5 346 L 403.5 341 Z " /><path fill="var(--primary)" stroke="rgb(255,0,255)" stroke-width="1" opacity="1" d="M 558.5 341 L 560 342.5 L 551.5 351 L 559 342.5 L 558.5 341 Z " /><path fill="var(--primary)" stroke="rgb(255,0,255)" stroke-width="1" opacity="1" d="M 632.5 343 L 623.5 353 L 621.5 350 L 623.5 352 L 632.5 343 Z " /><path fill="var(--primary)" stroke="rgb(255,0,255)" stroke-width="1" opacity="1" d="M 361.5 345 L 362 347.5 L 359.5 351 L 353.5 355 L 354.5 352 L 349 354 L 348 350.5 L 349 350.5 L 350.5 353 L 358.5 347 L 361 348.5 L 360 346.5 L 361.5 345 Z " /><path fill="var(--primary)" stroke="rgb(255,0,255)" stroke-width="1" opacity="1" d="M 404.5 346 L 403.5 348 L 395.5 352 L 396.5 350 L 404.5 346 Z " /><path fill="var(--primary)" stroke="rgb(255,0,255)" stroke-width="1" opacity="1" d="M 440.5 346 L 451 360.5 L 448 358.5 L 440.5 346 Z " /><path fill="var(--primary)" stroke="rgb(255,0,255)" stroke-width="1" opacity="1" d="M 567.5 346 L 571 348.5 L 566 352.5 L 566.5 348 L 567.5 351 Q 572 349 568.5 347 L 567.5 346 Z " /><path fill="var(--primary)" stroke="rgb(255,0,255)" stroke-width="1" opacity="1" d="M 415.5 347 L 424 357.5 L 422 356.5 L 415.5 347 Z " /><path fill="var(--primary)" stroke="rgb(255,0,255)" stroke-width="1" opacity="1" d="M 559.5 351 L 560 353.5 L 558.5 353 L 548 362.5 L 559.5 351 Z " /><path fill="var(--primary)" stroke="rgb(255,0,255)" stroke-width="1" opacity="1" d="M 374.5 357 L 371.5 363 L 367.5 366 L 368.5 363 L 365 365.5 Q 368.2 367.8 362.5 370 L 359 371 L 362.5 366 L 361.5 369 L 365 366.5 Q 361.7 364.3 367.5 362 L 374.5 357 Z " /><path fill="var(--primary)" stroke="rgb(255,0,255)" stroke-width="1" opacity="1" d="M 346.5 360 L 347.5 362 L 346.5 361 L 332 375.5 L 327.5 381 L 331 376.5 L 346.5 360 Z " /><path fill="var(--primary)" stroke="rgb(255,0,255)" stroke-width="1" opacity="1" d="M 668 364 L 671 365.5 Q 672.1 374.1 666.5 376 L 669 372.5 L 670 365.5 L 669 365.5 L 668.5 369 L 668 364 Z " /><path fill="var(--primary)" stroke="rgb(255,0,255)" stroke-width="1" opacity="1" d="M 333.5 368 L 326.5 376 L 333.5 368 Z " /><path fill="var(--primary)" stroke="rgb(255,0,255)" stroke-width="1" opacity="1" d="M 345.5 370 L 329.5 387 L 345.5 370 Z " /><path fill="var(--primary)" stroke="rgb(255,0,255)" stroke-width="1" opacity="1" d="M 353.5 374 L 355 375.5 L 347 382.5 L 353.5 374 Z " /><path fill="var(--primary)" stroke="rgb(255,0,255)" stroke-width="1" opacity="1" d="M 633.5 374 L 636 375.5 L 634.5 375 L 628 380.5 L 627.5 383 L 627 380.5 L 633.5 374 Z " /><path fill="var(--primary)" stroke="rgb(255,0,255)" stroke-width="1" opacity="1" d="M 384.5 377 L 384 378.5 Q 384.2 385.3 389 387.5 L 386.5 389 L 386.5 388 L 388 387.5 Q 383.2 385.3 383 378.5 L 384.5 377 Z " /><path fill="var(--primary)" stroke="rgb(255,0,255)" stroke-width="1" opacity="1" d="M 638.5 377 L 646 385.5 L 642.5 388 L 643.5 386 L 645 384.5 L 638.5 377 Z " /><path fill="var(--primary)" stroke="rgb(255,0,255)" stroke-width="1" opacity="1" d="M 661.5 378 L 663 379.5 L 659 383.5 L 662.5 388 L 658 383.5 Q 663.4 380.8 661.5 378 Z " /><path fill="var(--primary)" stroke="rgb(255,0,255)" stroke-width="1" opacity="1" d="M 343.5 383 L 345 384.5 L 326 403.5 L 324.5 406 L 324 404.5 L 335.5 392 L 338 390.5 L 337 389.5 L 343.5 383 Z " /><path fill="var(--primary)" stroke="rgb(255,0,255)" stroke-width="1" opacity="1" d="M 351.5 384 L 329 407.5 L 330.5 410 L 333 411.5 L 331.5 411 L 328 408.5 L 351.5 384 Z " /><path fill="var(--primary)" stroke="rgb(255,0,255)" stroke-width="1" opacity="1" d="M 630.5 384 L 637.5 390 L 640.5 388 L 639.5 390 L 636.5 391 L 630.5 384 Z " /><path fill="var(--primary)" stroke="rgb(255,0,255)" stroke-width="1" opacity="1" d="M 308.5 387 L 312 388.5 L 313.5 392 L 316 390.5 L 312 393 L 311 388 Q 306.9 386.3 308 390.5 L 307 390.5 L 308.5 387 Z " /><path fill="var(--primary)" stroke="rgb(255,0,255)" stroke-width="1" opacity="1" d="M 649.5 390 L 657 396.5 L 650.5 391 L 644 396.5 L 647 400.5 L 643 397.5 L 649.5 390 Z " /><path fill="var(--primary)" stroke="rgb(255,0,255)" stroke-width="1" opacity="1" d="M 753.5 394 L 755 402.5 L 753.5 406 L 753 403.5 L 754 397.5 L 753 397.5 L 752.5 401 L 752 397.5 L 753.5 394 Z " /><path fill="var(--primary)" stroke="rgb(255,0,255)" stroke-width="1" opacity="1" d="M 571.5 406 Q 580.9 407.6 586 413.5 L 587 415.5 L 585.5 416 L 571.5 406 Z " /><path fill="var(--primary)" stroke="rgb(255,0,255)" stroke-width="1" opacity="1" d="M 345.5 407 L 351 415.5 L 349 416.5 L 350 414.5 L 345.5 407 Z " /><path fill="var(--primary)" stroke="rgb(255,0,255)" stroke-width="1" opacity="1" d="M 664.5 408 L 670 412.5 L 665.5 409 L 661.5 412 L 664.5 408 Z " /><path fill="var(--primary)" stroke="rgb(255,0,255)" stroke-width="1" opacity="1" d="M 390.5 410 L 391 411.5 L 385 426 L 378 429 L 373.5 435 Q 354.9 446.9 341 463.5 L 329 476.5 L 328 483.5 L 329 496.5 L 325 499 L 326 504.5 L 325 504.5 Q 320.8 496.2 322 482.5 L 325 470.5 L 358.5 434 Q 372.2 419.7 390.5 410 Z " /><path fill="var(--primary)" stroke="rgb(255,0,255)" stroke-width="1" opacity="1" d="M 461.5 410 Q 469 408 471 411.5 L 468.5 413 L 464.5 416 L 461.5 410 Z " /><path fill="var(--primary)" stroke="rgb(255,0,255)" stroke-width="1" opacity="1" d="M 570.5 413 L 611.5 441 L 618 447.5 L 634 470.5 L 636 478.5 Q 630 497.5 616.5 509 L 615 505.5 L 628 473.5 L 612 455 L 591.5 439 L 586 437 L 584.5 435 L 576.5 429 L 575.5 431 L 570.5 413 Z " /><path fill="var(--primary)" stroke="rgb(255,0,255)" stroke-width="1" opacity="1" d="M 440.5 415 L 442.5 415 L 447 415.5 L 439 422.5 Q 435.7 427.2 437 436.5 L 440 438.5 L 438.5 439 L 436.5 438 L 437 439.5 L 435.5 441 L 434 441.5 L 435 439.5 L 433 435.5 L 435.5 434 L 435.5 433 L 434 431.5 L 436 431.5 L 434 428.5 L 437 418 L 439 416.5 L 440.5 415 Z " /><path fill="var(--primary)" stroke="rgb(255,0,255)" stroke-width="1" opacity="1" d="M 299.5 418 L 298 420.5 L 286.5 435 L 289 431.5 L 299.5 418 Z " /><path fill="var(--primary)" stroke="rgb(255,0,255)" stroke-width="1" opacity="1" d="M 758.5 422 L 759 424.5 L 758 427.5 L 759 427.5 L 759.5 426 L 760 428.5 L 760 430.5 L 759.5 433 L 757 424.5 L 758.5 422 Z " /><path fill="var(--primary)" stroke="rgb(255,0,255)" stroke-width="1" opacity="1" d="M 334.5 426 L 338 428.5 L 327.5 439 L 322.5 439 L 322.5 438 L 327.5 438 L 337 428.5 L 334.5 426 Z " /><path fill="var(--primary)" stroke="rgb(255,0,255)" stroke-width="1" opacity="1" d="M 801.5 428 L 802 443.5 L 801 443.5 L 801.5 428 Z " /><path fill="var(--primary)" stroke="rgb(255,0,255)" stroke-width="1" opacity="1" d="M 465.5 430 L 458.5 438 L 465.5 430 Z " /><path fill="var(--primary)" stroke="rgb(255,0,255)" stroke-width="1" opacity="1" d="M 541.5 443 L 543 443.5 L 537.5 448 L 535.5 447 L 534.5 450 L 528 452 L 530 456.5 L 528 457 L 527.5 455 L 526.5 457 L 525 456.5 L 524 459.5 L 525 463 L 523 463.5 L 526 465.5 L 527.5 467 L 530 467.5 L 530 469.5 L 530.5 471 L 538.5 466 L 543 468 L 541 473.5 L 542 476 Q 537.9 477.7 539 473.5 L 538 473.5 L 536.5 476 L 537 477.5 L 538 481.5 L 536.5 481 Q 533.1 480.1 535 485.5 L 532.5 489 L 529 491.5 L 530 493.5 L 529 493.5 L 527 492 L 526 495.5 L 526.5 497 L 524 498.5 L 524 500.5 L 523.5 502 L 520.5 500 Q 519.3 511.8 511.5 517 L 506.5 515 L 507 516.5 L 508 519.5 L 505.5 523 L 508.5 522 L 515.5 523 L 518.5 522 L 524.5 525 L 529 522.5 L 527 522 L 527.5 520 L 529 520.5 L 529.5 518 L 532.5 520 L 535.5 516 L 534 514.5 L 536.5 511 L 538 511.5 L 537 509.5 L 538.5 507 L 541 508 L 541.5 510 L 542 507.5 L 540 503.5 L 546.5 496 L 548 493.5 L 550 490.5 L 549 488.5 L 554 480.5 L 553 478.5 L 559 469.5 L 558 467.5 L 560 463.5 L 558 460.5 L 562.5 449 L 564 452.5 L 563 454.5 L 564 463.5 L 564 465.5 L 564 468 L 561 469.5 L 563 475.5 Q 559.7 490.7 551.5 501 L 550 501.5 L 551 503.5 L 542 515 L 538 516 L 526.5 530 L 523.5 532 L 515.5 538 L 515 536 L 512 537.5 L 514 538.5 Q 497.9 542.4 476.5 541 L 474.5 540 L 469.5 541 Q 457.5 542.5 452.5 537 L 450.5 538 L 439 531.5 L 441 530.5 L 439 530 L 440.5 528 L 440 526.5 L 438.5 524 L 435 528 L 431.5 528 L 430 524 L 424.5 522 L 421 519.5 L 422 517.5 L 420.5 515 L 417.5 516 L 415 512.5 L 416 510 L 414 509.5 L 415 507.5 L 413 502.5 L 414.5 500 Q 410.8 501 412 498 L 415 497.5 L 411 496 L 409 488.5 L 411 485 L 416 483.5 L 417.5 482 L 421 481 Q 419.8 478 423.5 479 L 425 476 L 428 474.5 L 429.5 475 L 436 472 L 435 474.5 L 439 477.5 L 443.5 485 L 447 487.5 L 447 489.5 L 447 492 L 443 496 L 447 496 L 448.5 493 L 448.5 491 L 450.5 491 L 463 496.5 L 463 498.5 L 463.5 500 L 464.5 497 L 467.5 498 L 474.5 497 L 489.5 499 L 489.5 497 Q 492.9 496.2 491 501 L 487.5 500 L 487 501.5 L 489 505.5 L 488.5 507 L 490.5 508 L 491 506.5 L 490.5 505 L 493 506.5 L 493.5 509 L 496.5 507 L 498 512.5 L 497 516.5 L 498 516.5 L 500 512.5 L 499 510.5 L 500 508.5 L 493.5 504 L 490.5 503 L 489 503.5 Q 488.1 500.5 492.5 502 L 492 500.5 L 492.5 498 L 494 498.5 L 493 494.5 L 495.5 494 L 503 492 L 504.5 490 L 506 490.5 L 508.5 485 L 512 482.5 L 521 468.5 L 520 465.5 L 523.5 456 L 525 454 L 523 452.5 L 524.5 450 L 523 449.5 L 526 448 Q 524.6 444 531.5 446 L 533.5 446 L 541.5 443 Z " /><path fill="var(--primary)" stroke="rgb(255,0,255)" stroke-width="1" opacity="1" d="M 712.5 443 L 707.5 449 L 704.5 450 L 704.5 449 L 712.5 443 Z " /><path fill="var(--primary)" stroke="rgb(255,0,255)" stroke-width="1" opacity="1" d="M 298.5 445 L 297 447.5 L 295 450.5 L 301 453.5 L 299.5 454 L 295.5 452 L 294 455 L 291.5 456 L 293 453.5 L 298.5 445 Z " /><path fill="var(--primary)" stroke="rgb(255,0,255)" stroke-width="1" opacity="1" d="M 317.5 450 L 312.5 456 L 306 455.5 Q 315.4 456.4 317.5 450 Z " /><path fill="var(--primary)" stroke="rgb(255,0,255)" stroke-width="1" opacity="1" d="M 169.5 453 L 170 472.5 L 169 472.5 L 169.5 453 Z " /><path fill="var(--primary)" stroke="rgb(255,0,255)" stroke-width="1" opacity="1" d="M 433.5 453 L 434 458 L 432 458.5 L 434 459 L 432.5 462 L 432.5 463 L 434 465.5 L 435 467.5 L 422.5 475 L 421 472.5 L 426 466 L 422.5 468 L 417 466.5 L 425 462.5 L 426 458.5 L 426 456.5 L 427.5 454 L 431.5 455 L 433.5 453 Z " /><path fill="var(--primary)" stroke="rgb(255,0,255)" stroke-width="1" opacity="1" d="M 591.5 453 L 591 454.5 L 592.5 457 L 594 454.5 L 593.5 453 L 595 456.5 L 592.5 458 L 590 457 L 591.5 453 Z " /><path fill="var(--primary)" stroke="rgb(255,0,255)" stroke-width="1" opacity="1" d="M 286.5 458 L 287 459.5 L 285 462.5 L 289 460.5 L 282.5 469 L 281 470.5 L 279 469.5 L 281 468.5 L 281 466.5 L 286.5 458 Z " /><path fill="var(--primary)" stroke="rgb(255,0,255)" stroke-width="1" opacity="1" d="M 536.5 460 L 540.5 461 L 542.5 460 L 543 462.5 L 542.5 464 L 533 464 L 534.5 462 L 536.5 460 Z " /><path fill="var(--primary)" stroke="rgb(255,0,255)" stroke-width="1" opacity="1" d="M 411 468 Q 417.4 466.5 417 469.5 L 408.5 473 L 406 473.5 L 405.5 475 L 405 472.5 L 405.5 471 L 407 471.5 Q 406.2 468.1 411 470 L 411 468 Z " /><path fill="var(--primary)" stroke="rgb(255,0,255)" stroke-width="1" opacity="1" d="M 273.5 469 L 274 470.5 L 271 477.5 L 273.5 479 L 276 477.5 L 272.5 480 L 270 475.5 L 273.5 469 Z " /><path fill="var(--primary)" stroke="rgb(255,0,255)" stroke-width="1" opacity="1" d="M 802.5 474 L 803 492.5 L 802 492.5 L 802.5 474 Z " /><path fill="var(--primary)" stroke="rgb(255,0,255)" stroke-width="1" opacity="1" d="M 648.5 479 L 650 482.5 L 644.5 493 L 643 493.5 L 643 495.5 L 640.5 499 L 637.5 496 L 638 497.5 L 637.5 499 L 635 499.5 L 635.5 501 L 634 500.5 L 629 507.5 L 629.5 510 L 632 510.5 L 625.5 517 L 623 517 L 623.5 519 L 625 518.5 L 618.5 527 L 618 525.5 L 621 521.5 Q 619 517 617 520.5 L 617.5 522 L 614.5 523 L 611.5 525 L 615.5 520 L 618 518.5 Q 615.3 516.8 619.5 515 Q 621.3 517.8 623 513.5 L 639 493.5 L 644.5 480 L 645 483 Q 650.2 485.1 649 480.5 L 648.5 479 Z " /><path fill="var(--primary)" stroke="rgb(255,0,255)" stroke-width="1" opacity="1" d="M 288.5 484 L 281.5 492 L 288.5 484 Z " /><path fill="var(--primary)" stroke="rgb(255,0,255)" stroke-width="1" opacity="1" d="M 690.5 487 L 692 487.5 Q 687.4 491.4 676.5 489 L 676.5 488 L 690.5 487 Z " /><path fill="var(--primary)" stroke="rgb(255,0,255)" stroke-width="1" opacity="1" d="M 306.5 488 L 307 496 L 290 509.5 L 288 512.5 L 289.5 515 L 285 505.5 L 306.5 488 Z " /><path fill="var(--primary)" stroke="rgb(255,0,255)" stroke-width="1" opacity="1" d="M 637.5 500 L 640 500.5 L 632.5 509 L 631 508.5 L 635 505.5 L 638 501.5 L 637.5 500 Z " /><path fill="var(--primary)" stroke="rgb(255,0,255)" stroke-width="1" opacity="1" d="M 568.5 503 L 567 505.5 L 560.5 514 L 563 510.5 L 568.5 503 Z " /><path fill="var(--primary)" stroke="rgb(255,0,255)" stroke-width="1" opacity="1" d="M 655.5 504 L 658 504.5 L 652 508.5 L 654.5 509 L 657 507.5 L 651 510 L 655.5 504 Z " /><path fill="var(--primary)" stroke="rgb(255,0,255)" stroke-width="1" opacity="1" d="M 670.5 504 L 673.5 506 L 676 506.5 L 675 508.5 L 676.5 511 L 674 507 L 670.5 504 Z " /><path fill="var(--primary)" stroke="rgb(255,0,255)" stroke-width="1" opacity="1" d="M 279 510 Q 282.3 508.7 281 513.5 L 286.5 521 L 288 521.5 L 284.5 522 L 282 517.5 L 279 510 Z " /><path fill="var(--primary)" stroke="rgb(255,0,255)" stroke-width="1" opacity="1" d="M 312.5 513 L 319 518 L 319.5 516 L 320 519 Q 313.1 519.7 312.5 513 Z " /><path fill="var(--primary)" stroke="rgb(255,0,255)" stroke-width="1" opacity="1" d="M 330.5 514 L 340.5 525 L 348 527.5 L 346.5 528 Q 336.9 526.1 333 518.5 L 330.5 514 Z " /><path fill="var(--primary)" stroke="rgb(255,0,255)" stroke-width="1" opacity="1" d="M 398.5 518 L 410 528.5 L 407.5 527 L 398.5 518 Z " /><path fill="var(--primary)" stroke="rgb(255,0,255)" stroke-width="1" opacity="1" d="M 555.5 520 L 550 526.5 L 541.5 536 L 549 527.5 L 555.5 520 Z " /><path fill="var(--primary)" stroke="rgb(255,0,255)" stroke-width="1" opacity="1" d="M 609.5 525 L 605.5 530 L 601.5 533 L 604.5 529 L 609.5 525 Z " /><path fill="var(--primary)" stroke="rgb(255,0,255)" stroke-width="1" opacity="1" d="M 663.5 525 L 661 528.5 L 654.5 537 L 657 533.5 L 663.5 525 Z " /><path fill="var(--primary)" stroke="rgb(255,0,255)" stroke-width="1" opacity="1" d="M 344.5 528 L 348 529.5 L 347 532 L 353 534.5 Q 351.3 537.8 349.5 534 L 343 529.5 L 344.5 528 Z " /><path fill="var(--primary)" stroke="rgb(255,0,255)" stroke-width="1" opacity="1" d="M 349.5 528 L 358 532.5 L 356.5 532 L 351 530 L 350.5 532 L 349.5 530 L 351 529.5 L 349.5 528 Z " /><path fill="var(--primary)" stroke="rgb(255,0,255)" stroke-width="1" opacity="1" d="M 321.5 530 L 327 530.5 L 321 531.5 L 321 533.5 L 323 536.5 L 319.5 534 L 306 533.5 L 320 533 L 321.5 530 Z " /><path fill="var(--primary)" stroke="rgb(255,0,255)" stroke-width="1" opacity="1" d="M 328.5 531 L 335 534.5 L 331.5 535 L 331.5 533 L 327.5 534 L 324 532.5 L 326.5 532 L 329.5 533 L 329.5 532 L 328.5 531 Z " /><path fill="var(--primary)" stroke="rgb(255,0,255)" stroke-width="1" opacity="1" d="M 653.5 538 L 651 541.5 L 645 549.5 L 648 554.5 L 646 553.5 L 644 548.5 L 653.5 538 Z " /><path fill="var(--primary)" stroke="rgb(255,0,255)" stroke-width="1" opacity="1" d="M 591.5 539 L 589.5 542 L 581.5 547 L 582.5 545 L 591.5 539 Z " /><path fill="var(--primary)" stroke="rgb(255,0,255)" stroke-width="1" opacity="1" d="M 620.5 541 L 624 542.5 L 618.5 546 L 618.5 545 L 623 542.5 L 620.5 542 L 619 542.5 L 620.5 541 Z " /><path fill="var(--primary)" stroke="rgb(255,0,255)" stroke-width="1" opacity="1" d="M 366.5 542 L 372 545.5 L 370 546.5 L 370.5 545 L 368.5 546 L 368.5 544 L 366.5 545 L 366.5 542 Z " /><path fill="var(--primary)" stroke="rgb(255,0,255)" stroke-width="1" opacity="1" d="M 376.5 543 L 385 549.5 L 383.5 549 L 376.5 543 Z " /><path fill="var(--primary)" stroke="rgb(255,0,255)" stroke-width="1" opacity="1" d="M 328.5 545 L 341 551.5 L 339.5 551 L 328.5 545 Z " /><path fill="var(--primary)" stroke="rgb(255,0,255)" stroke-width="1" opacity="1" d="M 446.5 545 Q 451.9 543.1 451 546.5 L 452.5 546 L 460 548.5 L 455.5 549 L 446.5 545 Z " /><path fill="var(--primary)" stroke="rgb(255,0,255)" stroke-width="1" opacity="1" d="M 311.5 547 L 327 557.5 L 325.5 557 L 313.5 550 L 311.5 551 L 309.5 550 L 308 552.5 L 313 556.5 L 311.5 556 L 307 552.5 L 309.5 549 L 312.5 550 L 311.5 547 Z " /><path fill="var(--primary)" stroke="rgb(255,0,255)" stroke-width="1" opacity="1" d="M 225.5 549 L 229 558.5 L 227.5 561 L 227 558.5 L 227.5 557 Q 224.5 557.9 226 553.5 L 225.5 549 Z " /><path fill="var(--primary)" stroke="rgb(255,0,255)" stroke-width="1" opacity="1" d="M 456.5 553 L 472 553.5 L 456.5 554 L 456.5 553 Z " /><path fill="var(--primary)" stroke="rgb(255,0,255)" stroke-width="1" opacity="1" d="M 566.5 558 L 568 558.5 L 566 559 L 567.5 562 L 571 563.5 Q 567.7 566.7 559.5 565 L 559.5 564 L 568 563.5 L 565 562 L 566.5 558 Z " /><path fill="var(--primary)" stroke="rgb(255,0,255)" stroke-width="1" opacity="1" d="M 610.5 559 L 612 561 L 601.5 567 L 602.5 565 L 610.5 559 Z " /><path fill="var(--primary)" stroke="rgb(255,0,255)" stroke-width="1" opacity="1" d="M 345.5 560 L 343 563.5 L 344.5 566 L 350 563.5 L 350.5 562 L 351 563.5 Q 350.3 567.7 344.5 567 L 342 566 L 345.5 560 Z " /><path fill="var(--primary)" stroke="rgb(255,0,255)" stroke-width="1" opacity="1" d="M 601.5 560 L 599.5 563 L 593 566 L 593.5 562 L 594.5 565 L 601.5 560 Z " /><path fill="var(--primary)" stroke="rgb(255,0,255)" stroke-width="1" opacity="1" d="M 615.5 561 L 619 562.5 L 617.5 563 L 615.5 562 L 607.5 568 L 608.5 566 L 615.5 561 Z " /><path fill="var(--primary)" stroke="rgb(255,0,255)" stroke-width="1" opacity="1" d="M 630.5 562 L 623.5 570 L 630.5 562 Z " /><path fill="var(--primary)" stroke="rgb(255,0,255)" stroke-width="1" opacity="1" d="M 636.5 562 L 642 567.5 L 643 577.5 L 641 578 Q 643.3 565 636.5 562 Z " /><path fill="var(--primary)" stroke="rgb(255,0,255)" stroke-width="1" opacity="1" d="M 380.5 569 L 383 570.5 L 381.5 570 L 380 571.5 L 380.5 574 L 385 575.5 L 382.5 576 L 378 574 L 380.5 569 Z " /><path fill="var(--primary)" stroke="rgb(255,0,255)" stroke-width="1" opacity="1" d="M 577 569 L 581 569.5 L 578 570.5 L 580.5 572 Q 582.2 569.3 584 573.5 L 582 574 L 581.5 572 L 579.5 572 L 577 570.5 L 577 569 Z " /><path fill="var(--primary)" stroke="rgb(255,0,255)" stroke-width="1" opacity="1" d="M 474.5 570 L 501 570.5 L 474.5 571 L 474.5 570 Z " /><path fill="var(--primary)" stroke="rgb(255,0,255)" stroke-width="1" opacity="1" d="M 234.5 572 L 246 595.5 L 245 598.5 L 248 603.5 L 246 602.5 L 232 573 L 234.5 572 Z " /><path fill="var(--primary)" stroke="rgb(255,0,255)" stroke-width="1" opacity="1" d="M 339.5 573 L 341 576.5 L 337.5 578 L 333 574.5 L 334.5 574 L 340 577 L 339.5 573 Z " /><path fill="var(--primary)" stroke="rgb(255,0,255)" stroke-width="1" opacity="1" d="M 349 573 L 353 574.5 L 352.5 576 L 354.5 575 L 356.5 580 L 349 575 L 349 573 Z " /><path fill="var(--primary)" stroke="rgb(255,0,255)" stroke-width="1" opacity="1" d="M 458.5 577 L 496 577.5 L 458.5 578 L 458.5 577 Z " /><path fill="var(--primary)" stroke="rgb(255,0,255)" stroke-width="1" opacity="1" d="M 342.5 578 L 345.5 583 L 364.5 601 L 365.5 598 L 366 602 L 345.5 584 L 349 588.5 L 360 600.5 L 348 589.5 L 344 584.5 L 344.5 583 L 341.5 581 Q 339.8 584.8 338 581.5 L 339.5 579 L 339 580.5 L 339.5 582 L 342.5 578 Z " /><path fill="var(--primary)" stroke="rgb(255,0,255)" stroke-width="1" opacity="1" d="M 603.5 578 L 601.5 581 L 597.5 584 L 596 581.5 L 597 581.5 L 597.5 583 L 603.5 578 Z " /><path fill="var(--primary)" stroke="rgb(255,0,255)" stroke-width="1" opacity="1" d="M 568.5 581 L 570 581.5 L 561 586.5 L 562.5 588 L 562.5 589 L 560 587.5 L 562.5 584 L 568.5 581 Z " /><path fill="var(--primary)" stroke="rgb(255,0,255)" stroke-width="1" opacity="1" d="M 539.5 590 L 540 592 L 545.5 591 L 546.5 593 L 542 594.5 L 543 596.5 L 541 595.5 L 539.5 590 Z " /><path fill="var(--primary)" stroke="rgb(255,0,255)" stroke-width="1" opacity="1" d="M 565.5 590 L 568 591.5 L 559.5 596 L 559.5 595 L 567 591.5 L 565.5 590 Z " /><path fill="var(--primary)" stroke="rgb(255,0,255)" stroke-width="1" opacity="1" d="M 458.5 591 L 471.5 591 L 472 592.5 L 474 595.5 L 473 595.5 L 470.5 592 L 458.5 592 L 458.5 591 Z " /><path fill="var(--primary)" stroke="rgb(255,0,255)" stroke-width="1" opacity="1" d="M 412.5 592 L 416.5 594 L 419 593 L 419.5 595 L 422.5 594 L 422.5 595 L 419.5 596 L 412.5 592 Z " /><path fill="var(--primary)" stroke="rgb(255,0,255)" stroke-width="1" opacity="1" d="M 601.5 595 L 603 601.5 L 602 604.5 L 604 604.5 L 602.5 609 L 601.5 605 L 600 605.5 L 602 598.5 L 601.5 595 Z " /><path fill="var(--primary)" stroke="rgb(255,0,255)" stroke-width="1" opacity="1" d="M 400.5 598 L 401.5 609 L 402.5 607 L 403 608.5 L 403.5 612 L 400 609.5 L 400.5 598 Z " /><path fill="var(--primary)" stroke="rgb(255,0,255)" stroke-width="1" opacity="1" d="M 372.5 599 L 376 601.5 L 373.5 600 L 372 602.5 L 371 605.5 L 382 614.5 L 379.5 615 L 367.5 607 L 366.5 609 L 366 607.5 L 368.5 607 L 372.5 609 L 370 605.5 L 372.5 599 Z " /><path fill="var(--primary)" stroke="rgb(255,0,255)" stroke-width="1" opacity="1" d="M 773.5 599 L 774 600.5 L 767.5 612 L 768 610.5 L 773.5 599 Z " /><path fill="var(--primary)" stroke="rgb(255,0,255)" stroke-width="1" opacity="1" d="M 595.5 602 L 596 614.5 L 595 616.5 L 598 614.5 L 598.5 613 L 599 614.5 Q 596.5 620.5 594 616.5 L 595.5 602 Z " /><path fill="var(--primary)" stroke="rgb(255,0,255)" stroke-width="1" opacity="1" d="M 270.5 603 L 277 611.5 L 274 609.5 L 270.5 603 Z " /><path fill="var(--primary)" stroke="rgb(255,0,255)" stroke-width="1" opacity="1" d="M 558.5 605 L 561 605.5 L 552.5 609 L 549 607.5 L 550.5 606 L 553.5 608 L 558.5 605 Z " /><path fill="var(--primary)" stroke="rgb(255,0,255)" stroke-width="1" opacity="1" d="M 484 608 L 494.5 608 L 495 609.5 L 493.5 609 L 485 609 L 485 616.5 L 484 616.5 L 484 608 Z " /><path fill="var(--primary)" stroke="rgb(255,0,255)" stroke-width="1" opacity="1" d="M 500 608 L 513 608.5 L 501 609 L 500.5 613 L 500 608 Z " /><path fill="var(--primary)" stroke="rgb(255,0,255)" stroke-width="1" opacity="1" d="M 284.5 623 L 293 632.5 L 289 629.5 L 284.5 623 Z " /><path fill="var(--primary)" stroke="rgb(255,0,255)" stroke-width="1" opacity="1" d="M 760.5 623 L 760 624.5 L 753.5 634 L 755 631.5 L 760.5 623 Z " /><path fill="var(--primary)" stroke="rgb(255,0,255)" stroke-width="1" opacity="1" d="M 485.5 630 L 507.5 630 L 508 632 L 501.5 633 L 501.5 632 L 506 631.5 L 485.5 631 L 485.5 630 Z " /><path fill="var(--primary)" stroke="rgb(255,0,255)" stroke-width="1" opacity="1" d="M 674.5 632 L 665.5 642 L 674.5 632 Z " /><path fill="var(--primary)" stroke="rgb(255,0,255)" stroke-width="1" opacity="1" d="M 293.5 634 L 305.5 647 L 293.5 634 Z " /><path fill="var(--primary)" stroke="rgb(255,0,255)" stroke-width="1" opacity="1" d="M 663.5 644 L 649.5 659 L 663.5 644 Z " /><path fill="var(--primary)" stroke="rgb(255,0,255)" stroke-width="1" opacity="1" d="M 309.5 650 L 319.5 661 L 309.5 650 Z " /><path fill="var(--primary)" stroke="rgb(255,0,255)" stroke-width="1" opacity="1" d="M 262.5 660 L 270 665.5 L 271.5 667 L 274.5 671 L 270 669 L 267.5 665 L 264.5 663 L 262.5 660 Z " /><path fill="var(--primary)" stroke="rgb(255,0,255)" stroke-width="1" opacity="1" d="M 254.5 682 L 270.5 699 L 254.5 682 Z " /><path fill="var(--primary)" stroke="rgb(255,0,255)" stroke-width="1" opacity="1" d="M 744.5 682 L 761 697.5 L 759.5 698 L 744.5 682 Z " /><path fill="var(--primary)" stroke="rgb(255,0,255)" stroke-width="1" opacity="1" d="M 769.5 692 L 772.5 692 L 779 697.5 L 777.5 697 L 769.5 693 L 767.5 694 L 767.5 693 L 769.5 692 Z " /><path fill="var(--primary)" stroke="rgb(255,0,255)" stroke-width="1" opacity="1" d="M 785.5 703 L 792.5 711 L 785.5 703 Z " /><path fill="var(--primary)" stroke="rgb(255,0,255)" stroke-width="1" opacity="1" d="M 798.5 716 L 810 726.5 L 799.5 717 L 798.5 716 Z " /><path fill="var(--primary)" stroke="rgb(255,0,255)" stroke-width="1" opacity="1" d="M 474.5 718 L 502 718.5 L 474.5 719 L 474.5 718 Z " /><path fill="var(--primary)" stroke="rgb(255,0,255)" stroke-width="1" opacity="1" d="M 669.5 719 L 666.5 723 L 660.5 727 L 662.5 724 L 669.5 719 Z " /><path fill="var(--primary)" stroke="rgb(255,0,255)" stroke-width="1" opacity="1" d="M 690.5 726 L 698.5 735 L 690.5 726 Z " /><path fill="var(--primary)" stroke="rgb(255,0,255)" stroke-width="1" opacity="1" d="M 817.5 736 L 826.5 746 L 817.5 736 Z " /><path fill="var(--primary)" stroke="rgb(255,0,255)" stroke-width="1" opacity="1" d="M 585.5 745 L 588 745.5 L 575.5 750 L 575.5 749 L 585.5 745 Z " /><path fill="var(--primary)" stroke="rgb(255,0,255)" stroke-width="1" opacity="1" d="M 827.5 747 L 850.5 771 L 827.5 747 Z " /><path fill="var(--primary)" stroke="rgb(255,0,255)" stroke-width="1" opacity="1" d="M 706.5 752 L 713 767.5 L 711 766.5 Q 711.2 758.8 706 756.5 L 706.5 752 Z " /><path fill="var(--primary)" stroke="rgb(255,0,255)" stroke-width="1" opacity="1" d="M 853.5 772 L 869.5 789 L 853.5 772 Z " /><path fill="var(--primary)" stroke="rgb(255,0,255)" stroke-width="1" opacity="1" d="M 871.5 789 L 898.5 817 L 871.5 789 Z " /><path fill="var(--primary)" stroke="rgb(255,0,255)" stroke-width="1" opacity="1" d="M 733.5 791 L 751.5 810 L 733.5 791 Z " /><path fill="var(--primary)" stroke="rgb(255,0,255)" stroke-width="1" opacity="1" d="M 753.5 811 L 771.5 830 L 753.5 811 Z " /><path fill="var(--primary)" stroke="rgb(255,0,255)" stroke-width="1" opacity="1" d="M 785.5 844 L 793.5 853 L 785.5 844 Z " /><path fill="var(--primary)" stroke="rgb(255,0,255)" stroke-width="1" opacity="1" d="M 796.5 856 L 807.5 868 L 796.5 856 Z " /><path fill="var(--primary)" stroke="rgb(255,0,255)" stroke-width="1" opacity="1" d="M 809.5 870 L 847.5 909 L 809.5 870 Z " /><path fill="var(--primary)" stroke="rgb(255,0,255)" stroke-width="1" opacity="1" d="M 918.5 896 L 914 901.5 L 912.5 904 L 911 905.5 L 910 905.5 L 911.5 903 L 913 901.5 L 918.5 896 Z " /><path fill="var(--primary)" stroke="rgb(255,0,255)" stroke-width="1" opacity="1" d="M 861.5 917 L 874 919.5 L 865.5 920 L 861.5 917 Z " /></svg>